Note,Velocity,time,acc_time
57,49,0,0.0
45,49,0,0.0
52,49,0,0.0
57,0,1.1375,1.1375
45,0,0,1.1375
52,0,0,1.1375
57,49,0.0625,1.2
48,49,0,1.2
53,49,0,1.2
57,0,0.8525,2.0525
57,49,0.0475,2.1
48,0,0.23750000000000002,2.3375
53,0,0,2.3375
57,0,0.045,2.3825
57,49,0.0175,2.4
45,49,0,2.4
52,49,0,2.4
45,0,1.1375,3.5374999999999996
52,0,0,3.5374999999999996
48,49,0.0625,3.5999999999999996
53,49,0,3.5999999999999996
57,0,1.0775000000000001,4.6775
48,0,0.06,4.7375
53,0,0,4.7375
57,49,0.0625,4.8
45,49,0,4.8
52,49,0,4.8
57,0,1.1375,5.9375
45,0,0,5.9375
52,0,0,5.9375
57,49,0.0625,6.0
48,49,0,6.0
53,49,0,6.0
57,0,0.8525,6.8525
57,49,0.0475,6.9
48,0,0.23750000000000002,7.1375
53,0,0,7.1375
57,0,0.045,7.1825
57,49,0.0175,7.2
45,49,0,7.2
52,49,0,7.2
45,0,1.1375,8.3375
52,0,0,8.3375
48,49,0.0625,8.4
53,49,0,8.4
57,0,1.0775000000000001,9.477500000000001
48,0,0.06,9.537500000000001
53,0,0,9.537500000000001
57,49,0.0625,9.600000000000001
45,49,0,9.600000000000001
52,49,0,9.600000000000001
57,0,1.1375,10.7375
45,0,0,10.7375
52,0,0,10.7375
57,49,0.0625,10.8
48,49,0,10.8
53,49,0,10.8
57,0,0.8525,11.6525
57,49,0.0475,11.7
48,0,0.23750000000000002,11.9375
53,0,0,11.9375
57,0,0.045,11.9825
57,49,0.0175,12.0
45,49,0,12.0
52,49,0,12.0
57,0,1.1375,13.1375
45,0,0,13.1375
52,0,0,13.1375
60,49,0.0625,13.2
48,49,0,13.2
53,49,0,13.2
60,0,0.8525,14.052499999999998
59,49,0.0475,14.099999999999998
48,0,0.23750000000000002,14.337499999999999
53,0,0,14.337499999999999
59,0,0.045,14.382499999999999
59,49,0.0175,14.399999999999999
45,49,0,14.399999999999999
52,49,0,14.399999999999999
59,0,0.8525,15.252499999999998
57,49,0.0475,15.299999999999997
45,0,0.23750000000000002,15.537499999999998
52,0,0,15.537499999999998
57,0,0.045,15.582499999999998
57,49,0.0175,15.599999999999998
48,49,0,15.599999999999998
53,49,0,15.599999999999998
57,0,0.8525,16.452499999999997
57,49,0.0475,16.499999999999996
48,0,0.23750000000000002,16.737499999999997
53,0,0,16.737499999999997
57,0,0.045,16.7825
57,49,0.0175,16.799999999999997
45,49,0,16.799999999999997
52,49,0,16.799999999999997
45,0,1.1375,17.937499999999996
52,0,0,17.937499999999996
48,49,0.0625,17.999999999999996
53,49,0,17.999999999999996
57,0,1.0775000000000001,19.077499999999997
48,0,0.06,19.137499999999996
53,0,0,19.137499999999996
57,64,0.0625,19.199999999999996
60,64,0,19.199999999999996
45,64,0,19.199999999999996
52,64,0,19.199999999999996
57,0,1.1375,20.337499999999995
60,0,0,20.337499999999995
45,0,0,20.337499999999995
52,0,0,20.337499999999995
57,64,0.0625,20.399999999999995
60,64,0,20.399999999999995
48,64,0,20.399999999999995
53,64,0,20.399999999999995
57,0,0.8525,21.252499999999994
60,0,0,21.252499999999994
57,64,0.0475,21.299999999999994
60,64,0,21.299999999999994
48,0,0.23750000000000002,21.537499999999994
53,0,0,21.537499999999994
57,0,0.045,21.582499999999996
60,0,0,21.582499999999996
57,64,0.0175,21.599999999999994
60,64,0,21.599999999999994
45,64,0,21.599999999999994
52,64,0,21.599999999999994
57,0,1.1375,22.737499999999994
60,0,0,22.737499999999994
45,0,0,22.737499999999994
52,0,0,22.737499999999994
60,64,0.0625,22.799999999999994
64,64,0,22.799999999999994
48,64,0,22.799999999999994
53,64,0,22.799999999999994
60,0,0.8525,23.652499999999993
64,0,0,23.652499999999993
59,64,0.0475,23.699999999999992
62,64,0,23.699999999999992
48,0,0.23750000000000002,23.937499999999993
53,0,0,23.937499999999993
59,0,0.045,23.982499999999995
62,0,0,23.982499999999995
59,64,0.0175,23.999999999999993
62,64,0,23.999999999999993
45,64,0,23.999999999999993
52,64,0,23.999999999999993
59,0,0.8525,24.852499999999992
62,0,0,24.852499999999992
57,64,0.0475,24.89999999999999
60,64,0,24.89999999999999
45,0,0.23750000000000002,25.137499999999992
52,0,0,25.137499999999992
57,0,0.045,25.182499999999994
60,0,0,25.182499999999994
57,64,0.0175,25.199999999999992
60,64,0,25.199999999999992
48,64,0,25.199999999999992
53,64,0,25.199999999999992
57,0,0.8525,26.05249999999999
60,0,0,26.05249999999999
57,64,0.0475,26.09999999999999
60,64,0,26.09999999999999
48,0,0.23750000000000002,26.33749999999999
53,0,0,26.33749999999999
57,0,0.045,26.382499999999993
60,0,0,26.382499999999993
57,64,0.0175,26.39999999999999
60,64,0,26.39999999999999
45,64,0,26.39999999999999
52,64,0,26.39999999999999
45,0,1.1375,27.53749999999999
52,0,0,27.53749999999999
48,64,0.0625,27.59999999999999
53,64,0,27.59999999999999
57,0,1.0775000000000001,28.67749999999999
60,0,0,28.67749999999999
48,0,0.06,28.73749999999999
53,0,0,28.73749999999999
60,96,0.0625,28.79999999999999
69,96,0,28.79999999999999
45,96,0,28.79999999999999
52,96,0,28.79999999999999
69,0,0.5675,29.36749999999999
67,96,0.0325,29.399999999999988
45,0,0.5375,29.93749999999999
52,0,0,29.93749999999999
67,0,0.03,29.96749999999999
65,96,0.0325,29.99999999999999
48,96,0,29.99999999999999
53,96,0,29.99999999999999
65,0,0.8525,30.85249999999999
64,96,0.0475,30.899999999999988
60,0,0.1775,31.077499999999986
48,0,0.06,31.137499999999985
53,0,0,31.137499999999985
64,0,0.045,31.182499999999987
60,96,0.0175,31.199999999999985
64,96,0,31.199999999999985
45,96,0,31.199999999999985
52,96,0,31.199999999999985
45,0,1.1375,32.337499999999984
52,0,0,32.337499999999984
48,96,0.0625,32.399999999999984
53,96,0,32.399999999999984
60,0,1.0775000000000001,33.477499999999985
64,0,0,33.477499999999985
48,0,0.06,33.53749999999999
53,0,0,33.53749999999999
60,96,0.0625,33.59999999999999
69,96,0,33.59999999999999
45,96,0,33.59999999999999
52,96,0,33.59999999999999
69,0,0.5675,34.16749999999999
67,96,0.0325,34.19999999999999
45,0,0.5375,34.73749999999999
52,0,0,34.73749999999999
67,0,0.03,34.76749999999999
65,96,0.0325,34.79999999999999
48,96,0,34.79999999999999
53,96,0,34.79999999999999
65,0,0.8525,35.65249999999999
64,96,0.0475,35.69999999999999
60,0,0.1775,35.87749999999999
48,0,0.06,35.93749999999999
53,0,0,35.93749999999999
64,0,0.045,35.982499999999995
60,96,0.0175,35.99999999999999
64,96,0,35.99999999999999
45,96,0,35.99999999999999
52,96,0,35.99999999999999
45,0,1.1375,37.137499999999996
52,0,0,37.137499999999996
48,96,0.0625,37.199999999999996
53,96,0,37.199999999999996
60,0,1.0775000000000001,38.277499999999996
64,0,0,38.277499999999996
48,0,0.06,38.3375
53,0,0,38.3375
57,96,0.0625,38.4
45,96,0,38.4
52,96,0,38.4
57,0,1.1375,39.5375
45,0,0,39.5375
52,0,0,39.5375
57,96,0.0625,39.6
48,96,0,39.6
53,96,0,39.6
57,0,0.8525,40.4525
57,96,0.0475,40.5
48,0,0.23750000000000002,40.7375
53,0,0,40.7375
57,0,0.045,40.7825
57,96,0.0175,40.8
45,96,0,40.8
52,96,0,40.8
57,0,1.1375,41.9375
45,0,0,41.9375
52,0,0,41.9375
60,96,0.0625,42.0
48,96,0,42.0
53,96,0,42.0
60,0,0.8525,42.8525
59,96,0.0475,42.9
48,0,0.23750000000000002,43.137499999999996
53,0,0,43.137499999999996
59,0,0.045,43.1825
59,96,0.0175,43.199999999999996
45,96,0,43.199999999999996
52,96,0,43.199999999999996
59,0,0.8525,44.052499999999995
57,96,0.0475,44.099999999999994
45,0,0.23750000000000002,44.33749999999999
52,0,0,44.33749999999999
57,0,0.045,44.38249999999999
57,96,0.0175,44.39999999999999
48,96,0,44.39999999999999
53,96,0,44.39999999999999
57,0,0.8525,45.25249999999999
57,96,0.0475,45.29999999999999
48,0,0.23750000000000002,45.53749999999999
53,0,0,45.53749999999999
57,0,0.045,45.58249999999999
57,96,0.0175,45.59999999999999
45,96,0,45.59999999999999
52,96,0,45.59999999999999
45,0,1.1375,46.73749999999999
52,0,0,46.73749999999999
48,96,0.0625,46.79999999999999
53,96,0,46.79999999999999
57,0,1.0775000000000001,47.87749999999999
48,0,0.06,47.93749999999999
53,0,0,47.93749999999999
72,96,0.0625,47.99999999999999
81,96,0,47.99999999999999
45,96,0,47.99999999999999
52,96,0,47.99999999999999
81,0,0.5675,48.567499999999995
79,96,0.0325,48.599999999999994
45,0,0.5375,49.137499999999996
52,0,0,49.137499999999996
79,0,0.03,49.1675
77,96,0.0325,49.199999999999996
48,96,0,49.199999999999996
53,96,0,49.199999999999996
77,0,0.8525,50.052499999999995
76,96,0.0475,50.099999999999994
72,0,0.1775,50.277499999999996
48,0,0.06,50.3375
53,0,0,50.3375
76,0,0.045,50.3825
72,96,0.0175,50.4
76,96,0,50.4
45,96,0,50.4
52,96,0,50.4
45,0,1.1375,51.5375
52,0,0,51.5375
48,96,0.0625,51.6
53,96,0,51.6
72,0,1.0775000000000001,52.6775
76,0,0,52.6775
48,0,0.06,52.737500000000004
53,0,0,52.737500000000004
72,96,0.0625,52.800000000000004
81,96,0,52.800000000000004
45,96,0,52.800000000000004
52,96,0,52.800000000000004
81,0,0.5675,53.36750000000001
79,96,0.0325,53.400000000000006
45,0,0.5375,53.93750000000001
52,0,0,53.93750000000001
79,0,0.03,53.96750000000001
77,92,0.0325,54.00000000000001
48,92,0,54.00000000000001
53,92,0,54.00000000000001
77,0,0.8525,54.852500000000006
76,85,0.0475,54.900000000000006
72,0,0.1775,55.07750000000001
48,0,0.06,55.13750000000001
53,0,0,55.13750000000001
76,0,0.045,55.18250000000001
72,83,0.0175,55.20000000000001
76,83,0,55.20000000000001
45,83,0,55.20000000000001
52,83,0,55.20000000000001
45,0,1.1375,56.33750000000001
52,0,0,56.33750000000001
48,74,0.0625,56.40000000000001
53,74,0,56.40000000000001
72,0,1.0775000000000001,57.47750000000001
76,0,0,57.47750000000001
48,0,0.06,57.537500000000016
53,0,0,57.537500000000016
69,64,0.0625,57.600000000000016
45,64,0,57.600000000000016
52,64,0,57.600000000000016
69,0,1.1375,58.73750000000002
45,0,0,58.73750000000002
52,0,0,58.73750000000002
69,64,0.0625,58.80000000000002
48,64,0,58.80000000000002
53,64,0,58.80000000000002
69,0,0.8525,59.65250000000002
69,64,0.0475,59.70000000000002
48,0,0.23750000000000002,59.937500000000014
53,0,0,59.937500000000014
69,0,0.045,59.982500000000016
69,64,0.0175,60.000000000000014
45,64,0,60.000000000000014
52,64,0,60.000000000000014
69,0,1.1375,61.13750000000002
45,0,0,61.13750000000002
52,0,0,61.13750000000002
72,64,0.0625,61.20000000000002
48,64,0,61.20000000000002
53,64,0,61.20000000000002
72,0,0.8525,62.052500000000016
71,64,0.0475,62.100000000000016
48,0,0.23750000000000002,62.33750000000001
53,0,0,62.33750000000001
71,0,0.045,62.382500000000014
71,64,0.0175,62.40000000000001
45,64,0,62.40000000000001
52,64,0,62.40000000000001
71,0,0.8525,63.25250000000001
69,64,0.0475,63.30000000000001
45,0,0.23750000000000002,63.53750000000001
52,0,0,63.53750000000001
69,0,0.045,63.58250000000001
69,64,0.0175,63.60000000000001
48,64,0,63.60000000000001
53,64,0,63.60000000000001
69,0,0.8525,64.45250000000001
69,64,0.0475,64.50000000000001
48,0,0.23750000000000002,64.73750000000001
53,0,0,64.73750000000001
69,0,0.045,64.78250000000001
69,64,0.0175,64.80000000000001
45,64,0,64.80000000000001
52,64,0,64.80000000000001
69,0,1.1375,65.93750000000001
45,0,0,65.93750000000001
52,0,0,65.93750000000001
71,96,0.0625,66.00000000000001
52,96,0,66.00000000000001
59,96,0,66.00000000000001
71,0,1.1375,67.13750000000002
52,0,0,67.13750000000002
59,0,0,67.13750000000002
72,96,0.0625,67.20000000000002
55,96,0,67.20000000000002
60,96,0,67.20000000000002
72,0,1.1375,68.33750000000002
55,0,0,68.33750000000002
60,0,0,68.33750000000002
76,100,0.0625,68.40000000000002
76,0,0.8525,69.25250000000003
77,103,0.0475,69.30000000000003
77,0,0.28250000000000003,69.58250000000002
79,104,0.0175,69.60000000000002
79,0,0.8525,70.45250000000003
81,107,0.0475,70.50000000000003
81,0,0.28250000000000003,70.78250000000003
83,108,0.0175,70.80000000000003
83,0,0.8525,71.65250000000003
84,111,0.0475,71.70000000000003
84,0,0.28250000000000003,71.98250000000003
88,112,0.0175,72.00000000000003
83,112,0,72.00000000000003
83,0,1.1375,73.13750000000003
83,104,0.0625,73.20000000000003
83,0,0.8525,74.05250000000004
81,98,0.0475,74.10000000000004
81,0,0.28250000000000003,74.38250000000004
81,96,0.0175,74.40000000000003
81,0,0.8525,75.25250000000004
79,90,0.0475,75.30000000000004
79,0,0.28250000000000003,75.58250000000004
79,88,0.0175,75.60000000000004
79,0,0.8525,76.45250000000004
77,82,0.0475,76.50000000000004
88,0,0.0575,76.55750000000005
77,0,0.225,76.78250000000004
76,80,0.0175,76.80000000000004
76,0,1.1375,77.93750000000004
76,80,0.0625,78.00000000000004
76,0,0.8525,78.85250000000005
77,80,0.0475,78.90000000000005
77,0,0.28250000000000003,79.18250000000005
79,80,0.0175,79.20000000000005
79,0,0.8525,80.05250000000005
81,80,0.0475,80.10000000000005
81,0,0.28250000000000003,80.38250000000005
83,80,0.0175,80.40000000000005
83,0,0.8525,81.25250000000005
84,80,0.0475,81.30000000000005
84,0,0.28250000000000003,81.58250000000005
84,80,0.0175,81.60000000000005
84,0,2.2775,83.87750000000005
83,80,0.1225,84.00000000000006
83,0,2.2775,86.27750000000006
72,80,0.1225,86.40000000000006
48,80,0,86.40000000000006
48,0,1.1375,87.53750000000007
48,80,0.0625,87.60000000000007
48,0,1.1375,88.73750000000007
45,80,0.0625,88.80000000000007
72,0,1.0175,89.81750000000007
72,80,0.1825,90.00000000000007
45,0,1.0775000000000001,91.07750000000007
72,0,0.06,91.13750000000007
69,80,0.0625,91.20000000000007
48,80,0,91.20000000000007
48,0,1.1375,92.33750000000008
48,80,0.0625,92.40000000000008
48,0,1.1375,93.53750000000008
50,80,0.0625,93.60000000000008
69,0,1.0175,94.61750000000008
50,0,0.12,94.73750000000008
69,80,0.0625,94.80000000000008
50,80,0,94.80000000000008
50,0,0.5675,95.36750000000008
45,80,0.0325,95.40000000000008
69,0,0.5375,95.93750000000007
45,0,0.03,95.96750000000007
69,80,0.0325,96.00000000000007
45,80,0,96.00000000000007
52,80,0,96.00000000000007
69,0,1.1375,97.13750000000007
45,0,0,97.13750000000007
52,0,0,97.13750000000007
69,80,0.0625,97.20000000000007
48,80,0,97.20000000000007
53,80,0,97.20000000000007
69,0,0.8525,98.05250000000008
69,80,0.0475,98.10000000000008
48,0,0.23750000000000002,98.33750000000008
53,0,0,98.33750000000008
69,0,0.045,98.38250000000008
69,80,0.0175,98.40000000000008
45,80,0,98.40000000000008
52,80,0,98.40000000000008
69,0,1.1375,99.53750000000008
45,0,0,99.53750000000008
52,0,0,99.53750000000008
72,80,0.0625,99.60000000000008
48,80,0,99.60000000000008
53,80,0,99.60000000000008
72,0,0.8525,100.45250000000009
71,80,0.0475,100.50000000000009
48,0,0.23750000000000002,100.73750000000008
53,0,0,100.73750000000008
71,0,0.045,100.78250000000008
71,64,0.0175,100.80000000000008
45,64,0,100.80000000000008
52,64,0,100.80000000000008
71,0,0.8525,101.65250000000009
69,64,0.0475,101.70000000000009
45,0,0.23750000000000002,101.93750000000009
52,0,0,101.93750000000009
69,0,0.045,101.98250000000009
69,64,0.0175,102.00000000000009
48,64,0,102.00000000000009
53,64,0,102.00000000000009
69,0,0.8525,102.85250000000009
69,64,0.0475,102.90000000000009
48,0,0.23750000000000002,103.13750000000009
53,0,0,103.13750000000009
69,0,0.045,103.18250000000009
69,64,0.0175,103.20000000000009
45,64,0,103.20000000000009
52,64,0,103.20000000000009
69,0,1.1375,104.33750000000009
45,0,0,104.33750000000009
52,0,0,104.33750000000009
71,96,0.0625,104.40000000000009
52,96,0,104.40000000000009
59,96,0,104.40000000000009
71,0,1.1375,105.5375000000001
52,0,0,105.5375000000001
59,0,0,105.5375000000001
72,96,0.0625,105.6000000000001
55,96,0,105.6000000000001
60,96,0,105.6000000000001
72,0,1.1375,106.7375000000001
55,0,0,106.7375000000001
60,0,0,106.7375000000001
76,100,0.0625,106.8000000000001
76,0,0.8525,107.6525000000001
77,103,0.0475,107.7000000000001
77,0,0.28250000000000003,107.9825000000001
79,104,0.0175,108.0000000000001
79,0,0.8525,108.8525000000001
81,107,0.0475,108.9000000000001
81,0,0.28250000000000003,109.1825000000001
83,108,0.0175,109.2000000000001
83,0,0.8525,110.05250000000011
84,111,0.0475,110.10000000000011
84,0,0.28250000000000003,110.3825000000001
88,112,0.0175,110.4000000000001
83,112,0,110.4000000000001
83,0,1.1375,111.53750000000011
83,104,0.0625,111.60000000000011
83,0,0.8525,112.45250000000011
81,98,0.0475,112.50000000000011
81,0,0.28250000000000003,112.78250000000011
81,96,0.0175,112.80000000000011
81,0,0.8525,113.65250000000012
79,90,0.0475,113.70000000000012
79,0,0.28250000000000003,113.98250000000012
79,88,0.0175,114.00000000000011
79,0,0.8525,114.85250000000012
77,82,0.0475,114.90000000000012
88,0,0.0575,114.95750000000012
77,0,0.225,115.18250000000012
76,80,0.0175,115.20000000000012
76,0,1.1375,116.33750000000012
76,80,0.0625,116.40000000000012
76,0,0.8525,117.25250000000013
77,80,0.0475,117.30000000000013
77,0,0.28250000000000003,117.58250000000012
79,80,0.0175,117.60000000000012
79,0,0.8525,118.45250000000013
81,80,0.0475,118.50000000000013
81,0,0.28250000000000003,118.78250000000013
83,80,0.0175,118.80000000000013
83,0,0.8525,119.65250000000013
84,80,0.0475,119.70000000000013
84,0,0.28250000000000003,119.98250000000013
84,80,0.0175,120.00000000000013
84,0,2.2775,122.27750000000013
83,80,0.1225,122.40000000000013
83,0,2.2775,124.67750000000014
72,80,0.1225,124.80000000000014
48,80,0,124.80000000000014
48,0,1.1375,125.93750000000014
48,80,0.0625,126.00000000000014
48,0,1.1375,127.13750000000014
45,80,0.0625,127.20000000000014
72,0,1.0175,128.21750000000014
72,80,0.1825,128.40000000000015
45,0,1.0775000000000001,129.47750000000013
72,0,0.06,129.53750000000014
69,80,0.0625,129.60000000000014
48,80,0,129.60000000000014
48,0,1.1375,130.73750000000013
48,80,0.0625,130.80000000000013
48,0,1.1375,131.9375000000001
50,80,0.0625,132.0000000000001
69,0,1.0175,133.01750000000013
50,0,0.12,133.13750000000013
69,80,0.0625,133.20000000000013
50,80,0,133.20000000000013
50,0,0.5675,133.76750000000013
45,80,0.0325,133.80000000000013
69,0,0.5375,134.33750000000012
45,0,0.03,134.36750000000012
69,80,0.0325,134.40000000000012
45,80,0,134.40000000000012
52,80,0,134.40000000000012
69,0,1.1375,135.5375000000001
45,0,0,135.5375000000001
52,0,0,135.5375000000001
69,80,0.0625,135.6000000000001
48,80,0,135.6000000000001
53,80,0,135.6000000000001
69,0,0.8525,136.4525000000001
69,80,0.0475,136.5000000000001
48,0,0.23750000000000002,136.73750000000013
53,0,0,136.73750000000013
69,0,0.045,136.7825000000001
69,80,0.0175,136.80000000000013
45,80,0,136.80000000000013
52,80,0,136.80000000000013
69,0,1.1375,137.9375000000001
45,0,0,137.9375000000001
52,0,0,137.9375000000001
72,80,0.0625,138.0000000000001
48,80,0,138.0000000000001
53,80,0,138.0000000000001
72,0,0.8525,138.8525000000001
71,80,0.0475,138.90000000000012
48,0,0.23750000000000002,139.13750000000013
53,0,0,139.13750000000013
71,0,0.045,139.18250000000012
71,80,0.0175,139.20000000000013
45,80,0,139.20000000000013
52,80,0,139.20000000000013
71,0,0.8525,140.05250000000012
69,80,0.0475,140.10000000000014
45,0,0.23750000000000002,140.33750000000015
52,0,0,140.33750000000015
69,0,0.045,140.38250000000014
69,80,0.0175,140.40000000000015
48,80,0,140.40000000000015
53,80,0,140.40000000000015
69,0,0.8525,141.25250000000014
69,80,0.0475,141.30000000000015
48,0,0.23750000000000002,141.53750000000016
53,0,0,141.53750000000016
69,0,0.045,141.58250000000015
69,80,0.0175,141.60000000000016
45,80,0,141.60000000000016
52,80,0,141.60000000000016
69,0,1.1375,142.73750000000015
45,0,0,142.73750000000015
52,0,0,142.73750000000015
67,80,0.0625,142.80000000000015
48,80,0,142.80000000000015
53,80,0,142.80000000000015
67,0,1.1375,143.93750000000014
48,0,0,143.93750000000014
53,0,0,143.93750000000014
69,80,0,143.93750000000014
41,80,0,143.93750000000014
41,0,0.3783333333333333,144.31583333333347
48,80,0.021666666666666664,144.33750000000015
48,0,0.3783333333333333,144.71583333333348
57,80,0.021666666666666664,144.73750000000015
57,0,0.3783333333333333,145.11583333333348
48,80,0.021666666666666664,145.13750000000016
69,0,0.3183333333333333,145.4558333333335
48,0,0.06,145.5158333333335
70,80,0.021666666666666664,145.53750000000016
41,80,0,145.53750000000016
70,0,0.3783333333333333,145.9158333333335
41,0,0,145.9158333333335
69,80,0.021666666666666664,145.93750000000017
48,80,0,145.93750000000017
69,0,0.3783333333333333,146.3158333333335
48,0,0,146.3158333333335
67,80,0.021666666666666664,146.33750000000018
57,80,0,146.33750000000018
67,0,0.3783333333333333,146.7158333333335
57,0,0,146.7158333333335
65,80,0.021666666666666664,146.73750000000018
48,80,0,146.73750000000018
65,0,0.3783333333333333,147.1158333333335
48,0,0,147.1158333333335
64,80,0.021666666666666664,147.1375000000002
36,80,0,147.1375000000002
36,0,0.3783333333333333,147.51583333333352
48,80,0.021666666666666664,147.5375000000002
64,0,0.35833333333333334,147.8958333333335
48,0,0.019999999999999997,147.91583333333352
74,80,0.021666666666666664,147.9375000000002
58,80,0,147.9375000000002
58,0,0.3783333333333333,148.31583333333353
52,80,0.021666666666666664,148.3375000000002
74,0,0.35833333333333334,148.69583333333352
52,0,0.019999999999999997,148.71583333333353
72,80,0.021666666666666664,148.7375000000002
36,80,0,148.7375000000002
36,0,0.3783333333333333,149.11583333333354
48,80,0.021666666666666664,149.13750000000022
48,0,0.3783333333333333,149.51583333333355
58,80,0.021666666666666664,149.53750000000022
58,0,0.3783333333333333,149.91583333333355
52,80,0.021666666666666664,149.93750000000023
72,0,0.3183333333333333,150.25583333333356
52,0,0.06,150.31583333333356
70,80,0.021666666666666664,150.33750000000023
36,80,0,150.33750000000023
36,0,0.3783333333333333,150.71583333333356
48,80,0.021666666666666664,150.73750000000024
48,0,0.3783333333333333,151.11583333333357
58,80,0.021666666666666664,151.13750000000024
58,0,0.3783333333333333,151.51583333333357
52,80,0.021666666666666664,151.53750000000025
70,0,0.3183333333333333,151.85583333333358
52,0,0.06,151.91583333333358
72,80,0.021666666666666664,151.93750000000026
36,80,0,151.93750000000026
72,0,0.3783333333333333,152.3158333333336
36,0,0,152.3158333333336
70,80,0.021666666666666664,152.33750000000026
48,80,0,152.33750000000026
70,0,0.3783333333333333,152.7158333333336
48,0,0,152.7158333333336
69,80,0.021666666666666664,152.73750000000027
58,80,0,152.73750000000027
69,0,0.3783333333333333,153.1158333333336
58,0,0,153.1158333333336
67,80,0.021666666666666664,153.13750000000027
52,80,0,153.13750000000027
67,0,0.3783333333333333,153.5158333333336
52,0,0,153.5158333333336
65,80,0.021666666666666664,153.53750000000028
41,80,0,153.53750000000028
41,0,0.3783333333333333,153.9158333333336
48,80,0.021666666666666664,153.93750000000028
65,0,0.35833333333333334,154.2958333333336
48,0,0.019999999999999997,154.31583333333361
77,80,0.021666666666666664,154.3375000000003
57,80,0,154.3375000000003
57,0,0.3783333333333333,154.71583333333362
48,80,0.021666666666666664,154.7375000000003
77,0,0.35833333333333334,155.09583333333362
48,0,0.019999999999999997,155.11583333333363
72,80,0.021666666666666664,155.1375000000003
41,80,0,155.1375000000003
41,0,0.3783333333333333,155.51583333333363
48,80,0.021666666666666664,155.5375000000003
48,0,0.3783333333333333,155.91583333333364
57,80,0.021666666666666664,155.9375000000003
57,0,0.3783333333333333,156.31583333333364
48,80,0.021666666666666664,156.33750000000032
72,0,0.3183333333333333,156.65583333333365
48,0,0.06,156.71583333333365
69,80,0.021666666666666664,156.73750000000032
41,80,0,156.73750000000032
41,0,0.3783333333333333,157.11583333333365
48,80,0.021666666666666664,157.13750000000033
48,0,0.3783333333333333,157.51583333333366
57,80,0.021666666666666664,157.53750000000034
57,0,0.3783333333333333,157.91583333333367
48,80,0.021666666666666664,157.93750000000034
69,0,0.3183333333333333,158.25583333333367
48,0,0.06,158.31583333333367
70,80,0.021666666666666664,158.33750000000035
38,80,0,158.33750000000035
70,0,0.3783333333333333,158.71583333333368
38,0,0,158.71583333333368
69,80,0.021666666666666664,158.73750000000035
50,80,0,158.73750000000035
69,0,0.3783333333333333,159.11583333333368
50,0,0,159.11583333333368
67,80,0.021666666666666664,159.13750000000036
62,80,0,159.13750000000036
67,0,0.3783333333333333,159.5158333333337
62,0,0,159.5158333333337
66,80,0.021666666666666664,159.53750000000036
57,80,0,159.53750000000036
66,0,0.3783333333333333,159.9158333333337
57,0,0,159.9158333333337
67,80,0.021666666666666664,159.93750000000037
43,80,0,159.93750000000037
67,0,0.3783333333333333,160.3158333333337
43,0,0,160.3158333333337
66,80,0.021666666666666664,160.33750000000038
53,80,0,160.33750000000038
66,0,0.3783333333333333,160.7158333333337
53,0,0,160.7158333333337
67,80,0.021666666666666664,160.73750000000038
58,80,0,160.73750000000038
67,0,0.3783333333333333,161.1158333333337
58,0,0,161.1158333333337
69,80,0.021666666666666664,161.1375000000004
53,80,0,161.1375000000004
69,0,0.3783333333333333,161.51583333333372
53,0,0,161.51583333333372
70,80,0.021666666666666664,161.5375000000004
43,80,0,161.5375000000004
70,0,0.3783333333333333,161.91583333333372
43,0,0,161.91583333333372
62,80,0.021666666666666664,161.9375000000004
53,80,0,161.9375000000004
62,0,0.3783333333333333,162.31583333333373
53,0,0,162.31583333333373
69,80,0.021666666666666664,162.3375000000004
58,80,0,162.3375000000004
69,0,0.3783333333333333,162.71583333333373
58,0,0,162.71583333333373
67,80,0.021666666666666664,162.7375000000004
53,80,0,162.7375000000004
67,0,0.3783333333333333,163.11583333333374
53,0,0,163.11583333333374
65,80,0.021666666666666664,163.13750000000041
36,80,0,163.13750000000041
65,0,0.09,163.22750000000042
67,80,0.008333333333333333,163.23583333333374
67,0,0.09,163.32583333333375
65,80,0.011666666666666665,163.3375000000004
65,0,0.09,163.4275000000004
67,80,0.008333333333333333,163.43583333333373
36,0,0.07999999999999999,163.51583333333375
67,0,0.009999999999999998,163.52583333333374
65,80,0.011666666666666665,163.5375000000004
48,80,0,163.5375000000004
65,0,0.09,163.6275000000004
67,80,0.008333333333333333,163.63583333333372
67,0,0.09,163.72583333333372
65,80,0.011666666666666665,163.73750000000038
65,0,0.09,163.82750000000038
67,80,0.008333333333333333,163.8358333333337
48,0,0.07999999999999999,163.91583333333372
67,0,0.009999999999999998,163.9258333333337
65,80,0.011666666666666665,163.93750000000037
58,80,0,163.93750000000037
65,0,0.09,164.02750000000037
67,80,0.008333333333333333,164.0358333333337
67,0,0.09,164.1258333333337
65,80,0.011666666666666665,164.13750000000036
65,0,0.09,164.22750000000036
67,80,0.008333333333333333,164.2358333333337
58,0,0.07999999999999999,164.3158333333337
67,0,0.009999999999999998,164.3258333333337
65,80,0.011666666666666665,164.33750000000035
52,80,0,164.33750000000035
65,0,0.09,164.42750000000035
67,80,0.008333333333333333,164.43583333333368
67,0,0.09,164.52583333333368
65,80,0.011666666666666665,164.53750000000034
65,0,0.09,164.62750000000034
67,80,0.008333333333333333,164.63583333333366
52,0,0.07999999999999999,164.71583333333368
67,0,0.009999999999999998,164.72583333333367
74,80,0.011666666666666665,164.73750000000032
36,80,0,164.73750000000032
74,0,0.3783333333333333,165.11583333333365
36,0,0,165.11583333333365
72,80,0.021666666666666664,165.13750000000033
48,80,0,165.13750000000033
72,0,0.3783333333333333,165.51583333333366
48,0,0,165.51583333333366
70,80,0.021666666666666664,165.53750000000034
58,80,0,165.53750000000034
70,0,0.3783333333333333,165.91583333333367
58,0,0,165.91583333333367
60,80,0.021666666666666664,165.93750000000034
52,80,0,165.93750000000034
60,0,0.3783333333333333,166.31583333333367
52,0,0,166.31583333333367
67,80,0.021666666666666664,166.33750000000035
36,80,0,166.33750000000035
36,0,0.3783333333333333,166.71583333333368
48,80,0.021666666666666664,166.73750000000035
48,0,0.3783333333333333,167.11583333333368
58,80,0.021666666666666664,167.13750000000036
58,0,0.3783333333333333,167.5158333333337
52,80,0.021666666666666664,167.53750000000036
67,0,0.3183333333333333,167.8558333333337
52,0,0.06,167.9158333333337
65,80,0.021666666666666664,167.93750000000037
41,80,0,167.93750000000037
41,0,0.3783333333333333,168.3158333333337
48,80,0.021666666666666664,168.33750000000038
65,0,0.35833333333333334,168.6958333333337
48,0,0.019999999999999997,168.7158333333337
57,80,0.021666666666666664,168.73750000000038
57,0,0.3783333333333333,169.1158333333337
48,80,0.021666666666666664,169.1375000000004
48,0,0.3783333333333333,169.51583333333372
69,80,0,169.51583333333372
41,80,0,169.51583333333372
41,0,0.3783333333333333,169.89416666666705
48,80,0.021666666666666664,169.91583333333372
48,0,0.3783333333333333,170.29416666666705
57,80,0.021666666666666664,170.31583333333373
57,0,0.3783333333333333,170.69416666666706
48,80,0.021666666666666664,170.71583333333373
69,0,0.3183333333333333,171.03416666666706
48,0,0.06,171.09416666666706
70,80,0.021666666666666664,171.11583333333374
41,80,0,171.11583333333374
70,0,0.3783333333333333,171.49416666666707
41,0,0,171.49416666666707
69,80,0.021666666666666664,171.51583333333375
48,80,0,171.51583333333375
69,0,0.3783333333333333,171.89416666666708
48,0,0,171.89416666666708
67,80,0.021666666666666664,171.91583333333375
57,80,0,171.91583333333375
67,0,0.3783333333333333,172.29416666666708
57,0,0,172.29416666666708
65,80,0.021666666666666664,172.31583333333376
48,80,0,172.31583333333376
65,0,0.3783333333333333,172.6941666666671
48,0,0,172.6941666666671
64,80,0.021666666666666664,172.71583333333376
36,80,0,172.71583333333376
36,0,0.3783333333333333,173.0941666666671
48,80,0.021666666666666664,173.11583333333377
64,0,0.35833333333333334,173.4741666666671
48,0,0.019999999999999997,173.4941666666671
74,80,0.021666666666666664,173.51583333333377
58,80,0,173.51583333333377
58,0,0.3783333333333333,173.8941666666671
52,80,0.021666666666666664,173.91583333333378
74,0,0.35833333333333334,174.2741666666671
52,0,0.019999999999999997,174.2941666666671
72,80,0.021666666666666664,174.31583333333379
36,80,0,174.31583333333379
36,0,0.3783333333333333,174.69416666666712
48,80,0.021666666666666664,174.7158333333338
48,0,0.3783333333333333,175.09416666666712
58,80,0.021666666666666664,175.1158333333338
58,0,0.3783333333333333,175.49416666666713
52,80,0.021666666666666664,175.5158333333338
72,0,0.3183333333333333,175.83416666666713
52,0,0.06,175.89416666666713
70,80,0.021666666666666664,175.9158333333338
36,80,0,175.9158333333338
36,0,0.3783333333333333,176.29416666666714
48,80,0.021666666666666664,176.3158333333338
48,0,0.3783333333333333,176.69416666666714
58,80,0.021666666666666664,176.71583333333382
58,0,0.3783333333333333,177.09416666666715
52,80,0.021666666666666664,177.11583333333382
70,0,0.3183333333333333,177.43416666666715
52,0,0.06,177.49416666666716
72,80,0.021666666666666664,177.51583333333383
36,80,0,177.51583333333383
72,0,0.3783333333333333,177.89416666666716
36,0,0,177.89416666666716
70,80,0.021666666666666664,177.91583333333384
48,80,0,177.91583333333384
70,0,0.3783333333333333,178.29416666666717
48,0,0,178.29416666666717
69,80,0.021666666666666664,178.31583333333384
58,80,0,178.31583333333384
69,0,0.3783333333333333,178.69416666666717
58,0,0,178.69416666666717
67,80,0.021666666666666664,178.71583333333385
52,80,0,178.71583333333385
67,0,0.3783333333333333,179.09416666666718
52,0,0,179.09416666666718
65,80,0.021666666666666664,179.11583333333385
41,80,0,179.11583333333385
41,0,0.3783333333333333,179.49416666666718
48,80,0.021666666666666664,179.51583333333386
65,0,0.35833333333333334,179.87416666666718
48,0,0.019999999999999997,179.8941666666672
77,80,0.021666666666666664,179.91583333333386
57,80,0,179.91583333333386
57,0,0.3783333333333333,180.2941666666672
48,80,0.021666666666666664,180.31583333333387
77,0,0.35833333333333334,180.6741666666672
48,0,0.019999999999999997,180.6941666666672
72,80,0.021666666666666664,180.71583333333388
41,80,0,180.71583333333388
41,0,0.3783333333333333,181.0941666666672
48,80,0.021666666666666664,181.11583333333388
48,0,0.3783333333333333,181.4941666666672
57,80,0.021666666666666664,181.5158333333339
57,0,0.3783333333333333,181.89416666666722
48,80,0.021666666666666664,181.9158333333339
72,0,0.3183333333333333,182.23416666666722
48,0,0.06,182.29416666666722
69,80,0.021666666666666664,182.3158333333339
41,80,0,182.3158333333339
41,0,0.3783333333333333,182.69416666666723
48,80,0.021666666666666664,182.7158333333339
48,0,0.3783333333333333,183.09416666666723
57,80,0.021666666666666664,183.1158333333339
57,0,0.3783333333333333,183.49416666666724
48,80,0.021666666666666664,183.51583333333392
69,0,0.3183333333333333,183.83416666666724
48,0,0.06,183.89416666666725
70,80,0.021666666666666664,183.91583333333392
38,80,0,183.91583333333392
70,0,0.3783333333333333,184.29416666666725
38,0,0,184.29416666666725
69,80,0.021666666666666664,184.31583333333393
50,80,0,184.31583333333393
69,0,0.3783333333333333,184.69416666666726
50,0,0,184.69416666666726
67,80,0.021666666666666664,184.71583333333393
62,80,0,184.71583333333393
67,0,0.3783333333333333,185.09416666666726
62,0,0,185.09416666666726
66,80,0.021666666666666664,185.11583333333394
57,80,0,185.11583333333394
66,0,0.3783333333333333,185.49416666666727
57,0,0,185.49416666666727
67,80,0.021666666666666664,185.51583333333394
43,80,0,185.51583333333394
67,0,0.3783333333333333,185.89416666666727
43,0,0,185.89416666666727
66,80,0.021666666666666664,185.91583333333395
53,80,0,185.91583333333395
66,0,0.3783333333333333,186.29416666666728
53,0,0,186.29416666666728
67,80,0.021666666666666664,186.31583333333396
58,80,0,186.31583333333396
67,0,0.3783333333333333,186.6941666666673
58,0,0,186.6941666666673
69,80,0.021666666666666664,186.71583333333396
53,80,0,186.71583333333396
69,0,0.3783333333333333,187.0941666666673
53,0,0,187.0941666666673
70,80,0.021666666666666664,187.11583333333397
43,80,0,187.11583333333397
70,0,0.3783333333333333,187.4941666666673
43,0,0,187.4941666666673
62,80,0.021666666666666664,187.51583333333397
53,80,0,187.51583333333397
62,0,0.3783333333333333,187.8941666666673
53,0,0,187.8941666666673
69,80,0.021666666666666664,187.91583333333398
58,80,0,187.91583333333398
69,0,0.3783333333333333,188.2941666666673
58,0,0,188.2941666666673
67,80,0.021666666666666664,188.31583333333398
53,80,0,188.31583333333398
67,0,0.3783333333333333,188.69416666666731
53,0,0,188.69416666666731
65,80,0.021666666666666664,188.715833333334
36,80,0,188.715833333334
65,0,0.09,188.805833333334
67,80,0.008333333333333333,188.81416666666732
67,0,0.09,188.90416666666732
65,80,0.011666666666666665,188.91583333333398
65,0,0.09,189.00583333333398
67,80,0.008333333333333333,189.0141666666673
36,0,0.07999999999999999,189.09416666666732
67,0,0.009999999999999998,189.1041666666673
65,80,0.011666666666666665,189.11583333333397
48,80,0,189.11583333333397
65,0,0.09,189.20583333333397
67,80,0.008333333333333333,189.2141666666673
67,0,0.09,189.3041666666673
65,80,0.011666666666666665,189.31583333333396
65,0,0.09,189.40583333333396
67,80,0.008333333333333333,189.41416666666728
48,0,0.07999999999999999,189.4941666666673
67,0,0.009999999999999998,189.5041666666673
65,80,0.011666666666666665,189.51583333333394
58,80,0,189.51583333333394
65,0,0.09,189.60583333333395
67,80,0.008333333333333333,189.61416666666727
67,0,0.09,189.70416666666728
65,80,0.011666666666666665,189.71583333333393
65,0,0.09,189.80583333333394
67,80,0.008333333333333333,189.81416666666726
58,0,0.07999999999999999,189.89416666666727
67,0,0.009999999999999998,189.90416666666727
65,80,0.011666666666666665,189.91583333333392
52,80,0,189.91583333333392
65,0,0.09,190.00583333333392
67,80,0.008333333333333333,190.01416666666725
67,0,0.09,190.10416666666725
65,80,0.011666666666666665,190.1158333333339
65,0,0.09,190.2058333333339
67,80,0.008333333333333333,190.21416666666724
52,0,0.07999999999999999,190.29416666666725
67,0,0.009999999999999998,190.30416666666724
74,80,0.011666666666666665,190.3158333333339
36,80,0,190.3158333333339
74,0,0.3783333333333333,190.69416666666723
36,0,0,190.69416666666723
72,80,0.021666666666666664,190.7158333333339
48,80,0,190.7158333333339
72,0,0.3783333333333333,191.09416666666723
48,0,0,191.09416666666723
70,80,0.021666666666666664,191.1158333333339
58,80,0,191.1158333333339
70,0,0.3783333333333333,191.49416666666724
58,0,0,191.49416666666724
60,80,0.021666666666666664,191.51583333333392
52,80,0,191.51583333333392
60,0,0.3783333333333333,191.89416666666725
52,0,0,191.89416666666725
67,80,0.021666666666666664,191.91583333333392
36,80,0,191.91583333333392
36,0,0.3783333333333333,192.29416666666725
48,80,0.021666666666666664,192.31583333333393
48,0,0.3783333333333333,192.69416666666726
58,80,0.021666666666666664,192.71583333333393
58,0,0.3783333333333333,193.09416666666726
52,80,0.021666666666666664,193.11583333333394
67,0,0.3183333333333333,193.43416666666727
52,0,0.06,193.49416666666727
65,80,0.021666666666666664,193.51583333333394
41,80,0,193.51583333333394
41,0,0.3783333333333333,193.89416666666727
48,80,0.021666666666666664,193.91583333333395
65,0,0.35833333333333334,194.27416666666727
48,0,0.019999999999999997,194.29416666666728
57,80,0.021666666666666664,194.31583333333396
57,0,0.3783333333333333,194.6941666666673
48,80,0.021666666666666664,194.71583333333396
48,0,0.3783333333333333,195.0941666666673
57,80,0,195.0941666666673
45,80,0,195.0941666666673
52,80,0,195.0941666666673
57,0,1.1375,196.23166666666728
45,0,0,196.23166666666728
52,0,0,196.23166666666728
57,80,0.0625,196.29416666666728
48,80,0,196.29416666666728
53,80,0,196.29416666666728
57,0,0.8525,197.14666666666727
57,80,0.0475,197.1941666666673
48,0,0.23750000000000002,197.4316666666673
53,0,0,197.4316666666673
57,0,0.045,197.47666666666728
57,80,0.0175,197.4941666666673
45,80,0,197.4941666666673
52,80,0,197.4941666666673
57,0,1.1375,198.6316666666673
45,0,0,198.6316666666673
52,0,0,198.6316666666673
60,80,0.0625,198.6941666666673
48,80,0,198.6941666666673
53,80,0,198.6941666666673
60,0,0.8525,199.54666666666728
59,80,0.0475,199.5941666666673
48,0,0.23750000000000002,199.8316666666673
53,0,0,199.8316666666673
59,0,0.045,199.8766666666673
59,80,0.0175,199.8941666666673
45,80,0,199.8941666666673
52,80,0,199.8941666666673
59,0,0.8525,200.7466666666673
57,80,0.0475,200.7941666666673
45,0,0.23750000000000002,201.03166666666732
52,0,0,201.03166666666732
57,0,0.045,201.0766666666673
57,80,0.0175,201.09416666666732
48,80,0,201.09416666666732
53,80,0,201.09416666666732
57,0,0.8525,201.9466666666673
57,80,0.0475,201.99416666666733
48,0,0.23750000000000002,202.23166666666734
53,0,0,202.23166666666734
57,0,0.045,202.27666666666732
57,80,0.0175,202.29416666666734
45,80,0,202.29416666666734
52,80,0,202.29416666666734
57,0,2.2775,204.57166666666734
45,0,0,204.57166666666734
52,0,0,204.57166666666734
44,127,0,0.0
56,127,0,0.0
44,0,2.7834832562500003,2.7834832562500003
56,0,0,2.7834832562500003
37,127,0.07217264791666667,2.855655904166667
49,127,0,2.855655904166667
37,0,0.11681552291666666,2.9724714270833337
49,0,0,2.9724714270833337
56,96,0.0007440479166666667,2.9732154750000004
56,0,0.11830361875,3.0915190937500006
61,96,0.0007440479166666667,3.0922631416666673
61,0,0.11830361875,3.2105667604166674
64,96,0.0007440479166666667,3.211310808333334
64,0,0.11830361875,3.3296144270833343
61,96,0.0007440479166666667,3.330358475000001
61,0,0.11830361875,3.448662093750001
56,96,0.0007440479166666667,3.449406141666668
56,0,0.11235123541666667,3.5617573770833344
49,96,0.00669643125,3.5684538083333344
49,0,0.11830361875,3.6867574270833345
56,96,0.0007440479166666667,3.6875014750000012
56,0,0.11830361875,3.8058050937500014
61,96,0.0007440479166666667,3.806549141666668
61,0,0.11830361875,3.9248527604166683
64,96,0.0007440479166666667,3.925596808333335
64,0,0.11830361875,4.043900427083335
61,93,0.0007440479166666667,4.044644475000001
61,0,0.11830361875,4.162948093750001
56,90,0.0007440479166666667,4.163692141666667
56,0,0.11235123541666667,4.276043377083334
49,87,0.00669643125,4.282739808333334
49,0,0.11830361875,4.401043427083334
56,84,0.0007440479166666667,4.401787475
56,0,0.11830361875,4.52009109375
61,81,0.0007440479166666667,4.520835141666666
61,0,0.11830361875,4.639138760416666
64,78,0.0007440479166666667,4.639882808333332
64,0,0.11830361875,4.758186427083332
61,75,0.0007440479166666667,4.758930474999998
61,0,0.11830361875,4.877234093749998
56,71,0.0007440479166666667,4.877978141666664
56,0,0.11235123541666667,4.990329377083331
49,68,0.00669643125,4.997025808333331
49,0,0.11830361875,5.1153294270833305
56,65,0.0007440479166666667,5.116073474999997
56,0,0.11830361875,5.2343770937499965
61,62,0.0007440479166666667,5.235121141666663
61,0,0.11830361875,5.3534247604166625
64,59,0.0007440479166666667,5.354168808333329
64,0,0.11830361875,5.4724724270833285
61,56,0.0007440479166666667,5.473216474999995
61,0,0.11830361875,5.5915200937499945
56,53,0.0007440479166666667,5.592264141666661
56,0,0.11235123541666667,5.704615377083328
49,49,0.00669643125,5.711311808333328
68,64,0.08779765416666667,5.799109462499994
49,0,0.029017868750000002,5.828127331249994
56,49,0.0007440479166666667,5.82887137916666
68,0,0.05877978541666667,5.8876511645833265
69,64,0.0007440479166666667,5.888395212499993
56,0,0.05877978541666667,5.947174997916659
61,49,0.0007440479166666667,5.947919045833325
69,0,0.029017868750000002,5.976936914583325
68,64,0.0007440479166666667,5.977680962499991
68,0,0.08854170208333334,6.066222664583324
61,0,0,6.066222664583324
67,64,0.0007440479166666667,6.06696671249999
64,49,0,6.06696671249999
67,0,0.08854170208333334,6.155508414583323
68,64,0.0007440479166666667,6.15625246249999
64,0,0.029017868750000002,6.185270331249989
61,49,0.0007440479166666667,6.1860143791666555
68,0,0.05877978541666667,6.244794164583322
73,64,0.0007440479166666667,6.245538212499988
61,0,0.05877978541666667,6.304317997916654
56,49,0.0007440479166666667,6.305062045833321
73,0,0.029017868750000002,6.33407991458332
76,64,0.0007440479166666667,6.3348239624999865
56,0,0.08258931875,6.417413281249987
76,0,0.0059523833333333335,6.42336566458332
75,64,0.0007440479166666667,6.424109712499987
52,49,0,6.424109712499987
75,0,0.08854170208333334,6.51265141458332
73,64,0.0007440479166666667,6.513395462499986
52,0,0.029017868750000002,6.5424133312499855
56,49,0.0007440479166666667,6.543157379166652
73,0,0.05877978541666667,6.601937164583318
75,64,0.0007440479166666667,6.602681212499984
56,0,0.05877978541666667,6.661460997916651
61,49,0.0007440479166666667,6.662205045833317
75,0,0.029017868750000002,6.691222914583316
73,64,0.0007440479166666667,6.691966962499983
73,0,0.08854170208333334,6.780508664583316
61,0,0,6.780508664583316
72,64,0.0007440479166666667,6.781252712499982
64,49,0,6.781252712499982
72,0,0.08854170208333334,6.869794414583315
73,64,0.0007440479166666667,6.870538462499981
64,0,0.029017868750000002,6.899556331249981
61,49,0.0007440479166666667,6.900300379166647
73,0,0.05877978541666667,6.959080164583313
76,64,0.0007440479166666667,6.95982421249998
61,0,0.05877978541666667,7.018603997916646
56,49,0.0007440479166666667,7.019348045833312
76,0,0.029017868750000002,7.048365914583312
80,64,0.0007440479166666667,7.049109962499978
56,0,0.08258931875,7.131699281249978
80,0,0.0014880958333333334,7.133187377083312
49,49,0.005208335416666667,7.138395712499978
68,64,0.08779765416666667,7.226193366666645
49,0,0.029017868750000002,7.2552112354166445
56,49,0.0007440479166666667,7.255955283333311
68,0,0.05877978541666667,7.314735068749977
69,64,0.0007440479166666667,7.315479116666643
56,0,0.05877978541666667,7.37425890208331
61,49,0.0007440479166666667,7.375002949999976
69,0,0.029017868750000002,7.404020818749975
68,64,0.0007440479166666667,7.404764866666642
68,0,0.08854170208333334,7.493306568749975
61,0,0,7.493306568749975
67,64,0.0007440479166666667,7.494050616666641
64,49,0,7.494050616666641
67,0,0.08854170208333334,7.582592318749974
68,64,0.0007440479166666667,7.58333636666664
64,0,0.029017868750000002,7.61235423541664
61,49,0.0007440479166666667,7.613098283333306
68,0,0.05877978541666667,7.671878068749972
73,64,0.0007440479166666667,7.672622116666639
61,0,0.05877978541666667,7.731401902083305
56,49,0.0007440479166666667,7.732145949999971
73,0,0.029017868750000002,7.761163818749971
76,64,0.0007440479166666667,7.761907866666637
56,0,0.08258931875,7.844497185416637
76,0,0.0059523833333333335,7.850449568749971
75,64,0.0007440479166666667,7.851193616666637
52,49,0,7.851193616666637
75,0,0.08854170208333334,7.93973531874997
73,64,0.0007440479166666667,7.9404793666666365
52,0,0.029017868750000002,7.969497235416636
56,49,0.0007440479166666667,7.970241283333302
73,0,0.05877978541666667,8.02902106874997
75,64,0.0007440479166666667,8.029765116666637
56,0,0.05877978541666667,8.088544902083303
61,49,0.0007440479166666667,8.08928894999997
75,0,0.029017868750000002,8.11830681874997
73,64,0.0007440479166666667,8.119050866666637
73,0,0.08854170208333334,8.20759256874997
61,0,0,8.20759256874997
72,64,0.0007440479166666667,8.208336616666637
64,49,0,8.208336616666637
72,0,0.08854170208333334,8.29687831874997
73,64,0.0007440479166666667,8.297622366666637
64,0,0.029017868750000002,8.326640235416637
61,49,0.0007440479166666667,8.327384283333304
73,0,0.05877978541666667,8.38616406874997
76,64,0.0007440479166666667,8.386908116666637
61,0,0.05877978541666667,8.445687902083304
56,49,0.0007440479166666667,8.44643194999997
76,0,0.029017868750000002,8.47544981874997
80,64,0.0007440479166666667,8.476193866666637
56,0,0.08258931875,8.558783185416637
80,0,0.0014880958333333334,8.56027128124997
51,49,0.005208335416666667,8.565479616666636
69,68,0.08779765416666667,8.653277270833302
51,0,0.029017868750000002,8.682295139583301
57,54,0.0007440479166666667,8.683039187499968
69,0,0.05877978541666667,8.741818972916635
73,72,0.0007440479166666667,8.742563020833302
57,0,0.05877978541666667,8.801342806249968
61,59,0.0007440479166666667,8.802086854166635
73,0,0.029017868750000002,8.831104722916635
75,76,0.0007440479166666667,8.831848770833302
75,0,0.08854170208333334,8.920390472916635
61,0,0,8.920390472916635
78,80,0.0007440479166666667,8.921134520833302
66,64,0,8.921134520833302
78,0,0.08854170208333334,9.009676222916635
81,84,0.0007440479166666667,9.010420270833302
66,0,0.029017868750000002,9.039438139583302
61,69,0.0007440479166666667,9.040182187499969
81,0,0.05877978541666667,9.098961972916635
85,88,0.0007440479166666667,9.099706020833302
61,0,0.05877978541666667,9.158485806249969
57,74,0.0007440479166666667,9.159229854166636
85,0,0.029017868750000002,9.188247722916635
87,92,0.0007440479166666667,9.188991770833303
57,0,0.08258931875,9.271581089583302
87,0,0.0059523833333333335,9.277533472916636
95,96,0.0007440479166666667,9.278277520833303
54,80,0,9.278277520833303
95,0,0.08854170208333334,9.366819222916636
93,92,0.0007440479166666667,9.367563270833303
54,0,0.029017868750000002,9.396581139583303
61,75,0.0007440479166666667,9.39732518749997
93,0,0.05877978541666667,9.456104972916636
92,88,0.0007440479166666667,9.456849020833303
61,0,0.05877978541666667,9.51562880624997
63,70,0.0007440479166666667,9.516372854166637
92,0,0.029017868750000002,9.545390722916636
90,84,0.0007440479166666667,9.546134770833303
90,0,0.08854170208333334,9.634676472916636
63,0,0,9.634676472916636
88,80,0.0007440479166666667,9.635420520833303
69,65,0,9.635420520833303
88,0,0.08854170208333334,9.723962222916636
87,76,0.0007440479166666667,9.724706270833304
69,0,0.029017868750000002,9.753724139583303
63,60,0.0007440479166666667,9.75446818749997
87,0,0.05877978541666667,9.813247972916637
90,72,0.0007440479166666667,9.813992020833304
63,0,0.05877978541666667,9.87277180624997
61,55,0.0007440479166666667,9.873515854166637
90,0,0.029017868750000002,9.902533722916637
85,68,0.0007440479166666667,9.903277770833304
61,0,0.08258931875,9.985867089583303
85,0,0.0014880958333333334,9.987355185416636
84,64,0.005208335416666667,9.992563520833302
44,49,0,9.992563520833302
84,0,0.08705360625,10.079617127083303
87,64,0.0007440479166666667,10.08036117499997
44,0,0.029017868750000002,10.10937904374997
51,49,0.0007440479166666667,10.110123091666637
87,0,0.05877978541666667,10.168902877083303
81,64,0.0007440479166666667,10.16964692499997
51,0,0.05877978541666667,10.228426710416636
54,49,0.0007440479166666667,10.229170758333304
81,0,0.029017868750000002,10.258188627083303
80,64,0.0007440479166666667,10.25893267499997
80,0,0.08854170208333334,10.347474377083303
54,0,0,10.347474377083303
78,64,0.0007440479166666667,10.34821842499997
60,49,0,10.34821842499997
78,0,0.08854170208333334,10.436760127083303
81,64,0.0007440479166666667,10.43750417499997
60,0,0.029017868750000002,10.46652204374997
54,49,0.0007440479166666667,10.467266091666637
81,0,0.05877978541666667,10.526045877083304
76,64,0.0007440479166666667,10.52678992499997
54,0,0.05877978541666667,10.585569710416637
51,49,0.0007440479166666667,10.586313758333304
76,0,0.029017868750000002,10.615331627083304
75,64,0.0007440479166666667,10.616075674999971
51,0,0.08258931875,10.69866499374997
75,0,0.0059523833333333335,10.704617377083304
78,64,0.0007440479166666667,10.705361424999971
44,49,0,10.705361424999971
78,0,0.08854170208333334,10.793903127083304
73,64,0.0007440479166666667,10.794647174999971
44,0,0.029017868750000002,10.82366504374997
51,49,0.0007440479166666667,10.824409091666638
73,0,0.05877978541666667,10.883188877083304
72,64,0.0007440479166666667,10.883932924999971
51,0,0.05877978541666667,10.942712710416638
54,49,0.0007440479166666667,10.943456758333305
72,0,0.029017868750000002,10.972474627083304
75,64,0.0007440479166666667,10.973218674999972
75,0,0.08854170208333334,11.061760377083305
54,0,0,11.061760377083305
69,64,0.0007440479166666667,11.062504424999972
60,49,0,11.062504424999972
69,0,0.08854170208333334,11.151046127083305
68,64,0.0007440479166666667,11.151790174999972
60,0,0.029017868750000002,11.180808043749972
54,49,0.0007440479166666667,11.181552091666639
68,0,0.05877978541666667,11.240331877083305
71,64,0.0007440479166666667,11.241075924999972
54,0,0.05877978541666667,11.299855710416638
51,49,0.0007440479166666667,11.300599758333306
71,0,0.029017868750000002,11.329617627083305
69,64,0.0007440479166666667,11.330361674999972
51,0,0.08258931875,11.412950993749972
49,49,0.00669643125,11.419647424999972
69,0,0.07812503125,11.497772456249972
68,64,0.009672622916666667,11.507445079166638
49,0,0.029017868750000002,11.536462947916638
56,49,0.0007440479166666667,11.537206995833305
68,0,0.05877978541666667,11.595986781249971
69,64,0.0007440479166666667,11.596730829166638
56,0,0.05877978541666667,11.655510614583305
61,49,0.0007440479166666667,11.656254662499972
69,0,0.029017868750000002,11.685272531249971
68,64,0.0007440479166666667,11.686016579166639
68,0,0.08854170208333334,11.774558281249972
61,0,0,11.774558281249972
67,64,0.0007440479166666667,11.775302329166639
64,49,0,11.775302329166639
67,0,0.08854170208333334,11.863844031249972
68,64,0.0007440479166666667,11.864588079166639
64,0,0.029017868750000002,11.893605947916638
61,49,0.0007440479166666667,11.894349995833306
68,0,0.05877978541666667,11.953129781249972
73,64,0.0007440479166666667,11.953873829166639
61,0,0.05877978541666667,12.012653614583305
56,49,0.0007440479166666667,12.013397662499973
73,0,0.029017868750000002,12.042415531249972
76,64,0.0007440479166666667,12.04315957916664
56,0,0.08258931875,12.125748897916639
76,0,0.0059523833333333335,12.131701281249972
75,64,0.0007440479166666667,12.13244532916664
52,49,0,12.13244532916664
75,0,0.08854170208333334,12.220987031249972
73,64,0.0007440479166666667,12.22173107916664
52,0,0.029017868750000002,12.25074894791664
56,49,0.0007440479166666667,12.251492995833306
73,0,0.05877978541666667,12.310272781249973
75,64,0.0007440479166666667,12.31101682916664
56,0,0.05877978541666667,12.369796614583306
61,49,0.0007440479166666667,12.370540662499973
75,0,0.029017868750000002,12.399558531249973
73,64,0.0007440479166666667,12.40030257916664
73,0,0.08854170208333334,12.488844281249973
61,0,0,12.488844281249973
72,64,0.0007440479166666667,12.48958832916664
64,49,0,12.48958832916664
72,0,0.08854170208333334,12.578130031249973
73,64,0.0007440479166666667,12.57887407916664
64,0,0.029017868750000002,12.60789194791664
61,49,0.0007440479166666667,12.608635995833307
73,0,0.05877978541666667,12.667415781249973
76,64,0.0007440479166666667,12.66815982916664
61,0,0.05877978541666667,12.726939614583307
56,49,0.0007440479166666667,12.727683662499974
76,0,0.029017868750000002,12.756701531249973
80,64,0.0007440479166666667,12.75744557916664
56,0,0.08258931875,12.84003489791664
80,0,0.0014880958333333334,12.841522993749972
49,49,0.005208335416666667,12.846731329166639
68,64,0.08779765416666667,12.934528983333305
49,0,0.029017868750000002,12.963546852083304
56,49,0.0007440479166666667,12.964290899999972
68,0,0.05877978541666667,13.023070685416638
70,64,0.0007440479166666667,13.023814733333305
56,0,0.05877978541666667,13.082594518749971
58,49,0.0007440479166666667,13.083338566666638
70,0,0.029017868750000002,13.112356435416638
68,64,0.0007440479166666667,13.113100483333305
68,0,0.08854170208333334,13.201642185416638
58,0,0,13.201642185416638
67,64,0.0007440479166666667,13.202386233333305
64,49,0,13.202386233333305
67,0,0.08854170208333334,13.290927935416638
68,64,0.0007440479166666667,13.291671983333305
64,0,0.029017868750000002,13.320689852083305
58,49,0.0007440479166666667,13.321433899999972
68,0,0.05877978541666667,13.380213685416638
73,64,0.0007440479166666667,13.380957733333306
58,0,0.05877978541666667,13.439737518749972
56,49,0.0007440479166666667,13.440481566666639
73,0,0.029017868750000002,13.469499435416639
76,64,0.0007440479166666667,13.470243483333306
56,0,0.08258931875,13.552832802083305
76,0,0.0059523833333333335,13.558785185416639
75,64,0.0007440479166666667,13.559529233333306
52,49,0,13.559529233333306
75,0,0.08705360625,13.646582839583306
73,64,0.0007440479166666667,13.647326887499974
52,0,0.029017868750000002,13.676344756249973
56,49,0.0007440479166666667,13.67708880416664
73,0,0.05877978541666667,13.735868589583307
75,64,0.0007440479166666667,13.736612637499974
56,0,0.05877978541666667,13.79539242291664
58,49,0.0007440479166666667,13.796136470833307
75,0,0.029017868750000002,13.825154339583307
73,64,0.0007440479166666667,13.825898387499974
73,0,0.08854170208333334,13.914440089583307
58,0,0,13.914440089583307
72,64,0.0007440479166666667,13.915184137499974
61,49,0,13.915184137499974
72,0,0.08854170208333334,14.003725839583307
73,64,0.0007440479166666667,14.004469887499974
61,0,0.029017868750000002,14.033487756249974
58,49,0.0007440479166666667,14.034231804166641
73,0,0.05877978541666667,14.093011589583307
76,64,0.0007440479166666667,14.093755637499974
58,0,0.05877978541666667,14.15253542291664
56,49,0.0007440479166666667,14.153279470833308
76,0,0.029017868750000002,14.182297339583307
80,64,0.0007440479166666667,14.183041387499975
56,0,0.08258931875,14.265630706249974
80,0,0.0014880958333333334,14.267118802083306
75,64,0.005208335416666667,14.272327137499973
51,49,0,14.272327137499973
75,0,0.08705360625,14.359380743749973
76,65,0.0007440479166666667,14.36012479166664
51,0,0.029017868750000002,14.38914266041664
56,50,0.0007440479166666667,14.389886708333307
76,0,0.05877978541666667,14.448666493749974
75,66,0.0007440479166666667,14.44941054166664
56,0,0.05877978541666667,14.508190327083307
59,51,0.0007440479166666667,14.508934374999974
75,0,0.029017868750000002,14.537952243749974
74,67,0.0007440479166666667,14.538696291666641
74,0,0.08854170208333334,14.627237993749974
59,0,0,14.627237993749974
75,68,0.0007440479166666667,14.627982041666641
63,52,0,14.627982041666641
75,0,0.08854170208333334,14.716523743749974
83,69,0.0007440479166666667,14.717267791666641
63,0,0.029017868750000002,14.74628566041664
59,54,0.0007440479166666667,14.747029708333308
83,0,0.05877978541666667,14.805809493749974
82,70,0.0007440479166666667,14.806553541666641
59,0,0.05877978541666667,14.865333327083308
56,55,0.0007440479166666667,14.866077374999975
82,0,0.029017868750000002,14.895095243749974
80,71,0.0007440479166666667,14.895839291666642
56,0,0.08258931875,14.97842861041664
80,0,0.0059523833333333335,14.984380993749975
79,72,0.0007440479166666667,14.985125041666642
51,56,0,14.985125041666642
79,0,0.08258931875,15.067714360416641
88,73,0.005208335416666667,15.072922695833308
51,0,0.029017868750000002,15.101940564583307
58,57,0.0007440479166666667,15.102684612499974
88,0,0.05877978541666667,15.16146439791664
87,74,0.0007440479166666667,15.162208445833308
58,0,0.05877978541666667,15.220988231249974
61,59,0.0007440479166666667,15.221732279166641
87,0,0.029017868750000002,15.25075014791664
85,75,0.0007440479166666667,15.251494195833308
85,0,0.08854170208333334,15.340035897916641
61,0,0,15.340035897916641
83,76,0.0007440479166666667,15.340779945833308
67,60,0,15.340779945833308
83,0,0.08854170208333334,15.429321647916641
82,77,0.0007440479166666667,15.430065695833308
67,0,0.029017868750000002,15.459083564583308
61,61,0.0007440479166666667,15.459827612499975
82,0,0.05877978541666667,15.518607397916641
80,78,0.0007440479166666667,15.519351445833308
61,0,0.05877978541666667,15.578131231249975
58,62,0.0007440479166666667,15.578875279166642
80,0,0.029017868750000002,15.607893147916641
79,79,0.0007440479166666667,15.608637195833309
58,0,0.08258931875,15.691226514583308
79,0,0.0014880958333333334,15.69271461041664
82,96,0.005208335416666667,15.697922945833307
44,64,0,15.697922945833307
82,0,0.05729168958333333,15.75521463541664
80,80,0.030505964583333333,15.785720599999975
44,0,0.029017868750000002,15.814738468749974
51,64,0.0007440479166666667,15.815482516666641
80,0,0.05877978541666667,15.874262302083308
83,80,0.0007440479166666667,15.875006349999975
51,0,0.05877978541666667,15.933786135416641
56,64,0.0007440479166666667,15.934530183333308
83,0,0.029017868750000002,15.963548052083308
74,80,0.0007440479166666667,15.964292099999975
74,0,0.08407741458333333,16.048369514583307
56,0,0.0044642875000000005,16.052833802083306
76,96,0.0007440479166666667,16.05357784999997
59,64,0,16.05357784999997
76,0,0.05877978541666667,16.11235763541664
75,79,0.030505964583333333,16.142863599999973
59,0,0.029017868750000002,16.171881468749973
56,64,0.0007440479166666667,16.17262551666664
75,0,0.05877978541666667,16.231405302083306
80,78,0.0007440479166666667,16.232149349999972
56,0,0.05877978541666667,16.29092913541664
51,64,0.0007440479166666667,16.291673183333305
80,0,0.029017868750000002,16.320691052083305
70,76,0.0007440479166666667,16.32143509999997
51,0,0.08258931875,16.40402441874997
70,0,0.0014880958333333334,16.405512514583304
73,90,0.005208335416666667,16.410720849999972
44,64,0,16.410720849999972
73,0,0.05729168958333333,16.468012539583306
71,73,0.030505964583333333,16.49851850416664
44,0,0.029017868750000002,16.52753637291664
51,64,0.0007440479166666667,16.528280420833305
71,0,0.05877978541666667,16.587060206249973
75,72,0.0007440479166666667,16.587804254166638
51,0,0.05877978541666667,16.646584039583306
56,64,0.0007440479166666667,16.64732808749997
75,0,0.029017868750000002,16.67634595624997
67,70,0.0007440479166666667,16.677090004166637
67,0,0.08407741458333333,16.76116741874997
56,0,0.0044642875000000005,16.76563170624997
70,82,0.0007440479166666667,16.766375754166635
59,64,0,16.766375754166635
70,0,0.05877978541666667,16.825155539583303
68,67,0.030505964583333333,16.855661504166637
59,0,0.029017868750000002,16.884679372916636
56,64,0.0007440479166666667,16.885423420833302
68,0,0.05877978541666667,16.94420320624997
67,66,0.0007440479166666667,16.944947254166635
56,0,0.05877978541666667,17.003727039583303
51,64,0.0007440479166666667,17.00447108749997
67,0,0.029017868750000002,17.03348895624997
68,64,0.0007440479166666667,17.034233004166634
51,0,0.08258931875,17.116822322916633
68,0,0.0014880958333333334,17.118310418749967
68,127,0.005208335416666667,17.123518754166636
45,96,0,17.123518754166636
80,96,0.08779765416666667,17.211316408333303
45,0,0.029017868750000002,17.240334277083303
49,96,0.0007440479166666667,17.241078324999968
80,0,0.05877978541666667,17.299858110416636
72,96,0.0007440479166666667,17.3006021583333
49,0,0.05877978541666667,17.35938194374997
54,96,0.0007440479166666667,17.360125991666635
72,0,0.029017868750000002,17.389143860416635
73,96,0.0007440479166666667,17.3898879083333
73,0,0.08407741458333333,17.473965322916634
68,0,0.0044642875000000005,17.478429610416633
54,0,0,17.478429610416633
66,127,0.0007440479166666667,17.4791736583333
57,96,0,17.4791736583333
78,96,0.08928575,17.568459408333297
57,0,0.029017868750000002,17.597477277083296
54,96,0.0007440479166666667,17.59822132499996
78,0,0.05877978541666667,17.65700111041663
72,96,0.0007440479166666667,17.657745158333295
54,0,0.05877978541666667,17.716524943749963
49,96,0.0007440479166666667,17.71726899166663
72,0,0.029017868750000002,17.746286860416628
73,96,0.0007440479166666667,17.747030908333294
49,0,0.08258931875,17.829620227083293
73,0,0.0014880958333333334,17.831108322916627
66,0,0.0044642875000000005,17.835572610416627
65,127,0.0007440479166666667,17.836316658333292
45,96,0,17.836316658333292
77,96,0.08779765416666667,17.92411431249996
45,0,0.029017868750000002,17.95313218124996
49,96,0.0007440479166666667,17.953876229166625
77,0,0.05877978541666667,18.012656014583293
72,96,0.0007440479166666667,18.013400062499958
49,0,0.05877978541666667,18.072179847916626
54,96,0.0007440479166666667,18.07292389583329
72,0,0.029017868750000002,18.10194176458329
73,96,0.0007440479166666667,18.102685812499956
73,0,0.08407741458333333,18.18676322708329
65,0,0.0044642875000000005,18.19122751458329
54,0,0,18.19122751458329
66,127,0.0007440479166666667,18.191971562499955
57,96,0,18.191971562499955
78,96,0.08928575,18.281257312499953
57,0,0.029017868750000002,18.310275181249953
54,96,0.0007440479166666667,18.311019229166618
78,0,0.05877978541666667,18.369799014583286
72,96,0.0007440479166666667,18.37054306249995
54,0,0.05877978541666667,18.42932284791662
49,96,0.0007440479166666667,18.430066895833285
72,0,0.029017868750000002,18.459084764583285
73,96,0.0007440479166666667,18.45982881249995
49,0,0.08258931875,18.54241813124995
73,0,0.0014880958333333334,18.543906227083284
66,0,0.0044642875000000005,18.548370514583283
61,127,0.0007440479166666667,18.54911456249995
47,96,0,18.54911456249995
61,0,0.08705360625,18.636168168749947
73,96,0.0007440479166666667,18.636912216666612
47,0,0.029017868750000002,18.665930085416612
54,96,0.0007440479166666667,18.666674133333277
73,0,0.05877978541666667,18.725453918749945
66,96,0.0007440479166666667,18.72619796666661
54,0,0.05877978541666667,18.78497775208328
57,96,0.0007440479166666667,18.785721799999944
66,0,0.029017868750000002,18.814739668749944
69,96,0.0007440479166666667,18.81548371666661
69,0,0.08407741458333333,18.899561131249943
57,0,0.0044642875000000005,18.904025418749942
63,127,0.0007440479166666667,18.904769466666608
59,96,0,18.904769466666608
63,0,0.08854170208333334,18.99331116874994
75,96,0.0007440479166666667,18.994055216666606
59,0,0.029017868750000002,19.023073085416605
57,96,0.0007440479166666667,19.02381713333327
75,0,0.05877978541666667,19.08259691874994
66,96,0.0007440479166666667,19.083340966666604
57,0,0.05877978541666667,19.142120752083272
54,96,0.0007440479166666667,19.142864799999938
66,0,0.029017868750000002,19.171882668749937
69,96,0.0007440479166666667,19.172626716666603
54,0,0.08258931875,19.255216035416602
69,0,0.0014880958333333334,19.256704131249936
64,127,0.005208335416666667,19.261912466666605
40,96,0,19.261912466666605
64,0,0.08705360625,19.348966072916603
76,96,0.0007440479166666667,19.34971012083327
40,0,0.029017868750000002,19.37872798958327
47,96,0.0007440479166666667,19.379472037499934
76,0,0.05877978541666667,19.4382518229166
68,96,0.0007440479166666667,19.438995870833267
47,0,0.05877978541666667,19.497775656249935
52,96,0.0007440479166666667,19.4985197041666
68,0,0.029017868750000002,19.5275375729166
71,96,0.0007440479166666667,19.528281620833265
71,0,0.08407741458333333,19.6123590354166
52,0,0.0044642875000000005,19.6168233229166
68,127,0.0007440479166666667,19.617567370833264
56,96,0,19.617567370833264
68,0,0.08854170208333334,19.706109072916597
80,96,0.0007440479166666667,19.706853120833262
56,0,0.029017868750000002,19.735870989583262
52,96,0.0007440479166666667,19.736615037499927
80,0,0.05877978541666667,19.795394822916595
71,96,0.0007440479166666667,19.79613887083326
52,0,0.05877978541666667,19.85491865624993
47,96,0.0007440479166666667,19.855662704166594
71,0,0.029017868750000002,19.884680572916594
76,96,0.0007440479166666667,19.88542462083326
47,0,0.08258931875,19.96801393958326
76,0,0.0014880958333333334,19.969502035416593
68,127,0.005208335416666667,19.97471037083326
45,96,0,19.97471037083326
68,0,0.08705360625,20.06176397708326
80,96,0.0007440479166666667,20.062508024999925
45,0,0.029017868750000002,20.091525893749925
49,96,0.0007440479166666667,20.09226994166659
80,0,0.05877978541666667,20.151049727083258
72,96,0.0007440479166666667,20.151793774999923
49,0,0.05877978541666667,20.21057356041659
54,96,0.0007440479166666667,20.211317608333257
72,0,0.029017868750000002,20.240335477083256
73,96,0.0007440479166666667,20.241079524999922
73,0,0.08407741458333333,20.325156939583255
54,0,0.0044642875000000005,20.329621227083255
66,127,0.0007440479166666667,20.33036527499992
57,96,0,20.33036527499992
66,0,0.08854170208333334,20.418906977083253
78,96,0.0007440479166666667,20.41965102499992
57,0,0.029017868750000002,20.448668893749918
54,96,0.0007440479166666667,20.449412941666584
78,0,0.05877978541666667,20.50819272708325
72,96,0.0007440479166666667,20.508936774999917
54,0,0.05877978541666667,20.567716560416585
49,96,0.0007440479166666667,20.56846060833325
72,0,0.029017868750000002,20.59747847708325
73,96,0.0007440479166666667,20.598222524999915
49,0,0.08258931875,20.680811843749915
73,0,0.0014880958333333334,20.68229993958325
65,127,0.005208335416666667,20.687508274999917
45,96,0,20.687508274999917
65,0,0.08705360625,20.774561881249916
77,96,0.0007440479166666667,20.77530592916658
45,0,0.029017868750000002,20.80432379791658
49,96,0.0007440479166666667,20.805067845833246
77,0,0.05877978541666667,20.863847631249914
72,96,0.0007440479166666667,20.86459167916658
49,0,0.05877978541666667,20.923371464583248
54,96,0.0007440479166666667,20.924115512499913
72,0,0.029017868750000002,20.953133381249913
73,96,0.0007440479166666667,20.953877429166578
73,0,0.08407741458333333,21.03795484374991
54,0,0.0044642875000000005,21.04241913124991
66,127,0.0007440479166666667,21.043163179166577
57,96,0,21.043163179166577
66,0,0.08854170208333334,21.13170488124991
78,96,0.0007440479166666667,21.132448929166575
57,0,0.029017868750000002,21.161466797916574
54,96,0.0007440479166666667,21.16221084583324
78,0,0.05877978541666667,21.220990631249908
72,96,0.0007440479166666667,21.221734679166573
54,0,0.05877978541666667,21.28051446458324
49,96,0.0007440479166666667,21.281258512499907
72,0,0.029017868750000002,21.310276381249906
73,96,0.0007440479166666667,21.31102042916657
49,0,0.08258931875,21.39360974791657
73,0,0.0014880958333333334,21.395097843749905
65,127,0.005208335416666667,21.400306179166574
47,96,0,21.400306179166574
65,0,0.08705360625,21.487359785416572
77,96,0.0007440479166666667,21.488103833333238
47,0,0.029017868750000002,21.517121702083237
51,96,0.0007440479166666667,21.517865749999903
77,0,0.05877978541666667,21.57664553541657
71,96,0.0007440479166666667,21.577389583333236
51,0,0.05877978541666667,21.636169368749904
57,96,0.0007440479166666667,21.63691341666657
71,0,0.029017868750000002,21.66593128541657
75,96,0.0007440479166666667,21.666675333333234
75,0,0.08407741458333333,21.750752747916568
57,0,0.0044642875000000005,21.755217035416567
66,127,0.0007440479166666667,21.755961083333233
59,96,0,21.755961083333233
66,0,0.08854170208333334,21.844502785416566
78,96,0.0007440479166666667,21.84524683333323
59,0,0.029017868750000002,21.87426470208323
57,96,0.0007440479166666667,21.875008749999896
78,0,0.05877978541666667,21.933788535416564
71,96,0.0007440479166666667,21.93453258333323
57,0,0.05877978541666667,21.993312368749898
51,96,0.0007440479166666667,21.994056416666563
71,0,0.029017868750000002,22.023074285416563
75,96,0.0007440479166666667,22.023818333333228
51,0,0.08258931875,22.106407652083227
75,0,0.0014880958333333334,22.10789574791656
69,127,0.005208335416666667,22.11310408333323
40,96,0,22.11310408333323
69,0,0.08705360625,22.20015768958323
81,96,0.0007440479166666667,22.200901737499894
40,0,0.029017868750000002,22.229919606249894
47,96,0.0007440479166666667,22.23066365416656
81,0,0.05877978541666667,22.289443439583227
71,96,0.0007440479166666667,22.290187487499892
47,0,0.05877978541666667,22.34896727291656
52,96,0.0007440479166666667,22.349711320833226
71,0,0.029017868750000002,22.378729189583225
76,96,0.0007440479166666667,22.37947323749989
76,0,0.08407741458333333,22.463550652083224
52,0,0.0044642875000000005,22.468014939583224
68,127,0.0007440479166666667,22.46875898749989
56,96,0,22.46875898749989
68,0,0.08854170208333334,22.557300689583222
80,96,0.0007440479166666667,22.558044737499888
56,0,0.029017868750000002,22.587062606249887
52,96,0.0007440479166666667,22.587806654166553
80,0,0.05877978541666667,22.64658643958322
71,96,0.0007440479166666667,22.647330487499886
52,0,0.05877978541666667,22.706110272916554
47,96,0.0007440479166666667,22.70685432083322
71,0,0.029017868750000002,22.73587218958322
76,96,0.0007440479166666667,22.736616237499884
47,0,0.08258931875,22.819205556249884
76,0,0.0014880958333333334,22.820693652083218
68,49,0.005208335416666667,22.825901987499886
45,49,0,22.825901987499886
68,0,0.08705360625,22.912955593749885
80,73,0.0007440479166666667,22.91369964166655
45,0,0.029017868750000002,22.94271751041655
49,49,0.0007440479166666667,22.943461558333215
72,49,0.05952383333333333,23.00298539166655
49,0,0.05877978541666667,23.061765177083217
54,49,0.0007440479166666667,23.062509224999882
72,0,0.029017868750000002,23.09152709374988
73,49,0.0007440479166666667,23.092271141666547
73,0,0.08407741458333333,23.17634855624988
80,0,0.0044642875000000005,23.18081284374988
54,0,0,23.18081284374988
66,49,0.0007440479166666667,23.181556891666546
57,49,0,23.181556891666546
66,0,0.08854170208333334,23.27009859374988
78,73,0.0007440479166666667,23.270842641666544
57,0,0.029017868750000002,23.299860510416543
54,49,0.0007440479166666667,23.30060455833321
72,49,0.05952383333333333,23.360128391666542
54,0,0.05877978541666667,23.41890817708321
49,49,0.0007440479166666667,23.419652224999876
72,0,0.029017868750000002,23.448670093749875
73,49,0.0007440479166666667,23.44941414166654
49,0,0.08258931875,23.53200346041654
73,0,0.0014880958333333334,23.533491556249874
78,0,0.0044642875000000005,23.537955843749874
65,49,0.0007440479166666667,23.53869989166654
45,49,0,23.53869989166654
65,0,0.08854170208333334,23.627241593749872
77,73,0.0007440479166666667,23.627985641666537
45,0,0.029017868750000002,23.657003510416537
49,49,0.0007440479166666667,23.657747558333202
72,49,0.05952383333333333,23.717271391666536
49,0,0.05877978541666667,23.776051177083204
54,49,0.0007440479166666667,23.77679522499987
72,0,0.029017868750000002,23.80581309374987
73,49,0.0007440479166666667,23.806557141666534
73,0,0.08407741458333333,23.890634556249868
77,0,0.0044642875000000005,23.895098843749867
54,0,0,23.895098843749867
66,49,0.0007440479166666667,23.895842891666533
57,49,0,23.895842891666533
66,0,0.08854170208333334,23.984384593749866
78,73,0.0007440479166666667,23.98512864166653
57,0,0.029017868750000002,24.01414651041653
54,49,0.0007440479166666667,24.014890558333196
72,49,0.05952383333333333,24.07441439166653
54,0,0.05877978541666667,24.133194177083197
49,49,0.0007440479166666667,24.133938224999863
72,0,0.029017868750000002,24.162956093749862
73,49,0.0007440479166666667,24.163700141666528
49,0,0.08258931875,24.246289460416527
73,0,0.0014880958333333334,24.24777755624986
78,0,0.0044642875000000005,24.25224184374986
61,49,0.0007440479166666667,24.252985891666526
47,49,0,24.252985891666526
61,0,0.08705360625,24.340039497916525
73,75,0.0007440479166666667,24.34078354583319
47,0,0.029017868750000002,24.36980141458319
54,51,0.0007440479166666667,24.370545462499855
73,0,0.05877978541666667,24.429325247916523
66,52,0.0007440479166666667,24.43006929583319
54,0,0.05877978541666667,24.488849081249857
57,54,0.0007440479166666667,24.489593129166522
66,0,0.029017868750000002,24.51861099791652
69,54,0.0007440479166666667,24.519355045833187
69,0,0.08407741458333333,24.60343246041652
57,0,0.0044642875000000005,24.60789674791652
63,56,0.0007440479166666667,24.608640795833185
59,56,0,24.608640795833185
63,0,0.08854170208333334,24.69718249791652
75,87,0.0007440479166666667,24.697926545833184
59,0,0.029017868750000002,24.726944414583183
57,59,0.0007440479166666667,24.72768846249985
75,0,0.05877978541666667,24.786468247916517
66,60,0.0007440479166666667,24.787212295833182
57,0,0.05877978541666667,24.84599208124985
54,62,0.0007440479166666667,24.846736129166516
66,0,0.029017868750000002,24.875753997916515
69,62,0.0007440479166666667,24.87649804583318
54,0,0.08258931875,24.95908736458318
69,0,0.0014880958333333334,24.960575460416514
64,64,0.005208335416666667,24.965783795833183
40,64,0,24.965783795833183
64,0,0.08705360625,25.05283740208318
76,99,0.0007440479166666667,25.053581449999847
40,0,0.029017868750000002,25.082599318749846
47,67,0.0007440479166666667,25.08334336666651
76,0,0.05877978541666667,25.14212315208318
68,68,0.0007440479166666667,25.142867199999845
47,0,0.05877978541666667,25.201646985416513
52,69,0.0007440479166666667,25.20239103333318
68,0,0.029017868750000002,25.231408902083178
71,70,0.0007440479166666667,25.232152949999843
71,0,0.08407741458333333,25.316230364583177
52,0,0.0044642875000000005,25.320694652083176
68,72,0.0007440479166666667,25.32143869999984
56,72,0,25.32143869999984
68,0,0.08854170208333334,25.409980402083175
80,111,0.0007440479166666667,25.41072444999984
56,0,0.029017868750000002,25.43974231874984
52,75,0.0007440479166666667,25.440486366666505
80,0,0.05877978541666667,25.499266152083173
71,76,0.0007440479166666667,25.50001019999984
52,0,0.05877978541666667,25.558789985416507
47,77,0.0007440479166666667,25.559534033333172
71,0,0.029017868750000002,25.58855190208317
76,78,0.0007440479166666667,25.589295949999837
47,0,0.08258931875,25.671885268749836
76,0,0.0014880958333333334,25.67337336458317
68,80,0.005208335416666667,25.67858169999984
45,80,0,25.67858169999984
68,0,0.08705360625,25.765635306249838
80,123,0.0007440479166666667,25.766379354166503
45,0,0.029017868750000002,25.795397222916502
49,82,0.0007440479166666667,25.796141270833168
80,0,0.05877978541666667,25.854921056249836
72,84,0.0007440479166666667,25.8556651041665
49,0,0.05877978541666667,25.91444488958317
54,85,0.0007440479166666667,25.915188937499835
72,0,0.029017868750000002,25.944206806249834
73,86,0.0007440479166666667,25.9449508541665
73,0,0.08407741458333333,26.029028268749833
54,0,0.0044642875000000005,26.033492556249833
66,88,0.0007440479166666667,26.034236604166498
57,88,0,26.034236604166498
66,0,0.08854170208333334,26.12277830624983
78,127,0.0007440479166666667,26.123522354166496
57,0,0.029017868750000002,26.152540222916496
54,90,0.0007440479166666667,26.15328427083316
78,0,0.05877978541666667,26.21206405624983
72,92,0.0007440479166666667,26.212808104166495
54,0,0.05877978541666667,26.271587889583163
49,93,0.0007440479166666667,26.27233193749983
72,0,0.029017868750000002,26.301349806249828
73,94,0.0007440479166666667,26.302093854166493
49,0,0.08258931875,26.384683172916493
73,0,0.0014880958333333334,26.386171268749827
75,96,0.005208335416666667,26.391379604166495
45,96,0,26.391379604166495
75,0,0.08705360625,26.478433210416494
87,127,0.0007440479166666667,26.47917725833316
45,0,0.029017868750000002,26.50819512708316
51,96,0.0007440479166666667,26.508939174999824
87,0,0.05877978541666667,26.567718960416492
78,96,0.0007440479166666667,26.568463008333158
51,0,0.05877978541666667,26.627242793749826
54,96,0.0007440479166666667,26.62798684166649
78,0,0.029017868750000002,26.65700471041649
81,96,0.0007440479166666667,26.657748758333156
81,0,0.08407741458333333,26.74182617291649
54,0,0.0044642875000000005,26.74629046041649
73,96,0.0007440479166666667,26.747034508333154
57,96,0,26.747034508333154
73,0,0.08854170208333334,26.835576210416487
85,127,0.0007440479166666667,26.836320258333153
57,0,0.029017868750000002,26.865338127083152
54,96,0.0007440479166666667,26.866082174999818
85,0,0.05877978541666667,26.924861960416486
78,96,0.0007440479166666667,26.92560600833315
54,0,0.05877978541666667,26.98438579374982
51,96,0.0007440479166666667,26.985129841666485
78,0,0.029017868750000002,27.014147710416484
81,96,0.0007440479166666667,27.01489175833315
51,0,0.08258931875,27.09748107708315
81,0,0.0014880958333333334,27.098969172916483
73,95,0.005208335416666667,27.10417750833315
44,95,0,27.10417750833315
73,0,0.08705360625,27.19123111458315
85,127,0.0007440479166666667,27.191975162499816
44,0,0.029017868750000002,27.220993031249815
51,93,0.0007440479166666667,27.22173707916648
85,0,0.05877978541666667,27.28051686458315
75,93,0.0007440479166666667,27.281260912499814
51,0,0.05877978541666667,27.340040697916482
54,92,0.0007440479166666667,27.340784745833147
75,0,0.029017868750000002,27.369802614583147
78,92,0.0007440479166666667,27.370546662499812
78,0,0.08407741458333333,27.454624077083146
54,0,0.0044642875000000005,27.459088364583145
72,91,0.0007440479166666667,27.45983241249981
60,90,0,27.45983241249981
72,0,0.08854170208333334,27.548374114583144
84,127,0.0007440479166666667,27.54911816249981
60,0,0.029017868750000002,27.57813603124981
54,88,0.0007440479166666667,27.578880079166474
84,0,0.05877978541666667,27.637659864583142
75,89,0.0007440479166666667,27.638403912499808
54,0,0.05877978541666667,27.697183697916476
51,87,0.0007440479166666667,27.69792774583314
75,0,0.029017868750000002,27.72694561458314
78,88,0.0007440479166666667,27.727689662499806
51,0,0.08258931875,27.810278981249805
78,0,0.0014880958333333334,27.81176707708314
72,86,0.005208335416666667,27.816975412499808
44,85,0,27.816975412499808
72,0,0.08854170208333334,27.90551711458314
84,127,0.0007440479166666667,27.906261162499806
44,0,0.029017868750000002,27.935279031249806
51,83,0.0007440479166666667,27.93602307916647
84,0,0.05877978541666667,27.99480286458314
75,84,0.0007440479166666667,27.995546912499805
51,0,0.05877978541666667,28.054326697916473
54,81,0.0007440479166666667,28.055070745833138
75,0,0.029017868750000002,28.084088614583138
78,83,0.0007440479166666667,28.084832662499803
78,0,0.08407741458333333,28.168910077083137
54,0,0.0044642875000000005,28.173374364583136
72,82,0.0007440479166666667,28.1741184124998
60,80,0,28.1741184124998
72,0,0.08854170208333334,28.262660114583134
84,121,0.0007440479166666667,28.2634041624998
60,0,0.029017868750000002,28.2924220312498
54,78,0.0007440479166666667,28.293166079166465
84,0,0.05877978541666667,28.351945864583133
75,80,0.0007440479166666667,28.352689912499798
54,0,0.05877978541666667,28.411469697916466
51,76,0.0007440479166666667,28.41221374583313
75,0,0.029017868750000002,28.44123161458313
78,79,0.0007440479166666667,28.441975662499797
51,0,0.08258931875,28.524564981249796
78,0,0.0014880958333333334,28.52605307708313
72,77,0.005208335416666667,28.5312614124998
45,112,0,28.5312614124998
72,0,0.08705360625,28.618315018749797
84,114,0.0007440479166666667,28.619059066666463
45,0,0.029017868750000002,28.648076935416462
51,73,0.0007440479166666667,28.648820983333128
84,0,0.05877978541666667,28.707600768749796
75,75,0.0007440479166666667,28.70834481666646
51,0,0.05877978541666667,28.76712460208313
54,71,0.0007440479166666667,28.767868649999794
75,0,0.029017868750000002,28.796886518749794
78,74,0.0007440479166666667,28.79763056666646
78,0,0.08407741458333333,28.881707981249793
54,0,0.0044642875000000005,28.886172268749792
71,73,0.0007440479166666667,28.886916316666458
59,69,0,28.886916316666458
71,0,0.08854170208333334,28.97545801874979
83,108,0.0007440479166666667,28.976202066666456
59,0,0.029017868750000002,29.005219935416456
54,68,0.0007440479166666667,29.00596398333312
83,0,0.05877978541666667,29.06474376874979
75,71,0.0007440479166666667,29.065487816666455
54,0,0.05877978541666667,29.124267602083123
51,66,0.0007440479166666667,29.125011649999788
75,0,0.029017868750000002,29.154029518749788
78,70,0.0007440479166666667,29.154773566666453
51,0,0.08258931875,29.237362885416452
78,0,0.0014880958333333334,29.238850981249787
71,68,0.005208335416666667,29.244059316666455
46,96,0,29.244059316666455
71,0,0.08705360625,29.331112922916454
83,100,0.0007440479166666667,29.33185697083312
46,0,0.029017868750000002,29.36087483958312
51,63,0.0007440479166666667,29.361618887499784
83,0,0.05877978541666667,29.420398672916452
75,66,0.0007440479166666667,29.421142720833117
51,0,0.05877978541666667,29.479922506249785
54,61,0.0007440479166666667,29.48066655416645
75,0,0.029017868750000002,29.50968442291645
78,65,0.0007440479166666667,29.510428470833116
78,0,0.08407741458333333,29.59450588541645
54,0,0.0044642875000000005,29.59897017291645
70,64,0.0007440479166666667,29.599714220833114
58,59,0,29.599714220833114
70,0,0.08854170208333334,29.688255922916447
82,94,0.0007440479166666667,29.688999970833112
58,0,0.029017868750000002,29.718017839583112
54,57,0.0007440479166666667,29.718761887499777
82,0,0.05877978541666667,29.777541672916445
75,62,0.0007440479166666667,29.77828572083311
54,0,0.05877978541666667,29.83706550624978
51,56,0.0007440479166666667,29.837809554166444
75,0,0.029017868750000002,29.866827422916444
78,61,0.0007440479166666667,29.86757147083311
51,0,0.08258931875,29.95016078958311
78,0,0.0014880958333333334,29.951648885416443
70,59,0.005208335416666667,29.95685722083311
48,81,0,29.95685722083311
70,0,0.08705360625,30.04391082708311
82,87,0.0007440479166666667,30.044654874999775
48,0,0.029017868750000002,30.073672743749775
51,52,0.0007440479166666667,30.07441679166644
82,0,0.05877978541666667,30.13319657708311
75,57,0.0007440479166666667,30.133940624999774
51,0,0.05877978541666667,30.19272041041644
54,51,0.0007440479166666667,30.193464458333107
75,0,0.029017868750000002,30.222482327083107
78,56,0.0007440479166666667,30.223226374999772
78,0,0.08407741458333333,30.307303789583106
54,0,0.0044642875000000005,30.311768077083105
69,55,0.0007440479166666667,30.31251212499977
57,49,0,30.31251212499977
69,0,0.08854170208333334,30.401053827083103
81,81,0.0007440479166666667,30.40179787499977
57,0,0.029017868750000002,30.43081574374977
54,47,0.0007440479166666667,30.431559791666434
81,0,0.05877978541666667,30.490339577083102
75,53,0.0007440479166666667,30.491083624999767
54,0,0.05877978541666667,30.549863410416435
51,45,0.0007440479166666667,30.5506074583331
75,0,0.029017868750000002,30.5796253270831
78,52,0.0007440479166666667,30.580369374999766
51,0,0.08258931875,30.662958693749765
78,0,0.0014880958333333334,30.6644467895831
69,50,0.005208335416666667,30.669655124999768
48,1,0,30.669655124999768
69,0,0.08854170208333334,30.7581968270831
81,73,0.0007440479166666667,30.758940874999766
48,0,0.029017868750000002,30.787958743749765
51,42,0.0007440479166666667,30.78870279166643
81,0,0.05877978541666667,30.8474825770831
75,48,0.0007440479166666667,30.848226624999764
51,0,0.05877978541666667,30.907006410416432
54,40,0.0007440479166666667,30.907750458333098
75,0,0.029017868750000002,30.936768327083097
78,47,0.0007440479166666667,30.937512374999763
78,0,0.08407741458333333,31.021589789583096
54,0,0.0044642875000000005,31.026054077083096
69,46,0.0007440479166666667,31.02679812499976
57,39,0,31.02679812499976
69,0,0.08854170208333334,31.115339827083094
81,67,0.0007440479166666667,31.11608387499976
57,0,0.029017868750000002,31.14510174374976
54,37,0.0007440479166666667,31.145845791666424
81,0,0.05877978541666667,31.204625577083092
75,44,0.0007440479166666667,31.205369624999758
54,0,0.05877978541666667,31.264149410416426
51,35,0.0007440479166666667,31.26489345833309
75,0,0.029017868750000002,31.29391132708309
78,43,0.0007440479166666667,31.294655374999756
51,0,0.08258931875,31.377244693749756
78,0,0.0014880958333333334,31.37873278958309
72,41,0.005208335416666667,31.383941124999758
45,64,0,31.383941124999758
72,0,0.08705360625,31.470994731249757
84,61,0.0007440479166666667,31.471738779166422
45,0,0.029017868750000002,31.500756647916422
51,33,0.0007440479166666667,31.501500695833087
84,0,0.05877978541666667,31.560280481249755
75,41,0.0007440479166666667,31.56102452916642
51,0,0.05877978541666667,31.61980431458309
54,33,0.0007440479166666667,31.620548362499754
75,0,0.029017868750000002,31.649566231249754
78,41,0.0007440479166666667,31.65031027916642
78,0,0.08407741458333333,31.734387693749753
54,0,0.0044642875000000005,31.738851981249752
71,41,0.0007440479166666667,31.739596029166417
59,33,0,31.739596029166417
71,0,0.08854170208333334,31.82813773124975
83,61,0.0007440479166666667,31.828881779166416
59,0,0.029017868750000002,31.857899647916415
54,33,0.0007440479166666667,31.85864369583308
83,0,0.05877978541666667,31.91742348124975
75,41,0.0007440479166666667,31.918167529166414
54,0,0.05877978541666667,31.976947314583082
51,33,0.0007440479166666667,31.977691362499748
75,0,0.029017868750000002,32.00670923124975
78,41,0.0007440479166666667,32.00745327916642
51,0,0.08258931875,32.09004259791642
78,0,0.0014880958333333334,32.09153069374975
71,41,0.005208335416666667,32.09673902916642
46,64,0,32.09673902916642
71,0,0.08705360625,32.183792635416424
83,61,0.0007440479166666667,32.18453668333309
46,0,0.029017868750000002,32.213554552083096
51,33,0.0007440479166666667,32.214298599999765
83,0,0.05877978541666667,32.27307838541643
75,41,0.0007440479166666667,32.2738224333331
51,0,0.05877978541666667,32.33260221874977
54,33,0.0007440479166666667,32.33334626666644
75,0,0.029017868750000002,32.36236413541644
78,41,0.0007440479166666667,32.36310818333311
78,0,0.08407741458333333,32.447185597916445
54,0,0.0044642875000000005,32.451649885416444
70,41,0.0007440479166666667,32.45239393333311
58,33,0,32.45239393333311
70,0,0.08854170208333334,32.540935635416446
82,61,0.0007440479166666667,32.541679683333115
58,0,0.029017868750000002,32.57069755208312
54,33,0.0007440479166666667,32.57144159999979
82,0,0.05877978541666667,32.630221385416455
75,41,0.0007440479166666667,32.630965433333124
54,0,0.05877978541666667,32.68974521874979
51,33,0.0007440479166666667,32.69048926666646
75,0,0.029017868750000002,32.719507135416464
78,41,0.0007440479166666667,32.72025118333313
51,0,0.08258931875,32.802840502083136
78,0,0.0014880958333333334,32.80432859791647
70,41,0.005208335416666667,32.809536933333135
47,64,0,32.809536933333135
70,0,0.08705360625,32.89659053958314
82,61,0.0007440479166666667,32.897334587499806
47,0,0.029017868750000002,32.92635245624981
51,33,0.0007440479166666667,32.92709650416648
82,0,0.05877978541666667,32.985876289583146
75,41,0.0007440479166666667,32.986620337499815
51,0,0.05877978541666667,33.04540012291648
54,33,0.0007440479166666667,33.04614417083315
75,0,0.029017868750000002,33.075162039583155
78,41,0.0007440479166666667,33.075906087499824
78,0,0.08407741458333333,33.15998350208316
54,0,0.0044642875000000005,33.16444778958316
69,41,0.0007440479166666667,33.165191837499826
57,33,0,33.165191837499826
69,0,0.08854170208333334,33.25373353958316
81,61,0.0007440479166666667,33.25447758749983
57,0,0.029017868750000002,33.28349545624983
54,33,0.0007440479166666667,33.2842395041665
81,0,0.05877978541666667,33.34301928958317
75,41,0.0007440479166666667,33.34376333749984
54,0,0.05877978541666667,33.402543122916505
51,33,0.0007440479166666667,33.403287170833174
75,0,0.029017868750000002,33.43230503958318
78,41,0.0007440479166666667,33.433049087499846
51,0,0.08258931875,33.51563840624985
78,0,0.0014880958333333334,33.51712650208318
69,41,0,33.51712650208318
48,64,0,33.51712650208318
69,0,0.09621714375,33.61334364583318
81,60,0.00082236875,33.61416601458318
48,0,0.032072381250000004,33.64623839583319
51,33,0.00082236875,33.64706076458319
81,0,0.06496713125,33.71202789583319
75,39,0,33.71202789583319
51,0,0.06857644375,33.780604339583185
54,33,0.00086805625,33.781472395833184
75,0,0.03385419375,33.81532658958319
78,38,0.00086805625,33.816194645833185
78,0,0.09809035625,33.91428500208318
54,0,0.0052083375,33.919493339583184
68,37,0,33.919493339583184
56,33,0,33.919493339583184
68,0,0.11268928125,34.03218262083318
80,54,0,34.03218262083318
56,0,0.040625,34.07280762083318
54,33,0.0010416666666666667,34.07384928749985
80,0,0.08229166666666667,34.15614095416652
75,35,0,34.15614095416652
54,0,0.08816959583333334,34.24431054999985
51,33,0.0011160708333333334,34.245426620833186
75,0,0.0435267625,34.28895338333319
78,33,0,34.28895338333319
51,0,0.17343750000000002,34.462390883333185
78,0,0.003125,34.46551588333318
49,73,0,34.46551588333318
68,64,0.08779765416666667,34.55331353749985
49,0,0.029017868750000002,34.58233140624985
56,49,0.0007440479166666667,34.58307545416652
68,0,0.05877978541666667,34.64185523958319
69,64,0.0007440479166666667,34.642599287499856
56,0,0.05877978541666667,34.701379072916524
61,49,0.0007440479166666667,34.70212312083319
69,0,0.029017868750000002,34.731140989583196
68,64,0.0007440479166666667,34.731885037499865
68,0,0.08854170208333334,34.8204267395832
61,0,0,34.8204267395832
67,64,0.0007440479166666667,34.82117078749987
64,49,0,34.82117078749987
67,0,0.08854170208333334,34.9097124895832
68,64,0.0007440479166666667,34.91045653749987
64,0,0.029017868750000002,34.93947440624987
61,49,0.0007440479166666667,34.94021845416654
68,0,0.05877978541666667,34.99899823958321
73,64,0.0007440479166666667,34.99974228749988
61,0,0.05877978541666667,35.058522072916546
56,49,0.0007440479166666667,35.059266120833215
73,0,0.029017868750000002,35.08828398958322
76,64,0.0007440479166666667,35.08902803749989
56,0,0.08258931875,35.17161735624989
76,0,0.0059523833333333335,35.17756973958322
75,64,0.0007440479166666667,35.17831378749989
52,49,0,35.17831378749989
75,0,0.08854170208333334,35.26685548958322
73,64,0.0007440479166666667,35.26759953749989
52,0,0.029017868750000002,35.296617406249894
56,49,0.0007440479166666667,35.29736145416656
73,0,0.05877978541666667,35.35614123958323
75,64,0.0007440479166666667,35.3568852874999
56,0,0.05877978541666667,35.41566507291657
61,49,0.0007440479166666667,35.41640912083324
75,0,0.029017868750000002,35.44542698958324
73,64,0.0007440479166666667,35.44617103749991
73,0,0.08854170208333334,35.53471273958324
61,0,0,35.53471273958324
72,64,0.0007440479166666667,35.53545678749991
64,49,0,35.53545678749991
72,0,0.08854170208333334,35.623998489583244
73,64,0.0007440479166666667,35.62474253749991
64,0,0.029017868750000002,35.653760406249916
61,49,0.0007440479166666667,35.654504454166585
73,0,0.05877978541666667,35.71328423958325
76,64,0.0007440479166666667,35.71402828749992
61,0,0.05877978541666667,35.77280807291659
56,49,0.0007440479166666667,35.77355212083326
76,0,0.029017868750000002,35.80256998958326
80,64,0.0007440479166666667,35.80331403749993
56,0,0.08258931875,35.88590335624993
80,0,0.0014880958333333334,35.887391452083264
49,49,0.005208335416666667,35.89259978749993
68,64,0.08779765416666667,35.9803974416666
49,0,0.029017868750000002,36.0094153104166
56,49,0.0007440479166666667,36.01015935833327
68,0,0.05877978541666667,36.06893914374994
69,64,0.0007440479166666667,36.069683191666606
56,0,0.05877978541666667,36.128462977083274
61,49,0.0007440479166666667,36.12920702499994
69,0,0.029017868750000002,36.158224893749946
68,64,0.0007440479166666667,36.158968941666615
68,0,0.08854170208333334,36.24751064374995
61,0,0,36.24751064374995
67,64,0.0007440479166666667,36.24825469166662
64,49,0,36.24825469166662
67,0,0.08854170208333334,36.33679639374995
68,64,0.0007440479166666667,36.33754044166662
64,0,0.029017868750000002,36.36655831041662
61,49,0.0007440479166666667,36.36730235833329
68,0,0.05877978541666667,36.42608214374996
73,64,0.0007440479166666667,36.42682619166663
61,0,0.05877978541666667,36.485605977083296
56,49,0.0007440479166666667,36.486350024999965
73,0,0.029017868750000002,36.51536789374997
76,64,0.0007440479166666667,36.51611194166664
56,0,0.08258931875,36.59870126041664
76,0,0.0059523833333333335,36.60465364374997
75,64,0.0007440479166666667,36.60539769166664
52,49,0,36.60539769166664
75,0,0.08854170208333334,36.69393939374997
73,64,0.0007440479166666667,36.69468344166664
52,0,0.029017868750000002,36.723701310416644
56,49,0.0007440479166666667,36.72444535833331
73,0,0.05877978541666667,36.78322514374998
75,64,0.0007440479166666667,36.78396919166665
56,0,0.05877978541666667,36.84274897708332
61,49,0.0007440479166666667,36.84349302499999
75,0,0.029017868750000002,36.87251089374999
73,64,0.0007440479166666667,36.87325494166666
73,0,0.08854170208333334,36.96179664374999
61,0,0,36.96179664374999
72,64,0.0007440479166666667,36.96254069166666
64,49,0,36.96254069166666
72,0,0.08854170208333334,37.051082393749994
73,64,0.0007440479166666667,37.05182644166666
64,0,0.029017868750000002,37.080844310416666
61,49,0.0007440479166666667,37.081588358333335
73,0,0.05877978541666667,37.14036814375
76,64,0.0007440479166666667,37.14111219166667
61,0,0.05877978541666667,37.19989197708334
56,49,0.0007440479166666667,37.20063602500001
76,0,0.029017868750000002,37.22965389375001
80,64,0.0007440479166666667,37.23039794166668
56,0,0.08258931875,37.31298726041668
80,0,0.0014880958333333334,37.314475356250014
51,49,0.005208335416666667,37.31968369166668
69,68,0.08779765416666667,37.40748134583335
51,0,0.029017868750000002,37.43649921458335
57,54,0.0007440479166666667,37.43724326250002
69,0,0.05877978541666667,37.49602304791669
73,72,0.0007440479166666667,37.496767095833356
57,0,0.05877978541666667,37.555546881250024
61,59,0.0007440479166666667,37.55629092916669
73,0,0.029017868750000002,37.585308797916696
75,76,0.0007440479166666667,37.586052845833365
75,0,0.08854170208333334,37.6745945479167
61,0,0,37.6745945479167
78,80,0.0007440479166666667,37.67533859583337
66,64,0,37.67533859583337
78,0,0.08854170208333334,37.7638802979167
81,84,0.0007440479166666667,37.76462434583337
66,0,0.029017868750000002,37.79364221458337
61,69,0.0007440479166666667,37.79438626250004
81,0,0.05877978541666667,37.85316604791671
85,88,0.0007440479166666667,37.85391009583338
61,0,0.05877978541666667,37.912689881250046
57,74,0.0007440479166666667,37.913433929166715
85,0,0.029017868750000002,37.94245179791672
87,92,0.0007440479166666667,37.94319584583339
57,0,0.08258931875,38.02578516458339
87,0,0.0059523833333333335,38.03173754791672
95,96,0.0007440479166666667,38.03248159583339
54,80,0,38.03248159583339
95,0,0.08854170208333334,38.12102329791672
93,92,0.0007440479166666667,38.12176734583339
54,0,0.029017868750000002,38.150785214583394
61,75,0.0007440479166666667,38.15152926250006
93,0,0.05877978541666667,38.21030904791673
92,88,0.0007440479166666667,38.2110530958334
61,0,0.05877978541666667,38.26983288125007
63,70,0.0007440479166666667,38.27057692916674
92,0,0.029017868750000002,38.29959479791674
90,84,0.0007440479166666667,38.30033884583341
90,0,0.08854170208333334,38.38888054791674
63,0,0,38.38888054791674
88,80,0.0007440479166666667,38.38962459583341
69,65,0,38.38962459583341
88,0,0.08854170208333334,38.478166297916744
87,76,0.0007440479166666667,38.47891034583341
69,0,0.029017868750000002,38.507928214583416
63,60,0.0007440479166666667,38.508672262500085
87,0,0.05877978541666667,38.56745204791675
90,72,0.0007440479166666667,38.56819609583342
63,0,0.05877978541666667,38.62697588125009
61,55,0.0007440479166666667,38.62771992916676
90,0,0.029017868750000002,38.65673779791676
85,68,0.0007440479166666667,38.65748184583343
61,0,0.08258931875,38.74007116458343
85,0,0.0014880958333333334,38.741559260416764
84,64,0.005208335416666667,38.74676759583343
44,49,0,38.74676759583343
84,0,0.08705360625,38.833821202083435
87,64,0.0007440479166666667,38.834565250000104
44,0,0.029017868750000002,38.86358311875011
51,49,0.0007440479166666667,38.864327166666776
87,0,0.05877978541666667,38.923106952083444
81,64,0.0007440479166666667,38.92385100000011
51,0,0.05877978541666667,38.98263078541678
54,49,0.0007440479166666667,38.98337483333345
81,0,0.029017868750000002,39.01239270208345
80,64,0.0007440479166666667,39.01313675000012
80,0,0.08854170208333334,39.101678452083455
54,0,0,39.101678452083455
78,64,0.0007440479166666667,39.102422500000124
60,49,0,39.102422500000124
78,0,0.08854170208333334,39.19096420208346
81,64,0.0007440479166666667,39.191708250000126
60,0,0.029017868750000002,39.22072611875013
54,49,0.0007440479166666667,39.2214701666668
81,0,0.05877978541666667,39.280249952083466
76,64,0.0007440479166666667,39.280994000000135
54,0,0.05877978541666667,39.3397737854168
51,49,0.0007440479166666667,39.34051783333347
76,0,0.029017868750000002,39.369535702083475
75,64,0.0007440479166666667,39.370279750000144
51,0,0.08258931875,39.45286906875015
75,0,0.0059523833333333335,39.45882145208348
78,64,0.0007440479166666667,39.459565500000146
44,49,0,39.459565500000146
78,0,0.08854170208333334,39.54810720208348
73,64,0.0007440479166666667,39.54885125000015
44,0,0.029017868750000002,39.57786911875015
51,49,0.0007440479166666667,39.57861316666682
73,0,0.05877978541666667,39.63739295208349
72,64,0.0007440479166666667,39.63813700000016
51,0,0.05877978541666667,39.696916785416825
54,49,0.0007440479166666667,39.697660833333494
72,0,0.029017868750000002,39.7266787020835
75,64,0.0007440479166666667,39.727422750000166
75,0,0.08854170208333334,39.8159644520835
54,0,0,39.8159644520835
69,64,0.0007440479166666667,39.81670850000017
60,49,0,39.81670850000017
69,0,0.08854170208333334,39.9052502020835
68,64,0.0007440479166666667,39.90599425000017
60,0,0.029017868750000002,39.93501211875017
54,49,0.0007440479166666667,39.93575616666684
68,0,0.05877978541666667,39.99453595208351
71,64,0.0007440479166666667,39.99528000000018
54,0,0.05877978541666667,40.05405978541685
51,49,0.0007440479166666667,40.054803833333516
71,0,0.029017868750000002,40.08382170208352
69,64,0.0007440479166666667,40.08456575000019
51,0,0.08258931875,40.16715506875019
49,49,0.00669643125,40.17385150000019
69,0,0.07812503125,40.25197653125019
68,64,0.009672622916666667,40.26164915416686
49,0,0.029017868750000002,40.290667022916864
56,49,0.0007440479166666667,40.29141107083353
68,0,0.05877978541666667,40.3501908562502
69,64,0.0007440479166666667,40.35093490416687
56,0,0.05877978541666667,40.40971468958354
61,49,0.0007440479166666667,40.41045873750021
69,0,0.029017868750000002,40.43947660625021
68,64,0.0007440479166666667,40.44022065416688
68,0,0.08854170208333334,40.52876235625021
61,0,0,40.52876235625021
67,64,0.0007440479166666667,40.52950640416688
64,49,0,40.52950640416688
67,0,0.08854170208333334,40.618048106250214
68,64,0.0007440479166666667,40.61879215416688
64,0,0.029017868750000002,40.647810022916886
61,49,0.0007440479166666667,40.648554070833555
68,0,0.05877978541666667,40.70733385625022
73,64,0.0007440479166666667,40.70807790416689
61,0,0.05877978541666667,40.76685768958356
56,49,0.0007440479166666667,40.76760173750023
73,0,0.029017868750000002,40.79661960625023
76,64,0.0007440479166666667,40.7973636541669
56,0,0.08258931875,40.879952972916904
76,0,0.0059523833333333335,40.885905356250234
75,64,0.0007440479166666667,40.8866494041669
52,49,0,40.8866494041669
75,0,0.08854170208333334,40.975191106250236
73,64,0.0007440479166666667,40.975935154166905
52,0,0.029017868750000002,41.00495302291691
56,49,0.0007440479166666667,41.00569707083358
73,0,0.05877978541666667,41.064476856250245
75,64,0.0007440479166666667,41.065220904166914
56,0,0.05877978541666667,41.12400068958358
61,50,0.0007440479166666667,41.12474473750025
75,0,0.029017868750000002,41.153762606250254
73,65,0.0007440479166666667,41.15450665416692
73,0,0.08854170208333334,41.243048356250256
61,0,0,41.243048356250256
72,65,0.0007440479166666667,41.243792404166925
64,51,0,41.243792404166925
72,0,0.08854170208333334,41.33233410625026
73,66,0.0007440479166666667,41.33307815416693
64,0,0.029017868750000002,41.36209602291693
61,51,0.0007440479166666667,41.3628400708336
73,0,0.05877978541666667,41.42161985625027
76,66,0.0007440479166666667,41.422363904166936
61,0,0.05877978541666667,41.481143689583604
56,52,0.0007440479166666667,41.48188773750027
76,0,0.029017868750000002,41.510905606250276
80,67,0.0007440479166666667,41.511649654166945
56,0,0.08258931875,41.59423897291695
80,0,0.0014880958333333334,41.59572706875028
76,67,0.005208335416666667,41.60093540416695
54,53,0,41.60093540416695
76,0,0.08705360625,41.68798901041695
75,68,0.0007440479166666667,41.68873305833362
54,0,0.029017868750000002,41.71775092708362
61,53,0.0007440479166666667,41.71849497500029
75,0,0.05877978541666667,41.77727476041696
76,68,0.0007440479166666667,41.77801880833363
61,0,0.05877978541666667,41.836798593750295
63,54,0.0007440479166666667,41.837542641666964
76,0,0.029017868750000002,41.86656051041697
75,69,0.0007440479166666667,41.867304558333636
75,0,0.08854170208333334,41.95584626041697
63,0,0,41.95584626041697
74,69,0.0007440479166666667,41.95659030833364
69,55,0,41.95659030833364
74,0,0.08854170208333334,42.04513201041697
75,70,0.0007440479166666667,42.04587605833364
69,0,0.029017868750000002,42.07489392708364
63,56,0.0007440479166666667,42.07563797500031
75,0,0.05877978541666667,42.13441776041698
78,70,0.0007440479166666667,42.13516180833365
63,0,0.05877978541666667,42.19394159375032
61,56,0.0007440479166666667,42.194685641666986
78,0,0.029017868750000002,42.22370351041699
81,70,0.0007440479166666667,42.22444755833366
61,0,0.08258931875,42.30703687708366
81,0,0.0014880958333333334,42.30852497291699
78,71,0.005208335416666667,42.31373330833366
56,57,0,42.31373330833366
78,0,0.08705360625,42.40078691458366
77,71,0.0007440479166666667,42.40153096250033
56,0,0.029017868750000002,42.430548831250334
61,58,0.0007440479166666667,42.431292879167
77,0,0.05877978541666667,42.49007266458367
78,72,0.0007440479166666667,42.49081671250034
61,0,0.05877978541666667,42.54959649791701
65,58,0.0007440479166666667,42.55034054583368
78,0,0.029017868750000002,42.57935841458368
77,72,0.0007440479166666667,42.58010246250035
77,0,0.08854170208333334,42.66864416458368
65,0,0,42.66864416458368
76,73,0.0007440479166666667,42.66938821250035
71,59,0,42.66938821250035
76,0,0.08854170208333334,42.757929914583684
77,73,0.0007440479166666667,42.75867396250035
71,0,0.029017868750000002,42.787691831250356
65,60,0.0007440479166666667,42.788435879167025
77,0,0.05877978541666667,42.84721566458369
80,74,0.0007440479166666667,42.84795971250036
65,0,0.05877978541666667,42.90673949791703
61,61,0.0007440479166666667,42.9074835458337
80,0,0.029017868750000002,42.9365014145837
85,74,0.0007440479166666667,42.93724546250037
61,0,0.08258931875,43.019834781250374
85,0,0.0014880958333333334,43.021322877083705
57,61,0.005208335416666667,43.02653121250037
73,75,0.08779765416666667,43.11432886666704
57,0,0.029017868750000002,43.14334673541704
61,62,0.0007440479166666667,43.14409078333371
73,0,0.05877978541666667,43.20287056875038
74,76,0.0007440479166666667,43.203614616667046
61,0,0.05877978541666667,43.262394402083714
66,63,0.0007440479166666667,43.26313845000038
74,0,0.029017868750000002,43.292156318750386
73,76,0.0007440479166666667,43.292900366667055
73,0,0.08854170208333334,43.38144206875039
66,0,0,43.38144206875039
72,77,0.0007440479166666667,43.38218611666706
69,63,0,43.38218611666706
72,0,0.08854170208333334,43.47072781875039
73,77,0.0007440479166666667,43.47147186666706
69,0,0.029017868750000002,43.50048973541706
66,64,0.0007440479166666667,43.50123378333373
73,0,0.05877978541666667,43.5600135687504
78,77,0.0007440479166666667,43.56075761666707
66,0,0.05877978541666667,43.619537402083736
61,65,0.0007440479166666667,43.620281450000405
78,0,0.029017868750000002,43.64929931875041
81,78,0.0007440479166666667,43.65004336666708
61,0,0.08258931875,43.73263268541708
81,0,0.0059523833333333335,43.73858506875041
78,78,0.0007440479166666667,43.73932911666708
56,66,0,43.73932911666708
78,0,0.08705360625,43.82638272291708
77,79,0.0007440479166666667,43.82712677083375
56,0,0.029017868750000002,43.85614463958375
61,66,0.0007440479166666667,43.85688868750042
77,0,0.05877978541666667,43.91566847291709
78,79,0.0007440479166666667,43.91641252083376
61,0,0.05877978541666667,43.97519230625043
65,67,0.0007440479166666667,43.9759363541671
78,0,0.029017868750000002,44.0049542229171
77,80,0.0007440479166666667,44.00569827083377
77,0,0.08854170208333334,44.0942399729171
65,0,0,44.0942399729171
76,80,0.0007440479166666667,44.09498402083377
71,68,0,44.09498402083377
76,0,0.08854170208333334,44.1835257229171
77,81,0.0007440479166666667,44.18426977083377
71,0,0.029017868750000002,44.213287639583776
65,68,0.0007440479166666667,44.214031687500444
77,0,0.05877978541666667,44.27281147291711
80,81,0.0007440479166666667,44.27355552083378
65,0,0.05877978541666667,44.33233530625045
61,69,0.0007440479166666667,44.33307935416712
80,0,0.029017868750000002,44.36209722291712
85,82,0.0007440479166666667,44.36284127083379
61,0,0.08258931875,44.44543058958379
85,0,0.0014880958333333334,44.446918685417124
80,82,0.005208335416666667,44.45212702083379
57,70,0,44.45212702083379
80,0,0.08705360625,44.539180627083795
78,83,0.0007440479166666667,44.539924675000464
57,0,0.029017868750000002,44.56894254375047
61,71,0.0007440479166666667,44.569686591667136
78,0,0.05877978541666667,44.628466377083804
80,83,0.0007440479166666667,44.62921042500047
61,0,0.05877978541666667,44.68799021041714
66,71,0.0007440479166666667,44.68873425833381
80,0,0.029017868750000002,44.71775212708381
78,84,0.0007440479166666667,44.71849617500048
78,0,0.08854170208333334,44.807037877083815
66,0,0,44.807037877083815
77,84,0.0007440479166666667,44.807781925000484
69,72,0,44.807781925000484
77,0,0.08854170208333334,44.89632362708382
78,84,0.0007440479166666667,44.897067675000486
69,0,0.029017868750000002,44.92608554375049
66,73,0.0007440479166666667,44.92682959166716
78,0,0.05877978541666667,44.985609377083826
81,85,0.0007440479166666667,44.986353425000495
66,0,0.05877978541666667,45.04513321041716
61,73,0.0007440479166666667,45.04587725833383
81,0,0.029017868750000002,45.074895127083835
85,85,0.0007440479166666667,45.075639175000504
61,0,0.08258931875,45.15822849375051
85,0,0.0014880958333333334,45.15971658958384
81,86,0.005208335416666667,45.164924925000506
48,74,0,45.164924925000506
81,0,0.08705360625,45.25197853125051
80,86,0.0007440479166666667,45.25272257916718
48,0,0.029017868750000002,45.28174044791718
54,75,0.0007440479166666667,45.28248449583385
80,0,0.05877978541666667,45.34126428125052
81,87,0.0007440479166666667,45.342008329167186
54,0,0.05877978541666667,45.400788114583854
56,76,0.0007440479166666667,45.40153216250052
81,0,0.029017868750000002,45.430550031250526
80,87,0.0007440479166666667,45.431294079167195
80,0,0.08854170208333334,45.51983578125053
56,0,0,45.51983578125053
79,88,0.0007440479166666667,45.5205798291672
63,76,0,45.5205798291672
79,0,0.08854170208333334,45.60912153125053
80,88,0.0007440479166666667,45.6098655791672
63,0,0.029017868750000002,45.6388834479172
56,77,0.0007440479166666667,45.63962749583387
80,0,0.05877978541666667,45.69840728125054
84,89,0.0007440479166666667,45.69915132916721
56,0,0.05877978541666667,45.757931114583876
54,78,0.0007440479166666667,45.758675162500545
84,0,0.029017868750000002,45.78769303125055
87,89,0.0007440479166666667,45.78843707916722
54,0,0.08258931875,45.87102639791722
87,0,0.0014880958333333334,45.87251449375055
80,90,0.005208335416666667,45.87772282916722
49,78,0,45.87772282916722
80,0,0.08705360625,45.96477643541722
81,90,0.0007440479166666667,45.96552048333389
49,0,0.029017868750000002,45.99453835208389
56,79,0.0007440479166666667,45.99528240000056
81,0,0.05877978541666667,46.05406218541723
80,91,0.0007440479166666667,46.0548062333339
56,0,0.05877978541666667,46.11358601875057
61,80,0.0007440479166666667,46.114330066667236
80,0,0.029017868750000002,46.14334793541724
79,91,0.0007440479166666667,46.14409198333391
79,0,0.08854170208333334,46.23263368541724
61,0,0,46.23263368541724
80,91,0.0007440479166666667,46.23337773333391
64,81,0,46.23337773333391
80,0,0.08407741458333333,46.317455147917244
88,127,0.005208335416666667,46.32266348333391
64,0,0.029017868750000002,46.351681352083915
61,81,0.0007440479166666667,46.352425400000584
88,0,0.05877978541666667,46.41120518541725
87,92,0.0007440479166666667,46.41194923333392
61,0,0.05877978541666667,46.47072901875059
56,82,0.0007440479166666667,46.47147306666726
87,0,0.029017868750000002,46.50049093541726
86,93,0.0007440479166666667,46.50123498333393
56,0,0.08258931875,46.58382430208393
86,0,0.0059523833333333335,46.58977668541726
85,93,0.0007440479166666667,46.59052073333393
51,83,0,46.59052073333393
85,0,0.08705360625,46.677574339583934
84,94,0.0007440479166666667,46.6783183875006
51,0,0.029017868750000002,46.707336256250606
56,83,0.0007440479166666667,46.708080304167275
84,0,0.05877978541666667,46.76686008958394
83,94,0.0007440479166666667,46.76760413750061
56,0,0.05877978541666667,46.82638392291728
60,84,0.0007440479166666667,46.82712797083395
83,0,0.029017868750000002,46.85614583958395
82,95,0.0007440479166666667,46.85688988750062
82,0,0.08854170208333334,46.945431589583954
60,0,0,46.945431589583954
81,95,0.0007440479166666667,46.94617563750062
66,85,0,46.94617563750062
81,0,0.08854170208333334,47.034717339583956
80,96,0.0007440479166666667,47.035461387500625
66,0,0.029017868750000002,47.06447925625063
60,86,0.0007440479166666667,47.0652233041673
80,0,0.05877978541666667,47.124003089583965
79,96,0.0007440479166666667,47.124747137500634
60,0,0.05877978541666667,47.1835269229173
56,86,0.0007440479166666667,47.18427097083397
79,0,0.029017868750000002,47.213288839583974
78,97,0.0007440479166666667,47.21403288750064
56,0,0.08258931875,47.296622206250646
78,0,0.0014880958333333334,47.29811030208398
76,97,0.005208335416666667,47.303318637500645
52,87,0,47.303318637500645
76,0,0.08705360625,47.39037224375065
78,98,0.0007440479166666667,47.391116291667316
52,0,0.029017868750000002,47.42013416041732
56,88,0.0007440479166666667,47.42087820833399
78,0,0.05877978541666667,47.479657993750656
76,98,0.0007440479166666667,47.480402041667325
56,0,0.05877978541666667,47.53918182708399
61,88,0.0007440479166666667,47.53992587500066
76,0,0.029017868750000002,47.568943743750665
75,98,0.0007440479166666667,47.569687791667334
75,0,0.08854170208333334,47.65822949375067
61,0,0,47.65822949375067
76,99,0.0007440479166666667,47.658973541667336
64,89,0,47.658973541667336
76,0,0.08407741458333333,47.74305095625067
88,127,0.005208335416666667,47.74825929166734
64,0,0.029017868750000002,47.77727716041734
61,90,0.0007440479166666667,47.77802120833401
88,0,0.05877978541666667,47.83680099375068
87,100,0.0007440479166666667,47.83754504166735
61,0,0.05877978541666667,47.896324827084015
56,91,0.0007440479166666667,47.897068875000684
87,0,0.029017868750000002,47.92608674375069
86,100,0.0007440479166666667,47.926830791667356
56,0,0.08258931875,48.00942011041736
86,0,0.0059523833333333335,48.01537249375069
85,101,0.0007440479166666667,48.01611654166736
54,91,0,48.01611654166736
85,0,0.08705360625,48.10317014791736
84,101,0.0007440479166666667,48.10391419583403
54,0,0.029017868750000002,48.13293206458403
61,92,0.0007440479166666667,48.1336761125007
84,0,0.05877978541666667,48.19245589791737
83,102,0.0007440479166666667,48.19319994583404
61,0,0.05877978541666667,48.25197973125071
63,93,0.0007440479166666667,48.252723779167376
83,0,0.029017868750000002,48.28174164791738
82,102,0.0007440479166666667,48.28248569583405
82,0,0.08854170208333334,48.37102739791738
63,0,0,48.37102739791738
81,103,0.0007440479166666667,48.37177144583405
69,93,0,48.37177144583405
81,0,0.08854170208333334,48.46031314791738
80,103,0.0007440479166666667,48.46105719583405
69,0,0.029017868750000002,48.490075064584055
63,94,0.0007440479166666667,48.49081911250072
80,0,0.05877978541666667,48.54959889791739
79,104,0.0007440479166666667,48.55034294583406
63,0,0.05877978541666667,48.60912273125073
61,95,0.0007440479166666667,48.6098667791674
79,0,0.029017868750000002,48.6388846479174
78,104,0.0007440479166666667,48.63962869583407
61,0,0.08258931875,48.72221801458407
78,0,0.0059523833333333335,48.7281703979174
80,105,0.0007440479166666667,48.72891444583407
56,96,0,48.72891444583407
61,96,0,48.72891444583407
64,96,0,48.72891444583407
68,96,0,48.72891444583407
80,0,0.08333336666666667,48.812247812500736
56,0,0.0848214625,48.89706927500074
61,0,0,48.89706927500074
64,0,0,48.89706927500074
68,0,0,48.89706927500074
92,127,0.009672622916666667,48.90674189791741
92,0,0.08854170208333334,48.99528360000074
91,105,0.0007440479166666667,48.99602764791741
91,0,0.08854170208333334,49.08456935000074
90,105,0.0007440479166666667,49.08531339791741
90,0,0.08854170208333334,49.17385510000074
89,105,0.0007440479166666667,49.17459914791741
89,0,0.08854170208333334,49.263140850000745
88,105,0.0007440479166666667,49.263884897917414
88,0,0.08854170208333334,49.35242660000075
87,105,0.0007440479166666667,49.353170647917416
87,0,0.08854170208333334,49.44171235000075
86,105,0.0007440479166666667,49.44245639791742
55,127,0,49.44245639791742
61,127,0,49.44245639791742
64,127,0,49.44245639791742
69,127,0,49.44245639791742
86,0,0.08705360625,49.52951000416742
85,105,0.0007440479166666667,49.53025405208409
85,0,0.08854170208333334,49.61879575416742
84,105,0.0007440479166666667,49.61953980208409
84,0,0.08854170208333334,49.708081504167424
83,105,0.0007440479166666667,49.70882555208409
83,0,0.08854170208333334,49.797367254167426
55,0,0,49.797367254167426
61,0,0,49.797367254167426
64,0,0,49.797367254167426
69,0,0,49.797367254167426
82,105,0.0007440479166666667,49.798111302084095
82,0,0.08779765416666667,49.88590895625076
81,105,0.0007440479166666667,49.88665300416743
81,0,0.08854170208333334,49.97519470625076
80,105,0.0007440479166666667,49.97593875416743
80,0,0.08854170208333334,50.06448045625076
79,105,0.0007440479166666667,50.06522450416743
79,0,0.08854170208333334,50.153766206250765
78,105,0.0007440479166666667,50.154510254167434
78,0,0.08854170208333334,50.24305195625077
77,106,0.0007440479166666667,50.243796004167436
77,0,0.08854170208333334,50.33233770625077
76,107,0.0007440479166666667,50.33308175416744
76,0,0.08854170208333334,50.42162345625077
75,109,0.0007440479166666667,50.42236750416744
75,0,0.08854170208333334,50.51090920625077
74,110,0.0007440479166666667,50.51165325416744
74,0,0.08854170208333334,50.600194956250775
73,111,0.0007440479166666667,50.600939004167444
73,0,0.08854170208333334,50.68948070625078
72,113,0.0007440479166666667,50.690224754167446
72,0,0.08854170208333334,50.77876645625078
71,114,0.0007440479166666667,50.77951050416745
71,0,0.08854170208333334,50.86805220625078
70,116,0.0007440479166666667,50.86879625416745
70,0,0.08854170208333334,50.95733795625078
69,117,0.0007440479166666667,50.95808200416745
69,0,0.08854170208333334,51.046623706250784
68,118,0.0007440479166666667,51.04736775416745
68,0,0.08854170208333334,51.135909456250786
67,120,0.0007440479166666667,51.136653504167455
67,0,0.08854170208333334,51.22519520625079
66,121,0.0007440479166666667,51.22593925416746
66,0,0.08854170208333334,51.31448095625079
64,122,0.0007440479166666667,51.31522500416746
64,0,0.08854170208333334,51.40376670625079
63,124,0.0007440479166666667,51.40451075416746
63,0,0.08854170208333334,51.493052456250794
61,125,0.0007440479166666667,51.49379650416746
61,0,0.08854170208333334,51.582338206250796
56,127,0.0007440479166666667,51.583082254167465
32,127,0,51.583082254167465
44,127,0,51.583082254167465
56,0,0.05654764166666667,51.63962989583413
32,0,0,51.63962989583413
44,0,0,51.63962989583413
93,127,0.2991072625,51.938737158334135
64,112,0,51.938737158334135
76,112,0,51.938737158334135
93,0,0.08854170208333334,52.02727886041747
92,112,0.0007440479166666667,52.02802290833414
92,0,0.08854170208333334,52.11656461041747
100,112,0.0007440479166666667,52.11730865833414
100,0,0.08854170208333334,52.20585036041747
88,112,0.0007440479166666667,52.20659440833414
64,0,0.07068455208333334,52.277278960417476
76,0,0,52.277278960417476
88,0,0.0133928625,52.290671822917474
90,127,0.005208335416666667,52.29588015833414
61,112,0,52.29588015833414
73,112,0,52.29588015833414
90,0,0.08854170208333334,52.384421860417476
88,112,0.0007440479166666667,52.385165908334145
88,0,0.08854170208333334,52.47370761041748
97,112,0.0007440479166666667,52.47445165833415
97,0,0.08854170208333334,52.56299336041748
85,112,0.0007440479166666667,52.56373740833415
61,0,0.07068455208333334,52.634421960417484
73,0,0,52.634421960417484
85,0,0.0133928625,52.64781482291748
87,127,0.005208335416666667,52.65302315833415
56,112,0,52.65302315833415
68,112,0,52.65302315833415
87,0,0.08854170208333334,52.74156486041748
85,112,0.0007440479166666667,52.74230890833415
85,0,0.08854170208333334,52.830850610417485
92,112,0.0007440479166666667,52.831594658334154
92,0,0.08854170208333334,52.92013636041749
80,112,0.0007440479166666667,52.920880408334156
56,0,0.07068455208333334,52.99156496041749
68,0,0,52.99156496041749
80,0,0.0133928625,53.00495782291749
81,127,0.005208335416666667,53.01016615833416
52,112,0,53.01016615833416
64,112,0,53.01016615833416
81,0,0.08854170208333334,53.09870786041749
80,112,0.0007440479166666667,53.09945190833416
80,0,0.08854170208333334,53.18799361041749
88,112,0.0007440479166666667,53.18873765833416
88,0,0.08854170208333334,53.277279360417495
76,112,0.0007440479166666667,53.278023408334164
52,0,0.07068455208333334,53.3487079604175
64,0,0,53.3487079604175
76,0,0.0133928625,53.3621008229175
78,127,0.005208335416666667,53.367309158334166
49,112,0,53.367309158334166
61,112,0,53.367309158334166
78,0,0.08854170208333334,53.4558508604175
76,112,0.0007440479166666667,53.45659490833417
76,0,0.08854170208333334,53.5451366104175
85,112,0.0007440479166666667,53.54588065833417
85,0,0.08854170208333334,53.6344223604175
73,112,0.0007440479166666667,53.63516640833417
49,0,0.07068455208333334,53.70585096041751
61,0,0,53.70585096041751
73,0,0.0133928625,53.719243822917505
75,127,0.005208335416666667,53.724452158334174
44,112,0,53.724452158334174
56,112,0,53.724452158334174
75,0,0.08854170208333334,53.81299386041751
73,112,0.0007440479166666667,53.813737908334176
73,0,0.08854170208333334,53.90227961041751
80,112,0.0007440479166666667,53.90302365833418
80,0,0.08854170208333334,53.99156536041751
68,112,0.0007440479166666667,53.99230940833418
44,0,0.07068455208333334,54.062993960417515
56,0,0,54.062993960417515
68,0,0.0133928625,54.07638682291751
69,127,0.005208335416666667,54.08159515833418
40,112,0,54.08159515833418
52,112,0,54.08159515833418
69,0,0.08854170208333334,54.170136860417514
68,112,0.0007440479166666667,54.17088090833418
68,0,0.08854170208333334,54.259422610417516
76,112,0.0007440479166666667,54.260166658334185
76,0,0.08854170208333334,54.34870836041752
64,112,0.0007440479166666667,54.34945240833419
40,0,0.07068455208333334,54.42013696041752
52,0,0,54.42013696041752
64,0,0.0133928625,54.43352982291752
66,127,0.005208335416666667,54.43873815833419
37,112,0,54.43873815833419
49,112,0,54.43873815833419
66,0,0.08854170208333334,54.52727986041752
64,112,0.0007440479166666667,54.52802390833419
64,0,0.08854170208333334,54.616565610417524
73,112,0.0007440479166666667,54.61730965833419
73,0,0.08854170208333334,54.705851360417526
61,112,0.0007440479166666667,54.706595408334195
37,0,0.07068455208333334,54.77727996041753
49,0,0,54.77727996041753
61,0,0.0133928625,54.79067282291753
63,127,0.005208335416666667,54.7958811583342
32,112,0,54.7958811583342
44,112,0,54.7958811583342
63,0,0.08854170208333334,54.88442286041753
61,112,0.0007440479166666667,54.8851669083342
61,0,0.08854170208333334,54.97370861041753
68,112,0.0007440479166666667,54.9744526583342
68,0,0.08854170208333334,55.062994360417534
56,112,0.0007440479166666667,55.0637384083342
32,0,0.07068455208333334,55.13442296041754
44,0,0,55.13442296041754
56,0,0.0133928625,55.147815822917536
63,127,0,55.147815822917536
32,112,0,55.147815822917536
44,112,0,55.147815822917536
63,0,0.09140625000000001,55.239222072917535
61,112,0.00078125,55.24000332291754
61,0,0.09296875,55.332972072917535
68,112,0,55.332972072917535
68,0,0.09786188125,55.43083395416753
56,112,0.00082236875,55.43165632291753
32,0,0.07812503125,55.50978135416754
44,0,0,55.50978135416754
56,0,0.0148026375,55.524583991667534
63,127,0,55.524583991667534
33,112,0,55.524583991667534
45,112,0,55.524583991667534
63,0,0.10156258124999999,55.626146572917534
61,112,0.00086805625,55.62701462916753
61,0,0.10329869374999999,55.73031332291753
69,112,0,55.73031332291753
69,0,0.10937488333333333,55.83968820625086
57,112,0.0009191166666666666,55.84060732291753
33,0,0.08731608333333334,55.92792340625086
45,0,0,55.92792340625086
57,0,0.0165441,55.94446750625086
63,127,0,55.94446750625086
32,112,0,55.94446750625086
44,112,0,55.94446750625086
63,0,0.1142578125,56.05872531875086
61,111,0.0009765625,56.05970188125086
61,0,0.1162109375,56.17591281875086
68,110,0,56.17591281875086
68,0,0.12395833333333334,56.299871152084194
56,109,0.0010416666666666667,56.30091281875086
32,0,0.09895833333333333,56.399871152084195
44,0,0,56.399871152084195
56,0,0.01875,56.41862115208419
63,127,0,56.41862115208419
31,108,0,56.41862115208419
43,108,0,56.41862115208419
63,0,0.1305802875,56.549201439584195
61,107,0.0011160708333333334,56.55031751041753
61,0,0.13281242916666666,56.6831299395842
67,106,0,56.6831299395842
67,0,0.14302882708333334,56.82615876666753
55,105,0.0012019229166666666,56.8273606895842
31,0,0.11418267708333334,56.94154336666753
43,0,0,56.94154336666753
55,0,0.0216346125,56.96317797916753
63,127,0,56.96317797916753
32,104,0,56.96317797916753
44,104,0,56.96317797916753
63,0,0.15234375,57.11552172916753
61,103,0.0013020833333333333,57.11682381250087
61,0,0.15494791666666666,57.27177172916753
68,102,0,57.27177172916753
68,0,0.1690340458333333,57.44080577500087
56,101,0.0014204541666666666,57.44222622916754
56,0,0.16051132083333333,57.602737550000874
63,127,0,57.602737550000874
63,0,0.18281250000000002,57.78555005000087
60,99,0.0015625,57.78711255000087
60,0,0.1859375,57.97305005000087
68,98,0,57.97305005000087
68,0,0.2065971395833333,58.1796471895842
56,97,0,58.1796471895842
32,0,0.13246262916666665,58.31210981875087
44,0,0,58.31210981875087
56,0,0.07835817499999999,58.39046799375087
37,96,0,58.39046799375087
37,0,0.3165322791666667,58.70700027291753
44,98,0.0020161291666666668,58.7090164020842
44,0,0.3205645375,59.0295809395842
49,101,0.0020161291666666668,59.03159706875087
49,0,0.3205645375,59.35216160625087
53,104,0.0020161291666666668,59.35417773541754
53,0,0.3205645375,59.674742272917534
56,106,0.0020161291666666668,59.676758402084204
56,0,0.3205645375,59.9973229395842
61,109,0.0020161291666666668,59.99933906875087
61,0,0.3205645375,60.31990360625087
65,112,0.0020161291666666668,60.32191973541754
65,0,0.3205645375,60.642484272917535
61,110,0.0020161291666666668,60.644500402084205
61,0,0.3205645375,60.9650649395842
56,107,0.0020161291666666668,60.96708106875087
56,0,0.3205645375,61.28764560625087
53,104,0.0020161291666666668,61.28966173541754
53,0,0.3205645375,61.61022627291754
49,102,0.0020161291666666668,61.612242402084206
49,0,0.3205645375,61.932806939584204
44,99,0.0020161291666666668,61.93482306875087
44,0,0.3044355041666667,62.23925857291754
37,96,0.0181451625,62.25740373541754
37,0,0.3205645375,62.57796827291754
44,93,0.0020161291666666668,62.57998440208421
44,0,0.3205645375,62.900548939584205
49,89,0.0020161291666666668,62.902565068750874
49,0,0.3205645375,63.22312960625087
53,85,0.0020161291666666668,63.22514573541754
53,0,0.3205645375,63.54571027291754
56,81,0.0020161291666666668,63.54772640208421
56,0,0.3205645375,63.868290939584206
61,77,0.0020161291666666668,63.870307068750876
61,0,0.3205645375,64.19087160625088
65,73,0.0020161291666666668,64.19288773541754
65,0,0.3205645375,64.51345227291755
61,69,0.0020161291666666668,64.51546840208421
61,0,0.3205645375,64.83603293958421
56,65,0.0020161291666666668,64.83804906875088
56,0,0.3205645375,65.15861360625088
53,61,0.0020161291666666668,65.16062973541754
53,0,0.3205645375,65.48119427291755
49,57,0.0020161291666666668,65.48321040208421
49,0,0.3205645375,65.80377493958422
44,53,0.0020161291666666668,65.80579106875088
68,64,0,65.80579106875088
37,49,0,65.80579106875088
44,0,0.22031250000000002,66.02610356875088
37,0,0.0125,66.03860356875089
56,49,0.0140625,66.05266606875088
56,0,0.2484375,66.30110356875088
60,49,0.0015625,66.30266606875088
60,0,0.2484375,66.55110356875088
63,49,0.0015625,66.55266606875088
63,0,0.2484375,66.80110356875088
60,49,0.0015625,66.80266606875088
60,0,0.2484375,67.05110356875088
56,49,0.0015625,67.05266606875088
56,0,0.23593750000000002,67.28860356875089
68,0,0.0125,67.30110356875089
70,64,0.0015625,67.3026660687509
49,49,0,67.3026660687509
70,0,0.0921875,67.39485356875089
72,64,0.0015625,67.3964160687509
72,0,0.0921875,67.48860356875089
70,64,0.0015625,67.4901660687509
49,0,0.060937500000000006,67.55110356875089
56,49,0.0015625,67.5526660687509
70,0,0.029687500000000002,67.58235356875089
72,64,0.0015625,67.5839160687509
72,0,0.0921875,67.67610356875089
68,65,0.0015625,67.6776660687509
56,0,0.1234375,67.80110356875089
60,50,0.0015625,67.8026660687509
68,0,0.2484375,68.05110356875089
60,0,0,68.05110356875089
73,66,0.0015625,68.0526660687509
66,51,0,68.0526660687509
66,0,0.2484375,68.30110356875089
60,51,0.0015625,68.3026660687509
73,0,0.1234375,68.42610356875089
75,67,0.0015625,68.4276660687509
60,0,0.1234375,68.55110356875089
56,52,0.0015625,68.5526660687509
56,0,0.23593750000000002,68.7886035687509
75,0,0.0125,68.8011035687509
77,68,0.0015625,68.80266606875091
49,53,0,68.80266606875091
49,0,0.24531250000000002,69.0479785687509
56,53,0.0015625,69.04954106875091
56,0,0.2484375,69.2979785687509
61,54,0.0015625,69.29954106875091
61,0,0.2484375,69.5479785687509
65,55,0.0015625,69.54954106875091
65,0,0.2484375,69.7979785687509
61,55,0.0015625,69.79954106875091
61,0,0.2484375,70.0479785687509
56,56,0.0015625,70.04954106875091
77,0,0.17343750000000002,70.22297856875092
56,0,0.0625,70.28547856875092
80,108,0.0140625,70.29954106875091
49,57,0,70.29954106875091
49,0,0.24531250000000002,70.54485356875091
56,56,0.0015625,70.54641606875091
56,0,0.2484375,70.79485356875091
65,55,0.0015625,70.79641606875091
65,0,0.2484375,71.04485356875091
68,102,0.0015625,71.04641606875091
65,52,0.25,71.29641606875091
65,0,0.2484375,71.54485356875091
56,51,0.0015625,71.54641606875091
56,0,0.23593750000000002,71.78235356875092
80,0,0.0125,71.79485356875092
68,0,0,71.79485356875092
78,64,0.0015625,71.79641606875093
66,73,0,71.79641606875093
63,49,0.246875,72.04329106875093
63,0,0.2484375,72.29172856875093
56,49,0.0015625,72.29329106875093
56,0,0.23593750000000002,72.52922856875094
78,0,0.0125,72.54172856875094
66,0,0,72.54172856875094
77,64,0.0015625,72.54329106875095
65,73,0,72.54329106875095
61,49,0.246875,72.79016606875095
61,0,0.2484375,73.03860356875094
56,49,0.0015625,73.04016606875095
56,0,0.23593750000000002,73.27610356875095
77,0,0.0125,73.28860356875096
65,0,0,73.28860356875096
75,64,0.0015625,73.29016606875096
63,73,0,73.29016606875096
60,49,0.246875,73.53704106875097
60,0,0.2484375,73.78547856875096
56,49,0.0015625,73.78704106875097
56,0,0.23593750000000002,74.02297856875097
75,0,0.0125,74.03547856875097
63,0,0,74.03547856875097
77,96,0.0015625,74.03704106875098
61,73,0,74.03704106875098
56,49,0.246875,74.28391606875098
56,0,0.2484375,74.53235356875098
53,49,0.0015625,74.53391606875098
77,0,0.060937500000000006,74.59485356875098
73,64,0.0015625,74.59641606875098
53,0,0.17343750000000002,74.76985356875099
73,0,0.0125,74.78235356875099
61,0,0,74.78235356875099
68,64,0.0015625,74.783916068751
44,49,0,74.783916068751
44,0,0.24531250000000002,75.029228568751
51,49,0.0015625,75.030791068751
51,0,0.2484375,75.279228568751
56,49,0.0015625,75.280791068751
56,0,0.2484375,75.529228568751
60,49,0.0015625,75.530791068751
60,0,0.2484375,75.779228568751
56,49,0.0015625,75.780791068751
56,0,0.2484375,76.029228568751
51,49,0.0015625,76.030791068751
68,0,0.17343750000000002,76.204228568751
51,0,0.0625,76.266728568751
70,96,0.0140625,76.280791068751
42,49,0,76.280791068751
42,0,0.24531250000000002,76.526103568751
54,49,0.0015625,76.527666068751
54,0,0.2484375,76.776103568751
58,49,0.0015625,76.777666068751
58,0,0.2484375,77.026103568751
61,49,0.0015625,77.027666068751
61,0,0.2484375,77.276103568751
58,49,0.0015625,77.277666068751
58,0,0.2484375,77.526103568751
54,49,0.0015625,77.527666068751
54,0,0.23593750000000002,77.76360356875101
46,49,0.0140625,77.777666068751
46,0,0.24531250000000002,78.022978568751
53,49,0.0015625,78.024541068751
53,0,0.2484375,78.272978568751
58,49,0.0015625,78.274541068751
58,0,0.2484375,78.522978568751
62,49,0.0015625,78.524541068751
62,0,0.2484375,78.772978568751
58,49,0.0015625,78.774541068751
58,0,0.2484375,79.022978568751
53,49,0.0015625,79.024541068751
53,0,0.23593750000000002,79.26047856875101
70,0,0.0125,79.27297856875101
71,64,0.0015625,79.27454106875102
46,49,0,79.27454106875102
71,0,0.0890625,79.36360356875102
73,64,0.0015625,79.36516606875102
73,0,0.0921875,79.45735356875102
71,65,0.0015625,79.45891606875102
46,0,0.060937500000000006,79.51985356875102
58,50,0.0015625,79.52141606875102
71,0,0.029687500000000002,79.55110356875102
73,65,0.0015625,79.55266606875102
73,0,0.0921875,79.64485356875102
70,66,0.0015625,79.64641606875102
58,0,0.1234375,79.76985356875102
62,51,0.0015625,79.77141606875102
70,0,0.2484375,80.01985356875102
62,0,0,80.01985356875102
75,68,0.0015625,80.02141606875102
68,53,0,80.02141606875102
68,0,0.2484375,80.26985356875102
62,54,0.0015625,80.27141606875102
75,0,0.1234375,80.39485356875102
77,70,0.0015625,80.39641606875102
62,0,0.1234375,80.51985356875102
58,55,0.0015625,80.52141606875102
77,0,0.22968750000000002,80.75110356875102
58,0,0.00625,80.75735356875101
78,72,0.0140625,80.77141606875101
51,57,0,80.77141606875101
51,0,0.24531250000000002,81.016728568751
66,57,0.0015625,81.01829106875101
66,0,0.2484375,81.266728568751
58,57,0.0015625,81.26829106875101
58,0,0.23593750000000002,81.50422856875102
78,0,0.0125,81.51672856875102
77,72,0.0015625,81.51829106875103
53,57,0,81.51829106875103
53,0,0.24531250000000002,81.76360356875102
65,57,0.0015625,81.76516606875103
65,0,0.2484375,82.01360356875102
57,57,0.0015625,82.01516606875103
57,0,0.23593750000000002,82.25110356875103
77,0,0.0125,82.26360356875104
75,72,0.0015625,82.26516606875104
54,57,0,82.26516606875104
54,0,0.24531250000000002,82.51047856875104
63,57,0.0015625,82.51204106875105
63,0,0.2484375,82.76047856875104
58,57,0.0015625,82.76204106875105
58,0,0.23593750000000002,82.99797856875105
75,0,0.0125,83.01047856875105
77,72,0.0015625,83.01204106875106
56,57,0,83.01204106875106
56,0,0.24531250000000002,83.25735356875106
66,57,0.0015625,83.25891606875106
66,0,0.2484375,83.50735356875106
60,57,0.0015625,83.50891606875106
77,0,0.2109375,83.71985356875106
60,0,0.025,83.74485356875107
73,72,0.0140625,83.75891606875106
49,57,0,83.75891606875106
49,0,0.24531250000000002,84.00422856875106
56,57,0.0015625,84.00579106875107
56,0,0.2484375,84.25422856875106
61,57,0.0015625,84.25579106875107
61,0,0.2484375,84.50422856875106
65,57,0.0015625,84.50579106875107
65,0,0.2484375,84.75422856875106
61,57,0.0015625,84.75579106875107
73,0,0.2484375,85.00422856875106
61,0,0,85.00422856875106
72,72,0.0015625,85.00579106875107
56,57,0,85.00579106875107
72,0,0.060937500000000006,85.06672856875106
73,72,0.0015625,85.06829106875107
73,0,0.060937500000000006,85.12922856875106
75,72,0.0015625,85.13079106875107
75,0,0.060937500000000006,85.19172856875106
73,72,0.0015625,85.19329106875107
56,0,0.0484375,85.24172856875107
73,0,0.0125,85.25422856875107
77,108,0.0015625,85.25579106875108
51,57,0,85.25579106875108
51,0,0.24531250000000002,85.50110356875108
55,56,0.0015625,85.50266606875108
55,0,0.2484375,85.75110356875108
61,55,0.0015625,85.75266606875108
61,0,0.2484375,86.00110356875108
63,53,0.0015625,86.00266606875108
63,0,0.2484375,86.25110356875108
61,52,0.0015625,86.25266606875108
77,0,0.1234375,86.37610356875108
75,66,0.0015625,86.37766606875108
61,0,0.1234375,86.50110356875108
55,51,0.0015625,86.50266606875108
55,0,0.23593750000000002,86.73860356875109
75,0,0.0125,86.75110356875109
75,96,0.0015625,86.7526660687511
44,49,0,86.7526660687511
44,0,0.24531250000000002,86.9979785687511
51,49,0.0015625,86.9995410687511
51,0,0.2484375,87.2479785687511
56,49,0.0015625,87.2495410687511
56,0,0.2484375,87.4979785687511
60,49,0.0015625,87.4995410687511
60,0,0.2484375,87.7479785687511
56,49,0.0015625,87.7495410687511
56,0,0.2484375,87.9979785687511
51,49,0.0015625,87.9995410687511
51,0,0.23593750000000002,88.2354785687511
44,49,0,88.2354785687511
44,0,0.25160263958333334,88.48708120833444
51,49,0.0016025645833333334,88.48868377291778
51,0,0.25480776875,88.74349154166778
54,49,0,88.74349154166778
54,0,0.2615132625,89.00500480416778
58,73,0,89.00500480416778
54,49,0,89.00500480416778
54,0,0.3205645375,89.32556934166779
51,49,0,89.32556934166779
51,0,0.39322916666666663,89.71879850833446
75,0,0.020833333333333332,89.73963184166779
58,0,0,89.73963184166779
68,64,0,89.73963184166779
44,49,0,89.73963184166779
44,0,0.24531250000000002,89.98494434166778
51,49,0.0015625,89.98650684166779
51,0,0.2484375,90.23494434166778
56,49,0.0015625,90.23650684166779
56,0,0.2484375,90.48494434166778
60,49,0.0015625,90.48650684166779
60,0,0.2484375,90.73494434166778
56,49,0.0015625,90.73650684166779
56,0,0.2484375,90.98494434166778
51,49,0.0015625,90.98650684166779
51,0,0.23593750000000002,91.2224443416678
68,0,0.0125,91.2349443416678
70,64,0.0015625,91.2365068416678
44,49,0,91.2365068416678
70,0,0.0921875,91.3286943416678
72,64,0.0015625,91.3302568416678
72,0,0.0921875,91.4224443416678
70,64,0.0015625,91.4240068416678
44,0,0.060937500000000006,91.4849443416678
56,49,0.0015625,91.4865068416678
70,0,0.029687500000000002,91.5161943416678
72,64,0.0015625,91.5177568416678
72,0,0.0921875,91.6099443416678
68,65,0.0015625,91.6115068416678
56,0,0.1234375,91.7349443416678
60,50,0.0015625,91.7365068416678
68,0,0.2484375,91.9849443416678
60,0,0,91.9849443416678
73,66,0.0015625,91.9865068416678
66,51,0,91.9865068416678
66,0,0.2484375,92.2349443416678
60,51,0.0015625,92.2365068416678
73,0,0.1234375,92.3599443416678
75,67,0.0015625,92.3615068416678
60,0,0.1234375,92.4849443416678
56,52,0.0015625,92.4865068416678
56,0,0.23593750000000002,92.72244434166781
75,0,0.0125,92.73494434166781
77,68,0.0015625,92.73650684166782
49,53,0,92.73650684166782
49,0,0.24531250000000002,92.98181934166782
56,53,0.0015625,92.98338184166782
56,0,0.2484375,93.23181934166782
61,54,0.0015625,93.23338184166782
61,0,0.2484375,93.48181934166782
65,55,0.0015625,93.48338184166782
65,0,0.2484375,93.73181934166782
61,55,0.0015625,93.73338184166782
61,0,0.2484375,93.98181934166782
56,56,0.0015625,93.98338184166782
77,0,0.17343750000000002,94.15681934166783
56,0,0.0625,94.21931934166783
80,108,0.0140625,94.23338184166782
49,57,0,94.23338184166782
49,0,0.24531250000000002,94.47869434166782
56,56,0.0015625,94.48025684166782
56,0,0.2484375,94.72869434166782
65,55,0.0015625,94.73025684166782
65,0,0.2484375,94.97869434166782
68,102,0.0015625,94.98025684166782
65,52,0.25,95.23025684166782
65,0,0.2484375,95.47869434166782
56,51,0.0015625,95.48025684166782
56,0,0.23593750000000002,95.71619434166783
80,0,0.0125,95.72869434166783
68,0,0,95.72869434166783
78,64,0.0015625,95.73025684166784
66,73,0,95.73025684166784
63,49,0.246875,95.97713184166784
63,0,0.2484375,96.22556934166784
56,49,0.0015625,96.22713184166784
56,0,0.23593750000000002,96.46306934166785
78,0,0.0125,96.47556934166785
66,0,0,96.47556934166785
77,64,0.0015625,96.47713184166786
65,73,0,96.47713184166786
61,49,0.246875,96.72400684166786
61,0,0.2484375,96.97244434166785
56,49,0.0015625,96.97400684166786
56,0,0.23593750000000002,97.20994434166786
77,0,0.0125,97.22244434166787
65,0,0,97.22244434166787
75,64,0.0015625,97.22400684166787
63,73,0,97.22400684166787
75,0,0.24531250000000002,97.46931934166787
77,64,0.0015625,97.47088184166788
60,49,0,97.47088184166788
77,0,0.1234375,97.59431934166787
75,64,0.0015625,97.59588184166788
75,0,0.1234375,97.71931934166787
60,0,0,97.71931934166787
73,64,0.0015625,97.72088184166788
56,49,0,97.72088184166788
73,0,0.1234375,97.84431934166787
75,64,0.0015625,97.84588184166788
56,0,0.11093750000000001,97.95681934166788
75,0,0.0125,97.96931934166788
63,0,0,97.96931934166788
77,96,0.0015625,97.97088184166789
61,73,0,97.97088184166789
56,49,0.246875,98.21775684166789
56,0,0.2484375,98.46619434166789
53,49,0.0015625,98.46775684166789
77,0,0.060937500000000006,98.52869434166789
73,64,0.0015625,98.53025684166789
53,0,0.17343750000000002,98.7036943416679
73,0,0.0125,98.7161943416679
61,0,0,98.7161943416679
68,64,0.0015625,98.7177568416679
44,49,0,98.7177568416679
44,0,0.24531250000000002,98.9630693416679
51,49,0.0015625,98.96463184166791
51,0,0.2484375,99.2130693416679
56,49,0.0015625,99.21463184166791
56,0,0.2484375,99.4630693416679
60,49,0.0015625,99.46463184166791
60,0,0.2484375,99.7130693416679
56,49,0.0015625,99.71463184166791
56,0,0.2484375,99.9630693416679
51,49,0.0015625,99.96463184166791
68,0,0.17343750000000002,100.13806934166792
51,0,0.0625,100.20056934166792
70,96,0.0140625,100.21463184166791
42,49,0,100.21463184166791
42,0,0.24531250000000002,100.4599443416679
54,49,0.0015625,100.46150684166791
54,0,0.2484375,100.7099443416679
58,49,0.0015625,100.71150684166791
58,0,0.2484375,100.9599443416679
61,49,0.0015625,100.96150684166791
61,0,0.2484375,101.2099443416679
58,49,0.0015625,101.21150684166791
58,0,0.2484375,101.4599443416679
54,49,0.0015625,101.46150684166791
54,0,0.23593750000000002,101.69744434166792
46,49,0.0140625,101.71150684166791
46,0,0.24531250000000002,101.95681934166791
53,49,0.0015625,101.95838184166792
53,0,0.2484375,102.20681934166791
58,49,0.0015625,102.20838184166792
58,0,0.2484375,102.45681934166791
62,49,0.0015625,102.45838184166792
62,0,0.2484375,102.70681934166791
58,49,0.0015625,102.70838184166792
58,0,0.2484375,102.95681934166791
53,49,0.0015625,102.95838184166792
53,0,0.23593750000000002,103.19431934166792
70,0,0.0125,103.20681934166792
71,64,0.0015625,103.20838184166793
46,49,0,103.20838184166793
71,0,0.0890625,103.29744434166793
73,64,0.0015625,103.29900684166793
73,0,0.0921875,103.39119434166793
71,65,0.0015625,103.39275684166793
46,0,0.060937500000000006,103.45369434166793
58,50,0.0015625,103.45525684166793
71,0,0.029687500000000002,103.48494434166793
73,65,0.0015625,103.48650684166793
73,0,0.0921875,103.57869434166793
70,66,0.0015625,103.58025684166793
58,0,0.1234375,103.70369434166793
62,51,0.0015625,103.70525684166793
70,0,0.2484375,103.95369434166793
62,0,0,103.95369434166793
75,68,0.0015625,103.95525684166793
68,53,0,103.95525684166793
68,0,0.2484375,104.20369434166793
62,54,0.0015625,104.20525684166793
75,0,0.1234375,104.32869434166793
77,70,0.0015625,104.33025684166793
62,0,0.1234375,104.45369434166793
58,55,0.0015625,104.45525684166793
77,0,0.22968750000000002,104.68494434166793
58,0,0.00625,104.69119434166792
78,72,0.0140625,104.70525684166792
51,57,0,104.70525684166792
51,0,0.24531250000000002,104.95056934166792
66,57,0.0015625,104.95213184166792
66,0,0.2484375,105.20056934166792
58,57,0.0015625,105.20213184166792
58,0,0.23593750000000002,105.43806934166793
78,0,0.0125,105.45056934166793
77,72,0.0015625,105.45213184166793
53,57,0,105.45213184166793
53,0,0.24531250000000002,105.69744434166793
65,57,0.0015625,105.69900684166794
65,0,0.2484375,105.94744434166793
57,57,0.0015625,105.94900684166794
57,0,0.23593750000000002,106.18494434166794
77,0,0.0125,106.19744434166795
75,72,0.0015625,106.19900684166795
54,57,0,106.19900684166795
54,0,0.24531250000000002,106.44431934166795
63,57,0.0015625,106.44588184166795
63,0,0.2484375,106.69431934166795
58,57,0.0015625,106.69588184166795
58,0,0.23593750000000002,106.93181934166796
75,0,0.0125,106.94431934166796
77,72,0.0015625,106.94588184166797
56,57,0,106.94588184166797
56,0,0.24531250000000002,107.19119434166797
66,57,0.0015625,107.19275684166797
66,0,0.2484375,107.44119434166797
60,57,0.0015625,107.44275684166797
60,0,0.23593750000000002,107.67869434166798
77,0,0.0125,107.69119434166798
73,72,0.0015625,107.69275684166799
49,57,0,107.69275684166799
49,0,0.24531250000000002,107.93806934166798
56,57,0.0015625,107.93963184166799
56,0,0.2484375,108.18806934166798
61,57,0.0015625,108.18963184166799
61,0,0.2484375,108.43806934166798
65,57,0.0015625,108.43963184166799
65,0,0.2484375,108.68806934166798
61,57,0.0015625,108.68963184166799
73,0,0.0671875,108.75681934166799
67,72,0.0578125,108.81463184166799
67,0,0.0921875,108.90681934166798
68,72,0.0015625,108.90838184166799
61,0,0.029687500000000002,108.93806934166798
56,57,0.0015625,108.93963184166799
68,0,0.060937500000000006,109.00056934166798
70,72,0.0015625,109.00213184166799
70,0,0.0921875,109.09431934166798
68,72,0.0015625,109.09588184166799
56,0,0.07968750000000001,109.175569341668
68,0,0.0125,109.188069341668
77,108,0.0015625,109.189631841668
49,57,0,109.189631841668
49,0,0.24531250000000002,109.434944341668
56,56,0.0015625,109.436506841668
56,0,0.2484375,109.684944341668
60,55,0.0015625,109.686506841668
60,0,0.2484375,109.934944341668
66,53,0.0015625,109.936506841668
66,0,0.2484375,110.184944341668
60,52,0.0015625,110.186506841668
77,0,0.1234375,110.309944341668
75,66,0.0015625,110.311506841668
60,0,0.1234375,110.434944341668
56,51,0.0015625,110.436506841668
75,0,0.22968750000000002,110.666194341668
56,0,0.00625,110.672444341668
75,96,0.0140625,110.68650684166799
49,49,0,110.68650684166799
49,0,0.24531250000000002,110.93181934166799
56,49,0.0015625,110.933381841668
56,0,0.2484375,111.18181934166799
60,49,0.0015625,111.183381841668
60,0,0.2484375,111.43181934166799
66,49,0.0015625,111.433381841668
66,0,0.2484375,111.68181934166799
60,49,0.0015625,111.683381841668
60,0,0.2484375,111.93181934166799
56,49,0.0015625,111.933381841668
56,0,0.23593750000000002,112.169319341668
75,0,0.0125,112.181819341668
73,64,0.0015625,112.18338184166801
49,49,0,112.18338184166801
49,0,0.24531250000000002,112.428694341668
56,49,0.0015625,112.43025684166801
56,0,0.2484375,112.678694341668
61,49,0.0015625,112.68025684166801
73,0,0.2109375,112.89119434166801
61,0,0.037500000000000006,112.928694341668
65,49,0.0015625,112.93025684166801
65,0,0.2484375,113.178694341668
61,51,0.0015625,113.18025684166801
80,67,0.125,113.30525684166801
61,0,0.1234375,113.428694341668
56,53,0.0015625,113.43025684166801
56,0,0.23593750000000002,113.66619434166802
80,0,0.0125,113.67869434166802
68,105,0.0015625,113.68025684166803
44,55,0,113.68025684166803
44,0,0.24531250000000002,113.92556934166802
51,57,0.0015625,113.92713184166803
51,0,0.2484375,114.17556934166802
56,59,0.0015625,114.17713184166803
56,0,0.2484375,114.42556934166802
60,61,0.0015625,114.42713184166803
60,0,0.2484375,114.67556934166802
56,63,0.0015625,114.67713184166803
56,0,0.2484375,114.92556934166802
51,65,0.0015625,114.92713184166803
51,0,0.23593750000000002,115.16306934166803
68,0,0.0125,115.17556934166804
70,83,0.0015625,115.17713184166804
44,67,0,115.17713184166804
70,0,0.08750000000000001,115.26463184166805
72,83,0.0015625,115.26619434166805
72,0,0.09062500000000001,115.35681934166806
70,84,0.003125,115.35994434166805
44,0,0.0625,115.42244434166805
51,69,0.0015625,115.42400684166806
70,0,0.026562500000000003,115.45056934166806
72,85,0.004687500000000001,115.45525684166806
72,0,0.09062500000000001,115.54588184166806
70,86,0.0015625,115.54744434166807
70,0,0.09062500000000001,115.63806934166807
72,87,0.003125,115.64119434166807
51,0,0.03125,115.67244434166807
55,71,0.0015625,115.67400684166807
72,0,0.0578125,115.73181934166807
69,88,0.004687500000000001,115.73650684166807
69,0,0.1859375,115.92244434166807
55,0,0,115.92244434166807
70,89,0.0015625,115.92400684166807
61,73,0,115.92400684166807
61,0,0.2484375,116.17244434166807
55,75,0.0015625,116.17400684166807
55,0,0.2484375,116.42244434166807
51,77,0.0015625,116.42400684166807
70,0,0.060937500000000006,116.48494434166807
72,94,0.0015625,116.48650684166807
51,0,0.17343750000000002,116.65994434166808
72,0,0.0125,116.67244434166808
68,96,0.0015625,116.67400684166809
44,80,0,116.67400684166809
44,0,0.24531250000000002,116.91931934166809
51,80,0.0015625,116.92088184166809
68,0,0.1046875,117.02556934166809
51,0,0.14375000000000002,117.16931934166809
56,80,0.0015625,117.17088184166809
56,0,0.2484375,117.41931934166809
84,127,0.0015625,117.42088184166809
60,80,0,117.42088184166809
60,0,0.2484375,117.66931934166809
56,80,0.0015625,117.67088184166809
56,0,0.2484375,117.91931934166809
51,80,0.0015625,117.92088184166809
51,0,0.23593750000000002,118.1568193416681
49,80,0.0140625,118.17088184166809
84,0,0.209375,118.38025684166809
82,94,0.0015625,118.38181934166809
49,0,0.034375,118.41619434166809
56,78,0.0015625,118.4177568416681
82,0,0.1765625,118.5943193416681
80,92,0.0015625,118.5958818416681
56,0,0.0703125,118.6661943416681
61,75,0.0015625,118.66775684166811
80,0,0.140625,118.80838184166811
76,90,0.0015625,118.80994434166811
61,0,0.10625000000000001,118.91619434166812
64,72,0.0015625,118.91775684166812
76,0,0.1046875,119.02244434166812
73,87,0.003125,119.02556934166812
64,0,0.140625,119.16619434166812
61,70,0.0015625,119.16775684166812
73,0,0.0703125,119.23806934166812
70,85,0.0015625,119.23963184166813
61,0,0.1765625,119.41619434166813
56,67,0.0015625,119.41775684166814
70,0,0.125,119.54275684166814
80,82,0.0171875,119.55994434166814
56,0,0.09375,119.65369434166814
80,0,0.0125,119.66619434166815
63,120,0.0015625,119.66775684166815
39,64,0,119.66775684166815
39,0,0.24531250000000002,119.91306934166815
51,64,0.0015625,119.91463184166815
51,0,0.2484375,120.16306934166815
56,64,0.0015625,120.16463184166815
56,0,0.2484375,120.41306934166815
60,64,0.0015625,120.41463184166815
60,0,0.2484375,120.66306934166815
56,64,0.0015625,120.66463184166815
56,0,0.2484375,120.91306934166815
51,64,0.0015625,120.91463184166815
51,0,0.23593750000000002,121.15056934166816
63,0,0.0125,121.16306934166816
72,80,0.0015625,121.16463184166817
39,64,0,121.16463184166817
72,0,0.059375000000000004,121.22400684166817
70,80,0.0015625,121.22556934166818
39,0,0.184375,121.40994434166818
51,63,0.0015625,121.41150684166819
51,0,0.2484375,121.65994434166818
55,62,0.0015625,121.66150684166819
70,0,0.059375000000000004,121.72088184166819
69,77,0.003125,121.72400684166819
69,0,0.1859375,121.90994434166818
55,0,0,121.90994434166818
70,76,0.0015625,121.91150684166819
61,61,0,121.91150684166819
61,0,0.2484375,122.15994434166818
55,59,0.0015625,122.16150684166819
55,0,0.2484375,122.40994434166818
51,58,0.0015625,122.41150684166819
70,0,0.060937500000000006,122.47244434166818
75,73,0.0015625,122.47400684166819
51,0,0.17343750000000002,122.64744434166819
75,0,0.0125,122.6599443416682
68,72,0.0015625,122.6615068416682
44,57,0,122.6615068416682
44,0,0.24531250000000002,122.9068193416682
51,56,0.0015625,122.9083818416682
51,0,0.2484375,123.1568193416682
56,54,0.0015625,123.1583818416682
68,0,0.2109375,123.3693193416682
56,0,0.037500000000000006,123.4068193416682
60,53,0.0015625,123.4083818416682
60,0,0.2484375,123.6568193416682
56,52,0.0015625,123.6583818416682
56,0,0.2484375,123.9068193416682
51,51,0.0015625,123.9083818416682
51,0,0.23593750000000002,124.14431934166821
70,64,0.0140625,124.1583818416682
42,64,0,124.1583818416682
42,0,0.24531250000000002,124.4036943416682
54,64,0.0015625,124.4052568416682
54,0,0.2484375,124.6536943416682
58,64,0.0015625,124.6552568416682
70,0,0.2484375,124.9036943416682
58,0,0,124.9036943416682
73,64,0.0015625,124.9052568416682
61,64,0,124.9052568416682
73,0,0.2484375,125.1536943416682
61,0,0,125.1536943416682
72,64,0.0015625,125.1552568416682
58,59,0,125.1552568416682
72,0,0.2484375,125.4036943416682
58,0,0,125.4036943416682
70,64,0.0015625,125.4052568416682
54,54,0,125.4052568416682
70,0,0.23593750000000002,125.64119434166821
54,0,0,125.64119434166821
68,64,0.0140625,125.6552568416682
44,49,0,125.6552568416682
44,0,0.24531250000000002,125.9005693416682
56,49,0.0015625,125.90213184166821
56,0,0.2484375,126.1505693416682
60,49,0.0015625,126.15213184166821
60,0,0.2484375,126.4005693416682
63,49,0.0015625,126.40213184166821
63,0,0.2484375,126.6505693416682
60,49,0.0015625,126.65213184166821
60,0,0.2484375,126.9005693416682
56,49,0.0015625,126.90213184166821
56,0,0.23593750000000002,127.13806934166821
68,0,0.0125,127.15056934166822
70,64,0.0015625,127.15213184166822
51,49,0,127.15213184166822
70,0,0.0921875,127.24431934166822
72,64,0.0015625,127.24588184166822
72,0,0.0921875,127.33806934166822
70,64,0.0015625,127.33963184166822
51,0,0.060937500000000006,127.40056934166822
56,49,0.0015625,127.40213184166822
70,0,0.029687500000000002,127.43181934166822
72,64,0.0015625,127.43338184166822
72,0,0.0921875,127.52556934166822
68,65,0.0015625,127.52713184166822
56,0,0.1234375,127.65056934166822
60,50,0.0015625,127.65213184166822
68,0,0.2484375,127.90056934166822
60,0,0,127.90056934166822
73,66,0.0015625,127.90213184166822
66,51,0,127.90213184166822
66,0,0.2484375,128.15056934166822
60,51,0.0015625,128.15213184166822
73,0,0.1234375,128.27556934166822
75,67,0.0015625,128.27713184166822
60,0,0.1234375,128.40056934166822
56,52,0.0015625,128.40213184166822
56,0,0.23593750000000002,128.63806934166823
75,0,0.0125,128.65056934166822
77,68,0.0015625,128.65213184166822
49,53,0,128.65213184166822
49,0,0.24531250000000002,128.89744434166823
56,53,0.0015625,128.89900684166824
56,0,0.2484375,129.14744434166823
61,54,0.0015625,129.14900684166824
61,0,0.2484375,129.39744434166823
65,55,0.0015625,129.39900684166824
65,0,0.2484375,129.64744434166823
61,55,0.0015625,129.64900684166824
61,0,0.2484375,129.89744434166823
56,56,0.0015625,129.89900684166824
77,0,0.17343750000000002,130.07244434166824
56,0,0.0625,130.13494434166824
80,108,0.0140625,130.14900684166824
49,57,0,130.14900684166824
49,0,0.24531250000000002,130.39431934166825
56,56,0.0015625,130.39588184166826
56,0,0.2484375,130.64431934166825
65,55,0.0015625,130.64588184166826
65,0,0.2484375,130.89431934166825
68,102,0.0015625,130.89588184166826
65,52,0.25,131.14588184166826
65,0,0.2484375,131.39431934166825
56,51,0.0015625,131.39588184166826
56,0,0.23593750000000002,131.63181934166826
80,0,0.0125,131.64431934166825
68,0,0,131.64431934166825
78,64,0.0015625,131.64588184166826
66,73,0,131.64588184166826
63,49,0.246875,131.89275684166824
63,0,0.2484375,132.14119434166824
56,49,0.0015625,132.14275684166824
56,0,0.23593750000000002,132.37869434166825
78,0,0.0125,132.39119434166824
66,0,0,132.39119434166824
77,64,0.0015625,132.39275684166824
65,73,0,132.39275684166824
61,49,0.246875,132.63963184166823
61,0,0.2484375,132.88806934166823
56,49,0.0015625,132.88963184166823
56,0,0.23593750000000002,133.12556934166824
77,0,0.0125,133.13806934166823
65,0,0,133.13806934166823
75,64,0.0015625,133.13963184166823
63,73,0,133.13963184166823
75,0,0.24531250000000002,133.38494434166824
77,64,0.0015625,133.38650684166825
60,49,0,133.38650684166825
77,0,0.1234375,133.50994434166824
75,64,0.0015625,133.51150684166825
75,0,0.1234375,133.63494434166824
60,0,0,133.63494434166824
73,64,0.0015625,133.63650684166825
56,49,0,133.63650684166825
73,0,0.1234375,133.75994434166824
75,64,0.0015625,133.76150684166825
56,0,0.11093750000000001,133.87244434166826
75,0,0.0125,133.88494434166824
63,0,0,133.88494434166824
77,96,0.0015625,133.88650684166825
61,73,0,133.88650684166825
56,49,0.246875,134.13338184166824
77,0,0.1234375,134.25681934166823
73,64,0.0015625,134.25838184166824
56,0,0.1234375,134.38181934166823
53,49,0.0015625,134.38338184166824
53,0,0.23593750000000002,134.61931934166824
73,0,0.0125,134.63181934166823
61,0,0,134.63181934166823
68,64,0.0015625,134.63338184166824
44,49,0,134.63338184166824
44,0,0.24531250000000002,134.87869434166825
51,49,0.0015625,134.88025684166826
51,0,0.2484375,135.12869434166825
56,49,0.0015625,135.13025684166826
56,0,0.2484375,135.37869434166825
60,49,0.0015625,135.38025684166826
60,0,0.2484375,135.62869434166825
56,49,0.0015625,135.63025684166826
56,0,0.2484375,135.87869434166825
51,49,0.0015625,135.88025684166826
68,0,0.17343750000000002,136.05369434166826
51,0,0.0625,136.11619434166826
70,96,0.0140625,136.13025684166826
42,49,0,136.13025684166826
42,0,0.24531250000000002,136.37556934166827
54,49,0.0015625,136.37713184166827
54,0,0.2484375,136.62556934166827
58,49,0.0015625,136.62713184166827
58,0,0.2484375,136.87556934166827
61,49,0.0015625,136.87713184166827
61,0,0.2484375,137.12556934166827
58,49,0.0015625,137.12713184166827
58,0,0.2484375,137.37556934166827
54,49,0.0015625,137.37713184166827
54,0,0.23593750000000002,137.61306934166828
46,49,0.0140625,137.62713184166827
46,0,0.24531250000000002,137.87244434166828
53,49,0.0015625,137.8740068416683
53,0,0.2484375,138.12244434166828
58,49,0.0015625,138.1240068416683
58,0,0.2484375,138.37244434166828
62,49,0.0015625,138.3740068416683
62,0,0.2484375,138.62244434166828
58,49,0.0015625,138.6240068416683
58,0,0.2484375,138.87244434166828
53,49,0.0015625,138.8740068416683
53,0,0.23593750000000002,139.1099443416683
70,0,0.0125,139.12244434166828
71,64,0.0015625,139.1240068416683
46,49,0,139.1240068416683
71,0,0.0890625,139.2130693416683
73,64,0.0015625,139.2146318416683
73,0,0.0921875,139.3068193416683
71,65,0.0015625,139.3083818416683
46,0,0.060937500000000006,139.3693193416683
58,50,0.0015625,139.3708818416683
71,0,0.029687500000000002,139.4005693416683
73,65,0.0015625,139.4021318416683
73,0,0.0921875,139.4943193416683
70,66,0.0015625,139.4958818416683
58,0,0.1234375,139.6193193416683
62,51,0.0015625,139.6208818416683
70,0,0.2484375,139.8693193416683
62,0,0,139.8693193416683
75,68,0.0015625,139.8708818416683
68,53,0,139.8708818416683
68,0,0.2484375,140.1193193416683
62,54,0.0015625,140.1208818416683
75,0,0.1234375,140.2443193416683
77,70,0.0015625,140.2458818416683
62,0,0.1234375,140.3693193416683
58,55,0.0015625,140.3708818416683
77,0,0.22968750000000002,140.60056934166832
58,0,0.00625,140.6068193416683
78,72,0.0140625,140.6208818416683
51,57,0,140.6208818416683
51,0,0.24531250000000002,140.86619434166832
66,57,0.0015625,140.86775684166832
66,0,0.2484375,141.11619434166832
58,57,0.0015625,141.11775684166832
58,0,0.23593750000000002,141.35369434166833
78,0,0.0125,141.36619434166832
77,72,0.0015625,141.36775684166832
53,57,0,141.36775684166832
53,0,0.24531250000000002,141.61306934166834
65,57,0.0015625,141.61463184166834
65,0,0.2484375,141.86306934166834
57,57,0.0015625,141.86463184166834
57,0,0.23593750000000002,142.10056934166835
77,0,0.0125,142.11306934166834
75,72,0.0015625,142.11463184166834
54,57,0,142.11463184166834
54,0,0.24531250000000002,142.35994434166835
63,57,0.0015625,142.36150684166836
63,0,0.2484375,142.60994434166835
58,57,0.0015625,142.61150684166836
58,0,0.23593750000000002,142.84744434166836
75,0,0.0125,142.85994434166835
77,72,0.0015625,142.86150684166836
56,57,0,142.86150684166836
56,0,0.24531250000000002,143.10681934166837
66,57,0.0015625,143.10838184166838
66,0,0.2484375,143.35681934166837
60,57,0.0015625,143.35838184166838
60,0,0.23593750000000002,143.59431934166838
77,0,0.0125,143.60681934166837
73,72,0.0015625,143.60838184166838
49,57,0,143.60838184166838
49,0,0.24531250000000002,143.8536943416684
56,57,0.0015625,143.8552568416684
56,0,0.2484375,144.1036943416684
61,57,0.0015625,144.1052568416684
61,0,0.2484375,144.3536943416684
65,57,0.0015625,144.3552568416684
65,0,0.2484375,144.6036943416684
61,57,0.0015625,144.6052568416684
73,0,0.0671875,144.67244434166838
67,72,0.0578125,144.7302568416684
67,0,0.0921875,144.8224443416684
68,72,0.0015625,144.8240068416684
61,0,0.029687500000000002,144.8536943416684
56,57,0.0015625,144.8552568416684
68,0,0.060937500000000006,144.9161943416684
70,72,0.0015625,144.9177568416684
70,0,0.0921875,145.0099443416684
68,72,0.0015625,145.0115068416684
56,0,0.07968750000000001,145.0911943416684
68,0,0.0125,145.1036943416684
77,108,0.0015625,145.1052568416684
49,57,0,145.1052568416684
49,0,0.24531250000000002,145.3505693416684
56,56,0.0015625,145.3521318416684
56,0,0.2484375,145.6005693416684
60,55,0.0015625,145.6021318416684
60,0,0.2484375,145.8505693416684
66,53,0.0015625,145.8521318416684
66,0,0.2484375,146.1005693416684
60,52,0.0015625,146.1021318416684
77,0,0.1234375,146.2255693416684
75,66,0.0015625,146.2271318416684
60,0,0.1234375,146.3505693416684
56,51,0.0015625,146.3521318416684
75,0,0.22968750000000002,146.58181934166842
56,0,0.00625,146.58806934166842
75,96,0.0140625,146.6021318416684
49,49,0,146.6021318416684
49,0,0.24531250000000002,146.84744434166842
56,49,0.0015625,146.84900684166843
56,0,0.2484375,147.09744434166842
60,49,0.0015625,147.09900684166843
60,0,0.2484375,147.34744434166842
66,49,0.0015625,147.34900684166843
66,0,0.2484375,147.59744434166842
60,49,0.0015625,147.59900684166843
60,0,0.2484375,147.84744434166842
56,49,0.0015625,147.84900684166843
56,0,0.23593750000000002,148.08494434166843
75,0,0.0125,148.09744434166842
73,64,0.0015625,148.09900684166843
49,49,0,148.09900684166843
49,0,0.24531250000000002,148.34431934166844
56,49,0.0015625,148.34588184166844
56,0,0.2484375,148.59431934166844
61,49,0.0015625,148.59588184166844
73,0,0.2109375,148.80681934166844
61,0,0.037500000000000006,148.84431934166844
65,49,0.0015625,148.84588184166844
65,0,0.2484375,149.09431934166844
61,51,0.0015625,149.09588184166844
80,67,0.125,149.22088184166844
61,0,0.1234375,149.34431934166844
56,53,0.0015625,149.34588184166844
56,0,0.23593750000000002,149.58181934166845
80,0,0.0125,149.59431934166844
68,105,0.0015625,149.59588184166844
44,55,0,149.59588184166844
44,0,0.24531250000000002,149.84119434166846
51,57,0.0015625,149.84275684166846
51,0,0.2484375,150.09119434166846
56,59,0.0015625,150.09275684166846
56,0,0.2484375,150.34119434166846
60,61,0.0015625,150.34275684166846
60,0,0.2484375,150.59119434166846
56,63,0.0015625,150.59275684166846
56,0,0.2484375,150.84119434166846
51,65,0.0015625,150.84275684166846
51,0,0.23593750000000002,151.07869434166847
68,0,0.0125,151.09119434166846
70,83,0.0015625,151.09275684166846
44,67,0,151.09275684166846
70,0,0.08750000000000001,151.18025684166847
72,83,0.0015625,151.18181934166847
72,0,0.09062500000000001,151.27244434166846
70,84,0.003125,151.27556934166847
44,0,0.0625,151.33806934166847
51,69,0.0015625,151.33963184166848
70,0,0.026562500000000003,151.3661943416685
72,85,0.004687500000000001,151.37088184166848
72,0,0.09062500000000001,151.46150684166847
70,86,0.0015625,151.46306934166847
70,0,0.09062500000000001,151.55369434166846
72,87,0.003125,151.55681934166847
51,0,0.03125,151.58806934166847
55,71,0.0015625,151.58963184166848
72,0,0.0578125,151.6474443416685
69,88,0.004687500000000001,151.65213184166848
69,0,0.1859375,151.83806934166847
55,0,0,151.83806934166847
70,89,0.0015625,151.83963184166848
61,73,0,151.83963184166848
61,0,0.2484375,152.08806934166847
55,75,0.0015625,152.08963184166848
55,0,0.2484375,152.33806934166847
51,77,0.0015625,152.33963184166848
70,0,0.060937500000000006,152.40056934166847
72,94,0.0015625,152.40213184166848
51,0,0.17343750000000002,152.57556934166848
72,0,0.0125,152.58806934166847
68,96,0.0015625,152.58963184166848
44,80,0,152.58963184166848
44,0,0.24531250000000002,152.8349443416685
51,80,0.0015625,152.8365068416685
68,0,0.1046875,152.9411943416685
51,0,0.14375000000000002,153.08494434166852
56,80,0.0015625,153.08650684166852
56,0,0.2484375,153.33494434166852
84,127,0.0015625,153.33650684166852
60,80,0,153.33650684166852
60,0,0.2484375,153.58494434166852
56,80,0.0015625,153.58650684166852
56,0,0.2484375,153.83494434166852
51,80,0.0015625,153.83650684166852
51,0,0.23593750000000002,154.07244434166853
49,80,0.0140625,154.08650684166852
84,0,0.209375,154.29588184166852
82,94,0.0015625,154.29744434166852
49,0,0.034375,154.33181934166853
56,78,0.0015625,154.33338184166854
82,0,0.1765625,154.50994434166853
80,92,0.0015625,154.51150684166853
56,0,0.0703125,154.58181934166853
61,75,0.0015625,154.58338184166854
80,0,0.140625,154.72400684166854
76,90,0.0015625,154.72556934166855
61,0,0.10625000000000001,154.83181934166853
64,72,0.0015625,154.83338184166854
76,0,0.1046875,154.93806934166855
73,87,0.003125,154.94119434166856
64,0,0.140625,155.08181934166856
61,70,0.0015625,155.08338184166857
73,0,0.0703125,155.15369434166857
70,85,0.0015625,155.15525684166857
61,0,0.1765625,155.33181934166856
56,67,0.0015625,155.33338184166857
70,0,0.125,155.45838184166857
80,82,0.0171875,155.47556934166857
56,0,0.09375,155.56931934166857
80,0,0.0125,155.58181934166856
63,120,0.0015625,155.58338184166857
39,64,0,155.58338184166857
39,0,0.24531250000000002,155.82869434166858
51,64,0.0015625,155.8302568416686
51,0,0.2484375,156.07869434166858
56,64,0.0015625,156.0802568416686
56,0,0.2484375,156.32869434166858
60,64,0.0015625,156.3302568416686
60,0,0.2484375,156.57869434166858
56,64,0.0015625,156.5802568416686
56,0,0.2484375,156.82869434166858
51,64,0.0015625,156.8302568416686
51,0,0.23593750000000002,157.0661943416686
63,0,0.0125,157.07869434166858
72,80,0.0015625,157.0802568416686
39,64,0,157.0802568416686
72,0,0.059375000000000004,157.13963184166857
70,80,0.0015625,157.14119434166858
39,0,0.184375,157.32556934166857
51,63,0.0015625,157.32713184166857
51,0,0.2484375,157.57556934166857
55,62,0.0015625,157.57713184166857
70,0,0.059375000000000004,157.63650684166856
69,77,0.003125,157.63963184166857
69,0,0.1859375,157.82556934166857
55,0,0,157.82556934166857
70,76,0.0015625,157.82713184166857
61,61,0,157.82713184166857
61,0,0.2484375,158.07556934166857
55,59,0.0015625,158.07713184166857
55,0,0.2484375,158.32556934166857
51,58,0.0015625,158.32713184166857
70,0,0.060937500000000006,158.38806934166857
75,73,0.0015625,158.38963184166857
51,0,0.17343750000000002,158.56306934166858
75,0,0.0125,158.57556934166857
68,72,0.0015625,158.57713184166857
44,57,0,158.57713184166857
44,0,0.24531250000000002,158.8224443416686
51,56,0.0015625,158.8240068416686
51,0,0.2484375,159.0724443416686
56,54,0.0015625,159.0740068416686
68,0,0.2109375,159.2849443416686
56,0,0.037500000000000006,159.3224443416686
60,53,0.0015625,159.3240068416686
60,0,0.2484375,159.5724443416686
56,52,0.0015625,159.5740068416686
56,0,0.2484375,159.8224443416686
51,51,0.0015625,159.8240068416686
51,0,0.23593750000000002,160.0599443416686
70,64,0.0140625,160.0740068416686
42,64,0,160.0740068416686
42,0,0.24531250000000002,160.3193193416686
54,64,0.0015625,160.3208818416686
54,0,0.2484375,160.5693193416686
58,64,0.0015625,160.5708818416686
70,0,0.2484375,160.8193193416686
58,0,0,160.8193193416686
73,64,0.0015625,160.8208818416686
61,64,0,160.8208818416686
73,0,0.2484375,161.0693193416686
61,0,0,161.0693193416686
72,64,0.0015625,161.0708818416686
58,59,0,161.0708818416686
72,0,0.2484375,161.3193193416686
58,0,0,161.3193193416686
70,64,0.0015625,161.3208818416686
54,54,0,161.3208818416686
70,0,0.23593750000000002,161.55681934166861
54,0,0,161.55681934166861
68,64,0.0140625,161.5708818416686
44,49,0,161.5708818416686
44,0,0.24531250000000002,161.81619434166862
51,49,0.0015625,161.81775684166863
51,0,0.2484375,162.06619434166862
56,49,0.0015625,162.06775684166863
56,0,0.2484375,162.31619434166862
60,49,0.0015625,162.31775684166863
60,0,0.2484375,162.56619434166862
56,49,0.0015625,162.56775684166863
56,0,0.2484375,162.81619434166862
51,49,0.0015625,162.81775684166863
51,0,0.23593750000000002,163.05369434166863
68,0,0.0125,163.06619434166862
70,64,0.0015625,163.06775684166863
44,49,0,163.06775684166863
70,0,0.0921875,163.15994434166862
72,64,0.0015625,163.16150684166863
72,0,0.0921875,163.25369434166862
70,64,0.0015625,163.25525684166863
44,0,0.060937500000000006,163.31619434166862
56,49,0.0015625,163.31775684166863
70,0,0.029687500000000002,163.34744434166862
72,64,0.0015625,163.34900684166863
72,0,0.0921875,163.44119434166862
68,65,0.0015625,163.44275684166863
56,0,0.1234375,163.56619434166862
60,50,0.0015625,163.56775684166863
68,0,0.2484375,163.81619434166862
60,0,0,163.81619434166862
73,66,0.0015625,163.81775684166863
66,51,0,163.81775684166863
66,0,0.2484375,164.06619434166862
60,51,0.0015625,164.06775684166863
73,0,0.1234375,164.19119434166862
75,67,0.0015625,164.19275684166863
60,0,0.1234375,164.31619434166862
56,52,0.0015625,164.31775684166863
56,0,0.23593750000000002,164.55369434166863
75,0,0.0125,164.56619434166862
77,68,0.0015625,164.56775684166863
49,53,0,164.56775684166863
49,0,0.24531250000000002,164.81306934166864
56,53,0.0015625,164.81463184166864
56,0,0.2484375,165.06306934166864
61,54,0.0015625,165.06463184166864
61,0,0.2484375,165.31306934166864
65,55,0.0015625,165.31463184166864
65,0,0.2484375,165.56306934166864
61,55,0.0015625,165.56463184166864
61,0,0.2484375,165.81306934166864
56,56,0.0015625,165.81463184166864
77,0,0.17343750000000002,165.98806934166865
56,0,0.0625,166.05056934166865
80,108,0.0140625,166.06463184166864
49,57,0,166.06463184166864
49,0,0.24531250000000002,166.30994434166865
56,56,0.0015625,166.31150684166866
56,0,0.2484375,166.55994434166865
65,55,0.0015625,166.56150684166866
65,0,0.2484375,166.80994434166865
68,102,0.0015625,166.81150684166866
65,52,0.25,167.06150684166866
65,0,0.2484375,167.30994434166865
56,51,0.0015625,167.31150684166866
56,0,0.23593750000000002,167.54744434166867
80,0,0.0125,167.55994434166865
68,0,0,167.55994434166865
78,64,0.0015625,167.56150684166866
66,73,0,167.56150684166866
63,49,0.246875,167.80838184166865
63,0,0.2484375,168.05681934166864
56,49,0.0015625,168.05838184166865
56,0,0.23593750000000002,168.29431934166865
78,0,0.0125,168.30681934166864
66,0,0,168.30681934166864
77,64,0.0015625,168.30838184166865
65,73,0,168.30838184166865
61,49,0.246875,168.55525684166864
61,0,0.2484375,168.80369434166863
56,49,0.0015625,168.80525684166864
56,0,0.23593750000000002,169.04119434166864
77,0,0.0125,169.05369434166863
65,0,0,169.05369434166863
75,64,0.0015625,169.05525684166864
63,73,0,169.05525684166864
75,0,0.24531250000000002,169.30056934166865
77,64,0.0015625,169.30213184166865
60,49,0,169.30213184166865
77,0,0.1234375,169.42556934166865
75,64,0.0015625,169.42713184166865
75,0,0.1234375,169.55056934166865
60,0,0,169.55056934166865
73,64,0.0015625,169.55213184166865
56,49,0,169.55213184166865
73,0,0.1234375,169.67556934166865
75,64,0.0015625,169.67713184166865
56,0,0.11093750000000001,169.78806934166866
75,0,0.0125,169.80056934166865
63,0,0,169.80056934166865
77,64,0.0015625,169.80213184166865
61,73,0,169.80213184166865
56,49,0.246875,170.04900684166864
77,0,0.1234375,170.17244434166864
73,64,0.0015625,170.17400684166864
56,0,0.1234375,170.29744434166864
53,49,0.0015625,170.29900684166864
53,0,0.23593750000000002,170.53494434166865
73,0,0.0125,170.54744434166864
61,0,0,170.54744434166864
68,64,0.0015625,170.54900684166864
44,49,0,170.54900684166864
44,0,0.24531250000000002,170.79431934166865
51,49,0.0015625,170.79588184166866
51,0,0.2484375,171.04431934166865
56,49,0.0015625,171.04588184166866
56,0,0.2484375,171.29431934166865
60,49,0.0015625,171.29588184166866
60,0,0.2484375,171.54431934166865
56,49,0.0015625,171.54588184166866
56,0,0.2484375,171.79431934166865
51,49,0.0015625,171.79588184166866
68,0,0.17343750000000002,171.96931934166867
51,0,0.0625,172.03181934166867
70,96,0.0140625,172.04588184166866
42,49,0,172.04588184166866
42,0,0.24531250000000002,172.29119434166867
54,49,0.0015625,172.29275684166868
54,0,0.2484375,172.54119434166867
58,49,0.0015625,172.54275684166868
58,0,0.2484375,172.79119434166867
61,49,0.0015625,172.79275684166868
61,0,0.2484375,173.04119434166867
58,49,0.0015625,173.04275684166868
58,0,0.2484375,173.29119434166867
54,49,0.0015625,173.29275684166868
54,0,0.23593750000000002,173.52869434166868
46,49,0.0140625,173.54275684166868
46,0,0.24531250000000002,173.7880693416687
53,49,0.0015625,173.7896318416687
53,0,0.2484375,174.0380693416687
58,49,0.0015625,174.0396318416687
58,0,0.2484375,174.2880693416687
62,49,0.0015625,174.2896318416687
62,0,0.2484375,174.5380693416687
58,49,0.0015625,174.5396318416687
58,0,0.2484375,174.7880693416687
53,49,0.0015625,174.7896318416687
53,0,0.23593750000000002,175.0255693416687
70,0,0.0125,175.0380693416687
71,64,0.0015625,175.0396318416687
46,49,0,175.0396318416687
71,0,0.0890625,175.1286943416687
73,64,0.0015625,175.1302568416687
73,0,0.0921875,175.2224443416687
71,65,0.0015625,175.2240068416687
46,0,0.060937500000000006,175.2849443416687
58,50,0.0015625,175.2865068416687
71,0,0.029687500000000002,175.3161943416687
73,65,0.0015625,175.3177568416687
73,0,0.0921875,175.4099443416687
70,66,0.0015625,175.4115068416687
58,0,0.1234375,175.5349443416687
62,51,0.0015625,175.5365068416687
70,0,0.2484375,175.7849443416687
62,0,0,175.7849443416687
75,68,0.0015625,175.7865068416687
68,53,0,175.7865068416687
68,0,0.2484375,176.0349443416687
62,54,0.0015625,176.0365068416687
75,0,0.1234375,176.1599443416687
77,70,0.0015625,176.1615068416687
62,0,0.1234375,176.2849443416687
58,55,0.0015625,176.2865068416687
77,0,0.22968750000000002,176.51619434166872
58,0,0.00625,176.52244434166872
78,72,0.0140625,176.5365068416687
51,57,0,176.5365068416687
51,0,0.24531250000000002,176.78181934166872
66,57,0.0015625,176.78338184166873
66,0,0.2484375,177.03181934166872
58,57,0.0015625,177.03338184166873
58,0,0.23593750000000002,177.26931934166873
78,0,0.0125,177.28181934166872
77,72,0.0015625,177.28338184166873
53,57,0,177.28338184166873
53,0,0.24531250000000002,177.52869434166874
65,57,0.0015625,177.53025684166874
65,0,0.2484375,177.77869434166874
57,57,0.0015625,177.78025684166874
57,0,0.23593750000000002,178.01619434166875
77,0,0.0125,178.02869434166874
75,72,0.0015625,178.03025684166874
54,57,0,178.03025684166874
54,0,0.24531250000000002,178.27556934166876
63,57,0.0015625,178.27713184166876
63,0,0.2484375,178.52556934166876
58,57,0.0015625,178.52713184166876
58,0,0.23593750000000002,178.76306934166877
75,0,0.0125,178.77556934166876
77,72,0.0015625,178.77713184166876
56,57,0,178.77713184166876
56,0,0.24531250000000002,179.02244434166877
66,57,0.0015625,179.02400684166878
66,0,0.2484375,179.27244434166877
60,57,0.0015625,179.27400684166878
60,0,0.23593750000000002,179.50994434166878
77,0,0.0125,179.52244434166877
73,72,0.0015625,179.52400684166878
49,57,0,179.52400684166878
49,0,0.24531250000000002,179.7693193416688
56,57,0.0015625,179.7708818416688
56,0,0.2484375,180.0193193416688
61,56,0.0015625,180.0208818416688
61,0,0.2484375,180.2693193416688
65,55,0.0015625,180.2708818416688
65,0,0.2484375,180.5193193416688
61,55,0.0015625,180.5208818416688
73,0,0.0671875,180.58806934166878
67,64,0.0578125,180.6458818416688
67,0,0.0921875,180.7380693416688
68,63,0.0015625,180.7396318416688
61,0,0.029687500000000002,180.7693193416688
56,54,0.0015625,180.7708818416688
68,0,0.060937500000000006,180.8318193416688
70,62,0.0015625,180.8333818416688
70,0,0.0921875,180.9255693416688
68,62,0.0015625,180.9271318416688
56,0,0.07968750000000001,181.0068193416688
68,0,0.0125,181.0193193416688
77,91,0.0015625,181.0208818416688
49,53,0,181.0208818416688
49,0,0.24531250000000002,181.2661943416688
56,53,0.0015625,181.2677568416688
56,0,0.2484375,181.5161943416688
60,52,0.0015625,181.5177568416688
60,0,0.2484375,181.7661943416688
66,51,0.0015625,181.7677568416688
66,0,0.2484375,182.0161943416688
60,51,0.0015625,182.0177568416688
77,0,0.1234375,182.1411943416688
75,52,0.0015625,182.1427568416688
60,0,0.1234375,182.2661943416688
56,50,0.0015625,182.2677568416688
56,0,0.23593750000000002,182.50369434166882
75,0,0.0125,182.5161943416688
75,73,0,182.5161943416688
49,49,0,182.5161943416688
49,0,0.2582237875,182.7744181291688
56,49,0.0016447375,182.77606286666878
56,0,0.2615132625,183.03757612916877
60,49,0.0016447375,183.03922086666876
60,0,0.2615132625,183.30073412916875
66,49,0,183.30073412916875
66,0,0.27604155625,183.57677568541874
60,49,0.0017361104166666666,183.5785117958354
60,0,0.27604155625,183.8545533520854
56,49,0.0017361104166666666,183.85628946250205
56,0,0.26215267291666666,184.11844213541872
49,49,0,184.11844213541872
49,0,0.29227943125,184.4107215666687
56,49,0.0018382354166666666,184.41255980208538
56,0,0.29227943125,184.70483923333538
60,49,0,184.70483923333538
60,0,0.310546875,185.01538610833538
66,49,0.001953125,185.01733923333538
66,0,0.310546875,185.32788610833538
60,49,0,185.32788610833538
60,0,0.35491085624999996,185.68279696458538
56,49,0.00223214375,185.68502910833539
56,0,0.33705370625,186.0220828145854
75,0,0.01785715,186.0399399645854
49,49,0,186.0399399645854
68,64,0.08779765416666667,186.12773761875206
49,0,0.029017868750000002,186.15675548750207
56,49,0.0007440479166666667,186.15749953541874
68,0,0.05877978541666667,186.2162793208354
69,64,0.0007440479166666667,186.21702336875208
56,0,0.05877978541666667,186.27580315416876
61,49,0.0007440479166666667,186.27654720208542
69,0,0.029017868750000002,186.30556507083543
68,64,0.0007440479166666667,186.3063091187521
68,0,0.08854170208333334,186.39485082083544
61,0,0,186.39485082083544
67,64,0.0007440479166666667,186.3955948687521
64,49,0,186.3955948687521
67,0,0.08854170208333334,186.48413657083546
68,64,0.0007440479166666667,186.48488061875213
64,0,0.029017868750000002,186.51389848750213
61,49,0.0007440479166666667,186.5146425354188
68,0,0.05877978541666667,186.57342232083548
73,64,0.0007440479166666667,186.57416636875215
61,0,0.05877978541666667,186.63294615416882
56,49,0.0007440479166666667,186.6336902020855
73,0,0.029017868750000002,186.6627080708355
76,64,0.0007440479166666667,186.66345211875216
56,0,0.08258931875,186.74604143750216
76,0,0.0059523833333333335,186.75199382083548
75,64,0.0007440479166666667,186.75273786875215
52,49,0,186.75273786875215
75,0,0.08854170208333334,186.8412795708355
73,64,0.0007440479166666667,186.84202361875217
52,0,0.029017868750000002,186.87104148750217
56,49,0.0007440479166666667,186.87178553541884
73,0,0.05877978541666667,186.9305653208355
75,64,0.0007440479166666667,186.93130936875218
56,0,0.05877978541666667,186.99008915416886
61,49,0.0007440479166666667,186.99083320208553
75,0,0.029017868750000002,187.01985107083553
73,64,0.0007440479166666667,187.0205951187522
73,0,0.08854170208333334,187.10913682083554
61,0,0,187.10913682083554
72,64,0.0007440479166666667,187.1098808687522
64,49,0,187.1098808687522
72,0,0.08854170208333334,187.19842257083556
73,64,0.0007440479166666667,187.19916661875223
64,0,0.029017868750000002,187.22818448750223
61,49,0.0007440479166666667,187.2289285354189
73,0,0.05877978541666667,187.28770832083558
76,64,0.0007440479166666667,187.28845236875225
61,0,0.05877978541666667,187.34723215416892
56,49,0.0007440479166666667,187.3479762020856
76,0,0.029017868750000002,187.3769940708356
80,64,0.0007440479166666667,187.37773811875226
56,0,0.08258931875,187.46032743750226
80,0,0.0014880958333333334,187.4618155333356
49,49,0.005208335416666667,187.46702386875225
68,64,0.08779765416666667,187.55482152291893
49,0,0.029017868750000002,187.58383939166893
56,49,0.0007440479166666667,187.5845834395856
68,0,0.05877978541666667,187.64336322500228
69,64,0.0007440479166666667,187.64410727291894
56,0,0.05877978541666667,187.70288705833562
61,49,0.0007440479166666667,187.7036311062523
69,0,0.029017868750000002,187.7326489750023
68,64,0.0007440479166666667,187.73339302291896
68,0,0.08854170208333334,187.8219347250023
61,0,0,187.8219347250023
67,64,0.0007440479166666667,187.82267877291898
64,49,0,187.82267877291898
67,0,0.08854170208333334,187.91122047500232
68,64,0.0007440479166666667,187.911964522919
64,0,0.029017868750000002,187.940982391669
61,49,0.0007440479166666667,187.94172643958566
68,0,0.05877978541666667,188.00050622500234
73,64,0.0007440479166666667,188.001250272919
61,0,0.05877978541666667,188.06003005833568
56,49,0.0007440479166666667,188.06077410625235
73,0,0.029017868750000002,188.08979197500236
76,64,0.0007440479166666667,188.09053602291903
56,0,0.08258931875,188.17312534166902
76,0,0.0059523833333333335,188.17907772500234
75,64,0.0007440479166666667,188.179821772919
52,49,0,188.179821772919
75,0,0.08854170208333334,188.26836347500236
73,64,0.0007440479166666667,188.26910752291903
52,0,0.029017868750000002,188.29812539166903
56,49,0.0007440479166666667,188.2988694395857
73,0,0.05877978541666667,188.35764922500238
75,64,0.0007440479166666667,188.35839327291905
56,0,0.05877978541666667,188.41717305833572
61,49,0.0007440479166666667,188.4179171062524
75,0,0.029017868750000002,188.4469349750024
73,64,0.0007440479166666667,188.44767902291906
73,0,0.08854170208333334,188.5362207250024
61,0,0,188.5362207250024
72,64,0.0007440479166666667,188.53696477291908
64,49,0,188.53696477291908
72,0,0.08854170208333334,188.62550647500242
73,64,0.0007440479166666667,188.6262505229191
64,0,0.029017868750000002,188.6552683916691
61,49,0.0007440479166666667,188.65601243958577
73,0,0.05877978541666667,188.71479222500244
76,64,0.0007440479166666667,188.7155362729191
61,0,0.05877978541666667,188.77431605833578
56,49,0.0007440479166666667,188.77506010625245
76,0,0.029017868750000002,188.80407797500246
80,64,0.0007440479166666667,188.80482202291913
56,0,0.08258931875,188.88741134166912
80,0,0.0014880958333333334,188.88889943750246
51,49,0.005208335416666667,188.8941077729191
69,68,0.08779765416666667,188.9819054270858
51,0,0.029017868750000002,189.0109232958358
57,54,0.0007440479166666667,189.01166734375246
69,0,0.05877978541666667,189.07044712916914
73,72,0.0007440479166666667,189.0711911770858
57,0,0.05877978541666667,189.12997096250248
61,59,0.0007440479166666667,189.13071501041915
73,0,0.029017868750000002,189.15973287916916
75,76,0.0007440479166666667,189.16047692708582
75,0,0.08854170208333334,189.24901862916917
61,0,0,189.24901862916917
78,80,0.0007440479166666667,189.24976267708584
66,64,0,189.24976267708584
78,0,0.08854170208333334,189.3383043791692
81,84,0.0007440479166666667,189.33904842708586
66,0,0.029017868750000002,189.36806629583586
61,69,0.0007440479166666667,189.36881034375253
81,0,0.05877978541666667,189.4275901291692
85,88,0.0007440479166666667,189.42833417708587
61,0,0.05877978541666667,189.48711396250255
57,74,0.0007440479166666667,189.48785801041922
85,0,0.029017868750000002,189.51687587916922
87,92,0.0007440479166666667,189.5176199270859
57,0,0.08258931875,189.60020924583588
87,0,0.0059523833333333335,189.6061616291692
95,96,0.0007440479166666667,189.60690567708588
54,80,0,189.60690567708588
95,0,0.08854170208333334,189.69544737916922
93,92,0.0007440479166666667,189.6961914270859
54,0,0.029017868750000002,189.7252092958359
61,75,0.0007440479166666667,189.72595334375256
93,0,0.05877978541666667,189.78473312916924
92,88,0.0007440479166666667,189.7854771770859
61,0,0.05877978541666667,189.84425696250258
63,70,0.0007440479166666667,189.84500101041925
92,0,0.029017868750000002,189.87401887916926
90,84,0.0007440479166666667,189.87476292708592
90,0,0.08854170208333334,189.96330462916927
63,0,0,189.96330462916927
88,80,0.0007440479166666667,189.96404867708594
69,65,0,189.96404867708594
88,0,0.08854170208333334,190.0525903791693
87,76,0.0007440479166666667,190.05333442708596
69,0,0.029017868750000002,190.08235229583596
63,60,0.0007440479166666667,190.08309634375263
87,0,0.05877978541666667,190.1418761291693
90,72,0.0007440479166666667,190.14262017708597
63,0,0.05877978541666667,190.20139996250265
61,55,0.0007440479166666667,190.20214401041932
90,0,0.029017868750000002,190.23116187916932
85,68,0.0007440479166666667,190.231905927086
61,0,0.08258931875,190.31449524583599
85,0,0.0014880958333333334,190.31598334166932
84,64,0.005208335416666667,190.32119167708598
44,49,0,190.32119167708598
84,0,0.08705360625,190.408245283336
87,64,0.0007440479166666667,190.40898933125266
44,0,0.029017868750000002,190.43800720000266
51,49,0.0007440479166666667,190.43875124791933
87,0,0.05877978541666667,190.497531033336
81,64,0.0007440479166666667,190.49827508125267
51,0,0.05877978541666667,190.55705486666935
54,49,0.0007440479166666667,190.55779891458602
81,0,0.029017868750000002,190.58681678333602
80,64,0.0007440479166666667,190.5875608312527
80,0,0.08854170208333334,190.67610253333604
54,0,0,190.67610253333604
78,64,0.0007440479166666667,190.6768465812527
60,49,0,190.6768465812527
78,0,0.08854170208333334,190.76538828333605
81,64,0.0007440479166666667,190.76613233125272
60,0,0.029017868750000002,190.79515020000272
54,49,0.0007440479166666667,190.7958942479194
81,0,0.05877978541666667,190.85467403333607
76,64,0.0007440479166666667,190.85541808125274
54,0,0.05877978541666667,190.9141978666694
51,49,0.0007440479166666667,190.91494191458608
76,0,0.029017868750000002,190.94395978333608
75,64,0.0007440479166666667,190.94470383125275
51,0,0.08258931875,191.02729315000275
75,0,0.0059523833333333335,191.03324553333607
78,64,0.0007440479166666667,191.03398958125274
44,49,0,191.03398958125274
78,0,0.08854170208333334,191.1225312833361
73,64,0.0007440479166666667,191.12327533125276
44,0,0.029017868750000002,191.15229320000276
51,49,0.0007440479166666667,191.15303724791943
73,0,0.05877978541666667,191.2118170333361
72,64,0.0007440479166666667,191.21256108125277
51,0,0.05877978541666667,191.27134086666945
54,49,0.0007440479166666667,191.27208491458612
72,0,0.029017868750000002,191.30110278333612
75,64,0.0007440479166666667,191.3018468312528
75,0,0.08854170208333334,191.39038853333614
54,0,0,191.39038853333614
69,64,0.0007440479166666667,191.3911325812528
60,49,0,191.3911325812528
69,0,0.08854170208333334,191.47967428333615
68,64,0.0007440479166666667,191.48041833125282
60,0,0.029017868750000002,191.50943620000282
54,49,0.0007440479166666667,191.5101802479195
68,0,0.05877978541666667,191.56896003333617
71,64,0.0007440479166666667,191.56970408125284
54,0,0.05877978541666667,191.6284838666695
51,49,0.0007440479166666667,191.62922791458618
71,0,0.029017868750000002,191.65824578333618
69,64,0.0007440479166666667,191.65898983125285
51,0,0.08258931875,191.74157915000285
49,49,0.00669643125,191.74827558125284
69,0,0.07812503125,191.82640061250285
68,64,0.009672622916666667,191.83607323541952
49,0,0.029017868750000002,191.86509110416952
56,49,0.0007440479166666667,191.8658351520862
68,0,0.05877978541666667,191.92461493750287
69,64,0.0007440479166666667,191.92535898541954
56,0,0.05877978541666667,191.9841387708362
61,49,0.0007440479166666667,191.98488281875288
69,0,0.029017868750000002,192.01390068750288
68,64,0.0007440479166666667,192.01464473541955
68,0,0.08854170208333334,192.1031864375029
61,0,0,192.1031864375029
67,64,0.0007440479166666667,192.10393048541957
64,49,0,192.10393048541957
67,0,0.08854170208333334,192.19247218750291
68,64,0.0007440479166666667,192.19321623541958
64,0,0.029017868750000002,192.2222341041696
61,49,0.0007440479166666667,192.22297815208626
68,0,0.05877978541666667,192.28175793750293
73,64,0.0007440479166666667,192.2825019854196
61,0,0.05877978541666667,192.34128177083628
56,49,0.0007440479166666667,192.34202581875294
73,0,0.029017868750000002,192.37104368750295
76,64,0.0007440479166666667,192.37178773541962
56,0,0.08258931875,192.4543770541696
76,0,0.0059523833333333335,192.46032943750293
75,64,0.0007440479166666667,192.4610734854196
52,49,0,192.4610734854196
75,0,0.08854170208333334,192.54961518750295
73,64,0.0007440479166666667,192.55035923541962
52,0,0.029017868750000002,192.57937710416962
56,49,0.0007440479166666667,192.5801211520863
73,0,0.05877978541666667,192.63890093750297
75,64,0.0007440479166666667,192.63964498541964
56,0,0.05877978541666667,192.6984247708363
61,49,0.0007440479166666667,192.69916881875298
75,0,0.029017868750000002,192.72818668750298
73,64,0.0007440479166666667,192.72893073541965
73,0,0.08854170208333334,192.817472437503
61,0,0,192.817472437503
72,64,0.0007440479166666667,192.81821648541967
64,49,0,192.81821648541967
72,0,0.08854170208333334,192.90675818750302
73,64,0.0007440479166666667,192.90750223541968
64,0,0.029017868750000002,192.9365201041697
61,49,0.0007440479166666667,192.93726415208636
73,0,0.05877978541666667,192.99604393750303
76,64,0.0007440479166666667,192.9967879854197
61,0,0.05877978541666667,193.05556777083638
56,49,0.0007440479166666667,193.05631181875304
76,0,0.029017868750000002,193.08532968750305
80,64,0.0007440479166666667,193.08607373541972
56,0,0.08258931875,193.1686630541697
80,0,0.0014880958333333334,193.17015115000305
49,49,0.005208335416666667,193.1753594854197
68,64,0.08779765416666667,193.26315713958638
49,0,0.029017868750000002,193.2921750083364
56,49,0.0007440479166666667,193.29291905625306
68,0,0.05877978541666667,193.35169884166973
70,64,0.0007440479166666667,193.3524428895864
56,0,0.05877978541666667,193.41122267500307
58,49,0.0007440479166666667,193.41196672291974
70,0,0.029017868750000002,193.44098459166975
68,64,0.0007440479166666667,193.44172863958642
68,0,0.08854170208333334,193.53027034166976
58,0,0,193.53027034166976
67,64,0.0007440479166666667,193.53101438958643
64,49,0,193.53101438958643
67,0,0.08854170208333334,193.61955609166978
68,64,0.0007440479166666667,193.62030013958645
64,0,0.029017868750000002,193.64931800833645
58,49,0.0007440479166666667,193.65006205625312
68,0,0.05877978541666667,193.7088418416698
73,64,0.0007440479166666667,193.70958588958646
58,0,0.05877978541666667,193.76836567500314
56,49,0.0007440479166666667,193.7691097229198
73,0,0.029017868750000002,193.7981275916698
76,64,0.0007440479166666667,193.79887163958648
56,0,0.08258931875,193.88146095833648
76,0,0.0059523833333333335,193.8874133416698
75,64,0.0007440479166666667,193.88815738958647
52,49,0,193.88815738958647
75,0,0.08705360625,193.97521099583648
73,64,0.0007440479166666667,193.97595504375315
52,0,0.029017868750000002,194.00497291250315
56,49,0.0007440479166666667,194.00571696041982
73,0,0.05877978541666667,194.0644967458365
75,64,0.0007440479166666667,194.06524079375316
56,0,0.05877978541666667,194.12402057916984
58,49,0.0007440479166666667,194.1247646270865
75,0,0.029017868750000002,194.1537824958365
73,64,0.0007440479166666667,194.15452654375318
73,0,0.08854170208333334,194.24306824583653
58,0,0,194.24306824583653
72,64,0.0007440479166666667,194.2438122937532
61,49,0,194.2438122937532
72,0,0.08854170208333334,194.33235399583654
73,64,0.0007440479166666667,194.3330980437532
61,0,0.029017868750000002,194.3621159125032
58,49,0.0007440479166666667,194.36285996041988
73,0,0.05877978541666667,194.42163974583656
76,64,0.0007440479166666667,194.42238379375323
58,0,0.05877978541666667,194.4811635791699
56,49,0.0007440479166666667,194.48190762708657
76,0,0.029017868750000002,194.51092549583657
80,64,0.0007440479166666667,194.51166954375324
56,0,0.08258931875,194.59425886250324
80,0,0.0014880958333333334,194.59574695833658
75,64,0.005208335416666667,194.60095529375323
51,49,0,194.60095529375323
75,0,0.08705360625,194.68800890000324
76,65,0.0007440479166666667,194.6887529479199
51,0,0.029017868750000002,194.7177708166699
56,50,0.0007440479166666667,194.71851486458658
76,0,0.05877978541666667,194.77729465000326
75,66,0.0007440479166666667,194.77803869791992
56,0,0.05877978541666667,194.8368184833366
59,51,0.0007440479166666667,194.83756253125327
75,0,0.029017868750000002,194.86658040000327
74,67,0.0007440479166666667,194.86732444791994
74,0,0.08854170208333334,194.9558661500033
59,0,0,194.9558661500033
75,68,0.0007440479166666667,194.95661019791996
63,52,0,194.95661019791996
75,0,0.08854170208333334,195.0451519000033
83,69,0.0007440479166666667,195.04589594791997
63,0,0.029017868750000002,195.07491381666998
59,54,0.0007440479166666667,195.07565786458665
83,0,0.05877978541666667,195.13443765000332
82,70,0.0007440479166666667,195.13518169792
59,0,0.05877978541666667,195.19396148333666
56,55,0.0007440479166666667,195.19470553125333
82,0,0.029017868750000002,195.22372340000334
80,71,0.0007440479166666667,195.22446744792
56,0,0.08258931875,195.30705676667
80,0,0.0059523833333333335,195.31300915000332
79,72,0.0007440479166666667,195.31375319792
51,56,0,195.31375319792
79,0,0.08258931875,195.39634251667
88,73,0.005208335416666667,195.40155085208664
51,0,0.029017868750000002,195.43056872083665
58,57,0.0007440479166666667,195.43131276875332
88,0,0.05877978541666667,195.49009255417
87,74,0.0007440479166666667,195.49083660208666
58,0,0.05877978541666667,195.54961638750333
61,59,0.0007440479166666667,195.55036043542
87,0,0.029017868750000002,195.57937830417
85,75,0.0007440479166666667,195.58012235208668
85,0,0.08854170208333334,195.66866405417002
61,0,0,195.66866405417002
83,76,0.0007440479166666667,195.6694081020867
67,60,0,195.6694081020867
83,0,0.08854170208333334,195.75794980417004
82,77,0.0007440479166666667,195.7586938520867
67,0,0.029017868750000002,195.7877117208367
61,61,0.0007440479166666667,195.78845576875338
82,0,0.05877978541666667,195.84723555417006
80,78,0.0007440479166666667,195.84797960208672
61,0,0.05877978541666667,195.9067593875034
58,62,0.0007440479166666667,195.90750343542007
80,0,0.029017868750000002,195.93652130417007
79,79,0.0007440479166666667,195.93726535208674
58,0,0.08258931875,196.01985467083674
79,0,0.0014880958333333334,196.02134276667007
82,96,0.005208335416666667,196.02655110208673
44,64,0,196.02655110208673
82,0,0.05729168958333333,196.08384279167007
80,80,0.030505964583333333,196.1143487562534
44,0,0.029017868750000002,196.1433666250034
51,64,0.0007440479166666667,196.14411067292008
80,0,0.05877978541666667,196.20289045833675
83,80,0.0007440479166666667,196.20363450625342
51,0,0.05877978541666667,196.2624142916701
56,64,0.0007440479166666667,196.26315833958677
83,0,0.029017868750000002,196.29217620833677
74,80,0.0007440479166666667,196.29292025625344
74,0,0.08407741458333333,196.37699767083677
56,0,0.0044642875000000005,196.38146195833679
76,96,0.0007440479166666667,196.38220600625345
59,64,0,196.38220600625345
76,0,0.05877978541666667,196.44098579167013
75,79,0.030505964583333333,196.47149175625347
59,0,0.029017868750000002,196.50050962500347
56,64,0.0007440479166666667,196.50125367292014
75,0,0.05877978541666667,196.56003345833682
80,78,0.0007440479166666667,196.5607775062535
56,0,0.05877978541666667,196.61955729167016
51,64,0.0007440479166666667,196.62030133958683
80,0,0.029017868750000002,196.64931920833683
70,76,0.0007440479166666667,196.6500632562535
51,0,0.08258931875,196.7326525750035
70,0,0.0014880958333333334,196.73414067083684
73,90,0.005208335416666667,196.7393490062535
44,64,0,196.7393490062535
73,0,0.05729168958333333,196.79664069583683
71,73,0.030505964583333333,196.82714666042017
44,0,0.029017868750000002,196.85616452917017
51,64,0.0007440479166666667,196.85690857708684
71,0,0.05877978541666667,196.91568836250352
75,72,0.0007440479166666667,196.91643241042019
51,0,0.05877978541666667,196.97521219583686
56,64,0.0007440479166666667,196.97595624375353
75,0,0.029017868750000002,197.00497411250353
67,70,0.0007440479166666667,197.0057181604202
67,0,0.08407741458333333,197.08979557500354
56,0,0.0044642875000000005,197.09425986250355
70,82,0.0007440479166666667,197.09500391042022
59,64,0,197.09500391042022
70,0,0.05877978541666667,197.1537836958369
68,67,0.030505964583333333,197.18428966042023
59,0,0.029017868750000002,197.21330752917024
56,64,0.0007440479166666667,197.2140515770869
68,0,0.05877978541666667,197.27283136250358
67,66,0.0007440479166666667,197.27357541042025
56,0,0.05877978541666667,197.33235519583693
51,64,0.0007440479166666667,197.3330992437536
67,0,0.029017868750000002,197.3621171125036
68,64,0.0007440479166666667,197.36286116042027
51,0,0.08258931875,197.44545047917026
68,0,0.0014880958333333334,197.4469385750036
68,127,0.005208335416666667,197.45214691042025
45,96,0,197.45214691042025
80,96,0.08779765416666667,197.53994456458693
45,0,0.029017868750000002,197.56896243333694
49,96,0.0007440479166666667,197.5697064812536
80,0,0.05877978541666667,197.62848626667028
72,96,0.0007440479166666667,197.62923031458695
49,0,0.05877978541666667,197.68801010000362
54,96,0.0007440479166666667,197.6887541479203
72,0,0.029017868750000002,197.7177720166703
73,96,0.0007440479166666667,197.71851606458696
73,0,0.08407741458333333,197.8025934791703
68,0,0.0044642875000000005,197.8070577666703
54,0,0,197.8070577666703
66,127,0.0007440479166666667,197.80780181458698
57,96,0,197.80780181458698
78,96,0.08928575,197.89708756458697
57,0,0.029017868750000002,197.92610543333697
54,96,0.0007440479166666667,197.92684948125364
78,0,0.05877978541666667,197.98562926667032
72,96,0.0007440479166666667,197.98637331458698
54,0,0.05877978541666667,198.04515310000366
49,96,0.0007440479166666667,198.04589714792033
72,0,0.029017868750000002,198.07491501667033
73,96,0.0007440479166666667,198.075659064587
49,0,0.08258931875,198.158248383337
73,0,0.0014880958333333334,198.15973647917033
66,0,0.0044642875000000005,198.16420076667035
65,127,0.0007440479166666667,198.16494481458702
45,96,0,198.16494481458702
77,96,0.08779765416666667,198.2527424687537
45,0,0.029017868750000002,198.2817603375037
49,96,0.0007440479166666667,198.28250438542037
77,0,0.05877978541666667,198.34128417083704
72,96,0.0007440479166666667,198.3420282187537
49,0,0.05877978541666667,198.4008080041704
54,96,0.0007440479166666667,198.40155205208706
72,0,0.029017868750000002,198.43056992083706
73,96,0.0007440479166666667,198.43131396875373
73,0,0.08407741458333333,198.51539138333706
65,0,0.0044642875000000005,198.51985567083707
54,0,0,198.51985567083707
66,127,0.0007440479166666667,198.52059971875374
57,96,0,198.52059971875374
78,96,0.08928575,198.60988546875373
57,0,0.029017868750000002,198.63890333750373
54,96,0.0007440479166666667,198.6396473854204
78,0,0.05877978541666667,198.69842717083708
72,96,0.0007440479166666667,198.69917121875375
54,0,0.05877978541666667,198.75795100417042
49,96,0.0007440479166666667,198.7586950520871
72,0,0.029017868750000002,198.7877129208371
73,96,0.0007440479166666667,198.78845696875376
49,0,0.08258931875,198.87104628750376
73,0,0.0014880958333333334,198.8725343833371
66,0,0.0044642875000000005,198.8769986708371
61,127,0.0007440479166666667,198.87774271875378
47,96,0,198.87774271875378
61,0,0.08705360625,198.9647963250038
73,96,0.0007440479166666667,198.96554037292046
47,0,0.029017868750000002,198.99455824167046
54,96,0.0007440479166666667,198.99530228958713
73,0,0.05877978541666667,199.0540820750038
66,96,0.0007440479166666667,199.05482612292047
54,0,0.05877978541666667,199.11360590833715
57,96,0.0007440479166666667,199.11434995625382
66,0,0.029017868750000002,199.14336782500382
69,96,0.0007440479166666667,199.1441118729205
69,0,0.08407741458333333,199.22818928750382
57,0,0.0044642875000000005,199.23265357500384
63,127,0.0007440479166666667,199.2333976229205
59,96,0,199.2333976229205
63,0,0.08854170208333334,199.32193932500385
75,96,0.0007440479166666667,199.32268337292052
59,0,0.029017868750000002,199.35170124167053
57,96,0.0007440479166666667,199.3524452895872
75,0,0.05877978541666667,199.41122507500387
66,96,0.0007440479166666667,199.41196912292054
57,0,0.05877978541666667,199.4707489083372
54,96,0.0007440479166666667,199.47149295625388
66,0,0.029017868750000002,199.5005108250039
69,96,0.0007440479166666667,199.50125487292055
54,0,0.08258931875,199.58384419167055
69,0,0.0014880958333333334,199.5853322875039
64,127,0.005208335416666667,199.59054062292054
40,96,0,199.59054062292054
64,0,0.08705360625,199.67759422917055
76,96,0.0007440479166666667,199.67833827708722
40,0,0.029017868750000002,199.70735614583722
47,96,0.0007440479166666667,199.7081001937539
76,0,0.05877978541666667,199.76687997917057
68,96,0.0007440479166666667,199.76762402708724
47,0,0.05877978541666667,199.8264038125039
52,96,0.0007440479166666667,199.82714786042058
68,0,0.029017868750000002,199.85616572917058
71,96,0.0007440479166666667,199.85690977708725
71,0,0.08407741458333333,199.9409871916706
52,0,0.0044642875000000005,199.9454514791706
68,127,0.0007440479166666667,199.94619552708727
56,96,0,199.94619552708727
68,0,0.08854170208333334,200.03473722917062
80,96,0.0007440479166666667,200.03548127708729
56,0,0.029017868750000002,200.0644991458373
52,96,0.0007440479166666667,200.06524319375396
80,0,0.05877978541666667,200.12402297917063
71,96,0.0007440479166666667,200.1247670270873
52,0,0.05877978541666667,200.18354681250398
47,96,0.0007440479166666667,200.18429086042065
71,0,0.029017868750000002,200.21330872917065
76,96,0.0007440479166666667,200.21405277708732
47,0,0.08258931875,200.2966420958373
76,0,0.0014880958333333334,200.29813019167065
68,127,0.005208335416666667,200.3033385270873
45,96,0,200.3033385270873
68,0,0.08705360625,200.39039213333731
80,96,0.0007440479166666667,200.39113618125398
45,0,0.029017868750000002,200.420154050004
49,96,0.0007440479166666667,200.42089809792066
80,0,0.05877978541666667,200.47967788333733
72,96,0.0007440479166666667,200.480421931254
49,0,0.05877978541666667,200.53920171667068
54,96,0.0007440479166666667,200.53994576458734
72,0,0.029017868750000002,200.56896363333735
73,96,0.0007440479166666667,200.56970768125402
73,0,0.08407741458333333,200.65378509583735
54,0,0.0044642875000000005,200.65824938333736
66,127,0.0007440479166666667,200.65899343125403
57,96,0,200.65899343125403
66,0,0.08854170208333334,200.74753513333738
78,96,0.0007440479166666667,200.74827918125405
57,0,0.029017868750000002,200.77729705000405
54,96,0.0007440479166666667,200.77804109792072
78,0,0.05877978541666667,200.8368208833374
72,96,0.0007440479166666667,200.83756493125406
54,0,0.05877978541666667,200.89634471667074
49,96,0.0007440479166666667,200.8970887645874
72,0,0.029017868750000002,200.9261066333374
73,96,0.0007440479166666667,200.92685068125408
49,0,0.08258931875,201.00944000000408
73,0,0.0014880958333333334,201.01092809583741
65,127,0.005208335416666667,201.01613643125407
45,96,0,201.01613643125407
65,0,0.08705360625,201.10319003750408
77,96,0.0007440479166666667,201.10393408542075
45,0,0.029017868750000002,201.13295195417075
49,96,0.0007440479166666667,201.13369600208742
77,0,0.05877978541666667,201.1924757875041
72,96,0.0007440479166666667,201.19321983542076
49,0,0.05877978541666667,201.25199962083744
54,96,0.0007440479166666667,201.2527436687541
72,0,0.029017868750000002,201.2817615375041
73,96,0.0007440479166666667,201.28250558542078
73,0,0.08407741458333333,201.3665830000041
54,0,0.0044642875000000005,201.37104728750413
66,127,0.0007440479166666667,201.3717913354208
57,96,0,201.3717913354208
66,0,0.08854170208333334,201.46033303750414
78,96,0.0007440479166666667,201.4610770854208
57,0,0.029017868750000002,201.49009495417081
54,96,0.0007440479166666667,201.49083900208748
78,0,0.05877978541666667,201.54961878750416
72,96,0.0007440479166666667,201.55036283542083
54,0,0.05877978541666667,201.6091426208375
49,96,0.0007440479166666667,201.60988666875417
72,0,0.029017868750000002,201.63890453750417
73,96,0.0007440479166666667,201.63964858542084
49,0,0.08258931875,201.72223790417084
73,0,0.0014880958333333334,201.72372600000418
65,127,0.005208335416666667,201.72893433542083
47,96,0,201.72893433542083
65,0,0.08705360625,201.81598794167084
77,96,0.0007440479166666667,201.8167319895875
47,0,0.029017868750000002,201.8457498583375
51,96,0.0007440479166666667,201.84649390625418
77,0,0.05877978541666667,201.90527369167086
71,96,0.0007440479166666667,201.90601773958753
51,0,0.05877978541666667,201.9647975250042
57,96,0.0007440479166666667,201.96554157292087
71,0,0.029017868750000002,201.99455944167087
75,96,0.0007440479166666667,201.99530348958754
75,0,0.08407741458333333,202.07938090417088
57,0,0.0044642875000000005,202.0838451916709
66,127,0.0007440479166666667,202.08458923958756
59,96,0,202.08458923958756
66,0,0.08854170208333334,202.1731309416709
78,96,0.0007440479166666667,202.17387498958757
59,0,0.029017868750000002,202.20289285833758
57,96,0.0007440479166666667,202.20363690625425
78,0,0.05877978541666667,202.26241669167092
71,96,0.0007440479166666667,202.2631607395876
57,0,0.05877978541666667,202.32194052500427
51,96,0.0007440479166666667,202.32268457292093
71,0,0.029017868750000002,202.35170244167094
75,96,0.0007440479166666667,202.3524464895876
51,0,0.08258931875,202.4350358083376
75,0,0.0014880958333333334,202.43652390417094
69,127,0.005208335416666667,202.4417322395876
40,96,0,202.4417322395876
69,0,0.08705360625,202.5287858458376
81,96,0.0007440479166666667,202.52952989375427
40,0,0.029017868750000002,202.55854776250428
47,96,0.0007440479166666667,202.55929181042094
81,0,0.05877978541666667,202.61807159583762
71,96,0.0007440479166666667,202.6188156437543
47,0,0.05877978541666667,202.67759542917096
52,96,0.0007440479166666667,202.67833947708763
71,0,0.029017868750000002,202.70735734583764
76,96,0.0007440479166666667,202.7081013937543
76,0,0.08407741458333333,202.79217880833764
52,0,0.0044642875000000005,202.79664309583765
68,127,0.0007440479166666667,202.79738714375432
56,96,0,202.79738714375432
68,0,0.08854170208333334,202.88592884583767
80,96,0.0007440479166666667,202.88667289375434
56,0,0.029017868750000002,202.91569076250434
52,96,0.0007440479166666667,202.916434810421
80,0,0.05877978541666667,202.97521459583768
71,96,0.0007440479166666667,202.97595864375435
52,0,0.05877978541666667,203.03473842917103
47,96,0.0007440479166666667,203.0354824770877
71,0,0.029017868750000002,203.0645003458377
76,96,0.0007440479166666667,203.06524439375437
47,0,0.08258931875,203.14783371250437
76,0,0.0014880958333333334,203.1493218083377
68,49,0.005208335416666667,203.15453014375436
45,49,0,203.15453014375436
68,0,0.08705360625,203.24158375000437
80,73,0.0007440479166666667,203.24232779792104
45,0,0.029017868750000002,203.27134566667104
49,49,0.0007440479166666667,203.2720897145877
72,49,0.05952383333333333,203.33161354792105
49,0,0.05877978541666667,203.39039333333773
54,49,0.0007440479166666667,203.3911373812544
72,0,0.029017868750000002,203.4201552500044
73,49,0.0007440479166666667,203.42089929792107
73,0,0.08407741458333333,203.5049767125044
80,0,0.0044642875000000005,203.50944100000441
54,0,0,203.50944100000441
66,49,0.0007440479166666667,203.51018504792108
57,49,0,203.51018504792108
66,0,0.08854170208333334,203.59872675000443
78,73,0.0007440479166666667,203.5994707979211
57,0,0.029017868750000002,203.6284886666711
54,49,0.0007440479166666667,203.62923271458777
72,49,0.05952383333333333,203.68875654792112
54,0,0.05877978541666667,203.7475363333378
49,49,0.0007440479166666667,203.74828038125446
72,0,0.029017868750000002,203.77729825000446
73,49,0.0007440479166666667,203.77804229792113
49,0,0.08258931875,203.86063161667113
73,0,0.0014880958333333334,203.86211971250447
78,0,0.0044642875000000005,203.86658400000448
65,49,0.0007440479166666667,203.86732804792115
45,49,0,203.86732804792115
65,0,0.08854170208333334,203.9558697500045
77,73,0.0007440479166666667,203.95661379792116
45,0,0.029017868750000002,203.98563166667117
49,49,0.0007440479166666667,203.98637571458784
72,49,0.05952383333333333,204.04589954792118
49,0,0.05877978541666667,204.10467933333786
54,49,0.0007440479166666667,204.10542338125452
72,0,0.029017868750000002,204.13444125000453
73,49,0.0007440479166666667,204.1351852979212
73,0,0.08407741458333333,204.21926271250453
77,0,0.0044642875000000005,204.22372700000454
54,0,0,204.22372700000454
66,49,0.0007440479166666667,204.2244710479212
57,49,0,204.2244710479212
66,0,0.08854170208333334,204.31301275000456
78,73,0.0007440479166666667,204.31375679792123
57,0,0.029017868750000002,204.34277466667123
54,49,0.0007440479166666667,204.3435187145879
72,49,0.05952383333333333,204.40304254792125
54,0,0.05877978541666667,204.46182233333792
49,49,0.0007440479166666667,204.4625663812546
72,0,0.029017868750000002,204.4915842500046
73,49,0.0007440479166666667,204.49232829792126
49,0,0.08258931875,204.57491761667126
73,0,0.0014880958333333334,204.5764057125046
78,0,0.0044642875000000005,204.5808700000046
61,49,0.0007440479166666667,204.58161404792128
47,49,0,204.58161404792128
61,0,0.08705360625,204.6686676541713
73,75,0.0007440479166666667,204.66941170208796
47,0,0.029017868750000002,204.69842957083796
54,51,0.0007440479166666667,204.69917361875463
73,0,0.05877978541666667,204.7579534041713
66,52,0.0007440479166666667,204.75869745208797
54,0,0.05877978541666667,204.81747723750465
57,54,0.0007440479166666667,204.81822128542132
66,0,0.029017868750000002,204.84723915417132
69,54,0.0007440479166666667,204.847983202088
69,0,0.08407741458333333,204.93206061667132
57,0,0.0044642875000000005,204.93652490417134
63,56,0.0007440479166666667,204.937268952088
59,56,0,204.937268952088
63,0,0.08854170208333334,205.02581065417135
75,87,0.0007440479166666667,205.02655470208802
59,0,0.029017868750000002,205.05557257083802
57,59,0.0007440479166666667,205.0563166187547
75,0,0.05877978541666667,205.11509640417137
66,60,0.0007440479166666667,205.11584045208804
57,0,0.05877978541666667,205.1746202375047
54,62,0.0007440479166666667,205.17536428542138
66,0,0.029017868750000002,205.20438215417138
69,62,0.0007440479166666667,205.20512620208805
54,0,0.08258931875,205.28771552083805
69,0,0.0014880958333333334,205.2892036166714
64,64,0.005208335416666667,205.29441195208804
40,64,0,205.29441195208804
64,0,0.08705360625,205.38146555833805
76,99,0.0007440479166666667,205.38220960625472
40,0,0.029017868750000002,205.41122747500472
47,67,0.0007440479166666667,205.4119715229214
76,0,0.05877978541666667,205.47075130833807
68,68,0.0007440479166666667,205.47149535625474
47,0,0.05877978541666667,205.5302751416714
52,69,0.0007440479166666667,205.53101918958808
68,0,0.029017868750000002,205.56003705833808
71,70,0.0007440479166666667,205.56078110625475
71,0,0.08407741458333333,205.64485852083808
52,0,0.0044642875000000005,205.6493228083381
68,72,0.0007440479166666667,205.65006685625477
56,72,0,205.65006685625477
68,0,0.08854170208333334,205.73860855833811
80,111,0.0007440479166666667,205.73935260625478
56,0,0.029017868750000002,205.7683704750048
52,75,0.0007440479166666667,205.76911452292146
80,0,0.05877978541666667,205.82789430833813
71,76,0.0007440479166666667,205.8286383562548
52,0,0.05877978541666667,205.88741814167147
47,77,0.0007440479166666667,205.88816218958814
71,0,0.029017868750000002,205.91718005833815
76,78,0.0007440479166666667,205.91792410625482
47,0,0.08258931875,206.0005134250048
76,0,0.0014880958333333334,206.00200152083815
68,80,0.005208335416666667,206.0072098562548
45,80,0,206.0072098562548
68,0,0.08705360625,206.0942634625048
80,123,0.0007440479166666667,206.09500751042148
45,0,0.029017868750000002,206.12402537917148
49,82,0.0007440479166666667,206.12476942708815
80,0,0.05877978541666667,206.18354921250483
72,84,0.0007440479166666667,206.1842932604215
49,0,0.05877978541666667,206.24307304583817
54,85,0.0007440479166666667,206.24381709375484
72,0,0.029017868750000002,206.27283496250485
73,86,0.0007440479166666667,206.2735790104215
73,0,0.08407741458333333,206.35765642500485
54,0,0.0044642875000000005,206.36212071250486
66,88,0.0007440479166666667,206.36286476042153
57,88,0,206.36286476042153
66,0,0.08854170208333334,206.45140646250488
78,127,0.0007440479166666667,206.45215051042155
57,0,0.029017868750000002,206.48116837917155
54,90,0.0007440479166666667,206.48191242708822
78,0,0.05877978541666667,206.5406922125049
72,92,0.0007440479166666667,206.54143626042156
54,0,0.05877978541666667,206.60021604583824
49,93,0.0007440479166666667,206.6009600937549
72,0,0.029017868750000002,206.6299779625049
73,94,0.0007440479166666667,206.63072201042158
49,0,0.08258931875,206.71331132917157
73,0,0.0014880958333333334,206.7147994250049
75,96,0.005208335416666667,206.72000776042157
45,96,0,206.72000776042157
75,0,0.08705360625,206.80706136667158
87,127,0.0007440479166666667,206.80780541458824
45,0,0.029017868750000002,206.83682328333825
51,96,0.0007440479166666667,206.83756733125492
87,0,0.05877978541666667,206.8963471166716
78,96,0.0007440479166666667,206.89709116458826
51,0,0.05877978541666667,206.95587095000494
54,96,0.0007440479166666667,206.9566149979216
78,0,0.029017868750000002,206.9856328666716
81,96,0.0007440479166666667,206.98637691458828
81,0,0.08407741458333333,207.0704543291716
54,0,0.0044642875000000005,207.07491861667162
73,96,0.0007440479166666667,207.0756626645883
57,96,0,207.0756626645883
73,0,0.08854170208333334,207.16420436667164
85,127,0.0007440479166666667,207.1649484145883
57,0,0.029017868750000002,207.1939662833383
54,96,0.0007440479166666667,207.19471033125498
85,0,0.05877978541666667,207.25349011667166
78,96,0.0007440479166666667,207.25423416458833
54,0,0.05877978541666667,207.313013950005
51,96,0.0007440479166666667,207.31375799792167
78,0,0.029017868750000002,207.34277586667167
81,96,0.0007440479166666667,207.34351991458834
51,0,0.08258931875,207.42610923333834
81,0,0.0014880958333333334,207.42759732917168
73,95,0.005208335416666667,207.43280566458833
44,95,0,207.43280566458833
73,0,0.08705360625,207.51985927083834
85,127,0.0007440479166666667,207.520603318755
44,0,0.029017868750000002,207.549621187505
51,93,0.0007440479166666667,207.55036523542168
85,0,0.05877978541666667,207.60914502083835
75,93,0.0007440479166666667,207.60988906875502
51,0,0.05877978541666667,207.6686688541717
54,92,0.0007440479166666667,207.66941290208837
75,0,0.029017868750000002,207.69843077083837
78,92,0.0007440479166666667,207.69917481875504
78,0,0.08407741458333333,207.78325223333837
54,0,0.0044642875000000005,207.7877165208384
72,91,0.0007440479166666667,207.78846056875506
60,90,0,207.78846056875506
72,0,0.08854170208333334,207.8770022708384
84,127,0.0007440479166666667,207.87774631875507
60,0,0.029017868750000002,207.90676418750508
54,88,0.0007440479166666667,207.90750823542174
84,0,0.05877978541666667,207.96628802083842
75,89,0.0007440479166666667,207.9670320687551
54,0,0.05877978541666667,208.02581185417176
51,87,0.0007440479166666667,208.02655590208843
75,0,0.029017868750000002,208.05557377083844
78,88,0.0007440479166666667,208.0563178187551
51,0,0.08258931875,208.1389071375051
78,0,0.0014880958333333334,208.14039523333844
72,86,0.005208335416666667,208.1456035687551
44,85,0,208.1456035687551
72,0,0.08854170208333334,208.23414527083844
84,127,0.0007440479166666667,208.2348893187551
44,0,0.029017868750000002,208.2639071875051
51,83,0.0007440479166666667,208.26465123542178
84,0,0.05877978541666667,208.32343102083846
75,84,0.0007440479166666667,208.32417506875512
51,0,0.05877978541666667,208.3829548541718
54,81,0.0007440479166666667,208.38369890208847
75,0,0.029017868750000002,208.41271677083847
78,83,0.0007440479166666667,208.41346081875514
78,0,0.08407741458333333,208.49753823333847
54,0,0.0044642875000000005,208.5020025208385
72,82,0.0007440479166666667,208.50274656875516
60,80,0,208.50274656875516
72,0,0.08854170208333334,208.5912882708385
84,121,0.0007440479166666667,208.59203231875517
60,0,0.029017868750000002,208.62105018750518
54,78,0.0007440479166666667,208.62179423542185
84,0,0.05877978541666667,208.68057402083852
75,80,0.0007440479166666667,208.6813180687552
54,0,0.05877978541666667,208.74009785417186
51,76,0.0007440479166666667,208.74084190208853
75,0,0.029017868750000002,208.76985977083854
78,79,0.0007440479166666667,208.7706038187552
51,0,0.08258931875,208.8531931375052
78,0,0.0014880958333333334,208.85468123333854
72,77,0.005208335416666667,208.8598895687552
45,112,0,208.8598895687552
72,0,0.08705360625,208.9469431750052
84,114,0.0007440479166666667,208.94768722292187
45,0,0.029017868750000002,208.97670509167187
51,73,0.0007440479166666667,208.97744913958854
84,0,0.05877978541666667,209.03622892500522
75,75,0.0007440479166666667,209.0369729729219
51,0,0.05877978541666667,209.09575275833856
54,71,0.0007440479166666667,209.09649680625523
75,0,0.029017868750000002,209.12551467500523
78,74,0.0007440479166666667,209.1262587229219
78,0,0.08407741458333333,209.21033613750524
54,0,0.0044642875000000005,209.21480042500525
71,73,0.0007440479166666667,209.21554447292192
59,69,0,209.21554447292192
71,0,0.08854170208333334,209.30408617500527
83,108,0.0007440479166666667,209.30483022292194
59,0,0.029017868750000002,209.33384809167194
54,68,0.0007440479166666667,209.3345921395886
83,0,0.05877978541666667,209.39337192500528
75,71,0.0007440479166666667,209.39411597292195
54,0,0.05877978541666667,209.45289575833863
51,66,0.0007440479166666667,209.4536398062553
75,0,0.029017868750000002,209.4826576750053
78,70,0.0007440479166666667,209.48340172292197
51,0,0.08258931875,209.56599104167196
78,0,0.0014880958333333334,209.5674791375053
71,68,0.005208335416666667,209.57268747292196
46,96,0,209.57268747292196
71,0,0.08705360625,209.65974107917197
83,100,0.0007440479166666667,209.66048512708863
46,0,0.029017868750000002,209.68950299583864
51,63,0.0007440479166666667,209.6902470437553
83,0,0.05877978541666667,209.74902682917198
75,66,0.0007440479166666667,209.74977087708865
51,0,0.05877978541666667,209.80855066250533
54,61,0.0007440479166666667,209.809294710422
75,0,0.029017868750000002,209.838312579172
78,65,0.0007440479166666667,209.83905662708867
78,0,0.08407741458333333,209.923134041672
54,0,0.0044642875000000005,209.927598329172
70,64,0.0007440479166666667,209.92834237708868
58,59,0,209.92834237708868
70,0,0.08854170208333334,210.01688407917203
82,94,0.0007440479166666667,210.0176281270887
58,0,0.029017868750000002,210.0466459958387
54,57,0.0007440479166666667,210.04739004375537
82,0,0.05877978541666667,210.10616982917205
75,62,0.0007440479166666667,210.10691387708872
54,0,0.05877978541666667,210.1656936625054
51,56,0.0007440479166666667,210.16643771042206
75,0,0.029017868750000002,210.19545557917206
78,61,0.0007440479166666667,210.19619962708873
51,0,0.08258931875,210.27878894583873
78,0,0.0014880958333333334,210.28027704167206
70,59,0.005208335416666667,210.28548537708872
48,81,0,210.28548537708872
70,0,0.08705360625,210.37253898333873
82,87,0.0007440479166666667,210.3732830312554
48,0,0.029017868750000002,210.4023009000054
51,52,0.0007440479166666667,210.40304494792207
82,0,0.05877978541666667,210.46182473333874
75,57,0.0007440479166666667,210.4625687812554
51,0,0.05877978541666667,210.5213485666721
54,51,0.0007440479166666667,210.52209261458876
75,0,0.029017868750000002,210.55111048333876
78,56,0.0007440479166666667,210.55185453125543
78,0,0.08407741458333333,210.63593194583876
54,0,0.0044642875000000005,210.64039623333878
69,55,0.0007440479166666667,210.64114028125545
57,49,0,210.64114028125545
69,0,0.08854170208333334,210.7296819833388
81,81,0.0007440479166666667,210.73042603125546
57,0,0.029017868750000002,210.75944390000546
54,47,0.0007440479166666667,210.76018794792213
81,0,0.05877978541666667,210.8189677333388
75,53,0.0007440479166666667,210.81971178125548
54,0,0.05877978541666667,210.87849156667215
51,45,0.0007440479166666667,210.87923561458882
75,0,0.029017868750000002,210.90825348333883
78,52,0.0007440479166666667,210.9089975312555
51,0,0.08258931875,210.9915868500055
78,0,0.0014880958333333334,210.99307494583883
69,50,0.005208335416666667,210.99828328125548
48,1,0,210.99828328125548
69,0,0.08854170208333334,211.08682498333883
81,73,0.0007440479166666667,211.0875690312555
48,0,0.029017868750000002,211.1165869000055
51,42,0.0007440479166666667,211.11733094792217
81,0,0.05877978541666667,211.17611073333885
75,48,0.0007440479166666667,211.1768547812555
51,0,0.05877978541666667,211.2356345666722
54,40,0.0007440479166666667,211.23637861458886
75,0,0.029017868750000002,211.26539648333886
78,47,0.0007440479166666667,211.26614053125553
78,0,0.08407741458333333,211.35021794583886
54,0,0.0044642875000000005,211.35468223333888
69,46,0.0007440479166666667,211.35542628125555
57,39,0,211.35542628125555
69,0,0.08854170208333334,211.4439679833389
81,67,0.0007440479166666667,211.44471203125556
57,0,0.029017868750000002,211.47372990000557
54,37,0.0007440479166666667,211.47447394792223
81,0,0.05877978541666667,211.5332537333389
75,44,0.0007440479166666667,211.53399778125558
54,0,0.05877978541666667,211.59277756667225
51,35,0.0007440479166666667,211.59352161458892
75,0,0.029017868750000002,211.62253948333893
78,43,0.0007440479166666667,211.6232835312556
51,0,0.08258931875,211.7058728500056
78,0,0.0014880958333333334,211.70736094583893
72,41,0.005208335416666667,211.71256928125558
45,64,0,211.71256928125558
72,0,0.08705360625,211.7996228875056
84,61,0.0007440479166666667,211.80036693542226
45,0,0.029017868750000002,211.82938480417226
51,33,0.0007440479166666667,211.83012885208893
84,0,0.05877978541666667,211.8889086375056
75,41,0.0007440479166666667,211.88965268542228
51,0,0.05877978541666667,211.94843247083895
54,33,0.0007440479166666667,211.94917651875562
75,0,0.029017868750000002,211.97819438750562
78,41,0.0007440479166666667,211.9789384354223
78,0,0.08407741458333333,212.06301585000563
54,0,0.0044642875000000005,212.06748013750564
71,41,0.0007440479166666667,212.0682241854223
59,33,0,212.0682241854223
71,0,0.08854170208333334,212.15676588750566
83,61,0.0007440479166666667,212.15750993542233
59,0,0.029017868750000002,212.18652780417233
54,33,0.0007440479166666667,212.187271852089
83,0,0.05877978541666667,212.24605163750567
75,41,0.0007440479166666667,212.24679568542234
54,0,0.05877978541666667,212.30557547083902
51,33,0.0007440479166666667,212.30631951875569
75,0,0.029017868750000002,212.3353373875057
78,41,0.0007440479166666667,212.33608143542236
51,0,0.08258931875,212.41867075417235
78,0,0.0014880958333333334,212.4201588500057
71,41,0.005208335416666667,212.42536718542235
46,64,0,212.42536718542235
71,0,0.08705360625,212.51242079167235
83,61,0.0007440479166666667,212.51316483958902
46,0,0.029017868750000002,212.54218270833903
51,33,0.0007440479166666667,212.5429267562557
83,0,0.05877978541666667,212.60170654167237
75,41,0.0007440479166666667,212.60245058958904
51,0,0.05877978541666667,212.66123037500572
54,33,0.0007440479166666667,212.66197442292238
75,0,0.029017868750000002,212.6909922916724
78,41,0.0007440479166666667,212.69173633958906
78,0,0.08407741458333333,212.7758137541724
54,0,0.0044642875000000005,212.7802780416724
70,41,0.0007440479166666667,212.78102208958907
58,33,0,212.78102208958907
70,0,0.08854170208333334,212.86956379167242
82,61,0.0007440479166666667,212.8703078395891
58,0,0.029017868750000002,212.8993257083391
54,33,0.0007440479166666667,212.90006975625576
82,0,0.05877978541666667,212.95884954167244
75,41,0.0007440479166666667,212.9595935895891
54,0,0.05877978541666667,213.01837337500578
51,33,0.0007440479166666667,213.01911742292245
75,0,0.029017868750000002,213.04813529167245
78,41,0.0007440479166666667,213.04887933958912
51,0,0.08258931875,213.13146865833912
78,0,0.0014880958333333334,213.13295675417245
70,41,0.005208335416666667,213.1381650895891
47,64,0,213.1381650895891
70,0,0.08705360625,213.22521869583912
82,61,0.0007440479166666667,213.2259627437558
47,0,0.029017868750000002,213.2549806125058
51,33,0.0007440479166666667,213.25572466042246
82,0,0.05877978541666667,213.31450444583913
75,41,0.0007440479166666667,213.3152484937558
51,0,0.05877978541666667,213.37402827917248
54,33,0.0007440479166666667,213.37477232708915
75,0,0.029017868750000002,213.40379019583915
78,41,0.0007440479166666667,213.40453424375582
78,0,0.08407741458333333,213.48861165833915
54,0,0.0044642875000000005,213.49307594583917
69,41,0,213.49307594583917
57,33,0,213.49307594583917
69,0,0.09786188125,213.59093782708916
81,61,0.00082236875,213.59176019583916
57,0,0.032072381250000004,213.62383257708916
54,33,0.00082236875,213.62465494583915
81,0,0.06496713125,213.68962207708915
75,41,0.00082236875,213.69044444583915
54,0,0.06496713125,213.75541157708915
51,33,0.00082236875,213.75623394583914
75,0,0.032072381250000004,213.78830632708915
78,41,0.00082236875,213.78912869583914
51,0,0.09128293125,213.88041162708913
78,0,0.0016447375,213.88205636458912
69,41,0,213.88205636458912
48,64,0,213.88205636458912
69,0,0.10156258124999999,213.9836189458391
81,60,0.00086805625,213.9844870020891
48,0,0.03385419375,214.0183411958391
51,33,0.00086805625,214.0192092520891
81,0,0.06857644375,214.0877856958391
75,39,0.00086805625,214.0886537520891
51,0,0.06857644375,214.1572301958391
54,33,0.00086805625,214.1580982520891
75,0,0.03385419375,214.1919524458391
78,38,0.00086805625,214.1928205020891
78,0,0.09809035625,214.2909108583391
54,0,0.0052083375,214.29611919583908
68,37,0,214.29611919583908
56,33,0,214.29611919583908
68,0,0.11268928125,214.40880847708908
80,54,0,214.40880847708908
56,0,0.040625,214.4494334770891
54,33,0.0010416666666666667,214.45047514375577
80,0,0.08229166666666667,214.53276681042243
75,35,0,214.53276681042243
54,0,0.08816959583333334,214.62093640625577
51,33,0.0011160708333333334,214.62205247708908
75,0,0.0435267625,214.66557923958908
78,33,0,214.66557923958908
51,0,0.17343750000000002,214.83901673958908
78,0,0.003125,214.8421417395891
49,49,0,214.8421417395891
68,64,0.08779765416666667,214.92993939375577
49,0,0.029017868750000002,214.95895726250578
56,49,0.0007440479166666667,214.95970131042245
68,0,0.05877978541666667,215.01848109583912
69,64,0.0007440479166666667,215.0192251437558
56,0,0.05877978541666667,215.07800492917247
61,49,0.0007440479166666667,215.07874897708913
69,0,0.029017868750000002,215.10776684583914
68,64,0.0007440479166666667,215.1085108937558
68,0,0.08854170208333334,215.19705259583915
61,0,0,215.19705259583915
67,64,0.0007440479166666667,215.19779664375582
64,49,0,215.19779664375582
67,0,0.08854170208333334,215.28633834583917
68,64,0.0007440479166666667,215.28708239375584
64,0,0.029017868750000002,215.31610026250584
61,49,0.0007440479166666667,215.3168443104225
68,0,0.05877978541666667,215.37562409583919
73,64,0.0007440479166666667,215.37636814375585
61,0,0.05877978541666667,215.43514792917253
56,49,0.0007440479166666667,215.4358919770892
73,0,0.029017868750000002,215.4649098458392
76,64,0.0007440479166666667,215.46565389375587
56,0,0.08258931875,215.54824321250587
76,0,0.0059523833333333335,215.5541955958392
75,64,0.0007440479166666667,215.55493964375586
52,49,0,215.55493964375586
75,0,0.08854170208333334,215.6434813458392
73,64,0.0007440479166666667,215.64422539375587
52,0,0.029017868750000002,215.67324326250588
56,49,0.0007440479166666667,215.67398731042255
73,0,0.05877978541666667,215.73276709583922
75,64,0.0007440479166666667,215.7335111437559
56,0,0.05877978541666667,215.79229092917257
61,49,0.0007440479166666667,215.79303497708923
75,0,0.029017868750000002,215.82205284583924
73,64,0.0007440479166666667,215.8227968937559
73,0,0.08854170208333334,215.91133859583925
61,0,0,215.91133859583925
72,64,0.0007440479166666667,215.91208264375592
64,49,0,215.91208264375592
72,0,0.08854170208333334,216.00062434583927
73,64,0.0007440479166666667,216.00136839375594
64,0,0.029017868750000002,216.03038626250594
61,49,0.0007440479166666667,216.0311303104226
73,0,0.05877978541666667,216.0899100958393
76,64,0.0007440479166666667,216.09065414375596
61,0,0.05877978541666667,216.14943392917263
56,49,0.0007440479166666667,216.1501779770893
76,0,0.029017868750000002,216.1791958458393
80,64,0.0007440479166666667,216.17993989375597
56,0,0.08258931875,216.26252921250597
80,0,0.0014880958333333334,216.2640173083393
49,49,0.005208335416666667,216.26922564375596
68,64,0.08779765416666667,216.35702329792264
49,0,0.029017868750000002,216.38604116667264
56,49,0.0007440479166666667,216.3867852145893
68,0,0.05877978541666667,216.44556500000598
69,64,0.0007440479166666667,216.44630904792265
56,0,0.05877978541666667,216.50508883333933
61,49,0.0007440479166666667,216.505832881256
69,0,0.029017868750000002,216.534850750006
68,64,0.0007440479166666667,216.53559479792267
68,0,0.08854170208333334,216.62413650000602
61,0,0,216.62413650000602
67,64,0.0007440479166666667,216.6248805479227
64,49,0,216.6248805479227
67,0,0.08854170208333334,216.71342225000603
68,64,0.0007440479166666667,216.7141662979227
64,0,0.029017868750000002,216.7431841666727
61,49,0.0007440479166666667,216.74392821458937
68,0,0.05877978541666667,216.80270800000605
73,64,0.0007440479166666667,216.80345204792272
61,0,0.05877978541666667,216.8622318333394
56,49,0.0007440479166666667,216.86297588125606
73,0,0.029017868750000002,216.89199375000607
76,64,0.0007440479166666667,216.89273779792273
56,0,0.08258931875,216.97532711667273
76,0,0.0059523833333333335,216.98127950000605
75,64,0.0007440479166666667,216.98202354792272
52,49,0,216.98202354792272
75,0,0.08854170208333334,217.07056525000607
73,64,0.0007440479166666667,217.07130929792274
52,0,0.029017868750000002,217.10032716667274
56,49,0.0007440479166666667,217.1010712145894
73,0,0.05877978541666667,217.15985100000609
75,64,0.0007440479166666667,217.16059504792275
56,0,0.05877978541666667,217.21937483333943
61,49,0.0007440479166666667,217.2201188812561
75,0,0.029017868750000002,217.2491367500061
73,64,0.0007440479166666667,217.24988079792277
73,0,0.08854170208333334,217.33842250000612
61,0,0,217.33842250000612
72,64,0.0007440479166666667,217.3391665479228
64,49,0,217.3391665479228
72,0,0.08854170208333334,217.42770825000613
73,64,0.0007440479166666667,217.4284522979228
64,0,0.029017868750000002,217.4574701666728
61,49,0.0007440479166666667,217.45821421458947
73,0,0.05877978541666667,217.51699400000615
76,64,0.0007440479166666667,217.51773804792282
61,0,0.05877978541666667,217.5765178333395
56,49,0.0007440479166666667,217.57726188125616
76,0,0.029017868750000002,217.60627975000617
80,64,0.0007440479166666667,217.60702379792284
56,0,0.08258931875,217.68961311667283
80,0,0.0014880958333333334,217.69110121250617
51,49,0.005208335416666667,217.69630954792282
69,68,0.08779765416666667,217.7841072020895
51,0,0.029017868750000002,217.8131250708395
57,54,0.0007440479166666667,217.81386911875617
69,0,0.05877978541666667,217.87264890417285
73,72,0.0007440479166666667,217.87339295208952
57,0,0.05877978541666667,217.9321727375062
61,59,0.0007440479166666667,217.93291678542286
73,0,0.029017868750000002,217.96193465417286
75,76,0.0007440479166666667,217.96267870208953
75,0,0.08854170208333334,218.05122040417288
61,0,0,218.05122040417288
78,80,0.0007440479166666667,218.05196445208955
66,64,0,218.05196445208955
78,0,0.08854170208333334,218.1405061541729
81,84,0.0007440479166666667,218.14125020208957
66,0,0.029017868750000002,218.17026807083957
61,69,0.0007440479166666667,218.17101211875624
81,0,0.05877978541666667,218.2297919041729
85,88,0.0007440479166666667,218.23053595208958
61,0,0.05877978541666667,218.28931573750626
57,74,0.0007440479166666667,218.29005978542293
85,0,0.029017868750000002,218.31907765417293
87,92,0.0007440479166666667,218.3198217020896
57,0,0.08258931875,218.4024110208396
87,0,0.0059523833333333335,218.40836340417292
95,96,0.0007440479166666667,218.4091074520896
54,80,0,218.4091074520896
95,0,0.08854170208333334,218.49764915417293
93,92,0.0007440479166666667,218.4983932020896
54,0,0.029017868750000002,218.5274110708396
61,75,0.0007440479166666667,218.52815511875627
93,0,0.05877978541666667,218.58693490417295
92,88,0.0007440479166666667,218.58767895208962
61,0,0.05877978541666667,218.6464587375063
63,70,0.0007440479166666667,218.64720278542296
92,0,0.029017868750000002,218.67622065417297
90,84,0.0007440479166666667,218.67696470208963
90,0,0.08854170208333334,218.76550640417298
63,0,0,218.76550640417298
88,80,0.0007440479166666667,218.76625045208965
69,65,0,218.76625045208965
88,0,0.08854170208333334,218.854792154173
87,76,0.0007440479166666667,218.85553620208967
69,0,0.029017868750000002,218.88455407083967
63,60,0.0007440479166666667,218.88529811875634
87,0,0.05877978541666667,218.944077904173
90,72,0.0007440479166666667,218.94482195208968
63,0,0.05877978541666667,219.00360173750636
61,55,0.0007440479166666667,219.00434578542303
90,0,0.029017868750000002,219.03336365417303
85,68,0.0007440479166666667,219.0341077020897
61,0,0.08258931875,219.1166970208397
85,0,0.0014880958333333334,219.11818511667303
84,64,0.005208335416666667,219.1233934520897
44,49,0,219.1233934520897
84,0,0.08705360625,219.2104470583397
87,64,0.0007440479166666667,219.21119110625636
44,0,0.029017868750000002,219.24020897500637
51,49,0.0007440479166666667,219.24095302292304
87,0,0.05877978541666667,219.2997328083397
81,64,0.0007440479166666667,219.30047685625638
51,0,0.05877978541666667,219.35925664167306
54,49,0.0007440479166666667,219.36000068958973
81,0,0.029017868750000002,219.38901855833973
80,64,0.0007440479166666667,219.3897626062564
80,0,0.08854170208333334,219.47830430833974
54,0,0,219.47830430833974
78,64,0.0007440479166666667,219.4790483562564
60,49,0,219.4790483562564
78,0,0.08854170208333334,219.56759005833976
81,64,0.0007440479166666667,219.56833410625643
60,0,0.029017868750000002,219.59735197500643
54,49,0.0007440479166666667,219.5980960229231
81,0,0.05877978541666667,219.65687580833978
76,64,0.0007440479166666667,219.65761985625645
54,0,0.05877978541666667,219.71639964167312
51,49,0.0007440479166666667,219.7171436895898
76,0,0.029017868750000002,219.7461615583398
75,64,0.0007440479166666667,219.74690560625646
51,0,0.08258931875,219.82949492500646
75,0,0.0059523833333333335,219.83544730833978
78,64,0.0007440479166666667,219.83619135625645
44,49,0,219.83619135625645
78,0,0.08854170208333334,219.9247330583398
73,64,0.0007440479166666667,219.92547710625647
44,0,0.029017868750000002,219.95449497500647
51,49,0.0007440479166666667,219.95523902292314
73,0,0.05877978541666667,220.0140188083398
72,64,0.0007440479166666667,220.01476285625648
51,0,0.05877978541666667,220.07354264167316
54,49,0.0007440479166666667,220.07428668958983
72,0,0.029017868750000002,220.10330455833983
75,64,0.0007440479166666667,220.1040486062565
75,0,0.08854170208333334,220.19259030833985
54,0,0,220.19259030833985
69,64,0.0007440479166666667,220.1933343562565
60,49,0,220.1933343562565
69,0,0.08854170208333334,220.28187605833986
68,64,0.0007440479166666667,220.28262010625653
60,0,0.029017868750000002,220.31163797500653
54,49,0.0007440479166666667,220.3123820229232
68,0,0.05877978541666667,220.37116180833988
71,64,0.0007440479166666667,220.37190585625655
54,0,0.05877978541666667,220.43068564167322
51,49,0.0007440479166666667,220.4314296895899
71,0,0.029017868750000002,220.4604475583399
69,64,0.0007440479166666667,220.46119160625656
51,0,0.08258931875,220.54378092500656
49,49,0.00669643125,220.55047735625655
69,0,0.07812503125,220.62860238750656
68,64,0.009672622916666667,220.63827501042323
49,0,0.029017868750000002,220.66729287917323
56,49,0.0007440479166666667,220.6680369270899
68,0,0.05877978541666667,220.72681671250658
69,64,0.0007440479166666667,220.72756076042324
56,0,0.05877978541666667,220.78634054583992
61,49,0.0007440479166666667,220.7870845937566
69,0,0.029017868750000002,220.8161024625066
68,64,0.0007440479166666667,220.81684651042326
68,0,0.08854170208333334,220.9053882125066
61,0,0,220.9053882125066
67,64,0.0007440479166666667,220.90613226042328
64,49,0,220.90613226042328
67,0,0.08854170208333334,220.99467396250662
68,64,0.0007440479166666667,220.9954180104233
64,0,0.029017868750000002,221.0244358791733
61,49,0.0007440479166666667,221.02517992708997
68,0,0.05877978541666667,221.08395971250664
73,64,0.0007440479166666667,221.0847037604233
61,0,0.05877978541666667,221.14348354583998
56,49,0.0007440479166666667,221.14422759375665
73,0,0.029017868750000002,221.17324546250666
76,64,0.0007440479166666667,221.17398951042333
56,0,0.08258931875,221.25657882917332
76,0,0.0059523833333333335,221.26253121250664
75,64,0.0007440479166666667,221.2632752604233
52,49,0,221.2632752604233
75,0,0.08854170208333334,221.35181696250666
73,64,0.0007440479166666667,221.35256101042333
52,0,0.029017868750000002,221.38157887917333
56,49,0.0007440479166666667,221.38232292709
73,0,0.05877978541666667,221.44110271250668
75,64,0.0007440479166666667,221.44184676042335
56,0,0.05877978541666667,221.50062654584002
61,50,0.0007440479166666667,221.5013705937567
75,0,0.029017868750000002,221.5303884625067
73,65,0.0007440479166666667,221.53113251042336
73,0,0.08854170208333334,221.6196742125067
61,0,0,221.6196742125067
72,65,0.0007440479166666667,221.62041826042338
64,51,0,221.62041826042338
72,0,0.08854170208333334,221.70895996250673
73,66,0.0007440479166666667,221.7097040104234
64,0,0.029017868750000002,221.7387218791734
61,51,0.0007440479166666667,221.73946592709007
73,0,0.05877978541666667,221.79824571250674
76,66,0.0007440479166666667,221.7989897604234
61,0,0.05877978541666667,221.85776954584009
56,52,0.0007440479166666667,221.85851359375675
76,0,0.029017868750000002,221.88753146250676
80,67,0.0007440479166666667,221.88827551042343
56,0,0.08258931875,221.97086482917342
80,0,0.0014880958333333334,221.97235292500676
76,67,0.005208335416666667,221.9775612604234
54,53,0,221.9775612604234
76,0,0.08705360625,222.06461486667342
75,68,0.0007440479166666667,222.0653589145901
54,0,0.029017868750000002,222.0943767833401
61,53,0.0007440479166666667,222.09512083125676
75,0,0.05877978541666667,222.15390061667344
76,68,0.0007440479166666667,222.1546446645901
61,0,0.05877978541666667,222.21342445000678
63,54,0.0007440479166666667,222.21416849792345
76,0,0.029017868750000002,222.24318636667346
75,69,0.0007440479166666667,222.24393041459012
75,0,0.08854170208333334,222.33247211667347
63,0,0,222.33247211667347
74,69,0.0007440479166666667,222.33321616459014
69,55,0,222.33321616459014
74,0,0.08854170208333334,222.4217578666735
75,70,0.0007440479166666667,222.42250191459016
69,0,0.029017868750000002,222.45151978334016
63,56,0.0007440479166666667,222.45226383125683
75,0,0.05877978541666667,222.5110436166735
78,70,0.0007440479166666667,222.51178766459017
63,0,0.05877978541666667,222.57056745000685
61,56,0.0007440479166666667,222.57131149792352
78,0,0.029017868750000002,222.60032936667352
81,70,0.0007440479166666667,222.6010734145902
61,0,0.08258931875,222.68366273334019
81,0,0.0014880958333333334,222.68515082917352
78,71,0.005208335416666667,222.69035916459018
56,57,0,222.69035916459018
78,0,0.08705360625,222.7774127708402
77,71,0.0007440479166666667,222.77815681875686
56,0,0.029017868750000002,222.80717468750686
61,58,0.0007440479166666667,222.80791873542353
77,0,0.05877978541666667,222.8666985208402
78,72,0.0007440479166666667,222.86744256875687
61,0,0.05877978541666667,222.92622235417355
65,58,0.0007440479166666667,222.92696640209022
78,0,0.029017868750000002,222.95598427084022
77,72,0.0007440479166666667,222.9567283187569
77,0,0.08854170208333334,223.04527002084023
65,0,0,223.04527002084023
76,73,0.0007440479166666667,223.0460140687569
71,59,0,223.0460140687569
76,0,0.08854170208333334,223.13455577084025
77,73,0.0007440479166666667,223.13529981875692
71,0,0.029017868750000002,223.16431768750692
65,60,0.0007440479166666667,223.1650617354236
77,0,0.05877978541666667,223.22384152084027
80,74,0.0007440479166666667,223.22458556875694
65,0,0.05877978541666667,223.2833653541736
61,61,0.0007440479166666667,223.28410940209028
80,0,0.029017868750000002,223.31312727084028
85,74,0.0007440479166666667,223.31387131875695
61,0,0.08258931875,223.39646063750695
85,0,0.0014880958333333334,223.3979487333403
57,61,0.005208335416666667,223.40315706875694
73,75,0.08779765416666667,223.49095472292362
57,0,0.029017868750000002,223.51997259167362
61,62,0.0007440479166666667,223.5207166395903
73,0,0.05877978541666667,223.57949642500697
74,76,0.0007440479166666667,223.58024047292363
61,0,0.05877978541666667,223.6390202583403
66,63,0.0007440479166666667,223.63976430625698
74,0,0.029017868750000002,223.66878217500698
73,76,0.0007440479166666667,223.66952622292365
73,0,0.08854170208333334,223.758067925007
66,0,0,223.758067925007
72,77,0.0007440479166666667,223.75881197292367
69,63,0,223.75881197292367
72,0,0.08854170208333334,223.847353675007
73,77,0.0007440479166666667,223.84809772292368
69,0,0.029017868750000002,223.8771155916737
66,64,0.0007440479166666667,223.87785963959035
73,0,0.05877978541666667,223.93663942500703
78,77,0.0007440479166666667,223.9373834729237
66,0,0.05877978541666667,223.99616325834037
61,65,0.0007440479166666667,223.99690730625704
78,0,0.029017868750000002,224.02592517500705
81,78,0.0007440479166666667,224.02666922292372
61,0,0.08258931875,224.1092585416737
81,0,0.0059523833333333335,224.11521092500703
78,78,0.0007440479166666667,224.1159549729237
56,66,0,224.1159549729237
78,0,0.08705360625,224.2030085791737
77,79,0.0007440479166666667,224.20375262709038
56,0,0.029017868750000002,224.23277049584038
61,66,0.0007440479166666667,224.23351454375705
77,0,0.05877978541666667,224.29229432917373
78,79,0.0007440479166666667,224.2930383770904
61,0,0.05877978541666667,224.35181816250707
65,67,0.0007440479166666667,224.35256221042374
78,0,0.029017868750000002,224.38158007917374
77,80,0.0007440479166666667,224.3823241270904
77,0,0.08854170208333334,224.47086582917376
65,0,0,224.47086582917376
76,80,0.0007440479166666667,224.47160987709043
71,68,0,224.47160987709043
76,0,0.08854170208333334,224.56015157917378
77,81,0.0007440479166666667,224.56089562709045
71,0,0.029017868750000002,224.58991349584045
65,68,0.0007440479166666667,224.59065754375712
77,0,0.05877978541666667,224.6494373291738
80,81,0.0007440479166666667,224.65018137709046
65,0,0.05877978541666667,224.70896116250714
61,69,0.0007440479166666667,224.7097052104238
80,0,0.029017868750000002,224.7387230791738
85,82,0.0007440479166666667,224.73946712709048
61,0,0.08258931875,224.82205644584047
85,0,0.0014880958333333334,224.8235445416738
80,82,0.005208335416666667,224.82875287709047
57,70,0,224.82875287709047
80,0,0.08705360625,224.91580648334048
78,83,0.0007440479166666667,224.91655053125714
57,0,0.029017868750000002,224.94556840000715
61,71,0.0007440479166666667,224.94631244792382
78,0,0.05877978541666667,225.0050922333405
80,83,0.0007440479166666667,225.00583628125716
61,0,0.05877978541666667,225.06461606667384
66,71,0.0007440479166666667,225.0653601145905
80,0,0.029017868750000002,225.0943779833405
78,84,0.0007440479166666667,225.09512203125718
78,0,0.08854170208333334,225.18366373334052
66,0,0,225.18366373334052
77,84,0.0007440479166666667,225.1844077812572
69,72,0,225.1844077812572
77,0,0.08854170208333334,225.27294948334054
78,84,0.0007440479166666667,225.2736935312572
69,0,0.029017868750000002,225.3027114000072
66,73,0.0007440479166666667,225.30345544792388
78,0,0.05877978541666667,225.36223523334056
81,85,0.0007440479166666667,225.36297928125722
66,0,0.05877978541666667,225.4217590666739
61,73,0.0007440479166666667,225.42250311459057
81,0,0.029017868750000002,225.45152098334057
85,85,0.0007440479166666667,225.45226503125724
61,0,0.08258931875,225.53485435000724
85,0,0.0014880958333333334,225.53634244584057
81,86,0.005208335416666667,225.54155078125723
48,74,0,225.54155078125723
81,0,0.08705360625,225.62860438750724
80,86,0.0007440479166666667,225.6293484354239
48,0,0.029017868750000002,225.6583663041739
54,75,0.0007440479166666667,225.65911035209058
80,0,0.05877978541666667,225.71789013750725
81,87,0.0007440479166666667,225.71863418542392
54,0,0.05877978541666667,225.7774139708406
56,76,0.0007440479166666667,225.77815801875727
81,0,0.029017868750000002,225.80717588750727
80,87,0.0007440479166666667,225.80791993542394
80,0,0.08854170208333334,225.8964616375073
56,0,0,225.8964616375073
79,88,0.0007440479166666667,225.89720568542396
63,76,0,225.89720568542396
79,0,0.08854170208333334,225.9857473875073
80,88,0.0007440479166666667,225.98649143542397
63,0,0.029017868750000002,226.01550930417397
56,77,0.0007440479166666667,226.01625335209064
80,0,0.05877978541666667,226.07503313750732
84,89,0.0007440479166666667,226.075777185424
56,0,0.05877978541666667,226.13455697084066
54,78,0.0007440479166666667,226.13530101875733
84,0,0.029017868750000002,226.16431888750733
87,89,0.0007440479166666667,226.165062935424
54,0,0.08258931875,226.247652254174
87,0,0.0014880958333333334,226.24914035000734
80,90,0.005208335416666667,226.254348685424
49,78,0,226.254348685424
80,0,0.08705360625,226.341402291674
81,90,0.0007440479166666667,226.34214633959067
49,0,0.029017868750000002,226.37116420834067
56,79,0.0007440479166666667,226.37190825625734
81,0,0.05877978541666667,226.43068804167402
80,91,0.0007440479166666667,226.4314320895907
56,0,0.05877978541666667,226.49021187500736
61,80,0.0007440479166666667,226.49095592292403
80,0,0.029017868750000002,226.51997379167403
79,91,0.0007440479166666667,226.5207178395907
79,0,0.08854170208333334,226.60925954167405
61,0,0,226.60925954167405
80,91,0.0007440479166666667,226.61000358959072
64,81,0,226.61000358959072
80,0,0.08407741458333333,226.69408100417405
88,127,0.005208335416666667,226.6992893395907
64,0,0.029017868750000002,226.7283072083407
61,81,0.0007440479166666667,226.72905125625738
88,0,0.05877978541666667,226.78783104167405
87,92,0.0007440479166666667,226.78857508959072
61,0,0.05877978541666667,226.8473548750074
56,82,0.0007440479166666667,226.84809892292407
87,0,0.029017868750000002,226.87711679167407
86,93,0.0007440479166666667,226.87786083959074
56,0,0.08258931875,226.96045015834073
86,0,0.0059523833333333335,226.96640254167406
85,93,0.0007440479166666667,226.96714658959073
51,83,0,226.96714658959073
85,0,0.08705360625,227.05420019584074
84,94,0.0007440479166666667,227.0549442437574
51,0,0.029017868750000002,227.0839621125074
56,83,0.0007440479166666667,227.08470616042408
84,0,0.05877978541666667,227.14348594584075
83,94,0.0007440479166666667,227.14422999375742
56,0,0.05877978541666667,227.2030097791741
60,84,0.0007440479166666667,227.20375382709076
83,0,0.029017868750000002,227.23277169584077
82,95,0.0007440479166666667,227.23351574375744
82,0,0.08854170208333334,227.32205744584078
60,0,0,227.32205744584078
81,95,0.0007440479166666667,227.32280149375745
66,85,0,227.32280149375745
81,0,0.08854170208333334,227.4113431958408
80,96,0.0007440479166666667,227.41208724375747
66,0,0.029017868750000002,227.44110511250747
60,86,0.0007440479166666667,227.44184916042414
80,0,0.05877978541666667,227.50062894584082
79,96,0.0007440479166666667,227.50137299375749
60,0,0.05877978541666667,227.56015277917416
56,86,0.0007440479166666667,227.56089682709083
79,0,0.029017868750000002,227.58991469584083
78,97,0.0007440479166666667,227.5906587437575
56,0,0.08258931875,227.6732480625075
78,0,0.0014880958333333334,227.67473615834083
76,97,0.005208335416666667,227.6799444937575
52,87,0,227.6799444937575
76,0,0.08705360625,227.7669981000075
78,98,0.0007440479166666667,227.76774214792417
52,0,0.029017868750000002,227.79676001667417
56,88,0.0007440479166666667,227.79750406459084
78,0,0.05877978541666667,227.85628385000751
76,98,0.0007440479166666667,227.85702789792418
56,0,0.05877978541666667,227.91580768334086
61,88,0.0007440479166666667,227.91655173125753
76,0,0.029017868750000002,227.94556960000753
75,98,0.0007440479166666667,227.9463136479242
75,0,0.08854170208333334,228.03485535000755
61,0,0,228.03485535000755
76,99,0.0007440479166666667,228.03559939792422
64,89,0,228.03559939792422
76,0,0.08407741458333333,228.11967681250755
88,127,0.005208335416666667,228.1248851479242
64,0,0.029017868750000002,228.1539030166742
61,90,0.0007440479166666667,228.15464706459088
88,0,0.05877978541666667,228.21342685000755
87,100,0.0007440479166666667,228.21417089792422
61,0,0.05877978541666667,228.2729506833409
56,91,0.0007440479166666667,228.27369473125756
87,0,0.029017868750000002,228.30271260000757
86,100,0.0007440479166666667,228.30345664792424
56,0,0.08258931875,228.38604596667423
86,0,0.0059523833333333335,228.39199835000755
85,101,0.0007440479166666667,228.39274239792422
54,91,0,228.39274239792422
85,0,0.08705360625,228.47979600417423
84,101,0.0007440479166666667,228.4805400520909
54,0,0.029017868750000002,228.5095579208409
61,92,0.0007440479166666667,228.51030196875757
84,0,0.05877978541666667,228.56908175417425
83,102,0.0007440479166666667,228.56982580209092
61,0,0.05877978541666667,228.6286055875076
63,93,0.0007440479166666667,228.62934963542426
83,0,0.029017868750000002,228.65836750417427
82,102,0.0007440479166666667,228.65911155209093
82,0,0.08854170208333334,228.74765325417428
63,0,0,228.74765325417428
81,103,0.0007440479166666667,228.74839730209095
69,93,0,228.74839730209095
81,0,0.08854170208333334,228.8369390041743
80,103,0.0007440479166666667,228.83768305209097
69,0,0.029017868750000002,228.86670092084097
63,94,0.0007440479166666667,228.86744496875764
80,0,0.05877978541666667,228.9262247541743
79,104,0.0007440479166666667,228.92696880209098
63,0,0.05877978541666667,228.98574858750766
61,95,0.0007440479166666667,228.98649263542433
79,0,0.029017868750000002,229.01551050417433
78,104,0.0007440479166666667,229.016254552091
61,0,0.08258931875,229.098843870841
78,0,0.0059523833333333335,229.10479625417432
80,105,0.0007440479166666667,229.105540302091
56,96,0,229.105540302091
61,96,0,229.105540302091
64,96,0,229.105540302091
68,96,0,229.105540302091
80,0,0.08333336666666667,229.18887366875765
56,0,0.0848214625,229.27369513125765
61,0,0,229.27369513125765
64,0,0,229.27369513125765
68,0,0,229.27369513125765
92,127,0.009672622916666667,229.28336775417432
92,0,0.08854170208333334,229.37190945625767
91,105,0.0007440479166666667,229.37265350417434
91,0,0.08854170208333334,229.46119520625768
90,105,0.0007440479166666667,229.46193925417435
90,0,0.08854170208333334,229.5504809562577
89,105,0.0007440479166666667,229.55122500417437
89,0,0.08854170208333334,229.63976670625772
88,105,0.0007440479166666667,229.6405107541744
88,0,0.08854170208333334,229.72905245625773
87,105,0.0007440479166666667,229.7297965041744
87,0,0.08854170208333334,229.81833820625775
86,105,0.0007440479166666667,229.81908225417442
55,127,0,229.81908225417442
61,127,0,229.81908225417442
64,127,0,229.81908225417442
69,127,0,229.81908225417442
86,0,0.08705360625,229.90613586042443
85,105,0.0007440479166666667,229.9068799083411
85,0,0.08854170208333334,229.99542161042444
84,105,0.0007440479166666667,229.9961656583411
84,0,0.08854170208333334,230.08470736042446
83,105,0.0007440479166666667,230.08545140834113
83,0,0.08854170208333334,230.17399311042448
55,0,0,230.17399311042448
61,0,0,230.17399311042448
64,0,0,230.17399311042448
69,0,0,230.17399311042448
82,105,0.0007440479166666667,230.17473715834115
82,0,0.08779765416666667,230.26253481250782
81,105,0.0007440479166666667,230.2632788604245
81,0,0.08854170208333334,230.35182056250784
80,105,0.0007440479166666667,230.3525646104245
80,0,0.08854170208333334,230.44110631250786
79,105,0.0007440479166666667,230.44185036042452
79,0,0.08854170208333334,230.53039206250787
78,105,0.0007440479166666667,230.53113611042454
78,0,0.08854170208333334,230.6196778125079
77,106,0.0007440479166666667,230.62042186042456
77,0,0.08854170208333334,230.7089635625079
76,107,0.0007440479166666667,230.70970761042457
76,0,0.08854170208333334,230.79824931250792
75,109,0.0007440479166666667,230.7989933604246
75,0,0.08854170208333334,230.88753506250794
74,110,0.0007440479166666667,230.8882791104246
74,0,0.08854170208333334,230.97682081250795
73,111,0.0007440479166666667,230.97756486042462
73,0,0.08854170208333334,231.06610656250797
72,113,0.0007440479166666667,231.06685061042464
72,0,0.08854170208333334,231.15539231250798
71,114,0.0007440479166666667,231.15613636042465
71,0,0.08854170208333334,231.244678062508
70,116,0.0007440479166666667,231.24542211042467
70,0,0.08854170208333334,231.33396381250802
69,117,0.0007440479166666667,231.3347078604247
69,0,0.08854170208333334,231.42324956250803
68,118,0.0007440479166666667,231.4239936104247
68,0,0.08854170208333334,231.51253531250805
67,120,0.0007440479166666667,231.51327936042472
67,0,0.08854170208333334,231.60182106250807
66,121,0.0007440479166666667,231.60256511042473
66,0,0.08854170208333334,231.69110681250808
64,122,0.0007440479166666667,231.69185086042475
64,0,0.08854170208333334,231.7803925625081
63,124,0.0007440479166666667,231.78113661042477
63,0,0.08854170208333334,231.8696783125081
61,125,0.0007440479166666667,231.87042236042478
61,0,0.08854170208333334,231.95896406250813
56,127,0.0007440479166666667,231.9597081104248
32,127,0,231.9597081104248
44,127,0,231.9597081104248
56,0,0.05654764166666667,232.01625575209147
32,0,0,232.01625575209147
44,0,0,232.01625575209147
93,127,0.2991072625,232.31536301459147
64,112,0,232.31536301459147
76,112,0,232.31536301459147
93,0,0.08854170208333334,232.40390471667482
92,112,0.0007440479166666667,232.40464876459149
92,0,0.08854170208333334,232.49319046667483
100,112,0.0007440479166666667,232.4939345145915
100,0,0.08854170208333334,232.58247621667485
88,112,0.0007440479166666667,232.58322026459152
64,0,0.07068455208333334,232.65390481667484
76,0,0,232.65390481667484
88,0,0.0133928625,232.66729767917485
90,127,0.005208335416666667,232.6725060145915
61,112,0,232.6725060145915
73,112,0,232.6725060145915
90,0,0.08854170208333334,232.76104771667485
88,112,0.0007440479166666667,232.76179176459152
88,0,0.08854170208333334,232.85033346667487
97,112,0.0007440479166666667,232.85107751459154
97,0,0.08854170208333334,232.93961921667488
85,112,0.0007440479166666667,232.94036326459155
61,0,0.07068455208333334,233.01104781667487
73,0,0,233.01104781667487
85,0,0.0133928625,233.0244406791749
87,127,0.005208335416666667,233.02964901459154
56,112,0,233.02964901459154
68,112,0,233.02964901459154
87,0,0.08854170208333334,233.1181907166749
85,112,0.0007440479166666667,233.11893476459156
85,0,0.08854170208333334,233.2074764666749
92,112,0.0007440479166666667,233.20822051459157
92,0,0.08854170208333334,233.29676221667492
80,112,0.0007440479166666667,233.2975062645916
56,0,0.07068455208333334,233.3681908166749
68,0,0,233.3681908166749
80,0,0.0133928625,233.38158367917492
81,127,0.005208335416666667,233.38679201459158
52,112,0,233.38679201459158
64,112,0,233.38679201459158
81,0,0.08854170208333334,233.47533371667492
80,112,0.0007440479166666667,233.4760777645916
80,0,0.08854170208333334,233.56461946667494
88,112,0.0007440479166666667,233.5653635145916
88,0,0.08854170208333334,233.65390521667496
76,112,0.0007440479166666667,233.65464926459163
52,0,0.07068455208333334,233.72533381667495
64,0,0,233.72533381667495
76,0,0.0133928625,233.73872667917496
78,127,0.005208335416666667,233.7439350145916
49,112,0,233.7439350145916
61,112,0,233.7439350145916
78,0,0.08854170208333334,233.83247671667496
76,112,0.0007440479166666667,233.83322076459163
76,0,0.08854170208333334,233.92176246667498
85,112,0.0007440479166666667,233.92250651459165
85,0,0.08854170208333334,234.011048216675
73,112,0.0007440479166666667,234.01179226459166
49,0,0.07068455208333334,234.08247681667498
61,0,0,234.08247681667498
73,0,0.0133928625,234.095869679175
75,127,0.005208335416666667,234.10107801459165
44,112,0,234.10107801459165
56,112,0,234.10107801459165
75,0,0.08854170208333334,234.189619716675
73,112,0.0007440479166666667,234.19036376459167
73,0,0.08854170208333334,234.278905466675
80,112,0.0007440479166666667,234.27964951459168
80,0,0.08854170208333334,234.36819121667503
68,112,0.0007440479166666667,234.3689352645917
44,0,0.07068455208333334,234.43961981667502
56,0,0,234.43961981667502
68,0,0.0133928625,234.45301267917503
69,127,0.005208335416666667,234.4582210145917
40,112,0,234.4582210145917
52,112,0,234.4582210145917
69,0,0.08854170208333334,234.54676271667503
68,112,0.0007440479166666667,234.5475067645917
68,0,0.08854170208333334,234.63604846667505
76,112,0.0007440479166666667,234.63679251459172
76,0,0.08854170208333334,234.72533421667507
64,112,0.0007440479166666667,234.72607826459173
40,0,0.07068455208333334,234.79676281667506
52,0,0,234.79676281667506
64,0,0.0133928625,234.81015567917507
66,127,0.005208335416666667,234.81536401459172
37,112,0,234.81536401459172
49,112,0,234.81536401459172
66,0,0.08854170208333334,234.90390571667507
64,112,0.0007440479166666667,234.90464976459174
64,0,0.08854170208333334,234.99319146667509
73,112,0.0007440479166666667,234.99393551459175
73,0,0.08854170208333334,235.0824772166751
61,112,0.0007440479166666667,235.08322126459177
37,0,0.07068455208333334,235.1539058166751
49,0,0,235.1539058166751
61,0,0.0133928625,235.1672986791751
63,127,0.005208335416666667,235.17250701459176
32,112,0,235.17250701459176
44,112,0,235.17250701459176
63,0,0.08854170208333334,235.2610487166751
61,112,0.0007440479166666667,235.26179276459177
61,0,0.08854170208333334,235.35033446667512
68,112,0.0007440479166666667,235.3510785145918
68,0,0.08854170208333334,235.43962021667514
56,112,0.0007440479166666667,235.4403642645918
32,0,0.07068455208333334,235.51104881667513
44,0,0,235.51104881667513
56,0,0.0133928625,235.52444167917514
63,127,0.005208335416666667,235.5296500145918
32,112,0,235.5296500145918
44,112,0,235.5296500145918
63,0,0.08705360625,235.6167036208418
61,112,0.0007440479166666667,235.61744766875847
61,0,0.08854170208333334,235.70598937084182
68,112,0.0007440479166666667,235.7067334187585
68,0,0.08854170208333334,235.79527512084184
56,112,0.0007440479166666667,235.7960191687585
32,0,0.07068455208333334,235.86670372084183
44,0,0,235.86670372084183
56,0,0.0133928625,235.88009658334184
63,127,0.005208335416666667,235.8853049187585
33,112,0,235.8853049187585
45,112,0,235.8853049187585
63,0,0.08705360625,235.9723585250085
61,112,0.0007440479166666667,235.97310257292517
61,0,0.08854170208333334,236.06164427500852
69,112,0.0007440479166666667,236.0623883229252
69,0,0.08854170208333334,236.15093002500853
57,112,0.0007440479166666667,236.1516740729252
33,0,0.07068455208333334,236.22235862500852
45,0,0,236.22235862500852
57,0,0.0133928625,236.23575148750854
63,127,0.005208335416666667,236.2409598229252
32,112,0,236.2409598229252
44,112,0,236.2409598229252
63,0,0.08705360625,236.3280134291752
61,112,0.0007440479166666667,236.32875747709187
61,0,0.08854170208333334,236.41729917917522
68,112,0.0007440479166666667,236.41804322709189
68,0,0.08854170208333334,236.50658492917523
56,112,0.0007440479166666667,236.5073289770919
32,0,0.07068455208333334,236.57801352917522
44,0,0,236.57801352917522
56,0,0.0133928625,236.59140639167524
63,127,0.005208335416666667,236.5966147270919
31,112,0,236.5966147270919
43,112,0,236.5966147270919
63,0,0.08705360625,236.6836683333419
61,112,0.0007440479166666667,236.68441238125857
61,0,0.08854170208333334,236.77295408334192
67,112,0.0007440479166666667,236.77369813125858
67,0,0.08854170208333334,236.86223983334193
55,112,0.0007440479166666667,236.8629838812586
31,0,0.07068455208333334,236.93366843334192
43,0,0,236.93366843334192
55,0,0.0133928625,236.94706129584193
63,127,0.005208335416666667,236.9522696312586
32,112,0,236.9522696312586
44,112,0,236.9522696312586
63,0,0.08705360625,237.0393232375086
61,110,0.0007440479166666667,237.04006728542527
61,0,0.08854170208333334,237.1286089875086
68,107,0.0007440479166666667,237.12935303542528
68,0,0.08854170208333334,237.21789473750863
56,104,0.0007440479166666667,237.2186387854253
56,0,0.08407741458333333,237.30271620000863
63,127,0.005208335416666667,237.3079245354253
63,0,0.08705360625,237.3949781416753
60,98,0.0007440479166666667,237.39572218959196
60,0,0.08854170208333334,237.4842638916753
68,95,0.0007440479166666667,237.48500793959198
68,0,0.08854170208333334,237.57354964167533
56,92,0.0007440479166666667,237.574293689592
32,0,0.052827402083333336,237.62712109167532
44,0,0,237.62712109167532
56,0,0.0312500125,237.65837110417533
63,127,0.005208335416666667,237.66357943959198
37,89,0,237.66357943959198
63,0,0.08705360625,237.750633045842
61,86,0.0007440479166666667,237.75137709375866
61,0,0.08854170208333334,237.839918795842
37,0,0,237.839918795842
68,83,0.0007440479166666667,237.84066284375868
52,83,0,237.84066284375868
68,0,0.08854170208333334,237.92920454584203
56,80,0.0007440479166666667,237.9299485937587
56,0,0.08407741458333333,238.01402600834203
52,0,0.0044642875000000005,238.01849029584204
69,112,0.0007440479166666667,238.0192343437587
49,112,0,238.0192343437587
69,0,0.08854170208333334,238.10777604584206
68,112,0.0007440479166666667,238.10852009375873
68,0,0.08854170208333334,238.19706179584207
49,0,0,238.19706179584207
76,127,0.0007440479166666667,238.19780584375874
44,112,0,238.19780584375874
64,112,0.08928575,238.28709159375873
44,0,0.07961312708333333,238.36670472084205
64,0,0.0044642875000000005,238.37116900834206
69,112,0.005208335416666667,238.37637734375872
37,112,0,238.37637734375872
69,0,0.08705360625,238.46343095000873
68,112,0.0007440479166666667,238.4641749979254
76,0,0.08854170208333334,238.55271670000874
68,0,0,238.55271670000874
37,0,0,238.55271670000874
76,127,0.0007440479166666667,238.5534607479254
54,112,0,238.5534607479254
64,112,0.08928575,238.6427464979254
64,0,0.08407741458333333,238.72682391250873
54,0,0.0044642875000000005,238.73128820000875
69,112,0.0007440479166666667,238.73203224792542
48,112,0,238.73203224792542
69,0,0.08854170208333334,238.82057395000876
68,112,0.0007440479166666667,238.82131799792543
76,0,0.08854170208333334,238.90985970000878
68,0,0,238.90985970000878
48,0,0,238.90985970000878
75,127,0.0007440479166666667,238.91060374792545
44,112,0,238.91060374792545
63,112,0.08928575,238.99988949792544
44,0,0.07961312708333333,239.07950262500876
63,0,0.0044642875000000005,239.08396691250877
75,0,0.0044642875000000005,239.08843120000878
69,112,0.0007440479166666667,239.08917524792545
37,112,0,239.08917524792545
69,0,0.08705360625,239.17622885417546
68,112,0.0007440479166666667,239.17697290209213
68,0,0.08854170208333334,239.26551460417548
37,0,0,239.26551460417548
75,127,0.0007440479166666667,239.26625865209215
52,112,0,239.26625865209215
75,0,0.08854170208333334,239.3548003541755
63,112,0.0007440479166666667,239.35554440209216
63,0,0.08407741458333333,239.4396218166755
52,0,0.0044642875000000005,239.4440861041755
69,112,0.0007440479166666667,239.44483015209218
49,112,0,239.44483015209218
69,0,0.08854170208333334,239.53337185417553
68,112,0.0007440479166666667,239.5341159020922
68,0,0.08854170208333334,239.62265760417554
49,0,0,239.62265760417554
73,127,0.0007440479166666667,239.6234016520922
44,112,0,239.6234016520922
73,0,0.08854170208333334,239.71194335417556
61,112,0.0007440479166666667,239.71268740209223
44,0,0.07961312708333333,239.79230052917555
61,0,0.0044642875000000005,239.79676481667556
64,49,0.005208335416666667,239.80197315209222
37,49,0,239.80197315209222
64,0,0.08705360625,239.88902675834223
63,49,0.0007440479166666667,239.8897708062589
63,0,0.08854170208333334,239.97831250834224
37,0,0,239.97831250834224
68,73,0.0007440479166666667,239.9790565562589
54,49,0,239.9790565562589
68,0,0.08854170208333334,240.06759825834226
56,49,0.0007440479166666667,240.06834230625893
56,0,0.08407741458333333,240.15241972084226
54,0,0.0044642875000000005,240.15688400834227
64,49,0.0007440479166666667,240.15762805625894
48,49,0,240.15762805625894
64,0,0.08854170208333334,240.2461697583423
63,49,0.0007440479166666667,240.24691380625896
63,0,0.08854170208333334,240.3354555083423
48,0,0,240.3354555083423
68,73,0.0007440479166666667,240.33619955625898
44,49,0,240.33619955625898
68,0,0.08854170208333334,240.42474125834232
56,49,0.0007440479166666667,240.425485306259
44,0,0.07961312708333333,240.5050984333423
56,0,0.0044642875000000005,240.50956272084233
63,49,0.005208335416666667,240.51477105625898
37,49,0,240.51477105625898
63,0,0.08705360625,240.601824662509
61,49,0.0007440479166666667,240.60256871042566
61,0,0.08854170208333334,240.691110412509
37,0,0,240.691110412509
68,73,0.0007440479166666667,240.69185446042567
52,49,0,240.69185446042567
68,0,0.08854170208333334,240.78039616250902
56,49,0.0007440479166666667,240.7811402104257
56,0,0.08407741458333333,240.86521762500902
52,0,0.0044642875000000005,240.86968191250904
69,112,0.0007440479166666667,240.8704259604257
49,112,0,240.8704259604257
69,0,0.08854170208333334,240.95896766250905
68,112,0.0007440479166666667,240.95971171042572
68,0,0.08854170208333334,241.04825341250907
49,0,0,241.04825341250907
76,127,0.0007440479166666667,241.04899746042574
44,112,0,241.04899746042574
76,0,0.08854170208333334,241.13753916250909
64,112,0.0007440479166666667,241.13828321042575
44,0,0.07961312708333333,241.21789633750907
64,0,0.0044642875000000005,241.2223606250091
69,112,0.005208335416666667,241.22756896042574
37,112,0,241.22756896042574
69,0,0.08705360625,241.31462256667575
68,112,0.0007440479166666667,241.31536661459242
68,0,0.08854170208333334,241.40390831667577
37,0,0,241.40390831667577
76,127,0.0007440479166666667,241.40465236459244
54,112,0,241.40465236459244
76,0,0.08854170208333334,241.49319406667578
64,112,0.0007440479166666667,241.49393811459245
64,0,0.08407741458333333,241.5780155291758
54,0,0.0044642875000000005,241.5824798166758
69,112,0.0007440479166666667,241.58322386459247
48,112,0,241.58322386459247
69,0,0.08854170208333334,241.67176556667582
68,112,0.0007440479166666667,241.67250961459249
68,0,0.08854170208333334,241.76105131667583
48,0,0,241.76105131667583
75,127,0.0007440479166666667,241.7617953645925
44,112,0,241.7617953645925
75,0,0.08854170208333334,241.85033706667585
63,112,0.0007440479166666667,241.85108111459252
44,0,0.07961312708333333,241.93069424167584
63,0,0.0044642875000000005,241.93515852917585
69,112,0.005208335416666667,241.9403668645925
37,112,0,241.9403668645925
69,0,0.08705360625,242.02742047084251
68,112,0.0007440479166666667,242.02816451875918
68,0,0.08854170208333334,242.11670622084253
37,0,0,242.11670622084253
75,127,0.0007440479166666667,242.1174502687592
52,112,0,242.1174502687592
75,0,0.08854170208333334,242.20599197084255
63,112,0.0007440479166666667,242.20673601875922
63,0,0.08407741458333333,242.29081343334255
52,0,0.0044642875000000005,242.29527772084256
69,112,0.0007440479166666667,242.29602176875923
49,112,0,242.29602176875923
69,0,0.08854170208333334,242.38456347084258
68,112,0.0007440479166666667,242.38530751875925
68,0,0.08854170208333334,242.4738492208426
49,0,0,242.4738492208426
73,127,0.0007440479166666667,242.47459326875926
44,112,0,242.47459326875926
73,0,0.08854170208333334,242.5631349708426
61,112,0.0007440479166666667,242.56387901875928
44,0,0.07961312708333333,242.6434921458426
61,0,0.0044642875000000005,242.6479564333426
64,49,0.005208335416666667,242.65316476875927
37,49,0,242.65316476875927
64,0,0.08705360625,242.74021837500928
63,49,0.0007440479166666667,242.74096242292595
63,0,0.08854170208333334,242.8295041250093
37,0,0,242.8295041250093
68,73,0.0007440479166666667,242.83024817292596
54,49,0,242.83024817292596
68,0,0.08854170208333334,242.9187898750093
56,49,0.0007440479166666667,242.91953392292598
56,0,0.08407741458333333,243.0036113375093
54,0,0.0044642875000000005,243.00807562500933
64,49,0.0007440479166666667,243.008819672926
48,49,0,243.008819672926
64,0,0.08854170208333334,243.09736137500934
63,49,0.0007440479166666667,243.098105422926
63,0,0.08854170208333334,243.18664712500936
48,0,0,243.18664712500936
68,73,0.0007440479166666667,243.18739117292603
44,49,0,243.18739117292603
68,0,0.08854170208333334,243.27593287500937
56,49,0.0007440479166666667,243.27667692292604
44,0,0.07961312708333333,243.35629005000936
56,0,0.0044642875000000005,243.36075433750938
63,49,0.005208335416666667,243.36596267292603
37,49,0,243.36596267292603
63,0,0.08705360625,243.45301627917604
61,49,0.0007440479166666667,243.4537603270927
61,0,0.08854170208333334,243.54230202917606
37,0,0,243.54230202917606
68,73,0.0007440479166666667,243.54304607709273
52,49,0,243.54304607709273
68,0,0.08854170208333334,243.63158777917607
56,49,0.0007440479166666667,243.63233182709274
56,0,0.08407741458333333,243.71640924167608
52,0,0.0044642875000000005,243.7208735291761
69,112,0.0007440479166666667,243.72161757709276
49,112,0,243.72161757709276
69,0,0.08854170208333334,243.8101592791761
68,112,0.0007440479166666667,243.81090332709277
68,0,0.08854170208333334,243.89944502917612
49,0,0,243.89944502917612
76,127,0.0007440479166666667,243.9001890770928
44,112,0,243.9001890770928
76,0,0.08854170208333334,243.98873077917614
64,112,0.0007440479166666667,243.9894748270928
44,0,0.07961312708333333,244.06908795417613
64,0,0.0044642875000000005,244.07355224167614
66,112,0.005208335416666667,244.0787605770928
37,112,0,244.0787605770928
66,0,0.08705360625,244.1658141833428
64,112,0.0007440479166666667,244.16655823125947
64,0,0.08854170208333334,244.25509993334282
37,0,0,244.25509993334282
73,127,0.0007440479166666667,244.2558439812595
56,112,0,244.2558439812595
73,0,0.08854170208333334,244.34438568334284
61,112,0.0007440479166666667,244.3451297312595
61,0,0.08407741458333333,244.42920714584284
56,0,0.0044642875000000005,244.43367143334285
69,112,0.0007440479166666667,244.43441548125952
49,112,0,244.43441548125952
69,0,0.08854170208333334,244.52295718334287
68,112,0.0007440479166666667,244.52370123125954
68,0,0.08854170208333334,244.61224293334288
49,0,0,244.61224293334288
76,127,0.0007440479166666667,244.61298698125955
44,112,0,244.61298698125955
76,0,0.08854170208333334,244.7015286833429
64,112,0.0007440479166666667,244.70227273125957
44,0,0.07961312708333333,244.7818858583429
64,0,0.0044642875000000005,244.7863501458429
63,112,0.005208335416666667,244.79155848125956
37,112,0,244.79155848125956
63,0,0.08705360625,244.87861208750957
61,112,0.0007440479166666667,244.87935613542624
61,0,0.08854170208333334,244.96789783750958
37,0,0,244.96789783750958
68,127,0.0007440479166666667,244.96864188542625
52,112,0,244.96864188542625
68,0,0.08854170208333334,245.0571835875096
56,112,0.0007440479166666667,245.05792763542627
56,0,0.08407741458333333,245.1420050500096
52,0,0.0044642875000000005,245.14646933750961
69,112,0.0007440479166666667,245.14721338542628
49,112,0,245.14721338542628
69,0,0.08854170208333334,245.23575508750963
68,112,0.0007440479166666667,245.2364991354263
68,0,0.08854170208333334,245.32504083750965
49,0,0,245.32504083750965
76,127,0.0007440479166666667,245.32578488542632
44,112,0,245.32578488542632
76,0,0.08854170208333334,245.41432658750966
64,112,0.0007440479166666667,245.41507063542633
44,0,0.07961312708333333,245.49468376250965
64,0,0.0044642875000000005,245.49914805000967
66,112,0.005208335416666667,245.50435638542632
37,112,0,245.50435638542632
66,0,0.08854170208333334,245.59289808750967
64,112,0.0007440479166666667,245.59364213542634
64,0,0.08854170208333334,245.68218383750968
37,0,0,245.68218383750968
73,127,0.0007440479166666667,245.68292788542635
56,112,0,245.68292788542635
73,0,0.08854170208333334,245.7714695875097
61,112,0.0007440479166666667,245.77221363542637
61,0,0.08407741458333333,245.8562910500097
56,0,0.0044642875000000005,245.86075533750972
69,112,0.0007440479166666667,245.86149938542638
49,112,0,245.86149938542638
69,0,0.08854170208333334,245.95004108750973
68,112,0.0007440479166666667,245.9507851354264
68,0,0.08854170208333334,246.03932683750975
49,0,0,246.03932683750975
76,127,0.0007440479166666667,246.04007088542642
44,112,0,246.04007088542642
76,0,0.08854170208333334,246.12861258750976
64,112,0.0007440479166666667,246.12935663542643
44,0,0.07961312708333333,246.20896976250975
64,0,0.0044642875000000005,246.21343405000977
66,112,0.005208335416666667,246.21864238542642
37,112,0,246.21864238542642
66,0,0.08705360625,246.30569599167643
64,111,0.0007440479166666667,246.3064400395931
64,0,0.08854170208333334,246.39498174167645
37,0,0,246.39498174167645
73,109,0.0007440479166666667,246.39572578959311
52,109,0,246.39572578959311
73,0,0.08854170208333334,246.48426749167646
61,108,0.0007440479166666667,246.48501153959313
61,0,0.08407741458333333,246.56908895417646
52,0,0.0044642875000000005,246.57355324167648
69,106,0.0007440479166666667,246.57429728959315
49,106,0,246.57429728959315
69,0,0.08854170208333334,246.6628389916765
68,105,0.0007440479166666667,246.66358303959316
68,0,0.08854170208333334,246.7521247416765
49,0,0,246.7521247416765
73,103,0.0007440479166666667,246.75286878959318
44,103,0,246.75286878959318
73,0,0.08854170208333334,246.84141049167653
61,101,0.0007440479166666667,246.8421545395932
44,0,0.07961312708333333,246.92176766667652
61,0,0.0044642875000000005,246.92623195417653
66,100,0.005208335416666667,246.93144028959318
37,100,0,246.93144028959318
66,0,0.08705360625,247.0184938958432
64,98,0.0007440479166666667,247.01923794375986
64,0,0.08854170208333334,247.1077796458432
37,0,0,247.1077796458432
73,97,0.0007440479166666667,247.10852369375988
52,97,0,247.10852369375988
73,0,0.08854170208333334,247.19706539584323
61,95,0.0007440479166666667,247.1978094437599
61,0,0.08407741458333333,247.28188685834323
52,0,0.0044642875000000005,247.28635114584324
69,94,0.0007440479166666667,247.2870951937599
49,94,0,247.2870951937599
69,0,0.08854170208333334,247.37563689584326
68,92,0.0007440479166666667,247.37638094375993
68,0,0.08854170208333334,247.46492264584327
49,0,0,247.46492264584327
73,90,0.0007440479166666667,247.46566669375994
44,90,0,247.46566669375994
73,0,0.08854170208333334,247.5542083958433
61,89,0.0007440479166666667,247.55495244375996
44,0,0.07961312708333333,247.63456557084328
61,0,0.0044642875000000005,247.6390298583433
66,87,0.005208335416666667,247.64423819375995
37,87,0,247.64423819375995
66,0,0.08705360625,247.73129180000996
64,86,0.0007440479166666667,247.73203584792662
64,0,0.08854170208333334,247.82057755000997
37,0,0,247.82057755000997
73,84,0.0007440479166666667,247.82132159792664
52,84,0,247.82132159792664
73,0,0.08854170208333334,247.90986330001
61,83,0.0007440479166666667,247.91060734792666
61,0,0.08407741458333333,247.99468476251
52,0,0.0044642875000000005,247.99914905001
69,81,0.0007440479166666667,247.99989309792667
49,81,0,247.99989309792667
69,0,0.08854170208333334,248.08843480001002
68,79,0.0007440479166666667,248.0891788479267
68,0,0.08854170208333334,248.17772055001004
49,0,0,248.17772055001004
73,78,0.0007440479166666667,248.1784645979267
44,78,0,248.1784645979267
73,0,0.08854170208333334,248.26700630001005
61,76,0.0007440479166666667,248.26775034792672
44,0,0.07961312708333333,248.34736347501004
61,0,0.0044642875000000005,248.35182776251006
66,75,0.005208335416666667,248.3570360979267
37,75,0,248.3570360979267
66,0,0.08854170208333334,248.44557780001006
64,73,0.0007440479166666667,248.44632184792673
64,0,0.08854170208333334,248.53486355001007
37,0,0,248.53486355001007
73,72,0.0007440479166666667,248.53560759792674
52,72,0,248.53560759792674
73,0,0.08854170208333334,248.6241493000101
61,70,0.0007440479166666667,248.62489334792676
61,0,0.08407741458333333,248.7089707625101
52,0,0.0044642875000000005,248.7134350500101
69,68,0.0007440479166666667,248.71417909792677
49,68,0,248.71417909792677
69,0,0.08854170208333334,248.80272080001012
68,67,0.0007440479166666667,248.8034648479268
68,0,0.08854170208333334,248.89200655001014
49,0,0,248.89200655001014
73,65,0.0007440479166666667,248.8927505979268
44,65,0,248.8927505979268
73,0,0.08854170208333334,248.98129230001015
61,64,0.0007440479166666667,248.98203634792682
44,0,0.07961312708333333,249.06164947501014
61,0,0.0044642875000000005,249.06611376251016
63,62,0.005208335416666667,249.0713220979268
37,62,0,249.0713220979268
63,0,0.08705360625,249.15837570417682
61,61,0.0007440479166666667,249.1591197520935
61,0,0.08854170208333334,249.24766145417684
68,59,0.0007440479166666667,249.2484055020935
68,0,0.08854170208333334,249.33694720417685
56,57,0.0007440479166666667,249.33769125209352
37,0,0.07068455208333334,249.40837580417684
56,0,0.0133928625,249.42176866667685
63,56,0.005208335416666667,249.4269770020935
63,0,0.08854170208333334,249.51551870417686
61,54,0.0007440479166666667,249.51626275209352
61,0,0.08854170208333334,249.60480445417687
68,53,0.0007440479166666667,249.60554850209354
68,0,0.08854170208333334,249.6940902041769
56,51,0.0007440479166666667,249.69483425209356
56,0,0.08407741458333333,249.7789116666769
63,49,0.005208335416666667,249.78412000209354
63,0,0.08854170208333334,249.8726617041769
61,49,0.0007440479166666667,249.87340575209356
61,0,0.08854170208333334,249.9619474541769
68,48,0.0007440479166666667,249.96269150209358
68,0,0.08854170208333334,250.05123320417692
56,47,0.0007440479166666667,250.0519772520936
56,0,0.08407741458333333,250.13605466667693
63,47,0.005208335416666667,250.14126300209358
63,0,0.08854170208333334,250.22980470417693
61,46,0.0007440479166666667,250.2305487520936
61,0,0.08854170208333334,250.31909045417694
68,45,0.0007440479166666667,250.3198345020936
68,0,0.08854170208333334,250.40837620417696
56,45,0.0007440479166666667,250.40912025209363
56,0,0.08407741458333333,250.49319766667696
63,44,0.005208335416666667,250.49840600209362
63,0,0.08705360625,250.58545960834363
61,43,0.0007440479166666667,250.5862036562603
61,0,0.08854170208333334,250.67474535834364
68,43,0.0007440479166666667,250.6754894062603
68,0,0.08854170208333334,250.76403110834366
56,42,0.0007440479166666667,250.76477515626033
56,0,0.08407741458333333,250.84885257084366
63,41,0.005208335416666667,250.85406090626032
63,0,0.08854170208333334,250.94260260834366
61,41,0.0007440479166666667,250.94334665626033
61,0,0.08854170208333334,251.03188835834368
68,40,0.0007440479166666667,251.03263240626035
68,0,0.08854170208333334,251.1211741083437
56,39,0.0007440479166666667,251.12191815626036
56,0,0.08407741458333333,251.2059955708437
63,39,0.005208335416666667,251.21120390626035
63,0,0.08854170208333334,251.2997456083437
61,38,0.0007440479166666667,251.30048965626037
61,0,0.08854170208333334,251.38903135834371
68,37,0.0007440479166666667,251.38977540626038
68,0,0.08854170208333334,251.47831710834373
56,37,0.0007440479166666667,251.4790611562604
56,0,0.08407741458333333,251.56313857084373
63,36,0.005208335416666667,251.5683469062604
63,0,0.08854170208333334,251.65688860834373
61,35,0.0007440479166666667,251.6576326562604
61,0,0.08854170208333334,251.74617435834375
68,35,0.0007440479166666667,251.74691840626042
68,0,0.08854170208333334,251.83546010834377
56,34,0.0007440479166666667,251.83620415626044
56,0,0.08407741458333333,251.92028157084377
63,33,0.005208335416666667,251.92548990626042
37,33,0,251.92548990626042
44,64,0,251.92548990626042
63,0,0.08705360625,252.01254351251043
61,33,0.0007440479166666667,252.0132875604271
61,0,0.08854170208333334,252.10182926251045
68,33,0.0007440479166666667,252.10257331042712
68,0,0.08854170208333334,252.19111501251047
56,33,0.0007440479166666667,252.19185906042713
56,0,0.08407741458333333,252.27593647501047
63,33,0.005208335416666667,252.28114481042712
63,0,0.08854170208333334,252.36968651251047
61,33,0.0007440479166666667,252.37043056042714
61,0,0.08854170208333334,252.45897226251049
68,33,0.0007440479166666667,252.45971631042715
68,0,0.08854170208333334,252.5482580125105
56,33,0.0007440479166666667,252.54900206042717
56,0,0.08407741458333333,252.6330794750105
63,33,0.005208335416666667,252.63828781042716
63,0,0.08854170208333334,252.7268295125105
61,33,0.0007440479166666667,252.72757356042717
61,0,0.08854170208333334,252.81611526251052
68,33,0.0007440479166666667,252.8168593104272
68,0,0.08854170208333334,252.90540101251054
56,33,0.0007440479166666667,252.9061450604272
56,0,0.08407741458333333,252.99022247501054
63,33,0.005208335416666667,252.9954308104272
63,0,0.08854170208333334,253.08397251251054
61,33,0.0007440479166666667,253.0847165604272
61,0,0.08854170208333334,253.17325826251056
68,33,0.0007440479166666667,253.17400231042723
68,0,0.08854170208333334,253.26254401251057
56,33,0.0007440479166666667,253.26328806042724
56,0,0.08407741458333333,253.34736547501058
37,0,0.0044642875000000005,253.3518297625106
44,0,0,253.3518297625106
63,33,0.0007440479166666667,253.35257381042726
46,64,0,253.35257381042726
63,0,0.08705360625,253.43962741667727
61,33,0.0007440479166666667,253.44037146459394
61,0,0.08854170208333334,253.52891316667728
68,33,0.0007440479166666667,253.52965721459395
68,0,0.08854170208333334,253.6181989166773
56,33,0.0007440479166666667,253.61894296459397
56,0,0.08407741458333333,253.7030203791773
46,0,0.0044642875000000005,253.70748466667732
63,33,0.0007440479166666667,253.708228714594
44,64,0,253.708228714594
63,0,0.08705360625,253.795282320844
61,33,0.0007440479166666667,253.79602636876066
61,0,0.08854170208333334,253.884568070844
68,33,0.0007440479166666667,253.88531211876068
68,0,0.08854170208333334,253.97385382084403
56,33,0.0007440479166666667,253.9745978687607
56,0,0.08407741458333333,254.05867528334403
44,0,0.0044642875000000005,254.06313957084404
63,33,0.0007440479166666667,254.0638836187607
49,64,0,254.0638836187607
63,0,0.08705360625,254.15093722501072
61,33,0.0007440479166666667,254.1516812729274
61,0,0.08854170208333334,254.24022297501074
68,33,0.0007440479166666667,254.2409670229274
68,0,0.08854170208333334,254.32950872501075
56,33,0.0007440479166666667,254.33025277292742
56,0,0.08407741458333333,254.41433018751076
49,0,0.0044642875000000005,254.41879447501077
63,33,0.0007440479166666667,254.41953852292744
51,64,0,254.41953852292744
63,0,0.08705360625,254.50659212917745
61,33,0.0007440479166666667,254.50733617709412
61,0,0.08854170208333334,254.59587787917746
68,33,0.0007440479166666667,254.59662192709413
68,0,0.08854170208333334,254.68516362917748
56,33,0.0007440479166666667,254.68590767709415
56,0,0.08407741458333333,254.76998509167748
51,0,0.0044642875000000005,254.7744493791775
63,33,0.0007440479166666667,254.77519342709417
53,64,0,254.77519342709417
63,0,0.08705360625,254.86224703334418
61,33,0.0007440479166666667,254.86299108126084
61,0,0.08854170208333334,254.9515327833442
68,33,0.0007440479166666667,254.95227683126086
68,0,0.08854170208333334,255.0408185333442
56,33,0.0007440479166666667,255.04156258126088
56,0,0.08407741458333333,255.1256399958442
63,33,0.005208335416666667,255.13084833126086
63,0,0.08854170208333334,255.2193900333442
61,33,0.0007440479166666667,255.22013408126088
61,0,0.08854170208333334,255.30867578334423
68,33,0.0007440479166666667,255.3094198312609
68,0,0.08854170208333334,255.39796153334424
56,33,0.0007440479166666667,255.3987055812609
56,0,0.08407741458333333,255.48278299584425
63,33,0.005208335416666667,255.4879913312609
63,0,0.08854170208333334,255.57653303334425
61,33,0.0007440479166666667,255.57727708126092
61,0,0.08854170208333334,255.66581878334426
68,33,0.0007440479166666667,255.66656283126093
68,0,0.08854170208333334,255.75510453334428
56,33,0.0007440479166666667,255.75584858126095
56,0,0.08407741458333333,255.83992599584428
63,33,0.005208335416666667,255.84513433126094
63,0,0.08854170208333334,255.93367603334428
61,33,0.0007440479166666667,255.93442008126095
61,0,0.08854170208333334,256.0229617833443
68,33,0.0007440479166666667,256.02370583126094
68,0,0.08854170208333334,256.11224753334426
56,33,0.0007440479166666667,256.1129915812609
53,0,0.017113102083333335,256.13010468334426
56,0,0.0669643125,256.19706899584423
63,33,0,256.19706899584423
56,96,0,256.19706899584423
63,0,0.0881024625,256.2851714583442
61,33,0.0007530125,256.28592447084424
61,0,0.0896084875,256.37553295834425
68,33,0.0007530125,256.37628597084426
68,0,0.0896084875,256.4658944583443
56,33,0.0007530125,256.4666474708443
56,0,0,256.4666474708443
63,33,0.0903615,256.55700897084427
63,0,0.0896084875,256.6466174583443
61,33,0.0007530125,256.6473704708443
61,0,0.0896084875,256.7369789583443
68,33,0.0007530125,256.7377319708443
68,0,0.0896084875,256.82734045834434
56,0,0.0007530125,256.82809347084435
56,33,0,256.82809347084435
63,33,0,256.82809347084435
63,0,0.09070130416666665,256.918794775011
61,33,0.0007621958333333332,256.9195569708443
61,0,0.09070130416666665,257.010258275011
68,33,0.0007621958333333332,257.0110204708443
68,0,0.09070130416666665,257.10172177501096
56,0,0.0007621958333333332,257.1024839708443
56,33,0,257.1024839708443
63,33,0.09146349999999999,257.19394747084425
63,0,0.09070130416666665,257.2846487750109
61,33,0.0007621958333333332,257.2854109708442
61,0,0.09070130416666665,257.3761122750109
68,33,0.0007621958333333332,257.3768744708442
68,0,0.09070130416666665,257.46757577501086
56,0,0.0007621958333333332,257.4683379708442
56,33,0,257.4683379708442
56,0,0.09070130416666665,257.55903927501083
63,33,0,257.55903927501083
54,64,0,257.55903927501083
63,0,0.0902776875,257.64931696251085
61,33,0.0007716041666666666,257.65008856667754
61,0,0.09182089583333333,257.7419094625109
68,33,0.0007716041666666666,257.74268106667756
68,0,0.09182089583333333,257.8345019625109
56,33,0.0007716041666666666,257.8352735666776
56,0,0.08719127083333333,257.9224648375109
63,33,0,257.9224648375109
63,0,0.09296875,258.0154335875109
61,33,0.00078125,258.0162148375109
61,0,0.09296875,258.1091835875109
68,33,0.00078125,258.1099648375109
68,0,0.09296875,258.2029335875109
56,33,0.00078125,258.2037148375109
56,0,0.08828125,258.29199608751094
54,0,0.004687500000000001,258.2966835875109
63,33,0,258.2966835875109
53,64,0,258.2966835875109
63,0,0.09256333124999999,258.38924691876093
61,33,0.0007911395833333333,258.39003805834426
61,0,0.09414561041666666,258.4841836687609
68,33,0.0007911395833333333,258.48497480834425
68,0,0.09414561041666666,258.5791204187609
56,33,0.0007911395833333333,258.57991155834424
56,0,0.08939877291666666,258.6693103312609
63,33,0,258.6693103312609
63,0,0.09535246875,258.76466280001085
61,33,0.00080128125,258.76546408126086
61,0,0.09535246875,258.86081655001084
68,33,0.00080128125,258.86161783126084
68,0,0.09535246875,258.9569703000108
56,33,0.00080128125,258.95777158126083
56,0,0.09054478125,259.04831636251083
53,0,0.0048076875,259.0531240500108
63,33,0,259.0531240500108
51,64,0,259.0531240500108
63,0,0.09496743749999999,259.1480914875108
61,33,0.0008116874999999999,259.1489031750108
61,0,0.09659081249999998,259.24549398751077
68,33,0,259.24549398751077
68,0,0.09786188125,259.3433558687608
56,33,0.00082236875,259.3441782375108
56,0,0.09292766875,259.4371059062608
63,33,0,259.4371059062608
63,0,0.09916666666666667,259.5362725729275
61,33,0.0008333333333333333,259.5371059062608
61,0,0.09916666666666667,259.6362725729275
68,33,0,259.6362725729275
68,0,0.10050665624999999,259.7367792291775
56,33,0.00084459375,259.7376238229275
56,0,0.09543909375,259.8330629166775
51,0,0.0050675625,259.8381304791775
63,33,0.00084459375,259.8389750729275
53,64,0,259.8389750729275
63,0,0.09881746875,259.9377925416775
61,33,0,259.9377925416775
61,0,0.10188358541666666,260.03967612709414
68,33,0.0008561645833333332,260.0405322916775
68,0,0.10188358541666666,260.14241587709415
56,33,0.0008561645833333332,260.1432720416775
56,0,0.09674659791666665,260.24001863959415
53,0,0.005136987499999999,260.24515562709416
63,33,0,260.24515562709416
49,64,0,260.24515562709416
63,0,0.10156258124999999,260.34671820834416
61,33,0.00086805625,260.34758626459416
61,0,0.10329869374999999,260.45088495834415
68,33,0.00086805625,260.45175301459415
68,0,0.10329869374999999,260.55505170834414
56,33,0.00086805625,260.55591976459414
56,0,0.09809035625,260.65401012084413
49,0,0.0052083375,260.6592184583441
63,33,0.00086805625,260.6600865145941
44,64,0,260.6600865145941
63,0,0.10156258124999999,260.7616490958441
61,33,0,260.7616490958441
61,0,0.10475346875,260.8664025645941
68,33,0.00088028125,260.8672828458441
68,0,0.10475346875,260.9720363145941
53,33,0.00088028125,260.9729165958441
53,0,0.09947178125,261.07238837709406
63,32,0.00616196875,261.07855034584406
63,0,0.10475346875,261.18330381459407
61,32,0.00088028125,261.18418409584405
61,0,0.10475346875,261.28893756459405
68,32,0,261.28893756459405
68,0,0.10624989375,261.395187458344
53,32,0.00089285625,261.39608031459403
53,0,0.10089275625,261.49697307084404
63,31,0.00624999375,261.503223064594
63,0,0.10624989375,261.609472958344
61,31,0,261.609472958344
61,0,0.10778995208333332,261.71726291042734
68,31,0.0009057979166666666,261.718168708344
68,0,0.10778995208333332,261.8259586604274
53,30,0.0009057979166666666,261.82686445834406
53,0,0.10235516458333332,261.9292196229274
63,30,0.006340585416666666,261.9355602083441
63,0,0.10778995208333332,262.04335016042745
61,30,0,262.04335016042745
61,0,0.10937488333333333,262.15272504376077
68,30,0.0009191166666666666,262.15364416042746
68,0,0.10937488333333333,262.2630190437608
53,29,0.0009191166666666666,262.2639381604275
44,0,0.021139683333333333,262.2850778437608
53,0,0.0827205,262.3677983437608
65,29,0,262.3677983437608
32,44,0,262.3677983437608
44,44,0,262.3677983437608
65,0,0.11079534375,262.4785936875108
63,29,0.00094696875,262.4795406562608
63,0,0.11268928125,262.5922299375108
68,28,0.00094696875,262.5931769062608
68,0,0.11268928125,262.7058661875108
54,28,0.00094696875,262.7068131562608
54,0,0.10700746875,262.8138206250108
65,28,0,262.8138206250108
65,0,0.1162109375,262.9300315625108
63,28,0.0009765625,262.9310081250108
63,0,0.1162109375,263.0472190625108
68,27,0.0009765625,263.0481956250108
68,0,0.1162109375,263.1644065625108
54,27,0.0009765625,263.1653831250108
54,0,0.1103515625,263.2757346875108
65,27,0,263.2757346875108
65,0,0.12192616041666665,263.39766084792745
63,26,0.0010245895833333333,263.3986854375108
63,0,0.12192616041666665,263.5206115979274
68,26,0.0010245895833333333,263.52163618751075
68,0,0.12192616041666665,263.6435623479274
54,26,0.0010245895833333333,263.6445869375107
54,0,0.11577862291666666,263.7603655604274
65,26,0,263.7603655604274
65,0,0.12823266458333332,263.8885982250107
63,25,0.0010775854166666665,263.8896758104274
63,0,0.12823266458333332,264.0179084750107
68,25,0.0010775854166666665,264.0189860604274
68,0,0.12823266458333332,264.1472187250107
54,25,0.0010775854166666665,264.1482963104274
32,0,0.02478446458333333,264.1730807750107
44,0,0,264.1730807750107
54,0,0.09698268749999998,264.2700634625107
37,24,0,264.2700634625107
44,24,0.09531250000000001,264.36537596251065
54,24,0.09843750000000001,264.46381346251064
56,24,0.1,264.56381346251067
60,24,0.1015625,264.66537596251067
63,24,0.09843750000000001,264.76381346251065
44,0,2.5,267.26381346251065
54,0,0,267.26381346251065
56,0,0,267.26381346251065
60,0,0,267.26381346251065
63,0,0,267.26381346251065
37,0,0.0015625,267.26537596251063
37,24,0,267.26537596251063
44,24,0.12268517291666665,267.3880611354273
53,24,0.13425924583333332,267.5223203812606
56,24,0.13657406041666664,267.65889444167726
61,24,0.12962961666666667,267.7885240583439
44,0,3.912036645833333,271.70056070417724
53,0,0,271.70056070417724
56,0,0,271.70056070417724
61,0,0,271.70056070417724
37,0,0.002314814583333333,271.70287551876055
64,49,0,0.0
64,0,0.8315968895833333,0.8315968895833333
73,49,0,0.8315968895833333
40,49,0,0.8315968895833333
73,0,0.61979141875,1.4513883083333332
74,49,0.0017361104166666666,1.4531244187499999
74,0,0.2065971395833333,1.6597215583333331
40,0,0,1.6597215583333331
62,49,0.0017361104166666666,1.6614576687499998
68,49,0,1.6614576687499998
71,49,0,1.6614576687499998
52,49,0,1.6614576687499998
64,49,0,1.6614576687499998
62,0,0.8315968895833333,2.4930545583333332
68,0,0,2.4930545583333332
71,0,0,2.4930545583333332
52,0,0,2.4930545583333332
64,0,0,2.4930545583333332
62,49,0.0017361104166666666,2.49479066875
68,49,0,2.49479066875
71,49,0,2.49479066875
52,49,0,2.49479066875
64,49,0,2.49479066875
62,0,0.8315968895833333,3.3263875583333333
68,0,0,3.3263875583333333
71,0,0,3.3263875583333333
52,0,0,3.3263875583333333
64,0,0,3.3263875583333333
62,49,0.0017361104166666666,3.32812366875
68,49,0,3.32812366875
71,49,0,3.32812366875
52,49,0,3.32812366875
64,49,0,3.32812366875
62,0,1.6649298895833333,4.993053558333333
68,0,0,4.993053558333333
71,0,0,4.993053558333333
52,0,0,4.993053558333333
64,0,0,4.993053558333333
74,49,0.0017361104166666666,4.99478966875
78,49,0,4.99478966875
74,0,0.8298607791666667,5.8246504479166665
78,0,0,5.8246504479166665
72,49,0.0017361104166666666,5.826386558333334
75,49,0,5.826386558333334
45,49,0,5.826386558333334
72,0,0.61979141875,6.446177977083334
75,0,0,6.446177977083334
73,49,0.0017361104166666666,6.447914087500001
76,49,0,6.447914087500001
76,0,0.2065971395833333,6.654511227083335
45,0,0,6.654511227083335
81,49,0.0017361104166666666,6.656247337500002
57,49,0,6.656247337500002
64,49,0,6.656247337500002
73,0,0.8315968895833333,7.487844227083335
81,0,0,7.487844227083335
57,0,0,7.487844227083335
64,0,0,7.487844227083335
73,49,0.0017361104166666666,7.489580337500002
81,49,0,7.489580337500002
57,49,0,7.489580337500002
64,49,0,7.489580337500002
73,0,0.8315968895833333,8.321177227083336
81,0,0,8.321177227083336
57,0,0,8.321177227083336
64,0,0,8.321177227083336
73,49,0.0017361104166666666,8.322913337500003
81,49,0,8.322913337500003
57,49,0,8.322913337500003
64,49,0,8.322913337500003
73,0,1.6649298895833333,9.987843227083337
81,0,0,9.987843227083337
57,0,0,9.987843227083337
64,0,0,9.987843227083337
64,49,0.0017361104166666666,9.989579337500004
73,49,0,9.989579337500004
64,0,0.8298607791666667,10.819440116666671
73,0,0,10.819440116666671
61,49,0.0017361104166666666,10.821176227083338
70,49,0,10.821176227083338
40,49,0,10.821176227083338
61,0,0.61979141875,11.440967645833338
70,0,0,11.440967645833338
62,49,0.0017361104166666666,11.442703756250005
71,49,0,11.442703756250005
71,0,0.2065971395833333,11.649300895833338
40,0,0,11.649300895833338
66,49,0.0017361104166666666,11.651037006250005
74,49,0,11.651037006250005
52,49,0,11.651037006250005
59,49,0,11.651037006250005
66,0,0.8315968895833333,12.482633895833338
74,0,0,12.482633895833338
52,0,0,12.482633895833338
59,0,0,12.482633895833338
66,49,0.0017361104166666666,12.484370006250005
74,49,0,12.484370006250005
52,49,0,12.484370006250005
59,49,0,12.484370006250005
66,0,0.8315968895833333,13.315966895833338
74,0,0,13.315966895833338
52,0,0,13.315966895833338
59,0,0,13.315966895833338
66,49,0.0017361104166666666,13.317703006250005
74,49,0,13.317703006250005
52,49,0,13.317703006250005
59,49,0,13.317703006250005
62,0,1.6649298895833333,14.982632895833339
66,0,0,14.982632895833339
74,0,0,14.982632895833339
52,0,0,14.982632895833339
59,0,0,14.982632895833339
62,49,0.0017361104166666666,14.984369006250006
68,49,0,14.984369006250006
62,0,0.8298607791666667,15.814229785416673
68,0,0,15.814229785416673
62,49,0.0017361104166666666,15.81596589583334
68,49,0,15.81596589583334
33,49,0,15.81596589583334
62,0,0.61979141875,16.43575731458334
68,0,0,16.43575731458334
61,49,0.0017361104166666666,16.437493425000007
69,49,0,16.437493425000007
69,0,0.2065971395833333,16.64409056458334
33,0,0,16.64409056458334
73,49,0.0017361104166666666,16.645826675000006
52,49,0,16.645826675000006
57,49,0,16.645826675000006
64,49,0,16.645826675000006
61,0,0.8315968895833333,17.47742356458334
73,0,0,17.47742356458334
52,0,0,17.47742356458334
57,0,0,17.47742356458334
64,0,0,17.47742356458334
61,49,0.0017361104166666666,17.479159675000005
73,49,0,17.479159675000005
52,49,0,17.479159675000005
57,49,0,17.479159675000005
64,49,0,17.479159675000005
61,0,0.8315968895833333,18.31075656458334
73,0,0,18.31075656458334
52,0,0,18.31075656458334
57,0,0,18.31075656458334
64,0,0,18.31075656458334
61,49,0.0017361104166666666,18.312492675000005
73,49,0,18.312492675000005
52,49,0,18.312492675000005
57,49,0,18.312492675000005
64,49,0,18.312492675000005
61,0,1.6649298895833333,19.97742256458334
73,0,0,19.97742256458334
52,0,0,19.97742256458334
57,0,0,19.97742256458334
64,0,0,19.97742256458334
64,49,0.0017361104166666666,19.979158675000004
68,49,0.8315968895833333,20.81075556458334
73,49,0,20.81075556458334
40,49,0,20.81075556458334
73,0,0.61979141875,21.43054698333334
74,49,0.0017361104166666666,21.432283093750005
64,0,0.2065971395833333,21.63888023333334
68,0,0,21.63888023333334
74,0,0,21.63888023333334
40,0,0,21.63888023333334
62,49,0.0017361104166666666,21.640616343750004
68,49,0,21.640616343750004
71,49,0,21.640616343750004
52,49,0,21.640616343750004
64,49,0,21.640616343750004
62,0,0.8315968895833333,22.47221323333334
68,0,0,22.47221323333334
71,0,0,22.47221323333334
52,0,0,22.47221323333334
64,0,0,22.47221323333334
62,49,0.0017361104166666666,22.473949343750004
68,49,0,22.473949343750004
71,49,0,22.473949343750004
52,49,0,22.473949343750004
64,49,0,22.473949343750004
62,0,0.8315968895833333,23.305546233333338
68,0,0,23.305546233333338
71,0,0,23.305546233333338
52,0,0,23.305546233333338
64,0,0,23.305546233333338
62,49,0.0017361104166666666,23.307282343750003
68,49,0,23.307282343750003
71,49,0,23.307282343750003
52,49,0,23.307282343750003
64,49,0,23.307282343750003
62,0,1.6649298895833333,24.972212233333337
68,0,0,24.972212233333337
71,0,0,24.972212233333337
52,0,0,24.972212233333337
64,0,0,24.972212233333337
74,49,0.0017361104166666666,24.973948343750003
78,49,0,24.973948343750003
74,0,0.8298607791666667,25.803809122916668
78,0,0,25.803809122916668
72,49,0.0017361104166666666,25.805545233333333
75,49,0,25.805545233333333
45,49,0,25.805545233333333
72,0,0.61979141875,26.425336652083335
75,0,0,26.425336652083335
73,68,0.0017361104166666666,26.4270727625
76,68,0,26.4270727625
45,0,0.2065971395833333,26.633669902083334
81,77,0.0017361104166666666,26.6354060125
85,77,0,26.6354060125
57,77,0,26.6354060125
64,77,0,26.6354060125
69,77,0,26.6354060125
81,0,0.8315968895833333,27.467002902083333
85,0,0,27.467002902083333
57,0,0,27.467002902083333
64,0,0,27.467002902083333
69,0,0,27.467002902083333
81,87,0.0017361104166666666,27.4687390125
85,87,0,27.4687390125
57,87,0,27.4687390125
64,87,0,27.4687390125
69,87,0,27.4687390125
73,0,0.8315968895833333,28.300335902083333
76,0,0,28.300335902083333
81,0,0,28.300335902083333
85,0,0,28.300335902083333
57,0,0,28.300335902083333
64,0,0,28.300335902083333
69,0,0,28.300335902083333
70,96,0.0017361104166666666,28.3020720125
73,96,0,28.3020720125
76,96,0,28.3020720125
82,96,0,28.3020720125
85,96,0,28.3020720125
54,96,0,28.3020720125
61,96,0,28.3020720125
64,96,0,28.3020720125
66,96,0,28.3020720125
70,0,1.66145766875,29.963529681249998
73,0,0,29.963529681249998
76,0,0,29.963529681249998
82,0,0,29.963529681249998
85,0,0,29.963529681249998
54,0,0,29.963529681249998
61,0,0,29.963529681249998
64,0,0,29.963529681249998
66,0,0,29.963529681249998
70,49,0.0017361104166666666,29.965265791666663
73,49,0,29.965265791666663
70,0,0.8298607791666667,30.79512657083333
73,0,0,30.79512657083333
70,49,0.0017361104166666666,30.796862681249994
73,49,0,30.796862681249994
35,49,0,30.796862681249994
70,0,0.61979141875,31.416654099999995
73,0,0,31.416654099999995
71,49,0.0017361104166666666,31.41839021041666
74,49,0,31.41839021041666
74,0,0.2065971395833333,31.624987349999994
35,0,0,31.624987349999994
78,49,0.0017361104166666666,31.62672346041666
54,49,0,31.62672346041666
62,49,0,31.62672346041666
71,0,0.8315968895833333,32.458320349999994
78,0,0,32.458320349999994
54,0,0,32.458320349999994
62,0,0,32.458320349999994
69,49,0.0017361104166666666,32.46005646041666
78,49,0,32.46005646041666
54,49,0,32.46005646041666
59,49,0,32.46005646041666
62,49,0,32.46005646041666
69,0,0.8315968895833333,33.29165334999999
78,0,0,33.29165334999999
54,0,0,33.29165334999999
59,0,0,33.29165334999999
62,0,0,33.29165334999999
68,49,0.0017361104166666666,33.293389460416655
78,49,0,33.293389460416655
52,49,0,33.293389460416655
59,49,0,33.293389460416655
62,49,0,33.293389460416655
68,0,1.66145766875,34.95484712916666
78,0,0,34.95484712916666
52,0,0,34.95484712916666
59,0,0,34.95484712916666
62,0,0,34.95484712916666
62,49,0.0017361104166666666,34.956583239583324
68,49,0,34.956583239583324
62,0,0.8298607791666667,35.78644401874999
68,0,0,35.78644401874999
62,49,0.0017361104166666666,35.788180129166655
71,49,0,35.788180129166655
33,49,0,35.788180129166655
62,0,0.61979141875,36.40797154791665
71,0,0,36.40797154791665
61,49,0.0017361104166666666,36.40970765833332
69,49,0,36.40970765833332
61,0,0.2065971395833333,36.61630479791665
69,0,0,36.61630479791665
33,0,0,36.61630479791665
81,49,0.0017361104166666666,36.61804090833331
69,49,0,36.61804090833331
52,49,0,36.61804090833331
57,49,0,36.61804090833331
64,49,0,36.61804090833331
81,0,0.062499975,36.680540883333315
73,49,0.0017361104166666666,36.68227699374998
81,49,0,36.68227699374998
73,0,0.76562469375,37.44790168749998
81,0,0,37.44790168749998
52,0,0.0017361104166666666,37.449637797916644
57,0,0,37.449637797916644
64,0,0,37.449637797916644
73,49,0.0017361104166666666,37.45137390833331
81,49,0,37.45137390833331
52,49,0,37.45137390833331
57,49,0,37.45137390833331
64,49,0,37.45137390833331
73,0,0.8315968895833333,38.28297079791664
81,0,0,38.28297079791664
52,0,0,38.28297079791664
57,0,0,38.28297079791664
64,0,0,38.28297079791664
73,49,0.0017361104166666666,38.284706908333305
81,49,0,38.284706908333305
57,49,0,38.284706908333305
64,49,0,38.284706908333305
69,0,1.6631937791666667,39.947900687499974
73,0,0.0017361104166666666,39.94963679791664
81,0,0,39.94963679791664
57,0,0,39.94963679791664
64,0,0,39.94963679791664
70,65,0,0.0
70,0,0.47291666666666665,0.47291666666666665
79,65,0,0.47291666666666665
39,65,0,0.47291666666666665
39,0,0.24375,0.7166666666666667
55,65,0.2520833333333333,0.96875
63,65,0,0.96875
55,0,0.4979166666666667,1.4666666666666668
63,0,0,1.4666666666666668
58,65,0.0020833333333333333,1.4687500000000002
63,65,0,1.4687500000000002
67,65,0,1.4687500000000002
58,0,0.47291666666666665,1.9416666666666669
63,0,0,1.9416666666666669
67,0,0,1.9416666666666669
51,65,0.027083333333333334,1.9687500000000002
51,0,0.24375,2.2125000000000004
79,0,0.25,2.4625000000000004
77,65,0.0020833333333333333,2.4645833333333336
56,65,0,2.4645833333333336
62,65,0,2.4645833333333336
77,0,0.4979166666666667,2.9625000000000004
56,0,0,2.9625000000000004
62,0,0,2.9625000000000004
79,65,0.0020833333333333333,2.9645833333333336
59,65,0,2.9645833333333336
62,65,0,2.9645833333333336
68,65,0,2.9645833333333336
59,0,0.47291666666666665,3.4375
62,0,0,3.4375
68,0,0,3.4375
79,0,0.025,3.4625
77,65,0.0020833333333333333,3.464583333333333
39,65,0,3.464583333333333
39,0,0.24375,3.708333333333333
55,65,0.2520833333333333,3.9604166666666663
63,65,0,3.9604166666666663
55,0,0.4979166666666667,4.458333333333333
63,0,0,4.458333333333333
58,65,0.0020833333333333333,4.460416666666666
63,65,0,4.460416666666666
67,65,0,4.460416666666666
58,0,0.47291666666666665,4.933333333333333
63,0,0,4.933333333333333
67,0,0,4.933333333333333
77,0,0.025,4.958333333333333
75,65,0.0020833333333333333,4.960416666666666
38,65,0,4.960416666666666
38,0,0.24375,5.204166666666667
55,65,0.2520833333333333,5.45625
63,65,0,5.45625
75,0,0.4479166666666667,5.904166666666667
55,0,0.05,5.954166666666667
63,0,0,5.954166666666667
70,65,0.0020833333333333333,5.95625
58,65,0,5.95625
63,65,0,5.95625
67,65,0,5.95625
58,0,0.47291666666666665,6.429166666666666
63,0,0,6.429166666666666
67,0,0,6.429166666666666
70,0,0.025,6.454166666666667
79,65,0.0020833333333333333,6.45625
36,65,0,6.45625
36,0,0.4708333333333333,6.927083333333333
55,67,0.027083333333333334,6.954166666666667
64,67,0,6.954166666666667
55,0,0.47291666666666665,7.427083333333333
64,0,0,7.427083333333333
79,0,0.025,7.452083333333333
74,69,0.0020833333333333333,7.454166666666667
58,69,0,7.454166666666667
64,69,0,7.454166666666667
67,69,0,7.454166666666667
74,0,0.12291666666666666,7.577083333333333
72,69,0.0020833333333333333,7.579166666666667
72,0,0.12291666666666666,7.702083333333333
70,69,0.0020833333333333333,7.704166666666667
70,0,0.12291666666666666,7.827083333333333
72,69,0.0020833333333333333,7.829166666666667
58,0,0.09791666666666667,7.927083333333333
64,0,0,7.927083333333333
67,0,0,7.927083333333333
72,0,0.025,7.952083333333333
84,71,0.0020833333333333333,7.954166666666667
48,71,0,7.954166666666667
48,0,0.47291666666666665,8.427083333333334
55,73,0.027083333333333334,8.454166666666667
64,73,0,8.454166666666667
55,0,0.47291666666666665,8.927083333333334
64,0,0,8.927083333333334
84,0,0.025,8.952083333333334
79,75,0.0020833333333333333,8.954166666666667
60,75,0,8.954166666666667
64,75,0,8.954166666666667
70,75,0,8.954166666666667
60,0,0.47291666666666665,9.427083333333334
64,0,0,9.427083333333334
70,0,0,9.427083333333334
79,0,0.025,9.452083333333334
82,75,0.0020833333333333333,9.454166666666667
41,75,0,9.454166666666667
41,0,0.47291666666666665,9.927083333333334
53,75,0.027083333333333334,9.954166666666667
61,75,0,9.954166666666667
53,0,0.47291666666666665,10.427083333333334
61,0,0,10.427083333333334
58,75,0.027083333333333334,10.454166666666667
61,75,0,10.454166666666667
64,75,0,10.454166666666667
58,0,0.47291666666666665,10.927083333333334
61,0,0,10.927083333333334
64,0,0,10.927083333333334
82,0,0.025,10.952083333333334
80,75,0.0020833333333333333,10.954166666666667
41,75,0,10.954166666666667
41,0,0.47291666666666665,11.427083333333334
53,75,0.027083333333333334,11.454166666666667
60,75,0,11.454166666666667
53,0,0.47291666666666665,11.927083333333334
60,0,0,11.927083333333334
80,0,0.025,11.952083333333334
79,75,0.0020833333333333333,11.954166666666667
56,75,0,11.954166666666667
60,75,0,11.954166666666667
65,75,0,11.954166666666667
79,0,0.47291666666666665,12.427083333333334
56,0,0,12.427083333333334
60,0,0,12.427083333333334
65,0,0,12.427083333333334
77,75,0.027083333333333334,12.454166666666667
46,75,0,12.454166666666667
46,0,0.47291666666666665,12.927083333333334
53,75,0.027083333333333334,12.954166666666667
62,75,0,12.954166666666667
53,0,0.47291666666666665,13.427083333333334
62,0,0,13.427083333333334
58,75,0.027083333333333334,13.454166666666667
62,75,0,13.454166666666667
68,75,0,13.454166666666667
77,0,0.42291666666666666,13.877083333333335
58,0,0.05,13.927083333333336
62,0,0,13.927083333333336
68,0,0,13.927083333333336
79,75,0.027083333333333334,13.95416666666667
47,75,0,13.95416666666667
47,0,0.47291666666666665,14.427083333333336
55,75,0.027083333333333334,14.45416666666667
65,75,0,14.45416666666667
55,0,0.47291666666666665,14.927083333333336
65,0,0,14.927083333333336
79,0,0.025,14.952083333333336
74,75,0.0020833333333333333,14.95416666666667
62,75,0,14.95416666666667
65,75,0,14.95416666666667
67,75,0,14.95416666666667
74,0,0.47291666666666665,15.427083333333336
62,0,0,15.427083333333336
65,0,0,15.427083333333336
67,0,0,15.427083333333336
75,75,0.027083333333333334,15.45416666666667
48,75,0,15.45416666666667
48,0,0.47291666666666665,15.927083333333336
55,75,0.027083333333333334,15.95416666666667
63,75,0,15.95416666666667
55,0,0.47291666666666665,16.427083333333336
63,0,0,16.427083333333336
60,75,0.027083333333333334,16.45416666666667
63,75,0,16.45416666666667
67,75,0,16.45416666666667
75,0,0.42291666666666666,16.877083333333335
60,0,0.05,16.927083333333336
63,0,0,16.927083333333336
67,0,0,16.927083333333336
72,75,0.027083333333333334,16.95416666666667
45,75,0,16.95416666666667
45,0,0.47291666666666665,17.427083333333336
54,75,0.027083333333333334,17.45416666666667
63,75,0,17.45416666666667
54,0,0.47291666666666665,17.927083333333336
63,0,0,17.927083333333336
60,75,0.027083333333333334,17.95416666666667
63,75,0,17.95416666666667
66,75,0,17.95416666666667
72,0,0.42291666666666666,18.377083333333335
60,0,0.05,18.427083333333336
63,0,0,18.427083333333336
66,0,0,18.427083333333336
70,75,0.027083333333333334,18.45416666666667
46,75,0,18.45416666666667
46,0,0.47291666666666665,18.927083333333336
70,0,0.025,18.952083333333334
86,75,0.0020833333333333333,18.95416666666667
53,75,0,18.95416666666667
63,75,0,18.95416666666667
86,0,0.47291666666666665,19.427083333333336
53,0,0,19.427083333333336
63,0,0,19.427083333333336
84,75,0.027083333333333334,19.45416666666667
58,75,0,19.45416666666667
63,75,0,19.45416666666667
68,75,0,19.45416666666667
58,0,0.47291666666666665,19.927083333333336
63,0,0,19.927083333333336
68,0,0,19.927083333333336
84,0,0.025,19.952083333333334
82,75,0.0020833333333333333,19.95416666666667
34,75,0,19.95416666666667
82,0,0.24791666666666667,20.202083333333334
80,75,0.0020833333333333333,20.20416666666667
34,0,0.22291666666666665,20.427083333333336
80,0,0.025,20.452083333333334
79,75,0.0020833333333333333,20.45416666666667
53,75,0,20.45416666666667
62,75,0,20.45416666666667
79,0,0.24791666666666667,20.702083333333334
80,75,0.0020833333333333333,20.70416666666667
53,0,0.22291666666666665,20.927083333333336
62,0,0,20.927083333333336
80,0,0.0125,20.939583333333335
72,75,0.014583333333333334,20.95416666666667
58,75,0,20.95416666666667
68,75,0,20.95416666666667
72,0,0.24791666666666667,21.202083333333334
74,75,0.0020833333333333333,21.20416666666667
58,0,0.22291666666666665,21.427083333333336
68,0,0,21.427083333333336
74,0,0.025,21.452083333333334
75,75,0.0020833333333333333,21.45416666666667
39,75,0,21.45416666666667
39,0,0.47291666666666665,21.927083333333336
55,75,0.027083333333333334,21.95416666666667
63,75,0,21.95416666666667
55,0,0.47291666666666665,22.427083333333336
63,0,0,22.427083333333336
58,75,0.027083333333333334,22.45416666666667
63,75,0,22.45416666666667
67,75,0,22.45416666666667
75,0,0.42291666666666666,22.877083333333335
58,0,0.05,22.927083333333336
63,0,0,22.927083333333336
67,0,0,22.927083333333336
51,75,0.027083333333333334,22.95416666666667
51,0,0.47291666666666665,23.427083333333336
55,75,0.027083333333333334,23.45416666666667
63,75,0,23.45416666666667
55,0,0.47291666666666665,23.927083333333336
63,0,0,23.927083333333336
70,75,0.027083333333333334,23.95416666666667
58,75,0,23.95416666666667
63,75,0,23.95416666666667
67,75,0,23.95416666666667
58,0,0.47291666666666665,24.427083333333336
63,0,0,24.427083333333336
67,0,0,24.427083333333336
70,0,0.025,24.452083333333334
79,65,0.0020833333333333333,24.45416666666667
51,65,0,24.45416666666667
51,0,0.47291666666666665,24.927083333333336
55,65,0.027083333333333334,24.95416666666667
63,65,0,24.95416666666667
55,0,0.47291666666666665,25.427083333333336
63,0,0,25.427083333333336
58,65,0.027083333333333334,25.45416666666667
63,65,0,25.45416666666667
67,65,0,25.45416666666667
79,0,0.42291666666666666,25.877083333333335
58,0,0.05,25.927083333333336
63,0,0,25.927083333333336
67,0,0,25.927083333333336
77,65,0.027083333333333334,25.95416666666667
51,65,0,25.95416666666667
77,0,0.23541666666666666,26.189583333333335
79,65,0.014583333333333334,26.20416666666667
51,0,0.22291666666666665,26.427083333333336
79,0,0.0125,26.439583333333335
77,65,0.014583333333333334,26.45416666666667
56,65,0,26.45416666666667
62,65,0,26.45416666666667
77,0,0.075,26.52916666666667
79,65,0.00625,26.53541666666667
79,0,0.075,26.61041666666667
77,65,0.008333333333333333,26.618750000000002
77,0,0.075,26.69375
76,65,0.010416666666666666,26.70416666666667
56,0,0.22291666666666665,26.927083333333336
62,0,0,26.927083333333336
76,0,0.0125,26.939583333333335
77,65,0.014583333333333334,26.95416666666667
59,65,0,26.95416666666667
62,65,0,26.95416666666667
68,65,0,26.95416666666667
77,0,0.23541666666666666,27.189583333333335
79,65,0.014583333333333334,27.20416666666667
59,0,0.22291666666666665,27.427083333333336
62,0,0,27.427083333333336
68,0,0,27.427083333333336
79,0,0.0125,27.439583333333335
77,65,0.014583333333333334,27.45416666666667
51,65,0,27.45416666666667
77,0,0.47291666666666665,27.927083333333336
51,0,0,27.927083333333336
75,78,0.027083333333333334,27.95416666666667
55,65,0,27.95416666666667
63,65,0,27.95416666666667
55,0,0.47291666666666665,28.427083333333336
63,0,0,28.427083333333336
58,65,0.027083333333333334,28.45416666666667
63,65,0,28.45416666666667
67,65,0,28.45416666666667
58,0,0.47291666666666665,28.927083333333336
63,0,0,28.927083333333336
67,0,0,28.927083333333336
50,65,0.027083333333333334,28.95416666666667
75,0,0.23541666666666666,29.189583333333335
77,65,0.014583333333333334,29.20416666666667
50,0,0.22291666666666665,29.427083333333336
77,0,0.0125,29.439583333333335
75,65,0.014583333333333334,29.45416666666667
55,65,0,29.45416666666667
63,65,0,29.45416666666667
75,0,0.075,29.52916666666667
77,65,0.00625,29.53541666666667
77,0,0.075,29.61041666666667
75,65,0.008333333333333333,29.618750000000002
75,0,0.075,29.69375
74,65,0.010416666666666666,29.70416666666667
55,0,0.22291666666666665,29.927083333333336
63,0,0,29.927083333333336
74,0,0.0125,29.939583333333335
75,65,0.014583333333333334,29.95416666666667
58,65,0,29.95416666666667
63,65,0,29.95416666666667
67,65,0,29.95416666666667
75,0,0.23541666666666666,30.189583333333335
77,65,0.014583333333333334,30.20416666666667
58,0,0.22291666666666665,30.427083333333336
63,0,0,30.427083333333336
67,0,0,30.427083333333336
77,0,0.0125,30.439583333333335
79,65,0.014583333333333334,30.45416666666667
48,65,0,30.45416666666667
79,0,0.23541666666666666,30.689583333333335
71,66,0.014583333333333334,30.70416666666667
48,0,0.22291666666666665,30.927083333333336
71,0,0.0125,30.939583333333335
72,68,0.014583333333333334,30.95416666666667
55,68,0,30.95416666666667
64,68,0,30.95416666666667
72,0,0.23541666666666666,31.189583333333335
73,70,0.014583333333333334,31.20416666666667
55,0,0.22291666666666665,31.427083333333336
64,0,0,31.427083333333336
73,0,0.025,31.452083333333334
72,71,0.0020833333333333333,31.45416666666667
58,71,0,31.45416666666667
64,71,0,31.45416666666667
67,71,0,31.45416666666667
72,0,0.23541666666666666,31.689583333333335
77,73,0.014583333333333334,31.70416666666667
58,0,0.22291666666666665,31.927083333333336
64,0,0,31.927083333333336
67,0,0,31.927083333333336
77,0,0.025,31.952083333333334
76,75,0.0020833333333333333,31.95416666666667
48,75,0,31.95416666666667
76,0,0.23541666666666666,32.18958333333334
80,76,0.014583333333333334,32.20416666666667
48,0,0.22291666666666665,32.42708333333334
80,0,0.025,32.45208333333334
79,78,0.0020833333333333333,32.45416666666667
55,78,0,32.45416666666667
64,78,0,32.45416666666667
79,0,0.23541666666666666,32.68958333333334
85,80,0.014583333333333334,32.70416666666667
55,0,0.22291666666666665,32.92708333333334
64,0,0,32.92708333333334
85,0,0.025,32.95208333333334
84,81,0.0020833333333333333,32.95416666666667
60,81,0,32.95416666666667
64,81,0,32.95416666666667
70,81,0,32.95416666666667
84,0,0.24791666666666667,33.20208333333334
79,83,0.0020833333333333333,33.20416666666667
60,0,0.22291666666666665,33.42708333333334
64,0,0,33.42708333333334
70,0,0,33.42708333333334
79,0,0.025,33.45208333333334
82,85,0.0020833333333333333,33.45416666666667
41,85,0,33.45416666666667
41,0,0.47291666666666665,33.92708333333334
53,80,0.027083333333333334,33.95416666666667
61,80,0,33.95416666666667
53,0,0.47291666666666665,34.42708333333334
61,0,0,34.42708333333334
58,75,0.027083333333333334,34.45416666666667
61,75,0,34.45416666666667
64,75,0,34.45416666666667
82,0,0.42291666666666666,34.87708333333334
58,0,0.05,34.927083333333336
61,0,0,34.927083333333336
64,0,0,34.927083333333336
80,70,0.027083333333333334,34.954166666666666
41,70,0,34.954166666666666
41,0,0.47291666666666665,35.427083333333336
53,70,0.027083333333333334,35.454166666666666
60,70,0,35.454166666666666
80,0,0.4479166666666667,35.90208333333333
53,0,0.025,35.92708333333333
60,0,0,35.92708333333333
79,70,0.027083333333333334,35.95416666666666
56,70,0,35.95416666666666
60,70,0,35.95416666666666
65,70,0,35.95416666666666
79,0,0.47291666666666665,36.42708333333333
56,0,0,36.42708333333333
60,0,0,36.42708333333333
65,0,0,36.42708333333333
77,70,0.027083333333333334,36.45416666666666
46,70,0,36.45416666666666
77,0,0.11458333333333333,36.568749999999994
79,70,0.008333333333333333,36.57708333333333
79,0,0.11458333333333333,36.69166666666666
77,70,0.010416666666666666,36.70208333333333
77,0,0.11458333333333333,36.81666666666666
79,70,0.0125,36.829166666666666
46,0,0.09791666666666667,36.927083333333336
79,0,0.016666666666666666,36.94375
77,70,0.008333333333333333,36.952083333333334
53,70,0.0020833333333333333,36.954166666666666
62,70,0,36.954166666666666
77,0,0.1125,37.06666666666666
79,70,0.010416666666666666,37.07708333333333
79,0,0.11458333333333333,37.19166666666666
77,70,0.0125,37.204166666666666
77,0,0.11458333333333333,37.31875
79,70,0.008333333333333333,37.327083333333334
53,0,0.1,37.427083333333336
62,0,0,37.427083333333336
79,0,0.014583333333333334,37.44166666666667
77,70,0.010416666666666666,37.452083333333334
58,70,0.0020833333333333333,37.454166666666666
62,70,0,37.454166666666666
68,70,0,37.454166666666666
77,0,0.1125,37.56666666666666
79,70,0.0125,37.579166666666666
79,0,0.11458333333333333,37.69375
77,70,0.008333333333333333,37.702083333333334
77,0,0.11458333333333333,37.81666666666667
79,70,0.010416666666666666,37.827083333333334
58,0,0.1,37.927083333333336
62,0,0,37.927083333333336
68,0,0,37.927083333333336
79,0,0.014583333333333334,37.94166666666667
76,70,0.0125,37.95416666666667
47,70,0,37.95416666666667
76,0,0.12291666666666666,38.07708333333334
77,70,0.0020833333333333333,38.07916666666667
77,0,0.12291666666666666,38.20208333333334
79,70,0.0020833333333333333,38.20416666666667
79,0,0.12291666666666666,38.32708333333334
47,0,0.1,38.42708333333334
79,70,0.027083333333333334,38.45416666666667
55,70,0,38.45416666666667
65,70,0,38.45416666666667
55,0,0.47291666666666665,38.92708333333334
65,0,0,38.92708333333334
79,0,0.025,38.95208333333334
74,70,0.0020833333333333333,38.95416666666667
62,70,0,38.95416666666667
65,70,0,38.95416666666667
67,70,0,38.95416666666667
74,0,0.47291666666666665,39.42708333333334
62,0,0,39.42708333333334
65,0,0,39.42708333333334
67,0,0,39.42708333333334
75,70,0.027083333333333334,39.45416666666667
48,70,0,39.45416666666667
48,0,0.47291666666666665,39.92708333333334
55,70,0.027083333333333334,39.95416666666667
63,70,0,39.95416666666667
55,0,0.47291666666666665,40.42708333333334
63,0,0,40.42708333333334
60,70,0.027083333333333334,40.45416666666667
63,70,0,40.45416666666667
67,70,0,40.45416666666667
60,0,0.47291666666666665,40.92708333333334
63,0,0,40.92708333333334
67,0,0,40.92708333333334
75,0,0.025,40.95208333333334
72,70,0.0020833333333333333,40.95416666666667
45,70,0,40.95416666666667
45,0,0.47291666666666665,41.42708333333334
54,70,0.027083333333333334,41.45416666666667
63,70,0,41.45416666666667
54,0,0.47291666666666665,41.92708333333334
63,0,0,41.92708333333334
60,70,0.027083333333333334,41.95416666666667
63,70,0,41.95416666666667
66,70,0,41.95416666666667
72,0,0.42291666666666666,42.37708333333334
60,0,0.05,42.427083333333336
63,0,0,42.427083333333336
66,0,0,42.427083333333336
70,70,0.027083333333333334,42.454166666666666
46,70,0,42.454166666666666
46,0,0.47291666666666665,42.927083333333336
70,0,0.025,42.952083333333334
86,70,0.0020833333333333333,42.954166666666666
53,70,0,42.954166666666666
63,70,0,42.954166666666666
86,0,0.47291666666666665,43.427083333333336
53,0,0,43.427083333333336
63,0,0,43.427083333333336
84,70,0.027083333333333334,43.454166666666666
58,70,0,43.454166666666666
63,70,0,43.454166666666666
68,70,0,43.454166666666666
84,0,0.24791666666666667,43.702083333333334
58,0,0.225,43.927083333333336
63,0,0,43.927083333333336
68,0,0,43.927083333333336
82,70,0.027083333333333334,43.954166666666666
34,70,0,43.954166666666666
82,0,0.12291666666666666,44.077083333333334
80,70,0.12708333333333333,44.204166666666666
80,0,0.12291666666666666,44.327083333333334
34,0,0.1,44.427083333333336
79,70,0.027083333333333334,44.454166666666666
53,70,0,44.454166666666666
62,70,0,44.454166666666666
79,0,0.12291666666666666,44.577083333333334
80,70,0.12708333333333333,44.704166666666666
80,0,0.12291666666666666,44.827083333333334
53,0,0.1,44.927083333333336
62,0,0,44.927083333333336
80,70,0.027083333333333334,44.954166666666666
58,70,0,44.954166666666666
68,70,0,44.954166666666666
80,0,0.0625,45.016666666666666
72,70,0.0020833333333333333,45.01875
72,0,0.18125,45.199999999999996
74,70,0.004166666666666667,45.204166666666666
58,0,0.22291666666666665,45.427083333333336
68,0,0,45.427083333333336
74,0,0.0125,45.43958333333334
75,70,0.014583333333333334,45.45416666666667
39,70,0,45.45416666666667
39,0,0.47291666666666665,45.92708333333334
55,70,0.027083333333333334,45.95416666666667
63,70,0,45.95416666666667
55,0,0.47291666666666665,46.42708333333334
63,0,0,46.42708333333334
58,70,0.027083333333333334,46.45416666666667
63,70,0,46.45416666666667
67,70,0,46.45416666666667
58,0,0.47291666666666665,46.92708333333334
63,0,0,46.92708333333334
67,0,0,46.92708333333334
51,70,0.027083333333333334,46.95416666666667
75,0,0.39791666666666664,47.35208333333334
51,0,0.075,47.42708333333334
74,70,0.027083333333333334,47.45416666666667
55,70,0,47.45416666666667
63,70,0,47.45416666666667
74,0,0.47291666666666665,47.92708333333334
55,0,0,47.92708333333334
63,0,0,47.92708333333334
75,70,0.027083333333333334,47.95416666666667
58,70,0,47.95416666666667
63,70,0,47.95416666666667
67,70,0,47.95416666666667
75,0,0.47291666666666665,48.42708333333334
58,0,0,48.42708333333334
63,0,0,48.42708333333334
67,0,0,48.42708333333334
77,60,0.027083333333333334,48.45416666666667
46,60,0,48.45416666666667
46,0,0.47291666666666665,48.92708333333334
53,60,0.027083333333333334,48.95416666666667
62,60,0,48.95416666666667
53,0,0.4979166666666667,49.45208333333334
62,0,0,49.45208333333334
58,60,0.0020833333333333333,49.45416666666667
62,60,0,49.45416666666667
65,60,0,49.45416666666667
77,0,0.42291666666666666,49.87708333333334
58,0,0.05,49.927083333333336
62,0,0,49.927083333333336
65,0,0,49.927083333333336
79,72,0.027083333333333334,49.954166666666666
46,60,0,49.954166666666666
46,0,0.47291666666666665,50.427083333333336
53,60,0.027083333333333334,50.454166666666666
62,60,0,50.454166666666666
79,0,0.4979166666666667,50.952083333333334
53,0,0,50.952083333333334
62,0,0,50.952083333333334
77,60,0.0020833333333333333,50.954166666666666
58,60,0,50.954166666666666
62,60,0,50.954166666666666
65,60,0,50.954166666666666
77,0,0.47291666666666665,51.427083333333336
58,0,0,51.427083333333336
62,0,0,51.427083333333336
65,0,0,51.427083333333336
77,55,0.027083333333333334,51.454166666666666
45,55,0,51.454166666666666
45,0,0.47291666666666665,51.927083333333336
53,55,0.027083333333333334,51.954166666666666
60,55,0,51.954166666666666
53,0,0.4979166666666667,52.452083333333334
60,0,0,52.452083333333334
60,55,0.0020833333333333333,52.454166666666666
65,55,0,52.454166666666666
60,0,0.47291666666666665,52.927083333333336
65,0,0,52.927083333333336
77,0,0.025,52.952083333333334
72,55,0.0020833333333333333,52.954166666666666
45,55,0,52.954166666666666
45,0,0.47291666666666665,53.427083333333336
53,55,0.027083333333333334,53.454166666666666
60,55,0,53.454166666666666
53,0,0.4979166666666667,53.952083333333334
60,0,0,53.952083333333334
60,55,0.0020833333333333333,53.954166666666666
65,55,0,53.954166666666666
72,0,0.42291666666666666,54.37708333333333
60,0,0.05,54.42708333333333
65,0,0,54.42708333333333
75,55,0.027083333333333334,54.45416666666666
44,55,0,54.45416666666666
75,0,0.24791666666666667,54.70208333333333
44,0,0.225,54.92708333333333
75,55,0.027083333333333334,54.95416666666666
51,55,0,54.95416666666666
60,55,0,54.95416666666666
75,0,0.24791666666666667,55.20208333333333
51,0,0.225,55.42708333333333
60,0,0,55.42708333333333
75,55,0.027083333333333334,55.45416666666666
56,55,0,55.45416666666666
60,55,0,55.45416666666666
63,55,0,55.45416666666666
75,0,0.24791666666666667,55.70208333333333
56,0,0.225,55.92708333333333
60,0,0,55.92708333333333
63,0,0,55.92708333333333
75,55,0.027083333333333334,55.95416666666666
32,55,0,55.95416666666666
75,0,0.47291666666666665,56.42708333333333
32,0,0,56.42708333333333
74,55,0.027083333333333334,56.45416666666666
51,55,0,56.45416666666666
59,55,0,56.45416666666666
74,0,0.24791666666666667,56.70208333333333
75,55,0.0020833333333333333,56.70416666666666
51,0,0.22291666666666665,56.92708333333333
59,0,0,56.92708333333333
75,0,0.025,56.95208333333333
77,55,0.0020833333333333333,56.95416666666666
56,55,0,56.95416666666666
59,55,0,56.95416666666666
63,55,0,56.95416666666666
77,0,0.3729166666666667,57.32708333333333
75,55,0.0020833333333333333,57.32916666666666
56,0,0.09791666666666667,57.42708333333333
59,0,0,57.42708333333333
63,0,0,57.42708333333333
75,0,0.025,57.45208333333333
75,55,0.0020833333333333333,57.45416666666666
39,55,0,57.45416666666666
39,0,0.47291666666666665,57.92708333333333
55,55,0.027083333333333334,57.95416666666666
63,55,0,57.95416666666666
55,0,0.4979166666666667,58.45208333333333
63,0,0,58.45208333333333
58,55,0.0020833333333333333,58.45416666666666
63,55,0,58.45416666666666
67,55,0,58.45416666666666
75,0,0.42291666666666666,58.877083333333324
58,0,0.05,58.92708333333332
63,0,0,58.92708333333332
67,0,0,58.92708333333332
70,55,0.027083333333333334,58.95416666666665
51,55,0,58.95416666666665
51,0,0.47291666666666665,59.42708333333332
55,55,0.027083333333333334,59.45416666666665
63,55,0,59.45416666666665
55,0,0.4979166666666667,59.95208333333332
63,0,0,59.95208333333332
58,55,0.0020833333333333333,59.95416666666665
63,55,0,59.95416666666665
67,55,0,59.95416666666665
70,0,0.42291666666666666,60.37708333333332
58,0,0.05,60.427083333333314
63,0,0,60.427083333333314
67,0,0,60.427083333333314
82,96,0.027083333333333334,60.454166666666644
40,96,0,60.454166666666644
40,0,0.47291666666666665,60.927083333333314
52,96,0.027083333333333334,60.954166666666644
61,96,0,60.954166666666644
52,0,0.47291666666666665,61.427083333333314
61,0,0,61.427083333333314
58,96,0.027083333333333334,61.454166666666644
61,96,0,61.454166666666644
67,96,0,61.454166666666644
82,0,0.42291666666666666,61.87708333333331
58,0,0.05,61.92708333333331
61,0,0,61.92708333333331
67,0,0,61.92708333333331
81,96,0.027083333333333334,61.95416666666664
40,96,0,61.95416666666664
40,0,0.47291666666666665,62.42708333333331
52,96,0.027083333333333334,62.45416666666664
60,96,0,62.45416666666664
81,0,0.4479166666666667,62.9020833333333
52,0,0.025,62.9270833333333
60,0,0,62.9270833333333
79,96,0.027083333333333334,62.95416666666663
58,96,0,62.95416666666663
60,96,0,62.95416666666663
67,96,0,62.95416666666663
79,0,0.47291666666666665,63.4270833333333
58,0,0,63.4270833333333
60,0,0,63.4270833333333
67,0,0,63.4270833333333
69,96,0.027083333333333334,63.45416666666663
77,96,0,63.45416666666663
41,96,0,63.45416666666663
41,0,0.47291666666666665,63.9270833333333
53,96,0.027083333333333334,63.95416666666663
63,96,0,63.95416666666663
53,0,0.47291666666666665,64.4270833333333
63,0,0,64.4270833333333
60,96,0.027083333333333334,64.45416666666664
63,96,0,64.45416666666664
69,96,0,64.45416666666664
69,0,0.42291666666666666,64.8770833333333
77,0,0,64.8770833333333
60,0,0.05,64.9270833333333
63,0,0,64.9270833333333
69,0,0,64.9270833333333
70,96,0.027083333333333334,64.95416666666664
74,96,0,64.95416666666664
43,96,0,64.95416666666664
43,0,0.47291666666666665,65.4270833333333
55,96,0.027083333333333334,65.45416666666664
62,96,0,65.45416666666664
55,0,0.47291666666666665,65.9270833333333
62,0,0,65.9270833333333
58,96,0.027083333333333334,65.95416666666664
62,96,0,65.95416666666664
70,96,0,65.95416666666664
70,0,0.42291666666666666,66.3770833333333
74,0,0,66.3770833333333
58,0,0.05,66.4270833333333
62,0,0,66.4270833333333
70,0,0,66.4270833333333
67,96,0.027083333333333334,66.45416666666664
75,96,0,66.45416666666664
36,96,0,66.45416666666664
36,0,0.47291666666666665,66.9270833333333
55,96,0.027083333333333334,66.95416666666664
63,96,0,66.95416666666664
55,0,0.47291666666666665,67.4270833333333
63,0,0,67.4270833333333
60,96,0.027083333333333334,67.45416666666664
63,96,0,67.45416666666664
67,96,0,67.45416666666664
67,0,0.42291666666666666,67.8770833333333
75,0,0,67.8770833333333
60,0,0.05,67.9270833333333
63,0,0,67.9270833333333
67,0,0,67.9270833333333
69,96,0.027083333333333334,67.95416666666664
74,96,0,67.95416666666664
41,96,0,67.95416666666664
69,0,0.24791666666666667,68.2020833333333
74,0,0,68.2020833333333
41,0,0.225,68.4270833333333
69,96,0.027083333333333334,68.45416666666664
72,96,0,68.45416666666664
53,96,0,68.45416666666664
63,96,0,68.45416666666664
69,0,0.24791666666666667,68.7020833333333
72,0,0,68.7020833333333
53,0,0.225,68.9270833333333
63,0,0,68.9270833333333
69,96,0.027083333333333334,68.95416666666664
74,96,0,68.95416666666664
60,96,0,68.95416666666664
63,96,0,68.95416666666664
65,96,0,68.95416666666664
69,0,0.24791666666666667,69.2020833333333
74,0,0,69.2020833333333
60,0,0.225,69.4270833333333
63,0,0,69.4270833333333
65,0,0,69.4270833333333
65,96,0.027083333333333334,69.45416666666664
70,96,0,69.45416666666664
58,96,0,69.45416666666664
62,96,0,69.45416666666664
65,0,0.47291666666666665,69.9270833333333
70,0,0,69.9270833333333
58,0,0,69.9270833333333
62,0,0,69.9270833333333
66,96,0.027083333333333334,69.95416666666664
71,96,0,69.95416666666664
57,96,0,69.95416666666664
63,96,0,69.95416666666664
57,0,0.47291666666666665,70.4270833333333
63,0,0,70.4270833333333
66,0,0.025,70.4520833333333
71,0,0,70.4520833333333
64,99,0.0020833333333333333,70.45416666666664
71,99,0,70.45416666666664
56,99,0,70.45416666666664
56,0,0.47291666666666665,70.9270833333333
64,0,0.025,70.9520833333333
71,0,0,70.9520833333333
64,102,0.0020833333333333333,70.95416666666664
70,102,0,70.95416666666664
72,102,0,70.95416666666664
55,102,0,70.95416666666664
55,0,0.47291666666666665,71.4270833333333
64,0,0.025,71.4520833333333
70,0,0,71.4520833333333
72,0,0,71.4520833333333
65,105,0.0020833333333333333,71.45416666666664
69,105,0,71.45416666666664
72,105,0,71.45416666666664
53,105,0,71.45416666666664
60,105,0,71.45416666666664
63,105,0,71.45416666666664
53,0,0.47291666666666665,71.9270833333333
60,0,0,71.9270833333333
63,0,0,71.9270833333333
65,0,0.025,71.9520833333333
69,0,0,71.9520833333333
72,0,0,71.9520833333333
68,108,0.0020833333333333333,71.95416666666664
74,108,0,71.95416666666664
58,108,0,71.95416666666664
65,108,0,71.95416666666664
68,0,0.47291666666666665,72.4270833333333
74,0,0,72.4270833333333
58,0,0,72.4270833333333
65,0,0,72.4270833333333
67,70,0.027083333333333334,72.45416666666664
39,70,0,72.45416666666664
67,0,0.1625,72.61666666666663
70,70,0.0020833333333333333,72.61874999999996
70,0,0.1625,72.78124999999996
75,70,0.004166666666666667,72.78541666666662
39,0,0.14166666666666666,72.92708333333329
75,0,0.020833333333333332,72.94791666666661
79,70,0.00625,72.95416666666661
55,70,0,72.95416666666661
63,70,0,72.95416666666661
79,0,0.47291666666666665,73.42708333333327
55,0,0,73.42708333333327
63,0,0,73.42708333333327
69,70,0.027083333333333334,73.45416666666661
58,70,0,73.45416666666661
63,70,0,73.45416666666661
67,70,0,73.45416666666661
69,0,0.24791666666666667,73.70208333333328
70,70,0.0020833333333333333,73.70416666666661
58,0,0.22291666666666665,73.92708333333327
63,0,0,73.92708333333327
67,0,0,73.92708333333327
70,0,0.025,73.95208333333328
71,84,0.0020833333333333333,73.95416666666661
51,70,0,73.95416666666661
71,0,0.24791666666666667,74.20208333333328
70,70,0.0020833333333333333,74.20416666666661
51,0,0.22291666666666665,74.42708333333327
70,0,0.025,74.45208333333328
73,70,0.0020833333333333333,74.45416666666661
56,70,0,74.45416666666661
62,70,0,74.45416666666661
73,0,0.24791666666666667,74.70208333333328
74,70,0.0020833333333333333,74.70416666666661
56,0,0.22291666666666665,74.92708333333327
62,0,0,74.92708333333327
74,0,0.025,74.95208333333328
79,84,0.0020833333333333333,74.95416666666661
58,70,0,74.95416666666661
62,70,0,74.95416666666661
68,70,0,74.95416666666661
79,0,0.3729166666666667,75.32708333333328
77,70,0.0020833333333333333,75.32916666666661
58,0,0.09791666666666667,75.42708333333327
62,0,0,75.42708333333327
68,0,0,75.42708333333327
77,0,0.01875,75.44583333333327
77,70,0.008333333333333333,75.45416666666661
51,70,0,75.45416666666661
51,0,0.47291666666666665,75.92708333333327
55,70,0.027083333333333334,75.95416666666661
63,70,0,75.95416666666661
77,0,0.4479166666666667,76.40208333333328
55,0,0.025,76.42708333333329
63,0,0,76.42708333333329
75,70,0.027083333333333334,76.45416666666662
58,70,0,76.45416666666662
63,70,0,76.45416666666662
67,70,0,76.45416666666662
58,0,0.47291666666666665,76.92708333333329
63,0,0,76.92708333333329
67,0,0,76.92708333333329
50,70,0.027083333333333334,76.95416666666662
75,0,0.21041666666666667,77.16458333333328
77,70,0.03958333333333333,77.20416666666662
50,0,0.22291666666666665,77.42708333333329
77,0,0.0125,77.43958333333329
75,70,0.014583333333333334,77.45416666666662
55,70,0,77.45416666666662
63,70,0,77.45416666666662
75,0,0.075,77.52916666666663
77,70,0.00625,77.53541666666662
77,0,0.075,77.61041666666662
75,70,0.008333333333333333,77.61874999999996
75,0,0.075,77.69374999999997
74,70,0.010416666666666666,77.70416666666664
55,0,0.22291666666666665,77.9270833333333
63,0,0,77.9270833333333
74,0,0.0125,77.9395833333333
75,70,0.014583333333333334,77.95416666666664
58,70,0,77.95416666666664
63,70,0,77.95416666666664
67,70,0,77.95416666666664
75,0,0.23541666666666666,78.1895833333333
77,70,0.014583333333333334,78.20416666666664
58,0,0.22291666666666665,78.4270833333333
63,0,0,78.4270833333333
67,0,0,78.4270833333333
77,0,0.0125,78.4395833333333
79,70,0.014583333333333334,78.45416666666664
48,70,0,78.45416666666664
79,0,0.23541666666666666,78.6895833333333
71,72,0.014583333333333334,78.70416666666664
48,0,0.22291666666666665,78.9270833333333
71,0,0.0125,78.9395833333333
72,75,0.014583333333333334,78.95416666666664
55,75,0,78.95416666666664
64,75,0,78.95416666666664
72,0,0.23541666666666666,79.1895833333333
73,77,0.014583333333333334,79.20416666666664
55,0,0.22291666666666665,79.4270833333333
64,0,0,79.4270833333333
73,0,0.025,79.4520833333333
72,80,0.0020833333333333333,79.45416666666664
58,80,0,79.45416666666664
64,80,0,79.45416666666664
67,80,0,79.45416666666664
72,0,0.23541666666666666,79.6895833333333
77,82,0.014583333333333334,79.70416666666664
58,0,0.22291666666666665,79.9270833333333
64,0,0,79.9270833333333
67,0,0,79.9270833333333
77,0,0.025,79.9520833333333
76,85,0.0020833333333333333,79.95416666666664
48,85,0,79.95416666666664
76,0,0.23541666666666666,80.1895833333333
80,85,0.014583333333333334,80.20416666666664
48,0,0.22291666666666665,80.4270833333333
80,0,0.025,80.4520833333333
79,85,0.0020833333333333333,80.45416666666664
55,85,0,80.45416666666664
64,85,0,80.45416666666664
79,0,0.23541666666666666,80.6895833333333
85,85,0.014583333333333334,80.70416666666664
55,0,0.22291666666666665,80.9270833333333
64,0,0,80.9270833333333
85,0,0.025,80.9520833333333
84,85,0.0020833333333333333,80.95416666666664
60,85,0,80.95416666666664
64,85,0,80.95416666666664
70,85,0,80.95416666666664
84,0,0.24791666666666667,81.2020833333333
79,85,0.0020833333333333333,81.20416666666664
60,0,0.22291666666666665,81.4270833333333
64,0,0,81.4270833333333
70,0,0,81.4270833333333
79,0,0.025,81.4520833333333
82,85,0.0020833333333333333,81.45416666666664
41,85,0,81.45416666666664
41,0,0.47291666666666665,81.9270833333333
53,85,0.027083333333333334,81.95416666666664
61,85,0,81.95416666666664
53,0,0.47291666666666665,82.4270833333333
61,0,0,82.4270833333333
58,85,0.027083333333333334,82.45416666666664
61,85,0,82.45416666666664
64,85,0,82.45416666666664
82,0,0.42291666666666666,82.8770833333333
58,0,0.05,82.9270833333333
61,0,0,82.9270833333333
64,0,0,82.9270833333333
80,85,0.027083333333333334,82.95416666666664
41,85,0,82.95416666666664
41,0,0.47291666666666665,83.4270833333333
53,80,0.027083333333333334,83.45416666666664
60,80,0,83.45416666666664
80,0,0.4479166666666667,83.90208333333331
53,0,0.025,83.92708333333331
60,0,0,83.92708333333331
79,75,0.027083333333333334,83.95416666666665
56,75,0,83.95416666666665
60,75,0,83.95416666666665
65,75,0,83.95416666666665
79,0,0.47291666666666665,84.42708333333331
56,0,0,84.42708333333331
60,0,0,84.42708333333331
65,0,0,84.42708333333331
77,65,0.027083333333333334,84.45416666666665
46,65,0,84.45416666666665
77,0,0.11458333333333333,84.56874999999998
79,65,0.008333333333333333,84.57708333333332
79,0,0.11458333333333333,84.69166666666665
77,65,0.010416666666666666,84.70208333333332
77,0,0.11458333333333333,84.81666666666665
79,65,0.0125,84.82916666666665
46,0,0.09791666666666667,84.92708333333331
79,0,0.016666666666666666,84.94374999999998
77,65,0.008333333333333333,84.95208333333332
53,65,0.0020833333333333333,84.95416666666665
62,65,0,84.95416666666665
77,0,0.1125,85.06666666666665
79,65,0.010416666666666666,85.07708333333332
79,0,0.11458333333333333,85.19166666666665
77,65,0.0125,85.20416666666665
77,0,0.11458333333333333,85.31874999999998
79,65,0.008333333333333333,85.32708333333332
53,0,0.1,85.42708333333331
62,0,0,85.42708333333331
79,0,0.014583333333333334,85.44166666666665
77,65,0.010416666666666666,85.45208333333332
58,65,0.0020833333333333333,85.45416666666665
62,65,0,85.45416666666665
68,65,0,85.45416666666665
77,0,0.1125,85.56666666666665
79,65,0.0125,85.57916666666665
79,0,0.11458333333333333,85.69374999999998
77,65,0.008333333333333333,85.70208333333332
77,0,0.11458333333333333,85.81666666666665
79,65,0.010416666666666666,85.82708333333332
58,0,0.1,85.92708333333331
62,0,0,85.92708333333331
68,0,0,85.92708333333331
79,0,0.014583333333333334,85.94166666666665
76,65,0.0125,85.95416666666665
47,65,0,85.95416666666665
76,0,0.12291666666666666,86.07708333333332
77,65,0.0020833333333333333,86.07916666666665
77,0,0.12291666666666666,86.20208333333332
79,65,0.0020833333333333333,86.20416666666665
79,0,0.12291666666666666,86.32708333333332
47,0,0.1,86.42708333333331
79,65,0.027083333333333334,86.45416666666665
55,65,0,86.45416666666665
65,65,0,86.45416666666665
55,0,0.47291666666666665,86.92708333333331
65,0,0,86.92708333333331
79,0,0.025,86.95208333333332
74,65,0.0020833333333333333,86.95416666666665
62,65,0,86.95416666666665
65,65,0,86.95416666666665
67,65,0,86.95416666666665
74,0,0.47291666666666665,87.42708333333331
62,0,0,87.42708333333331
65,0,0,87.42708333333331
67,0,0,87.42708333333331
75,65,0.027083333333333334,87.45416666666665
48,65,0,87.45416666666665
48,0,0.47291666666666665,87.92708333333331
55,67,0.027083333333333334,87.95416666666665
63,67,0,87.95416666666665
55,0,0.47291666666666665,88.42708333333331
63,0,0,88.42708333333331
60,70,0.027083333333333334,88.45416666666665
63,70,0,88.45416666666665
67,70,0,88.45416666666665
75,0,0.42291666666666666,88.87708333333332
60,0,0.05,88.92708333333331
63,0,0,88.92708333333331
67,0,0,88.92708333333331
72,72,0.027083333333333334,88.95416666666665
45,72,0,88.95416666666665
45,0,0.47291666666666665,89.42708333333331
54,75,0.027083333333333334,89.45416666666665
63,75,0,89.45416666666665
54,0,0.47291666666666665,89.92708333333331
63,0,0,89.92708333333331
60,77,0.027083333333333334,89.95416666666665
63,77,0,89.95416666666665
66,77,0,89.95416666666665
72,0,0.42291666666666666,90.37708333333332
60,0,0.05,90.42708333333331
63,0,0,90.42708333333331
66,0,0,90.42708333333331
70,80,0.027083333333333334,90.45416666666665
46,80,0,90.45416666666665
46,0,0.47291666666666665,90.92708333333331
70,0,0.025,90.95208333333332
86,80,0.0020833333333333333,90.95416666666665
53,80,0,90.95416666666665
63,80,0,90.95416666666665
86,0,0.47291666666666665,91.42708333333331
53,0,0,91.42708333333331
63,0,0,91.42708333333331
85,80,0.027083333333333334,91.45416666666665
58,80,0,91.45416666666665
63,80,0,91.45416666666665
68,80,0,91.45416666666665
58,0,0.47291666666666665,91.92708333333331
63,0,0,91.92708333333331
68,0,0,91.92708333333331
85,0,0.025,91.95208333333332
84,80,0.0020833333333333333,91.95416666666665
34,80,0,91.95416666666665
84,0,0.12291666666666666,92.07708333333332
83,80,0.0020833333333333333,92.07916666666665
83,0,0.12291666666666666,92.20208333333332
82,80,0.0020833333333333333,92.20416666666665
82,0,0.12291666666666666,92.32708333333332
81,80,0.0020833333333333333,92.32916666666665
34,0,0.09791666666666667,92.42708333333331
81,0,0.025,92.45208333333332
80,80,0.0020833333333333333,92.45416666666665
53,80,0,92.45416666666665
62,80,0,92.45416666666665
80,0,0.12291666666666666,92.57708333333332
77,80,0.0020833333333333333,92.57916666666665
77,0,0.12291666666666666,92.70208333333332
74,80,0.0020833333333333333,92.70416666666665
74,0,0.12291666666666666,92.82708333333332
71,96,0.0020833333333333333,92.82916666666665
53,0,0.09791666666666667,92.92708333333331
62,0,0,92.92708333333331
71,0,0.025,92.95208333333332
70,80,0.0020833333333333333,92.95416666666665
58,80,0,92.95416666666665
62,80,0,92.95416666666665
68,80,0,92.95416666666665
70,0,0.11666666666666667,93.07083333333331
74,80,0.008333333333333333,93.07916666666665
74,0,0.11666666666666667,93.19583333333331
79,80,0.008333333333333333,93.20416666666665
79,0,0.07708333333333334,93.28124999999999
77,80,0.00625,93.28749999999998
77,0,0.07708333333333334,93.36458333333331
75,80,0.00625,93.37083333333331
58,0,0.05625,93.42708333333331
62,0,0,93.42708333333331
68,0,0,93.42708333333331
75,0,0.020833333333333332,93.44791666666664
75,80,0.00625,93.45416666666664
39,80,0,93.45416666666664
39,0,0.47291666666666665,93.9270833333333
55,80,0.027083333333333334,93.95416666666664
63,80,0,93.95416666666664
55,0,0.47291666666666665,94.4270833333333
63,0,0,94.4270833333333
58,80,0.027083333333333334,94.45416666666664
63,80,0,94.45416666666664
67,80,0,94.45416666666664
58,0,0.47291666666666665,94.9270833333333
63,0,0,94.9270833333333
67,0,0,94.9270833333333
51,80,0.027083333333333334,94.95416666666664
75,0,0.39791666666666664,95.3520833333333
51,0,0.075,95.4270833333333
74,80,0.027083333333333334,95.45416666666664
55,80,0,95.45416666666664
63,80,0,95.45416666666664
74,0,0.47291666666666665,95.9270833333333
55,0,0,95.9270833333333
63,0,0,95.9270833333333
75,80,0.027083333333333334,95.95416666666664
58,80,0,95.95416666666664
63,80,0,95.95416666666664
67,80,0,95.95416666666664
75,0,0.47291666666666665,96.4270833333333
58,0,0,96.4270833333333
63,0,0,96.4270833333333
67,0,0,96.4270833333333
77,80,0.027083333333333334,96.45416666666664
46,80,0,96.45416666666664
46,0,0.47291666666666665,96.9270833333333
53,80,0.027083333333333334,96.95416666666664
62,80,0,96.95416666666664
53,0,0.47291666666666665,97.4270833333333
62,0,0,97.4270833333333
58,80,0.027083333333333334,97.45416666666664
62,80,0,97.45416666666664
65,80,0,97.45416666666664
58,0,0.47291666666666665,97.9270833333333
62,0,0,97.9270833333333
65,0,0,97.9270833333333
77,0,0.025,97.9520833333333
79,80,0.0020833333333333333,97.95416666666664
46,80,0,97.95416666666664
46,0,0.47291666666666665,98.4270833333333
53,80,0.027083333333333334,98.45416666666664
62,80,0,98.45416666666664
53,0,0.47291666666666665,98.9270833333333
62,0,0,98.9270833333333
79,0,0.025,98.9520833333333
77,80,0.0020833333333333333,98.95416666666664
58,80,0,98.95416666666664
62,80,0,98.95416666666664
65,80,0,98.95416666666664
77,0,0.47291666666666665,99.4270833333333
58,0,0,99.4270833333333
62,0,0,99.4270833333333
65,0,0,99.4270833333333
77,80,0.027083333333333334,99.45416666666664
45,80,0,99.45416666666664
45,0,0.47291666666666665,99.9270833333333
53,80,0.027083333333333334,99.95416666666664
60,80,0,99.95416666666664
53,0,0.47291666666666665,100.4270833333333
60,0,0,100.4270833333333
60,80,0.027083333333333334,100.45416666666664
65,80,0,100.45416666666664
60,0,0.47291666666666665,100.9270833333333
65,0,0,100.9270833333333
77,0,0.025,100.9520833333333
72,80,0.0020833333333333333,100.95416666666664
45,80,0,100.95416666666664
45,0,0.47291666666666665,101.4270833333333
53,80,0.027083333333333334,101.45416666666664
60,80,0,101.45416666666664
53,0,0.47291666666666665,101.9270833333333
60,0,0,101.9270833333333
60,80,0.027083333333333334,101.95416666666664
65,80,0,101.95416666666664
72,0,0.42291666666666666,102.3770833333333
60,0,0.05,102.4270833333333
65,0,0,102.4270833333333
75,80,0.027083333333333334,102.45416666666664
44,80,0,102.45416666666664
75,0,0.3729166666666667,102.8270833333333
75,80,0.0020833333333333333,102.82916666666664
44,0,0.09791666666666667,102.9270833333333
51,80,0.027083333333333334,102.95416666666664
60,80,0,102.95416666666664
75,0,0.24791666666666667,103.2020833333333
75,80,0.0020833333333333333,103.20416666666664
51,0,0.22291666666666665,103.4270833333333
60,0,0,103.4270833333333
56,80,0.027083333333333334,103.45416666666664
60,80,0,103.45416666666664
63,80,0,103.45416666666664
75,0,0.12291666666666666,103.5770833333333
75,80,0.0020833333333333333,103.57916666666664
56,0,0.34791666666666665,103.9270833333333
60,0,0,103.9270833333333
63,0,0,103.9270833333333
75,0,0.025,103.9520833333333
75,80,0.0020833333333333333,103.95416666666664
32,80,0,103.95416666666664
32,0,0.47291666666666665,104.4270833333333
75,0,0.025,104.4520833333333
74,80,0.0020833333333333333,104.45416666666664
51,80,0,104.45416666666664
59,80,0,104.45416666666664
74,0,0.24791666666666667,104.7020833333333
75,80,0.0020833333333333333,104.70416666666664
51,0,0.22291666666666665,104.9270833333333
59,0,0,104.9270833333333
75,0,0.025,104.9520833333333
77,80,0.0020833333333333333,104.95416666666664
56,80,0,104.95416666666664
59,80,0,104.95416666666664
63,80,0,104.95416666666664
77,0,0.3729166666666667,105.3270833333333
75,80,0.0020833333333333333,105.32916666666664
56,0,0.09791666666666667,105.4270833333333
59,0,0,105.4270833333333
63,0,0,105.4270833333333
75,0,0.025,105.4520833333333
75,80,0.0020833333333333333,105.45416666666664
39,80,0,105.45416666666664
51,80,0,105.45416666666664
39,0,0.47291666666666665,105.9270833333333
51,0,0,105.9270833333333
55,80,0.027083333333333334,105.95416666666664
63,80,0,105.95416666666664
55,0,0.47291666666666665,106.4270833333333
63,0,0,106.4270833333333
58,80,0.027083333333333334,106.45416666666664
63,80,0,106.45416666666664
67,80,0,106.45416666666664
75,0,0.42291666666666666,106.8770833333333
58,0,0.05,106.9270833333333
63,0,0,106.9270833333333
67,0,0,106.9270833333333
70,80,0.027083333333333334,106.95416666666664
39,80,0,106.95416666666664
51,80,0,106.95416666666664
39,0,0.47291666666666665,107.4270833333333
51,0,0,107.4270833333333
55,85,0.027083333333333334,107.45416666666664
63,85,0,107.45416666666664
55,0,0.47291666666666665,107.9270833333333
63,0,0,107.9270833333333
58,90,0.027083333333333334,107.95416666666664
63,90,0,107.95416666666664
67,90,0,107.95416666666664
70,0,0.42291666666666666,108.3770833333333
58,0,0.05,108.4270833333333
63,0,0,108.4270833333333
67,0,0,108.4270833333333
82,96,0.027083333333333334,108.45416666666664
40,96,0,108.45416666666664
40,0,0.47291666666666665,108.9270833333333
52,96,0.027083333333333334,108.95416666666664
61,96,0,108.95416666666664
52,0,0.47291666666666665,109.4270833333333
61,0,0,109.4270833333333
58,96,0.027083333333333334,109.45416666666664
61,96,0,109.45416666666664
67,96,0,109.45416666666664
58,0,0.47291666666666665,109.9270833333333
61,0,0,109.9270833333333
67,0,0,109.9270833333333
82,0,0.025,109.9520833333333
81,96,0.0020833333333333333,109.95416666666664
40,96,0,109.95416666666664
40,0,0.47291666666666665,110.4270833333333
52,96,0.027083333333333334,110.45416666666664
60,96,0,110.45416666666664
81,0,0.4479166666666667,110.90208333333331
52,0,0.025,110.92708333333331
60,0,0,110.92708333333331
79,96,0.027083333333333334,110.95416666666665
58,96,0,110.95416666666665
60,96,0,110.95416666666665
67,96,0,110.95416666666665
79,0,0.47291666666666665,111.42708333333331
58,0,0,111.42708333333331
60,0,0,111.42708333333331
67,0,0,111.42708333333331
69,96,0.027083333333333334,111.45416666666665
77,96,0,111.45416666666665
41,96,0,111.45416666666665
41,0,0.47291666666666665,111.92708333333331
53,92,0.027083333333333334,111.95416666666665
63,92,0,111.95416666666665
53,0,0.47291666666666665,112.42708333333331
63,0,0,112.42708333333331
60,88,0.027083333333333334,112.45416666666665
63,88,0,112.45416666666665
69,88,0,112.45416666666665
69,0,0.42291666666666666,112.87708333333332
77,0,0,112.87708333333332
60,0,0.05,112.92708333333331
63,0,0,112.92708333333331
69,0,0,112.92708333333331
70,84,0.027083333333333334,112.95416666666665
74,84,0,112.95416666666665
43,84,0,112.95416666666665
43,0,0.47291666666666665,113.42708333333331
55,80,0.027083333333333334,113.45416666666665
62,80,0,113.45416666666665
55,0,0.47291666666666665,113.92708333333331
62,0,0,113.92708333333331
58,76,0.027083333333333334,113.95416666666665
62,76,0,113.95416666666665
70,76,0,113.95416666666665
70,0,0.42291666666666666,114.37708333333332
74,0,0,114.37708333333332
58,0,0.05,114.42708333333331
62,0,0,114.42708333333331
70,0,0,114.42708333333331
67,71,0.027083333333333334,114.45416666666665
75,71,0,114.45416666666665
36,71,0,114.45416666666665
36,0,0.47291666666666665,114.92708333333331
55,71,0.027083333333333334,114.95416666666665
63,71,0,114.95416666666665
55,0,0.47291666666666665,115.42708333333331
63,0,0,115.42708333333331
60,71,0.027083333333333334,115.45416666666665
63,71,0,115.45416666666665
67,71,0,115.45416666666665
67,0,0.42291666666666666,115.87708333333332
75,0,0,115.87708333333332
60,0,0.05,115.92708333333331
63,0,0,115.92708333333331
67,0,0,115.92708333333331
69,71,0.027083333333333334,115.95416666666665
74,71,0,115.95416666666665
41,71,0,115.95416666666665
69,0,0.24791666666666667,116.20208333333332
74,0,0,116.20208333333332
41,0,0.225,116.42708333333331
69,71,0.027083333333333334,116.45416666666665
72,71,0,116.45416666666665
53,71,0,116.45416666666665
63,71,0,116.45416666666665
69,0,0.24791666666666667,116.70208333333332
72,0,0,116.70208333333332
53,0,0.225,116.92708333333331
63,0,0,116.92708333333331
69,71,0.027083333333333334,116.95416666666665
74,71,0,116.95416666666665
60,71,0,116.95416666666665
63,71,0,116.95416666666665
65,71,0,116.95416666666665
69,0,0.24791666666666667,117.20208333333332
74,0,0,117.20208333333332
60,0,0.225,117.42708333333331
63,0,0,117.42708333333331
65,0,0,117.42708333333331
65,71,0.027083333333333334,117.45416666666665
70,71,0,117.45416666666665
58,71,0,117.45416666666665
62,71,0,117.45416666666665
58,0,0.47291666666666665,117.92708333333331
62,0,0,117.92708333333331
65,0,0.025,117.95208333333332
70,0,0,117.95208333333332
66,74,0.0020833333333333333,117.95416666666665
71,74,0,117.95416666666665
57,74,0,117.95416666666665
63,74,0,117.95416666666665
57,0,0.47291666666666665,118.42708333333331
63,0,0,118.42708333333331
66,0,0.025,118.45208333333332
71,0,0,118.45208333333332
64,77,0.0020833333333333333,118.45416666666665
71,77,0,118.45416666666665
56,77,0,118.45416666666665
56,0,0.47291666666666665,118.92708333333331
64,0,0.025,118.95208333333332
71,0,0,118.95208333333332
64,81,0.0020833333333333333,118.95416666666665
70,81,0,118.95416666666665
72,81,0,118.95416666666665
55,81,0,118.95416666666665
55,0,0.47291666666666665,119.42708333333331
64,0,0.025,119.45208333333332
70,0,0,119.45208333333332
72,0,0,119.45208333333332
65,84,0.0020833333333333333,119.45416666666665
69,84,0,119.45416666666665
72,84,0,119.45416666666665
53,84,0,119.45416666666665
60,84,0,119.45416666666665
63,84,0,119.45416666666665
53,0,0.47291666666666665,119.92708333333331
60,0,0,119.92708333333331
63,0,0,119.92708333333331
65,0,0.025,119.95208333333332
69,0,0,119.95208333333332
72,0,0,119.95208333333332
68,87,0.0020833333333333333,119.95416666666665
74,87,0,119.95416666666665
58,87,0,119.95416666666665
65,87,0,119.95416666666665
68,0,0.47291666666666665,120.42708333333331
74,0,0,120.42708333333331
58,0,0,120.42708333333331
65,0,0,120.42708333333331
67,91,0.027083333333333334,120.45416666666665
39,91,0,120.45416666666665
67,0,0.1625,120.61666666666665
70,91,0.0020833333333333333,120.61874999999998
39,0,0.08333333333333333,120.7020833333333
70,0,0.07916666666666666,120.78124999999997
75,91,0.004166666666666667,120.78541666666663
75,0,0.1625,120.94791666666663
79,91,0.00625,120.95416666666662
55,91,0,120.95416666666662
63,91,0,120.95416666666662
79,0,0.47291666666666665,121.42708333333329
55,0,0,121.42708333333329
63,0,0,121.42708333333329
69,91,0.027083333333333334,121.45416666666662
58,91,0,121.45416666666662
63,91,0,121.45416666666662
67,91,0,121.45416666666662
69,0,0.24791666666666667,121.70208333333329
70,91,0.0020833333333333333,121.70416666666662
58,0,0.22291666666666665,121.92708333333329
63,0,0,121.92708333333329
67,0,0,121.92708333333329
70,0,0.025,121.95208333333329
71,109,0.0020833333333333333,121.95416666666662
51,91,0,121.95416666666662
71,0,0.24791666666666667,122.20208333333329
51,0,0,122.20208333333329
70,91,0.0020833333333333333,122.20416666666662
70,0,0.24791666666666667,122.45208333333329
73,91,0.0020833333333333333,122.45416666666662
56,91,0,122.45416666666662
62,91,0,122.45416666666662
73,0,0.24791666666666667,122.70208333333329
74,91,0.0020833333333333333,122.70416666666662
56,0,0.22291666666666665,122.92708333333329
62,0,0,122.92708333333329
74,0,0.025,122.95208333333329
79,109,0.0020833333333333333,122.95416666666662
58,91,0,122.95416666666662
62,91,0,122.95416666666662
68,91,0,122.95416666666662
79,0,0.3729166666666667,123.32708333333329
77,91,0.0020833333333333333,123.32916666666662
58,0,0.09791666666666667,123.42708333333329
62,0,0,123.42708333333329
68,0,0,123.42708333333329
77,0,0.01875,123.44583333333328
77,91,0.008333333333333333,123.45416666666662
51,91,0,123.45416666666662
51,0,0.24791666666666667,123.70208333333329
55,79,0.2520833333333333,123.95416666666662
63,79,0,123.95416666666662
77,0,0.4479166666666667,124.4020833333333
55,0,0.025,124.4270833333333
63,0,0,124.4270833333333
75,66,0.027083333333333334,124.45416666666664
58,66,0,124.45416666666664
63,66,0,124.45416666666664
67,66,0,124.45416666666664
58,0,0.47291666666666665,124.9270833333333
63,0,0,124.9270833333333
67,0,0,124.9270833333333
75,0,0.025,124.9520833333333
75,66,0.0020833333333333333,124.95416666666664
50,66,0,124.95416666666664
75,0,0.23541666666666666,125.1895833333333
77,68,0.014583333333333334,125.20416666666664
50,0,0.22291666666666665,125.4270833333333
77,0,0.0125,125.4395833333333
75,71,0.014583333333333334,125.45416666666664
55,71,0,125.45416666666664
63,71,0,125.45416666666664
75,0,0.05625,125.51041666666664
77,71,0.00625,125.51666666666664
77,0,0.05625,125.57291666666664
75,71,0.00625,125.57916666666664
75,0,0.05625,125.63541666666664
77,71,0.00625,125.64166666666664
77,0,0.05625,125.69791666666664
74,73,0.00625,125.70416666666664
55,0,0.22291666666666665,125.9270833333333
63,0,0,125.9270833333333
74,0,0.0125,125.9395833333333
75,76,0.014583333333333334,125.95416666666664
58,76,0,125.95416666666664
63,76,0,125.95416666666664
67,76,0,125.95416666666664
75,0,0.23541666666666666,126.1895833333333
77,78,0.014583333333333334,126.20416666666664
58,0,0.22291666666666665,126.4270833333333
63,0,0,126.4270833333333
67,0,0,126.4270833333333
77,0,0.025,126.4520833333333
79,81,0.0020833333333333333,126.45416666666664
48,81,0,126.45416666666664
79,0,0.23541666666666666,126.6895833333333
48,0,0.0125,126.7020833333333
71,81,0.0020833333333333333,126.70416666666664
71,0,0.23541666666666666,126.9395833333333
72,81,0.014583333333333334,126.95416666666664
55,81,0,126.95416666666664
64,81,0,126.95416666666664
72,0,0.23541666666666666,127.1895833333333
73,81,0.014583333333333334,127.20416666666664
55,0,0.22291666666666665,127.4270833333333
64,0,0,127.4270833333333
73,0,0.025,127.4520833333333
72,81,0.0020833333333333333,127.45416666666664
58,81,0,127.45416666666664
64,81,0,127.45416666666664
67,81,0,127.45416666666664
72,0,0.23541666666666666,127.6895833333333
77,81,0.014583333333333334,127.70416666666664
58,0,0.22291666666666665,127.9270833333333
64,0,0,127.9270833333333
67,0,0,127.9270833333333
77,0,0.025,127.9520833333333
76,81,0.0020833333333333333,127.95416666666664
48,81,0,127.95416666666664
76,0,0.23541666666666666,128.1895833333333
48,0,0.0125,128.2020833333333
80,81,0.0020833333333333333,128.20416666666662
80,0,0.24791666666666667,128.4520833333333
79,82,0.0020833333333333333,128.45416666666662
55,82,0,128.45416666666662
64,82,0,128.45416666666662
79,0,0.23541666666666666,128.6895833333333
85,82,0.014583333333333334,128.70416666666662
55,0,0.22291666666666665,128.9270833333333
64,0,0,128.9270833333333
85,0,0.025,128.9520833333333
84,83,0.0020833333333333333,128.95416666666662
60,83,0,128.95416666666662
64,83,0,128.95416666666662
70,83,0,128.95416666666662
84,0,0.24791666666666667,129.2020833333333
79,83,0.0020833333333333333,129.20416666666662
60,0,0.22291666666666665,129.4270833333333
64,0,0,129.4270833333333
70,0,0,129.4270833333333
79,0,0.025,129.4520833333333
79,84,0.0020833333333333333,129.45416666666662
41,84,0,129.45416666666662
79,0,0.06041666666666667,129.5145833333333
82,84,0.0020833333333333333,129.51666666666662
41,0,0.41041666666666665,129.9270833333333
53,85,0.027083333333333334,129.95416666666662
61,85,0,129.95416666666662
53,0,0.47291666666666665,130.4270833333333
61,0,0,130.4270833333333
58,86,0.027083333333333334,130.45416666666662
61,86,0,130.45416666666662
64,86,0,130.45416666666662
82,0,0.42291666666666666,130.8770833333333
58,0,0.05,130.92708333333331
61,0,0,130.92708333333331
64,0,0,130.92708333333331
80,87,0.027083333333333334,130.95416666666665
41,87,0,130.95416666666665
41,0,0.47291666666666665,131.42708333333331
53,88,0.027083333333333334,131.45416666666665
60,88,0,131.45416666666665
80,0,0.4479166666666667,131.9020833333333
53,0,0.025,131.92708333333331
60,0,0,131.92708333333331
79,89,0.027083333333333334,131.95416666666665
56,89,0,131.95416666666665
60,89,0,131.95416666666665
65,89,0,131.95416666666665
79,0,0.47291666666666665,132.42708333333331
56,0,0,132.42708333333331
60,0,0,132.42708333333331
65,0,0,132.42708333333331
77,91,0.027083333333333334,132.45416666666665
46,91,0,132.45416666666665
77,0,0.11458333333333333,132.56875
79,91,0.008333333333333333,132.57708333333332
79,0,0.11458333333333333,132.69166666666666
77,91,0.010416666666666666,132.70208333333332
77,0,0.11458333333333333,132.81666666666666
79,91,0.0125,132.82916666666665
46,0,0.09791666666666667,132.92708333333331
79,0,0.016666666666666666,132.94375
77,91,0.008333333333333333,132.95208333333332
53,91,0.0020833333333333333,132.95416666666665
62,91,0,132.95416666666665
77,0,0.1125,133.06666666666666
79,91,0.010416666666666666,133.07708333333332
79,0,0.11458333333333333,133.19166666666666
77,91,0.0125,133.20416666666665
77,0,0.11458333333333333,133.31875
79,91,0.008333333333333333,133.32708333333332
53,0,0.1,133.42708333333331
62,0,0,133.42708333333331
79,0,0.014583333333333334,133.44166666666663
77,91,0.010416666666666666,133.4520833333333
58,91,0.0020833333333333333,133.45416666666662
62,91,0,133.45416666666662
68,91,0,133.45416666666662
77,0,0.1125,133.56666666666663
79,91,0.0125,133.57916666666662
79,0,0.11458333333333333,133.69374999999997
77,91,0.008333333333333333,133.7020833333333
77,0,0.11458333333333333,133.81666666666663
79,91,0.010416666666666666,133.8270833333333
58,0,0.1,133.9270833333333
62,0,0,133.9270833333333
68,0,0,133.9270833333333
79,0,0.014583333333333334,133.9416666666666
76,91,0.0125,133.9541666666666
47,91,0,133.9541666666666
76,0,0.12291666666666666,134.07708333333326
77,91,0.0020833333333333333,134.0791666666666
77,0,0.12291666666666666,134.20208333333326
79,91,0.0020833333333333333,134.2041666666666
79,0,0.07916666666666666,134.28333333333327
47,0,0.14375,134.4270833333333
79,91,0.027083333333333334,134.45416666666662
55,91,0,134.45416666666662
65,91,0,134.45416666666662
55,0,0.47291666666666665,134.9270833333333
65,0,0,134.9270833333333
79,0,0.025,134.9520833333333
74,91,0.0020833333333333333,134.95416666666662
62,91,0,134.95416666666662
65,91,0,134.95416666666662
67,91,0,134.95416666666662
74,0,0.47291666666666665,135.4270833333333
62,0,0,135.4270833333333
65,0,0,135.4270833333333
67,0,0,135.4270833333333
75,91,0.027083333333333334,135.45416666666662
48,91,0,135.45416666666662
48,0,0.47291666666666665,135.9270833333333
55,91,0.027083333333333334,135.95416666666662
63,91,0,135.95416666666662
55,0,0.47291666666666665,136.4270833333333
63,0,0,136.4270833333333
60,91,0.027083333333333334,136.45416666666662
63,91,0,136.45416666666662
67,91,0,136.45416666666662
75,0,0.42291666666666666,136.8770833333333
60,0,0.05,136.92708333333331
63,0,0,136.92708333333331
67,0,0,136.92708333333331
72,91,0.027083333333333334,136.95416666666665
45,91,0,136.95416666666665
45,0,0.47291666666666665,137.42708333333331
54,91,0.027083333333333334,137.45416666666665
63,91,0,137.45416666666665
54,0,0.47291666666666665,137.92708333333331
63,0,0,137.92708333333331
60,91,0.027083333333333334,137.95416666666665
63,91,0,137.95416666666665
66,91,0,137.95416666666665
72,0,0.42291666666666666,138.37708333333333
60,0,0.05,138.42708333333334
63,0,0,138.42708333333334
66,0,0,138.42708333333334
70,91,0.027083333333333334,138.45416666666668
46,91,0,138.45416666666668
70,0,0.24791666666666667,138.70208333333335
86,91,0.0020833333333333333,138.70416666666668
46,0,0.22291666666666665,138.92708333333334
53,91,0.027083333333333334,138.95416666666668
63,91,0,138.95416666666668
86,0,0.24791666666666667,139.20208333333335
85,91,0.0020833333333333333,139.20416666666668
53,0,0.22291666666666665,139.42708333333334
63,0,0,139.42708333333334
85,0,0.025,139.45208333333335
84,91,0.0020833333333333333,139.45416666666668
58,91,0,139.45416666666668
63,91,0,139.45416666666668
68,91,0,139.45416666666668
84,0,0.24791666666666667,139.70208333333335
83,91,0.0020833333333333333,139.70416666666668
58,0,0.22291666666666665,139.92708333333334
63,0,0,139.92708333333334
68,0,0,139.92708333333334
83,0,0.025,139.95208333333335
82,91,0.0020833333333333333,139.95416666666668
34,91,0,139.95416666666668
82,0,0.24791666666666667,140.20208333333335
81,91,0.0020833333333333333,140.20416666666668
34,0,0.22291666666666665,140.42708333333334
81,0,0.0125,140.43958333333333
80,91,0.014583333333333334,140.45416666666665
53,91,0,140.45416666666665
62,91,0,140.45416666666665
80,0,0.07916666666666666,140.53333333333333
69,91,0.17083333333333334,140.70416666666665
69,0,0.08125,140.78541666666666
70,91,0.0020833333333333333,140.7875
70,0,0.08125,140.86875
72,91,0.0020833333333333333,140.87083333333334
53,0,0.05625,140.92708333333334
62,0,0,140.92708333333334
72,0,0.025,140.95208333333335
73,91,0.0020833333333333333,140.95416666666668
58,91,0,140.95416666666668
62,91,0,140.95416666666668
68,91,0,140.95416666666668
73,0,0.12291666666666666,141.07708333333335
74,91,0.0020833333333333333,141.07916666666668
74,0,0.12291666666666666,141.20208333333335
79,91,0.0020833333333333333,141.20416666666668
79,0,0.08125,141.2854166666667
77,91,0.0020833333333333333,141.28750000000002
77,0,0.08125,141.36875000000003
75,91,0.0020833333333333333,141.37083333333337
58,0,0.05625,141.42708333333337
62,0,0,141.42708333333337
68,0,0,141.42708333333337
75,0,0.020833333333333332,141.4479166666667
75,91,0.00625,141.4541666666667
39,91,0,141.4541666666667
39,0,0.47291666666666665,141.92708333333337
55,91,0.027083333333333334,141.9541666666667
63,91,0,141.9541666666667
55,0,0.47291666666666665,142.42708333333337
63,0,0,142.42708333333337
58,91,0.027083333333333334,142.4541666666667
63,91,0,142.4541666666667
67,91,0,142.4541666666667
58,0,0.47291666666666665,142.92708333333337
63,0,0,142.92708333333337
67,0,0,142.92708333333337
51,91,0.027083333333333334,142.9541666666667
51,0,0.47291666666666665,143.42708333333337
55,91,0.027083333333333334,143.4541666666667
63,91,0,143.4541666666667
55,0,0.47291666666666665,143.92708333333337
63,0,0,143.92708333333337
58,91,0.027083333333333334,143.9541666666667
63,91,0,143.9541666666667
67,91,0,143.9541666666667
75,0,0.34791666666666665,144.30208333333337
58,0,0.125,144.42708333333337
63,0,0,144.42708333333337
67,0,0,144.42708333333337
75,60,0.027083333333333334,144.4541666666667
39,60,0,144.4541666666667
39,0,0.47291666666666665,144.92708333333337
56,60,0.027083333333333334,144.9541666666667
59,60,0,144.9541666666667
63,60,0,144.9541666666667
56,0,0.47291666666666665,145.42708333333337
59,0,0,145.42708333333337
63,0,0,145.42708333333337
59,60,0.027083333333333334,145.4541666666667
63,60,0,145.4541666666667
68,60,0,145.4541666666667
75,0,0.42291666666666666,145.8770833333334
59,0,0.05,145.9270833333334
63,0,0,145.9270833333334
68,0,0,145.9270833333334
77,60,0.027083333333333334,145.95416666666674
51,60,0,145.95416666666674
51,0,0.47291666666666665,146.4270833333334
77,0,0.025,146.4520833333334
75,60,0.0020833333333333333,146.45416666666674
56,60,0,146.45416666666674
59,60,0,146.45416666666674
63,60,0,146.45416666666674
56,0,0.47291666666666665,146.9270833333334
59,0,0,146.9270833333334
63,0,0,146.9270833333334
75,0,0.025,146.9520833333334
77,60,0.0020833333333333333,146.95416666666674
59,60,0,146.95416666666674
63,60,0,146.95416666666674
68,60,0,146.95416666666674
59,0,0.47291666666666665,147.4270833333334
63,0,0,147.4270833333334
68,0,0,147.4270833333334
77,0,0.025,147.4520833333334
79,60,0.0020833333333333333,147.45416666666674
39,60,0,147.45416666666674
39,0,0.47291666666666665,147.9270833333334
55,60,0.027083333333333334,147.95416666666674
63,60,0,147.95416666666674
55,0,0.47291666666666665,148.4270833333334
63,0,0,148.4270833333334
58,60,0.027083333333333334,148.45416666666674
63,60,0,148.45416666666674
67,60,0,148.45416666666674
58,0,0.47291666666666665,148.9270833333334
63,0,0,148.9270833333334
67,0,0,148.9270833333334
51,60,0.027083333333333334,148.95416666666674
51,0,0.47291666666666665,149.4270833333334
55,60,0.027083333333333334,149.45416666666674
63,60,0,149.45416666666674
55,0,0.47291666666666665,149.9270833333334
63,0,0,149.9270833333334
58,60,0.027083333333333334,149.95416666666674
63,60,0,149.95416666666674
67,60,0,149.95416666666674
79,0,0.34791666666666665,150.3020833333334
58,0,0.125,150.4270833333334
63,0,0,150.4270833333334
67,0,0,150.4270833333334
75,55,0.027083333333333334,150.45416666666674
39,55,0,150.45416666666674
39,0,0.47291666666666665,150.9270833333334
56,55,0.027083333333333334,150.95416666666674
59,55,0,150.95416666666674
63,55,0,150.95416666666674
56,0,0.47291666666666665,151.4270833333334
59,0,0,151.4270833333334
63,0,0,151.4270833333334
59,55,0.027083333333333334,151.45416666666674
63,55,0,151.45416666666674
68,55,0,151.45416666666674
59,0,0.47291666666666665,151.9270833333334
63,0,0,151.9270833333334
68,0,0,151.9270833333334
51,55,0.027083333333333334,151.95416666666674
75,0,0.24791666666666667,152.2020833333334
77,55,0.0020833333333333333,152.20416666666674
51,0,0.22291666666666665,152.4270833333334
77,0,0.025,152.4520833333334
75,55,0.0020833333333333333,152.45416666666674
56,55,0,152.45416666666674
59,55,0,152.45416666666674
63,55,0,152.45416666666674
75,0,0.24791666666666667,152.7020833333334
77,55,0.0020833333333333333,152.70416666666674
56,0,0.22291666666666665,152.9270833333334
59,0,0,152.9270833333334
63,0,0,152.9270833333334
77,0,0.025,152.9520833333334
75,55,0.0020833333333333333,152.95416666666674
59,55,0,152.95416666666674
63,55,0,152.95416666666674
68,55,0,152.95416666666674
75,0,0.24791666666666667,153.2020833333334
77,55,0.0020833333333333333,153.20416666666674
59,0,0.22291666666666665,153.4270833333334
63,0,0,153.4270833333334
68,0,0,153.4270833333334
77,0,0.025,153.4520833333334
79,55,0.0020833333333333333,153.45416666666674
39,55,0,153.45416666666674
39,0,0.47291666666666665,153.9270833333334
55,55,0.027083333333333334,153.95416666666674
58,55,0,153.95416666666674
63,55,0,153.95416666666674
79,0,0.4479166666666667,154.4020833333334
55,0,0.025,154.4270833333334
58,0,0,154.4270833333334
63,0,0,154.4270833333334
77,55,0.027083333333333334,154.45416666666674
58,55,0,154.45416666666674
63,55,0,154.45416666666674
67,55,0,154.45416666666674
77,0,0.12291666666666666,154.5770833333334
75,55,0.0020833333333333333,154.57916666666674
75,0,0.12291666666666666,154.7020833333334
74,55,0.0020833333333333333,154.70416666666674
74,0,0.12291666666666666,154.8270833333334
75,55,0.0020833333333333333,154.82916666666674
58,0,0.09791666666666667,154.9270833333334
63,0,0,154.9270833333334
67,0,0,154.9270833333334
75,0,0.025,154.9520833333334
87,55,0.0020833333333333333,154.95416666666674
51,55,0,154.95416666666674
87,0,0.47291666666666665,155.4270833333334
51,0,0,155.4270833333334
86,55,0.027083333333333334,155.45416666666674
55,55,0,155.45416666666674
63,55,0,155.45416666666674
86,0,0.47291666666666665,155.9270833333334
55,0,0,155.9270833333334
63,0,0,155.9270833333334
84,55,0.027083333333333334,155.95416666666674
58,55,0,155.95416666666674
63,55,0,155.95416666666674
67,55,0,155.95416666666674
84,0,0.47291666666666665,156.4270833333334
58,0,0,156.4270833333334
63,0,0,156.4270833333334
67,0,0,156.4270833333334
82,55,0.027083333333333334,156.45416666666674
51,55,0,156.45416666666674
51,0,0.47291666666666665,156.9270833333334
53,55,0.027083333333333334,156.95416666666674
62,55,0,156.95416666666674
82,0,0.4479166666666667,157.4020833333334
53,0,0.025,157.4270833333334
62,0,0,157.4270833333334
81,55,0.027083333333333334,157.45416666666674
58,55,0,157.45416666666674
68,55,0,157.45416666666674
58,0,0.47291666666666665,157.9270833333334
68,0,0,157.9270833333334
81,0,0.025,157.9520833333334
80,55,0.0020833333333333333,157.95416666666674
51,55,0,157.95416666666674
80,0,0.47291666666666665,158.4270833333334
51,0,0,158.4270833333334
72,55,0.027083333333333334,158.45416666666674
53,55,0,158.45416666666674
62,55,0,158.45416666666674
72,0,0.47291666666666665,158.9270833333334
53,0,0,158.9270833333334
62,0,0,158.9270833333334
74,55,0.027083333333333334,158.95416666666674
58,55,0,158.95416666666674
68,55,0,158.95416666666674
74,0,0.47291666666666665,159.4270833333334
58,0,0,159.4270833333334
68,0,0,159.4270833333334
75,55,0.027083333333333334,159.45416666666674
51,55,0,159.45416666666674
75,0,0.47291666666666665,159.9270833333334
51,0,0,159.9270833333334
77,55,0.027083333333333334,159.95416666666674
55,55,0,159.95416666666674
63,55,0,159.95416666666674
77,0,0.23541666666666666,160.18958333333342
75,55,0.014583333333333334,160.20416666666674
75,0,0.075,160.27916666666673
77,55,0.00625,160.28541666666672
77,0,0.075,160.3604166666667
75,55,0.008333333333333333,160.36875000000003
55,0,0.058333333333333334,160.42708333333337
63,0,0,160.42708333333337
75,0,0.016666666666666666,160.44375000000005
74,55,0.010416666666666666,160.4541666666667
58,55,0,160.4541666666667
67,55,0,160.4541666666667
74,0,0.23541666666666666,160.6895833333334
75,55,0.014583333333333334,160.7041666666667
58,0,0.22291666666666665,160.92708333333337
67,0,0,160.92708333333337
75,0,0.0125,160.93958333333336
75,55,0.014583333333333334,160.95416666666668
45,55,0,160.95416666666668
75,0,0.24791666666666667,161.20208333333335
91,55,0.0020833333333333333,161.20416666666668
45,0,0.22291666666666665,161.42708333333334
91,0,0.0125,161.43958333333333
89,55,0.014583333333333334,161.45416666666665
53,55,0,161.45416666666665
63,55,0,161.45416666666665
89,0,0.12291666666666666,161.57708333333332
87,55,0.12708333333333333,161.70416666666665
87,0,0.12291666666666666,161.82708333333332
53,0,0.1,161.92708333333331
63,0,0,161.92708333333331
86,55,0.027083333333333334,161.95416666666665
60,55,0,161.95416666666665
63,55,0,161.95416666666665
65,55,0,161.95416666666665
86,0,0.12291666666666666,162.07708333333332
84,55,0.12708333333333333,162.20416666666665
84,0,0.12291666666666666,162.32708333333332
60,0,0.1,162.42708333333331
63,0,0,162.42708333333331
65,0,0,162.42708333333331
83,55,0.027083333333333334,162.45416666666665
46,55,0,162.45416666666665
46,0,0.47291666666666665,162.92708333333331
83,0,0.025,162.95208333333332
82,55,0.0020833333333333333,162.95416666666665
53,55,0,162.95416666666665
63,55,0,162.95416666666665
53,0,0.47291666666666665,163.42708333333331
63,0,0,163.42708333333331
82,0,0.025,163.45208333333332
81,55,0.0020833333333333333,163.45416666666665
58,55,0,163.45416666666665
63,55,0,163.45416666666665
68,55,0,163.45416666666665
81,0,0.47291666666666665,163.92708333333331
58,0,0,163.92708333333331
63,0,0,163.92708333333331
68,0,0,163.92708333333331
81,55,0.027083333333333334,163.95416666666665
34,55,0,163.95416666666665
81,0,0.24791666666666667,164.20208333333332
80,55,0.0020833333333333333,164.20416666666665
34,0,0.22291666666666665,164.42708333333331
80,0,0.0125,164.4395833333333
80,55,0.014583333333333334,164.45416666666662
53,55,0,164.45416666666662
62,55,0,164.45416666666662
80,0,0.24791666666666667,164.7020833333333
79,55,0.0020833333333333333,164.70416666666662
53,0,0.22291666666666665,164.9270833333333
62,0,0,164.9270833333333
79,0,0.0125,164.93958333333327
79,55,0.014583333333333334,164.9541666666666
58,55,0,164.9541666666666
62,55,0,164.9541666666666
68,55,0,164.9541666666666
79,0,0.3729166666666667,165.32708333333326
77,55,0.0020833333333333333,165.3291666666666
58,0,0.09791666666666667,165.42708333333326
62,0,0,165.42708333333326
68,0,0,165.42708333333326
77,0,0.01875,165.44583333333327
75,66,0.008333333333333333,165.4541666666666
39,55,0,165.4541666666666
39,0,0.47291666666666665,165.92708333333326
55,55,0.027083333333333334,165.9541666666666
63,55,0,165.9541666666666
55,0,0.47291666666666665,166.42708333333326
63,0,0,166.42708333333326
58,55,0.027083333333333334,166.4541666666666
63,55,0,166.4541666666666
67,55,0,166.4541666666666
58,0,0.47291666666666665,166.92708333333326
63,0,0,166.92708333333326
67,0,0,166.92708333333326
51,55,0.027083333333333334,166.9541666666666
51,0,0.47291666666666665,167.42708333333326
55,55,0.027083333333333334,167.4541666666666
63,55,0,167.4541666666666
55,0,0.47291666666666665,167.92708333333326
63,0,0,167.92708333333326
58,55,0.027083333333333334,167.9541666666666
63,55,0,167.9541666666666
67,55,0,167.9541666666666
58,0,0.47291666666666665,168.42708333333326
63,0,0,168.42708333333326
67,0,0,168.42708333333326
75,0,0.025,168.45208333333326
75,65,0.0020833333333333333,168.4541666666666
32,65,0,168.4541666666666
32,0,0.47291666666666665,168.92708333333326
51,65,0.027083333333333334,168.9541666666666
56,65,0,168.9541666666666
59,65,0,168.9541666666666
51,0,0.47291666666666665,169.42708333333326
56,0,0,169.42708333333326
59,0,0,169.42708333333326
56,65,0.027083333333333334,169.4541666666666
59,65,0,169.4541666666666
63,65,0,169.4541666666666
56,0,0.47291666666666665,169.92708333333326
59,0,0,169.92708333333326
63,0,0,169.92708333333326
59,65,0.027083333333333334,169.9541666666666
63,65,0,169.9541666666666
68,65,0,169.9541666666666
75,0,0.1,170.0541666666666
77,65,0.0875,170.1416666666666
77,0,0.18541666666666667,170.32708333333326
75,65,0.0020833333333333333,170.3291666666666
59,0,0.09791666666666667,170.42708333333326
63,0,0,170.42708333333326
68,0,0,170.42708333333326
56,65,0.027083333333333334,170.4541666666666
59,65,0,170.4541666666666
63,65,0,170.4541666666666
75,0,0.06041666666666667,170.51458333333326
77,65,0.0020833333333333333,170.5166666666666
77,0,0.18541666666666667,170.70208333333326
75,65,0.0020833333333333333,170.7041666666666
75,0,0.175,170.8791666666666
77,65,0.0125,170.8916666666666
56,0,0.035416666666666666,170.92708333333326
59,0,0,170.92708333333326
63,0,0,170.92708333333326
51,68,0.027083333333333334,170.9541666666666
56,68,0,170.9541666666666
59,68,0,170.9541666666666
77,0,0.12291666666666666,171.07708333333326
75,75,0.0020833333333333333,171.0791666666666
75,0,0.175,171.2541666666666
77,85,0.0125,171.2666666666666
51,0,0.16041666666666665,171.42708333333326
56,0,0,171.42708333333326
59,0,0,171.42708333333326
77,0,0.014583333333333334,171.44166666666658
75,96,0.0125,171.45416666666657
39,96,0,171.45416666666657
39,0,0.47291666666666665,171.92708333333323
55,96,0.027083333333333334,171.95416666666657
63,96,0,171.95416666666657
55,0,0.47291666666666665,172.42708333333323
63,0,0,172.42708333333323
58,96,0.027083333333333334,172.45416666666657
63,96,0,172.45416666666657
67,96,0,172.45416666666657
58,0,0.47291666666666665,172.92708333333323
63,0,0,172.92708333333323
67,0,0,172.92708333333323
51,96,0.027083333333333334,172.95416666666657
51,0,0.47291666666666665,173.42708333333323
55,96,0.027083333333333334,173.45416666666657
63,96,0,173.45416666666657
55,0,0.47291666666666665,173.92708333333323
63,0,0,173.92708333333323
58,96,0.027083333333333334,173.95416666666657
63,96,0,173.95416666666657
67,96,0,173.95416666666657
75,0,0.34791666666666665,174.30208333333323
58,0,0.125,174.42708333333323
63,0,0,174.42708333333323
67,0,0,174.42708333333323
75,96,0.027083333333333334,174.45416666666657
32,96,0,174.45416666666657
75,0,0.1625,174.61666666666656
32,0,0.3104166666666667,174.92708333333323
68,96,0.027083333333333334,174.95416666666657
51,96,0,174.95416666666657
56,96,0,174.95416666666657
68,0,0.24791666666666667,175.20208333333323
70,96,0.0020833333333333333,175.20416666666657
51,0,0.22291666666666665,175.42708333333323
56,0,0,175.42708333333323
70,0,0.025,175.45208333333323
68,96,0.0020833333333333333,175.45416666666657
56,96,0,175.45416666666657
59,96,0,175.45416666666657
63,96,0,175.45416666666657
68,0,0.06041666666666667,175.51458333333323
70,96,0.0020833333333333333,175.51666666666657
70,0,0.06041666666666667,175.57708333333323
68,96,0.0020833333333333333,175.57916666666657
68,0,0.06041666666666667,175.63958333333323
70,96,0.0020833333333333333,175.64166666666657
70,0,0.06041666666666667,175.70208333333323
67,96,0.0020833333333333333,175.70416666666657
56,0,0.22291666666666665,175.92708333333323
59,0,0,175.92708333333323
63,0,0,175.92708333333323
67,0,0.025,175.95208333333323
68,96,0.0020833333333333333,175.95416666666657
59,96,0,175.95416666666657
63,96,0,175.95416666666657
68,96,0,175.95416666666657
68,0,0.24791666666666667,176.20208333333323
71,96,0.0020833333333333333,176.20416666666657
59,0,0.22291666666666665,176.42708333333323
63,0,0,176.42708333333323
68,0,0,176.42708333333323
71,0,0.025,176.45208333333323
75,96,0.0020833333333333333,176.45416666666657
56,96,0,176.45416666666657
59,96,0,176.45416666666657
63,96,0,176.45416666666657
75,0,0.24791666666666667,176.70208333333323
80,96,0.0020833333333333333,176.70416666666657
56,0,0.22291666666666665,176.92708333333323
59,0,0,176.92708333333323
63,0,0,176.92708333333323
80,0,0.025,176.95208333333323
87,96,0.0020833333333333333,176.95416666666657
51,96,0,176.95416666666657
56,96,0,176.95416666666657
59,96,0,176.95416666666657
87,0,0.23541666666666666,177.18958333333325
89,96,0.13958333333333334,177.32916666666657
51,0,0.09791666666666667,177.42708333333323
56,0,0,177.42708333333323
59,0,0,177.42708333333323
89,0,0.025,177.45208333333323
91,96,0.0020833333333333333,177.45416666666657
39,96,0,177.45416666666657
39,0,0.47291666666666665,177.92708333333323
91,0,0.025,177.95208333333323
87,96,0.0020833333333333333,177.95416666666657
55,96,0,177.95416666666657
63,96,0,177.95416666666657
87,0,0.47291666666666665,178.42708333333323
55,0,0,178.42708333333323
63,0,0,178.42708333333323
87,96,0.027083333333333334,178.45416666666657
99,96,0,178.45416666666657
58,96,0,178.45416666666657
63,96,0,178.45416666666657
67,96,0,178.45416666666657
58,0,0.47291666666666665,178.92708333333323
63,0,0,178.92708333333323
67,0,0,178.92708333333323
45,91,0.027083333333333334,178.95416666666657
87,0,0.4479166666666667,179.40208333333322
99,0,0,179.40208333333322
45,0,0.025,179.42708333333323
86,86,0.027083333333333334,179.45416666666657
98,86,0,179.45416666666657
55,86,0,179.45416666666657
63,86,0,179.45416666666657
86,0,0.47291666666666665,179.92708333333323
98,0,0,179.92708333333323
55,0,0,179.92708333333323
63,0,0,179.92708333333323
84,86,0.027083333333333334,179.95416666666657
96,86,0,179.95416666666657
60,86,0,179.95416666666657
63,86,0,179.95416666666657
65,86,0,179.95416666666657
84,0,0.47291666666666665,180.42708333333323
96,0,0,180.42708333333323
60,0,0,180.42708333333323
63,0,0,180.42708333333323
65,0,0,180.42708333333323
83,86,0.027083333333333334,180.45416666666657
95,86,0,180.45416666666657
46,86,0,180.45416666666657
83,0,0.47291666666666665,180.92708333333323
95,0,0,180.92708333333323
46,0,0,180.92708333333323
82,86,0.027083333333333334,180.95416666666657
94,86,0,180.95416666666657
53,86,0,180.95416666666657
58,86,0,180.95416666666657
63,86,0,180.95416666666657
82,0,0.47291666666666665,181.42708333333323
94,0,0,181.42708333333323
53,0,0,181.42708333333323
58,0,0,181.42708333333323
63,0,0,181.42708333333323
81,86,0.027083333333333334,181.45416666666657
93,86,0,181.45416666666657
58,86,0,181.45416666666657
63,86,0,181.45416666666657
68,86,0,181.45416666666657
81,0,0.47291666666666665,181.92708333333323
93,0,0,181.92708333333323
58,0,0,181.92708333333323
63,0,0,181.92708333333323
68,0,0,181.92708333333323
80,86,0.027083333333333334,181.95416666666657
92,86,0,181.95416666666657
47,86,0,181.95416666666657
80,0,0.47291666666666665,182.42708333333323
92,0,0,182.42708333333323
47,0,0,182.42708333333323
79,86,0.027083333333333334,182.45416666666657
91,86,0,182.45416666666657
55,86,0,182.45416666666657
65,86,0,182.45416666666657
79,0,0.47291666666666665,182.92708333333323
91,0,0,182.92708333333323
55,0,0,182.92708333333323
65,0,0,182.92708333333323
74,86,0.027083333333333334,182.95416666666657
86,86,0,182.95416666666657
62,86,0,182.95416666666657
65,86,0,182.95416666666657
67,86,0,182.95416666666657
74,0,0.47291666666666665,183.42708333333323
86,0,0,183.42708333333323
62,0,0,183.42708333333323
65,0,0,183.42708333333323
67,0,0,183.42708333333323
75,86,0.027083333333333334,183.45416666666657
87,86,0,183.45416666666657
48,86,0,183.45416666666657
75,0,0.47291666666666665,183.92708333333323
87,0,0,183.92708333333323
48,0,0,183.92708333333323
87,103,0.027083333333333334,183.95416666666657
99,103,0,183.95416666666657
55,86,0,183.95416666666657
63,86,0,183.95416666666657
55,0,0.47291666666666665,184.42708333333323
63,0,0,184.42708333333323
60,86,0.027083333333333334,184.45416666666657
67,86,0,184.45416666666657
60,0,0.47291666666666665,184.92708333333323
67,0,0,184.92708333333323
45,86,0.027083333333333334,184.95416666666657
45,0,0.47291666666666665,185.42708333333323
87,0,0.025,185.45208333333323
99,0,0,185.45208333333323
77,86,0.0020833333333333333,185.45416666666657
89,86,0,185.45416666666657
53,86,0,185.45416666666657
60,86,0,185.45416666666657
63,86,0,185.45416666666657
77,0,0.47291666666666665,185.92708333333323
89,0,0,185.92708333333323
53,0,0,185.92708333333323
60,0,0,185.92708333333323
63,0,0,185.92708333333323
84,86,0.027083333333333334,185.95416666666657
96,86,0,185.95416666666657
60,86,0,185.95416666666657
63,86,0,185.95416666666657
65,86,0,185.95416666666657
84,0,0.47291666666666665,186.42708333333323
96,0,0,186.42708333333323
60,0,0,186.42708333333323
63,0,0,186.42708333333323
65,0,0,186.42708333333323
83,127,0.027083333333333334,186.45416666666657
95,127,0,186.45416666666657
34,112,0,186.45416666666657
34,0,0.35,186.80416666666656
46,112,0.020833333333333332,186.8249999999999
46,0,0.3541666666666667,187.17916666666656
53,112,0.020833333333333332,187.1999999999999
53,0,0.3541666666666667,187.55416666666656
56,112,0.020833333333333332,187.5749999999999
56,0,0.3541666666666667,187.92916666666656
62,112,0.020833333333333332,187.9499999999999
62,0,0.3541666666666667,188.30416666666656
58,112,0.020833333333333332,188.3249999999999
83,0,0.13125,188.4562499999999
95,0,0,188.4562499999999
58,0,0.22291666666666665,188.67916666666656
65,112,0.020833333333333332,188.6999999999999
65,0,0.3541666666666667,189.05416666666656
68,112,0.020833333333333332,189.0749999999999
68,0,0.3541666666666667,189.42916666666656
82,127,0.020833333333333332,189.4499999999999
94,127,0,189.4499999999999
74,112,0,189.4499999999999
82,0,2.00625,191.4562499999999
94,0,0,191.4562499999999
74,0,0.8416666666666667,192.29791666666657
95,112,0,192.29791666666657
95,0,0.20000015,192.49791681666656
94,112,0.014285724999999999,192.51220254166657
94,0,0.20000015,192.71220269166656
96,112,0.014285724999999999,192.72648841666657
96,0,0.20000015,192.92648856666656
93,112,0.014285724999999999,192.94077429166657
93,0,0.20000015,193.14077444166657
95,112,0,193.14077444166657
95,0,0.1749998833333333,193.3157743249999
94,112,0.012499991666666665,193.32827431666655
94,0,0.1749998833333333,193.50327419999988
96,113,0.012499991666666665,193.51577419166654
96,0,0.1749998833333333,193.69077407499987
93,114,0.012499991666666665,193.70327406666652
93,0,0.1749998833333333,193.87827394999985
95,115,0,193.87827394999985
95,0,0.11666666666666667,193.99494061666653
94,115,0.008333333333333333,194.00327394999985
94,0,0.11666666666666667,194.11994061666653
96,116,0.008333333333333333,194.12827394999985
96,0,0.11666666666666667,194.24494061666653
93,117,0.008333333333333333,194.25327394999985
93,0,0.11666666666666667,194.36994061666653
95,118,0.008333333333333333,194.37827394999985
95,0,0.11666666666666667,194.49494061666653
94,118,0.008333333333333333,194.50327394999985
94,0,0.11666666666666667,194.61994061666653
96,119,0.008333333333333333,194.62827394999985
96,0,0.11666666666666667,194.74494061666653
93,120,0.008333333333333333,194.75327394999985
93,0,0.11666666666666667,194.86994061666653
95,121,0,194.86994061666653
95,0,0.09999966666666667,194.9699402833332
94,121,0.0071428333333333335,194.97708311666653
94,0,0.09999966666666667,195.0770827833332
96,122,0.0071428333333333335,195.08422561666654
96,0,0.09999966666666667,195.1842252833332
93,123,0.0071428333333333335,195.19136811666655
93,0,0.09999966666666667,195.29136778333321
95,124,0.0071428333333333335,195.29851061666656
95,0,0.09999966666666667,195.39851028333322
94,124,0.0071428333333333335,195.40565311666657
94,0,0.09999966666666667,195.50565278333323
96,125,0.0071428333333333335,195.51279561666658
96,0,0.09999966666666667,195.61279528333324
93,126,0.0071428333333333335,195.6199381166666
93,0,0.09999966666666667,195.71993778333325
95,127,0.0071428333333333335,195.7270806166666
95,0,0.09999966666666667,195.82708028333326
94,127,0.0071428333333333335,195.8342231166666
94,0,0.09999966666666667,195.93422278333327
96,127,0.0071428333333333335,195.94136561666662
96,0,0.09999966666666667,196.04136528333328
93,127,0.0071428333333333335,196.04850811666662
93,0,0.09999966666666667,196.1485077833333
95,127,0,196.1485077833333
95,0,0.08750023333333333,196.23600801666663
94,127,0.006250016666666666,196.2422580333333
94,0,0.08750023333333333,196.32975826666663
96,127,0.006250016666666666,196.33600828333329
96,0,0.08750023333333333,196.42350851666663
93,127,0.006250016666666666,196.42975853333328
93,0,0.08750023333333333,196.51725876666663
95,127,0.006250016666666666,196.52350878333328
95,0,0.08750023333333333,196.61100901666663
94,127,0.006250016666666666,196.61725903333328
94,0,0.08750023333333333,196.70475926666663
96,127,0.006250016666666666,196.71100928333328
96,0,0.08750023333333333,196.79850951666663
93,127,0.006250016666666666,196.80475953333328
93,0,0.08750023333333333,196.89225976666663
95,127,0.006250016666666666,196.89850978333328
95,0,0.08750023333333333,196.98601001666663
94,127,0.006250016666666666,196.99226003333328
94,0,0.08750023333333333,197.07976026666663
96,127,0.006250016666666666,197.08601028333328
96,0,0.08750023333333333,197.17351051666662
93,127,0.006250016666666666,197.17976053333328
93,0,0.08750023333333333,197.26726076666662
95,127,0.006250016666666666,197.27351078333328
95,0,0.08750023333333333,197.36101101666662
94,120,0.006250016666666666,197.36726103333328
94,0,0.08750023333333333,197.45476126666662
96,113,0.006250016666666666,197.46101128333328
96,0,0.08750023333333333,197.54851151666662
93,106,0.006250016666666666,197.55476153333328
93,0,0.08750023333333333,197.64226176666662
95,99,0.006250016666666666,197.64851178333328
95,0,0.08750023333333333,197.73601201666662
94,92,0.006250016666666666,197.74226203333328
94,0,0.08750023333333333,197.82976226666662
96,85,0.006250016666666666,197.83601228333328
96,0,0.08750023333333333,197.92351251666662
93,77,0.006250016666666666,197.92976253333327
93,0,0.08750023333333333,198.01726276666662
95,77,0,198.01726276666662
95,0,0.14,198.1572627666666
94,77,0.01,198.1672627666666
94,0,0.14,198.30726276666658
98,77,0.01,198.31726276666657
98,0,0.14,198.45726276666656
96,77,0.01,198.46726276666655
96,0,0.14,198.60726276666654
94,77,0.01,198.61726276666653
94,0,0.14,198.7572627666665
93,77,0.01,198.7672627666665
93,0,0.14,198.9072627666665
92,77,0.01,198.91726276666648
92,0,0.14,199.05726276666647
91,77,0.01,199.06726276666646
91,0,0.14,199.20726276666645
89,77,0,199.20726276666645
89,0,0.21071444374999998,199.41797721041644
86,77,0.0035714312499999998,199.42154864166645
86,0,0.21071444374999998,199.63226308541644
87,77,0.0035714312499999998,199.63583451666645
87,0,0.21071444374999998,199.84654896041644
84,77,0.0035714312499999998,199.85012039166645
84,0,0.21071444374999998,200.06083483541644
82,77,0,200.06083483541644
82,0,0.36875036875,200.42958520416644
80,77,0.00625000625,200.43583521041646
80,0,0.36875036875,200.80458557916646
72,77,0.00625000625,200.81083558541647
72,0,0.36875036875,201.17958595416647
74,77,0.00625000625,201.18583596041648
74,0,0.35000034999999996,201.53583631041647
67,60,0,201.53583631041647
75,60,0,201.53583631041647
39,60,0,201.53583631041647
67,0,0.49374999999999997,202.02958631041648
75,0,0,202.02958631041648
39,0,0,202.02958631041648
70,60,0.0020833333333333333,202.0316696437498
58,60,0,202.0316696437498
70,0,0.4979166666666667,202.52958631041648
58,0,0,202.52958631041648
79,60,0.0020833333333333333,202.5316696437498
46,60,0,202.5316696437498
79,0,0.4979166666666667,203.02958631041648
46,0,0,203.02958631041648
67,60,0.0020833333333333333,203.0316696437498
75,60,0,203.0316696437498
51,60,0,203.0316696437498
67,0,0.4979166666666667,203.52958631041648
75,0,0,203.52958631041648
51,0,0,203.52958631041648
70,60,0.0020833333333333333,203.5316696437498
58,60,0,203.5316696437498
70,0,0.4979166666666667,204.02958631041648
58,0,0,204.02958631041648
79,60,0.0020833333333333333,204.0316696437498
46,60,0,204.0316696437498
46,0,0.47291666666666665,204.50458631041647
79,0,0.025,204.52958631041648
67,60,0.0020833333333333333,204.5316696437498
75,60,0,204.5316696437498
39,60,0,204.5316696437498
67,0,0.4979166666666667,205.02958631041648
75,0,0,205.02958631041648
39,0,0,205.02958631041648
70,60,0.0020833333333333333,205.0316696437498
58,60,0,205.0316696437498
70,0,0.4979166666666667,205.52958631041648
58,0,0,205.52958631041648
79,60,0.0020833333333333333,205.5316696437498
46,60,0,205.5316696437498
79,0,0.4979166666666667,206.02958631041648
46,0,0,206.02958631041648
67,60,0.0020833333333333333,206.0316696437498
75,60,0,206.0316696437498
51,60,0,206.0316696437498
67,0,0.4979166666666667,206.52958631041648
75,0,0,206.52958631041648
51,0,0,206.52958631041648
70,60,0.0020833333333333333,206.5316696437498
58,60,0,206.5316696437498
70,0,0.4979166666666667,207.02958631041648
58,0,0,207.02958631041648
79,60,0.0020833333333333333,207.0316696437498
46,60,0,207.0316696437498
79,0,0.47291666666666665,207.50458631041647
46,0,0.025,207.52958631041648
67,55,0.0020833333333333333,207.5316696437498
75,55,0,207.5316696437498
51,55,0,207.5316696437498
58,55,0,207.5316696437498
67,0,1.4229166666666666,208.9545863104165
75,0,0,208.9545863104165
51,0,0,208.9545863104165
58,0,0,208.9545863104165
79,55,0.07708333333333334,209.0316696437498
87,55,0,209.0316696437498
63,55,0,209.0316696437498
70,55,0,209.0316696437498
79,0,1.4229166666666666,210.4545863104165
87,0,0,210.4545863104165
63,0,0,210.4545863104165
70,0,0,210.4545863104165
55,55,0,210.4545863104165
63,55,0,210.4545863104165
39,55,0,210.4545863104165
46,55,0,210.4545863104165
55,0,8.543750000000001,218.99833631041648
63,0,0,218.99833631041648
39,0,0,218.99833631041648
46,0,0,218.99833631041648
80,49,0,0.0
80,0,1.7373184062499998,1.7373184062499998
76,49,0.0018115937499999998,1.7391299999999998
78,49,0,1.7391299999999998
78,0,0.10507243749999999,1.8442024375
80,49,0.0018115937499999998,1.84601403125
80,0,0.10507243749999999,1.95108646875
78,49,0.0054347812499999995,1.95652125
78,0,0.10507243749999999,2.0615936875
80,49,0.0018115937499999998,2.0634052812499997
80,0,0.10507243749999999,2.1684777187499997
76,0,0.0036231874999999997,2.17210090625
78,49,0.0018115937499999998,2.1739124999999997
78,0,0,2.1739124999999997
78,49,0,2.1739124999999997
78,0,0,2.1739124999999997
78,0,0,2.1739124999999997
80,49,0.10688403124999998,2.2807965312499996
80,0,0.10507243749999999,2.3858689687499997
78,0,0.0054347812499999995,2.3913037499999996
78,49,0,2.3913037499999996
78,0,0,2.3913037499999996
78,0,0,2.3913037499999996
80,49,0.10688403124999998,2.4981877812499995
80,0,0.10507243749999999,2.6032602187499996
78,0,0.0036231874999999997,2.6068834062499997
78,49,0.0018115937499999998,2.6086949999999995
78,0,0.10507243749999999,2.7137674374999996
80,49,0.0018115937499999998,2.7155790312499994
80,0,0.10507243749999999,2.8206514687499995
78,49,0.0054347812499999995,2.8260862499999995
78,0,0.10507243749999999,2.9311586874999995
80,49,0.0018115937499999998,2.9329702812499994
80,0,0.10507243749999999,3.0380427187499994
78,49,0.0054347812499999995,3.0434774999999994
78,0,0.10507243749999999,3.1485499374999995
80,49,0.0018115937499999998,3.1503615312499993
80,0,0.10507243749999999,3.2554339687499994
78,49,0.0054347812499999995,3.2608687499999993
78,0,0.10507243749999999,3.3659411874999994
80,49,0.0018115937499999998,3.367752781249999
80,0,0.10507243749999999,3.4728252187499993
80,49,0.0054347812499999995,3.4782599999999992
80,0,1.7373184062499998,5.215578406249999
73,49,0.0018115937499999998,5.217389999999999
73,0,1.7373184062499998,6.954708406249999
85,49,0.0018115937499999998,6.956519999999999
85,0,1.7373184062499998,8.693838406249998
85,49,0.0018115937499999998,8.695649999999999
85,0,0.6503621562499999,9.346012156249998
83,49,0.0018115937499999998,9.347823749999998
83,0,0.21557965624999997,9.563403406249998
85,49,0.0018115937499999998,9.565214999999998
85,0,0.28804340624999997,9.85325840625
83,49,0.0018115937499999998,9.85507
83,0,0.28804340624999997,10.14311340625
81,49,0.0018115937499999998,10.144925
81,0,0.28804340624999997,10.432968406250001
81,49,0.0018115937499999998,10.434780000000002
81,0,1.7373184062499998,12.17209840625
80,49,1.74094159375,13.91304
80,0,1.7373184062499998,15.65035840625
75,49,0.0018115937499999998,15.65217
75,0,1.7373184062499998,17.38948840625
76,49,0.0018115937499999998,17.391299999999998
76,0,1.7373184062499998,19.12861840625
78,49,0.0018115937499999998,19.130429999999997
78,0,0.86775340625,19.998183406249996
73,49,0.0018115937499999998,19.999994999999995
73,0,0.86775340625,20.867748406249994
73,49,0.0018115937499999998,20.869559999999993
75,49,0,20.869559999999993
75,0,0.10507243749999999,20.97463243749999
76,49,0.0018115937499999998,20.97644403124999
76,0,0.10507243749999999,21.08151646874999
75,49,0.0036231874999999997,21.08513965624999
75,0,0.10507243749999999,21.190212093749988
76,49,0.0054347812499999995,21.195646874999987
76,0,0.10507243749999999,21.300719312499986
75,49,0.0018115937499999998,21.302530906249984
75,0,0.10507243749999999,21.407603343749983
76,49,0.0036231874999999997,21.411226531249984
73,0,0.03442028125,21.445646812499984
75,49,0.0018115937499999998,21.447458406249982
76,0,0.0688405625,21.516298968749982
75,0,0.0054347812499999995,21.52173374999998
75,49,0,21.52173374999998
75,0,0,21.52173374999998
75,0,0,21.52173374999998
76,49,0.10688403124999998,21.628617781249982
76,0,0.10507243749999999,21.73369021874998
75,0,0.0036231874999999997,21.73731340624998
75,49,0,21.73731340624998
75,0,0,21.73731340624998
75,0,0,21.73731340624998
76,49,0.11050721875,21.847820624999983
76,0,0.10507243749999999,21.95289306249998
75,0,0.0018115937499999998,21.95470465624998
75,49,0,21.95470465624998
75,0,0,21.95470465624998
75,0,0,21.95470465624998
76,49,0.07246375,22.02716840624998
75,0,0.0326086875,22.059777093749982
76,0,0.0036231874999999997,22.063400281249983
76,49,0,22.063400281249983
76,0,0,22.063400281249983
76,0,0,22.063400281249983
75,49,0.11050721875,22.173907499999984
75,0,0.10507243749999999,22.278979937499983
76,0,0.0018115937499999998,22.28079153124998
76,49,0,22.28079153124998
76,0,0,22.28079153124998
76,0,0,22.28079153124998
75,49,0.10869562499999999,22.38948715624998
75,0,0.10507243749999999,22.49455959374998
76,0,0.0054347812499999995,22.49999437499998
76,49,0,22.49999437499998
76,0,0,22.49999437499998
76,0,0,22.49999437499998
76,0,0.10507243749999999,22.605066812499977
75,49,0.0018115937499999998,22.606878406249976
75,0,0.10507243749999999,22.711950843749975
76,49,0.0036231874999999997,22.715574031249975
76,0,0.10507243749999999,22.820646468749974
75,49,0.0054347812499999995,22.826081249999973
75,0,0.10507243749999999,22.93115368749997
76,49,0.0018115937499999998,22.93296528124997
76,0,0.10507243749999999,23.03803771874997
75,49,0.0036231874999999997,23.04166090624997
75,0,0.10507243749999999,23.14673334374997
76,49,0.0054347812499999995,23.152168124999967
76,0,0.10507243749999999,23.257240562499966
75,49,0.0018115937499999998,23.259052156249965
75,0,0.10507243749999999,23.364124593749963
76,49,0.0036231874999999997,23.367747781249964
76,0,0.10507243749999999,23.472820218749963
75,49,0.0054347812499999995,23.47825499999996
75,0,0.43297090624999995,23.91122590624996
73,49,0.0018115937499999998,23.91303749999996
73,0,0.43297090624999995,24.346008406249958
75,49,0.0018115937499999998,24.347819999999956
75,0,1.7373184062499998,26.085138406249957
68,49,0.8713765937499999,26.956514999999957
68,0,0.86775340625,27.824268406249956
80,49,0.0018115937499999998,27.826079999999955
80,0,1.7373184062499998,29.563398406249956
76,49,0.0018115937499999998,29.565209999999954
78,49,0,29.565209999999954
78,0,0.10507243749999999,29.670282437499953
80,49,0.0018115937499999998,29.67209403124995
80,0,0.10507243749999999,29.77716646874995
76,0,0.0036231874999999997,29.78078965624995
78,49,0.0018115937499999998,29.78260124999995
78,0,0,29.78260124999995
78,49,0,29.78260124999995
78,0,0,29.78260124999995
78,0,0,29.78260124999995
80,49,0.10688403124999998,29.88948528124995
80,0,0.10507243749999999,29.99455771874995
78,0,0.0036231874999999997,29.99818090624995
80,49,0.0018115937499999998,29.999992499999948
78,49,0,29.999992499999948
78,0,0.10507243749999999,30.105064937499947
80,0,0.0018115937499999998,30.106876531249945
80,49,0,30.106876531249945
80,0,0,30.106876531249945
80,0,0,30.106876531249945
80,0,0.10869562499999999,30.215572156249944
81,49,0.0018115937499999998,30.217383749999943
78,49,0,30.217383749999943
78,0,0.10507243749999999,30.32245618749994
80,49,0.0018115937499999998,30.32426778124994
80,0,0.10507243749999999,30.42934021874994
81,0,0.0036231874999999997,30.43296340624994
78,49,0.0018115937499999998,30.434774999999938
78,0,0.10507243749999999,30.539847437499937
80,49,0.0018115937499999998,30.541659031249935
80,0,0.10507243749999999,30.646731468749934
78,49,0.0054347812499999995,30.652166249999933
78,0,0.10507243749999999,30.75723868749993
80,49,0.0018115937499999998,30.75905028124993
80,0,0.10507243749999999,30.86412271874993
78,49,0.0054347812499999995,30.869557499999928
78,0,0.10507243749999999,30.974629937499927
80,49,0.0018115937499999998,30.976441531249925
80,0,0.10507243749999999,31.081513968749924
78,49,0.0054347812499999995,31.086948749999923
78,0,0.10507243749999999,31.192021187499922
80,49,0.0018115937499999998,31.19383278124992
80,0,0.10507243749999999,31.29890521874992
80,49,0.0054347812499999995,31.304339999999918
80,0,1.7373184062499998,33.041658406249915
73,49,0.0018115937499999998,33.043469999999914
73,0,0.86775340625,33.91122340624992
73,49,0.0018115937499999998,33.913034999999915
73,0,0.86775340625,34.78078840624992
85,49,0.0018115937499999998,34.78259999999992
85,0,0.28804340624999997,35.070643406249914
86,49,0.0018115937499999998,35.07245499999991
86,0,0.28804340624999997,35.36049840624991
83,49,0.0018115937499999998,35.36230999999991
83,0,0.28804340624999997,35.650353406249906
81,49,0.0018115937499999998,35.652164999999904
81,0,0.28804340624999997,35.9402084062499
80,49,0.0018115937499999998,35.9420199999999
80,0,0.28804340624999997,36.2300634062499
78,49,0.0018115937499999998,36.231874999999896
78,0,0.28804340624999997,36.51991840624989
77,49,0.0018115937499999998,36.52172999999989
77,0,0.21557965624999997,36.73730965624989
75,49,0.0018115937499999998,36.73912124999989
75,0,0.21557965624999997,36.95470090624989
73,49,0.0018115937499999998,36.95651249999989
73,0,0.14311590624999998,37.09962840624989
71,49,0.0018115937499999998,37.10143999999989
71,0,0.14311590624999998,37.24455590624989
69,49,0.0018115937499999998,37.24636749999989
69,0,0.14311590624999998,37.389483406249894
68,49,0.0018115937499999998,37.39129499999989
68,0,0.14311590624999998,37.534410906249896
66,49,0.0018115937499999998,37.536222499999894
66,0,0.14311590624999998,37.6793384062499
65,49,0.0018115937499999998,37.681149999999896
65,0,0.14311590624999998,37.8242659062499
62,49,0.0018115937499999998,37.8260774999999
62,0,0.14311590624999998,37.9691934062499
61,49,0.0018115937499999998,37.9710049999999
61,0,0.14311590624999998,38.1141209062499
59,49,0.0018115937499999998,38.1159324999999
59,0,0.14311590624999998,38.2590484062499
57,49,0.0018115937499999998,38.2608599999999
57,0,1.7373184062499998,39.9981784062499
57,49,0.8713765937499999,40.8695549999999
57,0,0.86775340625,41.7373084062499
62,49,0.0018115937499999998,41.7391199999999
62,0,1.7373184062499998,43.4764384062499
74,49,0.0018115937499999998,43.478249999999896
74,0,1.30253590625,44.780785906249896
73,49,0.0018115937499999998,44.782597499999895
73,0,0.43297090624999995,45.21556840624989
72,49,0.0018115937499999998,45.21737999999989
72,0,0.10688403124999998,45.32426403124989
73,49,0.0018115937499999998,45.32607562499989
73,0,0.10688403124999998,45.432959656249885
72,49,0.0018115937499999998,45.43477124999988
72,0,0.10688403124999998,45.54165528124988
73,49,0.0018115937499999998,45.54346687499988
73,0,0.10688403124999998,45.65035090624988
72,49,0.0018115937499999998,45.652162499999875
72,0,0.10688403124999998,45.75904653124987
73,49,0.0018115937499999998,45.76085812499987
73,0,0.10688403124999998,45.86774215624987
72,49,0.0018115937499999998,45.86955374999987
72,0,0.10688403124999998,45.976437781249864
73,49,0.0018115937499999998,45.97824937499986
73,0,0.10688403124999998,46.08513340624986
72,49,0.0018115937499999998,46.08694499999986
72,0,0.43297090624999995,46.51991590624986
71,49,0.0018115937499999998,46.521727499999855
71,0,0.10688403124999998,46.62861153124985
72,49,0.0018115937499999998,46.63042312499985
72,0,0.10688403124999998,46.73730715624985
73,49,0.0018115937499999998,46.73911874999985
73,0,0.10688403124999998,46.846002781249844
75,49,0.0018115937499999998,46.84781437499984
75,0,0.10688403124999998,46.95469840624984
76,49,0.0018115937499999998,46.95650999999984
76,0,0.86775340625,47.82426340624984
75,49,0.0018115937499999998,47.82607499999984
75,0,0.43297090624999995,48.25904590624984
73,49,0.0018115937499999998,48.26085749999984
73,0,0.43297090624999995,48.693828406249835
68,49,0.0018115937499999998,48.695639999999834
68,0,0.86775340625,49.56339340624984
69,49,0.0018115937499999998,49.565204999999835
69,0,1.7373184062499998,51.30252340624983
68,49,0.0018115937499999998,51.30433499999983
68,0,0.86775340625,52.172088406249834
61,49,0.0018115937499999998,52.17389999999983
61,0,1.7373184062499998,53.91121840624983
64,49,1.74094159375,55.65215999999983
64,0,0.86775340625,56.519913406249835
66,49,0.0018115937499999998,56.52172499999983
66,0,0.21557965624999997,56.73730465624983
68,49,0.0018115937499999998,56.73911624999983
68,0,0.21557965624999997,56.95469590624983
69,49,0.0018115937499999998,56.95650749999983
69,0,0.21557965624999997,57.17208715624983
71,49,0.0018115937499999998,57.17389874999983
71,0,0.21557965624999997,57.38947840624983
73,49,0.0018115937499999998,57.39128999999983
73,0,0.28804340624999997,57.679333406249825
74,49,0.0018115937499999998,57.68114499999982
74,0,0.28804340624999997,57.96918840624982
73,49,0.0018115937499999998,57.97099999999982
73,0,0.28804340624999997,58.259043406249816
71,49,0.0018115937499999998,58.260854999999815
71,0,0.86775340625,59.12860840624982
76,49,0.0018115937499999998,59.130419999999816
76,0,0.43297090624999995,59.563390906249815
74,49,0.0018115937499999998,59.56520249999981
74,0,0.21557965624999997,59.78078215624981
73,49,0.0018115937499999998,59.78259374999981
73,0,0.21557965624999997,59.99817340624981
71,49,0.0018115937499999998,59.99998499999981
71,0,0.43297090624999995,60.43295590624981
69,49,0.0018115937499999998,60.43476749999981
69,0,0.43297090624999995,60.867738406249806
73,49,0.0018115937499999998,60.869549999999805
73,0,0.28804340624999997,61.1575934062498
75,49,0.0018115937499999998,61.1594049999998
75,0,0.28804340624999997,61.4474484062498
73,49,0.0018115937499999998,61.449259999999796
73,0,0.28804340624999997,61.737303406249794
71,49,0.0018115937499999998,61.73911499999979
71,0,0.86775340625,62.606868406249795
74,49,0.0018115937499999998,62.608679999999794
76,49,0,62.608679999999794
74,0,0.86775340625,63.4764334062498
76,0,0,63.4764334062498
74,49,0.0018115937499999998,63.478244999999795
76,49,0,63.478244999999795
74,0,0.6503621562499999,64.1286071562498
76,0,0,64.1286071562498
74,49,0.0018115937499999998,64.1304187499998
76,49,0,64.1304187499998
74,0,0.21557965624999997,64.3459984062498
76,0,0,64.3459984062498
73,49,0.0018115937499999998,64.34780999999981
76,49,0,64.34780999999981
73,0,0.86775340625,65.21556340624981
76,0,0,65.21556340624981
76,49,0.0018115937499999998,65.21737499999982
85,49,0,65.21737499999982
76,0,0.86775340625,66.08512840624982
85,0,0,66.08512840624982
75,49,0.0018115937499999998,66.08693999999983
83,49,0,66.08693999999983
75,0,0.6503621562499999,66.73730215624983
83,0,0,66.73730215624983
73,49,0.0018115937499999998,66.73911374999983
81,49,0,66.73911374999983
73,0,0.21557965624999997,66.95469340624983
81,0,0,66.95469340624983
75,49,0.0018115937499999998,66.95650499999984
83,49,0,66.95650499999984
75,0,0.6503621562499999,67.60686715624983
83,0,0,67.60686715624983
76,49,0.0018115937499999998,67.60867874999984
85,49,0,67.60867874999984
76,0,0.21557965624999997,67.82425840624984
85,0,0,67.82425840624984
73,49,0.0018115937499999998,67.82606999999985
81,49,0,67.82606999999985
73,0,1.7373184062499998,69.56338840624984
81,0,0,69.56338840624984
61,49,0.0018115937499999998,69.56519999999985
61,0,0.43297090624999995,69.99817090624985
63,49,0.0018115937499999998,69.99998249999986
63,0,0.21557965624999997,70.21556215624986
65,49,0.0018115937499999998,70.21737374999987
65,0,0.21557965624999997,70.43295340624987
66,49,0.0018115937499999998,70.43476499999987
66,0,0.43297090624999995,70.86773590624988
68,49,0.0018115937499999998,70.86954749999988
68,0,0.43297090624999995,71.30251840624989
69,49,0.0018115937499999998,71.3043299999999
69,0,0.28804340624999997,71.59237340624989
71,49,0.0018115937499999998,71.5941849999999
71,0,0.28804340624999997,71.8822284062499
69,49,0.0018115937499999998,71.8840399999999
69,0,0.28804340624999997,72.1720834062499
68,49,0.0018115937499999998,72.1738949999999
68,0,0.86775340625,73.0416484062499
73,49,0.0018115937499999998,73.04345999999991
73,0,0.43297090624999995,73.47643090624992
71,49,0.0018115937499999998,73.47824249999992
71,0,0.21557965624999997,73.69382215624992
69,49,0.0018115937499999998,73.69563374999993
69,0,0.21557965624999997,73.91121340624993
68,49,0.0018115937499999998,73.91302499999993
68,0,0.43297090624999995,74.34599590624994
61,49,0.0018115937499999998,74.34780749999994
61,0,0.43297090624999995,74.78077840624995
69,49,0.0018115937499999998,74.78258999999996
69,0,0.28804340624999997,75.07063340624995
71,49,0.0018115937499999998,75.07244499999996
71,0,0.28804340624999997,75.36048840624996
69,49,0.0018115937499999998,75.36229999999996
69,0,0.28804340624999997,75.65034340624996
66,49,0.0018115937499999998,75.65215499999996
66,0,0.86775340625,76.51990840624997
66,49,0.0018115937499999998,76.52171999999997
68,49,0,76.52171999999997
66,0,0.86775340625,77.38947340624998
68,0,0,77.38947340624998
66,49,0.0018115937499999998,77.39128499999998
68,49,0,77.39128499999998
66,0,0.6503621562499999,78.04164715624998
68,0,0,78.04164715624998
66,49,0.0018115937499999998,78.04345874999999
68,49,0,78.04345874999999
66,0,0.21557965624999997,78.25903840624999
68,0,0,78.25903840624999
64,49,0.0018115937499999998,78.26084999999999
68,49,0,78.26084999999999
64,0,0.86775340625,79.12860340625
68,0,0,79.12860340625
68,49,0.0018115937499999998,79.130415
76,49,0,79.130415
68,0,0.86775340625,79.99816840625
76,0,0,79.99816840625
66,49,0.0018115937499999998,79.99998000000001
75,49,0,79.99998000000001
66,0,0.6503621562499999,80.65034215625
75,0,0,80.65034215625
64,49,0.0018115937499999998,80.65215375000001
73,49,0,80.65215375000001
64,0,0.21557965624999997,80.86773340625001
73,0,0,80.86773340625001
66,49,0.0018115937499999998,80.86954500000002
75,49,0,80.86954500000002
66,0,0.6503621562499999,81.51990715625001
75,0,0,81.51990715625001
68,49,0.0018115937499999998,81.52171875000002
76,49,0,81.52171875000002
68,0,0.21557965624999997,81.73729840625002
76,0,0,81.73729840625002
64,49,0.0018115937499999998,81.73911000000003
73,49,0,81.73911000000003
64,0,1.7373184062499998,83.47642840625002
73,0,0,83.47642840625002
73,80,0.0018115937499999998,83.47824000000003
73,0,0.10688403124999998,83.58512403125003
75,80,0.0018115937499999998,83.58693562500004
75,0,0.10688403124999998,83.69381965625004
73,80,0.0018115937499999998,83.69563125000005
73,0,0.10688403124999998,83.80251528125005
75,80,0.0018115937499999998,83.80432687500006
75,0,0.10688403124999998,83.91121090625006
73,80,0.0018115937499999998,83.91302250000007
73,0,0.10688403124999998,84.01990653125007
75,80,0.0018115937499999998,84.02171812500008
75,0,0.10688403124999998,84.12860215625008
73,80,0.0018115937499999998,84.13041375000009
73,0,0.10688403124999998,84.23729778125009
75,80,0.0018115937499999998,84.2391093750001
75,0,0.10688403124999998,84.3459934062501
72,80,0.0018115937499999998,84.34780500000011
72,0,0.43297090624999995,84.78077590625011
73,80,0.0018115937499999998,84.78258750000012
73,0,0.43297090624999995,85.21555840625012
76,80,0.0018115937499999998,85.21737000000013
76,0,1.30253590625,86.51990590625013
75,80,0.0018115937499999998,86.52171750000014
75,0,0.43297090624999995,86.95468840625014
63,80,0.0018115937499999998,86.95650000000015
63,0,0.6503621562499999,87.60686215625014
73,80,0.0018115937499999998,87.60867375000015
73,0,0.21557965624999997,87.82425340625015
73,80,0.0018115937499999998,87.82606500000016
73,0,0.43297090624999995,88.25903590625016
73,80,0.0018115937499999998,88.26084750000017
73,0,0.43297090624999995,88.69381840625017
72,80,0.0018115937499999998,88.69563000000018
72,0,0.43297090624999995,89.12860090625018
75,80,0.0018115937499999998,89.13041250000019
75,0,1.30253590625,90.43294840625019
75,49,0.0018115937499999998,90.4347600000002
75,0,0.12318837499999999,90.5579483750002
72,49,0.0018115937499999998,90.5597599687502
72,0,0.12318837499999999,90.6829483437502
73,49,0.0018115937499999998,90.6847599375002
73,0,0.12318837499999999,90.8079483125002
75,49,0.0018115937499999998,90.8097599062502
75,0,0.12318837499999999,90.9329482812502
73,49,0.0018115937499999998,90.93475987500021
73,0,0.12318837499999999,91.05794825000021
72,49,0.0018115937499999998,91.05975984375021
72,0,0.12318837499999999,91.18294821875021
73,49,0.0018115937499999998,91.18475981250022
73,0,0.12318837499999999,91.30794818750022
76,49,0.8659418124999999,92.17389000000021
76,0,1.30253590625,93.47642590625021
75,49,0.0018115937499999998,93.47823750000022
75,0,0.43297090624999995,93.91120840625022
63,49,0.0018115937499999998,93.91302000000023
63,0,0.6503621562499999,94.56338215625023
73,49,0.0018115937499999998,94.56519375000023
73,0,0.21557965624999997,94.78077340625023
73,49,0.0018115937499999998,94.78258500000024
73,0,0.43297090624999995,95.21555590625024
73,49,0.0018115937499999998,95.21736750000025
73,0,0.43297090624999995,95.65033840625026
72,49,0.0018115937499999998,95.65215000000026
72,0,0.43297090624999995,96.08512090625027
75,49,0.0018115937499999998,96.08693250000027
75,0,1.30253590625,97.38946840625027
75,49,0.0018115937499999998,97.39128000000028
75,0,0.86775340625,98.25903340625028
75,49,0,98.25903340625028
75,0,0.33055547291666665,98.58958887916695
56,49,0.0027777770833333332,98.59236665625029
56,0,0.33055547291666665,98.92292212916696
63,49,0.0027777770833333332,98.9256999062503
63,0,0.33055547291666665,99.25625537916697
72,49,0.0027777770833333332,99.25903315625031
72,0,0.33055547291666665,99.58958862916698
63,49,0.0027777770833333332,99.59236640625032
63,0,0.33055547291666665,99.92292187916699
56,49,0.0027777770833333332,99.92569965625033
56,0,0.33055547291666665,100.256255129167
57,49,0.0027777770833333332,100.25903290625034
57,0,0.33055547291666665,100.58958837916701
63,49,0.0027777770833333332,100.59236615625035
63,0,0.33055547291666665,100.92292162916702
67,49,0.0027777770833333332,100.92569940625036
67,0,0.33055547291666665,101.25625487916703
75,49,0.0027777770833333332,101.25903265625037
75,0,0.33055547291666665,101.58958812916704
73,49,0.0027777770833333332,101.59236590625038
73,0,0.33055547291666665,101.92292137916705
69,49,0.0027777770833333332,101.92569915625039
69,0,0.33055547291666665,102.25625462916706
68,49,0.0027777770833333332,102.2590324062504
68,0,0.33055547291666665,102.58958787916707
68,49,0.0027777770833333332,102.59236565625041
68,0,0.33055547291666665,102.92292112916708
75,49,0.0027777770833333332,102.92569890625042
75,0,0.33055547291666665,103.25625437916709
84,49,0.0027777770833333332,103.25903215625043
84,0,0.33055547291666665,103.5895876291671
75,49,0.0027777770833333332,103.59236540625044
75,0,0.33055547291666665,103.92292087916711
68,49,0.0027777770833333332,103.92569865625045
68,0,0.33055547291666665,104.25625412916712
69,49,0.0027777770833333332,104.25903190625046
69,0,0.33055547291666665,104.58958737916713
75,49,0.0027777770833333332,104.59236515625047
75,0,0.33055547291666665,104.92292062916714
78,49,0.0027777770833333332,104.92569840625048
78,0,0.33055547291666665,105.25625387916715
87,49,0.0027777770833333332,105.25903165625049
87,0,0.33055547291666665,105.58958712916716
85,49,0.0027777770833333332,105.5923649062505
85,0,0.33055547291666665,105.92292037916717
81,49,0.0027777770833333332,105.9256981562505
81,0,0.33055547291666665,106.25625362916718
80,49,0.0027777770833333332,106.25903140625051
80,0,0.6638887229166667,106.92292012916718
56,49,0.0027777770833333332,106.92569790625052
56,0,0.6638887229166667,107.58958662916719
60,49,0.0027777770833333332,107.59236440625052
60,0,0.6638887229166667,108.25625312916719
56,49,0.0027777770833333332,108.25903090625053
56,0,0.6638887229166667,108.9229196291672
59,49,0.0027777770833333332,108.92569740625053
59,0,0.6638887229166667,109.5895861291672
63,49,0.0027777770833333332,109.59236390625054
63,0,0.6638887229166667,110.25625262916721
71,49,0.0027777770833333332,110.25903040625055
71,0,0.6638887229166667,110.92291912916721
68,49,0.0027777770833333332,110.92569690625055
68,0,0.6638887229166667,111.58958562916722
71,49,0.0027777770833333332,111.59236340625056
71,0,0.6638887229166667,112.25625212916722
75,49,0.0027777770833333332,112.25902990625056
75,0,0.6638887229166667,112.92291862916723
80,49,0.0027777770833333332,112.92569640625057
80,0,0.6638887229166667,113.58958512916723
83,49,0.0027777770833333332,113.59236290625057
83,0,0.6638887229166667,114.25625162916724
92,49,0.0027777770833333332,114.25902940625058
92,0,1.3305552229166666,115.58958462916725
68,49,1.3361107770833334,116.92569540625058
68,0,1.3305552229166666,118.25625062916725
80,49,0,118.25625062916725
80,0,1.7373184062499998,119.99356903541725
76,49,0.0018115937499999998,119.99538062916726
78,49,0,119.99538062916726
78,0,0.10507243749999999,120.10045306666726
80,49,0.0018115937499999998,120.10226466041726
80,0,0.10507243749999999,120.20733709791726
76,0,0.0036231874999999997,120.21096028541726
78,49,0.0018115937499999998,120.21277187916726
78,0,0,120.21277187916726
78,49,0,120.21277187916726
78,0,0,120.21277187916726
78,0,0,120.21277187916726
80,49,0.10688403124999998,120.31965591041727
80,0,0.10507243749999999,120.42472834791727
78,0,0.0036231874999999997,120.42835153541726
80,49,0.0018115937499999998,120.43016312916727
78,49,0,120.43016312916727
78,0,0.10507243749999999,120.53523556666727
80,0,0.0018115937499999998,120.53704716041727
80,49,0,120.53704716041727
80,0,0,120.53704716041727
80,0,0,120.53704716041727
80,0,0.10869562499999999,120.64574278541727
81,49,0.0018115937499999998,120.64755437916727
78,49,0,120.64755437916727
78,0,0.10507243749999999,120.75262681666727
80,49,0.0018115937499999998,120.75443841041728
80,0,0.10507243749999999,120.85951084791728
81,0,0.0036231874999999997,120.86313403541727
78,49,0.0018115937499999998,120.86494562916728
78,0,0.10507243749999999,120.97001806666728
80,49,0.0018115937499999998,120.97182966041728
80,0,0.10507243749999999,121.07690209791728
78,49,0.0054347812499999995,121.08233687916729
78,0,0.10507243749999999,121.18740931666728
80,49,0.0018115937499999998,121.18922091041729
80,0,0.10507243749999999,121.29429334791729
78,49,0.0054347812499999995,121.29972812916729
78,0,0.10507243749999999,121.40480056666729
80,49,0.0018115937499999998,121.4066121604173
80,0,0.10507243749999999,121.5116845979173
78,49,0.0054347812499999995,121.5171193791673
78,0,0.10507243749999999,121.6221918166673
80,49,0.0018115937499999998,121.6240034104173
80,0,0.10507243749999999,121.7290758479173
80,49,0.0054347812499999995,121.7345106291673
80,0,1.7373184062499998,123.4718290354173
73,49,0.0018115937499999998,123.4736406291673
73,0,0.86775340625,124.34139403541731
85,49,0.0018115937499999998,124.34320562916731
85,0,0.86775340625,125.21095903541732
85,49,0.0018115937499999998,125.21277062916732
85,0,0.28804340624999997,125.50081403541732
86,49,0.0018115937499999998,125.50262562916733
86,0,0.28804340624999997,125.79066903541732
83,49,0.0018115937499999998,125.79248062916733
83,0,0.28804340624999997,126.08052403541733
81,49,0.0018115937499999998,126.08233562916733
81,0,0.28804340624999997,126.37037903541733
80,49,0.0018115937499999998,126.37219062916733
80,0,0.28804340624999997,126.66023403541733
78,49,0.0018115937499999998,126.66204562916734
78,0,0.28804340624999997,126.95008903541734
89,49,0.0018115937499999998,126.95190062916734
89,0,0.14311590624999998,127.09501653541734
92,49,0.0018115937499999998,127.09682812916735
92,0,0.14311590624999998,127.23994403541735
86,49,0.0018115937499999998,127.24175562916736
86,0,0.14311590624999998,127.38487153541736
85,49,0.0018115937499999998,127.38668312916737
85,0,0.14311590624999998,127.52979903541737
83,49,0.0018115937499999998,127.53161062916737
83,0,0.14311590624999998,127.67472653541738
81,49,0.0018115937499999998,127.67653812916738
81,0,0.14311590624999998,127.81965403541739
80,49,0.0018115937499999998,127.82146562916739
80,0,0.14311590624999998,127.9645815354174
78,49,0.0018115937499999998,127.9663931291674
78,0,0.14311590624999998,128.1095090354174
77,49,0.0018115937499999998,128.1113206291674
77,0,0.14311590624999998,128.2544365354174
74,49,0.0018115937499999998,128.2562481291674
74,0,0.14311590624999998,128.3993640354174
73,49,0.0018115937499999998,128.4011756291674
73,0,0.14311590624999998,128.5442915354174
71,49,0.0018115937499999998,128.5461031291674
71,0,0.14311590624999998,128.68921903541738
69,49,0.0018115937499999998,128.6910306291674
69,0,1.7373184062499998,130.4283490354174
81,49,0.0018115937499999998,130.4301606291674
81,0,1.7373184062499998,132.16747903541741
80,49,0.0018115937499999998,132.16929062916742
80,0,1.7373184062499998,133.90660903541743
75,49,0.0018115937499999998,133.90842062916744
75,0,1.7373184062499998,135.64573903541745
76,49,0.0018115937499999998,135.64755062916745
76,0,1.7373184062499998,137.38486903541747
76,49,0.0018115937499999998,137.38668062916747
78,49,0,137.38668062916747
78,0,0.10688403124999998,137.49356466041746
80,49,0.0018115937499999998,137.49537625416747
76,0,0.10688403124999998,137.60226028541746
80,0,0,137.60226028541746
78,49,0.0018115937499999998,137.60407187916746
78,0,0,137.60407187916746
78,49,0,137.60407187916746
78,0,0,137.60407187916746
78,0,0,137.60407187916746
80,49,0.10869562499999999,137.71276750416746
78,0,0.10688403124999998,137.81965153541745
80,0,0,137.81965153541745
78,49,0.0018115937499999998,137.82146312916746
78,0,0.10688403124999998,137.92834716041745
80,49,0.0018115937499999998,137.93015875416745
80,0,0.10688403124999998,138.03704278541744
78,49,0.0018115937499999998,138.03885437916745
78,0,0.10688403124999998,138.14573841041744
80,49,0.0018115937499999998,138.14755000416744
80,0,0.10688403124999998,138.25443403541743
73,49,0.0018115937499999998,138.25624562916744
73,0,0.86775340625,139.12399903541743
75,49,0.0018115937499999998,139.12581062916743
75,0,0.28804340624999997,139.41385403541744
76,49,0.0018115937499999998,139.41566562916745
76,0,0.28804340624999997,139.70370903541746
75,49,0.0018115937499999998,139.70552062916747
75,0,0.28804340624999997,139.99356403541748
74,49,0.0018115937499999998,139.99537562916748
74,0,0.28804340624999997,140.2834190354175
75,49,0.0018115937499999998,140.2852306291675
75,0,0.28804340624999997,140.5732740354175
76,49,0.0018115937499999998,140.57508562916752
76,0,0.28804340624999997,140.86312903541753
78,49,0.0018115937499999998,140.86494062916753
78,0,0.21557965624999997,141.08052028541752
80,49,0.0018115937499999998,141.08233187916753
80,0,0.21557965624999997,141.2979115354175
81,49,0.0018115937499999998,141.29972312916752
81,0,0.14311590624999998,141.4428390354175
82,49,0.0018115937499999998,141.4446506291675
82,0,0.14311590624999998,141.5877665354175
83,49,0.0018115937499999998,141.5895781291675
83,0,0.14311590624999998,141.7326940354175
84,49,0.0018115937499999998,141.7345056291675
84,0,0.14311590624999998,141.8776215354175
85,49,0.0018115937499999998,141.8794331291675
85,0,0.14311590624999998,142.02254903541748
86,49,0.0018115937499999998,142.0243606291675
86,0,0.14311590624999998,142.16747653541748
87,49,0.0018115937499999998,142.16928812916748
87,0,0.14311590624999998,142.31240403541747
88,49,0.0018115937499999998,142.31421562916748
88,0,0.14311590624999998,142.45733153541747
90,49,0.0018115937499999998,142.45914312916747
90,0,0.14311590624999998,142.60225903541746
88,49,0.0018115937499999998,142.60407062916747
88,0,1.7373184062499998,144.34138903541748
87,49,0.0018115937499999998,144.34320062916748
87,0,0.86775340625,145.21095403541747
85,49,0.0018115937499999998,145.21276562916748
85,0,0.86775340625,146.08051903541747
84,49,0.0018115937499999998,146.08233062916747
84,0,0.86775340625,146.95008403541746
81,49,0.0018115937499999998,146.95189562916747
81,0,0.86775340625,147.81964903541746
80,49,0.0018115937499999998,147.82146062916746
80,0,0.86775340625,148.68921403541745
75,49,0.0018115937499999998,148.69102562916746
75,0,0.86775340625,149.55877903541744
76,49,0.0018115937499999998,149.56059062916745
76,0,0.86775340625,150.42834403541744
78,49,0.0018115937499999998,150.43015562916744
78,0,0.43297090624999995,150.86312653541745
80,49,0.0018115937499999998,150.86493812916746
80,0,0.43297090624999995,151.29790903541746
78,49,0.0018115937499999998,151.29972062916747
78,0,0.86775340625,152.16747403541746
73,49,0.0018115937499999998,152.16928562916746
73,0,0.86775340625,153.03703903541745
75,49,0.0018115937499999998,153.03885062916746
75,0,0.10507243749999999,153.14392306666747
76,49,0.0018115937499999998,153.14573466041747
76,0,0.10507243749999999,153.2508070979175
75,49,0.0036231874999999997,153.2544302854175
75,0,0.10507243749999999,153.3595027229175
76,49,0.0018115937499999998,153.36131431666752
76,0,0.10507243749999999,153.46638675416753
75,49,0.007246374999999999,153.47363312916752
75,0,0.10507243749999999,153.57870556666754
76,49,0.0018115937499999998,153.58051716041754
76,0,0.10507243749999999,153.68558959791756
75,49,0.0036231874999999997,153.68921278541757
75,0,0.10507243749999999,153.79428522291758
76,49,0.0018115937499999998,153.79609681666759
76,0,0.10507243749999999,153.9011692541676
75,49,0.007246374999999999,153.9084156291676
75,0,0.10507243749999999,154.0134880666676
76,49,0.0018115937499999998,154.0152996604176
76,0,0.10507243749999999,154.12037209791762
75,49,0.0036231874999999997,154.12399528541764
75,0,0.10507243749999999,154.22906772291765
76,49,0.0018115937499999998,154.23087931666765
76,0,0.10507243749999999,154.33595175416767
75,49,0.007246374999999999,154.34319812916766
75,0,0.10507243749999999,154.44827056666767
76,49,0.0018115937499999998,154.45008216041768
76,0,0.10507243749999999,154.5551545979177
75,49,0.0036231874999999997,154.5587777854177
75,0,0.10507243749999999,154.66385022291772
76,49,0.0018115937499999998,154.66566181666772
76,0,0.10507243749999999,154.77073425416773
75,49,0.007246374999999999,154.77798062916773
75,0,0.10507243749999999,154.88305306666774
76,49,0.0018115937499999998,154.88486466041775
76,0,0.10507243749999999,154.98993709791776
75,49,0.0036231874999999997,154.99356028541777
75,0,0.10507243749999999,155.09863272291778
76,49,0.0018115937499999998,155.1004443166678
76,0,0.10507243749999999,155.2055167541678
75,49,0.007246374999999999,155.2127631291678
75,0,0.10507243749999999,155.3178355666678
76,49,0.0018115937499999998,155.31964716041782
76,0,0.10507243749999999,155.42471959791783
75,49,0.0036231874999999997,155.42834278541784
75,0,0.10507243749999999,155.53341522291785
76,49,0.0018115937499999998,155.53522681666786
76,0,0.10507243749999999,155.64029925416787
75,49,0.007246374999999999,155.64754562916787
75,0,0.10507243749999999,155.75261806666788
76,49,0.0018115937499999998,155.75442966041788
76,0,0.10507243749999999,155.8595020979179
75,49,0.0036231874999999997,155.8631252854179
75,0,0.10507243749999999,155.96819772291792
76,49,0.0018115937499999998,155.97000931666793
76,0,0.10507243749999999,156.07508175416794
75,49,0.007246374999999999,156.08232812916793
75,0,0.10507243749999999,156.18740056666795
76,49,0.0018115937499999998,156.18921216041795
76,0,0.10507243749999999,156.29428459791797
75,49,0.0036231874999999997,156.29790778541798
75,0,0.10507243749999999,156.402980222918
76,49,0.0018115937499999998,156.404791816668
76,0,0.10507243749999999,156.509864254168
73,64,0.007246374999999999,156.517110629168
73,0,1.7373184062499998,158.254429035418
75,64,0.0018115937499999998,158.25624062916802
75,0,0.09420287499999999,158.35044350416803
76,64,0.0018115937499999998,158.35225509791803
76,0,0.09420287499999999,158.44645797291804
78,64,0.0036231874999999997,158.45008116041805
78,0,0.09420287499999999,158.54428403541806
80,64,0.0018115937499999998,158.54609562916806
80,0,0.09420287499999999,158.64029850416807
81,64,0.0036231874999999997,158.64392169166808
81,0,0.09420287499999999,158.7381245666681
83,64,0.0018115937499999998,158.7399361604181
83,0,0.09420287499999999,158.8341390354181
85,64,0.0036231874999999997,158.83776222291812
85,0,0.09420287499999999,158.93196509791812
87,64,0.0018115937499999998,158.93377669166813
87,0,0.09420287499999999,159.02797956666814
85,64,0.0036231874999999997,159.03160275416815
85,0,0.09420287499999999,159.12580562916816
83,64,0.0018115937499999998,159.12761722291816
83,0,0.09420287499999999,159.22182009791817
81,64,0.0036231874999999997,159.22544328541818
81,0,0.09420287499999999,159.3196461604182
80,64,0.0018115937499999998,159.3214577541682
80,0,0.09420287499999999,159.4156606291682
78,64,0.0036231874999999997,159.4192838166682
78,0,0.09420287499999999,159.51348669166822
76,64,0.0018115937499999998,159.51529828541823
76,0,0.09420287499999999,159.60950116041823
75,64,0.0036231874999999997,159.61312434791824
75,0,0.09420287499999999,159.70732722291825
73,64,0.0018115937499999998,159.70913881666826
73,0,0.09420287499999999,159.80334169166827
71,64,0.0036231874999999997,159.80696487916828
71,0,0.09420287499999999,159.90116775416828
69,64,0.0018115937499999998,159.9029793479183
68,64,0.09239128124999998,159.9953706291683
69,0,0.0018115937499999998,159.9971822229183
68,0,1.7355068125,161.7326890354183
69,49,0.0018115937499999998,161.7345006291683
69,0,0.047101437499999996,161.7816020666683
71,49,0.0018115937499999998,161.78341366041832
71,0,0.047101437499999996,161.83051509791832
73,49,0.0018115937499999998,161.83232669166833
73,0,0.047101437499999996,161.87942812916833
75,49,0.0018115937499999998,161.88123972291834
75,0,0.047101437499999996,161.92834116041834
76,49,0.0018115937499999998,161.93015275416835
76,0,0.047101437499999996,161.97725419166835
78,49,0.0018115937499999998,161.97906578541836
78,0,0.047101437499999996,162.02616722291836
80,49,0.0018115937499999998,162.02797881666837
80,0,0.047101437499999996,162.07508025416837
81,49,0.0018115937499999998,162.07689184791838
81,0,0.047101437499999996,162.12399328541838
83,49,0.0018115937499999998,162.12580487916838
83,0,0.047101437499999996,162.1729063166684
85,49,0.0018115937499999998,162.1747179104184
85,0,0.047101437499999996,162.2218193479184
87,49,0.0018115937499999998,162.2236309416684
87,0,0.047101437499999996,162.2707323791684
76,49,0.0018115937499999998,162.2725439729184
76,0,0.047101437499999996,162.31964541041842
78,49,0.0018115937499999998,162.32145700416842
78,0,0.047101437499999996,162.36855844166843
80,49,0.0018115937499999998,162.37037003541843
80,0,0.047101437499999996,162.41747147291844
81,49,0.0018115937499999998,162.41928306666844
81,0,0.047101437499999996,162.46638450416845
83,49,0.0018115937499999998,162.46819609791845
83,0,0.047101437499999996,162.51529753541845
85,49,0.0018115937499999998,162.51710912916846
85,0,0.047101437499999996,162.56421056666846
87,49,0.0018115937499999998,162.56602216041847
87,0,0.047101437499999996,162.61312359791847
85,49,0.0018115937499999998,162.61493519166848
85,0,0.047101437499999996,162.66203662916848
83,49,0.0018115937499999998,162.6638482229185
83,0,0.047101437499999996,162.7109496604185
81,49,0.0018115937499999998,162.7127612541685
81,0,0.047101437499999996,162.7598626916685
80,49,0.0018115937499999998,162.7616742854185
80,0,0.047101437499999996,162.8087757229185
78,49,0.0018115937499999998,162.81058731666852
78,0,0.047101437499999996,162.85768875416852
76,49,0.0018115937499999998,162.85950034791853
76,0,0.047101437499999996,162.90660178541853
87,49,0.0018115937499999998,162.90841337916854
87,0,0.047101437499999996,162.95551481666854
85,49,0.0018115937499999998,162.95732641041855
85,0,0.047101437499999996,163.00442784791855
83,49,0.0018115937499999998,163.00623944166855
83,0,0.047101437499999996,163.05334087916856
81,49,0.0018115937499999998,163.05515247291856
81,0,0.047101437499999996,163.10225391041857
80,49,0.0018115937499999998,163.10406550416857
80,0,0.047101437499999996,163.15116694166858
78,49,0.0018115937499999998,163.15297853541858
78,0,0.047101437499999996,163.2000799729186
76,49,0.0018115937499999998,163.2018915666686
76,0,0.047101437499999996,163.2489930041686
75,49,0.0018115937499999998,163.2508045979186
75,0,0.047101437499999996,163.2979060354186
73,49,0.0018115937499999998,163.2997176291686
73,0,0.047101437499999996,163.34681906666862
71,49,0.0018115937499999998,163.34863066041862
71,0,0.047101437499999996,163.39573209791862
69,49,0.0018115937499999998,163.39754369166863
69,0,0.047101437499999996,163.44464512916863
68,49,0.028985499999999997,163.47363062916864
68,0,1.7373184062499998,165.21094903541865
69,33,0.0018115937499999998,165.21276062916866
69,0,0.15579706249999997,165.36855769166866
71,33,0.0018115937499999998,165.37036928541866
71,0,0.15579706249999997,165.52616634791866
73,33,0.0018115937499999998,165.52797794166867
73,0,0.15579706249999997,165.68377500416867
75,33,0.0018115937499999998,165.68558659791867
75,0,0.15579706249999997,165.84138366041867
76,33,0.0018115937499999998,165.84319525416868
76,0,0.15579706249999997,165.99899231666868
78,33,0.0018115937499999998,166.00080391041868
78,0,0.15579706249999997,166.15660097291868
76,33,0.0018115937499999998,166.1584125666687
76,0,0.15579706249999997,166.3142096291687
75,33,0.0018115937499999998,166.3160212229187
75,0,0.15579706249999997,166.4718182854187
73,33,0.0018115937499999998,166.4736298791687
73,0,0.15579706249999997,166.6294269416687
71,33,0.0018115937499999998,166.6312385354187
71,0,0.15579706249999997,166.7870355979187
69,33,0.0018115937499999998,166.7888471916687
69,0,0.15579706249999997,166.9446442541687
68,33,0.007246374999999999,166.9518906291687
68,0,1.7373184062499998,168.6892090354187
69,33,0.0018115937499999998,168.69102062916872
69,0,0.13224634375,168.82326697291873
71,33,0.0018115937499999998,168.82507856666874
71,0,0.13224634375,168.95732491041875
73,33,0.0018115937499999998,168.95913650416875
73,0,0.13224634375,169.09138284791877
75,33,0.0018115937499999998,169.09319444166877
75,0,0.13224634375,169.22544078541878
76,33,0.0018115937499999998,169.2272523791688
76,0,0.13224634375,169.3594987229188
78,33,0.0018115937499999998,169.3613103166688
78,0,0.13224634375,169.49355666041882
80,33,0.0018115937499999998,169.49536825416882
80,0,0.13224634375,169.62761459791884
78,33,0.0018115937499999998,169.62942619166884
78,0,0.13224634375,169.76167253541885
76,33,0.0018115937499999998,169.76348412916886
76,0,0.13224634375,169.89573047291887
75,33,0.0018115937499999998,169.89754206666888
75,0,0.13224634375,170.0297884104189
73,33,0.0018115937499999998,170.0316000041689
73,0,0.13224634375,170.1638463479189
71,33,0.0018115937499999998,170.1656579416689
71,0,0.13224634375,170.29790428541892
69,33,0.0018115937499999998,170.29971587916893
68,33,0.13043475,170.43015062916893
69,0,0.0018115937499999998,170.43196222291894
68,0,1.7355068125,172.16746903541895
80,33,0.0018115937499999998,172.16928062916895
80,0,1.7373184062499998,173.90659903541896
80,33,0.0018115937499999998,173.90841062916897
80,0,3.47644840625,177.38485903541897
92,33,0.0018115937499999998,177.38667062916898
92,0,3.47644840625,180.86311903541898
92,33,0.0018115937499999998,180.86493062916898
92,0,3.47644840625,184.34137903541898
53,33,0,0.0
58,33,0,0.0
46,33,0,0.0
41,33,0,0.0
34,33,0,0.0
53,0,1.2265625,1.2265625
58,0,0,1.2265625
46,0,0,1.2265625
41,0,0,1.2265625
34,0,0,1.2265625
54,33,0.0026041666666666665,1.2291666666666667
58,33,0,1.2291666666666667
49,33,0,1.2291666666666667
42,33,0,1.2291666666666667
37,33,0,1.2291666666666667
58,0,0.9348958333333333,2.1640625
58,33,0.0026041666666666665,2.1666666666666665
54,0,0.3098958333333333,2.4765625
58,0,0,2.4765625
49,0,0,2.4765625
42,0,0,2.4765625
37,0,0,2.4765625
53,33,0.0026041666666666665,2.4791666666666665
58,33,0,2.4791666666666665
46,33,0,2.4791666666666665
41,33,0,2.4791666666666665
34,33,0,2.4791666666666665
53,0,1.2473958333333333,3.7265625
46,0,0,3.7265625
41,0,0,3.7265625
34,0,0,3.7265625
54,33,0.0026041666666666665,3.7291666666666665
49,33,0,3.7291666666666665
42,33,0,3.7291666666666665
37,33,0,3.7291666666666665
54,0,1.2473958333333333,4.9765625
58,0,0,4.9765625
49,0,0,4.9765625
42,0,0,4.9765625
37,0,0,4.9765625
53,33,0.0026041666666666665,4.979166666666667
58,33,0,4.979166666666667
46,33,0,4.979166666666667
41,33,0,4.979166666666667
34,33,0,4.979166666666667
53,0,1.2473958333333333,6.2265625
58,0,0,6.2265625
46,0,0,6.2265625
41,0,0,6.2265625
34,0,0,6.2265625
54,33,0.0026041666666666665,6.229166666666667
58,33,0,6.229166666666667
49,33,0,6.229166666666667
42,33,0,6.229166666666667
37,33,0,6.229166666666667
58,0,0.9348958333333333,7.1640625
58,33,0.0026041666666666665,7.166666666666667
54,0,0.3098958333333333,7.4765625
58,0,0,7.4765625
49,0,0,7.4765625
42,0,0,7.4765625
37,0,0,7.4765625
53,33,0.0026041666666666665,7.479166666666667
58,33,0,7.479166666666667
46,33,0,7.479166666666667
41,33,0,7.479166666666667
34,33,0,7.479166666666667
53,0,1.2473958333333333,8.7265625
46,0,0,8.7265625
41,0,0,8.7265625
34,0,0,8.7265625
54,33,0.0026041666666666665,8.729166666666666
49,33,0,8.729166666666666
42,33,0,8.729166666666666
37,33,0,8.729166666666666
54,0,1.2473958333333333,9.9765625
58,0,0,9.9765625
49,0,0,9.9765625
42,0,0,9.9765625
37,0,0,9.9765625
53,49,0.0026041666666666665,9.979166666666666
58,49,0,9.979166666666666
46,49,0,9.979166666666666
41,49,0,9.979166666666666
34,49,0,9.979166666666666
53,0,1.2473958333333333,11.2265625
58,0,0,11.2265625
46,0,0,11.2265625
41,0,0,11.2265625
34,0,0,11.2265625
54,49,0.0026041666666666665,11.229166666666666
58,49,0,11.229166666666666
49,49,0,11.229166666666666
42,49,0,11.229166666666666
37,49,0,11.229166666666666
58,0,0.9348958333333333,12.1640625
58,49,0.0026041666666666665,12.166666666666666
54,0,0.3098958333333333,12.4765625
58,0,0,12.4765625
49,0,0,12.4765625
42,0,0,12.4765625
37,0,0,12.4765625
53,49,0.0026041666666666665,12.479166666666666
58,49,0,12.479166666666666
46,49,0,12.479166666666666
41,49,0,12.479166666666666
34,49,0,12.479166666666666
53,0,1.2473958333333333,13.7265625
58,0,0,13.7265625
46,0,0,13.7265625
41,0,0,13.7265625
34,0,0,13.7265625
54,49,0.0026041666666666665,13.729166666666666
61,49,0,13.729166666666666
49,49,0,13.729166666666666
42,49,0,13.729166666666666
37,49,0,13.729166666666666
61,0,0.9348958333333333,14.6640625
60,49,0.0026041666666666665,14.666666666666666
61,49,0.078125,14.744791666666666
61,0,0.23177083333333331,14.9765625
54,0,0,14.9765625
60,0,0,14.9765625
49,0,0,14.9765625
42,0,0,14.9765625
37,0,0,14.9765625
53,49,0.0026041666666666665,14.979166666666666
60,49,0,14.979166666666666
46,49,0,14.979166666666666
41,49,0,14.979166666666666
34,49,0,14.979166666666666
60,0,0.9348958333333333,15.9140625
58,49,0.0026041666666666665,15.916666666666666
53,0,0.3098958333333333,16.2265625
58,0,0,16.2265625
46,0,0,16.2265625
41,0,0,16.2265625
34,0,0,16.2265625
54,49,0.0026041666666666665,16.229166666666668
58,49,0,16.229166666666668
49,49,0,16.229166666666668
42,49,0,16.229166666666668
37,49,0,16.229166666666668
58,0,0.9348958333333333,17.1640625
58,49,0.0026041666666666665,17.166666666666668
54,0,0.3098958333333333,17.4765625
58,0,0,17.4765625
49,0,0,17.4765625
42,0,0,17.4765625
37,0,0,17.4765625
53,49,0.0026041666666666665,17.479166666666668
58,49,0,17.479166666666668
46,49,0,17.479166666666668
41,49,0,17.479166666666668
34,49,0,17.479166666666668
53,0,1.2473958333333333,18.7265625
46,0,0,18.7265625
41,0,0,18.7265625
34,0,0,18.7265625
54,49,0.0026041666666666665,18.729166666666668
49,49,0,18.729166666666668
42,49,0,18.729166666666668
37,49,0,18.729166666666668
54,0,1.2473958333333333,19.9765625
58,0,0,19.9765625
49,0,0,19.9765625
42,0,0,19.9765625
37,0,0,19.9765625
53,49,0.0026041666666666665,19.979166666666668
61,49,0,19.979166666666668
58,49,0,19.979166666666668
46,49,0,19.979166666666668
41,49,0,19.979166666666668
34,49,0,19.979166666666668
53,0,1.2473958333333333,21.2265625
61,0,0,21.2265625
58,0,0,21.2265625
46,0,0,21.2265625
41,0,0,21.2265625
34,0,0,21.2265625
58,49,0.0026041666666666665,21.229166666666668
54,49,0,21.229166666666668
61,49,0,21.229166666666668
49,49,0,21.229166666666668
42,49,0,21.229166666666668
37,49,0,21.229166666666668
61,0,0.9348958333333333,22.1640625
61,49,0.0026041666666666665,22.166666666666668
58,0,0.3098958333333333,22.4765625
54,0,0,22.4765625
61,0,0,22.4765625
49,0,0,22.4765625
42,0,0,22.4765625
37,0,0,22.4765625
53,49,0.0026041666666666665,22.479166666666668
61,49,0,22.479166666666668
46,49,0,22.479166666666668
41,49,0,22.479166666666668
34,49,0,22.479166666666668
53,0,1.2473958333333333,23.7265625
61,0,0,23.7265625
46,0,0,23.7265625
41,0,0,23.7265625
34,0,0,23.7265625
54,49,0.0026041666666666665,23.729166666666668
65,49,0,23.729166666666668
61,49,0,23.729166666666668
49,49,0,23.729166666666668
42,49,0,23.729166666666668
37,49,0,23.729166666666668
65,0,0.9348958333333333,24.6640625
61,0,0,24.6640625
63,49,0.0026041666666666665,24.666666666666668
60,49,0,24.666666666666668
65,49,0.078125,24.744791666666668
65,0,0.23177083333333331,24.9765625
54,0,0,24.9765625
63,0,0,24.9765625
60,0,0,24.9765625
49,0,0,24.9765625
42,0,0,24.9765625
37,0,0,24.9765625
53,49,0.0026041666666666665,24.979166666666668
63,49,0,24.979166666666668
60,49,0,24.979166666666668
46,49,0,24.979166666666668
41,49,0,24.979166666666668
34,49,0,24.979166666666668
63,0,0.9348958333333333,25.9140625
60,0,0,25.9140625
61,49,0.0026041666666666665,25.916666666666668
58,49,0,25.916666666666668
53,0,0.3098958333333333,26.2265625
61,0,0,26.2265625
58,0,0,26.2265625
46,0,0,26.2265625
41,0,0,26.2265625
34,0,0,26.2265625
54,49,0.0026041666666666665,26.229166666666668
61,49,0,26.229166666666668
58,49,0,26.229166666666668
49,49,0,26.229166666666668
42,49,0,26.229166666666668
37,49,0,26.229166666666668
61,0,0.9348958333333333,27.1640625
58,0,0,27.1640625
61,49,0.0026041666666666665,27.166666666666668
58,49,0,27.166666666666668
54,0,0.3098958333333333,27.4765625
61,0,0,27.4765625
58,0,0,27.4765625
49,0,0,27.4765625
42,0,0,27.4765625
37,0,0,27.4765625
53,49,0.0026041666666666665,27.479166666666668
61,49,0,27.479166666666668
58,49,0,27.479166666666668
46,49,0,27.479166666666668
41,49,0,27.479166666666668
34,49,0,27.479166666666668
53,0,1.2473958333333333,28.7265625
46,0,0,28.7265625
41,0,0,28.7265625
34,0,0,28.7265625
54,49,0.0026041666666666665,28.729166666666668
49,49,0,28.729166666666668
42,49,0,28.729166666666668
37,49,0,28.729166666666668
54,0,1.2473958333333333,29.9765625
61,0,0,29.9765625
58,0,0,29.9765625
49,0,0,29.9765625
42,0,0,29.9765625
37,0,0,29.9765625
61,49,0.0026041666666666665,29.979166666666668
58,49,0,29.979166666666668
70,49,0,29.979166666666668
46,49,0,29.979166666666668
41,49,0,29.979166666666668
34,49,0,29.979166666666668
70,0,0.9348958333333333,30.9140625
68,49,0.0026041666666666665,30.916666666666668
68,49,0.078125,30.994791666666668
61,0,0.23177083333333331,31.2265625
58,0,0,31.2265625
68,0,0,31.2265625
68,0,0,31.2265625
46,0,0,31.2265625
41,0,0,31.2265625
34,0,0,31.2265625
61,49,0.0026041666666666665,31.229166666666668
58,49,0,31.229166666666668
66,49,0,31.229166666666668
49,49,0,31.229166666666668
42,49,0,31.229166666666668
37,49,0,31.229166666666668
66,0,0.9348958333333333,32.1640625
65,49,0.0026041666666666665,32.166666666666664
61,0,0.3098958333333333,32.4765625
58,0,0,32.4765625
65,0,0,32.4765625
49,0,0,32.4765625
42,0,0,32.4765625
37,0,0,32.4765625
61,49,0.0026041666666666665,32.479166666666664
58,49,0,32.479166666666664
65,49,0,32.479166666666664
46,49,0,32.479166666666664
41,49,0,32.479166666666664
34,49,0,32.479166666666664
61,0,1.2473958333333333,33.7265625
58,0,0,33.7265625
65,0,0,33.7265625
46,0,0,33.7265625
41,0,0,33.7265625
34,0,0,33.7265625
58,49,0.0026041666666666665,33.729166666666664
61,49,0,33.729166666666664
49,49,0,33.729166666666664
42,49,0,33.729166666666664
37,49,0,33.729166666666664
58,0,1.2473958333333333,34.9765625
61,0,0,34.9765625
49,0,0,34.9765625
42,0,0,34.9765625
37,0,0,34.9765625
61,49,0.0026041666666666665,34.979166666666664
58,49,0,34.979166666666664
70,49,0,34.979166666666664
46,49,0,34.979166666666664
41,49,0,34.979166666666664
34,49,0,34.979166666666664
70,0,0.9348958333333333,35.9140625
68,49,0.0026041666666666665,35.916666666666664
68,49,0.078125,35.994791666666664
61,0,0.23177083333333331,36.2265625
58,0,0,36.2265625
68,0,0,36.2265625
68,0,0,36.2265625
46,0,0,36.2265625
41,0,0,36.2265625
34,0,0,36.2265625
61,49,0.0026041666666666665,36.229166666666664
58,49,0,36.229166666666664
66,49,0,36.229166666666664
49,49,0,36.229166666666664
42,49,0,36.229166666666664
37,49,0,36.229166666666664
66,0,0.9348958333333333,37.1640625
65,49,0.0026041666666666665,37.166666666666664
61,0,0.3098958333333333,37.4765625
58,0,0,37.4765625
65,0,0,37.4765625
49,0,0,37.4765625
42,0,0,37.4765625
37,0,0,37.4765625
61,49,0.0026041666666666665,37.479166666666664
58,49,0,37.479166666666664
65,49,0,37.479166666666664
46,49,0,37.479166666666664
41,49,0,37.479166666666664
34,49,0,37.479166666666664
61,0,1.2473958333333333,38.7265625
58,0,0,38.7265625
65,0,0,38.7265625
46,0,0,38.7265625
41,0,0,38.7265625
34,0,0,38.7265625
58,49,0.0026041666666666665,38.729166666666664
61,49,0,38.729166666666664
49,49,0,38.729166666666664
42,49,0,38.729166666666664
37,49,0,38.729166666666664
58,0,1.2473958333333333,39.9765625
61,0,0,39.9765625
49,0,0,39.9765625
42,0,0,39.9765625
37,0,0,39.9765625
53,49,0.0026041666666666665,39.979166666666664
58,49,0,39.979166666666664
46,49,0,39.979166666666664
41,49,0,39.979166666666664
34,49,0,39.979166666666664
53,0,1.2473958333333333,41.2265625
58,0,0,41.2265625
46,0,0,41.2265625
41,0,0,41.2265625
34,0,0,41.2265625
54,49,0.0026041666666666665,41.229166666666664
58,49,0,41.229166666666664
49,49,0,41.229166666666664
42,49,0,41.229166666666664
37,49,0,41.229166666666664
58,0,0.9348958333333333,42.1640625
58,49,0.0026041666666666665,42.166666666666664
54,0,0.3098958333333333,42.4765625
58,0,0,42.4765625
49,0,0,42.4765625
42,0,0,42.4765625
37,0,0,42.4765625
53,49,0.0026041666666666665,42.479166666666664
58,49,0,42.479166666666664
46,49,0,42.479166666666664
41,49,0,42.479166666666664
34,49,0,42.479166666666664
53,0,1.2473958333333333,43.7265625
58,0,0,43.7265625
46,0,0,43.7265625
41,0,0,43.7265625
34,0,0,43.7265625
54,49,0.0026041666666666665,43.729166666666664
61,49,0,43.729166666666664
49,49,0,43.729166666666664
42,49,0,43.729166666666664
37,49,0,43.729166666666664
61,0,0.9348958333333333,44.6640625
60,49,0.0026041666666666665,44.666666666666664
61,49,0.078125,44.744791666666664
61,0,0.23177083333333331,44.9765625
54,0,0,44.9765625
60,0,0,44.9765625
49,0,0,44.9765625
42,0,0,44.9765625
37,0,0,44.9765625
53,49,0.0026041666666666665,44.979166666666664
60,49,0,44.979166666666664
46,49,0,44.979166666666664
41,49,0,44.979166666666664
34,49,0,44.979166666666664
60,0,0.9348958333333333,45.9140625
58,49,0.0026041666666666665,45.916666666666664
53,0,0.3098958333333333,46.2265625
58,0,0,46.2265625
46,0,0,46.2265625
41,0,0,46.2265625
34,0,0,46.2265625
54,49,0.0026041666666666665,46.229166666666664
58,49,0,46.229166666666664
49,49,0,46.229166666666664
42,49,0,46.229166666666664
37,49,0,46.229166666666664
58,0,0.9348958333333333,47.1640625
58,49,0.0026041666666666665,47.166666666666664
54,0,0.3098958333333333,47.4765625
58,0,0,47.4765625
49,0,0,47.4765625
42,0,0,47.4765625
37,0,0,47.4765625
53,49,0.0026041666666666665,47.479166666666664
58,49,0,47.479166666666664
46,49,0,47.479166666666664
41,49,0,47.479166666666664
34,49,0,47.479166666666664
53,0,1.2473958333333333,48.7265625
46,0,0,48.7265625
41,0,0,48.7265625
34,0,0,48.7265625
54,49,0.0026041666666666665,48.729166666666664
49,49,0,48.729166666666664
42,49,0,48.729166666666664
37,49,0,48.729166666666664
54,0,1.2473958333333333,49.9765625
58,0,0,49.9765625
49,0,0,49.9765625
42,0,0,49.9765625
37,0,0,49.9765625
73,49,0.0026041666666666665,49.979166666666664
82,49,0,49.979166666666664
70,49,0,49.979166666666664
46,49,0,49.979166666666664
41,49,0,49.979166666666664
34,49,0,49.979166666666664
82,0,0.6223958333333333,50.6015625
70,0,0,50.6015625
80,49,0.0026041666666666665,50.604166666666664
68,49,0,50.604166666666664
73,0,0.6223958333333333,51.2265625
80,0,0,51.2265625
68,0,0,51.2265625
46,0,0,51.2265625
41,0,0,51.2265625
34,0,0,51.2265625
73,49,0.0026041666666666665,51.229166666666664
78,49,0,51.229166666666664
66,49,0,51.229166666666664
49,49,0,51.229166666666664
42,49,0,51.229166666666664
37,49,0,51.229166666666664
78,0,0.9348958333333333,52.1640625
66,0,0,52.1640625
77,49,0.0026041666666666665,52.166666666666664
65,49,0,52.166666666666664
73,0,0.3098958333333333,52.4765625
77,0,0,52.4765625
65,0,0,52.4765625
49,0,0,52.4765625
42,0,0,52.4765625
37,0,0,52.4765625
73,49,0.0026041666666666665,52.479166666666664
77,49,0,52.479166666666664
65,49,0,52.479166666666664
46,49,0,52.479166666666664
41,49,0,52.479166666666664
34,49,0,52.479166666666664
73,0,1.2473958333333333,53.7265625
77,0,0,53.7265625
65,0,0,53.7265625
46,0,0,53.7265625
41,0,0,53.7265625
34,0,0,53.7265625
73,49,0.0026041666666666665,53.729166666666664
70,49,0,53.729166666666664
61,49,0,53.729166666666664
49,49,0,53.729166666666664
42,49,0,53.729166666666664
37,49,0,53.729166666666664
73,0,1.2473958333333333,54.9765625
70,0,0,54.9765625
61,0,0,54.9765625
49,0,0,54.9765625
42,0,0,54.9765625
37,0,0,54.9765625
73,49,0.0026041666666666665,54.979166666666664
82,49,0,54.979166666666664
70,49,0,54.979166666666664
46,49,0,54.979166666666664
41,49,0,54.979166666666664
34,49,0,54.979166666666664
82,0,0.6223958333333333,55.6015625
70,0,0,55.6015625
80,49,0.0026041666666666665,55.604166666666664
68,49,0,55.604166666666664
73,0,0.6223958333333333,56.2265625
80,0,0,56.2265625
68,0,0,56.2265625
46,0,0,56.2265625
41,0,0,56.2265625
34,0,0,56.2265625
73,49,0.0026041666666666665,56.229166666666664
78,49,0,56.229166666666664
66,49,0,56.229166666666664
49,49,0,56.229166666666664
42,49,0,56.229166666666664
37,49,0,56.229166666666664
78,0,0.9348958333333333,57.1640625
66,0,0,57.1640625
77,49,0.0026041666666666665,57.166666666666664
65,49,0,57.166666666666664
73,0,0.3098958333333333,57.4765625
77,0,0,57.4765625
65,0,0,57.4765625
49,0,0,57.4765625
42,0,0,57.4765625
37,0,0,57.4765625
73,49,0.0026041666666666665,57.479166666666664
77,49,0,57.479166666666664
65,49,0,57.479166666666664
46,49,0,57.479166666666664
41,49,0,57.479166666666664
34,49,0,57.479166666666664
73,0,1.2473958333333333,58.7265625
77,0,0,58.7265625
65,0,0,58.7265625
46,0,0,58.7265625
41,0,0,58.7265625
34,0,0,58.7265625
73,49,0.0026041666666666665,58.729166666666664
70,49,0,58.729166666666664
61,49,0,58.729166666666664
49,49,0,58.729166666666664
42,49,0,58.729166666666664
37,49,0,58.729166666666664
73,0,1.2473958333333333,59.9765625
70,0,0,59.9765625
61,0,0,59.9765625
49,0,0,59.9765625
42,0,0,59.9765625
37,0,0,59.9765625
65,49,0.0026041666666666665,59.979166666666664
70,49,0,59.979166666666664
58,49,0,59.979166666666664
46,49,0,59.979166666666664
41,49,0,59.979166666666664
34,49,0,59.979166666666664
65,0,1.2473958333333333,61.2265625
70,0,0,61.2265625
58,0,0,61.2265625
46,0,0,61.2265625
41,0,0,61.2265625
34,0,0,61.2265625
66,49,0.0026041666666666665,61.229166666666664
70,49,0,61.229166666666664
58,49,0,61.229166666666664
49,49,0,61.229166666666664
42,49,0,61.229166666666664
37,49,0,61.229166666666664
70,0,0.9348958333333333,62.1640625
58,0,0,62.1640625
70,49,0.0026041666666666665,62.166666666666664
58,49,0,62.166666666666664
66,0,0.3098958333333333,62.4765625
70,0,0,62.4765625
58,0,0,62.4765625
49,0,0,62.4765625
42,0,0,62.4765625
37,0,0,62.4765625
65,49,0.0026041666666666665,62.479166666666664
70,49,0,62.479166666666664
58,49,0,62.479166666666664
46,49,0,62.479166666666664
41,49,0,62.479166666666664
34,49,0,62.479166666666664
65,0,1.2473958333333333,63.7265625
70,0,0,63.7265625
58,0,0,63.7265625
46,0,0,63.7265625
41,0,0,63.7265625
34,0,0,63.7265625
66,49,0.0026041666666666665,63.729166666666664
73,49,0,63.729166666666664
61,49,0,63.729166666666664
49,49,0,63.729166666666664
42,49,0,63.729166666666664
37,49,0,63.729166666666664
73,0,0.9348958333333333,64.6640625
61,0,0,64.6640625
72,49,0.0026041666666666665,64.66666666666667
60,49,0,64.66666666666667
66,0,0.3098958333333333,64.9765625
72,0,0,64.9765625
60,0,0,64.9765625
49,0,0,64.9765625
42,0,0,64.9765625
37,0,0,64.9765625
65,49,0.0026041666666666665,64.97916666666667
72,49,0,64.97916666666667
60,49,0,64.97916666666667
46,49,0,64.97916666666667
41,49,0,64.97916666666667
34,49,0,64.97916666666667
72,0,0.9348958333333333,65.9140625
60,0,0,65.9140625
70,49,0.0026041666666666665,65.91666666666667
58,49,0,65.91666666666667
65,0,0.3098958333333333,66.2265625
70,0,0,66.2265625
58,0,0,66.2265625
46,0,0,66.2265625
41,0,0,66.2265625
34,0,0,66.2265625
66,49,0.0026041666666666665,66.22916666666667
70,49,0,66.22916666666667
58,49,0,66.22916666666667
49,49,0,66.22916666666667
42,49,0,66.22916666666667
37,49,0,66.22916666666667
70,0,0.9348958333333333,67.1640625
58,0,0,67.1640625
70,49,0.0026041666666666665,67.16666666666667
58,49,0,67.16666666666667
66,0,0.3098958333333333,67.4765625
70,0,0,67.4765625
58,0,0,67.4765625
49,0,0,67.4765625
42,0,0,67.4765625
37,0,0,67.4765625
65,49,0.0026041666666666665,67.47916666666667
70,49,0,67.47916666666667
58,49,0,67.47916666666667
46,49,0,67.47916666666667
41,49,0,67.47916666666667
34,49,0,67.47916666666667
65,0,1.2473958333333333,68.7265625
70,0,0,68.7265625
58,0,0,68.7265625
46,0,0,68.7265625
41,0,0,68.7265625
34,0,0,68.7265625
68,49,0.0026041666666666665,68.72916666666667
72,49,0,68.72916666666667
66,49,0,68.72916666666667
60,49,0,68.72916666666667
44,49,0,68.72916666666667
32,49,0,68.72916666666667
68,0,1.2473958333333333,69.9765625
72,0,0,69.9765625
66,0,0,69.9765625
60,0,0,69.9765625
44,0,0,69.9765625
32,0,0,69.9765625
73,96,0.0026041666666666665,69.97916666666667
65,96,0,69.97916666666667
61,96,0,69.97916666666667
25,96,0,69.97916666666667
37,96,0,69.97916666666667
73,0,1.2473958333333333,71.2265625
65,0,0,71.2265625
61,0,0,71.2265625
25,0,0,71.2265625
37,0,0,71.2265625
73,96,0.0026041666666666665,71.22916666666667
77,96,0,71.22916666666667
65,96,0,71.22916666666667
56,96,0,71.22916666666667
49,96,0,71.22916666666667
61,96,0,71.22916666666667
77,0,0.9348958333333333,72.1640625
65,0,0,72.1640625
61,0,0,72.1640625
78,96,0.0026041666666666665,72.16666666666667
66,96,0,72.16666666666667
63,96,0,72.16666666666667
73,0,0.3098958333333333,72.4765625
78,0,0,72.4765625
66,0,0,72.4765625
56,0,0,72.4765625
49,0,0,72.4765625
63,0,0,72.4765625
73,96,0.0026041666666666665,72.47916666666667
80,96,0,72.47916666666667
68,96,0,72.47916666666667
56,96,0,72.47916666666667
49,96,0,72.47916666666667
65,96,0,72.47916666666667
80,0,0.9348958333333333,73.4140625
68,0,0,73.4140625
65,0,0,73.4140625
82,96,0.0026041666666666665,73.41666666666667
70,96,0,73.41666666666667
66,96,0,73.41666666666667
73,0,0.3098958333333333,73.7265625
82,0,0,73.7265625
70,0,0,73.7265625
56,0,0,73.7265625
49,0,0,73.7265625
66,0,0,73.7265625
80,96,0.0026041666666666665,73.72916666666667
84,96,0,73.72916666666667
72,96,0,73.72916666666667
68,96,0,73.72916666666667
56,96,0,73.72916666666667
63,96,0,73.72916666666667
84,0,0.9348958333333333,74.6640625
72,0,0,74.6640625
63,0,0,74.6640625
85,96,0.0026041666666666665,74.66666666666667
73,96,0,74.66666666666667
65,96,0,74.66666666666667
80,0,0.3098958333333333,74.9765625
85,0,0,74.9765625
73,0,0,74.9765625
68,0,0,74.9765625
56,0,0,74.9765625
65,0,0,74.9765625
89,96,0.0026041666666666665,74.97916666666667
84,96,0,74.97916666666667
80,96,0,74.97916666666667
77,96,0,74.97916666666667
44,96,0,74.97916666666667
32,96,0,74.97916666666667
44,0,1.2473958333333333,76.2265625
32,0,0,76.2265625
72,96,0.0026041666666666665,76.22916666666667
66,96,0,76.22916666666667
63,96,0,76.22916666666667
72,0,0.9348958333333333,77.1640625
66,0,0,77.1640625
63,0,0,77.1640625
70,96,0.0026041666666666665,77.16666666666667
66,96,0,77.16666666666667
61,96,0,77.16666666666667
89,0,0.3098958333333333,77.4765625
84,0,0,77.4765625
80,0,0,77.4765625
77,0,0,77.4765625
70,0,0,77.4765625
66,0,0,77.4765625
61,0,0,77.4765625
87,96,0.0026041666666666665,77.47916666666667
84,96,0,77.47916666666667
80,96,0,77.47916666666667
75,96,0,77.47916666666667
70,96,0,77.47916666666667
66,96,0,77.47916666666667
61,96,0,77.47916666666667
70,0,0.9348958333333333,78.4140625
66,0,0,78.4140625
61,0,0,78.4140625
68,96,0.0026041666666666665,78.41666666666667
66,96,0,78.41666666666667
60,96,0,78.41666666666667
68,0,0.3098958333333333,78.7265625
66,0,0,78.7265625
60,0,0,78.7265625
68,96,0.0026041666666666665,78.72916666666667
66,96,0,78.72916666666667
60,96,0,78.72916666666667
87,0,0.6223958333333333,79.3515625
84,0,0,79.3515625
80,0,0,79.3515625
75,0,0,79.3515625
68,0,0.3125,79.6640625
66,0,0,79.6640625
60,0,0,79.6640625
78,96,0.0026041666666666665,79.66666666666667
75,96,0,79.66666666666667
72,96,0,79.66666666666667
66,96,0,79.66666666666667
63,96,0,79.66666666666667
60,96,0,79.66666666666667
57,96,0,79.66666666666667
78,0,0.3098958333333333,79.9765625
75,0,0,79.9765625
72,0,0,79.9765625
66,0,0,79.9765625
63,0,0,79.9765625
60,0,0,79.9765625
57,0,0,79.9765625
75,96,0.0026041666666666665,79.97916666666667
72,96,0,79.97916666666667
77,96,0,79.97916666666667
65,96,0,79.97916666666667
46,96,0,79.97916666666667
34,96,0,79.97916666666667
75,0,1.2473958333333333,81.2265625
72,0,0,81.2265625
77,0,0,81.2265625
65,0,0,81.2265625
46,0,0,81.2265625
34,0,0,81.2265625
73,96,0.0026041666666666665,81.22916666666667
70,96,0,81.22916666666667
77,96,0,81.22916666666667
65,96,0,81.22916666666667
61,96,0,81.22916666666667
58,96,0,81.22916666666667
53,96,0,81.22916666666667
77,0,0.9348958333333333,82.1640625
65,0,0,82.1640625
79,96,0.0026041666666666665,82.16666666666667
67,96,0,82.16666666666667
73,0,0.3098958333333333,82.4765625
70,0,0,82.4765625
79,0,0,82.4765625
67,0,0,82.4765625
61,0,0,82.4765625
58,0,0,82.4765625
53,0,0,82.4765625
77,96,0.0026041666666666665,82.47916666666667
73,96,0,82.47916666666667
81,96,0,82.47916666666667
69,96,0,82.47916666666667
49,96,0,82.47916666666667
37,96,0,82.47916666666667
81,0,0.9348958333333333,83.4140625
69,0,0,83.4140625
82,96,0.0026041666666666665,83.41666666666667
70,96,0,83.41666666666667
77,0,0.3098958333333333,83.7265625
73,0,0,83.7265625
82,0,0,83.7265625
70,0,0,83.7265625
49,0,0,83.7265625
37,0,0,83.7265625
77,96,0.0026041666666666665,83.72916666666667
84,96,0,83.72916666666667
72,96,0,83.72916666666667
65,96,0,83.72916666666667
61,96,0,83.72916666666667
58,96,0,83.72916666666667
53,96,0,83.72916666666667
84,0,0.9348958333333333,84.6640625
72,0,0,84.6640625
85,96,0.0026041666666666665,84.66666666666667
73,96,0,84.66666666666667
77,0,0.3098958333333333,84.9765625
85,0,0,84.9765625
73,0,0,84.9765625
65,0,0,84.9765625
61,0,0,84.9765625
58,0,0,84.9765625
53,0,0,84.9765625
70,96,0.0026041666666666665,84.97916666666667
41,96,0,84.97916666666667
29,96,0,84.97916666666667
76,96,0.15625,85.13541666666667
79,96,0.15625,85.29166666666667
85,96,0.15625,85.44791666666667
41,0,0.7786458333333333,86.2265625
29,0,0,86.2265625
67,96,0.0026041666666666665,86.22916666666667
61,96,0,86.22916666666667
58,96,0,86.22916666666667
53,96,0,86.22916666666667
70,0,1.2473958333333333,87.4765625
67,0,0,87.4765625
61,0,0,87.4765625
58,0,0,87.4765625
53,0,0,87.4765625
84,96,0.0026041666666666665,87.47916666666667
77,96,0,87.47916666666667
72,96,0,87.47916666666667
53,96,0,87.47916666666667
76,0,0.15364583333333331,87.6328125
57,96,0.0026041666666666665,87.63541666666667
79,0,0.15364583333333331,87.7890625
60,96,0.0026041666666666665,87.79166666666667
85,0,0.15364583333333331,87.9453125
69,96,0.0026041666666666665,87.94791666666667
84,0,0.7786458333333333,88.7265625
77,0,0,88.7265625
72,0,0,88.7265625
53,0,0,88.7265625
53,96,0.0026041666666666665,88.72916666666667
57,0,0.15364583333333331,88.8828125
60,0,0.15625,89.0390625
69,0,0.15625,89.1953125
46,96,0.15885416666666666,89.35416666666667
46,0,0.6223958333333333,89.9765625
53,0,0,89.9765625
65,96,0.0026041666666666665,89.97916666666667
68,96,0,89.97916666666667
60,96,0,89.97916666666667
56,96,0,89.97916666666667
54,96,0,89.97916666666667
44,96,0,89.97916666666667
65,0,1.2473958333333333,91.2265625
68,0,0,91.2265625
60,0,0,91.2265625
56,0,0,91.2265625
54,0,0,91.2265625
63,96,0.0026041666666666665,91.22916666666667
68,96,0,91.22916666666667
60,96,0,91.22916666666667
56,96,0,91.22916666666667
54,96,0,91.22916666666667
63,0,1.2473958333333333,92.4765625
68,0,0,92.4765625
60,0,0,92.4765625
56,0,0,92.4765625
54,0,0,92.4765625
44,0,0,92.4765625
61,96,0.0026041666666666665,92.47916666666667
68,96,0,92.47916666666667
53,96,0,92.47916666666667
49,96,0,92.47916666666667
61,0,1.2473958333333333,93.7265625
68,0,0,93.7265625
53,0,0,93.7265625
49,0,0,93.7265625
49,96,0.0026041666666666665,93.72916666666667
42,96,0.625,94.35416666666667
42,0,0.6223958333333333,94.9765625
49,0,0,94.9765625
61,96,0.0026041666666666665,94.97916666666667
68,96,0,94.97916666666667
57,96,0,94.97916666666667
51,96,0,94.97916666666667
41,96,0,94.97916666666667
61,0,1.2473958333333333,96.2265625
68,0,0,96.2265625
57,0,0,96.2265625
51,0,0,96.2265625
60,96,0.0026041666666666665,96.22916666666667
68,96,0,96.22916666666667
57,96,0,96.22916666666667
51,96,0,96.22916666666667
60,0,1.2473958333333333,97.4765625
68,0,0,97.4765625
57,0,0,97.4765625
51,0,0,97.4765625
41,0,0,97.4765625
58,96,0.0026041666666666665,97.47916666666667
49,96,0,97.47916666666667
42,96,0,97.47916666666667
42,0,1.2473958333333333,98.7265625
41,96,0.0026041666666666665,98.72916666666667
41,0,0.6223958333333333,99.3515625
37,96,0.0026041666666666665,99.35416666666667
58,0,0.6223958333333333,99.9765625
49,0,0,99.9765625
37,0,0,99.9765625
53,49,0.0026041666666666665,99.97916666666667
58,49,0,99.97916666666667
46,49,0,99.97916666666667
41,49,0,99.97916666666667
34,49,0,99.97916666666667
53,0,1.2473958333333333,101.2265625
58,0,0,101.2265625
46,0,0,101.2265625
41,0,0,101.2265625
34,0,0,101.2265625
54,49,0.0026041666666666665,101.22916666666667
58,49,0,101.22916666666667
49,49,0,101.22916666666667
42,49,0,101.22916666666667
37,49,0,101.22916666666667
58,0,0.9348958333333333,102.1640625
58,49,0.0026041666666666665,102.16666666666667
54,0,0.3098958333333333,102.4765625
58,0,0,102.4765625
49,0,0,102.4765625
42,0,0,102.4765625
37,0,0,102.4765625
53,49,0.0026041666666666665,102.47916666666667
58,49,0,102.47916666666667
46,49,0,102.47916666666667
41,49,0,102.47916666666667
34,49,0,102.47916666666667
53,0,1.2473958333333333,103.7265625
58,0,0,103.7265625
46,0,0,103.7265625
41,0,0,103.7265625
34,0,0,103.7265625
54,49,0.0026041666666666665,103.72916666666667
61,49,0,103.72916666666667
49,49,0,103.72916666666667
42,49,0,103.72916666666667
37,49,0,103.72916666666667
61,0,0.9348958333333333,104.6640625
60,49,0.0026041666666666665,104.66666666666667
61,49,0.078125,104.74479166666667
61,0,0.23177083333333331,104.9765625
54,0,0,104.9765625
60,0,0,104.9765625
49,0,0,104.9765625
42,0,0,104.9765625
37,0,0,104.9765625
53,49,0.0026041666666666665,104.97916666666667
60,49,0,104.97916666666667
46,49,0,104.97916666666667
41,49,0,104.97916666666667
34,49,0,104.97916666666667
60,0,0.9348958333333333,105.9140625
58,49,0.0026041666666666665,105.91666666666667
53,0,0.3098958333333333,106.2265625
58,0,0,106.2265625
46,0,0,106.2265625
41,0,0,106.2265625
34,0,0,106.2265625
54,49,0.0026041666666666665,106.22916666666667
58,49,0,106.22916666666667
49,49,0,106.22916666666667
42,49,0,106.22916666666667
37,49,0,106.22916666666667
58,0,0.9348958333333333,107.1640625
58,49,0.0026041666666666665,107.16666666666667
54,0,0.3098958333333333,107.4765625
58,0,0,107.4765625
49,0,0,107.4765625
42,0,0,107.4765625
37,0,0,107.4765625
53,49,0.0026041666666666665,107.47916666666667
58,49,0,107.47916666666667
46,49,0,107.47916666666667
41,49,0,107.47916666666667
34,49,0,107.47916666666667
53,0,1.2473958333333333,108.7265625
58,0,0,108.7265625
46,0,0,108.7265625
41,0,0,108.7265625
34,0,0,108.7265625
52,49,0.0026041666666666665,108.72916666666667
61,49,0,108.72916666666667
55,49,0,108.72916666666667
45,49,0,108.72916666666667
33,49,0,108.72916666666667
52,0,0.9348958333333333,109.6640625
61,0,0,109.6640625
55,0,0,109.6640625
45,0,0,109.6640625
33,0,0,109.6640625
54,49,0.0026041666666666665,109.66666666666667
63,49,0,109.66666666666667
60,49,0,109.66666666666667
44,49,0,109.66666666666667
32,49,0,109.66666666666667
54,0,0.3098958333333333,109.9765625
63,0,0,109.9765625
60,0,0,109.9765625
44,0,0,109.9765625
32,0,0,109.9765625
53,96,0.0026041666666666665,109.97916666666667
65,96,0,109.97916666666667
61,96,0,109.97916666666667
25,96,0,109.97916666666667
37,96,0,109.97916666666667
53,0,1.2473958333333333,111.2265625
65,0,0,111.2265625
61,0,0,111.2265625
25,0,0,111.2265625
37,0,0,111.2265625
73,96,0.0026041666666666665,111.22916666666667
77,96,0,111.22916666666667
65,96,0,111.22916666666667
56,96,0,111.22916666666667
49,96,0,111.22916666666667
61,96,0,111.22916666666667
77,0,0.9348958333333333,112.1640625
65,0,0,112.1640625
61,0,0,112.1640625
78,96,0.0026041666666666665,112.16666666666667
66,96,0,112.16666666666667
63,96,0,112.16666666666667
73,0,0.3098958333333333,112.4765625
78,0,0,112.4765625
66,0,0,112.4765625
56,0,0,112.4765625
49,0,0,112.4765625
63,0,0,112.4765625
73,96,0.0026041666666666665,112.47916666666667
80,96,0,112.47916666666667
68,96,0,112.47916666666667
56,96,0,112.47916666666667
49,96,0,112.47916666666667
65,96,0,112.47916666666667
80,0,0.9348958333333333,113.4140625
68,0,0,113.4140625
65,0,0,113.4140625
82,96,0.0026041666666666665,113.41666666666667
70,96,0,113.41666666666667
66,96,0,113.41666666666667
73,0,0.3098958333333333,113.7265625
82,0,0,113.7265625
70,0,0,113.7265625
56,0,0,113.7265625
49,0,0,113.7265625
66,0,0,113.7265625
80,96,0.0026041666666666665,113.72916666666667
84,96,0,113.72916666666667
72,96,0,113.72916666666667
68,96,0,113.72916666666667
56,96,0,113.72916666666667
63,96,0,113.72916666666667
84,0,0.9348958333333333,114.6640625
72,0,0,114.6640625
63,0,0,114.6640625
85,96,0.0026041666666666665,114.66666666666667
73,96,0,114.66666666666667
65,96,0,114.66666666666667
80,0,0.3098958333333333,114.9765625
85,0,0,114.9765625
73,0,0,114.9765625
68,0,0,114.9765625
56,0,0,114.9765625
65,0,0,114.9765625
89,96,0.0026041666666666665,114.97916666666667
84,96,0,114.97916666666667
80,96,0,114.97916666666667
77,96,0,114.97916666666667
44,96,0,114.97916666666667
32,96,0,114.97916666666667
44,0,1.2473958333333333,116.2265625
32,0,0,116.2265625
72,96,0.0026041666666666665,116.22916666666667
66,96,0,116.22916666666667
63,96,0,116.22916666666667
72,0,0.9348958333333333,117.1640625
66,0,0,117.1640625
63,0,0,117.1640625
70,96,0.0026041666666666665,117.16666666666667
66,96,0,117.16666666666667
61,96,0,117.16666666666667
89,0,0.3098958333333333,117.4765625
84,0,0,117.4765625
80,0,0,117.4765625
77,0,0,117.4765625
70,0,0,117.4765625
66,0,0,117.4765625
61,0,0,117.4765625
87,96,0.0026041666666666665,117.47916666666667
84,96,0,117.47916666666667
80,96,0,117.47916666666667
75,96,0,117.47916666666667
70,96,0,117.47916666666667
66,96,0,117.47916666666667
61,96,0,117.47916666666667
70,0,0.9348958333333333,118.4140625
66,0,0,118.4140625
61,0,0,118.4140625
68,96,0.0026041666666666665,118.41666666666667
66,96,0,118.41666666666667
60,96,0,118.41666666666667
68,0,0.3098958333333333,118.7265625
66,0,0,118.7265625
60,0,0,118.7265625
68,96,0.0026041666666666665,118.72916666666667
66,96,0,118.72916666666667
60,96,0,118.72916666666667
87,0,0.6223958333333333,119.3515625
84,0,0,119.3515625
80,0,0,119.3515625
75,0,0,119.3515625
68,0,0.3125,119.6640625
66,0,0,119.6640625
60,0,0,119.6640625
78,96,0.0026041666666666665,119.66666666666667
75,96,0,119.66666666666667
72,96,0,119.66666666666667
66,96,0,119.66666666666667
63,96,0,119.66666666666667
60,96,0,119.66666666666667
57,96,0,119.66666666666667
78,0,0.3098958333333333,119.9765625
75,0,0,119.9765625
72,0,0,119.9765625
66,0,0,119.9765625
63,0,0,119.9765625
60,0,0,119.9765625
57,0,0,119.9765625
75,96,0.0026041666666666665,119.97916666666667
72,96,0,119.97916666666667
77,96,0,119.97916666666667
65,96,0,119.97916666666667
46,96,0,119.97916666666667
34,96,0,119.97916666666667
75,0,1.2473958333333333,121.2265625
72,0,0,121.2265625
77,0,0,121.2265625
65,0,0,121.2265625
46,0,0,121.2265625
34,0,0,121.2265625
73,96,0.0026041666666666665,121.22916666666667
70,96,0,121.22916666666667
77,96,0,121.22916666666667
65,96,0,121.22916666666667
61,96,0,121.22916666666667
58,96,0,121.22916666666667
53,96,0,121.22916666666667
77,0,0.9348958333333333,122.1640625
65,0,0,122.1640625
79,96,0.0026041666666666665,122.16666666666667
67,96,0,122.16666666666667
73,0,0.3098958333333333,122.4765625
70,0,0,122.4765625
79,0,0,122.4765625
67,0,0,122.4765625
61,0,0,122.4765625
58,0,0,122.4765625
53,0,0,122.4765625
77,96,0.0026041666666666665,122.47916666666667
73,96,0,122.47916666666667
81,96,0,122.47916666666667
69,96,0,122.47916666666667
49,96,0,122.47916666666667
37,96,0,122.47916666666667
81,0,0.9348958333333333,123.4140625
69,0,0,123.4140625
82,96,0.0026041666666666665,123.41666666666667
70,96,0,123.41666666666667
77,0,0.3098958333333333,123.7265625
73,0,0,123.7265625
82,0,0,123.7265625
70,0,0,123.7265625
49,0,0,123.7265625
37,0,0,123.7265625
77,96,0.0026041666666666665,123.72916666666667
84,96,0,123.72916666666667
72,96,0,123.72916666666667
65,96,0,123.72916666666667
61,96,0,123.72916666666667
58,96,0,123.72916666666667
53,96,0,123.72916666666667
84,0,0.9348958333333333,124.6640625
72,0,0,124.6640625
85,96,0.0026041666666666665,124.66666666666667
73,96,0,124.66666666666667
77,0,0.3098958333333333,124.9765625
85,0,0,124.9765625
73,0,0,124.9765625
65,0,0,124.9765625
61,0,0,124.9765625
58,0,0,124.9765625
53,0,0,124.9765625
70,96,0.0026041666666666665,124.97916666666667
41,96,0,124.97916666666667
29,96,0,124.97916666666667
76,96,0.15625,125.13541666666667
79,96,0.15625,125.29166666666667
85,96,0.15625,125.44791666666667
41,0,0.7786458333333333,126.2265625
29,0,0,126.2265625
67,96,0.0026041666666666665,126.22916666666667
61,96,0,126.22916666666667
58,96,0,126.22916666666667
53,96,0,126.22916666666667
70,0,1.2473958333333333,127.4765625
67,0,0,127.4765625
61,0,0,127.4765625
58,0,0,127.4765625
53,0,0,127.4765625
84,96,0.0026041666666666665,127.47916666666667
77,96,0,127.47916666666667
72,96,0,127.47916666666667
53,96,0,127.47916666666667
76,0,0.15364583333333331,127.6328125
57,96,0.0026041666666666665,127.63541666666667
79,0,0.15364583333333331,127.7890625
60,96,0.0026041666666666665,127.79166666666667
85,0,0.15364583333333331,127.9453125
69,96,0.0026041666666666665,127.94791666666667
84,0,0.7786458333333333,128.7265625
77,0,0,128.7265625
72,0,0,128.7265625
53,0,0,128.7265625
53,96,0.0026041666666666665,128.72916666666666
57,0,0.15364583333333331,128.8828125
60,0,0.15625,129.0390625
69,0,0.15625,129.1953125
46,96,0.15885416666666666,129.35416666666666
46,0,0.6223958333333333,129.9765625
53,0,0,129.9765625
65,96,0.0026041666666666665,129.97916666666666
68,96,0,129.97916666666666
60,96,0,129.97916666666666
56,96,0,129.97916666666666
54,96,0,129.97916666666666
44,96,0,129.97916666666666
65,0,1.2473958333333333,131.2265625
68,0,0,131.2265625
60,0,0,131.2265625
56,0,0,131.2265625
54,0,0,131.2265625
63,96,0.0026041666666666665,131.22916666666666
68,96,0,131.22916666666666
60,96,0,131.22916666666666
56,96,0,131.22916666666666
54,96,0,131.22916666666666
63,0,1.2473958333333333,132.4765625
68,0,0,132.4765625
60,0,0,132.4765625
56,0,0,132.4765625
54,0,0,132.4765625
44,0,0,132.4765625
61,96,0.0026041666666666665,132.47916666666666
68,96,0,132.47916666666666
53,96,0,132.47916666666666
49,96,0,132.47916666666666
61,0,1.2473958333333333,133.7265625
68,0,0,133.7265625
53,0,0,133.7265625
49,0,0,133.7265625
49,96,0.0026041666666666665,133.72916666666666
42,96,0.625,134.35416666666666
42,0,0.6223958333333333,134.9765625
49,0,0,134.9765625
61,96,0.0026041666666666665,134.97916666666666
68,96,0,134.97916666666666
57,96,0,134.97916666666666
51,96,0,134.97916666666666
41,96,0,134.97916666666666
61,0,1.2473958333333333,136.2265625
68,0,0,136.2265625
57,0,0,136.2265625
51,0,0,136.2265625
60,96,0.0026041666666666665,136.22916666666666
68,96,0,136.22916666666666
57,96,0,136.22916666666666
51,96,0,136.22916666666666
60,0,1.2473958333333333,137.4765625
68,0,0,137.4765625
57,0,0,137.4765625
51,0,0,137.4765625
41,0,0,137.4765625
58,96,0.0026041666666666665,137.47916666666666
49,96,0,137.47916666666666
42,96,0,137.47916666666666
42,0,1.2473958333333333,138.7265625
41,96,0.0026041666666666665,138.72916666666666
41,0,0.6223958333333333,139.3515625
37,96,0.0026041666666666665,139.35416666666666
58,0,0.6223958333333333,139.9765625
49,0,0,139.9765625
37,0,0,139.9765625
53,49,0.0026041666666666665,139.97916666666666
58,49,0,139.97916666666666
46,49,0,139.97916666666666
41,49,0,139.97916666666666
34,49,0,139.97916666666666
53,0,1.2473958333333333,141.2265625
58,0,0,141.2265625
46,0,0,141.2265625
41,0,0,141.2265625
34,0,0,141.2265625
54,49,0.0026041666666666665,141.22916666666666
58,49,0,141.22916666666666
49,49,0,141.22916666666666
42,49,0,141.22916666666666
37,49,0,141.22916666666666
58,0,0.9348958333333333,142.1640625
58,49,0.0026041666666666665,142.16666666666666
54,0,0.3098958333333333,142.4765625
58,0,0,142.4765625
49,0,0,142.4765625
42,0,0,142.4765625
37,0,0,142.4765625
53,49,0.0026041666666666665,142.47916666666666
58,49,0,142.47916666666666
46,49,0,142.47916666666666
41,49,0,142.47916666666666
34,49,0,142.47916666666666
53,0,1.2473958333333333,143.7265625
58,0,0,143.7265625
46,0,0,143.7265625
41,0,0,143.7265625
34,0,0,143.7265625
54,49,0.0026041666666666665,143.72916666666666
61,49,0,143.72916666666666
49,49,0,143.72916666666666
42,49,0,143.72916666666666
37,49,0,143.72916666666666
61,0,0.9348958333333333,144.6640625
60,49,0.0026041666666666665,144.66666666666666
61,49,0.078125,144.74479166666666
61,0,0.23177083333333331,144.9765625
54,0,0,144.9765625
60,0,0,144.9765625
49,0,0,144.9765625
42,0,0,144.9765625
37,0,0,144.9765625
53,49,0.0026041666666666665,144.97916666666666
60,49,0,144.97916666666666
46,49,0,144.97916666666666
41,49,0,144.97916666666666
34,49,0,144.97916666666666
60,0,0.9348958333333333,145.9140625
58,49,0.0026041666666666665,145.91666666666666
53,0,0.3098958333333333,146.2265625
58,0,0,146.2265625
46,0,0,146.2265625
41,0,0,146.2265625
34,0,0,146.2265625
54,49,0.0026041666666666665,146.22916666666666
58,49,0,146.22916666666666
49,49,0,146.22916666666666
42,49,0,146.22916666666666
37,49,0,146.22916666666666
58,0,0.9348958333333333,147.1640625
58,49,0.0026041666666666665,147.16666666666666
54,0,0.3098958333333333,147.4765625
58,0,0,147.4765625
49,0,0,147.4765625
42,0,0,147.4765625
37,0,0,147.4765625
53,49,0.0026041666666666665,147.47916666666666
58,49,0,147.47916666666666
46,49,0,147.47916666666666
41,49,0,147.47916666666666
34,49,0,147.47916666666666
53,0,1.2473958333333333,148.7265625
58,0,0,148.7265625
46,0,0,148.7265625
41,0,0,148.7265625
34,0,0,148.7265625
44,49,0.0026041666666666665,148.72916666666666
32,49,0,148.72916666666666
44,0,1.2473958333333333,149.9765625
32,0,0,149.9765625
77,33,0.0026041666666666665,149.97916666666666
37,33,0,149.97916666666666
37,0,0.6223958333333333,150.6015625
44,33,0.0026041666666666665,150.60416666666666
44,0,0.6223958333333333,151.2265625
53,33,0.0026041666666666665,151.22916666666666
53,0,0.6223958333333333,151.8515625
61,33,0.0026041666666666665,151.85416666666666
77,0,0.6223958333333333,152.4765625
61,0,0,152.4765625
78,33,0.0026041666666666665,152.47916666666666
37,33,0,152.47916666666666
78,0,0.6223958333333333,153.1015625
37,0,0,153.1015625
77,33,0.0026041666666666665,153.10416666666666
44,33,0,153.10416666666666
77,0,0.6223958333333333,153.7265625
44,0,0,153.7265625
75,33,0.0026041666666666665,153.72916666666666
53,33,0,153.72916666666666
75,0,0.6223958333333333,154.3515625
53,0,0,154.3515625
73,33,0.0026041666666666665,154.35416666666666
61,33,0,154.35416666666666
73,0,0.6223958333333333,154.9765625
61,0,0,154.9765625
72,33,0.0026041666666666665,154.97916666666666
39,33,0,154.97916666666666
39,0,0.6223958333333333,155.6015625
44,33,0.0026041666666666665,155.60416666666666
72,0,0.6223958333333333,156.2265625
44,0,0,156.2265625
82,33,0.0026041666666666665,156.22916666666666
54,33,0,156.22916666666666
54,0,0.6223958333333333,156.8515625
60,33,0.0026041666666666665,156.85416666666666
82,0,0.6223958333333333,157.4765625
60,0,0,157.4765625
80,33,0.0026041666666666665,157.47916666666666
39,33,0,157.47916666666666
39,0,0.6223958333333333,158.1015625
44,33,0.0026041666666666665,158.10416666666666
44,0,0.6223958333333333,158.7265625
54,33,0.0026041666666666665,158.72916666666666
54,0,0.6223958333333333,159.3515625
60,33,0.0026041666666666665,159.35416666666666
80,0,0.6223958333333333,159.9765625
60,0,0,159.9765625
78,33,0.0026041666666666665,159.97916666666666
32,33,0,159.97916666666666
32,0,0.6223958333333333,160.6015625
44,33,0.0026041666666666665,160.60416666666666
44,0,0.6223958333333333,161.2265625
54,33,0.0026041666666666665,161.22916666666666
54,0,0.6223958333333333,161.8515625
60,33,0.0026041666666666665,161.85416666666666
78,0,0.6223958333333333,162.4765625
60,0,0,162.4765625
80,33,0.0026041666666666665,162.47916666666666
32,33,0,162.47916666666666
80,0,0.6223958333333333,163.1015625
32,0,0,163.1015625
78,33,0.0026041666666666665,163.10416666666666
44,33,0,163.10416666666666
78,0,0.6223958333333333,163.7265625
44,0,0,163.7265625
77,33,0.0026041666666666665,163.72916666666666
54,33,0,163.72916666666666
77,0,0.6223958333333333,164.3515625
54,0,0,164.3515625
75,33,0.0026041666666666665,164.35416666666666
60,33,0,164.35416666666666
75,0,0.6223958333333333,164.9765625
60,0,0,164.9765625
73,33,0.0026041666666666665,164.97916666666666
37,33,0,164.97916666666666
37,0,0.6223958333333333,165.6015625
44,33,0.0026041666666666665,165.60416666666666
73,0,0.6223958333333333,166.2265625
44,0,0,166.2265625
85,33,0.0026041666666666665,166.22916666666666
53,33,0,166.22916666666666
53,0,0.6223958333333333,166.8515625
61,33,0.0026041666666666665,166.85416666666666
85,0,0.6223958333333333,167.4765625
61,0,0,167.4765625
80,33,0.0026041666666666665,167.47916666666666
37,33,0,167.47916666666666
37,0,0.6223958333333333,168.1015625
44,33,0.0026041666666666665,168.10416666666666
44,0,0.6223958333333333,168.7265625
53,33,0.0026041666666666665,168.72916666666666
53,0,0.6223958333333333,169.3515625
61,33,0.0026041666666666665,169.35416666666666
80,0,0.6223958333333333,169.9765625
61,0,0,169.9765625
77,33,0.0026041666666666665,169.97916666666666
37,33,0,169.97916666666666
37,0,0.6223958333333333,170.6015625
44,33,0.0026041666666666665,170.60416666666666
44,0,0.6223958333333333,171.2265625
53,33,0.0026041666666666665,171.22916666666666
53,0,0.6223958333333333,171.8515625
61,33,0.0026041666666666665,171.85416666666666
77,0,0.6223958333333333,172.4765625
61,0,0,172.4765625
78,33,0.0026041666666666665,172.47916666666666
34,33,0,172.47916666666666
78,0,0.6223958333333333,173.1015625
34,0,0,173.1015625
77,33,0.0026041666666666665,173.10416666666666
46,33,0,173.10416666666666
77,0,0.6223958333333333,173.7265625
46,0,0,173.7265625
75,33,0.0026041666666666665,173.72916666666666
56,33,0,173.72916666666666
75,0,0.6223958333333333,174.3515625
56,0,0,174.3515625
74,33,0.0026041666666666665,174.35416666666666
62,33,0,174.35416666666666
74,0,0.6223958333333333,174.9765625
62,0,0,174.9765625
75,33,0.0026041666666666665,174.97916666666666
39,33,0,174.97916666666666
75,0,0.6223958333333333,175.6015625
39,0,0,175.6015625
74,33,0.0026041666666666665,175.60416666666666
46,33,0,175.60416666666666
74,0,0.6223958333333333,176.2265625
46,0,0,176.2265625
75,33,0.0026041666666666665,176.22916666666666
54,33,0,176.22916666666666
75,0,0.6223958333333333,176.8515625
54,0,0,176.8515625
77,33,0.0026041666666666665,176.85416666666666
63,33,0,176.85416666666666
77,0,0.6223958333333333,177.4765625
63,0,0,177.4765625
78,33,0.0026041666666666665,177.47916666666666
42,33,0,177.47916666666666
78,0,0.6223958333333333,178.1015625
42,0,0,178.1015625
70,33,0.0026041666666666665,178.10416666666666
51,33,0,178.10416666666666
70,0,0.6223958333333333,178.7265625
51,0,0,178.7265625
77,33,0.0026041666666666665,178.72916666666666
58,33,0,178.72916666666666
77,0,0.6223958333333333,179.3515625
58,0,0,179.3515625
75,33,0.0026041666666666665,179.35416666666666
75,33,0,179.35416666666666
63,33,0,179.35416666666666
75,0,0.6223958333333333,179.9765625
75,0,0,179.9765625
63,0,0,179.9765625
73,33,0.0026041666666666665,179.97916666666666
43,33,0,179.97916666666666
43,0,0.6223958333333333,180.6015625
52,33,0.0026041666666666665,180.60416666666666
52,0,0.6223958333333333,181.2265625
61,33,0.0026041666666666665,181.22916666666666
61,0,0.6223958333333333,181.8515625
70,33,0.0026041666666666665,181.85416666666666
73,0,0.6223958333333333,182.4765625
70,0,0,182.4765625
82,33,0.0026041666666666665,182.47916666666666
44,33,0,182.47916666666666
82,0,0.6223958333333333,183.1015625
44,0,0,183.1015625
80,33,0.0026041666666666665,183.10416666666666
51,33,0,183.10416666666666
80,0,0.6223958333333333,183.7265625
51,0,0,183.7265625
78,33,0.0026041666666666665,183.72916666666666
60,33,0,183.72916666666666
78,0,0.6223958333333333,184.3515625
60,0,0,184.3515625
68,33,0.0026041666666666665,184.35416666666666
66,33,0,184.35416666666666
68,0,0.6223958333333333,184.9765625
66,0,0,184.9765625
75,33,0.0026041666666666665,184.97916666666666
32,33,0,184.97916666666666
32,0,0.6223958333333333,185.6015625
44,33,0.0026041666666666665,185.60416666666666
44,0,0.6223958333333333,186.2265625
54,33,0.0026041666666666665,186.22916666666666
54,0,0.6223958333333333,186.8515625
60,33,0.0026041666666666665,186.85416666666666
75,0,0.6223958333333333,187.4765625
60,0,0,187.4765625
73,33,0.0026041666666666665,187.47916666666666
37,33,0,187.47916666666666
37,0,0.6223958333333333,188.1015625
44,33,0.0026041666666666665,188.10416666666666
73,0,0.6223958333333333,188.7265625
44,0,0,188.7265625
53,33,0.0026041666666666665,188.72916666666666
53,0,0.6223958333333333,189.3515625
61,33,0.0026041666666666665,189.35416666666666
61,0,0.6223958333333333,189.9765625
77,33,0.0026041666666666665,189.97916666666666
37,33,0,189.97916666666666
37,0,0.6223958333333333,190.6015625
44,33,0.0026041666666666665,190.60416666666666
44,0,0.6223958333333333,191.2265625
53,33,0.0026041666666666665,191.22916666666666
53,0,0.6223958333333333,191.8515625
61,33,0.0026041666666666665,191.85416666666666
77,0,0.6223958333333333,192.4765625
61,0,0,192.4765625
78,33,0.0026041666666666665,192.47916666666666
37,33,0,192.47916666666666
78,0,0.6223958333333333,193.1015625
37,0,0,193.1015625
77,33,0.0026041666666666665,193.10416666666666
44,33,0,193.10416666666666
77,0,0.6223958333333333,193.7265625
44,0,0,193.7265625
75,33,0.0026041666666666665,193.72916666666666
53,33,0,193.72916666666666
75,0,0.6223958333333333,194.3515625
53,0,0,194.3515625
73,33,0.0026041666666666665,194.35416666666666
61,33,0,194.35416666666666
73,0,0.6223958333333333,194.9765625
61,0,0,194.9765625
72,33,0.0026041666666666665,194.97916666666666
39,33,0,194.97916666666666
39,0,0.6223958333333333,195.6015625
44,33,0.0026041666666666665,195.60416666666666
72,0,0.6223958333333333,196.2265625
44,0,0,196.2265625
82,33,0.0026041666666666665,196.22916666666666
54,33,0,196.22916666666666
54,0,0.6223958333333333,196.8515625
60,33,0.0026041666666666665,196.85416666666666
82,0,0.6223958333333333,197.4765625
60,0,0,197.4765625
80,33,0.0026041666666666665,197.47916666666666
39,33,0,197.47916666666666
39,0,0.6223958333333333,198.1015625
44,33,0.0026041666666666665,198.10416666666666
44,0,0.6223958333333333,198.7265625
54,33,0.0026041666666666665,198.72916666666666
54,0,0.6223958333333333,199.3515625
60,33,0.0026041666666666665,199.35416666666666
80,0,0.6223958333333333,199.9765625
60,0,0,199.9765625
78,33,0.0026041666666666665,199.97916666666666
32,33,0,199.97916666666666
32,0,0.6223958333333333,200.6015625
44,33,0.0026041666666666665,200.60416666666666
44,0,0.6223958333333333,201.2265625
54,33,0.0026041666666666665,201.22916666666666
54,0,0.6223958333333333,201.8515625
60,33,0.0026041666666666665,201.85416666666666
78,0,0.6223958333333333,202.4765625
60,0,0,202.4765625
80,33,0.0026041666666666665,202.47916666666666
32,33,0,202.47916666666666
80,0,0.6223958333333333,203.1015625
32,0,0,203.1015625
78,33,0.0026041666666666665,203.10416666666666
44,33,0,203.10416666666666
78,0,0.6223958333333333,203.7265625
44,0,0,203.7265625
77,33,0.0026041666666666665,203.72916666666666
54,33,0,203.72916666666666
77,0,0.6223958333333333,204.3515625
54,0,0,204.3515625
75,33,0.0026041666666666665,204.35416666666666
60,33,0,204.35416666666666
75,0,0.6223958333333333,204.9765625
60,0,0,204.9765625
73,33,0.0026041666666666665,204.97916666666666
37,33,0,204.97916666666666
37,0,0.6223958333333333,205.6015625
44,33,0.0026041666666666665,205.60416666666666
73,0,0.6223958333333333,206.2265625
44,0,0,206.2265625
85,33,0.0026041666666666665,206.22916666666666
53,33,0,206.22916666666666
53,0,0.6223958333333333,206.8515625
61,33,0.0026041666666666665,206.85416666666666
85,0,0.6223958333333333,207.4765625
61,0,0,207.4765625
80,33,0.0026041666666666665,207.47916666666666
37,33,0,207.47916666666666
37,0,0.6223958333333333,208.1015625
44,33,0.0026041666666666665,208.10416666666666
44,0,0.6223958333333333,208.7265625
53,33,0.0026041666666666665,208.72916666666666
53,0,0.6223958333333333,209.3515625
61,33,0.0026041666666666665,209.35416666666666
80,0,0.6223958333333333,209.9765625
61,0,0,209.9765625
77,33,0.0026041666666666665,209.97916666666666
37,33,0,209.97916666666666
37,0,0.6223958333333333,210.6015625
44,33,0.0026041666666666665,210.60416666666666
44,0,0.6223958333333333,211.2265625
53,33,0.0026041666666666665,211.22916666666666
53,0,0.6223958333333333,211.8515625
61,33,0.0026041666666666665,211.85416666666666
77,0,0.6223958333333333,212.4765625
61,0,0,212.4765625
78,33,0.0026041666666666665,212.47916666666666
34,33,0,212.47916666666666
78,0,0.6223958333333333,213.1015625
34,0,0,213.1015625
77,33,0.0026041666666666665,213.10416666666666
46,33,0,213.10416666666666
77,0,0.6223958333333333,213.7265625
46,0,0,213.7265625
75,33,0.0026041666666666665,213.72916666666666
56,33,0,213.72916666666666
75,0,0.6223958333333333,214.3515625
56,0,0,214.3515625
74,33,0.0026041666666666665,214.35416666666666
62,33,0,214.35416666666666
74,0,0.6223958333333333,214.9765625
62,0,0,214.9765625
75,33,0.0026041666666666665,214.97916666666666
39,33,0,214.97916666666666
75,0,0.6223958333333333,215.6015625
39,0,0,215.6015625
74,33,0.0026041666666666665,215.60416666666666
46,33,0,215.60416666666666
74,0,0.6223958333333333,216.2265625
46,0,0,216.2265625
75,33,0.0026041666666666665,216.22916666666666
54,33,0,216.22916666666666
75,0,0.6223958333333333,216.8515625
54,0,0,216.8515625
77,33,0.0026041666666666665,216.85416666666666
63,33,0,216.85416666666666
77,0,0.6223958333333333,217.4765625
63,0,0,217.4765625
78,33,0.0026041666666666665,217.47916666666666
42,33,0,217.47916666666666
78,0,0.6223958333333333,218.1015625
42,0,0,218.1015625
70,33,0.0026041666666666665,218.10416666666666
51,33,0,218.10416666666666
70,0,0.6223958333333333,218.7265625
51,0,0,218.7265625
77,33,0.0026041666666666665,218.72916666666666
58,33,0,218.72916666666666
77,0,0.6223958333333333,219.3515625
58,0,0,219.3515625
75,33,0.0026041666666666665,219.35416666666666
75,33,0,219.35416666666666
63,33,0,219.35416666666666
75,0,0.6223958333333333,219.9765625
75,0,0,219.9765625
63,0,0,219.9765625
73,33,0.0026041666666666665,219.97916666666666
43,33,0,219.97916666666666
43,0,0.6223958333333333,220.6015625
52,33,0.0026041666666666665,220.60416666666666
52,0,0.6223958333333333,221.2265625
61,33,0.0026041666666666665,221.22916666666666
61,0,0.6223958333333333,221.8515625
70,33,0.0026041666666666665,221.85416666666666
73,0,0.6223958333333333,222.4765625
70,0,0,222.4765625
82,33,0.0026041666666666665,222.47916666666666
44,33,0,222.47916666666666
82,0,0.6223958333333333,223.1015625
44,0,0,223.1015625
80,33,0.0026041666666666665,223.10416666666666
51,33,0,223.10416666666666
80,0,0.6223958333333333,223.7265625
51,0,0,223.7265625
78,33,0.0026041666666666665,223.72916666666666
60,33,0,223.72916666666666
78,0,0.6223958333333333,224.3515625
60,0,0,224.3515625
68,33,0.0026041666666666665,224.35416666666666
66,33,0,224.35416666666666
68,0,0.6223958333333333,224.9765625
66,0,0,224.9765625
75,33,0.0026041666666666665,224.97916666666666
32,33,0,224.97916666666666
32,0,0.6223958333333333,225.6015625
44,33,0.0026041666666666665,225.60416666666666
44,0,0.6223958333333333,226.2265625
54,33,0.0026041666666666665,226.22916666666666
54,0,0.6223958333333333,226.8515625
60,33,0.0026041666666666665,226.85416666666666
75,0,0.6223958333333333,227.4765625
60,0,0,227.4765625
73,33,0.0026041666666666665,227.47916666666666
37,33,0,227.47916666666666
37,0,0.6223958333333333,228.1015625
44,33,0.0026041666666666665,228.10416666666666
73,0,0.6223958333333333,228.7265625
44,0,0,228.7265625
53,33,0.0026041666666666665,228.72916666666666
53,0,0.6223958333333333,229.3515625
61,33,0.0026041666666666665,229.35416666666666
61,0,0.6223958333333333,229.9765625
72,33,0.0026041666666666665,229.97916666666666
32,33,0,229.97916666666666
32,0,0.6223958333333333,230.6015625
44,33,0.0026041666666666665,230.60416666666666
44,0,0.6223958333333333,231.2265625
51,33,0.0026041666666666665,231.22916666666666
51,0,0.6223958333333333,231.8515625
60,33,0.0026041666666666665,231.85416666666666
72,0,0.6223958333333333,232.4765625
60,0,0,232.4765625
73,33,0.0026041666666666665,232.47916666666666
32,33,0,232.47916666666666
73,0,0.6223958333333333,233.1015625
32,0,0,233.1015625
72,33,0.0026041666666666665,233.10416666666666
44,33,0,233.10416666666666
72,0,0.6223958333333333,233.7265625
44,0,0,233.7265625
70,33,0.0026041666666666665,233.72916666666666
51,33,0,233.72916666666666
70,0,0.6223958333333333,234.3515625
51,0,0,234.3515625
68,33,0.0026041666666666665,234.35416666666666
60,33,0,234.35416666666666
68,0,0.6223958333333333,234.9765625
60,0,0,234.9765625
67,33,0.0026041666666666665,234.97916666666666
34,33,0,234.97916666666666
34,0,0.6223958333333333,235.6015625
46,33,0.0026041666666666665,235.60416666666666
67,0,0.6223958333333333,236.2265625
46,0,0,236.2265625
77,33,0.0026041666666666665,236.22916666666666
51,33,0,236.22916666666666
51,0,0.6223958333333333,236.8515625
61,33,0.0026041666666666665,236.85416666666666
77,0,0.6223958333333333,237.4765625
61,0,0,237.4765625
75,33,0.0026041666666666665,237.47916666666666
34,33,0,237.47916666666666
34,0,0.6223958333333333,238.1015625
46,33,0.0026041666666666665,238.10416666666666
46,0,0.6223958333333333,238.7265625
51,33,0.0026041666666666665,238.72916666666666
51,0,0.6223958333333333,239.3515625
61,33,0.0026041666666666665,239.35416666666666
75,0,0.6223958333333333,239.9765625
61,0,0,239.9765625
73,33,0.0026041666666666665,239.97916666666666
34,33,0,239.97916666666666
34,0,0.6223958333333333,240.6015625
46,33,0.0026041666666666665,240.60416666666666
46,0,0.6223958333333333,241.2265625
52,33,0.0026041666666666665,241.22916666666666
52,0,0.6223958333333333,241.8515625
61,33,0.0026041666666666665,241.85416666666666
73,0,0.6223958333333333,242.4765625
61,0,0,242.4765625
75,33,0.0026041666666666665,242.47916666666666
34,33,0,242.47916666666666
75,0,0.6223958333333333,243.1015625
34,0,0,243.1015625
73,33,0.0026041666666666665,243.10416666666666
46,33,0,243.10416666666666
73,0,0.6223958333333333,243.7265625
46,0,0,243.7265625
72,33,0.0026041666666666665,243.72916666666666
52,33,0,243.72916666666666
72,0,0.6223958333333333,244.3515625
52,0,0,244.3515625
70,33,0.0026041666666666665,244.35416666666666
61,33,0,244.35416666666666
70,0,0.6223958333333333,244.9765625
61,0,0,244.9765625
69,33,0.0026041666666666665,244.97916666666666
36,33,0,244.97916666666666
36,0,0.6223958333333333,245.6015625
48,33,0.0026041666666666665,245.60416666666666
69,0,0.6223958333333333,246.2265625
48,0,0,246.2265625
78,33,0.0026041666666666665,246.22916666666666
53,33,0,246.22916666666666
53,0,0.6223958333333333,246.8515625
63,33,0.0026041666666666665,246.85416666666666
78,0,0.6223958333333333,247.4765625
63,0,0,247.4765625
77,33,0.0026041666666666665,247.47916666666666
36,33,0,247.47916666666666
36,0,0.6223958333333333,248.1015625
48,33,0.0026041666666666665,248.10416666666666
48,0,0.6223958333333333,248.7265625
53,33,0.0026041666666666665,248.72916666666666
53,0,0.6223958333333333,249.3515625
63,33,0.0026041666666666665,249.35416666666666
77,0,0.6223958333333333,249.9765625
63,0,0,249.9765625
77,33,0.0026041666666666665,249.97916666666666
37,33,0,249.97916666666666
37,0,0.6223958333333333,250.6015625
49,33,0.0026041666666666665,250.60416666666666
49,0,0.6223958333333333,251.2265625
58,33,0.0026041666666666665,251.22916666666666
58,0,0.6223958333333333,251.8515625
65,33,0.0026041666666666665,251.85416666666666
77,0,0.6223958333333333,252.4765625
65,0,0,252.4765625
78,33,0.0026041666666666665,252.47916666666666
37,33,0,252.47916666666666
78,0,0.6223958333333333,253.1015625
37,0,0,253.1015625
77,33,0.0026041666666666665,253.10416666666666
49,33,0,253.10416666666666
77,0,0.6223958333333333,253.7265625
49,0,0,253.7265625
75,33,0.0026041666666666665,253.72916666666666
58,33,0,253.72916666666666
75,0,0.6223958333333333,254.3515625
58,0,0,254.3515625
73,33,0.0026041666666666665,254.35416666666666
65,33,0,254.35416666666666
73,0,0.6223958333333333,254.9765625
65,0,0,254.9765625
73,33,0.0026041666666666665,254.97916666666666
39,33,0,254.97916666666666
39,0,0.6223958333333333,255.6015625
51,33,0.0026041666666666665,255.60416666666666
73,0,0.6223958333333333,256.2265625
51,0,0,256.2265625
72,33,0.0026041666666666665,256.2291666666667
58,33,0,256.2291666666667
58,0,0.6223958333333333,256.8515625
66,33,0.0026041666666666665,256.8541666666667
72,0,0.6223958333333333,257.4765625
66,0,0,257.4765625
41,33,0.0026041666666666665,257.4791666666667
41,0,0.6223958333333333,258.1015625
72,33,0.0026041666666666665,258.1041666666667
53,33,0,258.1041666666667
75,33,0.390625,258.4947916666667
75,0,0.23177083333333331,258.7265625
72,0,0,258.7265625
53,0,0,258.7265625
73,33,0.0026041666666666665,258.7291666666667
58,33,0,258.7291666666667
58,0,0.6223958333333333,259.3515625
65,33,0.0026041666666666665,259.3541666666667
73,0,0.3098958333333333,259.6640625
72,33,0.0026041666666666665,259.6666666666667
72,0,0.3098958333333333,259.9765625
65,0,0,259.9765625
72,96,0.0026041666666666665,259.9791666666667
42,96,0,259.9791666666667
42,0,0.6223958333333333,260.6015625
54,96,0.0026041666666666665,260.6041666666667
72,0,0.6223958333333333,261.2265625
54,0,0,261.2265625
70,96,0.0026041666666666665,261.2291666666667
58,96,0,261.2291666666667
58,0,0.6223958333333333,261.8515625
63,96,0.0026041666666666665,261.8541666666667
70,0,0.6223958333333333,262.4765625
63,0,0,262.4765625
42,96,0.0026041666666666665,262.4791666666667
42,0,0.6223958333333333,263.1015625
72,96,0.0026041666666666665,263.1041666666667
54,96,0,263.1041666666667
75,96,0.390625,263.4947916666667
75,0,0.23177083333333331,263.7265625
72,0,0,263.7265625
54,0,0,263.7265625
73,96,0.0026041666666666665,263.7291666666667
58,96,0,263.7291666666667
58,0,0.6223958333333333,264.3515625
64,96,0.0026041666666666665,264.3541666666667
73,0,0.3098958333333333,264.6640625
72,96,0.0026041666666666665,264.6666666666667
72,0,0.3098958333333333,264.9765625
64,0,0,264.9765625
72,96,0.0026041666666666665,264.9791666666667
41,96,0,264.9791666666667
41,0,0.6223958333333333,265.6015625
48,96,0.0026041666666666665,265.6041666666667
72,0,0.6223958333333333,266.2265625
48,0,0,266.2265625
77,96,0.0026041666666666665,266.2291666666667
57,96,0,266.2291666666667
57,0,0.6223958333333333,266.8515625
65,96,0.0026041666666666665,266.8541666666667
77,0,0.6223958333333333,267.4765625
65,0,0,267.4765625
78,96,0.0026041666666666665,267.4791666666667
39,96,0,267.4791666666667
39,0,0.6223958333333333,268.1015625
51,96,0.0026041666666666665,268.1041666666667
78,0,0.6223958333333333,268.7265625
51,0,0,268.7265625
68,96,0.0026041666666666665,268.7291666666667
56,96,0,268.7291666666667
56,0,0.6223958333333333,269.3515625
66,96,0.0026041666666666665,269.3541666666667
60,96,0,269.3541666666667
68,0,0.6223958333333333,269.9765625
66,0,0,269.9765625
60,0,0,269.9765625
77,33,0.0026041666666666665,269.9791666666667
37,33,0,269.9791666666667
37,0,0.6223958333333333,270.6015625
44,33,0.0026041666666666665,270.6041666666667
44,0,0.6223958333333333,271.2265625
53,33,0.0026041666666666665,271.2291666666667
53,0,0.6223958333333333,271.8515625
61,33,0.0026041666666666665,271.8541666666667
77,0,0.6223958333333333,272.4765625
61,0,0,272.4765625
78,33,0.0026041666666666665,272.4791666666667
37,33,0,272.4791666666667
78,0,0.6223958333333333,273.1015625
37,0,0,273.1015625
77,33,0.0026041666666666665,273.1041666666667
44,33,0,273.1041666666667
77,0,0.6223958333333333,273.7265625
44,0,0,273.7265625
75,33,0.0026041666666666665,273.7291666666667
53,33,0,273.7291666666667
75,0,0.6223958333333333,274.3515625
53,0,0,274.3515625
73,33,0.0026041666666666665,274.3541666666667
61,33,0,274.3541666666667
73,0,0.6223958333333333,274.9765625
61,0,0,274.9765625
72,33,0.0026041666666666665,274.9791666666667
39,33,0,274.9791666666667
39,0,0.6223958333333333,275.6015625
44,33,0.0026041666666666665,275.6041666666667
72,0,0.6223958333333333,276.2265625
44,0,0,276.2265625
82,33,0.0026041666666666665,276.2291666666667
54,33,0,276.2291666666667
54,0,0.6223958333333333,276.8515625
60,33,0.0026041666666666665,276.8541666666667
82,0,0.6223958333333333,277.4765625
60,0,0,277.4765625
80,33,0.0026041666666666665,277.4791666666667
39,33,0,277.4791666666667
39,0,0.6223958333333333,278.1015625
44,33,0.0026041666666666665,278.1041666666667
44,0,0.6223958333333333,278.7265625
54,33,0.0026041666666666665,278.7291666666667
54,0,0.6223958333333333,279.3515625
60,33,0.0026041666666666665,279.3541666666667
80,0,0.6223958333333333,279.9765625
60,0,0,279.9765625
78,33,0.0026041666666666665,279.9791666666667
32,33,0,279.9791666666667
32,0,0.6223958333333333,280.6015625
44,33,0.0026041666666666665,280.6041666666667
44,0,0.6223958333333333,281.2265625
54,33,0.0026041666666666665,281.2291666666667
54,0,0.6223958333333333,281.8515625
60,33,0.0026041666666666665,281.8541666666667
78,0,0.6223958333333333,282.4765625
60,0,0,282.4765625
80,33,0.0026041666666666665,282.4791666666667
32,33,0,282.4791666666667
80,0,0.6223958333333333,283.1015625
32,0,0,283.1015625
78,33,0.0026041666666666665,283.1041666666667
44,33,0,283.1041666666667
78,0,0.6223958333333333,283.7265625
44,0,0,283.7265625
77,33,0.0026041666666666665,283.7291666666667
54,33,0,283.7291666666667
77,0,0.6223958333333333,284.3515625
54,0,0,284.3515625
75,33,0.0026041666666666665,284.3541666666667
60,33,0,284.3541666666667
75,0,0.6223958333333333,284.9765625
60,0,0,284.9765625
73,33,0.0026041666666666665,284.9791666666667
37,33,0,284.9791666666667
37,0,0.6223958333333333,285.6015625
44,33,0.0026041666666666665,285.6041666666667
73,0,0.6223958333333333,286.2265625
44,0,0,286.2265625
85,33,0.0026041666666666665,286.2291666666667
53,33,0,286.2291666666667
53,0,0.6223958333333333,286.8515625
61,33,0.0026041666666666665,286.8541666666667
85,0,0.6223958333333333,287.4765625
61,0,0,287.4765625
80,33,0.0026041666666666665,287.4791666666667
37,33,0,287.4791666666667
37,0,0.6223958333333333,288.1015625
44,33,0.0026041666666666665,288.1041666666667
44,0,0.6223958333333333,288.7265625
53,33,0.0026041666666666665,288.7291666666667
53,0,0.6223958333333333,289.3515625
61,33,0.0026041666666666665,289.3541666666667
80,0,0.6223958333333333,289.9765625
61,0,0,289.9765625
77,33,0.0026041666666666665,289.9791666666667
37,33,0,289.9791666666667
37,0,0.6223958333333333,290.6015625
44,33,0.0026041666666666665,290.6041666666667
44,0,0.6223958333333333,291.2265625
53,33,0.0026041666666666665,291.2291666666667
53,0,0.6223958333333333,291.8515625
61,33,0.0026041666666666665,291.8541666666667
77,0,0.6223958333333333,292.4765625
61,0,0,292.4765625
78,33,0.0026041666666666665,292.4791666666667
34,33,0,292.4791666666667
78,0,0.6223958333333333,293.1015625
34,0,0,293.1015625
77,33,0.0026041666666666665,293.1041666666667
46,33,0,293.1041666666667
77,0,0.6223958333333333,293.7265625
46,0,0,293.7265625
75,33,0.0026041666666666665,293.7291666666667
56,33,0,293.7291666666667
75,0,0.6223958333333333,294.3515625
56,0,0,294.3515625
74,33,0.0026041666666666665,294.3541666666667
62,33,0,294.3541666666667
74,0,0.6223958333333333,294.9765625
62,0,0,294.9765625
75,33,0.0026041666666666665,294.9791666666667
39,33,0,294.9791666666667
75,0,0.6223958333333333,295.6015625
39,0,0,295.6015625
74,33,0.0026041666666666665,295.6041666666667
46,33,0,295.6041666666667
74,0,0.6223958333333333,296.2265625
46,0,0,296.2265625
75,33,0.0026041666666666665,296.2291666666667
54,33,0,296.2291666666667
75,0,0.6223958333333333,296.8515625
54,0,0,296.8515625
77,33,0.0026041666666666665,296.8541666666667
63,33,0,296.8541666666667
77,0,0.6223958333333333,297.4765625
63,0,0,297.4765625
78,33,0.0026041666666666665,297.4791666666667
42,33,0,297.4791666666667
78,0,0.6223958333333333,298.1015625
42,0,0,298.1015625
70,33,0.0026041666666666665,298.1041666666667
51,33,0,298.1041666666667
70,0,0.6223958333333333,298.7265625
51,0,0,298.7265625
77,33,0.0026041666666666665,298.7291666666667
58,33,0,298.7291666666667
77,0,0.6223958333333333,299.3515625
58,0,0,299.3515625
75,33,0.0026041666666666665,299.3541666666667
75,33,0,299.3541666666667
63,33,0,299.3541666666667
75,0,0.6223958333333333,299.9765625
75,0,0,299.9765625
63,0,0,299.9765625
73,33,0.0026041666666666665,299.9791666666667
43,33,0,299.9791666666667
43,0,0.6223958333333333,300.6015625
52,33,0.0026041666666666665,300.6041666666667
52,0,0.6223958333333333,301.2265625
61,33,0.0026041666666666665,301.2291666666667
61,0,0.6223958333333333,301.8515625
70,33,0.0026041666666666665,301.8541666666667
73,0,0.6223958333333333,302.4765625
70,0,0,302.4765625
82,33,0.0026041666666666665,302.4791666666667
44,33,0,302.4791666666667
82,0,0.6223958333333333,303.1015625
44,0,0,303.1015625
80,33,0.0026041666666666665,303.1041666666667
51,33,0,303.1041666666667
80,0,0.6223958333333333,303.7265625
51,0,0,303.7265625
78,33,0.0026041666666666665,303.7291666666667
60,33,0,303.7291666666667
78,0,0.6223958333333333,304.3515625
60,0,0,304.3515625
68,33,0.0026041666666666665,304.3541666666667
66,33,0,304.3541666666667
68,0,0.6223958333333333,304.9765625
66,0,0,304.9765625
75,33,0.0026041666666666665,304.9791666666667
32,33,0,304.9791666666667
32,0,0.6223958333333333,305.6015625
44,33,0.0026041666666666665,305.6041666666667
44,0,0.6223958333333333,306.2265625
54,33,0.0026041666666666665,306.2291666666667
54,0,0.6223958333333333,306.8515625
60,33,0.0026041666666666665,306.8541666666667
75,0,0.6223958333333333,307.4765625
60,0,0,307.4765625
73,33,0.0026041666666666665,307.4791666666667
37,33,0,307.4791666666667
37,0,0.6223958333333333,308.1015625
44,33,0.0026041666666666665,308.1041666666667
73,0,0.6223958333333333,308.7265625
44,0,0,308.7265625
53,33,0.0026041666666666665,308.7291666666667
53,0,0.6223958333333333,309.3515625
61,33,0.0026041666666666665,309.3541666666667
61,0,0.6223958333333333,309.9765625
72,33,0.0026041666666666665,309.9791666666667
32,33,0,309.9791666666667
32,0,0.6223958333333333,310.6015625
44,33,0.0026041666666666665,310.6041666666667
44,0,0.6223958333333333,311.2265625
51,33,0.0026041666666666665,311.2291666666667
51,0,0.6223958333333333,311.8515625
60,33,0.0026041666666666665,311.8541666666667
72,0,0.6223958333333333,312.4765625
60,0,0,312.4765625
73,33,0.0026041666666666665,312.4791666666667
32,33,0,312.4791666666667
73,0,0.6223958333333333,313.1015625
32,0,0,313.1015625
72,33,0.0026041666666666665,313.1041666666667
44,33,0,313.1041666666667
72,0,0.6223958333333333,313.7265625
44,0,0,313.7265625
70,33,0.0026041666666666665,313.7291666666667
51,33,0,313.7291666666667
70,0,0.6223958333333333,314.3515625
51,0,0,314.3515625
68,33,0.0026041666666666665,314.3541666666667
60,33,0,314.3541666666667
68,0,0.6223958333333333,314.9765625
60,0,0,314.9765625
67,33,0.0026041666666666665,314.9791666666667
34,33,0,314.9791666666667
34,0,0.6223958333333333,315.6015625
46,33,0.0026041666666666665,315.6041666666667
67,0,0.6223958333333333,316.2265625
46,0,0,316.2265625
77,33,0.0026041666666666665,316.2291666666667
51,33,0,316.2291666666667
51,0,0.6223958333333333,316.8515625
61,33,0.0026041666666666665,316.8541666666667
77,0,0.6223958333333333,317.4765625
61,0,0,317.4765625
75,33,0.0026041666666666665,317.4791666666667
34,33,0,317.4791666666667
34,0,0.6223958333333333,318.1015625
46,33,0.0026041666666666665,318.1041666666667
46,0,0.6223958333333333,318.7265625
51,33,0.0026041666666666665,318.7291666666667
51,0,0.6223958333333333,319.3515625
61,33,0.0026041666666666665,319.3541666666667
75,0,0.6223958333333333,319.9765625
61,0,0,319.9765625
73,33,0.0026041666666666665,319.9791666666667
34,33,0,319.9791666666667
34,0,0.6223958333333333,320.6015625
46,33,0.0026041666666666665,320.6041666666667
46,0,0.6223958333333333,321.2265625
52,33,0.0026041666666666665,321.2291666666667
52,0,0.6223958333333333,321.8515625
61,33,0.0026041666666666665,321.8541666666667
73,0,0.6223958333333333,322.4765625
61,0,0,322.4765625
75,33,0.0026041666666666665,322.4791666666667
34,33,0,322.4791666666667
75,0,0.6223958333333333,323.1015625
34,0,0,323.1015625
73,33,0.0026041666666666665,323.1041666666667
46,33,0,323.1041666666667
73,0,0.6223958333333333,323.7265625
46,0,0,323.7265625
72,33,0.0026041666666666665,323.7291666666667
52,33,0,323.7291666666667
72,0,0.6223958333333333,324.3515625
52,0,0,324.3515625
70,33,0.0026041666666666665,324.3541666666667
61,33,0,324.3541666666667
70,0,0.6223958333333333,324.9765625
61,0,0,324.9765625
69,33,0.0026041666666666665,324.9791666666667
36,33,0,324.9791666666667
36,0,0.6223958333333333,325.6015625
48,33,0.0026041666666666665,325.6041666666667
69,0,0.6223958333333333,326.2265625
48,0,0,326.2265625
78,33,0.0026041666666666665,326.2291666666667
53,33,0,326.2291666666667
53,0,0.6223958333333333,326.8515625
63,33,0.0026041666666666665,326.8541666666667
78,0,0.6223958333333333,327.4765625
63,0,0,327.4765625
77,33,0.0026041666666666665,327.4791666666667
36,33,0,327.4791666666667
36,0,0.6223958333333333,328.1015625
48,33,0.0026041666666666665,328.1041666666667
48,0,0.6223958333333333,328.7265625
53,33,0.0026041666666666665,328.7291666666667
53,0,0.6223958333333333,329.3515625
63,33,0.0026041666666666665,329.3541666666667
77,0,0.6223958333333333,329.9765625
63,0,0,329.9765625
77,33,0.0026041666666666665,329.9791666666667
37,33,0,329.9791666666667
37,0,0.6223958333333333,330.6015625
49,33,0.0026041666666666665,330.6041666666667
49,0,0.6223958333333333,331.2265625
58,33,0.0026041666666666665,331.2291666666667
58,0,0.6223958333333333,331.8515625
65,33,0.0026041666666666665,331.8541666666667
77,0,0.6223958333333333,332.4765625
65,0,0,332.4765625
78,33,0.0026041666666666665,332.4791666666667
37,33,0,332.4791666666667
78,0,0.6223958333333333,333.1015625
37,0,0,333.1015625
77,33,0.0026041666666666665,333.1041666666667
49,33,0,333.1041666666667
77,0,0.6223958333333333,333.7265625
49,0,0,333.7265625
75,33,0.0026041666666666665,333.7291666666667
58,33,0,333.7291666666667
75,0,0.6223958333333333,334.3515625
58,0,0,334.3515625
73,33,0.0026041666666666665,334.3541666666667
65,33,0,334.3541666666667
73,0,0.6223958333333333,334.9765625
65,0,0,334.9765625
73,33,0.0026041666666666665,334.9791666666667
39,33,0,334.9791666666667
39,0,0.6223958333333333,335.6015625
51,33,0.0026041666666666665,335.6041666666667
73,0,0.6223958333333333,336.2265625
51,0,0,336.2265625
72,33,0.0026041666666666665,336.2291666666667
58,33,0,336.2291666666667
58,0,0.6223958333333333,336.8515625
66,33,0.0026041666666666665,336.8541666666667
72,0,0.6223958333333333,337.4765625
66,0,0,337.4765625
41,33,0.0026041666666666665,337.4791666666667
41,0,0.6223958333333333,338.1015625
72,33,0.0026041666666666665,338.1041666666667
53,33,0,338.1041666666667
75,33,0.390625,338.4947916666667
75,0,0.23177083333333331,338.7265625
72,0,0,338.7265625
53,0,0,338.7265625
73,33,0.0026041666666666665,338.7291666666667
58,33,0,338.7291666666667
58,0,0.6223958333333333,339.3515625
65,33,0.0026041666666666665,339.3541666666667
73,0,0.3098958333333333,339.6640625
72,33,0.0026041666666666665,339.6666666666667
72,0,0.3098958333333333,339.9765625
65,0,0,339.9765625
72,96,0.0026041666666666665,339.9791666666667
42,96,0,339.9791666666667
42,0,0.6223958333333333,340.6015625
54,96,0.0026041666666666665,340.6041666666667
72,0,0.6223958333333333,341.2265625
54,0,0,341.2265625
70,96,0.0026041666666666665,341.2291666666667
58,96,0,341.2291666666667
58,0,0.6223958333333333,341.8515625
63,96,0.0026041666666666665,341.8541666666667
70,0,0.6223958333333333,342.4765625
63,0,0,342.4765625
42,96,0.0026041666666666665,342.4791666666667
42,0,0.6223958333333333,343.1015625
72,96,0.0026041666666666665,343.1041666666667
54,96,0,343.1041666666667
75,96,0.390625,343.4947916666667
75,0,0.23177083333333331,343.7265625
72,0,0,343.7265625
54,0,0,343.7265625
73,96,0.0026041666666666665,343.7291666666667
58,96,0,343.7291666666667
58,0,0.6223958333333333,344.3515625
64,96,0.0026041666666666665,344.3541666666667
73,0,0.3098958333333333,344.6640625
72,96,0.0026041666666666665,344.6666666666667
72,0,0.3098958333333333,344.9765625
64,0,0,344.9765625
72,96,0.0026041666666666665,344.9791666666667
41,96,0,344.9791666666667
41,0,0.6223958333333333,345.6015625
48,96,0.0026041666666666665,345.6041666666667
72,0,0.6223958333333333,346.2265625
48,0,0,346.2265625
77,96,0.0026041666666666665,346.2291666666667
57,96,0,346.2291666666667
57,0,0.6223958333333333,346.8515625
65,96,0.0026041666666666665,346.8541666666667
77,0,0.6223958333333333,347.4765625
65,0,0,347.4765625
78,96,0.0026041666666666665,347.4791666666667
39,96,0,347.4791666666667
39,0,0.6223958333333333,348.1015625
51,96,0.0026041666666666665,348.1041666666667
78,0,0.6223958333333333,348.7265625
51,0,0,348.7265625
68,96,0.0026041666666666665,348.7291666666667
56,96,0,348.7291666666667
56,0,0.6223958333333333,349.3515625
66,96,0.0026041666666666665,349.3541666666667
60,96,0,349.3541666666667
68,0,0.6223958333333333,349.9765625
66,0,0,349.9765625
60,0,0,349.9765625
77,33,0.0026041666666666665,349.9791666666667
37,33,0,349.9791666666667
37,0,0.6223958333333333,350.6015625
44,33,0.0026041666666666665,350.6041666666667
44,0,0.6223958333333333,351.2265625
53,33,0.0026041666666666665,351.2291666666667
53,0,0.6223958333333333,351.8515625
61,33,0.0026041666666666665,351.8541666666667
77,0,0.6223958333333333,352.4765625
61,0,0,352.4765625
78,33,0.0026041666666666665,352.4791666666667
37,33,0,352.4791666666667
78,0,0.6223958333333333,353.1015625
37,0,0,353.1015625
77,33,0.0026041666666666665,353.1041666666667
44,33,0,353.1041666666667
77,0,0.6223958333333333,353.7265625
44,0,0,353.7265625
75,33,0.0026041666666666665,353.7291666666667
53,33,0,353.7291666666667
75,0,0.6223958333333333,354.3515625
53,0,0,354.3515625
73,33,0.0026041666666666665,354.3541666666667
61,33,0,354.3541666666667
73,0,0.6223958333333333,354.9765625
61,0,0,354.9765625
72,33,0.0026041666666666665,354.9791666666667
39,33,0,354.9791666666667
39,0,0.6223958333333333,355.6015625
44,33,0.0026041666666666665,355.6041666666667
72,0,0.6223958333333333,356.2265625
44,0,0,356.2265625
82,33,0.0026041666666666665,356.2291666666667
54,33,0,356.2291666666667
54,0,0.6223958333333333,356.8515625
60,33,0.0026041666666666665,356.8541666666667
82,0,0.6223958333333333,357.4765625
60,0,0,357.4765625
80,33,0.0026041666666666665,357.4791666666667
39,33,0,357.4791666666667
39,0,0.6223958333333333,358.1015625
44,33,0.0026041666666666665,358.1041666666667
44,0,0.6223958333333333,358.7265625
54,33,0.0026041666666666665,358.7291666666667
54,0,0.6223958333333333,359.3515625
60,33,0.0026041666666666665,359.3541666666667
80,0,0.6223958333333333,359.9765625
60,0,0,359.9765625
78,33,0.0026041666666666665,359.9791666666667
32,33,0,359.9791666666667
32,0,0.6223958333333333,360.6015625
44,33,0.0026041666666666665,360.6041666666667
44,0,0.6223958333333333,361.2265625
54,33,0.0026041666666666665,361.2291666666667
54,0,0.6223958333333333,361.8515625
60,33,0.0026041666666666665,361.8541666666667
78,0,0.6223958333333333,362.4765625
60,0,0,362.4765625
80,33,0.0026041666666666665,362.4791666666667
32,33,0,362.4791666666667
80,0,0.6223958333333333,363.1015625
32,0,0,363.1015625
78,33,0.0026041666666666665,363.1041666666667
44,33,0,363.1041666666667
78,0,0.6223958333333333,363.7265625
44,0,0,363.7265625
77,33,0.0026041666666666665,363.7291666666667
54,33,0,363.7291666666667
77,0,0.6223958333333333,364.3515625
54,0,0,364.3515625
75,33,0.0026041666666666665,364.3541666666667
60,33,0,364.3541666666667
75,0,0.6223958333333333,364.9765625
60,0,0,364.9765625
73,33,0.0026041666666666665,364.9791666666667
37,33,0,364.9791666666667
37,0,0.6223958333333333,365.6015625
44,33,0.0026041666666666665,365.6041666666667
73,0,0.6223958333333333,366.2265625
44,0,0,366.2265625
85,33,0.0026041666666666665,366.2291666666667
53,33,0,366.2291666666667
53,0,0.6223958333333333,366.8515625
61,33,0.0026041666666666665,366.8541666666667
85,0,0.6223958333333333,367.4765625
61,0,0,367.4765625
80,33,0.0026041666666666665,367.4791666666667
37,33,0,367.4791666666667
37,0,0.6223958333333333,368.1015625
44,33,0.0026041666666666665,368.1041666666667
44,0,0.6223958333333333,368.7265625
53,33,0.0026041666666666665,368.7291666666667
53,0,0.6223958333333333,369.3515625
61,33,0.0026041666666666665,369.3541666666667
80,0,0.6223958333333333,369.9765625
61,0,0,369.9765625
77,33,0.0026041666666666665,369.9791666666667
37,33,0,369.9791666666667
37,0,0.6223958333333333,370.6015625
44,33,0.0026041666666666665,370.6041666666667
44,0,0.6223958333333333,371.2265625
53,33,0.0026041666666666665,371.2291666666667
53,0,0.6223958333333333,371.8515625
61,33,0.0026041666666666665,371.8541666666667
77,0,0.6223958333333333,372.4765625
61,0,0,372.4765625
78,33,0.0026041666666666665,372.4791666666667
34,33,0,372.4791666666667
78,0,0.6223958333333333,373.1015625
34,0,0,373.1015625
77,33,0.0026041666666666665,373.1041666666667
46,33,0,373.1041666666667
77,0,0.6223958333333333,373.7265625
46,0,0,373.7265625
75,33,0.0026041666666666665,373.7291666666667
56,33,0,373.7291666666667
75,0,0.6223958333333333,374.3515625
56,0,0,374.3515625
74,33,0.0026041666666666665,374.3541666666667
62,33,0,374.3541666666667
74,0,0.6223958333333333,374.9765625
62,0,0,374.9765625
75,33,0.0026041666666666665,374.9791666666667
39,33,0,374.9791666666667
75,0,0.6223958333333333,375.6015625
39,0,0,375.6015625
74,33,0.0026041666666666665,375.6041666666667
46,33,0,375.6041666666667
74,0,0.6223958333333333,376.2265625
46,0,0,376.2265625
75,33,0.0026041666666666665,376.2291666666667
54,33,0,376.2291666666667
75,0,0.6223958333333333,376.8515625
54,0,0,376.8515625
77,33,0.0026041666666666665,376.8541666666667
63,33,0,376.8541666666667
77,0,0.6223958333333333,377.4765625
63,0,0,377.4765625
78,33,0.0026041666666666665,377.4791666666667
42,33,0,377.4791666666667
78,0,0.6223958333333333,378.1015625
42,0,0,378.1015625
70,33,0.0026041666666666665,378.1041666666667
51,33,0,378.1041666666667
70,0,0.6223958333333333,378.7265625
51,0,0,378.7265625
77,33,0.0026041666666666665,378.7291666666667
58,33,0,378.7291666666667
77,0,0.6223958333333333,379.3515625
58,0,0,379.3515625
75,33,0.0026041666666666665,379.3541666666667
75,33,0,379.3541666666667
63,33,0,379.3541666666667
75,0,0.6223958333333333,379.9765625
75,0,0,379.9765625
63,0,0,379.9765625
73,33,0.0026041666666666665,379.9791666666667
43,33,0,379.9791666666667
43,0,0.6223958333333333,380.6015625
52,33,0.0026041666666666665,380.6041666666667
52,0,0.6223958333333333,381.2265625
61,33,0.0026041666666666665,381.2291666666667
61,0,0.6223958333333333,381.8515625
70,33,0.0026041666666666665,381.8541666666667
73,0,0.6223958333333333,382.4765625
70,0,0,382.4765625
82,33,0.0026041666666666665,382.4791666666667
44,33,0,382.4791666666667
82,0,0.6223958333333333,383.1015625
44,0,0,383.1015625
80,33,0.0026041666666666665,383.1041666666667
51,33,0,383.1041666666667
80,0,0.6223958333333333,383.7265625
51,0,0,383.7265625
78,33,0.0026041666666666665,383.7291666666667
60,33,0,383.7291666666667
78,0,0.6223958333333333,384.3515625
60,0,0,384.3515625
68,33,0.0026041666666666665,384.3541666666667
66,33,0,384.3541666666667
68,0,0.6223958333333333,384.9765625
66,0,0,384.9765625
75,33,0.0026041666666666665,384.9791666666667
32,33,0,384.9791666666667
32,0,0.6223958333333333,385.6015625
44,33,0.0026041666666666665,385.6041666666667
44,0,0.6223958333333333,386.2265625
54,33,0.0026041666666666665,386.2291666666667
54,0,0.6223958333333333,386.8515625
60,33,0.0026041666666666665,386.8541666666667
75,0,0.6223958333333333,387.4765625
60,0,0,387.4765625
73,33,0.0026041666666666665,387.4791666666667
61,33,0,387.4791666666667
53,33,0,387.4791666666667
49,33,0,387.4791666666667
73,0,1.2473958333333333,388.7265625
61,0,0,388.7265625
53,0,0,388.7265625
49,0,0,388.7265625
53,33,1.2526041666666665,389.9791666666667
58,33,0,389.9791666666667
46,33,0,389.9791666666667
41,33,0,389.9791666666667
34,33,0,389.9791666666667
53,0,1.2473958333333333,391.2265625
58,0,0,391.2265625
46,0,0,391.2265625
41,0,0,391.2265625
34,0,0,391.2265625
54,33,0.0026041666666666665,391.2291666666667
58,33,0,391.2291666666667
49,33,0,391.2291666666667
42,33,0,391.2291666666667
37,33,0,391.2291666666667
58,0,0.9348958333333333,392.1640625
58,33,0.0026041666666666665,392.1666666666667
54,0,0.3098958333333333,392.4765625
58,0,0,392.4765625
49,0,0,392.4765625
42,0,0,392.4765625
37,0,0,392.4765625
53,33,0.0026041666666666665,392.4791666666667
58,33,0,392.4791666666667
46,33,0,392.4791666666667
41,33,0,392.4791666666667
34,33,0,392.4791666666667
53,0,1.2473958333333333,393.7265625
46,0,0,393.7265625
41,0,0,393.7265625
34,0,0,393.7265625
54,33,0.0026041666666666665,393.7291666666667
49,33,0,393.7291666666667
42,33,0,393.7291666666667
37,33,0,393.7291666666667
54,0,1.2473958333333333,394.9765625
58,0,0,394.9765625
49,0,0,394.9765625
42,0,0,394.9765625
37,0,0,394.9765625
53,33,0.0026041666666666665,394.9791666666667
58,33,0,394.9791666666667
46,33,0,394.9791666666667
41,33,0,394.9791666666667
34,33,0,394.9791666666667
53,0,1.2473958333333333,396.2265625
58,0,0,396.2265625
46,0,0,396.2265625
41,0,0,396.2265625
34,0,0,396.2265625
54,33,0.0026041666666666665,396.2291666666667
58,33,0,396.2291666666667
49,33,0,396.2291666666667
42,33,0,396.2291666666667
37,33,0,396.2291666666667
58,0,0.9348958333333333,397.1640625
58,33,0.0026041666666666665,397.1666666666667
54,0,0.3098958333333333,397.4765625
58,0,0,397.4765625
49,0,0,397.4765625
42,0,0,397.4765625
37,0,0,397.4765625
53,33,0.0026041666666666665,397.4791666666667
58,33,0,397.4791666666667
46,33,0,397.4791666666667
41,33,0,397.4791666666667
34,33,0,397.4791666666667
53,0,1.2473958333333333,398.7265625
46,0,0,398.7265625
41,0,0,398.7265625
34,0,0,398.7265625
54,33,0.0026041666666666665,398.7291666666667
49,33,0,398.7291666666667
42,33,0,398.7291666666667
37,33,0,398.7291666666667
54,0,1.2473958333333333,399.9765625
58,0,0,399.9765625
49,0,0,399.9765625
42,0,0,399.9765625
37,0,0,399.9765625
53,49,0.0026041666666666665,399.9791666666667
58,49,0,399.9791666666667
46,49,0,399.9791666666667
41,49,0,399.9791666666667
34,49,0,399.9791666666667
53,0,1.2473958333333333,401.2265625
58,0,0,401.2265625
46,0,0,401.2265625
41,0,0,401.2265625
34,0,0,401.2265625
54,49,0.0026041666666666665,401.2291666666667
58,49,0,401.2291666666667
49,49,0,401.2291666666667
42,49,0,401.2291666666667
37,49,0,401.2291666666667
58,0,0.9348958333333333,402.1640625
58,49,0.0026041666666666665,402.1666666666667
54,0,0.3098958333333333,402.4765625
58,0,0,402.4765625
49,0,0,402.4765625
42,0,0,402.4765625
37,0,0,402.4765625
53,49,0.0026041666666666665,402.4791666666667
58,49,0,402.4791666666667
46,49,0,402.4791666666667
41,49,0,402.4791666666667
34,49,0,402.4791666666667
53,0,1.2473958333333333,403.7265625
58,0,0,403.7265625
46,0,0,403.7265625
41,0,0,403.7265625
34,0,0,403.7265625
54,49,0.0026041666666666665,403.7291666666667
61,49,0,403.7291666666667
49,49,0,403.7291666666667
42,49,0,403.7291666666667
37,49,0,403.7291666666667
61,0,0.9348958333333333,404.6640625
60,49,0.0026041666666666665,404.6666666666667
61,49,0.078125,404.7447916666667
61,0,0.23177083333333331,404.9765625
54,0,0,404.9765625
60,0,0,404.9765625
49,0,0,404.9765625
42,0,0,404.9765625
37,0,0,404.9765625
53,49,0.0026041666666666665,404.9791666666667
60,49,0,404.9791666666667
46,49,0,404.9791666666667
41,49,0,404.9791666666667
34,49,0,404.9791666666667
60,0,0.9348958333333333,405.9140625
58,49,0.0026041666666666665,405.9166666666667
53,0,0.3098958333333333,406.2265625
58,0,0,406.2265625
46,0,0,406.2265625
41,0,0,406.2265625
34,0,0,406.2265625
54,49,0.0026041666666666665,406.2291666666667
58,49,0,406.2291666666667
49,49,0,406.2291666666667
42,49,0,406.2291666666667
37,49,0,406.2291666666667
58,0,0.9348958333333333,407.1640625
58,49,0.0026041666666666665,407.1666666666667
54,0,0.3098958333333333,407.4765625
58,0,0,407.4765625
49,0,0,407.4765625
42,0,0,407.4765625
37,0,0,407.4765625
53,49,0.0026041666666666665,407.4791666666667
58,49,0,407.4791666666667
46,49,0,407.4791666666667
41,49,0,407.4791666666667
34,49,0,407.4791666666667
53,0,1.2473958333333333,408.7265625
46,0,0,408.7265625
41,0,0,408.7265625
34,0,0,408.7265625
54,49,0.0026041666666666665,408.7291666666667
49,49,0,408.7291666666667
42,49,0,408.7291666666667
37,49,0,408.7291666666667
54,0,1.2473958333333333,409.9765625
58,0,0,409.9765625
49,0,0,409.9765625
42,0,0,409.9765625
37,0,0,409.9765625
53,49,0.0026041666666666665,409.9791666666667
61,49,0,409.9791666666667
58,49,0,409.9791666666667
46,49,0,409.9791666666667
41,49,0,409.9791666666667
34,49,0,409.9791666666667
53,0,1.2473958333333333,411.2265625
61,0,0,411.2265625
58,0,0,411.2265625
46,0,0,411.2265625
41,0,0,411.2265625
34,0,0,411.2265625
58,49,0.0026041666666666665,411.2291666666667
54,49,0,411.2291666666667
61,49,0,411.2291666666667
49,49,0,411.2291666666667
42,49,0,411.2291666666667
37,49,0,411.2291666666667
61,0,0.9348958333333333,412.1640625
61,49,0.0026041666666666665,412.1666666666667
58,0,0.3098958333333333,412.4765625
54,0,0,412.4765625
61,0,0,412.4765625
49,0,0,412.4765625
42,0,0,412.4765625
37,0,0,412.4765625
53,49,0.0026041666666666665,412.4791666666667
61,49,0,412.4791666666667
46,49,0,412.4791666666667
41,49,0,412.4791666666667
34,49,0,412.4791666666667
53,0,1.2473958333333333,413.7265625
61,0,0,413.7265625
46,0,0,413.7265625
41,0,0,413.7265625
34,0,0,413.7265625
54,49,0.0026041666666666665,413.7291666666667
65,49,0,413.7291666666667
61,49,0,413.7291666666667
49,49,0,413.7291666666667
42,49,0,413.7291666666667
37,49,0,413.7291666666667
65,0,0.9348958333333333,414.6640625
61,0,0,414.6640625
63,49,0.0026041666666666665,414.6666666666667
60,49,0,414.6666666666667
65,49,0.078125,414.7447916666667
65,0,0.23177083333333331,414.9765625
54,0,0,414.9765625
63,0,0,414.9765625
60,0,0,414.9765625
49,0,0,414.9765625
42,0,0,414.9765625
37,0,0,414.9765625
53,49,0.0026041666666666665,414.9791666666667
63,49,0,414.9791666666667
60,49,0,414.9791666666667
46,49,0,414.9791666666667
41,49,0,414.9791666666667
34,49,0,414.9791666666667
63,0,0.9348958333333333,415.9140625
60,0,0,415.9140625
61,49,0.0026041666666666665,415.9166666666667
58,49,0,415.9166666666667
53,0,0.3098958333333333,416.2265625
61,0,0,416.2265625
58,0,0,416.2265625
46,0,0,416.2265625
41,0,0,416.2265625
34,0,0,416.2265625
54,49,0.0026041666666666665,416.2291666666667
61,49,0,416.2291666666667
58,49,0,416.2291666666667
49,49,0,416.2291666666667
42,49,0,416.2291666666667
37,49,0,416.2291666666667
61,0,0.9348958333333333,417.1640625
58,0,0,417.1640625
61,49,0.0026041666666666665,417.1666666666667
58,49,0,417.1666666666667
54,0,0.3098958333333333,417.4765625
61,0,0,417.4765625
58,0,0,417.4765625
49,0,0,417.4765625
42,0,0,417.4765625
37,0,0,417.4765625
53,49,0.0026041666666666665,417.4791666666667
61,49,0,417.4791666666667
58,49,0,417.4791666666667
46,49,0,417.4791666666667
41,49,0,417.4791666666667
34,49,0,417.4791666666667
53,0,1.2473958333333333,418.7265625
46,0,0,418.7265625
41,0,0,418.7265625
34,0,0,418.7265625
54,49,0.0026041666666666665,418.7291666666667
49,49,0,418.7291666666667
42,49,0,418.7291666666667
37,49,0,418.7291666666667
54,0,1.2473958333333333,419.9765625
61,0,0,419.9765625
58,0,0,419.9765625
49,0,0,419.9765625
42,0,0,419.9765625
37,0,0,419.9765625
61,49,0.0026041666666666665,419.9791666666667
58,49,0,419.9791666666667
70,49,0,419.9791666666667
46,49,0,419.9791666666667
41,49,0,419.9791666666667
34,49,0,419.9791666666667
70,0,0.9348958333333333,420.9140625
68,49,0.0026041666666666665,420.9166666666667
68,49,0.078125,420.9947916666667
61,0,0.23177083333333331,421.2265625
58,0,0,421.2265625
68,0,0,421.2265625
68,0,0,421.2265625
46,0,0,421.2265625
41,0,0,421.2265625
34,0,0,421.2265625
61,49,0.0026041666666666665,421.2291666666667
58,49,0,421.2291666666667
66,49,0,421.2291666666667
49,49,0,421.2291666666667
42,49,0,421.2291666666667
37,49,0,421.2291666666667
66,0,0.9348958333333333,422.1640625
65,49,0.0026041666666666665,422.1666666666667
61,0,0.3098958333333333,422.4765625
58,0,0,422.4765625
65,0,0,422.4765625
49,0,0,422.4765625
42,0,0,422.4765625
37,0,0,422.4765625
61,49,0.0026041666666666665,422.4791666666667
58,49,0,422.4791666666667
65,49,0,422.4791666666667
46,49,0,422.4791666666667
41,49,0,422.4791666666667
34,49,0,422.4791666666667
61,0,1.2473958333333333,423.7265625
58,0,0,423.7265625
65,0,0,423.7265625
46,0,0,423.7265625
41,0,0,423.7265625
34,0,0,423.7265625
58,49,0.0026041666666666665,423.7291666666667
61,49,0,423.7291666666667
49,49,0,423.7291666666667
42,49,0,423.7291666666667
37,49,0,423.7291666666667
58,0,1.2473958333333333,424.9765625
61,0,0,424.9765625
49,0,0,424.9765625
42,0,0,424.9765625
37,0,0,424.9765625
61,49,0.0026041666666666665,424.9791666666667
58,49,0,424.9791666666667
70,49,0,424.9791666666667
46,49,0,424.9791666666667
41,49,0,424.9791666666667
34,49,0,424.9791666666667
70,0,0.9348958333333333,425.9140625
68,49,0.0026041666666666665,425.9166666666667
68,49,0.078125,425.9947916666667
61,0,0.23177083333333331,426.2265625
58,0,0,426.2265625
68,0,0,426.2265625
68,0,0,426.2265625
46,0,0,426.2265625
41,0,0,426.2265625
34,0,0,426.2265625
61,49,0.0026041666666666665,426.2291666666667
58,49,0,426.2291666666667
66,49,0,426.2291666666667
49,49,0,426.2291666666667
42,49,0,426.2291666666667
37,49,0,426.2291666666667
66,0,0.9348958333333333,427.1640625
65,49,0.0026041666666666665,427.1666666666667
61,0,0.3098958333333333,427.4765625
58,0,0,427.4765625
65,0,0,427.4765625
49,0,0,427.4765625
42,0,0,427.4765625
37,0,0,427.4765625
61,49,0.0026041666666666665,427.4791666666667
58,49,0,427.4791666666667
65,49,0,427.4791666666667
46,49,0,427.4791666666667
41,49,0,427.4791666666667
34,49,0,427.4791666666667
61,0,1.2473958333333333,428.7265625
58,0,0,428.7265625
65,0,0,428.7265625
46,0,0,428.7265625
41,0,0,428.7265625
34,0,0,428.7265625
58,49,0.0026041666666666665,428.7291666666667
61,49,0,428.7291666666667
49,49,0,428.7291666666667
42,49,0,428.7291666666667
37,49,0,428.7291666666667
58,0,1.2473958333333333,429.9765625
61,0,0,429.9765625
49,0,0,429.9765625
42,0,0,429.9765625
37,0,0,429.9765625
53,49,0.0026041666666666665,429.9791666666667
58,49,0,429.9791666666667
46,49,0,429.9791666666667
41,49,0,429.9791666666667
34,49,0,429.9791666666667
53,0,1.2473958333333333,431.2265625
58,0,0,431.2265625
46,0,0,431.2265625
41,0,0,431.2265625
34,0,0,431.2265625
54,49,0.0026041666666666665,431.2291666666667
58,49,0,431.2291666666667
49,49,0,431.2291666666667
42,49,0,431.2291666666667
37,49,0,431.2291666666667
58,0,0.9348958333333333,432.1640625
58,49,0.0026041666666666665,432.1666666666667
54,0,0.3098958333333333,432.4765625
58,0,0,432.4765625
49,0,0,432.4765625
42,0,0,432.4765625
37,0,0,432.4765625
53,49,0.0026041666666666665,432.4791666666667
58,49,0,432.4791666666667
46,49,0,432.4791666666667
41,49,0,432.4791666666667
34,49,0,432.4791666666667
53,0,1.2473958333333333,433.7265625
58,0,0,433.7265625
46,0,0,433.7265625
41,0,0,433.7265625
34,0,0,433.7265625
54,49,0.0026041666666666665,433.7291666666667
61,49,0,433.7291666666667
49,49,0,433.7291666666667
42,49,0,433.7291666666667
37,49,0,433.7291666666667
61,0,0.9348958333333333,434.6640625
60,49,0.0026041666666666665,434.6666666666667
61,49,0.078125,434.7447916666667
61,0,0.23177083333333331,434.9765625
54,0,0,434.9765625
60,0,0,434.9765625
49,0,0,434.9765625
42,0,0,434.9765625
37,0,0,434.9765625
53,49,0.0026041666666666665,434.9791666666667
60,49,0,434.9791666666667
46,49,0,434.9791666666667
41,49,0,434.9791666666667
34,49,0,434.9791666666667
60,0,0.9348958333333333,435.9140625
58,49,0.0026041666666666665,435.9166666666667
53,0,0.3098958333333333,436.2265625
58,0,0,436.2265625
46,0,0,436.2265625
41,0,0,436.2265625
34,0,0,436.2265625
54,49,0.0026041666666666665,436.2291666666667
58,49,0,436.2291666666667
49,49,0,436.2291666666667
42,49,0,436.2291666666667
37,49,0,436.2291666666667
58,0,0.9348958333333333,437.1640625
58,49,0.0026041666666666665,437.1666666666667
54,0,0.3098958333333333,437.4765625
58,0,0,437.4765625
49,0,0,437.4765625
42,0,0,437.4765625
37,0,0,437.4765625
53,49,0.0026041666666666665,437.4791666666667
58,49,0,437.4791666666667
46,49,0,437.4791666666667
41,49,0,437.4791666666667
34,49,0,437.4791666666667
53,0,1.2473958333333333,438.7265625
46,0,0,438.7265625
41,0,0,438.7265625
34,0,0,438.7265625
54,49,0.0026041666666666665,438.7291666666667
49,49,0,438.7291666666667
42,49,0,438.7291666666667
37,49,0,438.7291666666667
54,0,1.2473958333333333,439.9765625
58,0,0,439.9765625
49,0,0,439.9765625
42,0,0,439.9765625
37,0,0,439.9765625
73,49,0.0026041666666666665,439.9791666666667
82,49,0,439.9791666666667
70,49,0,439.9791666666667
46,49,0,439.9791666666667
41,49,0,439.9791666666667
34,49,0,439.9791666666667
82,0,0.6223958333333333,440.6015625
70,0,0,440.6015625
80,49,0.0026041666666666665,440.6041666666667
68,49,0,440.6041666666667
73,0,0.6223958333333333,441.2265625
80,0,0,441.2265625
68,0,0,441.2265625
46,0,0,441.2265625
41,0,0,441.2265625
34,0,0,441.2265625
73,49,0.0026041666666666665,441.2291666666667
78,49,0,441.2291666666667
66,49,0,441.2291666666667
49,49,0,441.2291666666667
42,49,0,441.2291666666667
37,49,0,441.2291666666667
78,0,0.9348958333333333,442.1640625
66,0,0,442.1640625
77,49,0.0026041666666666665,442.1666666666667
65,49,0,442.1666666666667
73,0,0.3098958333333333,442.4765625
77,0,0,442.4765625
65,0,0,442.4765625
49,0,0,442.4765625
42,0,0,442.4765625
37,0,0,442.4765625
73,49,0.0026041666666666665,442.4791666666667
77,49,0,442.4791666666667
65,49,0,442.4791666666667
46,49,0,442.4791666666667
41,49,0,442.4791666666667
34,49,0,442.4791666666667
73,0,1.2473958333333333,443.7265625
77,0,0,443.7265625
65,0,0,443.7265625
46,0,0,443.7265625
41,0,0,443.7265625
34,0,0,443.7265625
73,49,0.0026041666666666665,443.7291666666667
70,49,0,443.7291666666667
61,49,0,443.7291666666667
49,49,0,443.7291666666667
42,49,0,443.7291666666667
37,49,0,443.7291666666667
73,0,1.2473958333333333,444.9765625
70,0,0,444.9765625
61,0,0,444.9765625
49,0,0,444.9765625
42,0,0,444.9765625
37,0,0,444.9765625
73,49,0.0026041666666666665,444.9791666666667
82,49,0,444.9791666666667
70,49,0,444.9791666666667
46,49,0,444.9791666666667
41,49,0,444.9791666666667
34,49,0,444.9791666666667
82,0,0.6223958333333333,445.6015625
70,0,0,445.6015625
80,49,0.0026041666666666665,445.6041666666667
68,49,0,445.6041666666667
73,0,0.6223958333333333,446.2265625
80,0,0,446.2265625
68,0,0,446.2265625
46,0,0,446.2265625
41,0,0,446.2265625
34,0,0,446.2265625
73,49,0.0026041666666666665,446.2291666666667
78,49,0,446.2291666666667
66,49,0,446.2291666666667
49,49,0,446.2291666666667
42,49,0,446.2291666666667
37,49,0,446.2291666666667
78,0,0.9348958333333333,447.1640625
66,0,0,447.1640625
77,49,0.0026041666666666665,447.1666666666667
65,49,0,447.1666666666667
73,0,0.3098958333333333,447.4765625
77,0,0,447.4765625
65,0,0,447.4765625
49,0,0,447.4765625
42,0,0,447.4765625
37,0,0,447.4765625
73,49,0.0026041666666666665,447.4791666666667
77,49,0,447.4791666666667
65,49,0,447.4791666666667
46,49,0,447.4791666666667
41,49,0,447.4791666666667
34,49,0,447.4791666666667
73,0,1.2473958333333333,448.7265625
77,0,0,448.7265625
65,0,0,448.7265625
46,0,0,448.7265625
41,0,0,448.7265625
34,0,0,448.7265625
73,49,0.0026041666666666665,448.7291666666667
70,49,0,448.7291666666667
61,49,0,448.7291666666667
49,49,0,448.7291666666667
42,49,0,448.7291666666667
37,49,0,448.7291666666667
73,0,1.2473958333333333,449.9765625
70,0,0,449.9765625
61,0,0,449.9765625
49,0,0,449.9765625
42,0,0,449.9765625
37,0,0,449.9765625
65,49,0.0026041666666666665,449.9791666666667
70,49,0,449.9791666666667
58,49,0,449.9791666666667
46,49,0,449.9791666666667
41,49,0,449.9791666666667
34,49,0,449.9791666666667
65,0,1.2473958333333333,451.2265625
70,0,0,451.2265625
58,0,0,451.2265625
46,0,0,451.2265625
41,0,0,451.2265625
34,0,0,451.2265625
66,49,0.0026041666666666665,451.2291666666667
70,49,0,451.2291666666667
58,49,0,451.2291666666667
49,49,0,451.2291666666667
42,49,0,451.2291666666667
37,49,0,451.2291666666667
70,0,0.9348958333333333,452.1640625
58,0,0,452.1640625
70,49,0.0026041666666666665,452.1666666666667
58,49,0,452.1666666666667
66,0,0.3098958333333333,452.4765625
70,0,0,452.4765625
58,0,0,452.4765625
49,0,0,452.4765625
42,0,0,452.4765625
37,0,0,452.4765625
65,49,0.0026041666666666665,452.4791666666667
70,49,0,452.4791666666667
58,49,0,452.4791666666667
46,49,0,452.4791666666667
41,49,0,452.4791666666667
34,49,0,452.4791666666667
65,0,1.2473958333333333,453.7265625
70,0,0,453.7265625
58,0,0,453.7265625
46,0,0,453.7265625
41,0,0,453.7265625
34,0,0,453.7265625
66,49,0.0026041666666666665,453.7291666666667
73,49,0,453.7291666666667
61,49,0,453.7291666666667
49,49,0,453.7291666666667
42,49,0,453.7291666666667
37,49,0,453.7291666666667
73,0,0.9348958333333333,454.6640625
61,0,0,454.6640625
72,49,0.0026041666666666665,454.6666666666667
60,49,0,454.6666666666667
66,0,0.3098958333333333,454.9765625
72,0,0,454.9765625
60,0,0,454.9765625
49,0,0,454.9765625
42,0,0,454.9765625
37,0,0,454.9765625
65,49,0.0026041666666666665,454.9791666666667
72,49,0,454.9791666666667
60,49,0,454.9791666666667
46,49,0,454.9791666666667
41,49,0,454.9791666666667
34,49,0,454.9791666666667
72,0,0.9348958333333333,455.9140625
60,0,0,455.9140625
70,49,0.0026041666666666665,455.9166666666667
58,49,0,455.9166666666667
65,0,0.3098958333333333,456.2265625
70,0,0,456.2265625
58,0,0,456.2265625
46,0,0,456.2265625
41,0,0,456.2265625
34,0,0,456.2265625
66,49,0.0026041666666666665,456.2291666666667
70,49,0,456.2291666666667
58,49,0,456.2291666666667
49,49,0,456.2291666666667
42,49,0,456.2291666666667
37,49,0,456.2291666666667
70,0,0.9348958333333333,457.1640625
58,0,0,457.1640625
70,49,0.0026041666666666665,457.1666666666667
58,49,0,457.1666666666667
66,0,0.3098958333333333,457.4765625
70,0,0,457.4765625
58,0,0,457.4765625
49,0,0,457.4765625
42,0,0,457.4765625
37,0,0,457.4765625
65,49,0.0026041666666666665,457.4791666666667
70,49,0,457.4791666666667
58,49,0,457.4791666666667
46,49,0,457.4791666666667
41,49,0,457.4791666666667
34,49,0,457.4791666666667
65,0,1.2473958333333333,458.7265625
70,0,0,458.7265625
58,0,0,458.7265625
46,0,0,458.7265625
41,0,0,458.7265625
34,0,0,458.7265625
68,49,0.0026041666666666665,458.7291666666667
72,49,0,458.7291666666667
66,49,0,458.7291666666667
60,49,0,458.7291666666667
44,49,0,458.7291666666667
32,49,0,458.7291666666667
68,0,1.2473958333333333,459.9765625
72,0,0,459.9765625
66,0,0,459.9765625
60,0,0,459.9765625
44,0,0,459.9765625
32,0,0,459.9765625
73,96,0.0026041666666666665,459.9791666666667
65,96,0,459.9791666666667
61,96,0,459.9791666666667
25,96,0,459.9791666666667
37,96,0,459.9791666666667
73,0,1.2473958333333333,461.2265625
65,0,0,461.2265625
61,0,0,461.2265625
25,0,0,461.2265625
37,0,0,461.2265625
73,96,0.0026041666666666665,461.2291666666667
77,96,0,461.2291666666667
65,96,0,461.2291666666667
56,96,0,461.2291666666667
49,96,0,461.2291666666667
61,96,0,461.2291666666667
77,0,0.9348958333333333,462.1640625
65,0,0,462.1640625
61,0,0,462.1640625
78,96,0.0026041666666666665,462.1666666666667
66,96,0,462.1666666666667
63,96,0,462.1666666666667
73,0,0.3098958333333333,462.4765625
78,0,0,462.4765625
66,0,0,462.4765625
56,0,0,462.4765625
49,0,0,462.4765625
63,0,0,462.4765625
73,96,0.0026041666666666665,462.4791666666667
80,96,0,462.4791666666667
68,96,0,462.4791666666667
56,96,0,462.4791666666667
49,96,0,462.4791666666667
65,96,0,462.4791666666667
80,0,0.9348958333333333,463.4140625
68,0,0,463.4140625
65,0,0,463.4140625
82,96,0.0026041666666666665,463.4166666666667
70,96,0,463.4166666666667
66,96,0,463.4166666666667
73,0,0.3098958333333333,463.7265625
82,0,0,463.7265625
70,0,0,463.7265625
56,0,0,463.7265625
49,0,0,463.7265625
66,0,0,463.7265625
80,96,0.0026041666666666665,463.7291666666667
84,96,0,463.7291666666667
72,96,0,463.7291666666667
68,96,0,463.7291666666667
56,96,0,463.7291666666667
63,96,0,463.7291666666667
84,0,0.9348958333333333,464.6640625
72,0,0,464.6640625
63,0,0,464.6640625
85,96,0.0026041666666666665,464.6666666666667
73,96,0,464.6666666666667
65,96,0,464.6666666666667
80,0,0.3098958333333333,464.9765625
85,0,0,464.9765625
73,0,0,464.9765625
68,0,0,464.9765625
56,0,0,464.9765625
65,0,0,464.9765625
89,96,0.0026041666666666665,464.9791666666667
84,96,0,464.9791666666667
80,96,0,464.9791666666667
77,96,0,464.9791666666667
44,96,0,464.9791666666667
32,96,0,464.9791666666667
44,0,1.2473958333333333,466.2265625
32,0,0,466.2265625
72,96,0.0026041666666666665,466.2291666666667
66,96,0,466.2291666666667
63,96,0,466.2291666666667
72,0,0.9348958333333333,467.1640625
66,0,0,467.1640625
63,0,0,467.1640625
70,96,0.0026041666666666665,467.1666666666667
66,96,0,467.1666666666667
61,96,0,467.1666666666667
89,0,0.3098958333333333,467.4765625
84,0,0,467.4765625
80,0,0,467.4765625
77,0,0,467.4765625
70,0,0,467.4765625
66,0,0,467.4765625
61,0,0,467.4765625
87,96,0.0026041666666666665,467.4791666666667
84,96,0,467.4791666666667
80,96,0,467.4791666666667
75,96,0,467.4791666666667
70,96,0,467.4791666666667
66,96,0,467.4791666666667
61,96,0,467.4791666666667
70,0,0.9348958333333333,468.4140625
66,0,0,468.4140625
61,0,0,468.4140625
68,96,0.0026041666666666665,468.4166666666667
66,96,0,468.4166666666667
60,96,0,468.4166666666667
68,0,0.3098958333333333,468.7265625
66,0,0,468.7265625
60,0,0,468.7265625
68,96,0.0026041666666666665,468.7291666666667
66,96,0,468.7291666666667
60,96,0,468.7291666666667
87,0,0.6223958333333333,469.3515625
84,0,0,469.3515625
80,0,0,469.3515625
75,0,0,469.3515625
68,0,0.3125,469.6640625
66,0,0,469.6640625
60,0,0,469.6640625
78,96,0.0026041666666666665,469.6666666666667
75,96,0,469.6666666666667
72,96,0,469.6666666666667
66,96,0,469.6666666666667
63,96,0,469.6666666666667
60,96,0,469.6666666666667
57,96,0,469.6666666666667
78,0,0.3098958333333333,469.9765625
75,0,0,469.9765625
72,0,0,469.9765625
66,0,0,469.9765625
63,0,0,469.9765625
60,0,0,469.9765625
57,0,0,469.9765625
75,96,0.0026041666666666665,469.9791666666667
72,96,0,469.9791666666667
77,96,0,469.9791666666667
65,96,0,469.9791666666667
46,96,0,469.9791666666667
34,96,0,469.9791666666667
75,0,1.2473958333333333,471.2265625
72,0,0,471.2265625
77,0,0,471.2265625
65,0,0,471.2265625
46,0,0,471.2265625
34,0,0,471.2265625
73,96,0.0026041666666666665,471.2291666666667
70,96,0,471.2291666666667
77,96,0,471.2291666666667
65,96,0,471.2291666666667
61,96,0,471.2291666666667
58,96,0,471.2291666666667
53,96,0,471.2291666666667
77,0,0.9348958333333333,472.1640625
65,0,0,472.1640625
79,96,0.0026041666666666665,472.1666666666667
67,96,0,472.1666666666667
73,0,0.3098958333333333,472.4765625
70,0,0,472.4765625
79,0,0,472.4765625
67,0,0,472.4765625
61,0,0,472.4765625
58,0,0,472.4765625
53,0,0,472.4765625
77,96,0.0026041666666666665,472.4791666666667
73,96,0,472.4791666666667
81,96,0,472.4791666666667
69,96,0,472.4791666666667
49,96,0,472.4791666666667
37,96,0,472.4791666666667
81,0,0.9348958333333333,473.4140625
69,0,0,473.4140625
82,96,0.0026041666666666665,473.4166666666667
70,96,0,473.4166666666667
77,0,0.3098958333333333,473.7265625
73,0,0,473.7265625
82,0,0,473.7265625
70,0,0,473.7265625
49,0,0,473.7265625
37,0,0,473.7265625
77,96,0.0026041666666666665,473.7291666666667
84,96,0,473.7291666666667
72,96,0,473.7291666666667
65,96,0,473.7291666666667
61,96,0,473.7291666666667
58,96,0,473.7291666666667
53,96,0,473.7291666666667
84,0,0.9348958333333333,474.6640625
72,0,0,474.6640625
85,96,0.0026041666666666665,474.6666666666667
73,96,0,474.6666666666667
77,0,0.3098958333333333,474.9765625
85,0,0,474.9765625
73,0,0,474.9765625
65,0,0,474.9765625
61,0,0,474.9765625
58,0,0,474.9765625
53,0,0,474.9765625
70,96,0.0026041666666666665,474.9791666666667
41,96,0,474.9791666666667
29,96,0,474.9791666666667
76,96,0.15625,475.1354166666667
79,96,0.15625,475.2916666666667
85,96,0.15625,475.4479166666667
41,0,0.7786458333333333,476.2265625
29,0,0,476.2265625
67,96,0.0026041666666666665,476.2291666666667
61,96,0,476.2291666666667
58,96,0,476.2291666666667
53,96,0,476.2291666666667
70,0,1.2473958333333333,477.4765625
67,0,0,477.4765625
61,0,0,477.4765625
58,0,0,477.4765625
53,0,0,477.4765625
84,96,0.0026041666666666665,477.4791666666667
77,96,0,477.4791666666667
72,96,0,477.4791666666667
53,96,0,477.4791666666667
76,0,0.15364583333333331,477.6328125
57,96,0.0026041666666666665,477.6354166666667
79,0,0.15364583333333331,477.7890625
60,96,0.0026041666666666665,477.7916666666667
85,0,0.15364583333333331,477.9453125
69,96,0.0026041666666666665,477.9479166666667
84,0,0.7786458333333333,478.7265625
77,0,0,478.7265625
72,0,0,478.7265625
53,0,0,478.7265625
53,96,0.0026041666666666665,478.7291666666667
57,0,0.15364583333333331,478.8828125
60,0,0.15625,479.0390625
69,0,0.15625,479.1953125
46,96,0.15885416666666666,479.3541666666667
46,0,0.6223958333333333,479.9765625
53,0,0,479.9765625
65,96,0.0026041666666666665,479.9791666666667
68,96,0,479.9791666666667
60,96,0,479.9791666666667
56,96,0,479.9791666666667
54,96,0,479.9791666666667
44,96,0,479.9791666666667
65,0,1.2473958333333333,481.2265625
68,0,0,481.2265625
60,0,0,481.2265625
56,0,0,481.2265625
54,0,0,481.2265625
63,96,0.0026041666666666665,481.2291666666667
68,96,0,481.2291666666667
60,96,0,481.2291666666667
56,96,0,481.2291666666667
54,96,0,481.2291666666667
63,0,1.2473958333333333,482.4765625
68,0,0,482.4765625
60,0,0,482.4765625
56,0,0,482.4765625
54,0,0,482.4765625
44,0,0,482.4765625
61,96,0.0026041666666666665,482.4791666666667
68,96,0,482.4791666666667
53,96,0,482.4791666666667
49,96,0,482.4791666666667
61,0,1.2473958333333333,483.7265625
68,0,0,483.7265625
53,0,0,483.7265625
49,0,0,483.7265625
49,96,0.0026041666666666665,483.7291666666667
42,96,0.625,484.3541666666667
42,0,0.6223958333333333,484.9765625
49,0,0,484.9765625
61,96,0.0026041666666666665,484.9791666666667
68,96,0,484.9791666666667
57,96,0,484.9791666666667
51,96,0,484.9791666666667
41,96,0,484.9791666666667
61,0,1.2473958333333333,486.2265625
68,0,0,486.2265625
57,0,0,486.2265625
51,0,0,486.2265625
60,96,0.0026041666666666665,486.2291666666667
68,96,0,486.2291666666667
57,96,0,486.2291666666667
51,96,0,486.2291666666667
60,0,1.2473958333333333,487.4765625
68,0,0,487.4765625
57,0,0,487.4765625
51,0,0,487.4765625
41,0,0,487.4765625
58,96,0.0026041666666666665,487.4791666666667
49,96,0,487.4791666666667
42,96,0,487.4791666666667
42,0,1.2473958333333333,488.7265625
41,96,0.0026041666666666665,488.7291666666667
41,0,0.6223958333333333,489.3515625
37,96,0.0026041666666666665,489.3541666666667
58,0,0.6223958333333333,489.9765625
49,0,0,489.9765625
37,0,0,489.9765625
53,49,0.0026041666666666665,489.9791666666667
58,49,0,489.9791666666667
46,49,0,489.9791666666667
41,49,0,489.9791666666667
34,49,0,489.9791666666667
53,0,1.2473958333333333,491.2265625
58,0,0,491.2265625
46,0,0,491.2265625
41,0,0,491.2265625
34,0,0,491.2265625
54,49,0.0026041666666666665,491.2291666666667
58,49,0,491.2291666666667
49,49,0,491.2291666666667
42,49,0,491.2291666666667
37,49,0,491.2291666666667
58,0,0.9348958333333333,492.1640625
58,49,0.0026041666666666665,492.1666666666667
54,0,0.3098958333333333,492.4765625
58,0,0,492.4765625
49,0,0,492.4765625
42,0,0,492.4765625
37,0,0,492.4765625
53,49,0.0026041666666666665,492.4791666666667
58,49,0,492.4791666666667
46,49,0,492.4791666666667
41,49,0,492.4791666666667
34,49,0,492.4791666666667
53,0,1.2473958333333333,493.7265625
58,0,0,493.7265625
46,0,0,493.7265625
41,0,0,493.7265625
34,0,0,493.7265625
54,49,0.0026041666666666665,493.7291666666667
61,49,0,493.7291666666667
49,49,0,493.7291666666667
42,49,0,493.7291666666667
37,49,0,493.7291666666667
61,0,0.9348958333333333,494.6640625
60,49,0.0026041666666666665,494.6666666666667
54,0,0.3098958333333333,494.9765625
60,0,0,494.9765625
49,0,0,494.9765625
42,0,0,494.9765625
37,0,0,494.9765625
53,49,0.0026041666666666665,494.9791666666667
60,49,0,494.9791666666667
46,49,0,494.9791666666667
41,49,0,494.9791666666667
34,49,0,494.9791666666667
60,0,0.9348958333333333,495.9140625
58,49,0.0026041666666666665,495.9166666666667
53,0,0.3098958333333333,496.2265625
58,0,0,496.2265625
46,0,0,496.2265625
41,0,0,496.2265625
34,0,0,496.2265625
54,49,0.0026041666666666665,496.2291666666667
58,49,0,496.2291666666667
49,49,0,496.2291666666667
42,49,0,496.2291666666667
37,49,0,496.2291666666667
58,0,0.9348958333333333,497.1640625
58,49,0.0026041666666666665,497.1666666666667
54,0,0.3098958333333333,497.4765625
58,0,0,497.4765625
49,0,0,497.4765625
42,0,0,497.4765625
37,0,0,497.4765625
53,49,0.0026041666666666665,497.4791666666667
58,49,0,497.4791666666667
46,49,0,497.4791666666667
41,49,0,497.4791666666667
34,49,0,497.4791666666667
53,0,1.2473958333333333,498.7265625
58,0,0,498.7265625
46,0,0,498.7265625
41,0,0,498.7265625
34,0,0,498.7265625
52,49,0.0026041666666666665,498.7291666666667
61,49,0,498.7291666666667
55,49,0,498.7291666666667
45,49,0,498.7291666666667
33,49,0,498.7291666666667
52,0,0.9348958333333333,499.6640625
61,0,0,499.6640625
55,0,0,499.6640625
45,0,0,499.6640625
33,0,0,499.6640625
54,49,0.0026041666666666665,499.6666666666667
63,49,0,499.6666666666667
60,49,0,499.6666666666667
44,49,0,499.6666666666667
32,49,0,499.6666666666667
54,0,0.3098958333333333,499.9765625
63,0,0,499.9765625
60,0,0,499.9765625
44,0,0,499.9765625
32,0,0,499.9765625
53,96,0.0026041666666666665,499.9791666666667
65,96,0,499.9791666666667
61,96,0,499.9791666666667
25,96,0,499.9791666666667
37,96,0,499.9791666666667
53,0,1.2473958333333333,501.2265625
65,0,0,501.2265625
61,0,0,501.2265625
25,0,0,501.2265625
37,0,0,501.2265625
73,96,0.0026041666666666665,501.2291666666667
77,96,0,501.2291666666667
65,96,0,501.2291666666667
56,96,0,501.2291666666667
49,96,0,501.2291666666667
61,96,0,501.2291666666667
77,0,0.9348958333333333,502.1640625
65,0,0,502.1640625
61,0,0,502.1640625
78,96,0.0026041666666666665,502.1666666666667
66,96,0,502.1666666666667
63,96,0,502.1666666666667
73,0,0.3098958333333333,502.4765625
78,0,0,502.4765625
66,0,0,502.4765625
56,0,0,502.4765625
49,0,0,502.4765625
63,0,0,502.4765625
73,96,0.0026041666666666665,502.4791666666667
80,96,0,502.4791666666667
68,96,0,502.4791666666667
56,96,0,502.4791666666667
49,96,0,502.4791666666667
65,96,0,502.4791666666667
80,0,0.9348958333333333,503.4140625
68,0,0,503.4140625
65,0,0,503.4140625
82,96,0.0026041666666666665,503.4166666666667
70,96,0,503.4166666666667
66,96,0,503.4166666666667
73,0,0.3098958333333333,503.7265625
82,0,0,503.7265625
70,0,0,503.7265625
56,0,0,503.7265625
49,0,0,503.7265625
66,0,0,503.7265625
80,96,0.0026041666666666665,503.7291666666667
84,96,0,503.7291666666667
72,96,0,503.7291666666667
68,96,0,503.7291666666667
56,96,0,503.7291666666667
63,96,0,503.7291666666667
84,0,0.9348958333333333,504.6640625
72,0,0,504.6640625
63,0,0,504.6640625
85,96,0.0026041666666666665,504.6666666666667
73,96,0,504.6666666666667
65,96,0,504.6666666666667
80,0,0.3098958333333333,504.9765625
85,0,0,504.9765625
73,0,0,504.9765625
68,0,0,504.9765625
56,0,0,504.9765625
65,0,0,504.9765625
89,96,0.0026041666666666665,504.9791666666667
84,96,0,504.9791666666667
80,96,0,504.9791666666667
77,96,0,504.9791666666667
44,96,0,504.9791666666667
32,96,0,504.9791666666667
44,0,1.2473958333333333,506.2265625
32,0,0,506.2265625
72,96,0.0026041666666666665,506.2291666666667
66,96,0,506.2291666666667
63,96,0,506.2291666666667
72,0,0.9348958333333333,507.1640625
66,0,0,507.1640625
63,0,0,507.1640625
70,96,0.0026041666666666665,507.1666666666667
66,96,0,507.1666666666667
61,96,0,507.1666666666667
89,0,0.3098958333333333,507.4765625
84,0,0,507.4765625
80,0,0,507.4765625
77,0,0,507.4765625
70,0,0,507.4765625
66,0,0,507.4765625
61,0,0,507.4765625
87,96,0.0026041666666666665,507.4791666666667
84,96,0,507.4791666666667
80,96,0,507.4791666666667
75,96,0,507.4791666666667
70,96,0,507.4791666666667
66,96,0,507.4791666666667
61,96,0,507.4791666666667
70,0,0.9348958333333333,508.4140625
66,0,0,508.4140625
61,0,0,508.4140625
68,96,0.0026041666666666665,508.4166666666667
66,96,0,508.4166666666667
60,96,0,508.4166666666667
68,0,0.3098958333333333,508.7265625
66,0,0,508.7265625
60,0,0,508.7265625
68,96,0.0026041666666666665,508.7291666666667
66,96,0,508.7291666666667
60,96,0,508.7291666666667
87,0,0.6223958333333333,509.3515625
84,0,0,509.3515625
80,0,0,509.3515625
75,0,0,509.3515625
68,0,0.3125,509.6640625
66,0,0,509.6640625
60,0,0,509.6640625
78,96,0.0026041666666666665,509.6666666666667
75,96,0,509.6666666666667
72,96,0,509.6666666666667
66,96,0,509.6666666666667
63,96,0,509.6666666666667
60,96,0,509.6666666666667
57,96,0,509.6666666666667
78,0,0.3098958333333333,509.9765625
75,0,0,509.9765625
72,0,0,509.9765625
66,0,0,509.9765625
63,0,0,509.9765625
60,0,0,509.9765625
57,0,0,509.9765625
75,96,0.0026041666666666665,509.9791666666667
72,96,0,509.9791666666667
77,96,0,509.9791666666667
65,96,0,509.9791666666667
46,96,0,509.9791666666667
34,96,0,509.9791666666667
75,0,1.2473958333333333,511.2265625
72,0,0,511.2265625
77,0,0,511.2265625
65,0,0,511.2265625
46,0,0,511.2265625
34,0,0,511.2265625
73,96,0.0026041666666666665,511.2291666666667
70,96,0,511.2291666666667
77,96,0,511.2291666666667
65,96,0,511.2291666666667
61,96,0,511.2291666666667
58,96,0,511.2291666666667
53,96,0,511.2291666666667
77,0,0.9348958333333333,512.1640625
65,0,0,512.1640625
79,96,0.0026041666666666665,512.1666666666666
67,96,0,512.1666666666666
73,0,0.3098958333333333,512.4765625
70,0,0,512.4765625
79,0,0,512.4765625
67,0,0,512.4765625
61,0,0,512.4765625
58,0,0,512.4765625
53,0,0,512.4765625
77,96,0.0026041666666666665,512.4791666666666
73,96,0,512.4791666666666
81,96,0,512.4791666666666
69,96,0,512.4791666666666
49,96,0,512.4791666666666
37,96,0,512.4791666666666
81,0,0.9348958333333333,513.4140625
69,0,0,513.4140625
82,96,0.0026041666666666665,513.4166666666666
70,96,0,513.4166666666666
77,0,0.3098958333333333,513.7265625
73,0,0,513.7265625
82,0,0,513.7265625
70,0,0,513.7265625
49,0,0,513.7265625
37,0,0,513.7265625
77,96,0.0026041666666666665,513.7291666666666
84,96,0,513.7291666666666
72,96,0,513.7291666666666
65,96,0,513.7291666666666
61,96,0,513.7291666666666
58,96,0,513.7291666666666
53,96,0,513.7291666666666
84,0,0.9348958333333333,514.6640625
72,0,0,514.6640625
85,96,0.0026041666666666665,514.6666666666666
73,96,0,514.6666666666666
77,0,0.3098958333333333,514.9765625
85,0,0,514.9765625
73,0,0,514.9765625
65,0,0,514.9765625
61,0,0,514.9765625
58,0,0,514.9765625
53,0,0,514.9765625
70,96,0.0026041666666666665,514.9791666666666
41,96,0,514.9791666666666
29,96,0,514.9791666666666
76,96,0.15625,515.1354166666666
79,96,0.15625,515.2916666666666
85,96,0.15625,515.4479166666666
41,0,0.7786458333333333,516.2265625
29,0,0,516.2265625
67,96,0.0026041666666666665,516.2291666666666
61,96,0,516.2291666666666
58,96,0,516.2291666666666
53,96,0,516.2291666666666
70,0,1.2473958333333333,517.4765625
67,0,0,517.4765625
61,0,0,517.4765625
58,0,0,517.4765625
53,0,0,517.4765625
84,96,0.0026041666666666665,517.4791666666666
77,96,0,517.4791666666666
72,96,0,517.4791666666666
53,96,0,517.4791666666666
76,0,0.15364583333333331,517.6328125
57,96,0.0026041666666666665,517.6354166666666
79,0,0.15364583333333331,517.7890625
60,96,0.0026041666666666665,517.7916666666666
85,0,0.15364583333333331,517.9453125
69,96,0.0026041666666666665,517.9479166666666
84,0,0.7786458333333333,518.7265625
77,0,0,518.7265625
72,0,0,518.7265625
53,0,0,518.7265625
53,96,0.0026041666666666665,518.7291666666666
57,0,0.15364583333333331,518.8828125
60,0,0.15625,519.0390625
69,0,0.15625,519.1953125
46,96,0.15885416666666666,519.3541666666666
46,0,0.6223958333333333,519.9765625
53,0,0,519.9765625
65,96,0.0026041666666666665,519.9791666666666
68,96,0,519.9791666666666
60,96,0,519.9791666666666
56,96,0,519.9791666666666
54,96,0,519.9791666666666
44,96,0,519.9791666666666
65,0,1.2473958333333333,521.2265625
68,0,0,521.2265625
60,0,0,521.2265625
56,0,0,521.2265625
54,0,0,521.2265625
63,96,0.0026041666666666665,521.2291666666666
68,96,0,521.2291666666666
60,96,0,521.2291666666666
56,96,0,521.2291666666666
54,96,0,521.2291666666666
63,0,1.2473958333333333,522.4765625
68,0,0,522.4765625
60,0,0,522.4765625
56,0,0,522.4765625
54,0,0,522.4765625
44,0,0,522.4765625
61,96,0.0026041666666666665,522.4791666666666
68,96,0,522.4791666666666
53,96,0,522.4791666666666
49,96,0,522.4791666666666
61,0,1.2473958333333333,523.7265625
68,0,0,523.7265625
53,0,0,523.7265625
49,0,0,523.7265625
49,96,0.0026041666666666665,523.7291666666666
42,96,0.625,524.3541666666666
42,0,0.6223958333333333,524.9765625
49,0,0,524.9765625
61,96,0.0026041666666666665,524.9791666666666
68,96,0,524.9791666666666
57,96,0,524.9791666666666
51,96,0,524.9791666666666
41,96,0,524.9791666666666
61,0,1.2473958333333333,526.2265625
68,0,0,526.2265625
57,0,0,526.2265625
51,0,0,526.2265625
60,96,0.0026041666666666665,526.2291666666666
68,96,0,526.2291666666666
57,96,0,526.2291666666666
51,96,0,526.2291666666666
60,0,1.2473958333333333,527.4765625
68,0,0,527.4765625
57,0,0,527.4765625
51,0,0,527.4765625
41,0,0,527.4765625
58,96,0.0026041666666666665,527.4791666666666
49,96,0,527.4791666666666
42,96,0,527.4791666666666
42,0,1.2473958333333333,528.7265625
41,96,0.0026041666666666665,528.7291666666666
41,0,0.6223958333333333,529.3515625
37,96,0.0026041666666666665,529.3541666666666
58,0,0.6223958333333333,529.9765625
49,0,0,529.9765625
37,0,0,529.9765625
53,49,0.0026041666666666665,529.9791666666666
58,49,0,529.9791666666666
46,49,0,529.9791666666666
41,49,0,529.9791666666666
34,49,0,529.9791666666666
53,0,1.2473958333333333,531.2265625
58,0,0,531.2265625
46,0,0,531.2265625
41,0,0,531.2265625
34,0,0,531.2265625
54,49,0.0026041666666666665,531.2291666666666
58,49,0,531.2291666666666
49,49,0,531.2291666666666
42,49,0,531.2291666666666
37,49,0,531.2291666666666
58,0,0.9348958333333333,532.1640625
58,49,0.0026041666666666665,532.1666666666666
54,0,0.3098958333333333,532.4765625
58,0,0,532.4765625
49,0,0,532.4765625
42,0,0,532.4765625
37,0,0,532.4765625
53,49,0.0026041666666666665,532.4791666666666
58,49,0,532.4791666666666
46,49,0,532.4791666666666
41,49,0,532.4791666666666
34,49,0,532.4791666666666
53,0,1.2473958333333333,533.7265625
58,0,0,533.7265625
46,0,0,533.7265625
41,0,0,533.7265625
34,0,0,533.7265625
54,49,0.0026041666666666665,533.7291666666666
61,49,0,533.7291666666666
49,49,0,533.7291666666666
42,49,0,533.7291666666666
37,49,0,533.7291666666666
61,0,0.9348958333333333,534.6640625
60,49,0.0026041666666666665,534.6666666666666
61,49,0.078125,534.7447916666666
61,0,0.23177083333333331,534.9765625
54,0,0,534.9765625
60,0,0,534.9765625
49,0,0,534.9765625
42,0,0,534.9765625
37,0,0,534.9765625
53,49,0.0026041666666666665,534.9791666666666
60,49,0,534.9791666666666
46,49,0,534.9791666666666
41,49,0,534.9791666666666
34,49,0,534.9791666666666
60,0,0.9348958333333333,535.9140625
58,49,0.0026041666666666665,535.9166666666666
53,0,0.3098958333333333,536.2265625
58,0,0,536.2265625
46,0,0,536.2265625
41,0,0,536.2265625
34,0,0,536.2265625
54,49,0.0026041666666666665,536.2291666666666
58,49,0,536.2291666666666
49,49,0,536.2291666666666
42,49,0,536.2291666666666
37,49,0,536.2291666666666
58,0,0.9348958333333333,537.1640625
58,49,0.0026041666666666665,537.1666666666666
54,0,0.3098958333333333,537.4765625
58,0,0,537.4765625
49,0,0,537.4765625
42,0,0,537.4765625
37,0,0,537.4765625
53,49,0.0026041666666666665,537.4791666666666
58,49,0,537.4791666666666
46,49,0,537.4791666666666
41,49,0,537.4791666666666
34,49,0,537.4791666666666
53,0,2.497395833333333,539.9765625
58,0,0,539.9765625
46,0,0,539.9765625
41,0,0,539.9765625
34,0,0,539.9765625
64,34,0,0.0
64,0,1.7025000000000001,1.7025000000000001
66,34,0.0925,1.7950000000000002
66,0,0.5675,2.3625000000000003
68,34,0.0325,2.3950000000000005
68,0,1.1375,3.5325000000000006
69,34,0.0625,3.5950000000000006
69,0,0.8525,4.447500000000001
71,34,0.0475,4.495000000000001
71,0,0.28250000000000003,4.777500000000001
73,34,0.0175,4.795000000000001
69,34,1.195,5.990000000000001
63,34,0,5.990000000000001
63,0,1.1375,7.127500000000001
64,34,0.0625,7.190000000000001
73,0,0.4475,7.637500000000001
69,0,0.06,7.697500000000001
71,34,0.0925,7.790000000000001
68,34,0,7.790000000000001
71,0,0.5675,8.357500000000002
68,0,0,8.357500000000002
73,34,0.0325,8.390000000000002
69,34,0,8.390000000000002
73,0,0.5675,8.957500000000003
69,0,0,8.957500000000003
71,34,0.0325,8.990000000000004
68,34,0,8.990000000000004
71,0,0.5675,9.557500000000005
68,0,0,9.557500000000005
69,40,0.0325,9.590000000000005
66,34,0,9.590000000000005
47,34,0,9.590000000000005
64,0,1.0125,10.602500000000004
63,34,0.1825,10.785000000000004
47,0,0.5075000000000001,11.292500000000004
63,0,0.06,11.352500000000004
61,34,0.0325,11.385000000000005
49,34,0,11.385000000000005
61,0,0.5675,11.952500000000006
49,0,0,11.952500000000006
59,34,0.0325,11.985000000000007
51,34,0,11.985000000000007
66,0,1.0175,13.002500000000007
51,0,0.12,13.122500000000006
64,34,0.0625,13.185000000000006
52,34,0,13.185000000000006
64,0,0.8525,14.037500000000005
52,0,0,14.037500000000005
63,34,0.0475,14.085000000000004
54,34,0,14.085000000000004
59,0,0.1775,14.262500000000005
63,0,0.105,14.367500000000005
54,0,0,14.367500000000005
63,34,0.0175,14.385000000000005
59,34,0,14.385000000000005
54,34,0,14.385000000000005
63,0,2.2725,16.657500000000006
54,0,0,16.657500000000006
64,34,0,16.657500000000006
52,34,0,16.657500000000006
69,0,0.20750000000000002,16.865000000000006
68,34,0.3925,17.257500000000004
68,0,0.5675,17.825000000000003
69,34,0.0325,17.8575
69,0,0.5675,18.425
68,34,0.0325,18.4575
59,0,0.3575,18.815
64,0,0.12,18.935000000000002
52,0,0,18.935000000000002
68,0,0.09,19.025000000000002
68,34,0.0325,19.0575
47,34,0,19.0575
68,0,0.0575,19.115000000000002
57,34,0.0025,19.117500000000003
63,34,0,19.117500000000003
66,34,0,19.117500000000003
57,0,1.075,20.192500000000003
63,0,0,20.192500000000003
66,0,0,20.192500000000003
47,0,0,20.192500000000003
56,34,0.0625,20.255000000000003
64,34,0,20.255000000000003
40,34,0,20.255000000000003
56,0,1.1375,21.392500000000002
64,0,0,21.392500000000002
40,0,0,21.392500000000002
61,34,2.4625,23.855
61,0,1.7025000000000001,25.5575
63,34,0.0925,25.650000000000002
63,0,0.5675,26.2175
64,34,0.0325,26.25
64,0,1.1375,27.3875
66,34,0.0625,27.45
66,0,0.8525,28.3025
68,34,0.0475,28.349999999999998
68,0,0.28250000000000003,28.632499999999997
69,34,0.0175,28.649999999999995
60,34,1.195,29.844999999999995
66,34,0,29.844999999999995
60,0,1.1375,30.982499999999995
61,34,0.0625,31.044999999999995
69,0,0.4475,31.492499999999996
66,0,0.06,31.552499999999995
64,34,0.0925,31.644999999999996
68,34,0,31.644999999999996
64,0,0.5675,32.2125
68,0,0,32.2125
66,34,0.0325,32.245
69,34,0,32.245
66,0,0.5675,32.8125
69,0,0,32.8125
64,34,0.0325,32.845
68,34,0,32.845
61,0,0.47750000000000004,33.3225
64,0,0.09,33.4125
68,0,0,33.4125
66,40,0.0325,33.445
61,34,0,33.445
63,34,0,33.445
44,34,0,33.445
61,0,1.1325,34.5775
60,34,0.0625,34.64
44,0,0.5075000000000001,35.1475
60,0,0.06,35.2075
58,34,0.0325,35.24
46,34,0,35.24
58,0,0.5675,35.807500000000005
46,0,0,35.807500000000005
56,34,0.0325,35.84
48,34,0,35.84
63,0,1.0175,36.8575
48,0,0.12,36.9775
61,34,0.0625,37.04
49,34,0,37.04
61,0,0.8525,37.8925
49,0,0,37.8925
60,34,0.0475,37.94
51,34,0,37.94
56,0,0.1775,38.1175
60,0,0.105,38.2225
51,0,0,38.2225
60,34,0.0175,38.239999999999995
56,34,0,38.239999999999995
51,34,0,38.239999999999995
60,0,2.2725,40.512499999999996
51,0,0,40.512499999999996
61,34,0,40.512499999999996
49,34,0,40.512499999999996
66,0,0.20750000000000002,40.72
64,34,0.3925,41.1125
64,0,0.5675,41.68
66,34,0.0325,41.7125
66,0,0.5675,42.28
64,34,0.0325,42.3125
56,0,0.3575,42.67
61,0,0.12,42.79
49,0,0,42.79
64,0,0.09,42.88
64,34,0.0325,42.9125
44,34,0,42.9125
64,0,0.055,42.9675
54,34,0.0025,42.97
60,34,0,42.97
63,34,0,42.97
54,0,1.075,44.045
60,0,0,44.045
63,0,0,44.045
44,0,0,44.045
52,34,0.0625,44.1075
61,34,0,44.1075
45,34,0,44.1075
52,0,1.1375,45.245000000000005
61,0,0,45.245000000000005
45,0,0,45.245000000000005
57,34,2.4625,47.7075
61,34,0,47.7075
64,34,0,47.7075
69,34,0,47.7075
42,34,0,47.7075
54,34,0,47.7075
57,0,4.5525,52.260000000000005
61,0,0,52.260000000000005
64,0,0,52.260000000000005
69,0,0,52.260000000000005
42,0,0,52.260000000000005
54,0,0,52.260000000000005
35,34,0.2425,52.502500000000005
47,34,0,52.502500000000005
54,34,0,52.502500000000005
59,34,0,52.502500000000005
66,34,0,52.502500000000005
63,34,0,52.502500000000005
63,0,2.2725,54.775000000000006
54,0,1.1400000000000001,55.915000000000006
71,42,0,55.915000000000006
59,0,1.3450005604166666,57.26000056041667
66,0,0,57.26000056041667
56,34,0.0025,57.26250056041667
64,34,0,57.26250056041667
35,0,0.0575,57.320000560416666
47,0,0,57.320000560416666
71,0,0.18,57.500000560416666
56,0,0.045,57.54500056041667
64,0,0,57.54500056041667
80,42,0,57.54500056041667
56,42,0,57.54500056041667
64,42,0,57.54500056041667
52,42,0,57.54500056041667
56,0,0.5306606249999999,58.07566118541667
64,0,0,58.07566118541667
59,42,0.03066039166666666,58.106321577083335
80,0,0.5070757083333333,58.61339728541667
59,0,0.028301899999999994,58.64169918541667
80,42,0.03066039166666666,58.672359577083334
64,42,0,58.672359577083334
64,0,0.5353776083333333,59.20773718541667
59,42,0.03066039166666666,59.23839757708333
80,0,0.2382076583333333,59.47660523541666
81,42,0.04481134166666666,59.52141657708333
59,0,0.2523586083333333,59.77377518541666
81,0,0.014150949999999997,59.78792613541666
80,42,0.016509441666666663,59.804435577083325
56,42,0,59.804435577083325
56,0,0.5353776083333333,60.33981318541666
59,42,0.03066039166666666,60.370473577083324
80,0,0.5070757083333333,60.877549285416656
59,0,0.028301899999999994,60.90585118541666
76,42,0.03066039166666666,60.93651157708332
64,42,0,60.93651157708332
64,0,0.5353776083333333,61.47188918541666
59,42,0.03066039166666666,61.50254957708332
52,0,0.33726430833333326,61.83981388541665
76,0,0.16981139999999997,62.009625285416654
59,0,0.028301899999999994,62.037927185416656
78,42,0.03066039166666666,62.06858757708332
57,42,0,62.06858757708332
51,42,0,62.06858757708332
57,0,0.5306606249999999,62.599248202083324
59,42,0.03066039166666666,62.62990859374999
59,0,0.5353776083333333,63.16528620208332
66,42,0.03066039166666666,63.19594659374999
66,0,0.5353776083333333,63.73132420208332
59,42,0.03066039166666666,63.761984593749986
78,0,0.4504719083333332,64.21245650208331
59,0,0.08490569999999999,64.2973622020833
71,42,0.03066039166666666,64.32802259374998
57,42,0,64.32802259374998
83,42,0.06132078333333332,64.3893433770833
57,0,0.4740568249999999,64.86340020208331
59,42,0.03066039166666666,64.89406059374998
59,0,0.5353776083333333,65.42943820208332
66,42,0.03066039166666666,65.46009859374999
66,0,0.5353776083333333,65.99547620208332
59,42,0.03066039166666666,66.02613659375
51,0,0.33726430833333326,66.36340090208333
71,0,0.11320759999999998,66.47660850208332
83,0,0,66.47660850208332
68,42,0.11556609166666665,66.59217459374999
80,42,0,66.59217459374999
52,42,0,66.59217459374999
59,0,0.5023587249999999,67.09453331874998
64,42,0.05896229166666665,67.15349561041664
68,0,0.5070757083333333,67.66057131874997
80,0,0,67.66057131874997
64,0,0.028301899999999994,67.68887321874998
68,42,0.03066039166666666,67.71953361041665
80,42,0,67.71953361041665
59,42,0,67.71953361041665
59,0,0.5353776083333333,68.25491121874998
61,42,0.03066039166666666,68.28557161041665
68,0,0.2382076583333333,68.52377926874999
80,0,0,68.52377926874999
69,42,0.04481134166666666,68.56859061041666
81,42,0,68.56859061041666
61,0,0.2523586083333333,68.82094921875
69,0,0.014150949999999997,68.83510016875
81,0,0,68.83510016875
68,42,0.016509441666666663,68.85160961041667
80,42,0,68.85160961041667
59,42,0,68.85160961041667
59,0,0.5353776083333333,69.38698721875001
64,42,0.03066039166666666,69.41764761041668
68,0,0.5070757083333333,69.92472331875001
80,0,0,69.92472331875001
64,0,0.028301899999999994,69.95302521875001
66,42,0.03066039166666666,69.98368561041669
78,42,0,69.98368561041669
57,42,0,69.98368561041669
66,0,0.5353776083333333,70.51906321875002
78,0,0,70.51906321875002
57,0,0,70.51906321875002
64,42,0.03066039166666666,70.54972361041669
76,42,0,70.54972361041669
56,42,0,70.54972361041669
52,0,0.33726430833333326,70.88698791875002
64,0,0.19811329999999996,71.08510121875003
76,0,0,71.08510121875003
56,0,0,71.08510121875003
66,42,0.03066039166666666,71.1157616104167
47,42,0,71.1157616104167
71,42,0.05896229166666665,71.17472390208336
76,42,0.06603776666666665,71.24076166875003
78,42,0.06839625833333332,71.30915792708336
47,0,0.33726430833333326,71.6464222354167
54,42,0.03066039166666666,71.67708262708337
54,0,0.5353776083333333,72.2124602354167
59,42,0.03066039166666666,72.24312062708337
59,0,0.5353776083333333,72.7784982354167
64,42,0.03066039166666666,72.80915862708338
64,0,0.5353776083333333,73.34453623541671
71,0,0.025943408333333327,73.37047964375004
76,0,0,73.37047964375004
78,0,0,73.37047964375004
66,0,0.002358491666666666,73.37283813541671
63,42,0.002358491666666666,73.37519662708338
66,42,0,73.37519662708338
71,42,0,73.37519662708338
75,42,0,73.37519662708338
78,42,0,73.37519662708338
47,42,0,73.37519662708338
47,0,0.5353776083333333,73.91057423541672
54,42,0.03066039166666666,73.94123462708339
63,0,0.5070757083333333,74.44831033541672
66,0,0,74.44831033541672
71,0,0,74.44831033541672
75,0,0,74.44831033541672
54,0,0.028301899999999994,74.47661223541672
69,42,0.03066039166666666,74.5072726270834
73,42,0,74.5072726270834
59,42,0,74.5072726270834
59,0,0.5353776083333333,75.04265023541673
63,42,0.03066039166666666,75.0733106270834
78,0,0.4504719083333332,75.52378253541673
69,0,0.05660379999999999,75.58038633541673
73,0,0,75.58038633541673
63,0,0.028301899999999994,75.60868823541674
64,42,0.03066039166666666,75.63934862708341
40,42,0,75.63934862708341
68,42,0.05896229166666665,75.69831091875007
71,42,0.06839625833333332,75.7667071770834
80,42,0.06603776666666665,75.83274494375007
40,0,0.33726430833333326,76.1700092520834
52,42,0.03066039166666666,76.20066964375008
52,0,0.5353776083333333,76.73604725208341
68,0,0.025943408333333327,76.76199066041674
71,0,0,76.76199066041674
80,0,0,76.76199066041674
64,0,0.002358491666666666,76.76434915208341
80,42,0.002358491666666666,76.76670764375008
59,42,0,76.76670764375008
59,0,0.5353776083333333,77.30208525208342
62,42,0.03066039166666666,77.33274564375009
80,0,0.2382076583333333,77.57095330208342
81,42,0.04481134166666666,77.6157646437501
62,0,0.2523586083333333,77.86812325208344
81,0,0.014150949999999997,77.88227420208344
80,42,0.016509441666666663,77.89878364375011
64,42,0,77.89878364375011
64,0,0.5353776083333333,78.43416125208344
59,42,0.03066039166666666,78.46482164375011
80,0,0.5070757083333333,78.97189735208345
59,0,0.028301899999999994,79.00019925208345
76,42,0,79.00019925208345
62,42,0,79.00019925208345
76,0,0.3828125,79.38301175208345
78,42,0.0026041666666666665,79.38561591875012
78,0,0.12760416666666666,79.51322008541679
76,42,0.013020833333333332,79.52624091875012
76,0,0.12760416666666666,79.65384508541679
75,42,0.010416666666666666,79.66426175208346
75,0,0.06510416666666666,79.72936591875013
76,42,0.07291666666666666,79.8022825854168
62,0,0.03645833333333333,79.83874091875013
76,0,0.028645833333333332,79.86738675208346
52,42,0.005208333333333333,79.87259508541679
78,42,0.06648937499999999,79.9390844604168
78,0,0.06648937499999999,80.0055738354168
80,42,0.07446809999999998,80.0800419354168
80,0,0.06648937499999999,80.1465313104168
81,42,0.07446809999999998,80.22099941041681
81,0,0.06648937499999999,80.28748878541681
83,42,0.07712767499999999,80.36461646041681
83,0,0.06648937499999999,80.43110583541682
52,0,0.039893624999999995,80.47099946041682
85,42,0,80.47099946041682
45,42,0,80.47099946041682
45,0,0.66964265625,81.14064211666683
52,42,0.038690464583333334,81.17933258125016
52,0,0.6755950354166667,81.85492761666683
57,42,0,81.85492761666683
57,0,0.7093745270833333,82.56430214375015
61,42,0.04062497291666666,82.60492711666681
61,0,0.7093745270833333,83.31430164375014
64,42,0,83.31430164375014
64,0,0.9458333333333333,84.26013497708348
61,42,0.05416666666666667,84.31430164375014
61,0,0.9458333333333333,85.26013497708348
69,42,0,85.26013497708348
85,0,1.6145833333333333,86.87471831041681
69,0,0.75,87.62471831041681
61,43,0,87.62471831041681
61,0,1.1822916666666665,88.80700997708348
69,43,0,88.80700997708348
42,43,0,88.80700997708348
73,43,0.058333318749999995,88.86534329583348
81,43,0.06666665,88.93200994583349
42,0,0.499999875,89.43200982083349
49,43,0.03611110208333333,89.46812092291682
49,0,0.6305553979166666,90.09867632083349
54,43,0.03611110208333333,90.13478742291683
54,0,0.6305553979166666,90.7653428208335
57,43,0.03611110208333333,90.80145392291683
57,0,0.6305553979166666,91.4320093208335
73,0,0.030555547916666665,91.46256486875016
81,0,0,91.46256486875016
69,0,0.0027777770833333332,91.4653426458335
63,43,0,91.4653426458335
47,43,0,91.4653426458335
69,43,0.065,91.5303426458335
78,43,0.065,91.5953426458335
47,0,0.4375,92.0328426458335
54,43,0.0325,92.0653426458335
54,0,0.5675,92.63284264583349
69,0,0.0275,92.6603426458335
78,0,0,92.6603426458335
63,0,0.0025,92.66284264583349
78,43,0.0025,92.66534264583349
59,43,0,92.66534264583349
59,0,0.5675,93.23284264583349
63,43,0.0325,93.26534264583348
78,0,0.2525,93.51784264583348
80,43,0.0475,93.56534264583348
63,0,0.2675,93.83284264583348
80,0,0.015,93.84784264583348
64,43,0.0175,93.86534264583348
68,43,0,93.86534264583348
76,43,0,93.86534264583348
49,43,0,93.86534264583348
49,0,0.5625,94.42784264583348
64,0,0.0325,94.46034264583348
56,43,0,94.46034264583348
64,43,0,94.46034264583348
68,0,0.5375,94.99784264583347
76,0,0,94.99784264583347
56,0,0.03,95.02784264583347
64,0,0,95.02784264583347
61,43,0.0325,95.06034264583347
42,43,0,95.06034264583347
69,43,0.0625,95.12284264583347
73,43,0.065,95.18784264583347
81,43,0.07,95.25784264583346
42,0,0.37,95.62784264583347
49,43,0.0325,95.66034264583347
49,0,0.5675,96.22784264583346
54,43,0.0325,96.26034264583346
54,0,0.5675,96.82784264583346
57,43,0.0325,96.86034264583346
57,0,0.5675,97.42784264583345
61,0,0.0325,97.46034264583345
61,43,0,97.46034264583345
54,43,0.6,98.06034264583344
54,0,0.5675,98.62784264583344
69,0,0.0275,98.65534264583344
73,0,0,98.65534264583344
81,0,0,98.65534264583344
61,0,0.0025,98.65784264583344
63,42,0,98.65784264583344
78,42,0,98.65784264583344
47,42,0,98.65784264583344
69,42,0.05882355,98.71666619583344
73,42,0.068627475,98.78529367083344
47,0,0.42401975625,99.20931342708344
54,42,0.03186275625,99.24117618333345
78,0,0.52696096875,99.76813715208345
54,0,0.029411775,99.79754892708345
69,0,0.02696079375,99.82450972083346
73,0,0,99.82450972083346
63,0,0.00245098125,99.82696070208347
78,42,0.00245098125,99.82941168333348
71,42,0,99.82941168333348
75,42,0,99.82941168333348
59,42,0,99.82941168333348
78,0,0.55637274375,100.38578442708348
71,0,0,100.38578442708348
75,0,0,100.38578442708348
59,0,0,100.38578442708348
80,42,0.03186275625,100.41764718333349
69,42,0,100.41764718333349
63,42,0,100.41764718333349
80,0,0.55637274375,100.97401992708349
69,0,0,100.97401992708349
63,0,0,100.97401992708349
76,42,0.03186275625,101.0058826833335
68,42,0,101.0058826833335
64,42,0,101.0058826833335
52,42,0,101.0058826833335
64,0,0.55637274375,101.5622554270835
59,42,0.03186275625,101.5941181833335
76,0,0.52696096875,102.12107915208351
68,0,0,102.12107915208351
59,0,0.029411775,102.15049092708351
73,42,0.03186275625,102.18235368333352
69,42,0,102.18235368333352
61,42,0,102.18235368333352
73,0,0.55637274375,102.73872642708352
61,0,0,102.73872642708352
75,42,0.03186275625,102.77058918333353
60,42,0,102.77058918333353
69,0,0.52696096875,103.29755015208353
75,0,0.029411775,103.32696192708353
60,0,0,103.32696192708353
68,42,0,103.32696192708353
76,42,0,103.32696192708353
59,42,0,103.32696192708353
52,0,1.0546875,104.38164942708353
68,0,0.125,104.50664942708353
76,0,0,104.50664942708353
59,0,0,104.50664942708353
68,42,0.06510416666666666,104.5717535937502
64,42,0,104.5717535937502
59,42,0,104.5717535937502
40,42,0,104.5717535937502
52,42,0,104.5717535937502
68,0,0.5911458333333333,105.16289942708353
70,42,0.033854166666666664,105.1967535937502
64,0,0.5598958333333333,105.75664942708353
40,0,0,105.75664942708353
52,0,0,105.75664942708353
70,0,0.03125,105.78789942708353
71,42,0.033854166666666664,105.8217535937502
66,42,0,105.8217535937502
39,42,0,105.8217535937502
51,42,0,105.8217535937502
59,0,1.1223958333333333,106.94414942708353
71,0,0.0625,107.00664942708353
66,0,0,107.00664942708353
39,0,0,107.00664942708353
51,0,0,107.00664942708353
64,42,0.06510416666666666,107.0717535937502
56,42,0,107.0717535937502
37,42,0,107.0717535937502
49,42,0,107.0717535937502
56,0,0.5911458333333333,107.66289942708353
54,42,0.033854166666666664,107.6967535937502
58,42,0,107.6967535937502
64,0,0.5598958333333333,108.25664942708353
37,0,0,108.25664942708353
49,0,0,108.25664942708353
54,0,0.03125,108.28789942708353
58,0,0,108.28789942708353
63,42,0,108.28789942708353
47,42,0,108.28789942708353
63,0,0.05528845416666667,108.3431878812502
78,42,0.0024038458333333333,108.34559172708353
47,0,0.4831730125,108.82876473958353
54,42,0.031249995833333332,108.86001473541687
78,0,0.5168268541666666,109.37684158958353
54,0,0.02884615,109.40568773958354
80,42,0.031249995833333332,109.43693773541688
59,42,0,109.43693773541688
80,0,0.5456730041666666,109.98261073958355
59,0,0,109.98261073958355
82,42,0.031249995833333332,110.01386073541688
63,42,0,110.01386073541688
82,0,0.5456730041666666,110.55953373958356
63,0,0,110.55953373958356
83,42,0.031249995833333332,110.59078373541689
59,42,0,110.59078373541689
83,0,0.216346125,110.8071298604169
85,42,0.014423075,110.82155293541689
85,0,0.216346125,111.03789906041689
83,42,0.014423075,111.05232213541689
59,0,0.08413460416666667,111.13645673958355
66,42,0.031249995833333332,111.16770673541689
83,0,0.100961525,111.26866826041689
82,42,0.014423075,111.28309133541688
82,0,0.216346125,111.49943746041689
83,42,0.014423075,111.51386053541688
66,0,0.19951920416666666,111.71337973958354
83,0,0.01682692083333333,111.73020666041688
85,42,0.014423075,111.74462973541688
59,42,0,111.74462973541688
59,0,0.5456730041666666,112.29030273958355
54,42,0.031249995833333332,112.32155273541689
85,0,0.24278842916666665,112.56434116458355
87,42,0.04567307083333333,112.61001423541688
54,0,0.25721150416666666,112.86722573958355
87,0,0.014423075,112.88164881458354
87,42,0.01682692083333333,112.89847573541688
49,42,0,112.89847573541688
49,0,0.5408653125,113.43934104791688
56,42,0.031249995833333332,113.47059104375022
56,0,0.5456730041666666,114.01626404791689
59,42,0.031249995833333332,114.04751404375023
59,0,0.5456730041666666,114.5931870479169
64,42,0.031249995833333332,114.62443704375023
87,0,0.45913455416666665,115.0835715979169
64,0,0.08653845,115.1701100479169
76,42,0.031249995833333332,115.20136004375024
59,42,0,115.20136004375024
59,0,0.5456730041666666,115.74703304791691
64,42,0.031249995833333332,115.77828304375025
64,0,0.5456730041666666,116.32395604791692
56,42,0.031249995833333332,116.35520604375026
56,0,0.5456730041666666,116.90087904791693
49,42,0.031249995833333332,116.93212904375027
76,0,0.45913455416666665,117.39126359791693
49,0,0.08653845,117.47780204791694
76,42,0,117.47780204791694
42,42,0,117.47780204791694
76,0,0.20754726666666662,117.6853493145836
78,42,0.014150949999999997,117.6995002645836
78,0,0.21226424999999996,117.91176451458361
76,42,0.014150949999999997,117.92591546458361
42,0,0.08254720833333332,118.00846267291695
49,42,0.03066039166666666,118.03912306458362
76,0,0.09905664999999998,118.13817971458361
75,42,0.014150949999999997,118.15233066458362
75,0,0.21226424999999996,118.36459491458362
76,42,0.014150949999999997,118.37874586458362
49,0,0.1957548083333333,118.57450067291695
76,0,0.016509441666666663,118.59101011458363
87,42,0.014150949999999997,118.60516106458363
58,42,0,118.60516106458363
87,0,0.5353776083333333,119.14053867291696
58,0,0,119.14053867291696
85,42,0.03066039166666666,119.17119906458363
64,42,0,119.17119906458363
85,0,0.5353776083333333,119.70657667291697
64,0,0,119.70657667291697
83,42,0.03066039166666666,119.73723706458364
58,42,0,119.73723706458364
83,0,0.2665095583333333,120.00374662291698
82,42,0.016509441666666663,120.02025606458365
82,0,0.06132078333333332,120.08157684791698
83,42,0.002358491666666666,120.08393533958365
83,0,0.06132078333333332,120.14525612291698
82,42,0.004716983333333332,120.14997310625031
58,0,0.12264156666666665,120.27261467291699
82,0,0.01886793333333333,120.29148260625033
80,42,0.011792458333333332,120.30327506458366
64,42,0,120.30327506458366
80,0,0.2665095583333333,120.569784622917
82,42,0.016509441666666663,120.58629406458367
64,0,0.2523586083333333,120.83865267291701
82,0,0.014150949999999997,120.85280362291701
83,42,0.016509441666666663,120.86931306458368
58,42,0,120.86931306458368
58,0,0.5353776083333333,121.40469067291701
54,42,0.03066039166666666,121.43535106458368
83,0,0.2382076583333333,121.67355872291702
85,42,0.04481134166666666,121.7183700645837
54,0,0.2523586083333333,121.97072867291703
85,0,0.014150949999999997,121.98487962291703
85,42,0.016509441666666663,122.0013890645837
47,42,0,122.0013890645837
47,0,0.5306606249999999,122.5320496895837
54,42,0.03066039166666666,122.56271008125037
54,0,0.5353776083333333,123.0980876895837
59,42,0.03066039166666666,123.12874808125038
83,42,0.28301899999999997,123.41176708125037
83,0,0.15801894166666663,123.56978602291704
82,42,0.011792458333333332,123.58157848125038
59,0,0.08254720833333332,123.66412568958371
63,42,0.03066039166666666,123.69478608125038
82,0,0.04481134166666666,123.73959742291706
80,42,0.011792458333333332,123.75138988125039
80,0,0.15801894166666663,123.90940882291706
78,42,0.011792458333333332,123.92120128125039
78,0,0.15801894166666663,124.07922022291706
76,42,0.011792458333333332,124.09101268125039
85,0,0.054245308333333325,124.14525798958373
63,0,0.08490569999999999,124.23016368958372
76,0,0.01886793333333333,124.24903162291706
75,42,0.011792458333333332,124.26082408125039
59,42,0,124.26082408125039
59,0,0.5353776083333333,124.79620168958373
66,42,0.03066039166666666,124.8268620812504
66,0,0.5353776083333333,125.36223968958373
59,42,0.03066039166666666,125.3929000812504
59,0,0.5353776083333333,125.92827768958374
51,42,0.03066039166666666,125.95893808125041
75,0,0.4504719083333332,126.40940998958374
51,0,0.08490569999999999,126.49431568958373
73,42,0,126.49431568958373
52,42,0,126.49431568958373
52,0,0,126.49431568958373
52,42,0,126.49431568958373
54,42,0.5721153083333333,127.06643099791707
73,0,0.5168268541666666,127.58325785208373
54,0,0.02884615,127.61210400208374
75,42,0.031249995833333332,127.64335399791707
58,42,0,127.64335399791707
58,0,0.5456730041666666,128.18902700208375
66,42,0.031249995833333332,128.22027699791707
75,0,0.24278842916666665,128.46306542708373
70,42,0.04567307083333333,128.50873849791708
52,0,0.17067305416666667,128.67941155208374
66,0,0.08653845,128.76595000208374
70,0,0.014423075,128.78037307708374
71,42,0.01682692083333333,128.79719999791706
51,42,0,128.79719999791706
51,0,0,128.79719999791706
51,42,0,128.79719999791706
71,0,0.08173075833333333,128.87893075625038
73,42,0.0072115375,128.8861422937504
73,0,0.08173075833333333,128.96787305208372
71,42,0.0072115375,128.97508458958373
71,0,0.08173075833333333,129.05681534791705
73,42,0.0072115375,129.06402688541706
73,0,0.08173075833333333,129.1457576437504
71,42,0.0072115375,129.1529691812504
71,0,0.08173075833333333,129.23469993958372
73,42,0.0072115375,129.24191147708373
73,0,0.08173075833333333,129.32364223541705
71,42,0.0072115375,129.33085377291707
54,42,0.043269225,129.37412299791706
71,0,0.03846153333333333,129.4125845312504
73,42,0.0048076916666666665,129.41739222291704
73,0,0.08173075833333333,129.49912298125037
71,42,0.0072115375,129.50633451875038
71,0,0.08173075833333333,129.5880652770837
73,42,0.0072115375,129.5952768145837
73,0,0.08173075833333333,129.67700757291703
71,42,0.0072115375,129.68421911041705
71,0,0.08173075833333333,129.76594986875037
70,42,0.0072115375,129.77316140625038
70,0,0.08173075833333333,129.8548921645837
71,42,0.0072115375,129.86210370208372
54,0,0.0576923,129.91979600208373
71,0,0.024038458333333332,129.94383446041707
59,42,0.0072115375,129.95104599791708
73,42,0.12980767499999998,130.08085367291707
59,0,0.41586532916666663,130.49671900208375
73,0,0.0048076916666666665,130.5015266937504
74,42,0.026442304166666666,130.52796899791707
66,42,0,130.52796899791707
51,0,0.45913455416666665,130.98710355208374
74,0,0.08653845,131.07364200208374
66,0,0,131.07364200208374
75,42,0.031249995833333332,131.10489199791706
54,42,0,131.10489199791706
54,0,0,131.10489199791706
54,42,0,131.10489199791706
75,0,0.5408653125,131.64575731041705
76,42,0.031249995833333332,131.67700730625037
56,42,0,131.67700730625037
56,0,0.5456730041666666,132.22268031041705
60,42,0.031249995833333332,132.25393030625037
76,0,0.5168268541666666,132.77075716041705
60,0,0.02884615,132.79960331041704
72,42,0.031249995833333332,132.83085330625036
68,42,0,132.83085330625036
54,0,0.45913455416666665,133.28998786041703
72,0,0.08653845,133.37652631041703
68,0,0,133.37652631041703
73,42,0.031249995833333332,133.40777630625035
52,42,0,133.40777630625035
52,0,0,133.40777630625035
52,42,0,133.40777630625035
73,0,0.216346125,133.62412243125036
75,42,0.014423075,133.63854550625035
75,0,0.216346125,133.85489163125035
73,42,0.014423075,133.86931470625035
56,42,0.1153846,133.98469930625035
73,0,0.100961525,134.08566083125035
72,42,0.014423075,134.10008390625035
72,0,0.216346125,134.31643003125035
73,42,0.014423075,134.33085310625034
56,0,0.19951920416666666,134.53037231041702
73,0,0.01682692083333333,134.54719923125035
75,42,0.014423075,134.56162230625034
61,42,0,134.56162230625034
75,0,0.2860576541666667,134.847679960417
61,0,0.25961534999999997,135.107295310417
76,42,0.031249995833333332,135.1385453062503
68,42,0,135.1385453062503
76,0,0.2860576541666667,135.42460296041696
52,0,0.1730769,135.59767986041697
68,0,0.08653845,135.68421831041698
78,43,0,135.68421831041698
69,43,0,135.68421831041698
71,43,0,135.68421831041698
75,43,0,135.68421831041698
47,43,0,135.68421831041698
47,0,0.19270833333333331,135.87692664375032
54,25,0.033854166666666664,135.91078081041698
78,0,0.5598958333333333,136.47067664375032
69,0,0,136.47067664375032
71,0,0,136.47067664375032
75,0,0,136.47067664375032
54,0,0.03125,136.50192664375032
79,45,0,136.50192664375032
69,45,0,136.50192664375032
71,45,0,136.50192664375032
75,45,0,136.50192664375032
59,45,0,136.50192664375032
59,0,0.20478727499999996,136.70671391875032
63,27,0,136.70671391875032
79,0,0.624999625,137.3317135437503
69,0,0,137.3317135437503
71,0,0,137.3317135437503
75,0,0,137.3317135437503
63,0,0.034883700000000004,137.3665972437503
80,58,0,137.3665972437503
68,40,0,137.3665972437503
40,40,0,137.3665972437503
40,0,0.019230775,137.38582801875032
71,39,0.0032051291666666667,137.389033147917
52,39,0,137.389033147917
76,37,0.0096153875,137.39864853541698
80,0,0,137.39864853541698
80,35,0,137.39864853541698
80,0,0.21794878333333334,137.6165973187503
80,43,0,137.6165973187503
52,0,0.11217952083333334,137.72877683958365
56,30,0.041666679166666665,137.7704435187503
80,0,0.4615386,138.23198211875032
80,43,0,138.23198211875032
56,0,0.2660257208333333,138.49800783958366
71,0,0.035256420833333336,138.53326426041698
76,0,0,138.53326426041698
68,0,0.0032051291666666667,138.53646938958366
59,30,0,138.53646938958366
80,0,0.3541666666666667,138.89063605625032
80,43,0.04583333333333333,138.93646938958364
59,0,0.5458333333333333,139.48230272291696
64,30,0.05416666666666667,139.53646938958363
80,0,0.15416666666666667,139.6906360562503
80,43,0.04583333333333333,139.73646938958362
64,0,0.7458333333333333,140.48230272291696
80,0,0.008333333333333333,140.49063605625028
80,49,0,140.49063605625028
64,41,0,140.49063605625028
42,41,0,140.49063605625028
70,41,0.041666666666666664,140.53230272291694
73,41,0.06666666666666667,140.5989693895836
42,0,1.1333333333333333,141.73230272291693
49,41,0.004166666666666667,141.7364693895836
49,0,0.6291666666666667,142.36563605625025
54,41,0.0375,142.40313605625025
80,0,0.0875,142.49063605625025
79,41,0.07916666666666666,142.56980272291693
54,0,0.46249999999999997,143.03230272291694
79,0,0.008333333333333333,143.04063605625026
70,0,0.020833333333333332,143.0614693895836
73,0,0,143.0614693895836
64,0,0.004166666666666667,143.06563605625027
78,41,0,143.06563605625027
58,41,0,143.06563605625027
78,0,0.4708333333333333,143.5364693895836
58,0,0,143.5364693895836
77,41,0.029166666666666667,143.56563605625027
61,41,0,143.56563605625027
77,0,0.4708333333333333,144.0364693895836
61,0,0,144.0364693895836
76,41,0.029166666666666667,144.06563605625027
64,41,0,144.06563605625027
76,0,0.4708333333333333,144.5364693895836
64,0,0,144.5364693895836
75,41,0.029166666666666667,144.56563605625027
66,41,0,144.56563605625027
75,0,0.4708333333333333,145.0364693895836
66,0,0,145.0364693895836
73,41,0,145.0364693895836
70,41,0,145.0364693895836
73,0,3.5572916666666665,148.59376105625026
70,0,0,148.59376105625026
74,41,0.0026041666666666665,148.59636522291692
74,0,0.5911458333333333,149.18751105625026
75,42,0,149.18751105625026
47,42,0,149.18751105625026
47,0,0.5408653125,149.72837636875025
54,42,0.031249995833333332,149.75962636458357
54,0,0.5456730041666666,150.30529936875024
59,42,0.031249995833333332,150.33654936458356
63,42,0,150.33654936458356
75,0,0.48798070416666667,150.82453006875022
59,0,0.0576923,150.88222236875023
63,0,0,150.88222236875023
76,42,0.031249995833333332,150.91347236458355
54,42,0,150.91347236458355
76,0,0.5456730041666666,151.45914536875023
54,0,0,151.45914536875023
78,42,0.031249995833333332,151.49039536458355
78,0,0,151.49039536458355
78,42,0,151.49039536458355
47,42,0,151.49039536458355
80,42,0.2307692,151.72116456458355
80,0,0.216346125,151.93751068958355
78,0,0.014423075,151.95193376458354
78,42,0,151.95193376458354
47,0,0.08413460416666667,152.03606836875022
54,42,0.031249995833333332,152.06731836458354
77,42,0.1153846,152.18270296458354
77,0,0.216346125,152.39904908958354
78,0,0.014423075,152.41347216458354
78,42,0,152.41347216458354
54,0,0.19951920416666666,152.61299136875022
78,0,0.01682692083333333,152.62981828958354
83,42,0.014423075,152.64424136458354
59,42,0,152.64424136458354
63,42,0,152.64424136458354
83,0,0.5456730041666666,153.1899143687502
59,0,0,153.1899143687502
63,0,0,153.1899143687502
87,42,0.031249995833333332,153.22116436458353
54,42,0,153.22116436458353
87,0,0.5456730041666666,153.7668373687502
54,0,0,153.7668373687502
85,42,0,153.7668373687502
42,42,0,153.7668373687502
42,0,0.5306606249999999,154.2974979937502
54,42,0.03066039166666666,154.32815838541686
54,0,0.5353776083333333,154.8635359937502
58,42,0.03066039166666666,154.89419638541685
64,42,0,154.89419638541685
85,0,0.4787738083333332,155.37297019375018
58,0,0.05660379999999999,155.42957399375018
64,0,0,155.42957399375018
82,42,0.03066039166666666,155.46023438541684
54,42,0,155.46023438541684
82,0,0.5353776083333333,155.99561199375017
54,0,0,155.99561199375017
78,42,0.03066039166666666,156.02627238541683
42,42,0,156.02627238541683
42,0,0.5353776083333333,156.56164999375017
54,42,0.03066039166666666,156.59231038541682
54,0,0.5353776083333333,157.12768799375016
66,42,0.03066039166666666,157.15834838541682
78,0,0.4787738083333332,157.63712219375014
66,0,0.05660379999999999,157.69372599375015
76,42,0.03066039166666666,157.7243863854168
54,42,0,157.7243863854168
76,0,0.5353776083333333,158.25976399375014
54,0,0,158.25976399375014
75,42,0.03066039166666666,158.2904243854168
47,42,0,158.2904243854168
47,0,0.5306606249999999,158.8210850104168
54,42,0.03066039166666666,158.85174540208345
54,0,0.5353776083333333,159.3871230104168
59,42,0.03066039166666666,159.41778340208344
63,42,0,159.41778340208344
75,0,0.4787738083333332,159.89655721041677
59,0,0.05660379999999999,159.95316101041678
63,0,0,159.95316101041678
76,42,0.03066039166666666,159.98382140208344
54,42,0,159.98382140208344
76,0,0.5353776083333333,160.51919901041677
54,0,0,160.51919901041677
78,42,0.03066039166666666,160.54985940208343
47,42,0,160.54985940208343
78,0,0.063679275,160.61353867708343
80,42,0.007075474999999999,160.62061415208342
80,0,0.063679275,160.68429342708342
78,42,0.007075474999999999,160.6913689020834
78,0,0.1320755333333333,160.82344443541675
77,42,0.009433966666666665,160.83287840208342
77,0,0.1391510083333333,160.97202941041675
47,0,0.11320759999999998,161.08523701041676
78,42,0.03066039166666666,161.11589740208342
54,42,0,161.11589740208342
78,0,0.1391510083333333,161.25504841041675
80,42,0.14386799166666664,161.39891640208342
80,0,0.1391510083333333,161.53806741041674
54,0,0.11320759999999998,161.65127501041675
82,42,0.03066039166666666,161.6819354020834
66,42,0,161.6819354020834
82,0,0.2665095583333333,161.94844496041674
83,42,0.016509441666666663,161.9649544020834
66,0,0.2523586083333333,162.21731301041675
83,0,0.014150949999999997,162.23146396041673
85,42,0.016509441666666663,162.2479734020834
54,42,0,162.2479734020834
85,0,0.2665095583333333,162.51448296041673
87,42,0.016509441666666663,162.5309924020834
54,0,0.2523586083333333,162.78335101041674
87,0,0.014150949999999997,162.79750196041672
87,42,0.016509441666666663,162.8140114020834
42,42,0,162.8140114020834
87,0,0.5306606249999999,163.3446720270834
42,0,0,163.3446720270834
85,42,0.03066039166666666,163.37533241875005
54,42,0,163.37533241875005
54,0,0.5353776083333333,163.91071002708338
58,42,0.03066039166666666,163.94137041875004
64,42,0,163.94137041875004
85,0,0.5070757083333333,164.44844612708337
58,0,0.028301899999999994,164.47674802708337
64,0,0,164.47674802708337
82,42,0.03066039166666666,164.50740841875003
54,42,0,164.50740841875003
54,0,0.5353776083333333,165.04278602708337
42,42,0.03066039166666666,165.07344641875002
82,0,0.5070757083333333,165.58052212708336
42,0,0.028301899999999994,165.60882402708336
78,42,0.03066039166666666,165.63948441875002
54,42,0,165.63948441875002
54,0,0.5353776083333333,166.17486202708335
66,42,0.03066039166666666,166.20552241875
78,0,0.5070757083333333,166.71259812708334
66,0,0.028301899999999994,166.74090002708334
76,42,0.03066039166666666,166.77156041875
54,42,0,166.77156041875
76,0,0.5353776083333333,167.30693802708333
54,0,0,167.30693802708333
75,42,0.03066039166666666,167.33759841875
47,42,0,167.33759841875
47,0,0.5306606249999999,167.86825904375
54,42,0.03066039166666666,167.89891943541664
75,0,0.5070757083333333,168.40599514374998
54,0,0.028301899999999994,168.43429704374998
80,42,0.03066039166666666,168.46495743541664
59,42,0,168.46495743541664
59,0,0.5353776083333333,169.00033504374997
63,42,0.03066039166666666,169.03099543541663
80,0,0.2382076583333333,169.26920309374995
78,42,0.04481134166666666,169.31401443541662
63,0,0.2523586083333333,169.56637304374996
78,0,0.014150949999999997,169.58052399374995
77,42,0.016509441666666663,169.59703343541662
47,42,0,169.59703343541662
47,0,0.5353776083333333,170.13241104374995
53,42,0.03066039166666666,170.1630714354166
77,0,0.5070757083333333,170.67014714374994
53,0,0.028301899999999994,170.69844904374995
82,42,0.03066039166666666,170.7291094354166
56,42,0,170.7291094354166
56,0,0.5353776083333333,171.26448704374994
61,42,0.03066039166666666,171.2951474354166
82,0,0.2382076583333333,171.53335509374992
80,42,0.04481134166666666,171.5781664354166
61,0,0.2523586083333333,171.83052504374993
80,0,0.014150949999999997,171.84467599374992
78,42,0.016509441666666663,171.8611854354166
46,42,0,171.8611854354166
46,0,0.5306606249999999,172.39184606041658
49,42,0.03066039166666666,172.42250645208324
78,0,0.5070757083333333,172.92958216041657
49,0,0.028301899999999994,172.95788406041657
83,42,0.03066039166666666,172.98854445208323
54,42,0,172.98854445208323
54,0,0.5353776083333333,173.52392206041657
61,42,0.03066039166666666,173.55458245208322
83,0,0.2382076583333333,173.79279011041655
82,42,0.04481134166666666,173.83760145208322
61,0,0.2523586083333333,174.08996006041656
82,0,0.014150949999999997,174.10411101041655
80,42,0.016509441666666663,174.12062045208322
48,42,0,174.12062045208322
80,0,0.2665095583333333,174.38713001041654
78,42,0.016509441666666663,174.4036394520832
48,0,0.2523586083333333,174.65599806041655
78,0,0.014150949999999997,174.67014901041654
94,42,0,174.67014901041654
54,42,0,174.67014901041654
94,0,0.417453025,175.08760203541652
92,42,0,175.08760203541652
54,0,0.22169821666666661,175.30930025208318
92,0,0.04245284999999999,175.35175310208317
90,42,0.002358491666666666,175.35411159374982
56,42,0,175.35411159374982
90,0,0.2665095583333333,175.62062115208315
89,42,0.016509441666666663,175.63713059374982
56,0,0.2523586083333333,175.88948920208315
89,0,0.014150949999999997,175.90364015208314
92,42,0.016509441666666663,175.9201495937498
63,42,0,175.9201495937498
92,0,0.10377363333333331,176.02392322708315
90,42,0.009433966666666665,176.03335719374982
90,0,0.10377363333333331,176.13713082708315
89,42,0.009433966666666665,176.14656479374983
89,0,0.10377363333333331,176.25033842708316
90,42,0.009433966666666665,176.25977239374984
90,0,0.10377363333333331,176.36354602708317
87,42,0.009433966666666665,176.37297999374985
63,0,0.08254720833333332,176.45552720208318
87,0,0.021226424999999997,176.47675362708318
85,42,0.009433966666666665,176.48618759374986
49,42,0,176.48618759374986
85,0,0.17216989166666663,176.65835748541653
99,42,0.011792458333333332,176.67014994374986
99,0,0.17688687499999997,176.84703681874987
90,42,0.011792458333333332,176.8588292770832
49,0,0.15801894166666663,177.01684821874986
90,0,0.01886793333333333,177.03571615208318
97,42,0.011792458333333332,177.04750861041651
58,42,0,177.04750861041651
97,0,0.17688687499999997,177.22439548541652
85,42,0.011792458333333332,177.23618794374985
85,0,0.17688687499999997,177.41307481874986
95,42,0.011792458333333332,177.4248672770832
58,0,0.15801894166666663,177.58288621874985
95,0,0.01886793333333333,177.60175415208317
90,42,0.011792458333333332,177.6135466104165
61,42,0,177.6135466104165
90,0,0.17688687499999997,177.79043348541651
94,42,0.011792458333333332,177.80222594374985
94,0,0.17688687499999997,177.97911281874985
82,42,0.011792458333333332,177.9909052770832
61,0,0.15801894166666663,178.14892421874984
82,0,0.01886793333333333,178.16779215208317
92,42,0.011792458333333332,178.1795846104165
66,42,0,178.1795846104165
92,0,0.17688687499999997,178.3564714854165
85,42,0.011792458333333332,178.36826394374984
85,0,0.17688687499999997,178.54515081874985
90,42,0.011792458333333332,178.55694327708318
66,0,0.15801894166666663,178.71496221874983
90,0,0.01886793333333333,178.73383015208316
80,42,0.011792458333333332,178.7456226104165
49,42,0,178.7456226104165
80,0,0.17688687499999997,178.9225094854165
89,42,0.011792458333333332,178.93430194374983
89,0,0.17688687499999997,179.11118881874984
83,42,0.011792458333333332,179.12298127708317
49,0,0.15801894166666663,179.28100021874982
83,0,0.01886793333333333,179.29986815208315
87,42,0.011792458333333332,179.31166061041648
56,42,0,179.31166061041648
87,0,0.17688687499999997,179.4885474854165
77,42,0.011792458333333332,179.50033994374982
77,0,0.17688687499999997,179.67722681874983
85,42,0.011792458333333332,179.68901927708316
56,0,0.15801894166666663,179.84703821874982
85,0,0.01886793333333333,179.86590615208314
80,42,0.011792458333333332,179.87769861041647
61,42,0,179.87769861041647
80,0,0.17688687499999997,180.05458548541648
83,42,0.011792458333333332,180.0663779437498
83,0,0.17688687499999997,180.24326481874982
71,42,0.011792458333333332,180.25505727708315
61,0,0.15801894166666663,180.4130762187498
71,0,0.01886793333333333,180.43194415208313
82,42,0.011792458333333332,180.44373661041647
65,42,0,180.44373661041647
82,0,0.17688687499999997,180.62062348541647
77,42,0.011792458333333332,180.6324159437498
77,0,0.17688687499999997,180.8093028187498
80,42,0.011792458333333332,180.82109527708315
65,0,0.15801894166666663,180.9791142187498
80,0,0.01886793333333333,180.99798215208313
70,42,0.011792458333333332,181.00977461041646
78,42,0,181.00977461041646
42,42,0,181.00977461041646
42,0,0.5306606249999999,181.54043523541645
54,42,0.03066039166666666,181.5710956270831
70,0,0.5070757083333333,182.07817133541644
78,0,0,182.07817133541644
54,0,0.028301899999999994,182.10647323541644
76,42,0,182.10647323541644
80,42,0,182.10647323541644
64,42,0,182.10647323541644
64,0,0.5675,182.67397323541644
68,42,0.0325,182.70647323541644
76,0,0.5375,183.24397323541643
80,0,0,183.24397323541643
68,0,0.03,183.27397323541643
73,42,0.0325,183.30647323541643
76,42,0,183.30647323541643
61,42,0,183.30647323541643
61,0,0.5675,183.87397323541643
64,42,0.0325,183.90647323541643
73,0,0.5375,184.44397323541642
76,0,0,184.44397323541642
64,0,0.03,184.47397323541642
64,42,0.0325,184.50647323541642
70,42,0,184.50647323541642
75,42,0,184.50647323541642
54,42,0,184.50647323541642
54,0,0.5675,185.07397323541642
66,42,0.0325,185.10647323541642
64,0,0.5375,185.6439732354164
70,0,0,185.6439732354164
75,0,0,185.6439732354164
66,0,0.03,185.6739732354164
71,42,0,185.6739732354164
75,42,0,185.6739732354164
47,42,0,185.6739732354164
71,0,0.5408653125,186.2148385479164
75,0,0,186.2148385479164
47,0,0,186.2148385479164
73,42,0.031249995833333332,186.24608854374972
76,42,0,186.24608854374972
54,42,0,186.24608854374972
73,0,0.27163457916666667,186.51772312291638
76,0,0,186.51772312291638
71,42,0.01682692083333333,186.5345500437497
75,42,0,186.5345500437497
54,0,0.25721150416666666,186.79176154791637
71,0,0.014423075,186.80618462291636
75,0,0,186.80618462291636
70,42,0.01682692083333333,186.8230115437497
74,42,0,186.8230115437497
59,42,0,186.8230115437497
63,42,0,186.8230115437497
70,0,0.27163457916666667,187.09464612291634
74,0,0,187.09464612291634
71,42,0.01682692083333333,187.11147304374967
75,42,0,187.11147304374967
59,0,0.25721150416666666,187.36868454791633
63,0,0,187.36868454791633
71,0,0.014423075,187.38310762291633
75,0,0,187.38310762291633
73,42,0.01682692083333333,187.39993454374965
76,42,0,187.39993454374965
54,42,0,187.39993454374965
73,0,0.27163457916666667,187.6715691229163
76,0,0,187.6715691229163
74,42,0.01682692083333333,187.68839604374963
77,42,0,187.68839604374963
54,0,0.25721150416666666,187.9456075479163
74,0,0.014423075,187.9600306229163
77,0,0,187.9600306229163
75,42,0.01682692083333333,187.97685754374962
78,42,0,187.97685754374962
47,42,0,187.97685754374962
75,0,0.27163457916666667,188.24849212291628
78,0,0,188.24849212291628
74,42,0.01682692083333333,188.2653190437496
77,42,0,188.2653190437496
47,0,0.25721150416666666,188.52253054791626
74,0,0.014423075,188.53695362291626
77,0,0,188.53695362291626
75,42,0.01682692083333333,188.55378054374958
78,42,0,188.55378054374958
54,42,0,188.55378054374958
75,0,0.27163457916666667,188.82541512291624
78,0,0,188.82541512291624
76,42,0.01682692083333333,188.84224204374956
80,42,0,188.84224204374956
54,0,0.25721150416666666,189.09945354791623
76,0,0.014423075,189.11387662291622
80,0,0,189.11387662291622
73,42,0.01682692083333333,189.13070354374955
82,42,0,189.13070354374955
59,42,0,189.13070354374955
63,42,0,189.13070354374955
73,0,0.27163457916666667,189.4023381229162
82,0,0,189.4023381229162
75,42,0.01682692083333333,189.41916504374953
83,42,0,189.41916504374953
59,0,0.25721150416666666,189.6763765479162
63,0,0,189.6763765479162
75,0,0.014423075,189.6907996229162
83,0,0,189.6907996229162
78,42,0.01682692083333333,189.7076265437495
85,42,0,189.7076265437495
54,42,0,189.7076265437495
78,0,0.27163457916666667,189.97926112291617
85,0,0,189.97926112291617
83,42,0.16105767083333333,190.14031879374951
87,42,0,190.14031879374951
54,0,0.11298075416666667,190.25329954791619
83,0,0.0216346125,190.2749341604162
87,0,0,190.2749341604162
83,45,0,190.2749341604162
87,45,0,190.2749341604162
42,45,0,190.2749341604162
42,0,0.5306606249999999,190.8055947854162
54,45,0.03066039166666666,190.83625517708285
54,0,0.5353776083333333,191.37163278541618
61,45,0.03066039166666666,191.40229317708284
64,45,0,191.40229317708284
83,0,0.2099057583333333,191.61219893541616
87,0,0,191.61219893541616
82,45,0.07311324166666665,191.68531217708284
85,45,0,191.68531217708284
61,0,0.2523586083333333,191.93767078541617
64,0,0,191.93767078541617
82,0,0.014150949999999997,191.95182173541616
85,0,0,191.95182173541616
73,45,0.016509441666666663,191.96833117708283
54,45,0,191.96833117708283
73,0,0.2665095583333333,192.23484073541616
76,45,0.016509441666666663,192.25135017708283
80,45,0,192.25135017708283
54,0,0.2523586083333333,192.50370878541617
76,0,0.014150949999999997,192.51785973541615
80,0,0,192.51785973541615
83,45,0.016509441666666663,192.53436917708282
42,45,0,192.53436917708282
83,0,0.2665095583333333,192.80087873541615
78,45,0.016509441666666663,192.81738817708282
82,45,0,192.81738817708282
42,0,0.2523586083333333,193.06974678541616
78,0,0.014150949999999997,193.08389773541614
82,0,0,193.08389773541614
70,45,0.016509441666666663,193.10040717708281
54,45,0,193.10040717708281
70,0,0.2665095583333333,193.36691673541614
75,45,0.016509441666666663,193.3834261770828
78,45,0,193.3834261770828
54,0,0.2523586083333333,193.63578478541615
75,0,0.014150949999999997,193.64993573541614
78,0,0,193.64993573541614
82,45,0.016509441666666663,193.6664451770828
66,45,0,193.6664451770828
82,0,0.2665095583333333,193.93295473541613
76,45,0.016509441666666663,193.9494641770828
80,45,0,193.9494641770828
66,0,0.2523586083333333,194.20182278541614
76,0,0.014150949999999997,194.21597373541613
80,0,0,194.21597373541613
73,45,0.016509441666666663,194.2324831770828
73,0,0,194.2324831770828
73,45,0,194.2324831770828
54,45,0,194.2324831770828
78,45,0.28301899999999997,194.5155021770828
73,0,0.2523586083333333,194.76786078541613
54,0,0,194.76786078541613
78,0,0.014150949999999997,194.78201173541612
71,43,0,194.78201173541612
75,43,0,194.78201173541612
47,43,0,194.78201173541612
71,0,0.06,194.84201173541612
75,0,0,194.84201173541612
73,43,0.0075,194.84951173541612
76,43,0,194.84951173541612
73,0,0.065,194.9145117354161
76,0,0,194.9145117354161
71,43,0.0125,194.9270117354161
75,43,0,194.9270117354161
71,0,0.065,194.9920117354161
75,0,0,194.9920117354161
73,43,0.0075,194.9995117354161
76,43,0,194.9995117354161
73,0,0.065,195.0645117354161
76,0,0,195.0645117354161
71,43,0.0125,195.07701173541608
75,43,0,195.07701173541608
71,0,0.065,195.14201173541608
75,0,0,195.14201173541608
73,43,0.0075,195.14951173541607
76,43,0,195.14951173541607
73,0,0.065,195.21451173541607
76,0,0,195.21451173541607
71,43,0.0125,195.22701173541606
75,43,0,195.22701173541606
71,0,0.065,195.29201173541605
75,0,0,195.29201173541605
73,43,0.0075,195.29951173541605
76,43,0,195.29951173541605
47,0,0.045,195.34451173541603
73,0,0.02,195.36451173541604
76,0,0,195.36451173541604
71,43,0.0125,195.37701173541603
75,43,0,195.37701173541603
54,43,0,195.37701173541603
71,0,0.065,195.44201173541603
75,0,0,195.44201173541603
73,43,0.0075,195.44951173541602
76,43,0,195.44951173541602
73,0,0.065,195.51451173541602
76,0,0,195.51451173541602
71,43,0.0125,195.527011735416
75,43,0,195.527011735416
71,0,0.065,195.592011735416
75,0,0,195.592011735416
73,43,0.0075,195.599511735416
76,43,0,195.599511735416
73,0,0.065,195.664511735416
76,0,0,195.664511735416
71,43,0.0125,195.677011735416
75,43,0,195.677011735416
71,0,0.065,195.74201173541599
75,0,0,195.74201173541599
73,43,0.0075,195.74951173541598
76,43,0,195.74951173541598
73,0,0.065,195.81451173541598
76,0,0,195.81451173541598
71,43,0.0125,195.82701173541597
75,43,0,195.82701173541597
71,0,0.065,195.89201173541596
75,0,0,195.89201173541596
73,43,0.0075,195.89951173541596
76,43,0,195.89951173541596
54,0,0.045,195.94451173541594
73,0,0.02,195.96451173541595
76,0,0,195.96451173541595
70,43,0.0125,195.97701173541594
74,43,0,195.97701173541594
59,43,0,195.97701173541594
63,43,0,195.97701173541594
70,0,0.28250000000000003,196.25951173541594
74,0,0,196.25951173541594
71,43,0.0175,196.27701173541595
75,43,0,196.27701173541595
59,0,0.2675,196.54451173541597
63,0,0,196.54451173541597
71,0,0.015,196.55951173541595
75,0,0,196.55951173541595
73,43,0.0175,196.57701173541597
76,43,0,196.57701173541597
54,43,0,196.57701173541597
73,0,0.28250000000000003,196.85951173541596
76,0,0,196.85951173541596
74,43,0.0175,196.87701173541598
77,43,0,196.87701173541598
54,0,0.2675,197.144511735416
74,0,0.015,197.15951173541598
77,0,0,197.15951173541598
75,43,0.0175,197.177011735416
78,43,0,197.177011735416
47,43,0,197.177011735416
75,0,0.0675,197.24451173541598
78,0,0,197.24451173541598
77,43,0.0075,197.25201173541598
80,43,0,197.25201173541598
77,0,0.0675,197.31951173541597
80,0,0,197.31951173541597
75,43,0.0075,197.32701173541597
78,43,0,197.32701173541597
75,0,0.14,197.46701173541595
78,0,0,197.46701173541595
74,43,0.01,197.47701173541594
77,43,0,197.47701173541594
47,0,0.2675,197.74451173541595
74,0,0.015,197.75951173541594
77,0,0,197.75951173541594
75,43,0.0175,197.77701173541595
78,43,0,197.77701173541595
54,43,0,197.77701173541595
75,0,0.28250000000000003,198.05951173541595
78,0,0,198.05951173541595
76,43,0.1675,198.22701173541594
80,43,0,198.22701173541594
54,0,0.11750000000000001,198.34451173541595
76,0,0.0225,198.36701173541596
80,0,0,198.36701173541596
76,43,0.01,198.37701173541595
80,43,0,198.37701173541595
59,43,0,198.37701173541595
63,43,0,198.37701173541595
76,0,0.1875,198.56451173541595
80,0,0,198.56451173541595
73,43,0.0125,198.57701173541594
82,43,0,198.57701173541594
73,0,0.1875,198.76451173541594
82,0,0,198.76451173541594
75,43,0.1125,198.87701173541595
83,43,0,198.87701173541595
59,0,0.0675,198.94451173541594
63,0,0,198.94451173541594
75,0,0.025,198.96951173541595
83,0,0,198.96951173541595
75,43,0.0075,198.97701173541594
83,43,0,198.97701173541594
54,43,0,198.97701173541594
75,0,0.1875,199.16451173541594
83,0,0,199.16451173541594
78,43,0.0125,199.17701173541593
85,43,0,199.17701173541593
78,0,0.1875,199.36451173541593
85,0,0,199.36451173541593
83,43,0.1125,199.47701173541594
87,43,0,199.47701173541594
54,0,0.0675,199.54451173541594
83,0,0.025,199.56951173541594
87,0,0,199.56951173541594
83,43,0,199.56951173541594
87,43,0,199.56951173541594
42,43,0,199.56951173541594
83,0,0.27205891875,199.84157065416593
87,0,0,199.84157065416593
82,43,0.01715686875,199.85872752291593
85,43,0,199.85872752291593
42,0,0.26225499375,200.12098251666592
82,0,0.0147058875,200.13568840416593
85,0,0,200.13568840416593
88,43,0.01715686875,200.15284527291593
54,43,0,200.15284527291593
88,0,0.27696088125,200.42980615416593
73,43,0.01715686875,200.44696302291592
54,0,0.26225499375,200.70921801666591
73,0,0.0147058875,200.72392390416593
82,43,0.01715686875,200.74108077291592
85,43,0,200.74108077291592
61,43,0,200.74108077291592
64,43,0,200.74108077291592
82,0,0.27696088125,201.01804165416593
85,0,0,201.01804165416593
80,43,0.01715686875,201.03519852291592
83,43,0,201.03519852291592
61,0,0.26225499375,201.2974535166659
64,0,0,201.2974535166659
80,0,0.0147058875,201.31215940416593
83,0,0,201.31215940416593
87,43,0.01715686875,201.32931627291592
54,43,0,201.32931627291592
87,0,0.27696088125,201.60627715416592
71,43,0.01715686875,201.62343402291592
54,0,0.26225499375,201.8856890166659
71,0,0.0147058875,201.90039490416592
80,43,0.01715686875,201.9175517729159
83,43,0,201.9175517729159
42,43,0,201.9175517729159
80,0,0.27696088125,202.19451265416592
83,0,0,202.19451265416592
78,43,0.01715686875,202.2116695229159
82,43,0,202.2116695229159
42,0,0.26225499375,202.4739245166659
78,0,0.0147058875,202.48863040416592
82,0,0,202.48863040416592
85,43,0.01715686875,202.5057872729159
54,43,0,202.5057872729159
85,0,0.27696088125,202.78274815416592
70,43,0.16421574375,202.9469638979159
54,0,0.11519611874999999,203.0621600166659
70,0,0.02205883125,203.0842188479159
78,43,0.009803925,203.0940227729159
82,43,0,203.0940227729159
66,43,0,203.0940227729159
78,0,0.27696088125,203.3709836541659
82,0,0,203.3709836541659
76,43,0.01715686875,203.3881405229159
80,43,0,203.3881405229159
66,0,0.26225499375,203.6503955166659
76,0,0.0147058875,203.6651014041659
80,0,0,203.6651014041659
73,43,0.01715686875,203.6822582729159
73,0,0,203.6822582729159
73,43,0,203.6822582729159
54,43,0,203.6822582729159
78,43,0.1960785,203.8783367729159
78,0,0.18382359375,204.0621603666659
76,43,0.01225490625,204.0744152729159
73,0,0.16421574375,204.2386310166659
54,0,0,204.2386310166659
76,0,0.01960785,204.2582388666659
71,43,0,204.2582388666659
75,43,0,204.2582388666659
47,43,0,204.2582388666659
47,0,0,204.2582388666659
47,43,0,204.2582388666659
71,0,0.18509612916666665,204.44333499583257
75,0,0,204.44333499583257
73,43,0.1947115125,204.63804650833256
76,43,0,204.63804650833256
73,0,0.18990382083333332,204.8279503291659
76,0,0,204.8279503291659
54,43,0.0024038458333333333,204.83035417499923
71,43,0.19230766666666665,205.0226618416659
75,43,0,205.0226618416659
71,0,0.18990382083333332,205.21256566249923
75,0,0,205.21256566249923
54,0,0.16346151666666667,205.3760271791659
70,43,0,205.3760271791659
73,43,0,205.3760271791659
59,43,0,205.3760271791659
70,0,0.19362751875,205.5696546979159
73,0,0,205.5696546979159
71,43,0.19852948125,205.7681841791659
75,43,0,205.7681841791659
59,0,0.16421574375,205.9323999229159
71,0,0.029411775,205.9618116979159
75,0,0,205.9618116979159
63,43,0.00245098125,205.9642626791659
70,43,0.1960785,206.1603411791659
73,43,0,206.1603411791659
76,43,0,206.1603411791659
70,0,0.19362751875,206.3539686979159
73,0,0,206.3539686979159
76,0,0,206.3539686979159
47,0,0.0784314,206.4324000979159
63,0,0.088235325,206.5206354229159
69,43,0,206.5206354229159
71,43,0,206.5206354229159
75,43,0,206.5206354229159
78,43,0,206.5206354229159
47,43,0,206.5206354229159
47,0,0.5675,207.08813542291588
54,43,0.0325,207.12063542291588
69,0,0.5375,207.65813542291588
71,0,0,207.65813542291588
75,0,0,207.65813542291588
78,0,0,207.65813542291588
54,0,0.03,207.68813542291588
69,44,0,207.68813542291588
71,44,0,207.68813542291588
79,44,0,207.68813542291588
59,44,0,207.68813542291588
59,0,0.6037235249999999,208.29185894791587
63,44,0.03457447499999999,208.32643342291587
69,0,0.5718086249999998,208.89824204791586
71,0,0,208.89824204791586
79,0,0,208.89824204791586
63,0,0.031914899999999996,208.93015694791586
68,45,0,208.93015694791586
71,45,0,208.93015694791586
80,45,0,208.93015694791586
40,45,0,208.93015694791586
52,45,0,208.93015694791586
40,0,0.62499984375,209.55515679166587
52,0,0,209.55515679166587
56,45,0.03611110208333333,209.5912678937492
59,45,0,209.5912678937492
64,45,0,209.5912678937492
68,0,0.5972220729166666,210.18848996666588
71,0,0,210.18848996666588
80,0,0,210.18848996666588
56,0,0.033333325,210.22182329166588
59,0,0,210.22182329166588
64,0,0,210.22182329166588
67,46,0,210.22182329166588
73,46,0,210.22182329166588
75,46,0,210.22182329166588
82,46,0,210.22182329166588
39,46,0,210.22182329166588
51,46,0,210.22182329166588
39,0,0.659883325,210.8817066166659
51,0,0,210.8817066166659
67,0,0.037790675,210.9194972916659
58,46,0,210.9194972916659
63,46,0,210.9194972916659
67,46,0,210.9194972916659
73,0,0.624999625,211.54449691666588
75,0,0,211.54449691666588
82,0,0,211.54449691666588
58,0,0.034883700000000004,211.57938061666587
63,0,0,211.57938061666587
67,0,0,211.57938061666587
71,47,0,211.57938061666587
32,47,0,211.57938061666587
44,47,0,211.57938061666587
75,47,0.06410258333333334,211.6434831999992
80,47,0.0673077125,211.7107909124992
83,51,0.0673077125,211.7780986249992
32,0,0.5288463125,212.3069449374992
44,0,0,212.3069449374992
56,47,0.041666679166666665,212.34861161666586
59,47,0,212.34861161666586
68,47,0,212.34861161666586
56,0,0.7275643208333333,213.0761759374992
59,0,0,213.0761759374992
68,0,0,213.0761759374992
75,0,0.035256420833333336,213.1114323583325
80,0,0,213.1114323583325
83,0,0,213.1114323583325
71,0,0.0032051291666666667,213.11463748749918
73,48,0,213.11463748749918
77,48,0,213.11463748749918
83,48,0,213.11463748749918
85,48,0,213.11463748749918
31,48,0,213.11463748749918
43,48,0,213.11463748749918
31,0,0.8598485708333333,213.9744860583325
43,0,0,213.9744860583325
55,48,0,213.9744860583325
61,48,0,213.9744860583325
65,48,0,213.9744860583325
73,0,0.8958333333333334,214.87031939166584
77,0,0,214.87031939166584
83,0,0,214.87031939166584
85,0,0,214.87031939166584
55,0,0.05,214.92031939166586
61,0,0,214.92031939166586
65,0,0,214.92031939166586
75,49,0,214.92031939166586
78,49,0,214.92031939166586
83,49,0,214.92031939166586
87,49,0,214.92031939166586
30,49,0,214.92031939166586
42,49,0,214.92031939166586
75,0,0.5084818437499999,215.42880123541585
78,0,0,215.42880123541585
83,0,0,215.42880123541585
87,0,0,215.42880123541585
30,0,0.8196423749999999,216.24844361041585
42,0,0,216.24844361041585
66,31,0,216.24844361041585
87,43,0.2,216.44844361041584
95,43,0,216.44844361041584
87,0,0.0975,216.54594361041583
95,0,0,216.54594361041583
83,43,0.10250000000000001,216.64844361041582
92,43,0,216.64844361041582
83,0,0.0975,216.74594361041582
92,0,0,216.74594361041582
66,0,0.07,216.81594361041581
85,43,0.0325,216.8484436104158
94,43,0,216.8484436104158
54,43,0,216.8484436104158
85,0,0.0975,216.9459436104158
94,0,0,216.9459436104158
82,43,0.10250000000000001,217.0484436104158
90,43,0,217.0484436104158
82,0,0.0975,217.1459436104158
90,0,0,217.1459436104158
83,43,0.10250000000000001,217.2484436104158
92,43,0,217.2484436104158
83,0,0.0975,217.3459436104158
92,0,0,217.3459436104158
54,0,0.07,217.41594361041578
80,43,0,217.41594361041578
88,43,0,217.41594361041578
66,43,0,217.41594361041578
80,0,0.09558826875,217.51153187916577
88,0,0,217.51153187916577
82,43,0.10049023124999999,217.61202211041578
90,43,0,217.61202211041578
82,0,0.09558826875,217.70761037916577
90,0,0,217.70761037916577
78,43,0.10049023124999999,217.80810061041578
87,43,0,217.80810061041578
78,0,0.09558826875,217.90368887916577
87,0,0,217.90368887916577
66,0,0.068627475,217.97231635416577
80,43,0,217.97231635416577
88,43,0,217.97231635416577
61,43,0,217.97231635416577
64,43,0,217.97231635416577
80,0,0.09374998749999999,218.06606634166576
88,0,0,218.06606634166576
76,43,0.09855767916666666,218.16462402083243
85,43,0,218.16462402083243
76,0,0.09374998749999999,218.25837400833242
85,0,0,218.25837400833242
78,43,0.09855767916666666,218.3569316874991
87,43,0,218.3569316874991
78,0,0.09374998749999999,218.4506816749991
87,0,0,218.4506816749991
61,0,0.06730768333333333,218.51798935833241
64,0,0,218.51798935833241
75,43,0.031249995833333332,218.54923935416573
83,43,0,218.54923935416573
66,43,0,218.54923935416573
75,0,0.09374998749999999,218.64298934166573
83,0,0,218.64298934166573
76,43,0.09855767916666666,218.7415470208324
85,43,0,218.7415470208324
76,0,0.09374998749999999,218.8352970083324
85,0,0,218.8352970083324
73,43,0.09855767916666666,218.93385468749906
82,43,0,218.93385468749906
73,0,0.09374998749999999,219.02760467499905
82,0,0,219.02760467499905
66,0,0.06730768333333333,219.09491235833238
75,43,0,219.09491235833238
83,43,0,219.09491235833238
54,43,0,219.09491235833238
75,0,0.09198117499999998,219.18689353333238
83,0,0,219.18689353333238
71,43,0.09669815833333331,219.28359169166572
80,43,0,219.28359169166572
71,0,0.09198117499999998,219.37557286666572
80,0,0,219.37557286666572
73,43,0.09669815833333331,219.47227102499906
82,43,0,219.47227102499906
73,0,0.09198117499999998,219.56425219999906
82,0,0,219.56425219999906
54,0,0.06603776666666665,219.6302899666657
70,43,0.03066039166666666,219.66095035833237
78,43,0,219.66095035833237
66,43,0,219.66095035833237
70,0,0.09198117499999998,219.75293153333237
78,0,0,219.75293153333237
68,43,0.09669815833333331,219.8496296916657
76,43,0,219.8496296916657
68,0,0.09198117499999998,219.9416108666657
76,0,0,219.9416108666657
64,43,0.09669815833333331,220.03830902499905
70,43,0,220.03830902499905
73,43,0,220.03830902499905
64,0,0.09198117499999998,220.13029019999905
70,0,0,220.13029019999905
73,0,0,220.13029019999905
66,0,0.06603776666666665,220.1963279666657
63,43,0,220.1963279666657
71,43,0,220.1963279666657
47,43,0,220.1963279666657
47,0,0.55147078125,220.7477987479157
54,43,0.03186275625,220.77966150416572
54,0,0.55637274375,221.3360342479157
63,0,0.03186275625,221.3678970041657
59,43,0,221.3678970041657
63,43,0,221.3678970041657
71,0,0.49754919375,221.8654461979157
59,0,0.05882355,221.9242697479157
63,0,0,221.9242697479157
72,43,0.03186275625,221.9561325041657
54,43,0,221.9561325041657
72,0,0.55637274375,222.5125052479157
54,0,0,222.5125052479157
73,43,0.03186275625,222.5443680041657
55,43,0,222.5443680041657
55,0,0,222.5443680041657
55,43,0,222.5443680041657
73,0,0.55637274375,223.1007407479157
75,43,0.03186275625,223.1326035041657
59,43,0,223.1326035041657
64,43,0,223.1326035041657
75,0,0.27696088125,223.4095643854157
73,43,0.01715686875,223.4267212541657
55,0,0.23284321875,223.6595644729157
59,0,0.029411775,223.6889762479157
64,0,0,223.6889762479157
73,0,0.0147058875,223.7036821354157
72,43,0.01715686875,223.7208390041657
54,43,0,223.7208390041657
54,0,0,223.7208390041657
54,43,0,223.7208390041657
72,0,0.27696088125,223.9977998854157
73,43,0.01715686875,224.0149567541657
73,0,0.27696088125,224.2919176354157
75,43,0.01715686875,224.3090745041657
58,43,0,224.3090745041657
64,43,0,224.3090745041657
75,0,0.27696088125,224.5860353854157
76,43,0.01715686875,224.6031922541657
54,0,0.23284321875,224.83603547291568
58,0,0.029411775,224.86544724791568
64,0,0,224.86544724791568
76,0,0.0147058875,224.8801531354157
77,42,0,224.8801531354157
47,42,0,224.8801531354157
77,0,0.2668268875,225.1469800229157
78,42,0.01682692083333333,225.16380694374902
47,0,0.25721150416666666,225.42101844791569
78,0,0.014423075,225.43544152291568
88,42,0.01682692083333333,225.452268443749
54,42,0,225.452268443749
88,0,0.27163457916666667,225.72390302291566
87,42,0.01682692083333333,225.740729943749
54,0,0.25721150416666666,225.99794144791565
87,0,0.014423075,226.01236452291565
85,42,0.01682692083333333,226.02919144374897
59,42,0,226.02919144374897
63,42,0,226.02919144374897
85,0,0.27163457916666667,226.30082602291563
82,42,0.01682692083333333,226.31765294374895
59,0,0.25721150416666666,226.57486444791562
63,0,0,226.57486444791562
82,0,0.014423075,226.5892875229156
83,42,0.01682692083333333,226.60611444374894
54,42,0,226.60611444374894
83,0,0.27163457916666667,226.8777490229156
75,42,0.01682692083333333,226.89457594374892
54,0,0.25721150416666666,227.15178744791558
75,0,0.014423075,227.16621052291558
77,42,0.01682692083333333,227.1830374437489
47,42,0,227.1830374437489
77,0,0.27163457916666667,227.45467202291556
78,42,0.01682692083333333,227.47149894374888
47,0,0.25721150416666666,227.72871044791555
78,0,0.014423075,227.74313352291554
82,42,0.01682692083333333,227.75996044374887
54,42,0,227.75996044374887
82,0,0.27163457916666667,228.03159502291552
80,42,0.01682692083333333,228.04842194374885
54,0,0.25721150416666666,228.3056334479155
80,0,0.014423075,228.3200565229155
75,42,0.01682692083333333,228.33688344374883
64,42,0,228.33688344374883
75,0,0.27163457916666667,228.6085180229155
76,42,0.01682692083333333,228.62534494374881
64,0,0.25721150416666666,228.88255644791548
76,0,0.014423075,228.89697952291547
68,42,0.01682692083333333,228.9138064437488
54,42,0,228.9138064437488
68,0,0.27163457916666667,229.18544102291546
70,42,0.01682692083333333,229.20226794374878
75,42,0,229.20226794374878
54,0,0.25721150416666666,229.45947944791544
70,0,0.014423075,229.47390252291544
75,0,0,229.47390252291544
71,42,0,229.47390252291544
47,42,0,229.47390252291544
47,0,0.5306606249999999,230.00456314791543
54,42,0.03066039166666666,230.0352235395821
54,0,0.5353776083333333,230.57060114791543
59,42,0.03066039166666666,230.60126153958208
63,42,0,230.60126153958208
71,0,0.4787738083333332,231.0800353479154
59,0,0.05660379999999999,231.13663914791542
63,0,0,231.13663914791542
72,42,0.03066039166666666,231.16729953958207
54,42,0,231.16729953958207
72,0,0.5353776083333333,231.7026771479154
54,0,0,231.7026771479154
73,42,0.03066039166666666,231.73333753958207
55,42,0,231.73333753958207
55,0,0,231.73333753958207
55,42,0,231.73333753958207
73,0,0.2665095583333333,231.9998470979154
75,42,0.016509441666666663,232.01635653958206
75,0,0.2665095583333333,232.2828660979154
73,42,0.016509441666666663,232.29937553958206
59,42,0,232.29937553958206
64,42,0,232.29937553958206
73,0,0.063679275,232.36305481458206
75,42,0.007075474999999999,232.37013028958205
75,0,0.063679275,232.43380956458205
73,42,0.007075474999999999,232.44088503958204
73,0,0.1320755333333333,232.57296057291538
72,42,0.009433966666666665,232.58239453958205
55,0,0.2240567083333333,232.8064512479154
59,0,0.028301899999999994,232.8347531479154
64,0,0,232.8347531479154
72,0,0.014150949999999997,232.84890409791538
73,42,0.016509441666666663,232.86541353958205
54,42,0,232.86541353958205
54,0,0,232.86541353958205
54,42,0,232.86541353958205
73,0,0.2665095583333333,233.13192309791538
75,42,0.016509441666666663,233.14843253958205
75,0,0.2665095583333333,233.41494209791537
76,42,0.016509441666666663,233.43145153958204
58,42,0,233.43145153958204
64,42,0,233.43145153958204
76,0,0.2665095583333333,233.69796109791537
77,42,0.016509441666666663,233.71447053958204
54,0,0.2240567083333333,233.93852724791537
58,0,0.028301899999999994,233.96682914791538
64,0,0,233.96682914791538
77,0,0.014150949999999997,233.98098009791536
80,42,0,233.98098009791536
47,42,0,233.98098009791536
80,0,0.2668268875,234.24780698541537
78,42,0.01682692083333333,234.2646339062487
47,0,0.25721150416666666,234.52184541041535
78,0,0.014423075,234.53626848541535
78,42,0.01682692083333333,234.55309540624867
54,42,0,234.55309540624867
78,0,0.062499991666666664,234.61559539791534
88,42,0.0024038458333333333,234.61799924374867
88,0,0.2091345875,234.82713383124866
87,42,0.014423075,234.84155690624866
54,0,0.25721150416666666,235.09876841041532
87,0,0.014423075,235.1131914854153
85,42,0,235.1131914854153
59,42,0,235.1131914854153
63,42,0,235.1131914854153
85,0,0.28250000000000003,235.3956914854153
82,42,0.0175,235.41319148541533
59,0,0.2675,235.68069148541534
63,0,0,235.68069148541534
82,0,0.015,235.69569148541532
83,42,0.0175,235.71319148541534
54,42,0,235.71319148541534
83,0,0.28250000000000003,235.99569148541534
54,0,0.015,236.01069148541532
75,42,0.0025,236.01319148541532
75,0,0.28250000000000003,236.29569148541532
80,42,0,236.29569148541532
47,42,0,236.29569148541532
80,0,0.28826511875,236.5839566041653
78,42,0.017857131249999998,236.6018137354153
47,0,0.27295900625,236.8747727416653
78,0,0.0153061125,236.89007885416532
82,42,0.017857131249999998,236.90793598541532
54,42,0,236.90793598541532
82,0,0.28826511875,237.1962011041653
80,42,0.017857131249999998,237.2140582354153
54,0,0.27295900625,237.4870172416653
80,0,0.0153061125,237.50232335416533
78,42,0,237.50232335416533
64,42,0,237.50232335416533
78,0,0.09935900416666667,237.601682358332
76,42,0.0096153875,237.611297745832
76,0,0.09935900416666667,237.71065674999866
75,42,0.012820516666666667,237.72347726666533
75,0,0.09935900416666667,237.822836270832
76,42,0.0096153875,237.832451658332
76,0,0.09935900416666667,237.93181066249866
75,42,0.0096153875,237.94142604999865
75,0,0.09935900416666667,238.04078505416533
73,42,0.0096153875,238.05040044166532
73,0,0.09935900416666667,238.149759445832
75,42,0.012820516666666667,238.16257996249865
64,0,0.0673077125,238.22988767499865
75,0,0.03205129166666667,238.26193896666533
78,42,0.0096153875,238.27155435416532
54,42,0,238.27155435416532
78,0,0.09935900416666667,238.370913358332
76,42,0.0096153875,238.38052874583198
76,0,0.09935900416666667,238.47988774999865
68,42,0.012820516666666667,238.49270826666532
68,0,0.09935900416666667,238.592067270832
70,42,0.0096153875,238.60168265833198
70,0,0.09935900416666667,238.70104166249865
75,42,0.0096153875,238.71065704999864
75,0,0.09935900416666667,238.81001605416532
73,42,0.0096153875,238.8196314416653
73,0,0.09935900416666667,238.91899044583198
71,42,0.012820516666666667,238.93181096249864
54,0,0.0673077125,238.99911867499864
71,0,0.03205129166666667,239.03116996666532
71,42,0,239.03116996666532
47,42,0,239.03116996666532
47,0,0.62499984375,239.65616981041532
54,42,0,239.65616981041532
71,0,0.12222219166666666,239.778392002082
75,42,0.04444443333333333,239.82283643541533
75,0,0.15555551666666667,239.978391952082
80,42,0.011111108333333333,239.98950306041533
80,0,0.15555551666666667,240.145058577082
78,42,0.011111108333333333,240.15616968541534
54,0,0.13055552291666667,240.286725208332
78,0,0.024999993749999998,240.311725202082
83,42,0.011111108333333333,240.3228363104153
63,42,0,240.3228363104153
63,0,0.6305553979166666,240.953391708332
54,42,0.03611110208333333,240.98950281041533
83,0,0.12222219166666666,241.111725002082
87,42,0.04444443333333333,241.15616943541534
87,0,0.15555551666666667,241.31172495208202
92,42,0.011111108333333333,241.32283606041534
92,0,0.15555551666666667,241.47839157708202
90,42,0.011111108333333333,241.48950268541535
54,0,0.13055552291666667,241.620058208332
90,0,0.024999993749999998,241.645058202082
83,42,0,241.645058202082
47,42,0,241.645058202082
47,0,0.659883325,242.304941527082
54,42,0.037790675,242.342732202082
83,0,0.1279069,242.470639102082
75,42,0.0465116,242.517150702082
75,0,0.1627906,242.679941302082
80,42,0.0116279,242.691569202082
80,0,0.1627906,242.854359802082
78,42,0.0116279,242.865987702082
54,0,0.136627825,243.002615527082
78,0,0.026162775,243.028778302082
83,42,0.0116279,243.040406202082
63,42,0,243.040406202082
63,0,0.659883325,243.70028952708202
54,42,0.037790675,243.73808020208202
83,0,0.1279069,243.86598710208202
87,42,0.0465116,243.91249870208202
87,0,0.1627906,244.075289302082
92,42,0.0116279,244.08691720208202
92,0,0.1627906,244.249707802082
90,42,0.0116279,244.26133570208202
54,0,0.136627825,244.39796352708203
90,0,0.026162775,244.42412630208202
83,42,0,244.42412630208202
47,42,0,244.42412630208202
47,0,0.7211540625,245.14528036458202
54,42,0,245.14528036458202
83,0,0.14102568333333335,245.28630604791536
75,42,0.05128206666666667,245.33758811458202
75,0,0.17948723333333333,245.51707534791535
80,42,0.012820516666666667,245.52989586458202
80,0,0.17948723333333333,245.70938309791535
78,42,0.012820516666666667,245.722203614582
54,0,0.15064107083333333,245.87284468541534
78,0,0.0288461625,245.90169084791535
83,42,0,245.90169084791535
66,42,0,245.90169084791535
66,0,0.7881946020833333,246.68988544999868
54,42,0.04513889791666666,246.73502434791536
83,0,0.15277780833333332,246.88780215624868
87,42,0.05555556666666666,246.94335772291535
87,0,0.1944444833333333,247.1378022062487
92,42,0.013888891666666665,247.15169109791535
92,0,0.1944444833333333,247.3461355812487
90,42,0.013888891666666665,247.36002447291534
54,0,0.16319447708333332,247.52321894999866
90,0,0.03125000625,247.55446895624866
83,42,0,247.55446895624866
47,42,0,247.55446895624866
47,0,0.8598485708333333,248.41431752708198
54,42,0.049242429166666664,248.46355995624864
83,0,0.16666668333333334,248.630226639582
87,42,0.060606066666666666,248.69083270624867
87,0,0.21212123333333333,248.902953939582
92,42,0.015151516666666667,248.91810545624867
92,0,0.21212123333333333,249.130226689582
90,42,0.015151516666666667,249.14537820624867
54,0,0.17803032083333334,249.323408527082
90,0,0.0340909125,249.357499439582
83,42,0,249.357499439582
66,42,0,249.357499439582
66,0,0.9458333333333333,250.30333277291533
54,42,0.05416666666666667,250.357499439582
83,0,0.18333333333333332,250.54083277291534
87,42,0.06666666666666667,250.607499439582
87,0,0.23333333333333334,250.84083277291532
92,42,0.016666666666666666,250.857499439582
92,0,0.23333333333333334,251.09083277291532
90,42,0.016666666666666666,251.107499439582
54,0,0.19583333333333333,251.30333277291533
90,0,0.0375,251.34083277291532
95,42,0,251.34083277291532
47,42,0,251.34083277291532
95,0,1.875,253.21583277291532
47,0,0,253.21583277291532
75,42,0,253.21583277291532
78,42,0,253.21583277291532
83,42,0,253.21583277291532
66,42,0,253.21583277291532
75,0,1.322673625,254.5385063979153
78,0,0,254.5385063979153
83,0,0,254.5385063979153
66,0,0,254.5385063979153
73,42,0.072674375,254.6111807729153
76,42,0,254.6111807729153
81,42,0,254.6111807729153
64,42,0,254.6111807729153
73,0,1.322673625,255.9338543979153
76,0,0,255.9338543979153
81,0,0,255.9338543979153
64,0,0,255.9338543979153
71,42,0.072674375,256.0065287729153
75,42,0,256.0065287729153
80,42,0,256.0065287729153
63,42,0,256.0065287729153
71,0,0.438953225,256.4454819979153
75,0,0,256.4454819979153
80,0,0,256.4454819979153
63,0,0,256.4454819979153
73,42,0.026162775,256.4716447729153
76,42,0,256.4716447729153
81,42,0,256.4716447729153
64,42,0,256.4716447729153
73,0,0.438953225,256.91059799791526
76,0,0,256.91059799791526
81,0,0,256.91059799791526
64,0,0,256.91059799791526
71,42,0.026162775,256.93676077291525
75,42,0,256.93676077291525
80,42,0,256.93676077291525
63,42,0,256.93676077291525
71,0,0.438953225,257.3757139979152
75,0,0,257.3757139979152
80,0,0,257.3757139979152
63,0,0,257.3757139979152
69,42,0,257.3757139979152
73,42,0,257.3757139979152
78,42,0,257.3757139979152
61,42,0,257.3757139979152
69,0,1.3511900708333333,258.7269040687486
73,0,0,258.7269040687486
78,0,0,258.7269040687486
61,0,0,258.7269040687486
66,42,0.07440473958333332,258.8013088083319
69,42,0,258.8013088083319
75,42,0,258.8013088083319
47,42,0,258.8013088083319
66,0,1.0089282687499999,259.8102370770819
69,0,0,259.8102370770819
75,0,0,259.8102370770819
47,0,0,259.8102370770819
64,42,0.05654760208333333,259.8667846791653
69,42,0,259.8667846791653
73,42,0,259.8667846791653
49,42,0,259.8667846791653
64,0,0.33630942291666666,260.20309410208193
69,0,0,260.20309410208193
73,0,0,260.20309410208193
49,0,0,260.20309410208193
69,42,0.020833327083333332,260.22392742916526
73,42,0,260.22392742916526
66,42,0,260.22392742916526
51,42,0,260.22392742916526
66,0,1.3541662604166667,261.5780936895819
51,0,0,261.5780936895819
64,42,0.07440473958333332,261.65249842916523
52,42,0,261.65249842916523
69,0,0.6041664854166666,262.2566649145819
73,0,0,262.2566649145819
64,0,0.07142855,262.3280934645819
52,0,0,262.3280934645819
71,46,0,262.3280934645819
63,42,0,262.3280934645819
54,42,0,262.3280934645819
71,0,1.0133927895833332,263.34148625416526
63,0,0,263.34148625416526
54,0,0,263.34148625416526
68,43,0,263.34148625416526
56,43,0,263.34148625416526
64,43,0,263.34148625416526
52,43,0,263.34148625416526
68,0,0.0546875,263.39617375416526
80,43,0.0026041666666666665,263.39877792083195
56,0,0.5286458333333333,263.92742375416526
64,0,0,263.92742375416526
59,43,0.033854166666666664,263.96127792083195
80,0,0.5598958333333333,264.52117375416526
59,0,0.03125,264.55242375416526
80,43,0,264.55242375416526
64,43,0,264.55242375416526
64,0,0.5456730041666666,265.0980967583319
59,43,0.031249995833333332,265.1293467541652
80,0,0.24278842916666665,265.3721351833319
81,43,0.04567307083333333,265.41780825416527
59,0,0.25721150416666666,265.6750197583319
81,0,0.014423075,265.68944283333195
80,43,0,265.68944283333195
56,43,0,265.68944283333195
80,0,0.11084910833333331,265.8002919416653
75,43,0.009433966666666665,265.809725908332
75,0,0.11084910833333331,265.92057501666534
76,43,0.007075474999999999,265.92765049166536
76,0,0.11084910833333331,266.0384995999987
78,43,0.009433966666666665,266.0479335666654
78,0,0.11084910833333331,266.15878267499875
80,43,0.007075474999999999,266.16585814999877
56,0,0.05896229166666665,266.22482044166543
59,43,0.03066039166666666,266.2554808333321
80,0,0.021226424999999997,266.2767072583321
81,43,0.009433966666666665,266.2861412249988
81,0,0.11084910833333331,266.39699033333216
83,43,0.007075474999999999,266.4040658083322
83,0,0.11084910833333331,266.51491491666553
85,43,0.009433966666666665,266.5243488833322
85,0,0.11084910833333331,266.63519799166556
87,43,0.007075474999999999,266.6422734666656
87,0,0.11084910833333331,266.75312257499894
88,43,0.009433966666666665,266.7625565416656
59,0,0.028301899999999994,266.7908584416656
64,43,0.03066039166666666,266.8215188333323
88,0,0.051886816666666655,266.873405649999
90,43,0.007075474999999999,266.880481124999
90,0,0.11084910833333331,266.99133023333235
92,43,0.009433966666666665,267.000764199999
92,0,0.11084910833333331,267.1116133083324
87,43,0.007075474999999999,267.1186887833324
87,0,0.11084910833333331,267.22953789166576
88,43,0.009433966666666665,267.23897185833243
88,0,0.11084910833333331,267.3498209666658
79,43,0.007075474999999999,267.3568964416658
64,0,0,267.3568964416658
59,43,0.03066039166666666,267.3875568333325
79,0,0.08018871666666665,267.46774554999917
80,43,0.009433966666666665,267.47717951666584
80,0,0.11084910833333331,267.5880286249992
87,43,0.007075474999999999,267.5951040999992
87,0,0.11084910833333331,267.7059532083326
85,43,0.009433966666666665,267.71538717499925
52,0,0.009433966666666665,267.7248211416659
85,0,0.10141514166666665,267.8262362833326
83,43,0.007075474999999999,267.8333117583326
59,0,0.08962268333333331,267.922934441666
83,0,0.021226424999999997,267.944160866666
83,43,0.009433966666666665,267.95359483333266
47,43,0,267.95359483333266
54,43,0,267.95359483333266
47,0,0.5306606249999999,268.48425545833265
54,0,0,268.48425545833265
59,43,0.03066039166666666,268.51491584999934
83,0,0.5070757083333333,269.0219915583327
59,0,0.028301899999999994,269.05029345833265
81,43,0.03066039166666666,269.08095384999933
64,43,0,269.08095384999933
64,0,0.5353776083333333,269.61633145833264
59,43,0.03066039166666666,269.6469918499993
81,0,0.2382076583333333,269.8851995083327
80,43,0.04481134166666666,269.93001084999935
59,0,0.2523586083333333,270.1823694583327
80,0,0.014150949999999997,270.1965204083327
76,43,0.016509441666666663,270.2130298499993
76,0,0,270.2130298499993
76,43,0,270.2130298499993
47,43,0,270.2130298499993
54,43,0,270.2130298499993
78,43,0.28301899999999997,270.49604884999934
47,0,0.2523586083333333,270.7484074583327
54,0,0,270.7484074583327
78,0,0.014150949999999997,270.76255840833267
78,43,0.016509441666666663,270.7790678499993
57,43,0,270.7790678499993
78,0,0.06132078333333332,270.8403886333326
80,43,0.007075474999999999,270.84746410833264
80,0,0.06132078333333332,270.90878489166596
78,43,0.009433966666666665,270.91821885833264
78,0,0.06132078333333332,270.97953964166595
80,43,0.011792458333333332,270.9913320999993
80,0,0.06132078333333332,271.0526528833326
78,43,0.007075474999999999,271.0597283583326
78,0,0.06132078333333332,271.12104914166594
80,43,0.009433966666666665,271.1304831083326
80,0,0.06132078333333332,271.1918038916659
78,43,0.011792458333333332,271.20359634999926
78,0,0.06132078333333332,271.2649171333326
80,43,0.007075474999999999,271.2719926083326
76,0,0.014150949999999997,271.2861435583326
57,0,0.028301899999999994,271.31444545833256
80,0,0.01886793333333333,271.3333133916659
78,43,0.009433966666666665,271.3427473583326
75,43,0.002358491666666666,271.34510584999924
63,43,0,271.34510584999924
78,0,0.05896229166666665,271.4040681416659
80,43,0.011792458333333332,271.41586059999923
80,0,0.06132078333333332,271.47718138333255
78,43,0.007075474999999999,271.48425685833257
78,0,0.06132078333333332,271.5455776416659
80,43,0.009433966666666665,271.55501160833256
80,0,0.06132078333333332,271.6163323916659
78,43,0.011792458333333332,271.6281248499992
78,0,0.06132078333333332,271.6894456333325
80,43,0.007075474999999999,271.69652110833255
80,0,0.06132078333333332,271.75784189166586
78,43,0.009433966666666665,271.76727585833254
78,0,0.06132078333333332,271.82859664166585
80,43,0.011792458333333332,271.8403890999992
63,0,0.04009435833333332,271.8804834583325
80,0,0.021226424999999997,271.9017098833325
78,43,0.007075474999999999,271.9087853583325
57,43,0.002358491666666666,271.9111438499992
78,0,0.05896229166666665,271.97010614166584
80,43,0.009433966666666665,271.9795401083325
80,0,0.06132078333333332,272.04086089166583
78,43,0.011792458333333332,272.05265334999916
78,0,0.06132078333333332,272.1139741333325
80,43,0.007075474999999999,272.1210496083325
75,0,0.028301899999999994,272.1493515083325
80,0,0.033018883333333325,272.1823703916658
78,43,0.009433966666666665,272.1918043583325
73,43,0.002358491666666666,272.19416284999915
76,43,0,272.19416284999915
78,0,0.05896229166666665,272.2531251416658
80,43,0.011792458333333332,272.26491759999914
80,0,0.06132078333333332,272.32623838333245
76,0,0,272.32623838333245
78,43,0.007075474999999999,272.3333138583325
78,0,0.002358491666666666,272.33567234999913
78,43,0,272.33567234999913
80,43,0.06839625833333332,272.40406860833247
57,0,0.04245284999999999,272.4465214583325
73,0,0.014150949999999997,272.46067240833247
80,0,0.004716983333333332,272.4653893916658
78,0,0.002358491666666666,272.46774788333244
71,43,0.009433966666666665,272.4771818499991
80,43,0,272.4771818499991
40,43,0,272.4771818499991
40,0,0.054245308333333325,272.53142715833246
52,43,0.002358491666666666,272.5337856499991
64,43,0.5047172166666666,273.0385028666658
71,0,0.5070757083333333,273.5455785749991
80,0,0,273.5455785749991
64,0,0.028301899999999994,273.5738804749991
69,43,0,273.5738804749991
81,43,0,273.5738804749991
76,43,0,273.5738804749991
61,43,0,273.5738804749991
69,0,0.3775,273.9513804749991
81,0,0,273.9513804749991
71,43,0.0225,273.9738804749991
83,43,0,273.9738804749991
61,0,0.1675,274.1413804749991
64,43,0.0325,274.1738804749991
71,0,0.1775,274.35138047499913
83,0,0,274.35138047499913
69,43,0.0225,274.3738804749991
81,43,0,274.3738804749991
64,0,0.3675,274.7413804749991
69,0,0.01,274.7513804749991
81,0,0,274.7513804749991
68,43,0.0225,274.7738804749991
80,43,0,274.7738804749991
59,43,0,274.7738804749991
59,0,0.5675,275.3413804749991
64,43,0.0325,275.3738804749991
76,0,0.47750000000000004,275.85138047499913
64,0,0.09,275.9413804749991
71,43,0,275.9413804749991
56,43,0,275.9413804749991
68,0,0.2995284416666666,276.2409089166658
80,0,0,276.2409089166658
66,43,0.07783022499999999,276.3187391416658
78,43,0,276.3187391416658
56,0,0.15801894166666663,276.47675808333247
59,43,0.03066039166666666,276.50741847499916
66,0,0.1674529083333333,276.6748713833325
78,0,0,276.6748713833325
64,43,0.021226424999999997,276.6960978083325
76,43,0,276.6960978083325
52,0,0.1462264833333333,276.8423242916659
71,0,0.17216989166666663,277.01449418333254
59,0,0.028301899999999994,277.0427960833325
64,0,0.009433966666666665,277.0522300499992
76,0,0,277.0522300499992
66,43,0.021226424999999997,277.0734564749992
71,43,0,277.0734564749992
76,43,0,277.0734564749992
78,43,0,277.0734564749992
47,43,0,277.0734564749992
47,0,0.5306606249999999,277.6041170999992
54,43,0.03066039166666666,277.6347774916659
54,0,0.5353776083333333,278.1701550999992
59,43,0.03066039166666666,278.2008154916659
59,0,0.5353776083333333,278.7361930999992
64,43,0.03066039166666666,278.76685349166587
66,0,0.4504719083333332,279.2173253999992
71,0,0,279.2173253999992
76,0,0,279.2173253999992
78,0,0,279.2173253999992
64,0,0.08490569999999999,279.3022310999992
63,43,0.03066039166666666,279.33289149166586
66,43,0,279.33289149166586
71,43,0,279.33289149166586
75,43,0,279.33289149166586
78,43,0,279.33289149166586
47,43,0,279.33289149166586
47,0,0.5353776083333333,279.86826909999917
54,43,0.03066039166666666,279.89892949166585
63,0,0.5070757083333333,280.4060051999992
66,0,0,280.4060051999992
71,0,0,280.4060051999992
75,0,0,280.4060051999992
54,0,0.028301899999999994,280.43430709999916
69,43,0.03066039166666666,280.46496749166585
73,43,0,280.46496749166585
59,43,0,280.46496749166585
59,0,0.5353776083333333,281.00034509999915
63,43,0.03066039166666666,281.03100549166584
78,0,0.4504719083333332,281.48147739999916
69,0,0.05660379999999999,281.53808119999917
73,0,0,281.53808119999917
63,0,0.028301899999999994,281.56638309999914
64,43,0.03066039166666666,281.59704349166583
40,43,0,281.59704349166583
68,43,0.05896229166666665,281.6560057833325
71,43,0.06839625833333332,281.7244020416658
80,43,0.06603776666666665,281.7904398083325
40,0,0.33726430833333326,282.1277041166658
52,43,0.03066039166666666,282.1583645083325
52,0,0.5353776083333333,282.6937421166658
68,0,0.025943408333333327,282.71968552499914
71,0,0,282.71968552499914
80,0,0,282.71968552499914
64,0,0.002358491666666666,282.7220440166658
80,43,0.002358491666666666,282.72440250833245
59,43,0,282.72440250833245
59,0,0.5353776083333333,283.25978011666575
62,43,0.03066039166666666,283.29044050833244
80,0,0.2382076583333333,283.5286481666658
81,43,0.04481134166666666,283.57345950833246
62,0,0.2523586083333333,283.8258181166658
81,0,0.014150949999999997,283.8399690666658
80,43,0,283.8399690666658
68,43,0,283.8399690666658
74,43,0,283.8399690666658
64,43,0,283.8399690666658
80,0,0.2403846875,284.0803537541658
75,43,0.016025645833333334,284.09637939999914
75,0,0.2403846875,284.33676408749915
76,43,0.016025645833333334,284.3527897333325
68,0,0.21474365416666666,284.56753338749917
74,0,0,284.56753338749917
64,0,0,284.56753338749917
76,0,0.025641033333333334,284.5931744208325
79,43,0.016025645833333334,284.60920006666584
59,43,0,284.60920006666584
79,0,0.2403846875,284.84958475416585
80,43,0.016025645833333334,284.8656103999992
80,0,0.2403846875,285.1059950874992
90,43,0.016025645833333334,285.12202073333253
59,0,0.21474365416666666,285.3367643874992
90,0,0.025641033333333334,285.36240542083254
88,43,0,285.36240542083254
62,43,0,285.36240542083254
88,0,0.7243589562499999,286.08676437708255
64,43,0,286.08676437708255
64,0,0.075,286.16176437708253
66,43,0.0125,286.1742643770825
66,0,0.075,286.2492643770825
64,43,0.0125,286.2617643770825
64,0,0.075,286.3367643770825
63,43,0.016666666666666666,286.35343104374914
63,0,0.075,286.42843104374913
64,43,0.0125,286.4409310437491
64,0,0.075,286.5159310437491
66,43,0.0125,286.5284310437491
62,0,0.004166666666666667,286.53259771041576
52,43,0.05416666666666667,286.58676437708243
66,0,0.016666666666666666,286.6034310437491
68,43,0.0125,286.6159310437491
68,0,0.075,286.69093104374906
69,43,0.0125,286.70343104374905
69,0,0.075,286.77843104374904
71,43,0.0125,286.790931043749
71,0,0.075,286.865931043749
73,43,0.016666666666666666,286.88259771041567
73,0,0.075,286.95759771041566
74,43,0.0125,286.97009771041564
74,0,0.075,287.04509771041563
75,43,0.0125,287.0575977104156
75,0,0.075,287.1325977104156
76,43,0.0125,287.1450977104156
76,0,0.075,287.2200977104156
79,43,0.0125,287.2325977104156
79,0,0.075,287.30759771041556
80,43,0.0125,287.32009771041555
80,0,0.075,287.39509771041554
81,43,0.016666666666666666,287.4117643770822
81,0,0.075,287.4867643770822
83,43,0.0125,287.49926437708217
52,0,0.03333333333333333,287.53259771041553
83,0,0.041666666666666664,287.5742643770822
85,53,0,287.5742643770822
45,53,0,287.5742643770822
45,0,0.6208333333333333,288.19509771041555
52,53,0.0032051291666666667,288.1983028395822
52,0,0.48397450416666665,288.68227734374886
57,53,0.0288461625,288.71112350624884
57,0,0.48397450416666665,289.1950980104155
61,53,0.0288461625,289.2239441729155
61,0,0.48397450416666665,289.70791867708215
64,53,0.0288461625,289.7367648395821
64,0,0.48397450416666665,290.2207393437488
61,53,0.0288461625,290.24958550624876
61,0,0.48397450416666665,290.73356001041543
69,53,0,290.73356001041543
85,0,2.54375,293.2773100104154
85,39,0,293.2773100104154
85,0,0.6291666666666667,293.9064766770821
83,39,0.0375,293.9439766770821
83,0,0.9458333333333333,294.88981001041543
81,39,0.05416666666666667,294.9439766770821
69,0,0.12916666666666665,295.07314334374877
81,0,0.18333333333333332,295.2564766770821
69,43,0,295.2564766770821
73,43,0,295.2564766770821
76,43,0,295.2564766770821
81,43,0,295.2564766770821
42,43,0,295.2564766770821
42,0,0.5625,295.8189766770821
54,43,0.0325,295.85147667708213
54,0,0.5675,296.4189766770821
61,43,0.0325,296.45147667708216
61,0,0.5675,297.01897667708215
64,43,0.0325,297.0514766770822
69,0,0.47750000000000004,297.5289766770822
73,0,0,297.5289766770822
76,0,0,297.5289766770822
81,0,0,297.5289766770822
64,0,0.09,297.6189766770822
69,43,0.0325,297.6514766770822
76,43,0,297.6514766770822
78,43,0,297.6514766770822
47,43,0,297.6514766770822
47,0,0.5675,298.2189766770822
54,43,0.0325,298.2514766770822
69,0,0.5375,298.78897667708225
76,0,0,298.78897667708225
78,0,0,298.78897667708225
54,0,0.03,298.8189766770822
69,43,0.0325,298.85147667708225
75,43,0,298.85147667708225
78,43,0,298.85147667708225
59,43,0,298.85147667708225
59,0,0.5675,299.41897667708224
63,43,0.0325,299.45147667708227
78,0,0.2525,299.70397667708227
80,43,0.0475,299.7514766770823
69,0,0.23750000000000002,299.9889766770823
75,0,0,299.9889766770823
63,0,0.03,300.01897667708226
80,0,0.015,300.03397667708225
68,43,0.0175,300.05147667708223
76,43,0,300.05147667708223
49,43,0,300.05147667708223
49,0,0.5625,300.61397667708223
64,43,0.0325,300.64647667708226
68,0,0.5375,301.1839766770823
76,0,0,301.1839766770823
64,0,0.03,301.21397667708226
64,43,0.0325,301.2464766770823
42,43,0,301.2464766770823
69,43,0.0625,301.3089766770823
72,43,0.065,301.3739766770823
76,43,0.07,301.4439766770823
81,43,0.065,301.5089766770823
42,0,0.305,301.8139766770823
54,43,0.0325,301.8464766770823
54,0,0.5675,302.4139766770823
57,43,0.0325,302.44647667708233
57,0,0.5675,303.0139766770823
60,43,0.0325,303.04647667708235
60,0,0.5675,303.61397667708235
64,0,0.0325,303.6464766770824
64,43,0,303.6464766770824
54,43,0.6,304.2464766770824
54,0,0.5675,304.8139766770824
69,0,0.0275,304.84147667708237
72,0,0,304.84147667708237
76,0,0,304.84147667708237
81,0,0,304.84147667708237
64,0,0.0025,304.84397667708237
69,43,0.0025,304.84647667708236
76,43,0,304.84647667708236
78,43,0,304.84647667708236
47,43,0,304.84647667708236
47,0,0.5625,305.40897667708236
54,43,0.0325,305.4414766770824
69,0,0.5375,305.9789766770824
76,0,0,305.9789766770824
78,0,0,305.9789766770824
54,0,0.03,306.0089766770824
78,43,0.0325,306.0414766770824
69,43,0,306.0414766770824
75,43,0,306.0414766770824
59,43,0,306.0414766770824
78,0,0.5675,306.6089766770824
59,0,0,306.6089766770824
63,43,0.0325,306.64147667708244
80,43,0.3,306.94147667708245
69,0,0.23750000000000002,307.17897667708246
75,0,0,307.17897667708246
63,0,0.03,307.20897667708243
80,0,0.015,307.2239766770824
68,43,0.0175,307.2414766770824
76,43,0,307.2414766770824
64,43,0,307.2414766770824
52,43,0,307.2414766770824
64,0,0.5675,307.8089766770824
59,43,0.0325,307.8414766770824
68,0,0.5375,308.37897667708245
76,0,0,308.37897667708245
59,0,0.03,308.4089766770824
73,43,0.0325,308.44147667708245
69,43,0,308.44147667708245
61,43,0,308.44147667708245
73,0,0.2975,308.73897667708246
61,0,0.27,309.00897667708244
75,43,0.0325,309.04147667708247
60,43,0,309.04147667708247
75,0,0.2975,309.3389766770825
69,0,0.24,309.5789766770825
60,0,0.03,309.60897667708247
68,43,0,309.60897667708247
76,43,0,309.60897667708247
59,43,0,309.60897667708247
52,0,0,309.60897667708247
52,43,0,309.60897667708247
68,0,1.11029450625,310.71927118333247
76,0,0,310.71927118333247
59,0,0,310.71927118333247
64,43,0.06127453125,310.78054571458244
68,43,0,310.78054571458244
52,0,0,310.78054571458244
52,43,0,310.78054571458244
61,43,0,310.78054571458244
64,0,1.11519646875,311.89574218333246
68,0,0,311.89574218333246
61,0,0,311.89574218333246
63,43,0.06127453125,311.95701671458244
66,43,0,311.95701671458244
68,43,0,311.95701671458244
51,43,0,311.95701671458244
56,43,0,311.95701671458244
60,43,0,311.95701671458244
63,0,0.55637274375,312.5133894583324
66,0,0,312.5133894583324
68,0,0,312.5133894583324
80,43,0.03186275625,312.54525221458243
51,0,0.52696096875,313.07221318333245
56,0,0,313.07221318333245
60,0,0,313.07221318333245
80,0,0.029411775,313.1016249583325
83,43,0.03186275625,313.1334877145825
56,43,0,313.1334877145825
60,43,0,313.1334877145825
63,43,0,313.1334877145825
68,43,0,313.1334877145825
83,0,0.06127453125,313.19476224583246
81,43,0.00245098125,313.19721322708244
81,0,0.77205909375,313.96927232083243
80,43,0.04656864375,314.0158409645824
52,0,0.05637256875,314.07221353333244
56,0,0.17647065,314.24868418333244
60,0,0,314.24868418333244
63,0,0,314.24868418333244
68,0,0,314.24868418333244
80,0,0.0441176625,314.29280184583246
85,43,0,314.29280184583246
49,43,0,314.29280184583246
49,0,0.5306606249999999,314.82346247083245
56,43,0.03066039166666666,314.85412286249914
56,0,0,314.85412286249914
56,43,0,314.85412286249914
85,0,0.5070757083333333,315.36119857083247
80,43,0.05896229166666665,315.42016086249913
64,43,0,315.42016086249913
56,0,0.5070757083333333,315.92723657083246
64,0,0.028301899999999994,315.95553847083244
63,43,0.03066039166666666,315.9861988624991
80,0,0.5070757083333333,316.49327457083245
63,0,0.028301899999999994,316.52157647083243
80,43,0.03066039166666666,316.5522368624991
52,43,0,316.5522368624991
61,43,0,316.5522368624991
80,0,0.17688687499999997,316.7291237374991
81,43,0.011792458333333332,316.7409161958324
81,0,0.17688687499999997,316.9178030708324
80,43,0.011792458333333332,316.92959552916574
52,0,0.15801894166666663,317.0876144708324
61,0,0,317.0876144708324
80,0,0.01886793333333333,317.1064824041658
78,43,0.011792458333333332,317.1182748624991
56,43,0,317.1182748624991
78,0,0.2665095583333333,317.38478442083243
80,43,0.016509441666666663,317.4012938624991
56,0,0.2523586083333333,317.6536524708324
80,0,0.014150949999999997,317.6678034208324
81,43,0.016509441666666663,317.68431286249904
64,43,0,317.68431286249904
81,0,0.5353776083333333,318.21969047083235
64,0,0,318.21969047083235
76,43,0.03066039166666666,318.25035086249903
61,43,0,318.25035086249903
76,0,0.5353776083333333,318.78572847083234
61,0,0,318.78572847083234
80,43,0,318.78572847083234
49,43,0,318.78572847083234
49,0,0.52083328125,319.30656175208236
57,43,0.03009258958333333,319.3366543416657
57,0,0,319.3366543416657
57,43,0,319.3366543416657
66,43,0.5555555,319.8922098416657
80,0,0.20601849791666665,320.09822833958236
78,43,0.07175925208333332,320.1699875916657
57,0,0.21990738541666666,320.38989497708235
66,0,0.027777774999999998,320.41767275208235
78,0,0.013888887499999999,320.43156163958236
76,43,0.016203702083333334,320.4477653416657
64,43,0,320.4477653416657
76,0,0.26157404791666666,320.70933938958234
75,43,0.016203702083333334,320.72554309166566
64,0,0.24768516041666663,320.9732282520823
75,0,0.013888887499999999,320.9871171395823
75,43,0.016203702083333334,321.00332084166564
54,43,0,321.00332084166564
63,43,0,321.00332084166564
54,0,0.5254629104166666,321.5287837520823
63,0,0,321.5287837520823
57,43,0.03009258958333333,321.5588763416656
75,0,0.49768513541666665,322.05656147708225
57,0,0.027777774999999998,322.08433925208226
66,43,0.03009258958333333,322.1144318416656
66,0,0.5254629104166666,322.6398947520822
69,43,0.03009258958333333,322.66998734166555
63,43,0,322.66998734166555
69,0,0.5254629104166666,323.1954502520822
63,0,0,323.1954502520822
88,43,0.03009258958333333,323.2255428416655
48,43,0,323.2255428416655
88,0,0.52083328125,323.74637612291554
48,0,0,323.74637612291554
87,43,0.03009258958333333,323.77646871249885
57,43,0,323.77646871249885
57,0,0,323.77646871249885
57,43,0,323.77646871249885
87,0,0.5254629104166666,324.3019316229155
85,43,0.03009258958333333,324.3320242124988
66,43,0,324.3320242124988
85,0,0.3495370020833333,324.68156121458213
84,43,0.020833331249999996,324.70239454583214
57,0,0.12731480208333332,324.82970934791547
66,0,0.027777774999999998,324.8574871229155
56,43,0.03009258958333333,324.8875797124988
64,43,0,324.8875797124988
84,0,0.16435183541666665,325.05193154791544
85,43,0.020833331249999996,325.07276487916545
56,0,0.34027774375,325.41304262291544
64,0,0,325.41304262291544
85,0,0.009259258333333333,325.42230188124876
87,43,0.020833331249999996,325.44313521249876
54,43,0,325.44313521249876
63,43,0,325.44313521249876
87,0,0.26157404791666666,325.7047092604154
78,43,0.016203702083333334,325.72091296249874
54,0,0.24768516041666663,325.9685981229154
63,0,0,325.9685981229154
78,0,0.013888887499999999,325.9824870104154
80,43,0.016203702083333334,325.9986907124987
57,43,0,325.9986907124987
80,0,0.26157404791666666,326.2602647604154
81,43,0.016203702083333334,326.2764684624987
57,0,0.24768516041666663,326.5241536229154
81,0,0.013888887499999999,326.5380425104154
73,43,0,326.5380425104154
66,43,0,326.5380425104154
73,0,0.05528845416666667,326.59333096458204
75,43,0.0072115375,326.600542502082
75,0,0.05528845416666667,326.6558309562487
73,43,0.0072115375,326.66304249374866
73,0,0.06009614583333333,326.723138639582
72,43,0.0072115375,326.73035017708196
72,0,0.18028843749999998,326.91063861458196
75,43,0.012019229166666666,326.9226578437486
66,0,0.16105767083333333,327.0837155145819
75,0,0.019230766666666666,327.1029462812486
78,43,0.012019229166666666,327.11496551041523
63,43,0,327.11496551041523
78,0,0.18028843749999998,327.2952539479152
83,43,0.012019229166666666,327.30727317708187
83,0,0.18028843749999998,327.48756161458186
81,43,0.012019229166666666,327.4995808437485
63,0,0.16105767083333333,327.6606385145818
81,0,0.019230766666666666,327.6798692812485
80,43,0,327.6798692812485
49,43,0,327.6798692812485
49,0,0.5306606249999999,328.2105299062485
56,43,0.03066039166666666,328.2411902979152
56,0,0,328.2411902979152
56,43,0,328.2411902979152
64,43,0.5660379999999999,328.8072282979152
80,0,0.2099057583333333,329.0171340562485
78,43,0.07311324166666665,329.09024729791514
56,0,0.2240567083333333,329.31430400624845
64,0,0.028301899999999994,329.3426059062484
78,0,0.014150949999999997,329.3567568562484
80,43,0.016509441666666663,329.37326629791505
54,43,0,329.37326629791505
63,43,0,329.37326629791505
80,0,0.17688687499999997,329.55015317291503
78,43,0.011792458333333332,329.56194563124836
78,0,0.17688687499999997,329.73883250624834
76,43,0.011792458333333332,329.7506249645817
54,0,0.15801894166666663,329.90864390624836
63,0,0,329.90864390624836
76,0,0.01886793333333333,329.9275118395817
76,43,0.011792458333333332,329.93930429791504
52,43,0,329.93930429791504
61,43,0,329.93930429791504
52,0,0.5353776083333333,330.47468190624835
61,0,0,330.47468190624835
56,43,0.03066039166666666,330.50534229791504
76,0,0.5070757083333333,331.01241800624837
56,0,0.028301899999999994,331.04071990624834
64,43,0.03066039166666666,331.071380297915
64,0,0.5353776083333333,331.60675790624833
56,43,0.03066039166666666,331.637418297915
56,0,0.5353776083333333,332.1727959062483
68,43,0,332.1727959062483
49,43,0,332.1727959062483
49,0,0.52083328125,332.69362918749835
56,43,0.03009258958333333,332.72372177708166
56,0,0,332.72372177708166
56,43,0,332.72372177708166
68,0,0.49768513541666665,333.2214069124983
73,43,0.05787036458333333,333.27927727708163
64,43,0,333.27927727708163
56,0,0.49768513541666665,333.7769624124983
64,0,0.027777774999999998,333.8047401874983
52,43,0.03009258958333333,333.8348327770816
61,43,0,333.8348327770816
73,0,0.49768513541666665,334.33251791249825
52,0,0.027777774999999998,334.36029568749825
61,0,0,334.36029568749825
75,43,0.03009258958333333,334.39038827708157
54,43,0,334.39038827708157
75,0,0.20833331249999998,334.59872158958154
76,43,0.013888887499999999,334.61261047708155
76,0,0.20833331249999998,334.8209437895815
75,43,0.013888887499999999,334.8348326770815
54,0,0.08101851041666666,334.91585118749816
57,43,0.03009258958333333,334.9459437770815
75,0,0.09722221249999999,335.0431659895815
74,43,0.013888887499999999,335.0570548770815
74,0,0.20833331249999998,335.2653881895815
75,43,0.013888887499999999,335.2792770770815
57,0,0.19212961041666665,335.47140668749813
75,0,0.016203702083333334,335.48761038958145
76,43,0.013888887499999999,335.50149927708145
69,43,0,335.50149927708145
69,0,0.5254629104166666,336.0269621874981
60,43,0.03009258958333333,336.0570547770814
63,43,0,336.0570547770814
76,0,0.23379627291666666,336.2908510499981
78,43,0.04398147708333333,336.3348325270814
60,0,0.24768516041666663,336.58251768749807
63,0,0,336.58251768749807
78,0,0.013888887499999999,336.59640657499807
80,43,0.016203702083333334,336.6126102770814
52,43,0,336.6126102770814
52,0,0.52083328125,337.1334435583314
56,43,0.03009258958333333,337.1635361479147
56,0,0,337.1635361479147
56,43,0,337.1635361479147
80,0,0.23379627291666666,337.3973324208314
85,43,0.18287035208333333,337.58020277291473
85,0,0.12962961666666667,337.7098323895814
73,43,0.009259258333333333,337.7190916479147
64,43,0,337.7190916479147
56,0,0.49768513541666665,338.21677678333134
64,0,0.027777774999999998,338.24455455833134
52,43,0.03009258958333333,338.27464714791466
61,43,0,338.27464714791466
73,0,0.23379627291666666,338.5084434208313
74,43,0.04398147708333333,338.55242489791465
52,0,0.24768516041666663,338.8001100583313
61,0,0,338.8001100583313
74,0,0.013888887499999999,338.8139989458313
75,43,0.016203702083333334,338.83020264791463
54,43,0,338.83020264791463
75,0,0.18749998124999998,339.01770262916466
76,43,0.013888887499999999,339.03159151666466
76,0,0.18749998124999998,339.2190914979147
74,43,0.016203702083333334,339.235295199998
54,0,0.12037035833333332,339.35566555833134
57,43,0.03009258958333333,339.38575814791466
74,0,0.03703703333333333,339.422795181248
75,43,0.013888887499999999,339.436684068748
75,0,0.18749998124999998,339.624184049998
76,43,0.013888887499999999,339.638072937498
76,0,0.18749998124999998,339.82557291874804
77,43,0.013888887499999999,339.83946180624804
57,0,0.07175925208333332,339.91122105833136
69,43,0.03009258958333333,339.9413136479147
77,0,0.08564813958333332,340.026961787498
78,43,0.016203702083333334,340.0431654895813
78,0,0.18749998124999998,340.23066547083135
76,43,0.013888887499999999,340.24455435833136
76,0,0.18749998124999998,340.4320543395814
77,43,0.013888887499999999,340.4459432270814
69,0,0.020833331249999996,340.4667765583314
60,43,0.03009258958333333,340.4968691479147
63,43,0,340.4968691479147
77,0,0.13657406041666664,340.63344320833136
78,43,0.013888887499999999,340.64733209583136
78,0,0.18749998124999998,340.8348320770814
79,43,0.016203702083333334,340.8510357791647
60,0,0.17129627916666665,341.02233205833136
63,0,0,341.02233205833136
79,0,0.016203702083333334,341.0385357604147
80,43,0.013888887499999999,341.0524246479147
52,43,0,341.0524246479147
52,0,0,341.0524246479147
52,43,0,341.0524246479147
56,43,0.5509258708333333,341.603350518748
80,0,0.49768513541666665,342.10103565416466
56,0,0.027777774999999998,342.12881342916467
78,43,0.03009258958333333,342.158906018748
61,43,0,342.158906018748
78,0,0.26157404791666666,342.42048006666465
80,43,0.016203702083333334,342.43668376874797
61,0,0.24768516041666663,342.68436892916463
80,0,0.013888887499999999,342.69825781666464
78,43,0.016203702083333334,342.71446151874795
56,43,0,342.71446151874795
78,0,0.26157404791666666,342.9760355666646
76,43,0.016203702083333334,342.99223926874794
52,0,0.16435183541666665,343.1565911041646
56,0,0.08333332499999999,343.2399244291646
76,0,0.013888887499999999,343.2538133166646
76,43,0.016203702083333334,343.2700170187479
45,43,0,343.2700170187479
45,0,0,343.2700170187479
45,43,0,343.2700170187479
76,0,0.26157404791666666,343.5315910666646
78,43,0.016203702083333334,343.5477947687479
78,0,0.26157404791666666,343.8093688166646
76,43,0.016203702083333334,343.8255725187479
55,43,0,343.8255725187479
76,0,0.26157404791666666,344.08714656666456
75,43,0.016203702083333334,344.1033502687479
55,0,0.24768516041666663,344.35103542916454
75,0,0.013888887499999999,344.36492431666454
75,43,0.016203702083333334,344.38112801874786
61,43,0,344.38112801874786
75,0,0.26157404791666666,344.6427020666645
76,43,0.016203702083333334,344.65890576874784
61,0,0.24768516041666663,344.9065909291645
76,0,0.013888887499999999,344.9204798166645
75,43,0.016203702083333334,344.9366835187478
51,43,0,344.9366835187478
75,0,0.26157404791666666,345.1982575666645
73,43,0.016203702083333334,345.2144612687478
45,0,0.16435183541666665,345.37881310416446
51,0,0.08333332499999999,345.4621464291645
73,0,0.013888887499999999,345.4760353166645
72,43,0,345.4760353166645
44,43,0,345.4760353166645
44,0,0.5408653125,346.01690062916447
51,43,0.031249995833333332,346.0481506249978
72,0,0.5168268541666666,346.56497747916444
51,0,0.02884615,346.59382362916443
75,43,0.031249995833333332,346.62507362499775
60,43,0,346.62507362499775
60,0,0.5456730041666666,347.1707466291644
51,43,0.031249995833333332,347.2019966249977
51,0,0.5456730041666666,347.74766962916436
60,43,0.031249995833333332,347.7789196249977
60,0,0.5456730041666666,348.32459262916433
51,43,0.031249995833333332,348.35584262499765
75,0,0.45913455416666665,348.8149771791643
51,0,0.08653845,348.9015156291643
44,43,0.031249995833333332,348.9327656249976
44,0,0.5456730041666666,349.47843862916426
51,43,0.031249995833333332,349.5096886249976
51,0,0.5456730041666666,350.0553616291642
63,43,0,350.0553616291642
75,43,0,350.0553616291642
44,43,0,350.0553616291642
44,0,0,350.0553616291642
44,43,0,350.0553616291642
51,43,0.5509258708333333,350.60628749999756
63,0,0.49768513541666665,351.1039726354142
75,0,0,351.1039726354142
51,0,0.027777774999999998,351.1317504104142
65,43,0.03009258958333333,351.16184299999753
77,43,0,351.16184299999753
59,43,0,351.16184299999753
65,0,0.5254629104166666,351.6873059104142
77,0,0,351.6873059104142
59,0,0,351.6873059104142
67,43,0.03009258958333333,351.7173984999975
79,43,0,351.7173984999975
51,43,0,351.7173984999975
44,0,0.44212958541666664,352.1595280854142
67,0,0.08333332499999999,352.2428614104142
79,0,0,352.2428614104142
51,0,0,352.2428614104142
68,43,0.03009258958333333,352.2729539999975
68,0,0,352.2729539999975
68,43,0,352.2729539999975
80,43,0,352.2729539999975
59,43,0,352.2729539999975
80,0,0.17361109374999997,352.44656509374755
70,43,0.011574072916666666,352.45813916666424
82,43,0,352.45813916666424
70,0,0.17361109374999997,352.63175026041426
82,0,0,352.63175026041426
68,0,0.011574072916666666,352.64332433333095
68,43,0,352.64332433333095
80,43,0,352.64332433333095
59,0,0.15509257708333332,352.7984169104143
68,0,0.018518516666666665,352.816935427081
80,0,0,352.816935427081
67,43,0.011574072916666666,352.82850949999766
79,43,0,352.82850949999766
51,43,0,352.82850949999766
67,0,0.26157404791666666,353.09008354791433
79,0,0,353.09008354791433
68,43,0.016203702083333334,353.10628724999765
80,43,0,353.10628724999765
51,0,0.24768516041666663,353.3539724104143
68,0,0.013888887499999999,353.3678612979143
80,0,0,353.3678612979143
70,43,0.016203702083333334,353.38406499999763
82,43,0,353.38406499999763
44,43,0,353.38406499999763
44,0,0.5254629104166666,353.9095279104143
51,43,0.03009258958333333,353.9396204999976
70,0,0.23379627291666666,354.17341677291427
82,0,0,354.17341677291427
71,43,0.04398147708333333,354.2173982499976
83,43,0,354.2173982499976
51,0,0.24768516041666663,354.46508341041425
71,0,0.013888887499999999,354.47897229791425
83,0,0,354.47897229791425
70,43,0.016203702083333334,354.49517599999757
82,43,0,354.49517599999757
43,43,0,354.49517599999757
43,0,0,354.49517599999757
43,43,0,354.49517599999757
51,43,0.5509258708333333,355.0461018708309
51,0,0.5254629104166666,355.57156478124756
58,43,0.03009258958333333,355.6016573708309
70,0,0.46990736041666664,356.0715647312475
82,0,0,356.0715647312475
58,0,0.055555549999999995,356.1271202812475
75,43,0.03009258958333333,356.15721287083085
87,43,0,356.15721287083085
51,43,0,356.15721287083085
43,0,0.44212958541666664,356.59934245624754
75,0,0.08333332499999999,356.68267578124755
87,0,0,356.68267578124755
51,0,0,356.68267578124755
75,43,0.03009258958333333,356.7127683708309
58,43,0,356.7127683708309
63,43,0.062499993749999996,356.7752683645809
58,0,0.4629629166666666,357.2382312812475
51,43,0.03009258958333333,357.26832387083084
51,0,0.5254629104166666,357.7937867812475
43,43,0.03009258958333333,357.8238793708308
43,0,0.5254629104166666,358.34934228124746
51,43,0.03009258958333333,358.3794348708308
75,0,0.44212958541666664,358.8215644562475
63,0,0,358.8215644562475
51,0,0.08333332499999999,358.9048977812475
62,43,0.03009258958333333,358.9349903708308
74,43,0,358.9349903708308
30,43,0,358.9349903708308
30,0,0.52083328125,359.4558236520808
42,43,0.03009258958333333,359.48591624166414
62,0,0.23379627291666666,359.7197125145808
74,0,0,359.7197125145808
61,43,0.04398147708333333,359.7636939916641
73,43,0,359.7636939916641
42,0,0.24768516041666663,360.0113791520808
61,0,0.013888887499999999,360.0252680395808
73,0,0,360.0252680395808
60,43,0.016203702083333334,360.0414717416641
72,43,0,360.0414717416641
58,43,0,360.0414717416641
60,0,0.26157404791666666,360.3030457895808
72,0,0,360.3030457895808
61,43,0.016203702083333334,360.3192494916641
73,43,0,360.3192494916641
58,0,0.24768516041666663,360.56693465208076
61,0,0.013888887499999999,360.58082353958076
73,0,0,360.58082353958076
63,43,0.016203702083333334,360.5970272416641
75,43,0,360.5970272416641
51,43,0,360.5970272416641
63,0,0.26157404791666666,360.85860128958075
75,0,0,360.85860128958075
65,43,0.016203702083333334,360.87480499166406
77,43,0,360.87480499166406
51,0,0.24768516041666663,361.12249015208073
65,0,0.013888887499999999,361.13637903958073
77,0,0,361.13637903958073
66,43,0.016203702083333334,361.15258274166405
66,0,0,361.15258274166405
66,43,0,361.15258274166405
57,43,0,361.15258274166405
78,43,0.27777775,361.43036049166403
66,0,0.24768516041666663,361.6780456520807
57,0,0,361.6780456520807
78,0,0.013888887499999999,361.6919345395807
68,43,0.016203702083333334,361.708138241664
80,43,0,361.708138241664
49,43,0,361.708138241664
68,0,0.26157404791666666,361.9697122895807
80,0,0,361.9697122895807
66,43,0.016203702083333334,361.985915991664
78,43,0,361.985915991664
66,0,0.062499993749999996,362.048415985414
78,0,0,362.048415985414
68,43,0.006944443749999999,362.055360429164
80,43,0,362.055360429164
68,0,0.062499993749999996,362.117860422914
80,0,0,362.117860422914
66,43,0.006944443749999999,362.124804866664
78,43,0,362.124804866664
49,0,0.10879628541666665,362.23360115208067
66,0,0.020833331249999996,362.25443448333067
78,0,0,362.25443448333067
65,43,0.009259258333333333,362.263693741664
77,43,0,362.263693741664
42,43,0,362.263693741664
65,0,0.26157404791666666,362.52526778958065
77,0,0,362.52526778958065
66,43,0.016203702083333334,362.54147149166397
78,43,0,362.54147149166397
42,0,0.24768516041666663,362.78915665208064
66,0,0.013888887499999999,362.80304553958064
78,0,0,362.80304553958064
68,43,0.016203702083333334,362.81924924166395
80,43,0,362.81924924166395
49,43,0,362.81924924166395
68,0,0.26157404791666666,363.0808232895806
80,0,0,363.0808232895806
69,43,0.016203702083333334,363.09702699166394
81,43,0,363.09702699166394
49,0,0.24768516041666663,363.3447121520806
69,0,0.013888887499999999,363.3586010395806
81,0,0,363.3586010395806
68,43,0.016203702083333334,363.3748047416639
80,43,0,363.3748047416639
41,43,0,363.3748047416639
41,0,0,363.3748047416639
41,43,0,363.3748047416639
68,0,0.16898146458333332,363.54378620624726
80,0,0,363.54378620624726
73,43,0.011574072916666666,363.55536027916395
85,43,0,363.55536027916395
73,0,0.17361109374999997,363.728971372914
85,0,0,363.728971372914
72,43,0.10416665624999999,363.833138029164
84,43,0,363.833138029164
72,0,0.08564813958333332,363.9187861687473
84,0,0,363.9187861687473
71,43,0.006944443749999999,363.9257306124973
83,43,0,363.9257306124973
49,43,0,363.9257306124973
71,0,0.17361109374999997,364.09934170624734
83,0,0,364.09934170624734
70,43,0.011574072916666666,364.11091577916403
82,43,0,364.11091577916403
70,0,0.17361109374999997,364.28452687291406
82,0,0,364.28452687291406
69,43,0.011574072916666666,364.29610094583074
81,43,0,364.29610094583074
49,0,0.15509257708333332,364.4511935229141
69,0,0.018518516666666665,364.46971203958077
81,0,0,364.46971203958077
68,43,0.011574072916666666,364.48128611249746
80,43,0,364.48128611249746
56,43,0,364.48128611249746
68,0,0.17361109374999997,364.6548972062475
80,0,0,364.6548972062475
67,43,0.011574072916666666,364.66647127916417
79,43,0,364.66647127916417
67,0,0.17361109374999997,364.8400823729142
79,0,0,364.8400823729142
66,43,0.011574072916666666,364.8516564458309
78,43,0,364.8516564458309
56,0,0.15509257708333332,365.0067490229142
66,0,0.018518516666666665,365.0252675395809
78,0,0,365.0252675395809
65,43,0.011574072916666666,365.0368416124976
77,43,0,365.0368416124976
49,43,0,365.0368416124976
65,0,0.06712962291666666,365.10397123541424
77,0,0,365.10397123541424
64,43,0.07175925208333332,365.17573048749756
76,43,0,365.17573048749756
64,0,0.06712962291666666,365.2428601104142
76,0,0,365.2428601104142
63,43,0.07175925208333332,365.3146193624975
75,43,0,365.3146193624975
63,0,0.06712962291666666,365.38174898541416
75,0,0,365.38174898541416
62,43,0.07175925208333332,365.4535082374975
74,43,0,365.4535082374975
41,0,0.025462960416666666,365.4789711979142
62,0,0.04166666249999999,365.5206378604142
74,0,0,365.5206378604142
49,0,0.04166666249999999,365.5623045229142
61,43,0.03009258958333333,365.5923971124975
73,43,0,365.5923971124975
56,43,0,365.5923971124975
56,0,0.5254629104166666,366.11786002291416
49,43,0.03009258958333333,366.1479526124975
49,0,0.5254629104166666,366.6734155229141
41,43,0.03009258958333333,366.70350811249745
41,0,0.5254629104166666,367.2289710229141
49,43,0.03009258958333333,367.2590636124974
49,0,0.5254629104166666,367.78452652291406
28,43,0.03009258958333333,367.8146191124974
61,0,0.40972218125,368.2243412937474
73,0,0,368.2243412937474
28,0,0.11111109999999999,368.3354523937474
59,43,0.03009258958333333,368.3655449833307
71,43,0,368.3655449833307
40,43,0,368.3655449833307
59,0,0.5254629104166666,368.89100789374737
71,0,0,368.89100789374737
40,0,0,368.89100789374737
64,43,0.03009258958333333,368.9211004833307
76,43,0,368.9211004833307
56,43,0,368.9211004833307
64,0,0.5254629104166666,369.44656339374734
76,0,0,369.44656339374734
56,0,0,369.44656339374734
66,43,0.03009258958333333,369.47665598333066
78,43,0,369.47665598333066
47,43,0,369.47665598333066
66,0,0.5254629104166666,370.0021188937473
78,0,0,370.0021188937473
47,0,0,370.0021188937473
68,43,0.03009258958333333,370.0322114833306
80,43,0,370.0322114833306
56,43,0,370.0322114833306
56,0,0.5254629104166666,370.5576743937473
47,43,0.03009258958333333,370.5877669833306
68,0,0.49768513541666665,371.08545211874724
80,0,0,371.08545211874724
47,0,0.027777774999999998,371.11322989374725
71,43,0.03009258958333333,371.14332248333056
83,43,0,371.14332248333056
40,43,0,371.14332248333056
71,0,0.5254629104166666,371.6687853937472
83,0,0,371.6687853937472
40,0,0,371.6687853937472
76,43,0.03009258958333333,371.69887798333053
88,43,0,371.69887798333053
47,43,0,371.69887798333053
76,0,0.5254629104166666,372.2243408937472
88,0,0,372.2243408937472
47,0,0,372.2243408937472
80,43,0,372.2243408937472
92,43,0,372.2243408937472
40,43,0,372.2243408937472
40,0,0.5306606249999999,372.7550015187472
52,43,0.03066039166666666,372.78566191041386
80,0,0.5070757083333333,373.2927376187472
92,0,0,373.2927376187472
52,0,0.028301899999999994,373.32103951874717
83,43,0.03066039166666666,373.35169991041386
95,43,0,373.35169991041386
56,43,0,373.35169991041386
62,43,0,373.35169991041386
56,0,0.5353776083333333,373.88707751874716
62,0,0,373.88707751874716
52,43,0.03066039166666666,373.91773791041385
52,0,0.5353776083333333,374.45311551874715
56,43,0.03066039166666666,374.48377591041384
62,43,0,374.48377591041384
56,0,0.5353776083333333,375.01915351874715
62,0,0,375.01915351874715
52,43,0.03066039166666666,375.04981391041383
83,0,0.4504719083333332,375.50028581874716
95,0,0,375.50028581874716
52,0,0.08490569999999999,375.58519151874714
82,43,0.03066039166666666,375.6158519104138
94,43,0,375.6158519104138
58,43,0,375.6158519104138
62,43,0,375.6158519104138
58,0,0.5353776083333333,376.15122951874713
62,0,0,376.15122951874713
52,43,0.03066039166666666,376.1818899104138
52,0,0.5353776083333333,376.7172675187471
40,43,0,376.7172675187471
82,0,0.4831730125,377.2004405312471
94,0,0,377.2004405312471
40,0,0.0576923,377.2581328312471
80,43,0.031249995833333332,377.28938282708043
92,43,0,377.28938282708043
52,43,0,377.28938282708043
80,0,0.5456730041666666,377.8350558312471
92,0,0,377.8350558312471
52,0,0,377.8350558312471
80,43,0.031249995833333332,377.8663058270804
92,43,0,377.8663058270804
59,43,0,377.8663058270804
62,43,0,377.8663058270804
80,0,0.3629807208333333,378.2292865479137
92,0,0,378.2292865479137
78,43,0.0216346125,378.2509211604137
90,43,0,378.2509211604137
59,0,0.16105767083333333,378.41197883124704
62,0,0,378.41197883124704
52,43,0.031249995833333332,378.44322882708036
78,0,0.17067305416666667,378.61390188124705
90,0,0,378.61390188124705
76,43,0.0216346125,378.63553649374705
88,43,0,378.63553649374705
52,0,0.3533653375,378.98890183124706
76,0,0.009615383333333333,378.9985172145804
88,0,0,378.9985172145804
75,43,0,378.9985172145804
87,43,0,378.9985172145804
40,43,0,378.9985172145804
75,0,0.55637274375,379.55488995833036
87,0,0,379.55488995833036
40,0,0,379.55488995833036
74,43,0.03186275625,379.58675271458037
86,43,0,379.58675271458037
52,43,0,379.58675271458037
74,0,0.55637274375,380.14312545833036
86,0,0,380.14312545833036
52,0,0,380.14312545833036
71,43,0.03186275625,380.17498821458037
83,43,0,380.17498821458037
56,43,0,380.17498821458037
62,43,0,380.17498821458037
71,0,0.37009816875,380.5450863833304
83,0,0,380.5450863833304
70,43,0.02205883125,380.56714521458036
82,43,0,380.56714521458036
56,0,0.16421574375,380.73136095833036
62,0,0,380.73136095833036
52,43,0.03186275625,380.76322371458036
70,0,0.17401966875,380.9372433833304
82,0,0,380.9372433833304
68,43,0.02205883125,380.95930221458036
80,43,0,380.95930221458036
52,0,0.36029424374999997,381.31959645833035
68,0,0.009803925,381.3294003833304
80,0,0,381.3294003833304
67,43,0,381.3294003833304
79,43,0,381.3294003833304
39,43,0,381.3294003833304
39,0,0.5625,381.8919003833304
51,43,0.0325,381.9244003833304
51,0,0,381.9244003833304
51,43,0,381.9244003833304
67,0,0.5375,382.46190038333043
79,0,0,382.46190038333043
70,43,0,382.46190038333043
82,43,0,382.46190038333043
61,43,0,382.46190038333043
61,0,0.6305553979166666,383.0924557812471
65,43,0.03611110208333333,383.12856688333045
65,0,0.6305553979166666,383.75912228124713
60,43,0,383.75912228124713
51,0,0.5684522104166666,384.3275744916638
60,0,0.107142825,384.4347173166638
63,43,0.038690464583333334,384.47340778124715
70,0,0.5684522104166666,385.04185999166384
82,0,0,385.04185999166384
63,0,0.107142825,385.1490028166638
58,43,0.038690464583333334,385.18769328124716
58,0,0.6755950354166667,385.86328831666384
61,43,0.038690464583333334,385.9019787812472
61,0,0.6755950354166667,386.57757381666386
72,43,0,386.57757381666386
44,43,0,386.57757381666386
44,0,0.5306606249999999,387.10823444166385
51,43,0.03066039166666666,387.13889483333054
51,0,0.5353776083333333,387.67427244166385
56,43,0.03066039166666666,387.70493283333053
60,43,0,387.70493283333053
72,0,0.4787738083333332,388.1837066416639
56,0,0.05660379999999999,388.2403104416639
60,0,0,388.2403104416639
73,43,0.03066039166666666,388.2709708333306
51,43,0,388.2709708333306
73,0,0.5353776083333333,388.8063484416639
51,0,0,388.8063484416639
75,43,0,388.8063484416639
44,43,0,388.8063484416639
75,0,0.20833331249999998,389.01468175416386
77,43,0.013888887499999999,389.02857064166386
77,0,0.20833331249999998,389.23690395416384
75,43,0.013888887499999999,389.25079284166384
44,0,0.08101851041666666,389.3318113520805
51,43,0.03009258958333333,389.3619039416638
75,0,0.09722221249999999,389.4591261541638
74,43,0.013888887499999999,389.4730150416638
74,0,0.20833331249999998,389.6813483541638
75,43,0.013888887499999999,389.6952372416638
51,0,0.19212961041666665,389.88736685208045
75,0,0.016203702083333334,389.90357055416376
80,43,0.013888887499999999,389.91745944166377
56,43,0,389.91745944166377
60,43,0,389.91745944166377
56,0,0.5254629104166666,390.4429223520804
60,0,0,390.4429223520804
51,43,0.03009258958333333,390.47301494166373
80,0,0.23379627291666666,390.7068112145804
84,43,0.04398147708333333,390.7507926916637
51,0,0.24768516041666663,390.9984778520804
84,0,0.013888887499999999,391.0123667395804
82,43,0.016203702083333334,391.0285704416637
39,43,0,391.0285704416637
39,0,0.52083328125,391.5494037229137
51,43,0.03009258958333333,391.57949631249704
51,0,0.5254629104166666,392.1049592229137
55,43,0.03009258958333333,392.135051812497
61,43,0,392.135051812497
82,0,0.46990736041666664,392.60495917291365
55,0,0.055555549999999995,392.66051472291366
61,0,0,392.66051472291366
79,43,0.03009258958333333,392.690607312497
51,43,0,392.690607312497
79,0,0.5254629104166666,393.21607022291363
51,0,0,393.21607022291363
75,43,0.03009258958333333,393.24616281249695
39,43,0,393.24616281249695
39,0,0.5254629104166666,393.7716257229136
51,43,0.03009258958333333,393.8017183124969
51,0,0.5254629104166666,394.32718122291357
63,43,0.03009258958333333,394.3572738124969
75,0,0.46990736041666664,394.8271811729135
63,0,0.055555549999999995,394.88273672291353
73,43,0.03009258958333333,394.91282931249685
51,43,0,394.91282931249685
73,0,0.5254629104166666,395.4382922229135
51,0,0,395.4382922229135
72,43,0.03009258958333333,395.4683848124968
44,43,0,395.4683848124968
72,0,0.3449073729166666,395.8132921854135
73,43,0.020833331249999996,395.8341255166635
44,0,0.15509257708333332,395.98921809374684
51,43,0.03009258958333333,396.01931068333016
73,0,0.16435183541666665,396.1836625187468
72,43,0.020833331249999996,396.2044958499968
51,0,0.34027774375,396.5447735937468
72,0,0.009259258333333333,396.5540328520801
71,43,0.020833331249999996,396.57486618333013
56,43,0,396.57486618333013
60,43,0,396.57486618333013
71,0,0.26157404791666666,396.8364402312468
72,43,0.016203702083333334,396.8526439333301
56,0,0.24768516041666663,397.1003290937468
60,0,0,397.1003290937468
72,0,0.013888887499999999,397.1142179812468
73,43,0.016203702083333334,397.1304216833301
51,43,0,397.1304216833301
73,0,0.26157404791666666,397.39199573124677
74,43,0.016203702083333334,397.4081994333301
51,0,0.24768516041666663,397.65588459374675
74,0,0.013888887499999999,397.66977348124675
75,43,0,397.66977348124675
75,0,0,397.66977348124675
75,43,0,397.66977348124675
44,43,0,397.66977348124675
77,43,0.07499994999999998,397.74477343124676
77,0,0.06562495624999999,397.8103983874968
75,0,0.009374993749999998,397.81977338124676
75,43,0,397.81977338124676
77,43,0.07499994999999998,397.89477333124677
77,0,0.06562495624999999,397.9603982874968
75,0,0.009374993749999998,397.9697732812468
75,43,0,397.9697732812468
75,0,0.06562495624999999,398.0353982374968
74,43,0,398.0353982374968
44,0,0.2523586083333333,398.28775684583013
74,0,0.014150949999999997,398.3019077958301
75,43,0.016509441666666663,398.31841723749676
51,43,0,398.31841723749676
75,0,0.2665095583333333,398.5849267958301
77,43,0.016509441666666663,398.6014362374967
51,0,0.2523586083333333,398.85379484583007
77,0,0.014150949999999997,398.86794579583005
79,43,0.016509441666666663,398.8844552374967
56,43,0,398.8844552374967
60,43,0,398.8844552374967
79,0,0.2665095583333333,399.15096479583
80,43,0.016509441666666663,399.16747423749666
56,0,0.2523586083333333,399.41983284583
60,0,0,399.41983284583
80,0,0.014150949999999997,399.43398379583
82,43,0.016509441666666663,399.45049323749663
51,43,0,399.45049323749663
82,0,0.2665095583333333,399.71700279582996
84,43,0.016509441666666663,399.7335122374966
51,0,0.2523586083333333,399.98587084582994
84,0,0.014150949999999997,400.0000217958299
84,43,0.016509441666666663,400.01653123749657
39,43,0,400.01653123749657
84,0,0.5306606249999999,400.54719186249656
39,0,0,400.54719186249656
82,43,0.03066039166666666,400.57785225416325
51,43,0,400.57785225416325
51,0,0.5353776083333333,401.11322986249655
55,43,0.03066039166666666,401.14389025416324
61,43,0,401.14389025416324
82,0,0.5070757083333333,401.65096596249657
55,0,0.028301899999999994,401.67926786249654
61,0,0,401.67926786249654
79,43,0.03066039166666666,401.70992825416323
51,43,0,401.70992825416323
51,0,0.5353776083333333,402.24530586249654
39,43,0.03066039166666666,402.2759662541632
79,0,0.5070757083333333,402.78304196249655
39,0,0.028301899999999994,402.8113438624965
75,43,0.03066039166666666,402.8420042541632
51,43,0,402.8420042541632
51,0,0.5353776083333333,403.3773818624965
63,43,0.03066039166666666,403.4080422541632
75,0,0.5070757083333333,403.91511796249654
63,0,0.028301899999999994,403.9434198624965
73,43,0.03066039166666666,403.9740802541632
51,43,0,403.9740802541632
73,0,0.5353776083333333,404.5094578624965
51,0,0,404.5094578624965
72,43,0.03066039166666666,404.5401182541632
44,43,0,404.5401182541632
44,0,0.5306606249999999,405.0707788791632
51,43,0.03066039166666666,405.10143927082987
72,0,0.5070757083333333,405.6085149791632
51,0,0.028301899999999994,405.6368168791632
77,43,0.03066039166666666,405.66747727082986
56,43,0,405.66747727082986
56,0,0.5353776083333333,406.20285487916317
60,43,0.03066039166666666,406.23351527082986
77,0,0.2382076583333333,406.4717229291632
75,43,0.04481134166666666,406.5165342708299
60,0,0.2523586083333333,406.7688928791632
75,0,0.014150949999999997,406.7830438291632
74,43,0.016509441666666663,406.79955327082985
44,43,0,406.79955327082985
44,0,0.5353776083333333,407.33493087916315
53,43,0.03066039166666666,407.36559127082984
74,0,0.5070757083333333,407.87266697916317
53,0,0.028301899999999994,407.90096887916314
79,43,0.03066039166666666,407.93162927082983
58,43,0,407.93162927082983
58,0,0.5353776083333333,408.46700687916314
62,43,0.03066039166666666,408.4976672708298
79,0,0.2382076583333333,408.7358749291632
77,43,0.04481134166666666,408.78068627082985
62,0,0.2523586083333333,409.0330448791632
77,0,0.014150949999999997,409.0471958291632
75,43,0.016509441666666663,409.0637052708298
43,43,0,409.0637052708298
75,0,0.5306606249999999,409.5943658958298
43,0,0,409.5943658958298
80,43,0.03066039166666666,409.6250262874965
51,43,0,409.6250262874965
51,0,0.5353776083333333,410.1604038958298
58,43,0.03066039166666666,410.1910642874965
80,0,0.5070757083333333,410.6981399958298
58,0,0.028301899999999994,410.7264418958298
79,43,0.03066039166666666,410.7571022874965
63,43,0,410.7571022874965
79,0,0.5353776083333333,411.2924798958298
63,0,0,411.2924798958298
77,43,0.03066039166666666,411.32314028749647
45,43,0,411.32314028749647
77,0,0.2665095583333333,411.5896498458298
75,43,0.016509441666666663,411.60615928749644
45,0,0.2523586083333333,411.8585178958298
75,0,0.014150949999999997,411.87266884582976
91,43,0,411.87266884582976
53,43,0,411.87266884582976
91,0,0.33630942291666666,412.2089782687464
89,43,0.020833327083333332,412.22981159582974
53,0,0.31845228541666665,412.5482638812464
89,0,0.0178571375,412.5661210187464
87,43,0,412.5661210187464
60,43,0,412.5661210187464
87,0,0.1749998833333333,412.74112090207973
86,43,0.012499991666666665,412.7536208937464
86,0,0,412.7536208937464
86,43,0,412.7536208937464
87,43,0.06249995833333333,412.81612085207973
87,0,0.05624996249999999,412.8723708145797
86,0,0.006249995833333332,412.87862081041305
86,43,0,412.87862081041305
86,0,0.05624996249999999,412.93487077291303
84,43,0.006249995833333332,412.9411207687464
84,0,0.1749998833333333,413.1161206520797
86,43,0.012499991666666665,413.1286206437464
60,0,0.14687490208333331,413.2754955458297
86,0,0.028124981249999997,413.3036205270797
89,43,0.012499991666666665,413.3161205187464
63,43,0,413.3161205187464
89,0,0.23437484374999998,413.5504953624964
87,43,0.015624989583333332,413.56612035207974
87,0,0.23437484374999998,413.80049519582974
84,43,0.015624989583333332,413.81612018541307
63,0,0.20937486041666664,414.02549504582976
84,0,0.02499998333333333,414.0504950291631
82,43,0,414.0504950291631
46,43,0,414.0504950291631
82,0,0.16898146458333332,414.2194764937464
96,43,0.011574072916666666,414.2310505666631
96,0,0.17361109374999997,414.4046616604131
87,43,0.011574072916666666,414.4162357333298
46,0,0.15509257708333332,414.57132831041315
87,0,0.018518516666666665,414.58984682707984
94,43,0.011574072916666666,414.6014208999965
55,43,0,414.6014208999965
94,0,0.17361109374999997,414.77503199374655
82,43,0.011574072916666666,414.78660606666324
82,0,0.17361109374999997,414.96021716041326
92,43,0.011574072916666666,414.97179123332995
55,0,0.15509257708333332,415.1268838104133
92,0,0.018518516666666665,415.14540232708
87,43,0.011574072916666666,415.15697639999667
58,43,0,415.15697639999667
87,0,0.17361109374999997,415.3305874937467
91,43,0.011574072916666666,415.3421615666634
91,0,0.17361109374999997,415.5157726604134
79,43,0.011574072916666666,415.5273467333301
58,0,0.15509257708333332,415.68243931041343
79,0,0.018518516666666665,415.7009578270801
89,43,0.011574072916666666,415.7125318999968
63,43,0,415.7125318999968
89,0,0.17361109374999997,415.88614299374683
82,43,0.011574072916666666,415.8977170666635
82,0,0.17361109374999997,416.07132816041354
87,43,0.011574072916666666,416.08290223333023
63,0,0.15509257708333332,416.23799481041357
87,0,0.018518516666666665,416.25651332708026
77,43,0.011574072916666666,416.26808739999694
46,43,0,416.26808739999694
77,0,0.17361109374999997,416.44169849374697
86,43,0.011574072916666666,416.45327256666366
86,0,0.17361109374999997,416.6268836604137
80,43,0.011574072916666666,416.63845773333037
46,0,0.15509257708333332,416.7935503104137
80,0,0.018518516666666665,416.8120688270804
84,43,0.011574072916666666,416.8236428999971
53,43,0,416.8236428999971
84,0,0.17361109374999997,416.9972539937471
74,43,0.011574072916666666,417.0088280666638
74,0,0.17361109374999997,417.1824391604138
82,43,0.011574072916666666,417.1940132333305
53,0,0.15509257708333332,417.34910581041385
82,0,0.018518516666666665,417.36762432708053
77,43,0.011574072916666666,417.3791983999972
58,43,0,417.3791983999972
77,0,0.17361109374999997,417.55280949374725
80,43,0.011574072916666666,417.56438356666393
80,0,0.17361109374999997,417.73799466041396
68,43,0.011574072916666666,417.74956873333065
58,0,0.15509257708333332,417.904661310414
68,0,0.018518516666666665,417.9231798270807
79,43,0.011574072916666666,417.93475389999736
79,0,0,417.93475389999736
79,43,0,417.93475389999736
62,43,0,417.93475389999736
74,43,0.18518516666666665,418.119939066664
79,0,0.16435183541666665,418.28429090208067
74,0,0.009259258333333333,418.293550160414
77,43,0.011574072916666666,418.3051242333307
77,0,0,418.3051242333307
77,43,0,418.3051242333307
62,0,0.15509257708333332,418.460216810414
77,0,0.018518516666666665,418.4787353270807
67,43,0,418.4787353270807
75,43,0,418.4787353270807
39,43,0,418.4787353270807
39,0,0.55147078125,419.0302061083307
51,43,0.03186275625,419.0620688645807
51,0,0,419.0620688645807
51,43,0,419.0620688645807
67,0,0.52696096875,419.5890298333307
75,0,0,419.5890298333307
77,43,0.06127453125,419.6503043645807
85,43,0,419.6503043645807
89,43,0,419.6503043645807
61,43,0,419.6503043645807
61,0,0.55637274375,420.20667710833067
65,43,0.03186275625,420.2385398645807
77,0,0.52696096875,420.7655008333307
85,0,0,420.7655008333307
89,0,0,420.7655008333307
65,0,0.029411775,420.7949126083307
73,43,0.03186275625,420.8267753645807
82,43,0,420.8267753645807
85,43,0,420.8267753645807
58,43,0,420.8267753645807
51,0,0.46813741875,421.29491278333074
58,0,0.088235325,421.3831481083308
61,43,0.03186275625,421.4150108645808
73,0,0.52696096875,421.9419718333308
82,0,0,421.9419718333308
85,0,0,421.9419718333308
61,0,0.029411775,421.9713836083308
75,43,0.03186275625,422.00324636458083
79,43,0,422.00324636458083
84,43,0,422.00324636458083
51,43,0,422.00324636458083
51,0,0.55637274375,422.5596191083308
63,43,0.03186275625,422.5914818645808
75,0,0.52696096875,423.11844283333085
79,0,0,423.11844283333085
84,0,0,423.11844283333085
63,0,0.029411775,423.1478546083309
68,43,0,423.1478546083309
72,43,0,423.1478546083309
44,43,0,423.1478546083309
68,0,0.5408653125,423.68871992083086
72,0,0,423.68871992083086
44,0,0,423.68871992083086
70,43,0.031249995833333332,423.7199699166642
73,43,0,423.7199699166642
51,43,0,423.7199699166642
70,0,0.27163457916666667,423.99160449583087
73,0,0,423.99160449583087
68,43,0.01682692083333333,424.0084314166642
72,43,0,424.0084314166642
51,0,0.25721150416666666,424.2656429208309
68,0,0.014423075,424.2800659958309
72,0,0,424.2800659958309
67,43,0.01682692083333333,424.29689291666426
71,43,0,424.29689291666426
56,43,0,424.29689291666426
60,43,0,424.29689291666426
67,0,0.27163457916666667,424.56852749583095
71,0,0,424.56852749583095
68,43,0.01682692083333333,424.5853544166643
72,43,0,424.5853544166643
56,0,0.25721150416666666,424.84256592083096
60,0,0,424.84256592083096
68,0,0.014423075,424.856988995831
72,0,0,424.856988995831
70,43,0.01682692083333333,424.87381591666434
73,43,0,424.87381591666434
51,43,0,424.87381591666434
70,0,0.27163457916666667,425.145450495831
73,0,0,425.145450495831
71,43,0.01682692083333333,425.1622774166644
74,43,0,425.1622774166644
51,0,0.25721150416666666,425.41948892083104
71,0,0.014423075,425.43391199583107
74,0,0,425.43391199583107
72,43,0.01682692083333333,425.4507389166644
75,43,0,425.4507389166644
44,43,0,425.4507389166644
72,0,0.27163457916666667,425.7223734958311
75,0,0,425.7223734958311
71,43,0.01682692083333333,425.73920041666446
74,43,0,425.73920041666446
44,0,0.25721150416666666,425.9964119208311
71,0,0.014423075,426.01083499583115
74,0,0,426.01083499583115
72,43,0.01682692083333333,426.0276619166645
75,43,0,426.0276619166645
51,43,0,426.0276619166645
72,0,0.27163457916666667,426.2992964958312
75,0,0,426.2992964958312
73,43,0.01682692083333333,426.31612341666454
77,43,0,426.31612341666454
51,0,0.25721150416666666,426.5733349208312
73,0,0.014423075,426.5877579958312
77,0,0,426.5877579958312
70,43,0.01682692083333333,426.6045849166646
79,43,0,426.6045849166646
56,43,0,426.6045849166646
60,43,0,426.6045849166646
70,0,0.27163457916666667,426.87621949583126
79,0,0,426.87621949583126
72,43,0.01682692083333333,426.8930464166646
80,43,0,426.8930464166646
56,0,0.25721150416666666,427.1502579208313
60,0,0,427.1502579208313
72,0,0.014423075,427.1646809958313
80,0,0,427.1646809958313
75,43,0.01682692083333333,427.18150791666466
82,43,0,427.18150791666466
51,43,0,427.18150791666466
75,0,0.27163457916666667,427.45314249583134
82,0,0,427.45314249583134
80,43,0.01682692083333333,427.4699694166647
84,43,0,427.4699694166647
51,0,0.25721150416666666,427.72718092083136
80,0,0.014423075,427.7416039958314
84,0,0,427.7416039958314
80,43,0,427.7416039958314
84,43,0,427.7416039958314
39,43,0,427.7416039958314
39,0,0.5306606249999999,428.2722646208314
51,43,0.03066039166666666,428.30292501249806
51,0,0.5353776083333333,428.83830262083137
55,43,0.03066039166666666,428.86896301249806
61,43,0,428.86896301249806
80,0,0.2099057583333333,429.0788687708314
84,0,0,429.0788687708314
79,43,0.07311324166666665,429.151982012498
82,43,0,429.151982012498
55,0,0.2523586083333333,429.40434062083136
61,0,0,429.40434062083136
79,0,0.014150949999999997,429.41849157083135
82,0,0,429.41849157083135
70,43,0.016509441666666663,429.435001012498
51,43,0,429.435001012498
70,0,0.2665095583333333,429.7015105708313
73,43,0.016509441666666663,429.71802001249796
77,43,0,429.71802001249796
51,0,0.2523586083333333,429.9703786208313
73,0,0.014150949999999997,429.9845295708313
77,0,0,429.9845295708313
80,43,0.016509441666666663,430.0010390124979
39,43,0,430.0010390124979
80,0,0.2665095583333333,430.26754857083125
75,43,0.016509441666666663,430.2840580124979
79,43,0,430.2840580124979
39,0,0.2523586083333333,430.53641662083123
75,0,0.014150949999999997,430.5505675708312
79,0,0,430.5505675708312
67,43,0.016509441666666663,430.56707701249786
51,43,0,430.56707701249786
67,0,0.2665095583333333,430.8335865708312
72,43,0.016509441666666663,430.85009601249783
75,43,0,430.85009601249783
51,0,0.2523586083333333,431.10245462083117
72,0,0.014150949999999997,431.11660557083115
75,0,0,431.11660557083115
79,43,0.016509441666666663,431.1331150124978
63,43,0,431.1331150124978
79,0,0.2665095583333333,431.3996245708311
73,43,0.016509441666666663,431.41613401249776
77,43,0,431.41613401249776
63,0,0.2523586083333333,431.6684926208311
73,0,0.014150949999999997,431.6826435708311
77,0,0,431.6826435708311
70,43,0.016509441666666663,431.69915301249773
51,43,0,431.69915301249773
70,0,0.2665095583333333,431.96566257083106
75,43,0.016509441666666663,431.9821720124977
51,0,0.2523586083333333,432.23453062083104
75,0,0.014150949999999997,432.248681570831
68,43,0,432.248681570831
72,43,0,432.248681570831
44,43,0,432.248681570831
68,0,0.52083328125,432.76951485208104
72,0,0,432.76951485208104
44,0,0,432.76951485208104
70,43,0.03009258958333333,432.79960744166436
73,43,0,432.79960744166436
51,43,0,432.79960744166436
70,0,0.26157404791666666,433.06118148958103
73,0,0,433.06118148958103
68,43,0.016203702083333334,433.07738519166435
72,43,0,433.07738519166435
51,0,0.24768516041666663,433.325070352081
68,0,0.013888887499999999,433.338959239581
72,0,0,433.338959239581
67,43,0.016203702083333334,433.35516294166433
71,43,0,433.35516294166433
56,43,0,433.35516294166433
60,43,0,433.35516294166433
67,0,0.26157404791666666,433.616736989581
71,0,0,433.616736989581
68,43,0.016203702083333334,433.6329406916643
72,43,0,433.6329406916643
56,0,0.24768516041666663,433.880625852081
60,0,0,433.880625852081
68,0,0.013888887499999999,433.894514739581
72,0,0,433.894514739581
70,43,0.016203702083333334,433.9107184416643
73,43,0,433.9107184416643
51,43,0,433.9107184416643
70,0,0.26157404791666666,434.17229248958097
73,0,0,434.17229248958097
71,43,0.016203702083333334,434.1884961916643
74,43,0,434.1884961916643
51,0,0.24768516041666663,434.43618135208095
71,0,0.013888887499999999,434.45007023958095
74,0,0,434.45007023958095
72,43,0.016203702083333334,434.46627394166427
75,43,0,434.46627394166427
44,43,0,434.46627394166427
72,0,0.062499993749999996,434.5287739354143
75,0,0,434.5287739354143
74,43,0.006944443749999999,434.5357183791643
77,43,0,434.5357183791643
74,0,0.062499993749999996,434.5982183729143
77,0,0,434.5982183729143
72,43,0.006944443749999999,434.6051628166643
75,43,0,434.6051628166643
72,0,0.12962961666666667,434.73479243333094
75,0,0,434.73479243333094
71,43,0.009259258333333333,434.74405169166425
74,43,0,434.74405169166425
44,0,0.24768516041666663,434.9917368520809
71,0,0.013888887499999999,435.0056257395809
74,0,0,435.0056257395809
72,43,0.016203702083333334,435.02182944166424
75,43,0,435.02182944166424
51,43,0,435.02182944166424
72,0,0.26157404791666666,435.2834034895809
75,0,0,435.2834034895809
73,43,0.016203702083333334,435.2996071916642
77,43,0,435.2996071916642
51,0,0.24768516041666663,435.5472923520809
73,0,0.013888887499999999,435.5611812395809
77,0,0,435.5611812395809
73,43,0.016203702083333334,435.5773849416642
77,43,0,435.5773849416642
56,43,0,435.5773849416642
60,43,0,435.5773849416642
73,0,0.17361109374999997,435.75099603541423
77,0,0,435.75099603541423
70,43,0.011574072916666666,435.7625701083309
79,43,0,435.7625701083309
70,0,0.17361109374999997,435.93618120208095
79,0,0,435.93618120208095
72,43,0.10416665624999999,436.04034785833096
80,43,0,436.04034785833096
56,0,0.062499993749999996,436.10284785208097
60,0,0,436.10284785208097
72,0,0.02314814583333333,436.1259959979143
80,0,0,436.1259959979143
72,43,0.006944443749999999,436.1329404416643
80,43,0,436.1329404416643
51,43,0,436.1329404416643
72,0,0.17361109374999997,436.3065515354143
80,0,0,436.3065515354143
75,43,0.011574072916666666,436.318125608331
82,43,0,436.318125608331
75,0,0.17361109374999997,436.491736702081
82,0,0,436.491736702081
80,43,0.10416665624999999,436.59590335833104
84,43,0,436.59590335833104
51,0,0.062499993749999996,436.65840335208105
80,0,0.02314814583333333,436.68155149791437
84,0,0,436.68155149791437
80,43,0,436.68155149791437
84,43,0,436.68155149791437
39,43,0,436.68155149791437
80,0,0.26179257499999997,436.9433440729144
84,0,0,436.9433440729144
79,43,0.016509441666666663,436.959853514581
82,43,0,436.959853514581
39,0,0.2523586083333333,437.21221212291437
79,0,0.014150949999999997,437.22636307291435
82,0,0,437.22636307291435
97,43,0.016509441666666663,437.242872514581
51,43,0,437.242872514581
97,0,0.2665095583333333,437.5093820729143
70,43,0.016509441666666663,437.52589151458096
51,0,0.2523586083333333,437.7782501229143
70,0,0.014150949999999997,437.7924010729143
79,43,0.016509441666666663,437.80891051458093
82,43,0,437.80891051458093
58,43,0,437.80891051458093
61,43,0,437.80891051458093
79,0,0.2665095583333333,438.07542007291426
82,0,0,438.07542007291426
77,43,0.016509441666666663,438.0919295145809
80,43,0,438.0919295145809
58,0,0.2523586083333333,438.34428812291424
61,0,0,438.34428812291424
77,0,0.014150949999999997,438.3584390729142
80,0,0,438.3584390729142
96,43,0.016509441666666663,438.37494851458086
51,43,0,438.37494851458086
96,0,0.2665095583333333,438.6414580729142
68,43,0.016509441666666663,438.65796751458083
51,0,0.2523586083333333,438.91032612291417
68,0,0.014150949999999997,438.92447707291416
77,43,0.016509441666666663,438.9409865145808
80,43,0,438.9409865145808
39,43,0,438.9409865145808
77,0,0.2665095583333333,439.2074960729141
80,0,0,439.2074960729141
75,43,0.016509441666666663,439.22400551458077
79,43,0,439.22400551458077
39,0,0.2523586083333333,439.4763641229141
75,0,0.014150949999999997,439.4905150729141
79,0,0,439.4905150729141
94,43,0.016509441666666663,439.50702451458073
51,43,0,439.50702451458073
94,0,0.2665095583333333,439.77353407291406
67,43,0.15801894166666663,439.93155301458074
51,0,0.11084910833333331,440.0424021229141
67,0,0.021226424999999997,440.0636285479141
75,43,0.009433966666666665,440.0730625145808
79,43,0,440.0730625145808
63,43,0,440.0730625145808
75,0,0.21226424999999996,440.28532676458076
79,0,0,440.28532676458076
73,43,0.014150949999999997,440.29947771458075
77,43,0,440.29947771458075
73,0,0.21226424999999996,440.5117419645807
77,0,0,440.5117419645807
70,43,0.014150949999999997,440.5258929145807
63,0,0.08254720833333332,440.60844012291403
51,43,0.03066039166666666,440.6391005145807
70,0,0.09905664999999998,440.73815716458074
75,43,0.014150949999999997,440.7523081145807
75,0,0.21226424999999996,440.9645723645807
73,43,0.014150949999999997,440.9787233145807
51,0,0.1957548083333333,441.174478122914
73,0,0.016509441666666663,441.19098756458067
68,43,0.014150949999999997,441.20513851458065
72,43,0,441.20513851458065
44,43,0,441.20513851458065
68,0,0.35141525833333326,441.556553772914
72,0,0,441.556553772914
70,43,0.021226424999999997,441.577780197914
73,43,0,441.577780197914
44,0,0.15801894166666663,441.7357991395807
51,43,0.03066039166666666,441.7664595312474
70,0,0.1674529083333333,441.93391243958075
73,0,0,441.93391243958075
68,43,0.021226424999999997,441.95513886458076
72,43,0,441.95513886458076
51,0,0.34669827499999994,442.30183713958075
68,0,0.009433966666666665,442.31127110624743
72,0,0,442.31127110624743
67,43,0,442.31127110624743
71,43,0,442.31127110624743
56,43,0,442.31127110624743
67,0,0.37009816875,442.68136927499745
71,0,0,442.68136927499745
68,43,0.02205883125,442.70342810624743
72,43,0,442.70342810624743
56,0,0.16421574375,442.8676438499974
60,43,0.03186275625,442.8995066062474
68,0,0.17401966875,443.07352627499745
72,0,0,443.07352627499745
67,43,0.02205883125,443.0955851062474
70,43,0,443.0955851062474
73,43,0,443.0955851062474
60,0,0.36029424374999997,443.4558793499974
67,0,0.009803925,443.46568327499745
70,0,0,443.46568327499745
73,0,0,443.46568327499745
66,43,0,443.46568327499745
68,43,0,443.46568327499745
72,43,0,443.46568327499745
75,43,0,443.46568327499745
44,43,0,443.46568327499745
44,0,0.5675,444.03318327499744
51,43,0.0325,444.06568327499747
66,0,0.5375,444.6031832749975
68,0,0,444.6031832749975
72,0,0,444.6031832749975
75,0,0,444.6031832749975
51,0,0.03,444.63318327499746
66,43,0,444.63318327499746
68,43,0,444.63318327499746
72,43,0,444.63318327499746
76,43,0,444.63318327499746
56,43,0,444.63318327499746
56,0,0.5911458333333333,445.2243291083308
60,43,0.033854166666666664,445.25818327499746
66,0,0.5598958333333333,445.8180791083308
68,0,0,445.8180791083308
72,0,0,445.8180791083308
76,0,0,445.8180791083308
60,0,0.03125,445.8493291083308
65,43,0,445.8493291083308
68,43,0,445.8493291083308
73,43,0,445.8493291083308
77,43,0,445.8493291083308
37,43,0,445.8493291083308
49,43,0,445.8493291083308
37,0,0.62499984375,446.4743289520808
49,0,0,446.4743289520808
53,43,0.03611110208333333,446.5104400541641
56,43,0,446.5104400541641
61,43,0,446.5104400541641
65,0,0.5972220729166666,447.1076621270808
68,0,0,447.1076621270808
73,0,0,447.1076621270808
77,0,0,447.1076621270808
53,0,0.033333325,447.1409954520808
56,0,0,447.1409954520808
61,0,0,447.1409954520808
64,43,0,447.1409954520808
36,43,0,447.1409954520808
48,43,0,447.1409954520808
70,43,0.06395345,447.2049489020808
72,43,0.066860425,447.2718093270808
79,43,0.066860425,447.3386697520808
36,0,0.462209025,447.8008787770808
48,0,0,447.8008787770808
64,0,0.037790675,447.8386694520808
55,43,0,447.8386694520808
60,43,0,447.8386694520808
64,43,0,447.8386694520808
55,0,0.659883325,448.4985527770808
60,0,0,448.4985527770808
70,0,0.031976725,448.5305295020808
72,0,0,448.5305295020808
79,0,0,448.5305295020808
64,0,0.002906975,448.5334364770808
68,43,0,448.5334364770808
72,43,0,448.5334364770808
77,43,0,448.5334364770808
80,43,0,448.5334364770808
29,43,0,448.5334364770808
41,43,0,448.5334364770808
29,0,0.7275643208333333,449.2610007979141
41,0,0,449.2610007979141
53,43,0.041666679166666665,449.3026674770808
65,43,0,449.3026674770808
68,0,0.6891027708333334,449.99177024791413
72,0,0,449.99177024791413
77,0,0,449.99177024791413
80,0,0,449.99177024791413
53,0,0.03846155,450.03023179791415
65,0,0,450.03023179791415
68,43,0,450.03023179791415
74,43,0,450.03023179791415
80,43,0,450.03023179791415
82,43,0,450.03023179791415
28,43,0,450.03023179791415
40,43,0,450.03023179791415
28,0,0.8598485708333333,450.8900803687475
40,0,0,450.8900803687475
52,43,0.049242429166666664,450.93932279791414
64,43,0,450.93932279791414
68,0,0.8143940208333333,451.7537168187475
74,0,0,451.7537168187475
80,0,0,451.7537168187475
82,0,0,451.7537168187475
52,0,0.045454549999999996,451.79917136874747
64,0,0,451.79917136874747
72,43,0,451.79917136874747
75,43,0,451.79917136874747
80,43,0,451.79917136874747
84,43,0,451.79917136874747
27,43,0,451.79917136874747
39,43,0,451.79917136874747
72,0,0.9375,452.73667136874747
75,0,0,452.73667136874747
80,0,0,452.73667136874747
84,0,0,452.73667136874747
27,0,0,452.73667136874747
39,0,0,452.73667136874747
101,43,0,452.73667136874747
63,43,0,452.73667136874747
63,0,1.4187514187499999,454.15542278749746
51,43,0.08125008125,454.23667286874746
101,0,0.05625005625,454.29292292499747
99,43,0,454.29292292499747
99,0,0.07291668124999999,454.36583960624745
97,43,0.010416668749999998,454.37625627499744
97,0,0.07291668124999999,454.4491729562474
96,43,0.010416668749999998,454.4595896249974
96,0,0.07291668124999999,454.5325063062474
94,43,0.010416668749999998,454.5429229749974
94,0,0.07291668124999999,454.6158396562474
92,43,0.010416668749999998,454.62625632499737
92,0,0.07291668124999999,454.69917300624735
91,43,0.010416668749999998,454.70958967499735
91,0,0.07291668124999999,454.7825063562473
89,43,0.010416668749999998,454.7929230249973
89,0,0.07291668124999999,454.8658397062473
87,43,0.010416668749999998,454.8762563749973
87,0,0.07291668124999999,454.9491730562473
85,43,0.010416668749999998,454.9595897249973
51,0,0.03819445208333333,454.99778417708063
85,0,0.03472222916666666,455.0325064062473
84,43,0.010416668749999998,455.0429230749973
63,43,0,455.0429230749973
84,0,0.07291668124999999,455.1158397562473
82,43,0.010416668749999998,455.1262564249973
82,0,0.07291668124999999,455.19917310624726
80,43,0.010416668749999998,455.20958977499726
80,0,0.07291668124999999,455.28250645624723
79,43,0.010416668749999998,455.29292312499723
79,0,0.07291668124999999,455.3658398062472
77,43,0.010416668749999998,455.3762564749972
77,0,0.07291668124999999,455.4491731562472
75,43,0.010416668749999998,455.4595898249972
75,0,0.07291668124999999,455.53250650624716
73,43,0.010416668749999998,455.54292317499716
73,0,0.07291668124999999,455.61583985624713
72,43,0.010416668749999998,455.62625652499713
72,0,0.07291668124999999,455.6991732062471
70,43,0.010416668749999998,455.7095898749971
70,0,0.07291668124999999,455.7825065562471
68,43,0.010416668749999998,455.7929232249971
63,0,0.03819445208333333,455.83111767708044
68,0,0.03472222916666666,455.8658399062471
67,43,0,455.8658399062471
58,43,0,455.8658399062471
61,43,0,455.8658399062471
67,0,0.15705132916666667,456.0228912354138
70,43,0.012820516666666667,456.0357117520805
70,0,0.15705132916666667,456.19276308124716
73,43,0.016025645833333334,456.2087887270805
73,0,0.15705132916666667,456.3658400562472
76,43,0.012820516666666667,456.3786605729139
76,0,0.15705132916666667,456.53571190208055
79,43,0.012820516666666667,456.54853241874724
58,0,0.04487180833333333,456.59340422708055
61,0,0,456.59340422708055
63,43,0.041666679166666665,456.6350709062472
79,0,0.07051284166666667,456.70558374791386
82,43,0.016025645833333334,456.7216093937472
82,0,0.15705132916666667,456.8786607229139
85,43,0.012820516666666667,456.89148123958057
85,0,0.15705132916666667,457.04853256874725
88,43,0.012820516666666667,457.06135308541394
88,0,0.08012822916666666,457.14148131458063
87,43,0.09294874583333333,457.23443006041396
87,0,0.08012822916666666,457.31455828958065
63,0,0.0480769375,457.36263522708066
86,43,0.041666679166666665,457.4043019062473
51,43,0,457.4043019062473
86,0,0.1250000375,457.5293019437473
85,43,0.13141029583333333,457.6607122395807
85,0,0.1250000375,457.7857122770807
82,43,0.13141029583333333,457.917122572914
82,0,0.1250000375,458.042122610414
51,0,0.08974361666666666,458.1318662270807
79,43,0.041666679166666665,458.1735329062474
63,43,0,458.1735329062474
79,0,0.1250000375,458.2985329437474
76,43,0.13141029583333333,458.4299432395807
76,0,0.1250000375,458.5549432770807
67,43,0.13141029583333333,458.6863535729141
67,0,0.1250000375,458.8113536104141
63,0,0.08974361666666666,458.90109722708075
68,43,0,458.90109722708075
44,43,0,458.90109722708075
44,0,0.5306606249999999,459.43175785208075
51,43,0.03066039166666666,459.46241824374744
51,0,0.5353776083333333,459.99779585208074
56,43,0.03066039166666666,460.0284562437474
60,43,0,460.0284562437474
68,0,0.4787738083333332,460.5072300520808
56,0,0.05660379999999999,460.5638338520808
60,0,0,460.5638338520808
69,43,0.03066039166666666,460.5944942437475
51,43,0,460.5944942437475
69,0,0.5353776083333333,461.1298718520808
51,0,0,461.1298718520808
70,43,0.03066039166666666,461.16053224374747
52,43,0,461.16053224374747
70,0,0.5353776083333333,461.6959098520808
52,0,0,461.6959098520808
72,43,0.03066039166666666,461.72657024374746
56,43,0,461.72657024374746
61,43,0,461.72657024374746
72,0,0.2665095583333333,461.9930798020808
70,43,0.016509441666666663,462.0095892437474
56,0,0.2523586083333333,462.26194785208077
61,0,0,462.26194785208077
70,0,0.014150949999999997,462.27609880208075
69,43,0.016509441666666663,462.2926082437474
51,43,0,462.2926082437474
69,0,0.2665095583333333,462.5591178020807
70,43,0.016509441666666663,462.57562724374736
51,0,0.2523586083333333,462.8279858520807
70,0,0.014150949999999997,462.8421368020807
72,43,0.016509441666666663,462.85864624374733
55,43,0,462.85864624374733
61,43,0,462.85864624374733
72,0,0.2665095583333333,463.12515580208066
73,43,0.016509441666666663,463.1416652437473
55,0,0.2523586083333333,463.39402385208064
61,0,0,463.39402385208064
73,0,0.014150949999999997,463.4081748020806
74,43,0,463.4081748020806
44,43,0,463.4081748020806
74,0,0.25694441874999996,463.6651192208306
75,43,0.016203702083333334,463.6813229229139
44,0,0.24768516041666663,463.9290080833306
75,0,0.013888887499999999,463.9428969708306
85,43,0.016203702083333334,463.9591006729139
51,43,0,463.9591006729139
85,0,0.26157404791666666,464.2206747208306
84,43,0.016203702083333334,464.2368784229139
51,0,0.24768516041666663,464.48456358333056
84,0,0.013888887499999999,464.49845247083056
82,43,0.016203702083333334,464.5146561729139
60,43,0,464.5146561729139
82,0,0.26157404791666666,464.77623022083054
79,43,0.016203702083333334,464.79243392291386
60,0,0.24768516041666663,465.0401190833305
79,0,0.013888887499999999,465.0540079708305
80,43,0.016203702083333334,465.07021167291384
51,43,0,465.07021167291384
80,0,0.26157404791666666,465.3317857208305
72,43,0.016203702083333334,465.3479894229138
51,0,0.24768516041666663,465.5956745833305
72,0,0.013888887499999999,465.6095634708305
77,43,0.016203702083333334,465.6257671729138
44,43,0,465.6257671729138
77,0,0.26157404791666666,465.8873412208305
75,43,0.016203702083333334,465.9035449229138
44,0,0.24768516041666663,466.15123008333046
75,0,0.013888887499999999,466.16511897083046
79,43,0.016203702083333334,466.1813226729138
51,43,0,466.1813226729138
79,0,0.26157404791666666,466.44289672083045
77,43,0.016203702083333334,466.45910042291376
51,0,0.24768516041666663,466.70678558333043
77,0,0.013888887499999999,466.72067447083043
72,43,0.016203702083333334,466.73687817291375
61,43,0,466.73687817291375
72,0,0.26157404791666666,466.9984522208304
73,43,0.016203702083333334,467.01465592291373
73,0,0,467.01465592291373
73,43,0,467.01465592291373
61,0,0.24768516041666663,467.2623410833304
65,43,0.03009258958333333,467.2924336729137
51,43,0,467.2924336729137
73,0,0.24768516041666663,467.5401188333304
65,0,0.013888887499999999,467.5540077208304
67,43,0.016203702083333334,467.5702114229137
72,43,0,467.5702114229137
51,0,0.24768516041666663,467.81789658333037
67,0,0.013888887499999999,467.83178547083037
72,0,0,467.83178547083037
68,43,0.016203702083333334,467.8479891729137
44,43,0,467.8479891729137
44,0,0.52083328125,468.3688224541637
51,43,0.03009258958333333,468.398915043747
51,0,0.5254629104166666,468.9243779541637
60,43,0.03009258958333333,468.954470543747
68,0,0.46990736041666664,469.42437790416363
60,0,0.055555549999999995,469.47993345416364
69,43,0.03009258958333333,469.51002604374696
51,43,0,469.51002604374696
69,0,0.5254629104166666,470.0354889541636
51,0,0,470.0354889541636
70,43,0.03009258958333333,470.06558154374693
52,43,0,470.06558154374693
70,0,0.26157404791666666,470.3271555916636
72,43,0.016203702083333334,470.3433592937469
52,0,0.24768516041666663,470.5910444541636
72,0,0.013888887499999999,470.6049333416636
70,43,0.016203702083333334,470.6211370437469
56,43,0,470.6211370437469
61,43,0,470.6211370437469
70,0,0.26157404791666666,470.88271109166357
69,43,0.016203702083333334,470.8989147937469
56,0,0.24768516041666663,471.14659995416355
61,0,0,471.14659995416355
69,0,0.013888887499999999,471.16048884166355
70,43,0.016203702083333334,471.17669254374687
51,43,0,471.17669254374687
70,0,0.26157404791666666,471.43826659166353
72,43,0.016203702083333334,471.45447029374685
51,0,0.24768516041666663,471.7021554541635
72,0,0.013888887499999999,471.7160443416635
73,43,0.016203702083333334,471.73224804374684
55,43,0,471.73224804374684
61,43,0,471.73224804374684
73,0,0.26157404791666666,471.9938220916635
74,43,0.016203702083333334,472.0100257937468
55,0,0.24768516041666663,472.2577109541635
61,0,0,472.2577109541635
74,0,0.013888887499999999,472.2715998416635
77,43,0.016203702083333334,472.2878035437468
44,43,0,472.2878035437468
77,0,0.25694441874999996,472.5447479624968
75,43,0.016203702083333334,472.5609516645801
44,0,0.24768516041666663,472.80863682499677
75,0,0.013888887499999999,472.82252571249677
75,43,0.016203702083333334,472.8387294145801
51,43,0,472.8387294145801
75,0,0.062499993749999996,472.9012294083301
85,43,0.002314814583333333,472.9035442229134
85,0,0.19907405416666665,473.10261827708007
84,43,0.013888887499999999,473.11650716458007
51,0,0.24768516041666663,473.36419232499674
84,0,0.013888887499999999,473.37808121249674
82,43,0.016203702083333334,473.39428491458006
60,43,0,473.39428491458006
82,0,0.26157404791666666,473.6558589624967
80,43,0,473.6558589624967
80,0,0.07180852499999998,473.7276674874967
79,43,0.007978724999999999,473.7356462124967
79,0,0.07180852499999998,473.8074547374967
77,43,0.007978724999999999,473.8154334624967
77,0,0.07180852499999998,473.8872419874967
79,43,0.007978724999999999,473.89522071249667
60,0,0.04521277499999999,473.94043348749665
79,0,0.026595749999999994,473.96702923749666
80,43,0.007978724999999999,473.97500796249665
51,43,0,473.97500796249665
80,0,0.30053197499999995,474.27553993749666
72,43,0.018617024999999995,474.2941569624967
51,0,0.28457452499999997,474.57873148749667
72,0,0.015957449999999998,474.59468893749664
77,43,0.018617024999999995,474.61330596249667
39,43,0,474.61330596249667
77,0,0.09042554999999998,474.7037315124967
75,43,0.007978724999999999,474.7117102374967
75,0,0.09042554999999998,474.8021357874967
79,43,0.007978724999999999,474.8101145124967
79,0,0.09042554999999998,474.9005400624967
75,43,0.007978724999999999,474.9085187874967
75,0,0.09042554999999998,474.9989443374967
74,43,0.007978724999999999,475.0069230624967
74,0,0.09042554999999998,475.0973486124967
78,43,0.007978724999999999,475.1053273374967
78,0,0.09042554999999998,475.1957528874967
74,43,0.007978724999999999,475.2037316124967
39,0,0.013297874999999997,475.2170294874967
51,43,0.03457447499999999,475.2516039624967
74,0,0.04255319999999999,475.2941571624967
73,43,0.005319149999999999,475.29947631249667
73,0,0.09042554999999998,475.3899018624967
77,43,0.007978724999999999,475.3978805874967
77,0,0.09042554999999998,475.4883061374967
73,43,0.007978724999999999,475.4962848624967
73,0,0.09042554999999998,475.5867104124967
72,43,0.007978724999999999,475.5946891374967
72,0,0.09042554999999998,475.6851146874967
76,43,0.007978724999999999,475.6930934124967
76,0,0.09042554999999998,475.7835189624967
75,43,0.007978724999999999,475.7914976874967
51,0,0.06382979999999999,475.8553274874967
75,0,0.026595749999999994,475.8819232374967
74,43,0.007978724999999999,475.8899019624967
55,43,0,475.8899019624967
61,43,0,475.8899019624967
74,0,0.09042554999999998,475.98032751249673
73,43,0.007978724999999999,475.9883062374967
73,0,0.09042554999999998,476.07873178749674
70,43,0.007978724999999999,476.0867105124967
70,0,0.09042554999999998,476.17713606249674
67,43,0.007978724999999999,476.18511478749673
67,0,0.09042554999999998,476.27554033749675
62,43,0.007978724999999999,476.28351906249674
62,0,0.09042554999999998,476.37394461249676
63,43,0.007978724999999999,476.38192333749674
63,0,0.09042554999999998,476.47234888749676
64,43,0.007978724999999999,476.48032761249675
55,0,0.013297874999999997,476.49362548749673
61,0,0,476.49362548749673
51,43,0.03457447499999999,476.5281999624967
64,0,0.04255319999999999,476.5707531624967
65,43,0.005319149999999999,476.5760723124967
65,0,0.09042554999999998,476.6664978624967
66,43,0.007978724999999999,476.6744765874967
66,0,0.09042554999999998,476.76490213749673
67,43,0.007978724999999999,476.7728808624967
67,0,0.09042554999999998,476.86330641249674
72,43,0.007978724999999999,476.8712851374967
72,0,0.09042554999999998,476.96171068749675
70,43,0.007978724999999999,476.96968941249673
70,0,0.09042554999999998,477.06011496249675
68,43,0.007978724999999999,477.06809368749674
51,0,0.06382979999999999,477.13192348749675
68,0,0.026595749999999994,477.15851923749676
68,43,0.007978724999999999,477.16649796249675
44,43,0,477.16649796249675
44,0,0.5984043749999999,477.7649023374967
51,43,0,477.7649023374967
68,0,0.11702129999999998,477.8819236374967
72,43,0.04255319999999999,477.9244768374967
72,0,0.14893619999999996,478.07341303749666
77,43,0.010638299999999998,478.08405133749665
77,0,0.14893619999999996,478.2329875374966
75,43,0.010638299999999998,478.2436258374966
51,0,0.125000025,478.36862586249663
75,0,0.023936174999999997,478.39256203749665
80,43,0.010638299999999998,478.4032003374966
60,43,0,478.4032003374966
60,0,0.6037235249999999,479.00692386249665
51,43,0.03457447499999999,479.04149833749665
80,0,0.11702129999999998,479.1585196374966
84,43,0.04255319999999999,479.2010728374966
84,0,0.14893619999999996,479.3500090374966
89,43,0.010638299999999998,479.3606473374966
89,0,0.14893619999999996,479.50958353749655
87,43,0.010638299999999998,479.52022183749654
51,0,0.125000025,479.64522186249656
87,0,0.023936174999999997,479.6691580374966
80,43,0.010638299999999998,479.67979633749655
44,43,0,479.67979633749655
44,0,0.6037235249999999,480.2835198624966
51,43,0.03457447499999999,480.3180943374966
80,0,0.11702129999999998,480.43511563749655
72,43,0.04255319999999999,480.47766883749654
72,0,0.14893619999999996,480.6266050374965
77,43,0.010638299999999998,480.6372433374965
77,0,0.14893619999999996,480.7861795374965
75,43,0.010638299999999998,480.79681783749646
51,0,0.125000025,480.9218178624965
75,0,0.023936174999999997,480.9457540374965
80,43,0.010638299999999998,480.9563923374965
60,43,0,480.9563923374965
60,0,0.6037235249999999,481.5601158624965
51,43,0.03457447499999999,481.5946903374965
80,0,0.11702129999999998,481.7117116374965
84,43,0.04255319999999999,481.75426483749646
84,0,0.14893619999999996,481.90320103749644
89,43,0.010638299999999998,481.9138393374964
89,0,0.14893619999999996,482.0627755374964
87,43,0.010638299999999998,482.0734138374964
51,0,0.125000025,482.1984138624964
87,0,0.023936174999999997,482.2223500374964
80,43,0,482.2223500374964
44,43,0,482.2223500374964
44,0,0.66964265625,482.89199269374643
51,43,0,482.89199269374643
80,0,0.13095234166666667,483.0229450354131
72,43,0.04761903333333333,483.0705640687464
72,0,0.16666661666666666,483.23723068541307
77,43,0.011904758333333333,483.2491354437464
77,0,0.16666661666666666,483.41580206041306
75,43,0.011904758333333333,483.4277068187464
51,0,0.13988091041666667,483.56758772916305
75,0,0.02678570625,483.59437343541305
80,43,0,483.59437343541305
60,43,0,483.59437343541305
60,0,0.7275643208333333,484.32193775624637
51,43,0.041666679166666665,484.36360443541304
80,0,0.14102568333333335,484.5046301187464
84,43,0.05128206666666667,484.55591218541304
84,0,0.17948723333333333,484.7353994187464
89,43,0.012820516666666667,484.7482199354131
89,0,0.17948723333333333,484.92770716874645
87,43,0.012820516666666667,484.94052768541314
51,0,0.15064107083333333,485.0911687562465
87,0,0.0288461625,485.12001491874645
80,43,0,485.12001491874645
44,43,0,485.12001491874645
44,0,0.8598485708333333,485.97986348957977
51,43,0.049242429166666664,486.02910591874644
80,0,0.16666668333333334,486.1957726020798
84,43,0.060606066666666666,486.25637866874644
84,0,0.21212123333333333,486.46849990207977
89,43,0.015151516666666667,486.48365141874643
89,0,0.21212123333333333,486.69577265207977
87,43,0.015151516666666667,486.71092416874643
51,0,0.17803032083333334,486.88895448957976
87,0,0.0340909125,486.92304540207977
80,43,0,486.92304540207977
63,43,0,486.92304540207977
63,0,0.9458333333333333,487.8688787354131
51,43,0.05416666666666667,487.92304540207977
80,0,0.18333333333333332,488.1063787354131
84,43,0.06666666666666667,488.17304540207977
84,0,0.23333333333333334,488.4063787354131
89,43,0.016666666666666666,488.42304540207977
89,0,0.23333333333333334,488.6563787354131
87,43,0.016666666666666666,488.67304540207977
51,0,0.19583333333333333,488.8688787354131
87,0,0.0375,488.9063787354131
92,43,0,488.9063787354131
44,43,0,488.9063787354131
92,0,2.34375,491.2501287354131
44,0,0,491.2501287354131
84,43,0,491.2501287354131
92,43,0,491.2501287354131
81,43,0,491.2501287354131
84,0,0.058333333333333334,491.30846206874645
92,0,0,491.30846206874645
81,0,0,491.30846206874645
90,43,0.004166666666666667,491.3126287354131
75,43,0,491.3126287354131
90,0,0.058333333333333334,491.37096206874645
75,0,0,491.37096206874645
99,43,0.008333333333333333,491.3792954020798
66,43,0,491.3792954020798
99,0,1.7708333333333333,493.1501287354131
66,0,0,493.1501287354131
96,43,0.1,493.2501287354131
63,43,0,493.2501287354131
96,0,0.058333333333333334,493.30846206874645
63,0,0,493.30846206874645
89,43,0.004166666666666667,493.3126287354131
72,43,0,493.3126287354131
89,0,0.058333333333333334,493.37096206874645
72,0,0,493.37096206874645
81,43,0.008333333333333333,493.3792954020798
87,43,0,493.3792954020798
78,43,0,493.3792954020798
81,0,1.7708333333333333,495.1501287354131
87,0,0,495.1501287354131
78,0,0,495.1501287354131
83,43,0.1,495.2501287354131
90,43,0,495.2501287354131
80,43,0,495.2501287354131
83,0,0.058333333333333334,495.30846206874645
90,0,0,495.30846206874645
80,0,0,495.30846206874645
89,43,0.004166666666666667,495.3126287354131
74,43,0,495.3126287354131
89,0,0.058333333333333334,495.37096206874645
74,0,0,495.37096206874645
98,43,0.008333333333333333,495.3792954020798
65,43,0,495.3792954020798
98,0,1.7708333333333333,497.1501287354131
65,0,0,497.1501287354131
95,43,0.1,497.2501287354131
62,43,0,497.2501287354131
95,0,0.05,497.3001287354131
62,0,0,497.3001287354131
87,43,0.004166666666666667,497.3042954020798
71,43,0,497.3042954020798
87,0,0.058333333333333334,497.3626287354131
71,0,0,497.3626287354131
80,43,0.008333333333333333,497.37096206874645
86,43,0,497.37096206874645
77,43,0,497.37096206874645
80,0,1.7708333333333333,499.14179540207977
86,0,0,499.14179540207977
77,0,0,499.14179540207977
81,43,0.1,499.2417954020798
89,43,0,499.2417954020798
78,43,0,499.2417954020798
81,0,0.058333333333333334,499.3001287354131
89,0,0,499.3001287354131
78,0,0,499.3001287354131
87,43,0.004166666666666667,499.3042954020798
72,43,0,499.3042954020798
87,0,0.058333333333333334,499.3626287354131
72,0,0,499.3626287354131
96,43,0.008333333333333333,499.37096206874645
63,43,0,499.37096206874645
96,0,1.7708333333333333,501.14179540207977
63,0,0,501.14179540207977
93,43,0.1,501.2417954020798
60,43,0,501.2417954020798
93,0,0.058333333333333334,501.3001287354131
60,0,0,501.3001287354131
85,43,0.004166666666666667,501.3042954020798
69,43,0,501.3042954020798
85,0,0.058333333333333334,501.3626287354131
69,0,0,501.3626287354131
78,43,0.008333333333333333,501.37096206874645
84,43,0,501.37096206874645
75,43,0,501.37096206874645
78,0,1.7708333333333333,503.14179540207977
84,0,0,503.14179540207977
75,0,0,503.14179540207977
79,43,0.1,503.2417954020798
87,43,0,503.2417954020798
76,43,0,503.2417954020798
79,0,0.058333333333333334,503.3001287354131
87,0,0,503.3001287354131
76,0,0,503.3001287354131
85,43,0.004166666666666667,503.3042954020798
70,43,0,503.3042954020798
85,0,0.058333333333333334,503.3626287354131
70,0,0,503.3626287354131
94,43,0.008333333333333333,503.37096206874645
61,43,0,503.37096206874645
94,0,1.7708333333333333,505.14179540207977
61,0,0,505.14179540207977
91,43,0.1,505.2417954020798
58,43,0,505.2417954020798
91,0,0.05,505.2917954020798
58,0,0,505.2917954020798
84,43,0.004166666666666667,505.29596206874646
67,43,0,505.29596206874646
84,0,0.058333333333333334,505.3542954020798
67,0,0,505.3542954020798
76,43,0.008333333333333333,505.3626287354131
82,43,0,505.3626287354131
73,43,0,505.3626287354131
76,0,1.7708333333333333,507.13346206874644
82,0,0,507.13346206874644
73,0,0,507.13346206874644
77,43,0.1,507.23346206874646
85,43,0,507.23346206874646
74,43,0,507.23346206874646
77,0,0.058333333333333334,507.2917954020798
85,0,0,507.2917954020798
74,0,0,507.2917954020798
83,43,0.004166666666666667,507.29596206874646
68,43,0,507.29596206874646
83,0,0.058333333333333334,507.3542954020798
68,0,0,507.3542954020798
92,43,0.008333333333333333,507.3626287354131
59,43,0,507.3626287354131
92,0,1.7708333333333333,509.13346206874644
59,0,0,509.13346206874644
74,43,0.1,509.23346206874646
82,43,0,509.23346206874646
71,43,0,509.23346206874646
74,0,0.058333333333333334,509.2917954020798
82,0,0,509.2917954020798
71,0,0,509.2917954020798
83,43,0.004166666666666667,509.29596206874646
65,43,0,509.29596206874646
83,0,0.058333333333333334,509.3542954020798
65,0,0,509.3542954020798
89,43,0.008333333333333333,509.3626287354131
56,43,0,509.3626287354131
89,0,1.7708333333333333,511.13346206874644
56,0,0,511.13346206874644
75,43,0.1,511.23346206874646
82,43,0,511.23346206874646
72,43,0,511.23346206874646
68,43,0,511.23346206874646
75,0,0.058333333333333334,511.2917954020798
82,0,0,511.2917954020798
72,0,0,511.2917954020798
80,43,0.004166666666666667,511.29596206874646
66,43,0,511.29596206874646
80,0,0.058333333333333334,511.3542954020798
66,0,0,511.3542954020798
90,43,0.008333333333333333,511.3626287354131
56,43,0,511.3626287354131
68,0,1.7666666666666666,513.1292954020798
90,0,0.004166666666666667,513.1334620687466
56,0,0,513.1334620687466
68,43,0,513.1334620687466
63,43,0,513.1334620687466
56,43,0,513.1334620687466
66,43,0,513.1334620687466
32,43,0,513.1334620687466
44,43,0,513.1334620687466
63,0,1.1796875,514.3131495687466
32,0,0,514.3131495687466
44,0,0,514.3131495687466
61,43,0.06510416666666666,514.3782537354132
34,43,0,514.3782537354132
46,43,0,514.3782537354132
61,0,1.1848958333333333,515.5631495687466
34,0,0,515.5631495687466
46,0,0,515.5631495687466
63,43,0.06510416666666666,515.6282537354132
36,43,0,515.6282537354132
48,43,0,515.6282537354132
68,0,1.0598958333333333,516.6881495687466
63,0,0.125,516.8131495687466
36,0,0,516.8131495687466
48,0,0,516.8131495687466
68,51,0,516.8131495687466
61,43,0,516.8131495687466
37,43,0,516.8131495687466
49,43,0,516.8131495687466
61,0,2.1312521312499997,518.9444016999965
37,0,0,518.9444016999965
49,0,0,518.9444016999965
60,43,0.11875011875,519.0631518187465
39,43,0,519.0631518187465
51,43,0,519.0631518187465
56,0,0.14375014375,519.2069019624965
66,0,0,519.2069019624965
60,0,0.5625005625,519.7694025249965
39,0,0,519.7694025249965
51,0,0,519.7694025249965
83,39,0,519.7694025249965
92,39,0,519.7694025249965
59,39,0,519.7694025249965
40,39,0,519.7694025249965
52,39,0.043750043749999995,519.8131525687465
64,39,0.00625000625,519.8194025749965
83,0,0.40625040625,520.2256529812465
92,0,0,520.2256529812465
82,39,0,520.2256529812465
91,39,0,520.2256529812465
82,0,0.1875,520.4131529812465
91,0,0,520.4131529812465
81,39,0.0125,520.4256529812466
90,39,0,520.4256529812466
81,0,0.1875,520.6131529812466
90,0,0,520.6131529812466
80,39,0.0125,520.6256529812466
89,39,0,520.6256529812466
80,0,0.1875,520.8131529812466
89,0,0,520.8131529812466
79,39,0.0125,520.8256529812467
88,39,0,520.8256529812467
79,0,0.1875,521.0131529812467
88,0,0,521.0131529812467
78,39,0.0125,521.0256529812467
87,39,0,521.0256529812467
68,0,0.0775,521.1031529812467
78,0,0.11,521.2131529812467
87,0,0,521.2131529812467
64,0,0.0075,521.2206529812468
59,0,0.0025,521.2231529812468
77,39,0.0025,521.2256529812469
86,39,0,521.2256529812469
59,39,0,521.2256529812469
68,42,0,521.2256529812469
64,39,0,521.2256529812469
77,0,0.1875,521.4131529812469
86,0,0,521.4131529812469
76,39,0.0125,521.4256529812469
85,39,0,521.4256529812469
76,0,0.1875,521.6131529812469
85,0,0,521.6131529812469
75,39,0.0125,521.625652981247
84,39,0,521.625652981247
75,0,0.1875,521.813152981247
84,0,0,521.813152981247
74,39,0.0125,521.825652981247
83,39,0,521.825652981247
74,0,0.1875,522.013152981247
83,0,0,522.013152981247
73,39,0.0125,522.025652981247
82,39,0,522.025652981247
59,0,0.0525,522.0781529812471
68,0,0,522.0781529812471
61,39,0.0475,522.1256529812471
69,42,0,522.1256529812471
73,0,0.08750000000000001,522.213152981247
82,0,0,522.213152981247
72,39,0.0125,522.2256529812471
81,39,0,522.2256529812471
61,0,0.1825,522.4081529812471
69,0,0,522.4081529812471
72,0,0.005,522.4131529812471
81,0,0,522.4131529812471
71,39,0.0125,522.4256529812471
80,39,0,522.4256529812471
59,39,0,522.4256529812471
68,42,0,522.4256529812471
71,0,0.1875,522.6131529812471
80,0,0,522.6131529812471
69,39,0.0125,522.6256529812472
78,39,0,522.6256529812472
69,0,0.1875,522.8131529812472
78,0,0,522.8131529812472
68,39,0.0125,522.8256529812472
76,39,0,522.8256529812472
68,0,0,522.8256529812472
76,0,0.1875,523.0131529812472
68,0,0.0125,523.0256529812473
68,39,0,523.0256529812473
64,0,0,523.0256529812473
64,39,0,523.0256529812473
69,39,0.2,523.2256529812473
52,0,0,523.2256529812473
52,39,0,523.2256529812473
69,0,0.1875,523.4131529812473
71,39,0.0125,523.4256529812474
59,0,0,523.4256529812474
59,39,0,523.4256529812474
64,0,0.0775,523.5031529812474
68,0,0.06,523.5631529812473
71,0,0.05,523.6131529812473
59,0,0,523.6131529812473
71,39,0.0125,523.6256529812473
80,39,0,523.6256529812473
56,39,0,523.6256529812473
59,39,0,523.6256529812473
64,42,0,523.6256529812473
71,0,0.1875,523.8131529812473
80,0,0,523.8131529812473
69,39,0.0125,523.8256529812473
78,39,0,523.8256529812473
69,0,0.1875,524.0131529812473
78,0,0,524.0131529812473
68,39,0.0125,524.0256529812474
76,39,0,524.0256529812474
68,0,0.1875,524.2131529812474
76,0,0,524.2131529812474
68,39,0.0125,524.2256529812474
64,0,0,524.2256529812474
64,39,0,524.2256529812474
68,0,0.1875,524.4131529812474
69,39,0.0125,524.4256529812475
52,0,0,524.4256529812475
52,39,0,524.4256529812475
69,0,0.1875,524.6131529812475
71,39,0.0125,524.6256529812475
59,0,0,524.6256529812475
59,39,0,524.6256529812475
56,0,0.1375,524.7631529812476
64,0,0,524.7631529812476
71,0,0.05,524.8131529812475
59,0,0,524.8131529812475
52,0,0.0075,524.8206529812476
40,0,0.0025,524.8231529812476
64,39,0.0025,524.8256529812477
66,42,0,524.8256529812477
71,39,0,524.8256529812477
78,42,0,524.8256529812477
47,39,0,524.8256529812477
35,39,0,524.8256529812477
47,0,0,524.8256529812477
47,39,0,524.8256529812477
64,0,0.1825,525.0081529812477
73,39,0.0125,525.0206529812477
54,39,0,525.0206529812477
73,0,0.1875,525.2081529812477
54,0,0,525.2081529812477
66,0,0.0125,525.2206529812478
66,39,0,525.2206529812478
59,39,0,525.2206529812478
59,0,0.1875,525.4081529812478
71,0,0.0125,525.4206529812478
71,39,0,525.4206529812478
64,39,0,525.4206529812478
64,0,0.1875,525.6081529812478
76,39,0.0125,525.6206529812479
66,0,0,525.6206529812479
66,39,0,525.6206529812479
76,0,0.1875,525.8081529812479
85,39,0.0125,525.8206529812479
71,0,0,525.8206529812479
71,39,0,525.8206529812479
85,0,0.1875,526.0081529812479
78,0,0.0125,526.020652981248
78,39,0,526.020652981248
76,39,0,526.020652981248
76,0,0.1875,526.208152981248
83,39,0.0125,526.220652981248
71,0,0,526.220652981248
71,39,0,526.220652981248
83,0,0.1875,526.408152981248
76,39,0.0125,526.420652981248
66,0,0,526.420652981248
66,39,0,526.420652981248
76,0,0.1875,526.608152981248
73,39,0.0125,526.6206529812481
64,39,0,526.6206529812481
73,0,0.1875,526.8081529812481
64,0,0,526.8081529812481
66,39,0.0125,526.8206529812481
66,0,0,526.8206529812481
59,39,0,526.8206529812481
59,0,0.1875,527.0081529812481
71,39,0.0125,527.0206529812482
71,0,0,527.0206529812482
54,39,0,527.0206529812482
66,0,0.0775,527.0981529812482
78,0,0,527.0981529812482
71,0,0.11,527.2081529812482
54,0,0,527.2081529812482
63,39,0.0125,527.2206529812482
71,44,0,527.2206529812482
75,39,0,527.2206529812482
78,39,0,527.2206529812482
83,42,0,527.2206529812482
47,0,0,527.2206529812482
47,39,0,527.2206529812482
47,0,0,527.2206529812482
47,28,0,527.2206529812482
63,0,0.0625,527.2831529812482
63,39,0,527.2831529812482
73,39,0.1375,527.4206529812483
54,39,0,527.4206529812483
73,0,0.1875,527.6081529812483
54,0,0,527.6081529812483
66,39,0.0125,527.6206529812483
59,39,0,527.6206529812483
66,0,0.1875,527.8081529812483
59,0,0,527.8081529812483
71,0,0.0125,527.8206529812484
71,39,0,527.8206529812484
63,0,0,527.8206529812484
63,39,0,527.8206529812484
75,0,0.2,528.0206529812484
75,39,0,528.0206529812484
66,39,0,528.0206529812484
66,0,0.1875,528.2081529812484
85,39,0.0125,528.2206529812485
69,39,0,528.2206529812485
85,0,0.1875,528.4081529812485
69,0,0,528.4081529812485
83,0,0.0125,528.4206529812485
83,39,0,528.4206529812485
75,0,0,528.4206529812485
75,39,0,528.4206529812485
59,39,0,528.4206529812485
85,39,0.2,528.6206529812486
85,0,0.1875,528.8081529812486
86,39,0.0125,528.8206529812486
77,39,0,528.8206529812486
86,0,0.1875,529.0081529812486
77,0,0,529.0081529812486
78,0,0.0125,529.0206529812486
78,39,0,529.0206529812486
87,39,0,529.0206529812486
87,0,0.1875,529.2081529812486
80,39,0.0125,529.2206529812487
88,39,0,529.2206529812487
35,0,0.1575,529.3781529812487
80,0,0.03,529.4081529812487
88,0,0,529.4081529812487
81,39,0.0125,529.4206529812487
90,39,0,529.4206529812487
71,0,0.0775,529.4981529812487
75,0,0,529.4981529812487
78,0,0,529.4981529812487
83,0,0,529.4981529812487
59,0,0.06,529.5581529812487
81,0,0.05,529.6081529812486
90,0,0,529.6081529812486
63,0,0.0075,529.6156529812487
47,0,0.0025,529.6181529812487
83,39,0.0025,529.6206529812488
92,39,0,529.6206529812488
52,39,0,529.6206529812488
59,39,0,529.6206529812488
64,39,0,529.6206529812488
68,42,0,529.6206529812488
83,0,0.1825,529.8031529812488
92,0,0,529.8031529812488
82,39,0.0125,529.8156529812488
91,39,0,529.8156529812488
82,0,0.1875,530.0031529812488
91,0,0,530.0031529812488
81,39,0.0125,530.0156529812489
90,39,0,530.0156529812489
81,0,0.1875,530.2031529812489
90,0,0,530.2031529812489
80,39,0.0125,530.2156529812489
89,39,0,530.2156529812489
80,0,0.1875,530.4031529812489
89,0,0,530.4031529812489
79,39,0.0125,530.415652981249
88,39,0,530.415652981249
79,0,0.1875,530.603152981249
88,0,0,530.603152981249
78,39,0.0125,530.615652981249
87,39,0,530.615652981249
52,0,0.1375,530.7531529812491
59,0,0,530.7531529812491
64,0,0,530.7531529812491
68,0,0,530.7531529812491
78,0,0.05,530.803152981249
87,0,0,530.803152981249
77,39,0.0125,530.8156529812491
86,39,0,530.8156529812491
52,39,0,530.8156529812491
59,39,0,530.8156529812491
68,42,0,530.8156529812491
64,39,0,530.8156529812491
77,0,0.1875,531.0031529812491
86,0,0,531.0031529812491
76,39,0.0125,531.0156529812491
85,39,0,531.0156529812491
76,0,0.1875,531.2031529812491
85,0,0,531.2031529812491
75,39,0.0125,531.2156529812491
84,39,0,531.2156529812491
75,0,0.1875,531.4031529812491
84,0,0,531.4031529812491
74,39,0.0125,531.4156529812492
83,39,0,531.4156529812492
74,0,0.1875,531.6031529812492
83,0,0,531.6031529812492
73,39,0.0125,531.6156529812492
82,39,0,531.6156529812492
52,0,0.0525,531.6681529812492
59,0,0,531.6681529812492
68,0,0,531.6681529812492
57,39,0.0475,531.7156529812493
61,39,0,531.7156529812493
69,42,0,531.7156529812493
73,0,0.08750000000000001,531.8031529812492
82,0,0,531.8031529812492
72,39,0.0125,531.8156529812493
81,39,0,531.8156529812493
57,0,0.1825,531.9981529812493
61,0,0,531.9981529812493
69,0,0,531.9981529812493
72,0,0.005,532.0031529812493
81,0,0,532.0031529812493
71,39,0.0125,532.0156529812493
80,39,0,532.0156529812493
59,39,0,532.0156529812493
68,42,0,532.0156529812493
52,39,0,532.0156529812493
71,0,0.1875,532.2031529812493
80,0,0,532.2031529812493
69,39,0.0125,532.2156529812494
78,39,0,532.2156529812494
69,0,0.1875,532.4031529812494
78,0,0,532.4031529812494
68,39,0.0125,532.4156529812494
76,39,0,532.4156529812494
68,0,0,532.4156529812494
76,0,0.1875,532.6031529812494
68,0,0.0125,532.6156529812495
68,39,0,532.6156529812495
64,0,0,532.6156529812495
64,39,0,532.6156529812495
69,39,0.2,532.8156529812495
52,0,0,532.8156529812495
52,39,0,532.8156529812495
69,0,0.1875,533.0031529812495
71,39,0.0125,533.0156529812496
59,0,0,533.0156529812496
59,39,0,533.0156529812496
64,0,0.0775,533.0931529812495
68,0,0.06,533.1531529812495
71,0,0.05,533.2031529812494
59,0,0,533.2031529812494
71,39,0.0125,533.2156529812495
80,39,0,533.2156529812495
56,39,0,533.2156529812495
59,39,0,533.2156529812495
64,42,0,533.2156529812495
71,0,0.1875,533.4031529812495
80,0,0,533.4031529812495
69,39,0.0125,533.4156529812495
78,39,0,533.4156529812495
69,0,0.1875,533.6031529812495
78,0,0,533.6031529812495
68,39,0.0125,533.6156529812496
76,39,0,533.6156529812496
68,0,0.1875,533.8031529812496
76,0,0,533.8031529812496
68,39,0.0125,533.8156529812496
64,0,0,533.8156529812496
64,39,0,533.8156529812496
68,0,0.1875,534.0031529812496
69,39,0.0125,534.0156529812497
52,0,0,534.0156529812497
52,39,0,534.0156529812497
69,0,0.1875,534.2031529812497
71,39,0.0125,534.2156529812497
59,0,0,534.2156529812497
59,39,0,534.2156529812497
52,0,0.0775,534.2931529812497
56,0,0.06,534.3531529812497
64,0,0,534.3531529812497
71,0,0.05,534.4031529812496
59,0,0,534.4031529812496
64,39,0.0125,534.4156529812497
66,39,0,534.4156529812497
73,39,0,534.4156529812497
78,39,0,534.4156529812497
47,39,0,534.4156529812497
35,39,0,534.4156529812497
47,0,0,534.4156529812497
47,39,0,534.4156529812497
64,0,0.1825,534.5981529812497
73,0,0.0125,534.6106529812497
73,39,0,534.6106529812497
54,39,0,534.6106529812497
54,0,0.1875,534.7981529812497
66,0,0.0125,534.8106529812497
66,39,0,534.8106529812497
59,39,0,534.8106529812497
59,0,0.1875,534.9981529812497
71,39,0.0125,535.0106529812498
64,39,0,535.0106529812498
71,0,0.1875,535.1981529812498
64,0,0,535.1981529812498
76,39,0.0125,535.2106529812498
66,0,0,535.2106529812498
66,39,0,535.2106529812498
76,0,0.1875,535.3981529812498
85,39,0.0125,535.4106529812499
71,39,0,535.4106529812499
85,0,0.1875,535.5981529812499
71,0,0,535.5981529812499
78,0,0.0125,535.6106529812499
78,39,0,535.6106529812499
76,39,0,535.6106529812499
76,0,0.1875,535.7981529812499
83,39,0.0125,535.81065298125
71,39,0,535.81065298125
83,0,0.1875,535.99815298125
71,0,0,535.99815298125
76,39,0.0125,536.01065298125
66,0,0,536.01065298125
66,39,0,536.01065298125
76,0,0.1875,536.19815298125
73,0,0.0125,536.2106529812501
73,39,0,536.2106529812501
64,39,0,536.2106529812501
64,0,0.1875,536.3981529812501
66,39,0.0125,536.4106529812501
66,0,0,536.4106529812501
59,39,0,536.4106529812501
59,0,0.1875,536.5981529812501
71,39,0.0125,536.6106529812502
54,39,0,536.6106529812502
66,0,0.0775,536.6881529812501
73,0,0,536.6881529812501
78,0,0,536.6881529812501
71,0,0.11,536.7981529812502
54,0,0,536.7981529812502
63,39,0.0125,536.8106529812502
78,39,0,536.8106529812502
69,39,0,536.8106529812502
71,39,0,536.8106529812502
75,39,0,536.8106529812502
47,0,0,536.8106529812502
47,39,0,536.8106529812502
47,0,0,536.8106529812502
47,36,0,536.8106529812502
63,0,0.0625,536.8731529812502
63,39,0,536.8731529812502
73,39,0.1375,537.0106529812502
54,39,0,537.0106529812502
73,0,0.1875,537.1981529812502
54,0,0,537.1981529812502
66,39,0.0125,537.2106529812503
59,39,0,537.2106529812503
66,0,0.1875,537.3981529812503
59,0,0,537.3981529812503
71,0,0.0125,537.4106529812503
71,39,0,537.4106529812503
63,0,0,537.4106529812503
63,39,0,537.4106529812503
75,0,0.2,537.6106529812504
75,39,0,537.6106529812504
66,39,0,537.6106529812504
66,0,0.1875,537.7981529812504
85,39,0.0125,537.8106529812504
69,0,0,537.8106529812504
69,39,0,537.8106529812504
71,0,0.1375,537.9481529812505
75,0,0,537.9481529812505
85,0,0.05,537.9981529812504
69,0,0,537.9981529812504
83,39,0.0125,538.0106529812505
75,39,0,538.0106529812505
57,39,0,538.0106529812505
61,39,0,538.0106529812505
83,0,0.1875,538.1981529812505
75,0,0,538.1981529812505
85,39,0.0125,538.2106529812505
85,0,0.1875,538.3981529812505
86,39,0.0125,538.4106529812506
77,39,0,538.4106529812506
86,0,0.1875,538.5981529812506
77,0,0,538.5981529812506
78,0,0.0125,538.6106529812506
78,39,0,538.6106529812506
87,39,0,538.6106529812506
87,0,0.1875,538.7981529812506
80,39,0.0125,538.8106529812507
88,39,0,538.8106529812507
35,0,0.1575,538.9681529812507
80,0,0.03,538.9981529812507
88,0,0,538.9981529812507
81,39,0.0125,539.0106529812507
90,39,0,539.0106529812507
78,0,0.0775,539.0881529812507
57,0,0.06,539.1481529812506
61,0,0,539.1481529812506
81,0,0.05,539.1981529812506
90,0,0,539.1981529812506
63,0,0.0075,539.2056529812506
47,0,0.0025,539.2081529812507
83,39,0.0025,539.2106529812507
92,39,0,539.2106529812507
56,39,0,539.2106529812507
59,39,0,539.2106529812507
68,42,0,539.2106529812507
52,39,0,539.2106529812507
83,0,0.1825,539.3931529812508
92,0,0,539.3931529812508
82,39,0.0125,539.4056529812508
91,39,0,539.4056529812508
82,0,0.1875,539.5931529812508
91,0,0,539.5931529812508
81,39,0.0125,539.6056529812508
90,39,0,539.6056529812508
81,0,0.1875,539.7931529812508
90,0,0,539.7931529812508
80,39,0.0125,539.8056529812509
89,39,0,539.8056529812509
80,0,0.1875,539.9931529812509
89,0,0,539.9931529812509
79,39,0.0125,540.0056529812509
88,39,0,540.0056529812509
79,0,0.1875,540.1931529812509
88,0,0,540.1931529812509
78,39,0.0125,540.205652981251
87,39,0,540.205652981251
56,0,0.1375,540.343152981251
59,0,0,540.343152981251
68,0,0,540.343152981251
78,0,0.05,540.393152981251
87,0,0,540.393152981251
77,39,0.0125,540.405652981251
86,39,0,540.405652981251
59,39,0,540.405652981251
62,39,0,540.405652981251
68,42,0,540.405652981251
77,0,0.1875,540.593152981251
86,0,0,540.593152981251
76,39,0.0125,540.6056529812511
85,39,0,540.6056529812511
76,0,0.1875,540.7931529812511
85,0,0,540.7931529812511
75,39,0.0125,540.8056529812511
84,39,0,540.8056529812511
75,0,0.1875,540.9931529812511
84,0,0,540.9931529812511
74,39,0.0125,541.0056529812512
83,39,0,541.0056529812512
74,0,0.1875,541.1931529812512
83,0,0,541.1931529812512
73,39,0.0125,541.2056529812512
82,39,0,541.2056529812512
59,0,0.0525,541.2581529812512
62,0,0,541.2581529812512
68,0,0,541.2581529812512
61,39,0.0475,541.3056529812512
64,39,0,541.3056529812512
69,42,0,541.3056529812512
73,0,0.08750000000000001,541.3931529812512
82,0,0,541.3931529812512
72,39,0.0125,541.4056529812513
81,39,0,541.4056529812513
61,0,0.1825,541.5881529812513
64,0,0,541.5881529812513
69,0,0,541.5881529812513
72,0,0.005,541.5931529812513
81,0,0,541.5931529812513
71,39,0.0125,541.6056529812513
80,39,0,541.6056529812513
59,39,0,541.6056529812513
68,42,0,541.6056529812513
62,39,0,541.6056529812513
71,0,0.1875,541.7931529812513
80,0,0,541.7931529812513
69,39,0.0125,541.8056529812513
78,39,0,541.8056529812513
69,0,0.1875,541.9931529812513
78,0,0,541.9931529812513
68,39,0.0125,542.0056529812514
76,39,0,542.0056529812514
68,0,0,542.0056529812514
76,0,0.1875,542.1931529812514
68,0,0.0125,542.2056529812514
68,39,0,542.2056529812514
64,39,0,542.2056529812514
64,0,0.1875,542.3931529812514
74,39,0.0125,542.4056529812515
52,0,0,542.4056529812515
52,39,0,542.4056529812515
74,0,0.1875,542.5931529812515
76,39,0.0125,542.6056529812515
59,0,0,542.6056529812515
59,39,0,542.6056529812515
68,0,0.1375,542.7431529812516
76,0,0.05,542.7931529812515
59,0,0,542.7931529812515
71,39,0.0125,542.8056529812516
80,39,0,542.8056529812516
56,39,0,542.8056529812516
64,42,0,542.8056529812516
71,0,0.1875,542.9931529812516
80,0,0,542.9931529812516
69,39,0.0125,543.0056529812516
78,39,0,543.0056529812516
69,0,0.1875,543.1931529812516
78,0,0,543.1931529812516
68,39,0.0125,543.2056529812517
76,39,0,543.2056529812517
68,0,0.1875,543.3931529812517
76,0,0,543.3931529812517
68,39,0.0125,543.4056529812517
64,0,0,543.4056529812517
64,39,0,543.4056529812517
68,0,0.1875,543.5931529812517
69,39,0.0125,543.6056529812518
52,0,0,543.6056529812518
52,39,0,543.6056529812518
69,0,0.1875,543.7931529812518
52,0,0,543.7931529812518
71,39,0.0125,543.8056529812518
59,39,0,543.8056529812518
62,0,0.0775,543.8831529812518
56,0,0.06,543.9431529812517
64,0,0,543.9431529812517
71,0,0.05,543.9931529812517
59,0,0,543.9931529812517
57,39,0,543.9931529812517
64,39,0,543.9931529812517
73,46,0,543.9931529812517
73,0,0,543.9931529812517
73,42,0,543.9931529812517
45,39,0,543.9931529812517
33,39,0,543.9931529812517
45,0,0,543.9931529812517
45,39,0,543.9931529812517
61,39,0.203125,544.1962779812517
52,39,0,544.1962779812517
61,0,0.1953125,544.3915904812517
52,0,0,544.3915904812517
64,0,0.013020833333333332,544.404611314585
64,39,0,544.404611314585
57,0,0,544.404611314585
57,39,0,544.404611314585
69,39,0.20833333333333331,544.6129446479184
61,39,0,544.6129446479184
69,0,0.1953125,544.8082571479184
61,0,0,544.8082571479184
73,0,0.013020833333333332,544.8212779812518
73,39,0,544.8212779812518
64,0,0,544.8212779812518
64,39,0,544.8212779812518
76,39,0.20833333333333331,545.0296113145852
69,39,0,545.0296113145852
76,0,0.1953125,545.2249238145852
69,0,0,545.2249238145852
81,39,0.013020833333333332,545.2379446479185
73,0,0,545.2379446479185
73,39,0,545.2379446479185
81,0,0.1953125,545.4332571479185
85,39,0.013020833333333332,545.4462779812519
76,39,0,545.4462779812519
85,0,0.1953125,545.6415904812519
76,0,0,545.6415904812519
81,39,0.013020833333333332,545.6546113145853
73,0,0,545.6546113145853
73,39,0,545.6546113145853
81,0,0.1015625,545.7561738145853
85,39,0.10677083333333333,545.8629446479187
76,39,0,545.8629446479187
85,0,0.1015625,545.9645071479187
76,0,0,545.9645071479187
81,39,0.10677083333333333,546.071277981252
73,0,0,546.071277981252
73,39,0,546.071277981252
81,0,0.1015625,546.172840481252
85,39,0.10677083333333333,546.2796113145854
76,39,0,546.2796113145854
57,0,0.08072916666666666,546.360340481252
64,0,0,546.360340481252
33,0,0,546.360340481252
45,0,0,546.360340481252
85,0,0.020833333333333332,546.3811738145854
76,0,0,546.3811738145854
81,39,0.10677083333333333,546.4879446479188
73,0,0,546.4879446479188
73,39,0,546.4879446479188
81,0,0.1015625,546.5895071479188
85,39,0.10677083333333333,546.6962779812521
76,39,0,546.6962779812521
85,0,0.1015625,546.7978404812521
76,0,0,546.7978404812521
80,39,0.10677083333333333,546.9046113145855
72,39,0,546.9046113145855
80,0,0.1015625,547.0061738145855
72,0,0,547.0061738145855
84,39,0.10677083333333333,547.1129446479189
75,39,0,547.1129446479189
84,0,0.1015625,547.2145071479189
75,0,0,547.2145071479189
79,39,0.10677083333333333,547.3212779812523
71,39,0,547.3212779812523
79,0,0.1015625,547.4228404812523
71,0,0,547.4228404812523
83,39,0.10677083333333333,547.5296113145856
74,39,0,547.5296113145856
83,0,0.1015625,547.6311738145856
74,0,0,547.6311738145856
78,39,0.10677083333333333,547.737944647919
70,39,0,547.737944647919
78,0,0.1015625,547.839507147919
70,0,0,547.839507147919
82,39,0.10677083333333333,547.9462779812524
73,0,0,547.9462779812524
73,39,0,547.9462779812524
82,0,0.1015625,548.0478404812524
77,39,0.10677083333333333,548.1546113145857
69,39,0,548.1546113145857
77,0,0.1015625,548.2561738145857
69,0,0,548.2561738145857
81,39,0.10677083333333333,548.3629446479191
72,39,0,548.3629446479191
81,0,0.1015625,548.4645071479191
72,0,0,548.4645071479191
77,39,0.10677083333333333,548.5712779812525
68,39,0,548.5712779812525
77,0,0.1015625,548.6728404812525
68,0,0,548.6728404812525
73,0,0.0625,548.7353404812525
80,39,0.04427083333333333,548.7796113145858
71,39,0,548.7796113145858
80,0,0.1015625,548.8811738145858
71,0,0,548.8811738145858
69,42,0,548.8811738145858
73,39,0,548.8811738145858
81,42,0,548.8811738145858
54,39,0,548.8811738145858
42,39,0,548.8811738145858
54,0,0,548.8811738145858
54,39,0,548.8811738145858
69,0,0.1989794625,549.0801532770859
69,36,0,549.0801532770859
61,39,0,549.0801532770859
61,0,0.19132640625,549.2714796833359
73,0,0.01275509375,549.2842347770859
73,39,0,549.2842347770859
66,39,0,549.2842347770859
66,0,0.19132640625,549.4755611833359
78,39,0.01275509375,549.4883162770859
69,0,0,549.4883162770859
69,39,0,549.4883162770859
78,0,0.19132640625,549.6796426833359
81,0,0.01275509375,549.692397777086
81,39,0,549.692397777086
73,0,0,549.692397777086
73,39,0,549.692397777086
85,39,0.2040815,549.896479277086
78,39,0,549.896479277086
85,0,0.19132640625,550.087805683336
78,0,0,550.087805683336
90,39,0.01275509375,550.100560777086
81,0,0,550.100560777086
81,39,0,550.100560777086
90,0,0.19132640625,550.291887183336
85,39,0.01275509375,550.304642277086
78,39,0,550.304642277086
85,0,0.19132640625,550.4959686833361
78,0,0,550.4959686833361
90,39,0.01275509375,550.5087237770861
81,0,0,550.5087237770861
81,39,0,550.5087237770861
90,0,0.19132640625,550.7000501833361
85,39,0.01275509375,550.7128052770861
78,39,0,550.7128052770861
85,0,0.19132640625,550.9041316833361
78,0,0,550.9041316833361
81,39,0.01275509375,550.9168867770861
81,0,0,550.9168867770861
73,0,0,550.9168867770861
73,39,0,550.9168867770861
78,39,0.2040815,551.1209682770861
69,0,0,551.1209682770861
69,39,0,551.1209682770861
81,0,0.07908158125,551.2000498583361
73,0,0,551.2000498583361
42,0,0,551.2000498583361
54,0,0,551.2000498583361
78,0,0.11224482499999999,551.3122946833361
69,0,0,551.3122946833361
66,42,0.01275509375,551.3250497770861
63,39,0,551.3250497770861
59,39,0,551.3250497770861
47,39,0,551.3250497770861
57,39,0,551.3250497770861
59,0,0.19132640625,551.5163761833361
69,39,0.01275509375,551.5291312770861
63,0,0,551.5291312770861
63,39,0,551.5291312770861
69,0,0.19132640625,551.7204576833361
75,39,0.01275509375,551.7332127770861
69,39,0,551.7332127770861
75,0,0.19132640625,551.9245391833362
69,0,0,551.9245391833362
78,39,0.01275509375,551.9372942770862
71,39,0,551.9372942770862
78,0,0.19132640625,552.1286206833362
71,0,0,552.1286206833362
81,39,0.01275509375,552.1413757770862
75,39,0,552.1413757770862
81,0,0.19132640625,552.3327021833362
75,0,0,552.3327021833362
87,39,0.01275509375,552.3454572770862
78,39,0,552.3454572770862
66,0,0.14030603125,552.4857633083362
87,0,0.051020375,552.5367836833362
78,0,0,552.5367836833362
90,39,0.01275509375,552.5495387770862
81,39,0,552.5495387770862
48,39,0,552.5495387770862
57,0,0.06377546875,552.6133142458362
57,39,0,552.6133142458362
66,42,0.0663264875,552.6796407333362
90,0,0.06122445,552.7408651833363
81,0,0,552.7408651833363
93,39,0.01275509375,552.7536202770863
78,39,0,552.7536202770863
93,0,0.19132640625,552.9449466833363
78,0,0,552.9449466833363
92,39,0.01275509375,552.9577017770863
80,39,0,552.9577017770863
92,0,0.19132640625,553.1490281833363
80,0,0,553.1490281833363
90,39,0.01275509375,553.1617832770863
81,39,0,553.1617832770863
90,0,0.19132640625,553.3531096833364
92,39,0.01275509375,553.3658647770864
66,0,0.0969387125,553.4628034895863
48,0,0.00255101875,553.4653545083363
56,39,0.00255101875,553.4679055270863
68,42,0,553.4679055270863
92,0,0.08928565625,553.5571911833363
87,39,0.01275509375,553.5699462770863
63,0,0.07908158125,553.6490278583362
47,0,0,553.6490278583362
57,0,0,553.6490278583362
81,0,0.091836675,553.7408645333362
56,0,0.0153061125,553.7561706458362
68,0,0,553.7561706458362
87,0,0.0051020375,553.7612726833362
76,39,0,553.7612726833362
80,39,0,553.7612726833362
88,39,0,553.7612726833362
49,39,0,553.7612726833362
64,44,0,553.7612726833362
49,0,0,553.7612726833362
49,39,0,553.7612726833362
64,0,0.059523791666666666,553.8207964750029
64,39,0,553.8207964750029
76,0,0.15773804791666665,553.9785345229196
80,0,0,553.9785345229196
88,0,0,553.9785345229196
64,39,0,553.9785345229196
64,0,0,553.9785345229196
56,39,0,553.9785345229196
56,0,0.1875,554.1660345229196
68,39,0.0125,554.1785345229197
61,39,0,554.1785345229197
68,0,0.1875,554.3660345229197
61,0,0,554.3660345229197
73,39,0.0125,554.3785345229197
64,0,0,554.3785345229197
64,39,0,554.3785345229197
73,0,0.1875,554.5660345229197
76,39,0.0125,554.5785345229198
68,39,0,554.5785345229198
76,0,0.1875,554.7660345229198
68,0,0,554.7660345229198
80,39,0.0125,554.7785345229198
73,39,0,554.7785345229198
80,0,0.1875,554.9660345229198
73,0,0,554.9660345229198
85,39,0.0125,554.9785345229199
76,39,0,554.9785345229199
85,0,0.1875,555.1660345229199
76,0,0,555.1660345229199
80,39,0.0125,555.1785345229199
73,39,0,555.1785345229199
80,0,0.1875,555.3660345229199
73,0,0,555.3660345229199
85,39,0.0125,555.37853452292
76,39,0,555.37853452292
85,0,0.1875,555.56603452292
76,0,0,555.56603452292
80,39,0.0125,555.57853452292
73,39,0,555.57853452292
80,0,0.1875,555.76603452292
73,0,0,555.76603452292
76,39,0.0125,555.77853452292
68,39,0,555.77853452292
76,0,0.1875,555.96603452292
68,0,0,555.96603452292
73,39,0.0125,555.9785345229201
64,0,0,555.9785345229201
64,39,0,555.9785345229201
73,0,0.1875,556.1660345229201
64,0,0.0075,556.1735345229201
49,0,0.0025,556.1760345229202
73,39,0.0025,556.1785345229202
61,39,0,556.1785345229202
69,42,0,556.1785345229202
54,39,0,556.1785345229202
54,0,0,556.1785345229202
54,39,0,556.1785345229202
57,39,0,556.1785345229202
73,0,0.1875,556.3660345229202
66,39,0.0125,556.3785345229203
61,0,0,556.3785345229203
61,39,0,556.3785345229203
66,0,0.1875,556.5660345229203
73,39,0.0125,556.5785345229203
66,39,0,556.5785345229203
73,0,0.1875,556.7660345229203
66,0,0,556.7660345229203
78,39,0.0125,556.7785345229204
69,0,0,556.7785345229204
69,39,0,556.7785345229204
78,0,0.1875,556.9660345229204
81,39,0.0125,556.9785345229204
73,39,0,556.9785345229204
81,0,0.1875,557.1660345229204
73,0,0,557.1660345229204
85,39,0.0125,557.1785345229205
78,39,0,557.1785345229205
85,0,0.1875,557.3660345229205
78,0,0,557.3660345229205
81,39,0.0125,557.3785345229205
90,39,0,557.3785345229205
66,39,0,557.3785345229205
81,0,0.1875,557.5660345229205
90,0,0,557.5660345229205
78,39,0.0125,557.5785345229206
85,39,0,557.5785345229206
78,0,0.1875,557.7660345229206
85,0,0,557.7660345229206
81,39,0.0125,557.7785345229206
90,39,0,557.7785345229206
81,0,0.1875,557.9660345229206
90,0,0,557.9660345229206
78,39,0.0125,557.9785345229207
85,39,0,557.9785345229207
78,0,0.1875,558.1660345229207
85,0,0,558.1660345229207
73,39,0.0125,558.1785345229207
81,39,0,558.1785345229207
73,0,0.1875,558.3660345229207
81,0,0,558.3660345229207
69,39,0.0125,558.3785345229207
78,39,0,558.3785345229207
69,0,0,558.3785345229207
61,0,0.0775,558.4560345229207
54,0,0,558.4560345229207
57,0,0,558.4560345229207
66,0,0.06,558.5160345229207
78,0,0.05,558.5660345229206
76,39,0.0125,558.5785345229207
60,39,0,558.5785345229207
45,39,0,558.5785345229207
54,39,0,558.5785345229207
60,0,0,558.5785345229207
60,39,0,558.5785345229207
76,0,0.1825,558.7610345229207
69,0,0.0125,558.7735345229207
69,39,0,558.7735345229207
64,39,0,558.7735345229207
64,0,0.1875,558.9610345229207
76,39,0.0125,558.9735345229208
66,39,0,558.9735345229208
76,0,0.1875,559.1610345229208
66,0,0,559.1610345229208
78,39,0.0125,559.1735345229208
69,0,0,559.1735345229208
69,39,0,559.1735345229208
78,0,0.1875,559.3610345229208
81,39,0.0125,559.3735345229209
72,39,0,559.3735345229209
81,0,0.1875,559.5610345229209
72,0,0,559.5610345229209
88,39,0.0125,559.5735345229209
78,39,0,559.5735345229209
88,0,0.1875,559.7610345229209
78,0,0,559.7610345229209
81,39,0.0125,559.773534522921
90,39,0,559.773534522921
64,39,0,559.773534522921
81,0,0.1875,559.961034522921
90,0,0,559.961034522921
76,39,0.0125,559.973534522921
88,39,0,559.973534522921
76,0,0.1875,560.161034522921
88,0,0,560.161034522921
81,39,0.0125,560.173534522921
90,39,0,560.173534522921
81,0,0.1875,560.361034522921
90,0,0,560.361034522921
88,39,0.0125,560.3735345229211
76,39,0,560.3735345229211
88,0,0.1875,560.5610345229211
76,0,0,560.5610345229211
81,39,0.0125,560.5735345229211
73,39,0,560.5735345229211
69,0,0.1575,560.7310345229212
81,0,0.03,560.7610345229211
73,0,0,560.7610345229211
78,39,0.0125,560.7735345229212
69,39,0,560.7735345229212
45,0,0.0775,560.8510345229212
54,0,0,560.8510345229212
60,0,0,560.8510345229212
64,0,0.06,560.9110345229211
78,0,0.05,560.9610345229211
69,0,0,560.9610345229211
75,39,0.0125,560.9735345229211
63,39,0,560.9735345229211
66,42,0,560.9735345229211
63,0,0,560.9735345229211
63,39,0,560.9735345229211
59,39,0,560.9735345229211
47,39,0,560.9735345229211
57,39,0,560.9735345229211
75,0,0.1875,561.1610345229211
59,0,0,561.1610345229211
69,39,0.0125,561.1735345229212
63,0,0,561.1735345229212
63,39,0,561.1735345229212
69,0,0.1875,561.3610345229212
75,39,0.0125,561.3735345229212
69,39,0,561.3735345229212
75,0,0.1875,561.5610345229212
69,0,0,561.5610345229212
78,39,0.0125,561.5735345229212
71,39,0,561.5735345229212
78,0,0.1875,561.7610345229212
71,0,0,561.7610345229212
81,39,0.0125,561.7735345229213
75,39,0,561.7735345229213
81,0,0.1875,561.9610345229213
75,0,0,561.9610345229213
87,39,0.0125,561.9735345229213
78,39,0,561.9735345229213
66,0,0.1375,562.1110345229214
87,0,0.05,562.1610345229213
78,0,0,562.1610345229213
90,39,0.0125,562.1735345229214
81,39,0,562.1735345229214
57,0,0,562.1735345229214
57,39,0,562.1735345229214
66,39,0,562.1735345229214
90,0,0.1875,562.3610345229214
81,0,0,562.3610345229214
93,39,0.0125,562.3735345229214
78,39,0,562.3735345229214
93,0,0.1875,562.5610345229214
78,0,0,562.5610345229214
92,39,0.0125,562.5735345229215
80,39,0,562.5735345229215
92,0,0.1875,562.7610345229215
80,0,0,562.7610345229215
90,39,0.0125,562.7735345229215
81,39,0,562.7735345229215
90,0,0.1875,562.9610345229215
92,39,0.0125,562.9735345229216
66,0,0.0525,563.0260345229216
59,39,0.0475,563.0735345229216
68,39,0,563.0735345229216
92,0,0.08750000000000001,563.1610345229216
87,39,0.0125,563.1735345229216
63,0,0.0775,563.2510345229216
47,0,0,563.2510345229216
57,0,0,563.2510345229216
81,0,0.09,563.3410345229216
59,0,0.015,563.3560345229216
68,0,0,563.3560345229216
87,0,0.005,563.3610345229216
88,39,0.0125,563.3735345229217
76,39,0,563.3735345229217
80,39,0,563.3735345229217
40,39,0,563.3735345229217
52,39,0,563.3735345229217
56,39,0,563.3735345229217
64,42,0,563.3735345229217
88,0,0.1825,563.5560345229217
95,39,0.0125,563.5685345229217
95,0,0.1875,563.7560345229217
88,39,0.0125,563.7685345229218
88,0,0.1875,563.9560345229218
83,39,0.0125,563.9685345229218
83,0,0.1875,564.1560345229218
88,39,0.0125,564.1685345229218
88,0,0.1875,564.3560345229218
83,39,0.0125,564.3685345229219
76,0,0.1375,564.5060345229219
80,0,0,564.5060345229219
83,0,0.05,564.5560345229219
76,39,0.0125,564.5685345229219
76,0,0.1875,564.7560345229219
83,39,0.0125,564.768534522922
83,0,0.1875,564.956034522922
76,39,0.0125,564.968534522922
76,0,0.1875,565.156034522922
71,39,0.0125,565.1685345229221
71,0,0.1875,565.3560345229221
76,39,0.0125,565.3685345229221
76,0,0.1875,565.5560345229221
71,39,0.0125,565.5685345229222
56,0,0.0775,565.6460345229222
64,0,0,565.6460345229222
71,0,0.11,565.7560345229222
64,39,0.0125,565.7685345229222
64,0,0,565.7685345229222
64,39,0,565.7685345229222
71,39,0.2,565.9685345229223
71,0,0.1875,566.1560345229223
64,0,0.0125,566.1685345229223
64,39,0,566.1685345229223
71,39,0.2,566.3685345229223
71,0,0.1875,566.5560345229223
76,39,0.0125,566.5685345229224
76,0,0.1875,566.7560345229224
71,39,0.0125,566.7685345229224
64,0,0.1375,566.9060345229225
71,0,0.05,566.9560345229224
76,39,0.0125,566.9685345229225
64,39,0,566.9685345229225
76,0,0.1875,567.1560345229225
83,39,0.0125,567.1685345229225
83,0,0.1875,567.3560345229225
76,39,0.0125,567.3685345229226
76,0,0.1875,567.5560345229226
83,39,0.0125,567.5685345229226
83,0,0.1875,567.7560345229226
88,39,0.0125,567.7685345229227
40,0,0.1575,567.9260345229227
52,0,0,567.9260345229227
88,0,0.03,567.9560345229227
83,39,0.0125,567.9685345229227
64,0,0.1375,568.1060345229228
83,0,0.05,568.1560345229227
88,39,0.0125,568.1685345229228
52,39,0,568.1685345229228
62,39,0,568.1685345229228
88,0,0.1825,568.3510345229228
95,39,0.0125,568.3635345229228
95,0,0.1875,568.5510345229228
88,39,0.0125,568.5635345229229
88,0,0.1875,568.7510345229229
83,39,0.0125,568.7635345229229
83,0,0.1875,568.9510345229229
88,39,0.0125,568.9635345229229
88,0,0.1875,569.1510345229229
83,39,0.0125,569.163534522923
83,0,0.1875,569.351034522923
76,39,0.0125,569.363534522923
76,0,0.1875,569.551034522923
83,39,0.0125,569.5635345229231
83,0,0.1875,569.7510345229231
76,39,0.0125,569.7635345229231
76,0,0.1875,569.9510345229231
71,39,0.0125,569.9635345229232
71,0,0.1875,570.1510345229232
76,39,0.0125,570.1635345229232
76,0,0.1875,570.3510345229232
71,39,0.0125,570.3635345229233
71,0,0.1875,570.5510345229233
64,39,0.0125,570.5635345229233
71,42,0,570.5635345229233
64,0,0.1875,570.7510345229233
71,0,0.0125,570.7635345229234
71,39,0,570.7635345229234
64,39,0.2,570.9635345229234
64,0,0.1875,571.1510345229234
71,0,0.0125,571.1635345229234
71,39,0,571.1635345229234
76,39,0.2,571.3635345229235
76,0,0.1875,571.5510345229235
71,0,0.0125,571.5635345229235
71,39,0,571.5635345229235
76,39,0.2,571.7635345229236
76,0,0.1875,571.9510345229236
83,39,0.0125,571.9635345229236
83,0,0.1875,572.1510345229236
76,39,0.0125,572.1635345229237
76,0,0.1875,572.3510345229237
83,39,0.0125,572.3635345229237
83,0,0.1875,572.5510345229237
88,39,0.0125,572.5635345229238
62,0,0.1575,572.7210345229238
88,0,0.03,572.7510345229238
83,39,0.0125,572.7635345229238
71,0,0.0775,572.8410345229238
83,0,0.11,572.9510345229238
88,39,0.0125,572.9635345229239
61,39,0,572.9635345229239
69,42,0,572.9635345229239
88,0,0.1825,573.1460345229239
93,39,0.0125,573.1585345229239
93,0,0.1875,573.3460345229239
88,39,0.0125,573.358534522924
88,0,0.1875,573.546034522924
81,39,0.0125,573.558534522924
81,0,0.1875,573.746034522924
88,39,0.0125,573.758534522924
88,0,0.1875,573.946034522924
81,39,0.0125,573.9585345229241
81,0,0.1875,574.1460345229241
76,39,0.0125,574.1585345229241
76,0,0.1875,574.3460345229241
81,39,0.0125,574.3585345229242
81,0,0.1875,574.5460345229242
76,39,0.0125,574.5585345229242
76,0,0.1875,574.7460345229242
69,39,0.0125,574.7585345229243
69,0,0,574.7585345229243
76,39,0.2,574.9585345229243
76,0,0.1875,575.1460345229243
69,0,0.0125,575.1585345229244
69,39,0,575.1585345229244
61,0,0.0775,575.2360345229243
69,0,0.11,575.3460345229244
64,39,0.0125,575.3585345229244
68,42,0,575.3585345229244
52,0,0,575.3585345229244
52,39,0,575.3585345229244
59,39,0,575.3585345229244
64,0,0.1875,575.5460345229244
68,0,0.0125,575.5585345229244
68,39,0,575.5585345229244
64,39,0.2,575.7585345229245
64,0,0.1875,575.9460345229245
68,0,0.0125,575.9585345229245
68,39,0,575.9585345229245
76,39,0.2,576.1585345229246
76,0,0.1875,576.3460345229246
68,0,0.0125,576.3585345229246
68,39,0,576.3585345229246
76,39,0.2,576.5585345229247
76,0,0.1875,576.7460345229247
80,39,0.0125,576.7585345229247
80,0,0.1875,576.9460345229247
76,39,0.0125,576.9585345229248
76,0,0.1875,577.1460345229248
80,39,0.0125,577.1585345229248
80,0,0.1875,577.3460345229248
88,39,0.0125,577.3585345229249
88,0,0.1875,577.5460345229249
80,39,0.0125,577.5585345229249
68,0,0.0775,577.6360345229249
52,0,0,577.6360345229249
59,0,0,577.6360345229249
80,0,0.11,577.7460345229249
88,39,0.0125,577.758534522925
54,39,0,577.758534522925
58,39,0,577.758534522925
64,39,0,577.758534522925
66,42,0,577.758534522925
88,0,0.1825,577.941034522925
97,39,0.0125,577.953534522925
97,0,0.1875,578.141034522925
88,39,0.0125,578.153534522925
88,0,0.1875,578.341034522925
85,39,0.0125,578.3535345229251
85,0,0.1875,578.5410345229251
90,39,0.0125,578.5535345229251
90,0,0.1875,578.7410345229251
85,39,0.0125,578.7535345229252
85,0,0.1875,578.9410345229252
78,39,0.0125,578.9535345229252
78,0,0.1875,579.1410345229252
88,39,0.0125,579.1535345229253
88,0,0.1875,579.3410345229253
78,39,0.0125,579.3535345229253
78,0,0.1875,579.5410345229253
76,39,0.0125,579.5535345229254
76,0,0.1875,579.7410345229254
85,39,0.0125,579.7535345229254
85,0,0.1875,579.9410345229254
76,39,0.0125,579.9535345229255
76,0,0.1875,580.1410345229255
73,39,0.0125,580.1535345229255
73,0,0.1875,580.3410345229255
78,39,0.0125,580.3535345229255
78,0,0.1875,580.5410345229255
73,39,0.0125,580.5535345229256
73,0,0.1875,580.7410345229256
66,39,0.0125,580.7535345229256
66,0,0,580.7535345229256
76,39,0.2,580.9535345229257
76,0,0.1875,581.1410345229257
66,0,0.0125,581.1535345229257
66,39,0,581.1535345229257
64,39,0.2,581.3535345229258
64,0,0,581.3535345229258
73,39,0.2,581.5535345229258
73,0,0.1875,581.7410345229258
64,0,0.0125,581.7535345229259
64,39,0,581.7535345229259
61,39,0.2,581.9535345229259
61,0,0.1875,582.1410345229259
66,0,0.0125,582.153534522926
66,39,0,582.153534522926
64,0,0.1575,582.311034522926
54,0,0,582.311034522926
58,0,0,582.311034522926
66,0,0.03,582.341034522926
61,39,0.0125,582.353534522926
61,0,0.1875,582.541034522926
58,39,0.0125,582.553534522926
66,39,0,582.553534522926
42,39,0,582.553534522926
49,39,0,582.553534522926
52,39,0,582.553534522926
54,39,0,582.553534522926
58,0,0.1825,582.736034522926
61,39,0.0125,582.7485345229261
61,0,0.1875,582.9360345229261
64,39,0.0125,582.9485345229261
64,0,0.1875,583.1360345229261
66,0,0.0125,583.1485345229262
66,39,0,583.1485345229262
70,39,0.2,583.3485345229262
70,0,0.1875,583.5360345229262
73,39,0.0125,583.5485345229263
73,0,0.1875,583.7360345229263
76,39,0.0125,583.7485345229263
76,0,0.1875,583.9360345229263
78,39,0.0125,583.9485345229264
78,0,0.1875,584.1360345229264
82,39,0.0125,584.1485345229264
82,0,0.1875,584.3360345229264
85,39,0.0125,584.3485345229265
85,0,0.1875,584.5360345229265
88,39,0.0125,584.5485345229265
88,0,0.1875,584.7360345229265
97,39,0.0125,584.7485345229265
66,0,0.0775,584.8260345229265
42,0,0,584.8260345229265
49,0,0,584.8260345229265
52,0,0,584.8260345229265
54,0,0,584.8260345229265
97,0,0.11,584.9360345229265
95,39,0.0125,584.9485345229266
47,39,0,584.9485345229266
66,42,0,584.9485345229266
54,39,0.065,585.0135345229266
57,39,0.065,585.0785345229267
95,0,0.0575,585.1360345229267
63,39,0.01,585.1460345229267
93,39,0.0025,585.1485345229268
93,0,0.1875,585.3360345229268
90,39,0.0125,585.3485345229268
90,0,0.1875,585.5360345229268
87,39,0.0125,585.5485345229268
87,0,0.1875,585.7360345229268
83,39,0.0125,585.7485345229269
83,0,0.1875,585.9360345229269
87,39,0.0125,585.9485345229269
66,0,0.1375,586.086034522927
87,0,0.05,586.1360345229269
54,0,0.0075,586.143534522927
57,0,0,586.143534522927
63,0,0,586.143534522927
47,0,0.0025,586.146034522927
85,39,0.0025,586.1485345229271
71,39,0,586.1485345229271
66,39,0,586.1485345229271
85,0,0.1875,586.3360345229271
81,39,0.0125,586.3485345229271
81,0,0.1875,586.5360345229271
78,39,0.0125,586.5485345229272
78,0,0.1875,586.7360345229272
75,39,0.0125,586.7485345229272
75,0,0.1875,586.9360345229272
71,39,0.0125,586.9485345229273
71,0,0,586.9485345229273
66,0,0.0525,587.0010345229273
68,39,0.0475,587.0485345229273
83,39,0.1,587.1485345229273
71,0,0.1375,587.2860345229274
68,0,0.045,587.3310345229273
83,0,0.005,587.3360345229273
76,39,0.0125,587.3485345229274
71,39,0,587.3485345229274
52,39,0,587.3485345229274
56,39,0,587.3485345229274
64,39,0,587.3485345229274
76,0,0.1825,587.5310345229274
95,39,0.0125,587.5435345229274
95,0,0.1875,587.7310345229274
88,39,0.0125,587.7435345229275
88,0,0.1875,587.9310345229275
83,39,0.0125,587.9435345229275
83,0,0.1875,588.1310345229275
88,39,0.0125,588.1435345229276
88,0,0.1875,588.3310345229276
83,39,0.0125,588.3435345229276
71,0,0.1375,588.4810345229276
83,0,0.05,588.5310345229276
76,39,0.0125,588.5435345229276
76,0,0.1875,588.7310345229276
83,39,0.0125,588.7435345229277
83,0,0.1875,588.9310345229277
76,39,0.0125,588.9435345229277
76,0,0.1875,589.1310345229277
71,39,0.0125,589.1435345229278
71,0,0.1875,589.3310345229278
76,39,0.0125,589.3435345229278
76,0,0.1875,589.5310345229278
71,39,0.0125,589.5435345229279
52,0,0.0775,589.6210345229279
56,0,0,589.6210345229279
64,0,0,589.6210345229279
71,0,0.11,589.7310345229279
64,39,0.0125,589.7435345229279
71,39,0,589.7435345229279
52,39,0,589.7435345229279
62,39,0,589.7435345229279
64,0,0.1875,589.9310345229279
71,0,0.0125,589.943534522928
71,39,0,589.943534522928
64,39,0.2,590.143534522928
64,0,0.1875,590.331034522928
71,0,0.0125,590.343534522928
71,39,0,590.343534522928
76,39,0.2,590.5435345229281
76,0,0.1875,590.7310345229281
71,0,0.0125,590.7435345229281
71,39,0,590.7435345229281
71,0,0.1875,590.9310345229281
76,39,0.0125,590.9435345229282
73,39,0,590.9435345229282
76,0,0.1875,591.1310345229282
83,39,0.0125,591.1435345229282
83,0,0.1875,591.3310345229282
76,39,0.0125,591.3435345229283
73,0,0.1675,591.5110345229283
76,0,0.02,591.5310345229283
83,39,0.0125,591.5435345229283
71,39,0,591.5435345229283
83,0,0.1875,591.7310345229283
88,39,0.0125,591.7435345229284
88,0,0.1875,591.9310345229284
83,39,0.0125,591.9435345229284
52,0,0.0775,592.0210345229284
62,0,0,592.0210345229284
71,0,0.09,592.1110345229284
83,0,0.02,592.1310345229284
88,39,0.0125,592.1435345229285
52,39,0,592.1435345229285
61,39,0,592.1435345229285
69,39,0,592.1435345229285
88,0,0.1825,592.3260345229285
93,39,0.0125,592.3385345229285
93,0,0.1875,592.5260345229285
88,39,0.0125,592.5385345229286
88,0,0.1875,592.7260345229286
81,39,0.0125,592.7385345229286
81,0,0.1875,592.9260345229286
88,39,0.0125,592.9385345229286
88,0,0.1875,593.1260345229286
81,39,0.0125,593.1385345229287
81,0,0.1875,593.3260345229287
76,39,0.0125,593.3385345229287
76,0,0.1875,593.5260345229287
81,39,0.0125,593.5385345229288
81,0,0.1875,593.7260345229288
76,39,0.0125,593.7385345229288
76,0,0.1875,593.9260345229288
73,39,0.0125,593.9385345229289
73,0,0.1875,594.1260345229289
76,39,0.0125,594.1385345229289
76,0,0.1875,594.3260345229289
73,39,0.0125,594.338534522929
52,0,0.0775,594.416034522929
61,0,0,594.416034522929
69,0,0,594.416034522929
73,0,0.11,594.526034522929
64,39,0.0125,594.538534522929
69,39,0,594.538534522929
52,39,0,594.538534522929
59,39,0,594.538534522929
69,0,0.065,594.6035345229291
68,39,0.0075,594.6110345229291
68,0,0.065,594.6760345229292
66,39,0.0125,594.6885345229292
64,0,0.0375,594.7260345229292
68,39,0.0125,594.7385345229293
66,0,0.015,594.7535345229293
68,0,0.0075,594.7610345229293
68,39,0,594.7610345229293
64,39,0.1775,594.9385345229293
64,0,0.1875,595.1260345229293
68,0,0.0125,595.1385345229294
68,39,0,595.1385345229294
76,39,0.2,595.3385345229294
76,0,0.1875,595.5260345229294
68,0,0.0125,595.5385345229295
68,39,0,595.5385345229295
68,0,0.1875,595.7260345229295
76,39,0.0125,595.7385345229295
75,39,0,595.7385345229295
76,0,0.1875,595.9260345229295
80,39,0.0125,595.9385345229296
80,0,0.1875,596.1260345229296
76,39,0.0125,596.1385345229296
76,0,0.1875,596.3260345229296
80,39,0.0125,596.3385345229296
80,0,0.1875,596.5260345229296
88,39,0.0125,596.5385345229297
75,0,0.0525,596.5910345229297
76,39,0.0475,596.6385345229297
88,0,0.08750000000000001,596.7260345229297
80,39,0.0125,596.7385345229297
52,0,0.0775,596.8160345229297
59,0,0,596.8160345229297
76,0,0.105,596.9210345229297
80,0,0.005,596.9260345229297
88,39,0.0125,596.9385345229298
76,39,0,596.9385345229298
52,39,0,596.9385345229298
58,39,0,596.9385345229298
61,39,0,596.9385345229298
66,39,0,596.9385345229298
88,0,0.1825,597.1210345229298
97,39,0.0125,597.1335345229298
97,0,0.1875,597.3210345229298
88,39,0.0125,597.3335345229299
88,0,0.1875,597.5210345229299
85,39,0.0125,597.5335345229299
85,0,0.1875,597.7210345229299
90,39,0.0125,597.73353452293
90,0,0.1875,597.92103452293
85,39,0.0125,597.93353452293
85,0,0.1875,598.12103452293
78,39,0.0125,598.1335345229301
78,0,0.1875,598.3210345229301
88,39,0.0125,598.3335345229301
88,0,0.1875,598.5210345229301
78,39,0.0125,598.5335345229302
78,0,0.1875,598.7210345229302
76,0,0.0125,598.7335345229302
76,39,0,598.7335345229302
76,0,0.1925,598.9260345229302
85,39,0.0075,598.9335345229302
66,39,0.1,599.0335345229303
66,0,0,599.0335345229303
85,0,0.08750000000000001,599.1210345229302
76,39,0.0125,599.1335345229303
76,0,0.1875,599.3210345229303
73,39,0.0125,599.3335345229303
66,0,0,599.3335345229303
66,39,0,599.3335345229303
73,0,0.1875,599.5210345229303
78,39,0.0125,599.5335345229304
78,0,0.1875,599.7210345229304
73,39,0.0125,599.7335345229304
73,0,0.1875,599.9210345229304
66,0,0.0125,599.9335345229305
66,39,0,599.9335345229305
76,39,0.2,600.1335345229305
76,0,0.1875,600.3210345229305
66,0,0.0125,600.3335345229306
66,39,0,600.3335345229306
64,39,0.2,600.5335345229306
73,39,0,600.5335345229306
64,0,0.1875,600.7210345229306
73,0,0.0125,600.7335345229307
73,39,0,600.7335345229307
64,39,0.2,600.9335345229307
64,0,0.1875,601.1210345229307
61,39,0.0125,601.1335345229307
61,0,0,601.1335345229307
66,0,0.2,601.3335345229308
66,39,0,601.3335345229308
61,0,0.1575,601.4910345229308
52,0,0,601.4910345229308
58,0,0,601.4910345229308
66,0,0.03,601.5210345229308
61,39,0.0125,601.5335345229308
73,0,0.1375,601.6710345229309
61,0,0.05,601.7210345229308
60,39,0.0125,601.7335345229309
72,39,0,601.7335345229309
57,39,0,601.7335345229309
52,39,0,601.7335345229309
60,0,0.1825,601.9160345229309
63,39,0.0125,601.9285345229309
63,0,0.1875,602.1160345229309
66,39,0.0125,602.128534522931
66,0,0.1875,602.316034522931
69,39,0.0125,602.328534522931
69,0,0.1875,602.516034522931
72,0,0.0125,602.5285345229311
72,39,0,602.5285345229311
75,39,0.2,602.7285345229311
75,0,0.1875,602.9160345229311
78,39,0.0125,602.9285345229312
78,0,0.1875,603.1160345229312
81,39,0.0125,603.1285345229312
81,0,0.1875,603.3160345229312
84,39,0.0125,603.3285345229312
84,0,0.1875,603.5160345229312
87,39,0.0125,603.5285345229313
87,0,0.1875,603.7160345229313
90,39,0.0125,603.7285345229313
90,0,0.1875,603.9160345229313
96,39,0.0125,603.9285345229314
72,0,0.0775,604.0060345229314
57,0,0,604.0060345229314
96,0,0.11,604.1160345229314
95,39,0.0125,604.1285345229314
59,39,0,604.1285345229314
63,39,0.0625,604.1910345229314
66,39,0.0675,604.2585345229314
95,0,0.0575,604.3160345229314
69,39,0.01,604.3260345229314
83,39,0.0025,604.3285345229315
71,39,0.0625,604.3910345229315
83,0,0.125,604.5160345229315
81,39,0.0125,604.5285345229315
81,0,0.1875,604.7160345229315
78,39,0.0125,604.7285345229316
78,0,0.1875,604.9160345229316
75,39,0.0125,604.9285345229316
75,0,0.1875,605.1160345229316
71,39,0.0125,605.1285345229317
71,0,0,605.1285345229317
69,39,0,605.1285345229317
69,0,0,605.1285345229317
66,39,0.20833333333333331,605.336867856265
66,0,0,605.336867856265
63,39,0.20833333333333331,605.5452011895984
63,0,0,605.5452011895984
59,39,0,605.5452011895984
59,0,0,605.5452011895984
57,39,0.22222216666666667,605.7674233562651
52,0,0.17499995625,605.9424233125151
57,0,0.033333325,605.975756637515
54,39,0.013888885416666667,605.9896455229317
54,0,0.20833328125,606.1979788041817
63,0,0.00833333125,606.2063121354317
66,0,0,606.2063121354317
69,0,0,606.2063121354317
71,0,0,606.2063121354317
59,0,0.0027777770833333332,606.2090899125151
52,39,0,606.2090899125151
64,39,0,606.2090899125151
40,39,0,606.2090899125151
52,0,0.23397442916666666,606.4430643416817
56,39,0.016025645833333334,606.4590899875151
56,0,0.2403846875,606.699474675015
59,39,0.016025645833333334,606.7155003208484
40,0,0.21474365416666666,606.9302439750151
59,0,0.025641033333333334,606.9558850083484
71,39,0.016025645833333334,606.9719106541818
71,0,0.2403846875,607.2122953416817
64,0,0.016025645833333334,607.2283209875151
64,39,0,607.2283209875151
59,39,0.25641033333333335,607.4847313208484
59,0,0.2403846875,607.7251160083483
68,39,0,607.7251160083483
68,0,0.371710675,608.0968266833484
52,39,0.023026325,608.1198530083484
52,0,0.371710675,608.4915636833484
71,39,0.023026325,608.5145900083485
71,0,0.24671062500000002,608.7613006333485
64,0,0.016447375,608.7777480083485
64,39,0,608.7777480083485
59,39,0.263158,609.0409060083484
59,0,0.24671062500000002,609.2876166333484
52,39,0,609.2876166333484
40,39,0,609.2876166333484
52,0,0.26785734375,609.5554739770985
56,39,0.01785715625,609.5733311333485
56,0,0.26785734375,609.8411884770985
59,39,0.01785715625,609.8590456333485
40,0,0.23928589374999998,610.0983315270985
59,0,0.028571449999999998,610.1269029770984
71,39,0.01785715625,610.1447601333484
71,0,0.26785734375,610.4126174770985
64,0,0.01785715625,610.4304746333485
64,39,0,610.4304746333485
59,39,0.2857145,610.7161891333485
59,0,0.26785734375,610.9840464770986
68,39,0,610.9840464770986
68,0,0.4708333333333333,611.4548798104319
52,39,0.029166666666666667,611.4840464770986
52,0,0.4708333333333333,611.9548798104319
71,39,0.029166666666666667,611.9840464770986
71,0,0.3125,612.2965464770986
64,0,0.020833333333333332,612.3173798104319
64,39,0,612.3173798104319
59,39,0.3333333333333333,612.6507131437653
59,0,0.3125,612.9632131437653
52,39,0,612.9632131437653
40,39,0,612.9632131437653
52,0,0.3258926833333333,613.2891058270986
56,39,0.022321416666666666,613.3114272437653
56,0,0.33482125,613.6462484937653
59,39,0.022321416666666666,613.6685699104319
40,0,0.29910698333333335,613.9676768937652
59,0,0.03571426666666667,614.0033911604319
71,39,0.022321416666666666,614.0257125770985
71,0,0.33482125,614.3605338270985
64,0,0.022321416666666666,614.3828552437651
64,39,0,614.3828552437651
59,39,0.35714266666666666,614.7399979104317
59,0,0.33482125,615.0748191604317
68,39,0,615.0748191604317
68,0,0.5649995291666667,615.6398186895984
52,39,0.03499997083333334,615.6748186604318
52,0,0.5649995291666667,616.2398181895985
71,39,0.03499997083333334,616.2748181604319
71,0,0.37499968750000007,616.6498178479319
64,0,0.02499997916666667,616.6748178270985
64,39,0,616.6748178270985
59,39,0.3999996666666667,617.0748174937652
59,0,0.37499968750000007,617.4498171812652
68,39,0,617.4498171812652
68,0,0.5885416666666666,618.0383588479318
52,39,0.03645833333333333,618.0748171812652
52,0,0.5885416666666666,618.6633588479318
71,39,0.03645833333333333,618.6998171812652
71,0,0.390625,619.0904421812652
64,0,0.026041666666666664,619.1164838479318
64,39,0,619.1164838479318
59,39,0.41666666666666663,619.5331505145984
59,0,0.390625,619.9237755145984
68,39,0,619.9237755145984
68,0,0.6141309875,620.5379065020984
52,39,0.0380435125,620.5759500145984
52,0,0.6141309875,621.1900810020984
71,39,0.0380435125,621.2281245145984
71,0,0.40760906249999995,621.6357335770984
64,0,0.0271739375,621.6629075145985
64,39,0,621.6629075145985
59,39,0.434783,622.0976905145985
59,0,0.40760906249999995,622.5052995770985
68,39,0,622.5052995770985
68,0,1.2784078124999998,623.7837073895985
73,39,0.0738635625,623.8575709520985
73,0,1.2897714374999998,625.1473423895985
71,39,0.0738635625,625.2212059520986
52,39,1.363635,626.5848409520986
71,0,0.35795418749999997,626.9427951395986
64,0,0.09659081249999998,627.0393859520987
64,39,0,627.0393859520987
59,39,0.454545,627.4939309520987
52,0,0.38068143749999994,627.8746123895987
59,0,0.045454499999999995,627.9200668895987
68,39,0,627.9200668895987
68,0,1.4187514187499999,629.3388183083488
73,39,0.08125008125,629.4200683895988
73,0,1.4187514187499999,630.8388198083488
71,39,0.08125008125,630.9200698895988
52,39,0,630.9200698895988
71,0,0.39375039375,631.3138202833488
64,0,0.10625010624999999,631.4200703895988
64,39,0,631.4200703895988
59,39,0.5000005,631.9200708895988
52,0,0.41875041874999996,632.3388213083489
59,0,0.05000005,632.3888213583489
92,39,0.03125003125,632.4200713895989
40,39,0,632.4200713895989
64,0,1.0312510312499998,633.4513224208489
92,0,1.8000018,635.2513242208489
40,0,0,635.2513242208489
43,60,0,0.0
43,0,0.15896765624999998,0.15896765624999998
50,60,0.0013586979166666665,0.16032635416666666
50,0,0.1616850520833333,0.32201140624999997
55,60,0.0013586979166666665,0.3233701041666666
55,0,0.1616850520833333,0.48505515624999995
59,60,0.0013586979166666665,0.4864138541666666
59,0,0.1616850520833333,0.6480989062499999
62,60,0.0013586979166666665,0.6494576041666665
62,0,0.1616850520833333,0.8111426562499998
59,60,0.0013586979166666665,0.8125013541666665
59,0,0.1616850520833333,0.9741864062499997
55,60,0.0013586979166666665,0.9755451041666664
55,0,0.1616850520833333,1.1372301562499998
50,60,0.0013586979166666665,1.1385888541666664
50,0,0.1616850520833333,1.3002739062499997
43,60,0.0013586979166666665,1.3016326041666664
43,0,0.1616850520833333,1.4633176562499997
50,60,0.0013586979166666665,1.4646763541666663
50,0,0.1616850520833333,1.6263614062499996
43,60,0.0013586979166666665,1.6277201041666662
43,0,0.1616850520833333,1.7894051562499995
50,60,0.0013586979166666665,1.7907638541666662
50,0,0.15353286458333332,1.9442967187499995
43,60,0.009510885416666665,1.953807604166666
43,0,0.15896765624999998,2.112775260416666
50,60,0.0013586979166666665,2.114133958333333
50,0,0.1616850520833333,2.2758190104166665
55,60,0.0013586979166666665,2.2771777083333333
55,0,0.1616850520833333,2.438862760416667
59,60,0.0013586979166666665,2.4402214583333337
59,0,0.1616850520833333,2.601906510416667
62,60,0.0013586979166666665,2.603265208333334
62,0,0.1616850520833333,2.7649502604166676
59,60,0.0013586979166666665,2.7663089583333345
59,0,0.1616850520833333,2.927994010416668
55,60,0.0013586979166666665,2.929352708333335
55,0,0.1616850520833333,3.0910377604166683
50,60,0.0013586979166666665,3.092396458333335
50,0,0.1616850520833333,3.2540815104166687
43,60,0.0013586979166666665,3.2554402083333356
43,0,0.1616850520833333,3.417125260416669
50,60,0.0013586979166666665,3.418483958333336
50,0,0.1616850520833333,3.5801690104166695
43,60,0.0013586979166666665,3.5815277083333363
43,0,0.1616850520833333,3.74321276041667
50,60,0.0013586979166666665,3.7445714583333367
50,0,0.15353286458333332,3.89810432291667
43,60,0.009510885416666665,3.9076152083333366
43,0,0.15896765624999998,4.066582864583337
50,60,0.0013586979166666665,4.067941562500003
50,0,0.1616850520833333,4.229626614583337
55,60,0.0013586979166666665,4.230985312500003
55,0,0.1616850520833333,4.392670364583337
59,60,0.0013586979166666665,4.394029062500003
59,0,0.1616850520833333,4.555714114583337
62,60,0.0013586979166666665,4.557072812500003
62,0,0.1616850520833333,4.718757864583337
59,60,0.0013586979166666665,4.720116562500003
59,0,0.1616850520833333,4.8818016145833365
55,60,0.0013586979166666665,4.883160312500003
55,0,0.1616850520833333,5.044845364583336
50,60,0.0013586979166666665,5.046204062500003
50,0,0.1616850520833333,5.207889114583336
43,60,0.0013586979166666665,5.209247812500003
43,0,0.1616850520833333,5.370932864583336
50,60,0.0013586979166666665,5.372291562500003
50,0,0.1616850520833333,5.533976614583336
43,60,0.0013586979166666665,5.535335312500003
43,0,0.1616850520833333,5.697020364583336
50,60,0.0013586979166666665,5.698379062500003
50,0,0.15353286458333332,5.851911927083336
43,60,0.009510885416666665,5.8614228125000025
43,0,0.15896765624999998,6.020390468750002
50,60,0.0013586979166666665,6.021749166666669
50,0,0.1616850520833333,6.183434218750002
55,60,0.0013586979166666665,6.184792916666669
55,0,0.1616850520833333,6.346477968750002
59,60,0.0013586979166666665,6.347836666666669
59,0,0.1616850520833333,6.509521718750002
62,60,0.0013586979166666665,6.5108804166666685
62,0,0.1616850520833333,6.672565468750002
59,60,0.0013586979166666665,6.673924166666668
59,0,0.1616850520833333,6.835609218750002
55,60,0.0013586979166666665,6.836967916666668
55,0,0.1616850520833333,6.998652968750002
50,60,0.0013586979166666665,7.000011666666668
50,0,0.1616850520833333,7.161696718750002
43,60,0.0013586979166666665,7.163055416666668
43,0,0.1616850520833333,7.324740468750002
50,60,0.0013586979166666665,7.326099166666668
50,0,0.1616850520833333,7.487784218750002
43,60,0.0013586979166666665,7.489142916666668
43,0,0.1616850520833333,7.650827968750002
50,60,0.0013586979166666665,7.652186666666668
50,0,0.15353286458333332,7.805719531250001
83,60,0.009510885416666665,7.815230416666668
43,60,0,7.815230416666668
43,0,0.15896765624999998,7.974198072916668
50,60,0.0013586979166666665,7.975556770833334
50,0,0.1616850520833333,8.137241822916668
55,60,0.0013586979166666665,8.138600520833334
55,0,0.1616850520833333,8.300285572916668
59,60,0.0013586979166666665,8.301644270833334
59,0,0.1616850520833333,8.463329322916668
62,60,0.0013586979166666665,8.464688020833334
62,0,0.1616850520833333,8.626373072916667
59,60,0.0013586979166666665,8.627731770833334
83,0,0.1616850520833333,8.789416822916667
59,0,0,8.789416822916667
74,60,0.0013586979166666665,8.790775520833334
55,60,0,8.790775520833334
55,0,0.1616850520833333,8.952460572916667
50,60,0.0013586979166666665,8.953819270833334
50,0,0.1616850520833333,9.115504322916667
43,60,0.0013586979166666665,9.116863020833334
43,0,0.1616850520833333,9.278548072916667
50,60,0.0013586979166666665,9.279906770833334
74,0,0.1616850520833333,9.441591822916667
50,0,0,9.441591822916667
76,60,0.0013586979166666665,9.442950520833334
43,60,0,9.442950520833334
43,0,0.1616850520833333,9.604635572916667
50,60,0.0013586979166666665,9.605994270833333
76,0,0.14538067708333333,9.751374947916666
50,0,0.008152187499999998,9.759527135416667
78,60,0.009510885416666665,9.769038020833333
43,60,0,9.769038020833333
43,0,0.15896765624999998,9.928005677083334
50,60,0.0013586979166666665,9.929364375
50,0,0.1616850520833333,10.091049427083334
57,60,0.0013586979166666665,10.092408125
57,0,0.1616850520833333,10.254093177083334
60,60,0.0013586979166666665,10.255451875
60,0,0.1616850520833333,10.417136927083334
62,60,0.0013586979166666665,10.418495625
62,0,0.1616850520833333,10.580180677083334
60,60,0.0013586979166666665,10.581539375
60,0,0.1616850520833333,10.743224427083334
57,60,0.0013586979166666665,10.744583125
57,0,0.1616850520833333,10.906268177083334
50,60,0.0013586979166666665,10.907626875
50,0,0.1616850520833333,11.069311927083334
43,60,0.0013586979166666665,11.070670625
43,0,0.1616850520833333,11.232355677083333
50,60,0.0013586979166666665,11.233714375
78,0,0.08016317708333333,11.313877552083333
50,0,0.081521875,11.395399427083333
79,60,0.0013586979166666665,11.396758125
43,60,0,11.396758125
43,0,0.1616850520833333,11.558443177083333
50,60,0.0013586979166666665,11.559801875
50,0,0.15353286458333332,11.713334739583333
79,0,0.008152187499999998,11.721486927083333
81,60,0.0013586979166666665,11.722845625
43,60,0,11.722845625
43,0,0.15896765624999998,11.88181328125
50,60,0.0013586979166666665,11.883171979166667
50,0,0.1616850520833333,12.04485703125
54,60,0.0013586979166666665,12.046215729166667
54,0,0.1616850520833333,12.20790078125
60,60,0.0013586979166666665,12.209259479166667
81,0,0.1616850520833333,12.37094453125
60,0,0,12.37094453125
83,60,0.0013586979166666665,12.372303229166667
62,60,0,12.372303229166667
62,0,0.1616850520833333,12.53398828125
60,60,0.0013586979166666665,12.535346979166667
83,0,0.1616850520833333,12.69703203125
60,0,0,12.69703203125
84,60,0.0013586979166666665,12.698390729166666
54,60,0,12.698390729166666
54,0,0.1616850520833333,12.86007578125
50,60,0.0013586979166666665,12.861434479166666
50,0,0.1616850520833333,13.02311953125
43,60,0.0013586979166666665,13.024478229166666
43,0,0.1616850520833333,13.18616328125
50,60,0.0013586979166666665,13.187521979166666
84,0,0.1616850520833333,13.34920703125
50,0,0,13.34920703125
88,60,0.0013586979166666665,13.350565729166666
43,60,0,13.350565729166666
43,0,0.1616850520833333,13.51225078125
50,60,0.0013586979166666665,13.513609479166666
50,0,0.15353286458333332,13.66714234375
88,0,0.008152187499999998,13.67529453125
88,90,0.0013586979166666665,13.676653229166666
43,60,0,13.676653229166666
43,0,0.15896765624999998,13.835620885416667
50,60,0.0013586979166666665,13.836979583333333
50,0,0.1616850520833333,13.998664635416667
58,60,0.0013586979166666665,14.000023333333333
58,0,0.1616850520833333,14.161708385416667
61,60,0.0013586979166666665,14.163067083333333
61,0,0.1616850520833333,14.324752135416666
64,60,0.0013586979166666665,14.326110833333333
64,0,0.1616850520833333,14.487795885416666
61,60,0.0013586979166666665,14.489154583333333
61,0,0.1616850520833333,14.650839635416666
58,60,0.0013586979166666665,14.652198333333333
58,0,0.1616850520833333,14.813883385416666
50,60,0.0013586979166666665,14.815242083333333
50,0,0.1616850520833333,14.976927135416666
43,60,0.0013586979166666665,14.978285833333333
43,0,0.1616850520833333,15.139970885416666
50,60,0.0013586979166666665,15.141329583333333
50,0,0.1616850520833333,15.303014635416666
43,60,0.0013586979166666665,15.304373333333332
43,0,0.1616850520833333,15.466058385416666
50,60,0.0013586979166666665,15.467417083333332
50,0,0.15353286458333332,15.620949947916666
43,60,0.009510885416666665,15.630460833333332
43,0,0.15896765624999998,15.789428489583333
50,60,0.0013586979166666665,15.7907871875
50,0,0.1616850520833333,15.952472239583333
59,60,0.0013586979166666665,15.9538309375
59,0,0.1616850520833333,16.115515989583333
62,60,0.0013586979166666665,16.1168746875
88,0,0.12907630208333332,16.245950989583335
62,0,0.03260874999999999,16.278559739583336
86,60,0.0013586979166666665,16.279918437500005
67,60,0,16.279918437500005
67,0,0.1616850520833333,16.441603489583336
62,60,0.0013586979166666665,16.442962187500004
86,0,0.14538067708333333,16.58834286458334
62,0,0.016304374999999996,16.60464723958334
74,60,0.0013586979166666665,16.606005937500008
59,60,0,16.606005937500008
59,0,0.1616850520833333,16.76769098958334
50,60,0.0013586979166666665,16.769049687500008
50,0,0.1616850520833333,16.93073473958334
43,60,0.0013586979166666665,16.932093437500008
43,0,0.1616850520833333,17.09377848958334
50,60,0.0013586979166666665,17.095137187500008
74,0,0.12907630208333332,17.22421348958334
50,0,0.03260874999999999,17.256822239583343
76,60,0.0013586979166666665,17.25818093750001
43,60,0,17.25818093750001
43,0,0.1616850520833333,17.419865989583343
50,60,0.0013586979166666665,17.42122468750001
76,0,0.14538067708333333,17.566605364583346
50,0,0.008152187499999998,17.574757552083344
78,60,0.009510885416666665,17.58426843750001
43,60,0,17.58426843750001
43,0,0.15896765624999998,17.74323609375001
50,60,0.0013586979166666665,17.744594791666678
50,0,0.1616850520833333,17.90627984375001
57,60,0.0013586979166666665,17.907638541666678
57,0,0.1616850520833333,18.06932359375001
60,60,0.0013586979166666665,18.070682291666678
60,0,0.1616850520833333,18.23236734375001
62,60,0.0013586979166666665,18.233726041666678
62,0,0.1616850520833333,18.39541109375001
60,60,0.0013586979166666665,18.396769791666678
60,0,0.1616850520833333,18.55845484375001
57,60,0.0013586979166666665,18.559813541666678
57,0,0.1616850520833333,18.72149859375001
50,60,0.0013586979166666665,18.722857291666678
50,0,0.1616850520833333,18.88454234375001
43,60,0.0013586979166666665,18.885901041666678
43,0,0.1616850520833333,19.04758609375001
50,60,0.0013586979166666665,19.048944791666678
78,0,0.08016317708333333,19.12910796875001
50,0,0.081521875,19.21062984375001
79,60,0.0013586979166666665,19.211988541666678
43,60,0,19.211988541666678
43,0,0.1616850520833333,19.37367359375001
50,60,0.0013586979166666665,19.375032291666678
79,0,0.14538067708333333,19.520412968750012
50,0,0.008152187499999998,19.52856515625001
81,60,0.009510885416666665,19.538076041666677
43,60,0,19.538076041666677
43,0,0.15896765624999998,19.697043697916676
50,60,0.0013586979166666665,19.698402395833345
81,0,0.02038046875,19.718782864583346
83,60,0.012228281249999999,19.731011145833346
50,0,0.12907630208333332,19.86008744791668
54,60,0.0013586979166666665,19.861446145833348
83,0,0.05298921874999999,19.914435364583348
81,60,0.012228281249999999,19.926663645833347
54,0,0.09646755208333332,20.02313119791668
60,60,0.0013586979166666665,20.024489895833348
81,0,0.08559796874999999,20.11008786458335
80,60,0.012228281249999999,20.12231614583335
60,0,0.06385880208333332,20.186174947916683
62,60,0.0013586979166666665,20.18753364583335
80,0,0.11820671874999998,20.30574036458335
81,60,0.012228281249999999,20.31796864583335
62,0,0.03125005208333333,20.349218697916683
60,60,0.0013586979166666665,20.35057739583335
81,0,0.15081546875,20.50139286458335
60,0,0.010869583333333332,20.512262447916687
84,60,0.0013586979166666665,20.513621145833355
54,60,0,20.513621145833355
84,0,0.15353286458333332,20.667154010416688
54,0,0.008152187499999998,20.675306197916687
84,60,0.0013586979166666665,20.676664895833355
50,60,0,20.676664895833355
50,0,0.1616850520833333,20.838349947916686
43,60,0.0013586979166666665,20.839708645833355
43,0,0.1616850520833333,21.001393697916686
50,60,0.0013586979166666665,21.002752395833355
50,0,0.1616850520833333,21.164437447916686
43,60,0.0013586979166666665,21.165796145833355
84,0,0.12907630208333332,21.29487244791669
43,0,0.03260874999999999,21.32748119791669
83,60,0.0013586979166666665,21.328839895833358
50,60,0,21.328839895833358
83,0,0.15353286458333332,21.48237276041669
50,0,0,21.48237276041669
83,60,0.009510885416666665,21.491883645833358
43,60,0,21.491883645833358
83,0,0.05978270833333332,21.55166635416669
81,60,0.0013586979166666665,21.55302505208336
81,0,0.06250010416666665,21.615525156250026
79,60,0.002717395833333333,21.61824255208336
43,0,0.03260874999999999,21.65085130208336
50,60,0.0013586979166666665,21.65221000000003
50,0,0.1616850520833333,21.81389505208336
55,60,0.0013586979166666665,21.81525375000003
55,0,0.1616850520833333,21.97693880208336
59,60,0.0013586979166666665,21.97829750000003
79,0,0.13315239583333333,22.111449895833363
59,0,0.028532656249999996,22.139982552083364
62,60,0.0013586979166666665,22.141341250000032
62,0,0.1616850520833333,22.303026302083364
59,60,0.0013586979166666665,22.304385000000032
59,0,0.1616850520833333,22.466070052083364
55,60,0.0013586979166666665,22.467428750000032
55,0,0.1616850520833333,22.629113802083364
50,60,0.0013586979166666665,22.63047250000003
50,0,0.1616850520833333,22.792157552083363
43,60,0.0013586979166666665,22.79351625000003
43,0,0.1616850520833333,22.955201302083363
50,60,0.0013586979166666665,22.95656000000003
50,0,0.1616850520833333,23.118245052083363
43,60,0.0013586979166666665,23.11960375000003
43,0,0.1616850520833333,23.281288802083363
50,60,0.0013586979166666665,23.28264750000003
50,0,0.15353286458333332,23.436180364583365
83,60,0.009510885416666665,23.44569125000003
43,60,0,23.44569125000003
43,0,0.15896765624999998,23.60465890625003
50,60,0.0013586979166666665,23.6060176041667
50,0,0.1616850520833333,23.76770265625003
55,60,0.0013586979166666665,23.7690613541667
55,0,0.1616850520833333,23.93074640625003
59,60,0.0013586979166666665,23.9321051041667
83,0,0.12907630208333332,24.061181406250032
59,0,0.03260874999999999,24.093790156250034
62,60,0.0013586979166666665,24.095148854166702
62,0,0.1616850520833333,24.256833906250034
59,60,0.0013586979166666665,24.2581926041667
59,0,0.1616850520833333,24.419877656250033
74,60,0.0013586979166666665,24.4212363541667
55,60,0,24.4212363541667
55,0,0.1616850520833333,24.582921406250033
50,60,0.0013586979166666665,24.5842801041667
50,0,0.1616850520833333,24.745965156250033
43,60,0.0013586979166666665,24.7473238541667
43,0,0.1616850520833333,24.909008906250033
50,60,0.0013586979166666665,24.9103676041667
74,0,0.12907630208333332,25.039443906250035
50,0,0.03260874999999999,25.072052656250037
76,60,0.0013586979166666665,25.073411354166705
43,60,0,25.073411354166705
43,0,0.1616850520833333,25.235096406250037
50,60,0.0013586979166666665,25.236455104166705
76,0,0.14538067708333333,25.38183578125004
50,0,0.008152187499999998,25.389987968750038
78,60,0.009510885416666665,25.399498854166705
43,60,0,25.399498854166705
43,0,0.15896765624999998,25.558466510416704
50,60,0.0013586979166666665,25.559825208333372
50,0,0.1616850520833333,25.721510260416704
57,60,0.0013586979166666665,25.722868958333372
57,0,0.1616850520833333,25.884554010416704
60,60,0.0013586979166666665,25.88591270833337
60,0,0.1616850520833333,26.047597760416703
62,60,0.0013586979166666665,26.04895645833337
62,0,0.1616850520833333,26.210641510416703
60,60,0.0013586979166666665,26.21200020833337
60,0,0.1616850520833333,26.373685260416703
57,60,0.0013586979166666665,26.37504395833337
57,0,0.1616850520833333,26.536729010416703
50,60,0.0013586979166666665,26.53808770833337
50,0,0.1616850520833333,26.699772760416703
43,60,0.0013586979166666665,26.70113145833337
43,0,0.1616850520833333,26.862816510416703
50,60,0.0013586979166666665,26.86417520833337
78,0,0.08016317708333333,26.944338385416703
50,0,0.081521875,27.025860260416703
79,60,0.0013586979166666665,27.02721895833337
43,60,0,27.02721895833337
43,0,0.1616850520833333,27.188904010416703
50,60,0.0013586979166666665,27.19026270833337
79,0,0.14538067708333333,27.335643385416706
50,0,0.008152187499999998,27.343795572916704
81,60,0.009510885416666665,27.35330645833337
43,60,0,27.35330645833337
43,0,0.15896765624999998,27.51227411458337
50,60,0.0013586979166666665,27.51363281250004
50,0,0.1616850520833333,27.67531786458337
54,60,0.0013586979166666665,27.676676562500038
54,0,0.1616850520833333,27.83836161458337
60,60,0.0013586979166666665,27.839720312500038
81,0,0.12907630208333332,27.968796614583372
60,0,0.03260874999999999,28.001405364583373
83,60,0.0013586979166666665,28.00276406250004
62,60,0,28.00276406250004
62,0,0.1616850520833333,28.164449114583373
60,60,0.0013586979166666665,28.16580781250004
83,0,0.14538067708333333,28.311188489583376
60,0,0.016304374999999996,28.327492864583377
84,60,0.0013586979166666665,28.328851562500045
54,60,0,28.328851562500045
84,0,0.12228281249999998,28.451134375000045
86,60,0.008152187499999998,28.459286562500044
54,0,0.03125005208333333,28.490536614583377
50,60,0.0013586979166666665,28.491895312500045
86,0,0.08967406249999998,28.581569375000043
84,60,0.008152187499999998,28.589721562500042
50,0,0.06385880208333332,28.653580364583377
43,60,0.0013586979166666665,28.654939062500045
84,0,0.05706531249999999,28.712004375000046
83,60,0.008152187499999998,28.720156562500044
43,0,0.09646755208333332,28.816624114583377
50,60,0.0013586979166666665,28.817982812500045
83,0,0.024456562499999997,28.842439375000044
84,60,0.008152187499999998,28.850591562500043
84,0,0.12228281249999998,28.972874375000043
50,0,0.006793489583333333,28.979667864583377
90,60,0.0013586979166666665,28.981026562500045
43,60,0,28.981026562500045
90,0,0.15353286458333332,29.134559427083378
43,0,0.008152187499999998,29.142711614583376
50,60,0.0013586979166666665,29.144070312500045
88,60,0.081521875,29.225592187500045
50,0,0.07201098958333332,29.297603177083378
88,0,0.004076093749999999,29.30167927083338
88,90,0.005434791666666666,29.307114062500045
43,60,0,29.307114062500045
43,0,0.15896765624999998,29.466081718750043
50,60,0.0013586979166666665,29.46744041666671
50,0,0.1616850520833333,29.629125468750043
58,60,0.0013586979166666665,29.63048416666671
58,0,0.1616850520833333,29.792169218750043
61,60,0.0013586979166666665,29.79352791666671
61,0,0.1616850520833333,29.955212968750043
64,60,0.0013586979166666665,29.95657166666671
64,0,0.1616850520833333,30.118256718750043
61,60,0.0013586979166666665,30.11961541666671
61,0,0.1616850520833333,30.281300468750043
58,60,0.0013586979166666665,30.28265916666671
58,0,0.1616850520833333,30.444344218750043
50,60,0.0013586979166666665,30.44570291666671
50,0,0.1616850520833333,30.607387968750043
43,60,0.0013586979166666665,30.60874666666671
43,0,0.1616850520833333,30.770431718750043
50,60,0.0013586979166666665,30.77179041666671
50,0,0.1616850520833333,30.933475468750043
43,60,0.0013586979166666665,30.93483416666671
43,0,0.1616850520833333,31.096519218750043
50,60,0.0013586979166666665,31.09787791666671
50,0,0.15353286458333332,31.251410781250044
43,60,0.009510885416666665,31.26092166666671
43,0,0.15081546875,31.41173713541671
50,60,0.009510885416666665,31.421248020833378
50,0,0.15353286458333332,31.57478088541671
59,60,0.009510885416666665,31.584291770833378
88,0,0.1372284895833333,31.72152026041671
59,0,0.016304374999999996,31.73782463541671
86,60,0,31.73782463541671
62,60,0,31.73782463541671
86,0,0.31388881041666666,32.05171344583338
62,0,0,32.05171344583338
83,60,0.019444439583333334,32.07115788541671
67,60,0,32.07115788541671
83,0,0.08611108958333333,32.157268975000044
90,60,0.00833333125,32.165602306250044
90,0,0.08611108958333333,32.25171339583338
93,60,0.011111108333333333,32.26282450416671
93,0,0.08611108958333333,32.34893559375004
91,60,0.00833333125,32.35726892500004
67,0,0.027777770833333333,32.385046695833374
62,62,0.019444439583333334,32.404491135416706
91,0,0.03888887916666667,32.443380014583376
86,64,0.00833333125,32.451713345833376
86,0,0.08611108958333333,32.53782443541671
83,69,0.00833333125,32.54615776666671
83,0,0.08611108958333333,32.63226885625004
79,75,0.011111108333333333,32.643379964583374
62,0,0.07499998125,32.71837994583338
79,0,0.011111108333333333,32.72949105416671
74,80,0.00833333125,32.73782438541671
59,80,0,32.73782438541671
59,0,0.31388881041666666,33.05171319583337
50,80,0,33.05171319583337
74,0,0.14538067708333333,33.1970938729167
50,0,0.008152187499999998,33.205246060416705
43,80,0.009510885416666665,33.21475694583337
43,0,0.15353286458333332,33.368289810416705
50,80,0.009510885416666665,33.37780069583337
50,0,0.15353286458333332,33.531333560416705
43,80,0.009510885416666665,33.54084444583337
43,0,0.15353286458333332,33.694377310416705
76,80,0.009510885416666665,33.70388819583337
50,80,0,33.70388819583337
50,0,0.15353286458333332,33.857421060416705
76,0,0.008152187499999998,33.86557324791671
78,120,0.0013586979166666665,33.86693194583337
43,80,0,33.86693194583337
43,0,0.15896765624999998,34.02589960208337
50,80,0.0013586979166666665,34.027258300000035
50,0,0.1616850520833333,34.18894335208337
57,80,0.0013586979166666665,34.190302050000035
57,0,0.1616850520833333,34.35198710208337
60,80,0.0013586979166666665,34.353345800000035
60,0,0.1616850520833333,34.51503085208337
62,80,0.0013586979166666665,34.516389550000035
62,0,0.1616850520833333,34.67807460208337
60,80,0.0013586979166666665,34.679433300000035
60,0,0.1616850520833333,34.84111835208337
57,80,0.0013586979166666665,34.842477050000035
57,0,0.1616850520833333,35.00416210208337
50,80,0.0013586979166666665,35.005520800000035
50,0,0.1616850520833333,35.16720585208337
43,80,0.0013586979166666665,35.168564550000035
43,0,0.1616850520833333,35.33024960208337
50,80,0.0013586979166666665,35.331608300000035
78,0,0.12907630208333332,35.46068460208337
50,0,0.03260874999999999,35.49329335208337
79,80,0.0013586979166666665,35.494652050000035
43,80,0,35.494652050000035
43,0,0.1616850520833333,35.65633710208337
50,80,0.0013586979166666665,35.657695800000035
79,0,0.14538067708333333,35.803076477083366
50,0,0.008152187499999998,35.81122866458337
81,80,0.009510885416666665,35.820739550000035
43,80,0,35.820739550000035
81,0,0.05978270833333332,35.880522258333365
81,80,0.0013586979166666665,35.88188095625003
43,0,0.09782624999999999,35.979707206250026
50,80,0.0013586979166666665,35.98106590416669
81,0,0.02309786458333333,36.004163768750026
83,80,0.009510885416666665,36.01367465416669
50,0,0.12907630208333332,36.142750956250026
54,80,0.0013586979166666665,36.14410965416669
83,0,0.05298921874999999,36.19709887291669
81,80,0.012228281249999999,36.209327154166694
54,0,0.09646755208333332,36.305794706250026
60,80,0.0013586979166666665,36.30715340416669
81,0,0.08559796874999999,36.39275137291669
80,80,0.012228281249999999,36.404979654166695
60,0,0.06385880208333332,36.468838456250026
62,80,0.0013586979166666665,36.47019715416669
80,0,0.11820671874999998,36.58840387291669
81,80,0.012228281249999999,36.600632154166696
62,0,0.03125005208333333,36.63188220625003
60,80,0.0013586979166666665,36.6332409041667
81,0,0.15081546875,36.784056372916694
60,0,0.010869583333333332,36.794925956250026
81,80,0,36.794925956250026
54,80,0,36.794925956250026
81,0,0.0614751875,36.85640114375003
84,80,0.0020491729166666668,36.85845031666669
84,0,0.16803217916666668,37.026482495833356
54,0,0.012295037500000001,37.03877753333336
84,80,0.0020491729166666668,37.04082670625002
50,80,0,37.04082670625002
50,0,0.24385157708333335,37.284678283333356
43,80,0.0020491729166666668,37.28672745625002
84,0,0.21926150208333334,37.505988958333354
43,0,0.024590075000000003,37.53057903333335
84,120,0.0020491729166666668,37.53262820625002
50,80,0,37.53262820625002
50,0,0.24385157708333335,37.77647978333335
43,80,0.0020491729166666668,37.778528956250014
84,0,0.24385157708333335,38.02238053333335
43,0,0,38.02238053333335
83,80,0.0020491729166666668,38.02442970625001
50,80,0,38.02442970625001
83,0,0.23155653958333333,38.25598624583334
50,0,0,38.25598624583334
83,80,0.014344210416666668,38.27033045625001
43,80,0,38.27033045625001
83,0,0.05737684166666667,38.327707297916675
81,80,0.0020491729166666668,38.32975647083334
81,0,0.0614751875,38.39123165833334
79,80,0.0040983458333333335,38.395330004166674
43,0,0.11475368333333334,38.51008368750001
50,80,0.0020491729166666668,38.51213286041667
50,0,0.24385157708333335,38.755984437500004
55,80,0,38.755984437500004
55,0,0.16168480416666664,38.91766924166667
59,80,0.0013586958333333332,38.919027937500005
79,0,0.13179349583333333,39.05082143333334
59,0,0.029891308333333328,39.08071274166667
62,80,0.0013586958333333332,39.082071437500005
62,0,0.16168480416666664,39.243756241666674
59,80,0.0013586958333333332,39.245114937500006
59,0,0.16168480416666664,39.406799741666674
55,80,0.0013586958333333332,39.408158437500006
55,0,0.16168480416666664,39.569843241666675
50,80,0.0013586958333333332,39.57120193750001
50,0,0.16168480416666664,39.732886741666675
43,80,0.0013586958333333332,39.73424543750001
43,0,0.16168480416666664,39.895930241666676
50,80,0.0013586958333333332,39.89728893750001
50,0,0.16168480416666664,40.05897374166668
43,80,0.0013586958333333332,40.06033243750001
43,0,0.16168480416666664,40.22201724166668
50,80,0.0013586958333333332,40.22337593750001
50,0,0.15353262916666666,40.37690856666668
83,80,0.009510870833333332,40.38641943750001
40,80,0,40.38641943750001
40,0,0.1589674125,40.54538685000001
47,80,0.0013586958333333332,40.54674554583334
47,0,0.16168480416666664,40.70843035000001
52,80,0.0013586958333333332,40.70978904583334
52,0,0.16168480416666664,40.87147385000001
55,80,0.0013586958333333332,40.87283254583334
55,0,0.16168480416666664,41.03451735000001
59,80,0.0013586958333333332,41.03587604583334
59,0,0.16168480416666664,41.19756085000001
55,80,0.0013586958333333332,41.19891954583334
83,0,0.16168480416666664,41.36060435000001
55,0,0,41.36060435000001
76,80,0.0013586958333333332,41.36196304583334
52,80,0,41.36196304583334
52,0,0.16168480416666664,41.52364785000001
47,80,0.0013586958333333332,41.52500654583334
47,0,0.16168480416666664,41.68669135000001
40,80,0.0013586958333333332,41.68805004583334
40,0,0.16168480416666664,41.84973485000001
47,80,0.0013586958333333332,41.85109354583334
76,0,0.16168480416666664,42.01277835000001
47,0,0,42.01277835000001
78,80,0.0013586958333333332,42.014137045833344
40,80,0,42.014137045833344
40,0,0.16168480416666664,42.17582185000001
47,80,0.0013586958333333332,42.177180545833345
47,0,0.15353262916666666,42.330713175000014
78,0,0.008152175,42.33886535000001
79,80,0.0013586958333333332,42.340224045833345
40,80,0,42.340224045833345
40,0,0.1589674125,42.49919145833334
47,80,0.0013586958333333332,42.500550154166675
47,0,0.16168480416666664,42.66223495833334
52,80,0.0013586958333333332,42.663593654166675
52,0,0.16168480416666664,42.825278458333344
55,80,0.0013586958333333332,42.826637154166676
55,0,0.16168480416666664,42.988321958333344
59,80,0.0013586958333333332,42.989680654166676
59,0,0.16168480416666664,43.151365458333345
55,80,0.0013586958333333332,43.15272415416668
55,0,0.16168480416666664,43.314408958333345
52,80,0.0013586958333333332,43.31576765416668
52,0,0.16168480416666664,43.477452458333346
47,80,0.0013586958333333332,43.47881115416668
47,0,0.16168480416666664,43.64049595833335
40,80,0.0013586958333333332,43.64185465416668
40,0,0.16168480416666664,43.80353945833335
47,80,0.0013586958333333332,43.80489815416668
79,0,0.16168480416666664,43.96658295833335
47,0,0,43.96658295833335
81,80,0.0013586958333333332,43.96794165416668
40,80,0,43.96794165416668
40,0,0.16168480416666664,44.12962645833335
47,80,0.0013586958333333332,44.13098515416668
81,0,0.14538045416666664,44.27636560833335
47,0,0.008152175,44.28451778333335
83,80,0.009510870833333332,44.29402865416668
40,80,0,44.29402865416668
83,0,0.059782616666666656,44.35381127083335
85,80,0.0013586958333333332,44.35516996666668
85,0,0.06250000833333333,44.41766997500001
83,80,0.0027173916666666663,44.420387366666674
40,0,0.0326087,44.45299606666667
45,80,0.0013586958333333332,44.4543547625
45,0,0.16168480416666664,44.61603956666667
52,80,0.0013586958333333332,44.617398262500004
52,0,0.16168480416666664,44.77908306666667
55,80,0.0013586958333333332,44.780441762500004
83,0,0.1603261083333333,44.94076787083334
55,0,0.0013586958333333332,44.94212656666667
81,80,0.0013586958333333332,44.943485262500005
57,80,0,44.943485262500005
57,0,0.16168480416666664,45.10517006666667
55,80,0.0013586958333333332,45.106528762500005
81,0,0.16168480416666664,45.268213566666674
55,0,0,45.268213566666674
83,80,0.0013586958333333332,45.269572262500006
52,80,0,45.269572262500006
52,0,0.16168480416666664,45.431257066666674
45,80,0.0013586958333333332,45.432615762500006
45,0,0.16168480416666664,45.594300566666675
40,80,0.0013586958333333332,45.59565926250001
40,0,0.16168480416666664,45.757344066666676
45,80,0.0013586958333333332,45.75870276250001
83,0,0.16168480416666664,45.920387566666676
45,0,0,45.920387566666676
85,80,0.0013586958333333332,45.92174626250001
40,80,0,45.92174626250001
40,0,0.16168480416666664,46.08343106666668
45,80,0.0013586958333333332,46.08478976250001
85,0,0.14538045416666664,46.23017021666668
45,0,0.008152175,46.23832239166668
85,80,0.009510870833333332,46.24783326250001
38,80,0,46.24783326250001
38,0,0.1589674125,46.40680067500001
45,80,0.0013586958333333332,46.40815937083334
45,0,0.16168480416666664,46.56984417500001
50,80,0.0013586958333333332,46.57120287083334
50,0,0.16168480416666664,46.73288767500001
54,80,0.0013586958333333332,46.73424637083334
54,0,0.16168480416666664,46.89593117500001
57,80,0.0013586958333333332,46.89728987083334
57,0,0.16168480416666664,47.05897467500001
54,80,0.0013586958333333332,47.06033337083334
85,0,0.16168480416666664,47.22201817500001
54,0,0,47.22201817500001
86,80,0.0013586958333333332,47.22337687083334
50,80,0,47.22337687083334
50,0,0.16168480416666664,47.38506167500001
45,80,0.0013586958333333332,47.38642037083334
45,0,0.16168480416666664,47.54810517500001
38,80,0.0013586958333333332,47.54946387083334
38,0,0.16168480416666664,47.71114867500001
45,80,0.0013586958333333332,47.71250737083334
86,0,0.12907610416666665,47.84158347500001
45,0,0.0326087,47.874192175000005
38,80,0.0013586958333333332,47.87555087083334
38,0,0.16168480416666664,48.037235675000005
45,80,0.0013586958333333332,48.03859437083334
45,0,0.15353262916666666,48.192127000000006
81,80,0.009510870833333332,48.20163787083334
38,80,0,48.20163787083334
38,0,0.1589674125,48.360605283333335
45,80,0.0013586958333333332,48.36196397916667
45,0,0.16168480416666664,48.523648783333336
50,80,0.0013586958333333332,48.52500747916667
50,0,0.16168480416666664,48.686692283333336
53,80,0.0013586958333333332,48.68805097916667
53,0,0.16168480416666664,48.84973578333334
57,80,0.0013586958333333332,48.85109447916667
57,0,0.16168480416666664,49.01277928333334
53,80,0.0013586958333333332,49.01413797916667
81,0,0.16168480416666664,49.17582278333334
53,0,0,49.17582278333334
74,80,0.0013586958333333332,49.17718147916667
50,80,0,49.17718147916667
50,0,0.16168480416666664,49.33886628333334
45,80,0.0013586958333333332,49.34022497916667
45,0,0.16168480416666664,49.50190978333334
38,80,0.0013586958333333332,49.50326847916667
38,0,0.16168480416666664,49.66495328333334
45,80,0.0013586958333333332,49.66631197916667
74,0,0.16168480416666664,49.82799678333334
45,0,0,49.82799678333334
76,80,0.0013586958333333332,49.82935547916667
38,80,0,49.82935547916667
38,0,0.16168480416666664,49.99104028333334
45,80,0.0013586958333333332,49.99239897916667
45,0,0.15353262916666666,50.14593160833334
76,0,0.008152175,50.15408378333334
77,80,0.0013586958333333332,50.15544247916667
38,80,0,50.15544247916667
38,0,0.1589674125,50.31440989166667
45,80,0.0013586958333333332,50.3157685875
45,0,0.16168480416666664,50.47745339166667
50,80,0.0013586958333333332,50.4788120875
50,0,0.16168480416666664,50.64049689166667
53,80,0.0013586958333333332,50.641855587500004
53,0,0.16168480416666664,50.80354039166667
57,80,0.0013586958333333332,50.804899087500004
57,0,0.16168480416666664,50.96658389166667
53,80,0.0013586958333333332,50.967942587500005
53,0,0.16168480416666664,51.12962739166667
50,80,0.0013586958333333332,51.130986087500006
50,0,0.16168480416666664,51.292670891666674
45,80,0.0013586958333333332,51.294029587500006
45,0,0.16168480416666664,51.455714391666675
38,80,0.0013586958333333332,51.45707308750001
38,0,0.16168480416666664,51.618757891666675
45,80,0.0013586958333333332,51.62011658750001
77,0,0.16168480416666664,51.781801391666676
45,0,0,51.781801391666676
79,80,0.0013586958333333332,51.78316008750001
38,80,0,51.78316008750001
38,0,0.16168480416666664,51.944844891666676
45,80,0.0013586958333333332,51.94620358750001
79,0,0.14538045416666664,52.09158404166668
45,0,0.008152175,52.09973621666668
81,80,0.009510870833333332,52.10924708750001
38,80,0,52.10924708750001
81,0,0.059782616666666656,52.169029704166675
83,80,0.0013586958333333332,52.17038840000001
83,0,0.06250000833333333,52.23288840833334
81,80,0.0027173916666666663,52.2356058
38,0,0.0326087,52.2682145
43,80,0.0013586958333333332,52.26957319583333
43,0,0.16168480416666664,52.431258
50,80,0.0013586958333333332,52.43261669583333
50,0,0.16168480416666664,52.5943015
53,80,0.0013586958333333332,52.59566019583333
81,0,0.1603261083333333,52.75598630416667
53,0,0.0013586958333333332,52.757345
79,80,0.0013586958333333332,52.75870369583333
55,80,0,52.75870369583333
55,0,0.16168480416666664,52.9203885
53,80,0.0013586958333333332,52.92174719583333
79,0,0.16168480416666664,53.083432
53,0,0,53.083432
81,80,0.0013586958333333332,53.084790695833334
50,80,0,53.084790695833334
50,0,0.16168480416666664,53.2464755
43,80,0.0013586958333333332,53.247834195833335
43,0,0.16168480416666664,53.409519
38,80,0.0013586958333333332,53.410877695833335
38,0,0.16168480416666664,53.572562500000004
43,80,0.0013586958333333332,53.573921195833336
81,0,0.16168480416666664,53.735606000000004
43,0,0,53.735606000000004
83,80,0.0013586958333333332,53.736964695833336
38,80,0,53.736964695833336
38,0,0.16168480416666664,53.898649500000005
43,80,0.0013586958333333332,53.90000819583334
43,0,0.15353262916666666,54.053540825000006
83,0,0.008152175,54.061693000000005
83,80,0.0013586958333333332,54.06305169583334
36,80,0,54.06305169583334
36,0,0.1589674125,54.222019108333335
43,80,0.0013586958333333332,54.22337780416667
43,0,0.16168480416666664,54.385062608333335
48,80,0.0013586958333333332,54.38642130416667
48,0,0.16168480416666664,54.548106108333336
52,80,0.0013586958333333332,54.54946480416667
52,0,0.16168480416666664,54.711149608333336
55,80,0.0013586958333333332,54.71250830416667
55,0,0.16168480416666664,54.87419310833334
52,80,0.0013586958333333332,54.87555180416667
83,0,0.16168480416666664,55.03723660833334
52,0,0,55.03723660833334
84,80,0.0013586958333333332,55.03859530416667
48,80,0,55.03859530416667
48,0,0.16168480416666664,55.20028010833334
43,80,0.0013586958333333332,55.20163880416667
43,0,0.16168480416666664,55.36332360833334
36,80,0.0013586958333333332,55.36468230416667
36,0,0.16168480416666664,55.52636710833334
43,80,0.0013586958333333332,55.52772580416667
84,0,0.16168480416666664,55.68941060833334
43,0,0,55.68941060833334
83,80,0.0013586958333333332,55.69076930416667
36,80,0,55.69076930416667
36,0,0.16168480416666664,55.85245410833334
43,80,0.0013586958333333332,55.85381280416667
83,0,0.14538045416666664,55.99919325833334
43,0,0.008152175,56.00734543333334
82,80,0.009510870833333332,56.01685630416667
36,80,0,56.01685630416667
36,0,0.1589674125,56.17582371666667
42,80,0.0013586958333333332,56.1771824125
42,0,0.16168480416666664,56.33886721666667
48,80,0.0013586958333333332,56.3402259125
48,0,0.16168480416666664,56.50191071666667
52,80,0.0013586958333333332,56.5032694125
82,0,0.12907610416666665,56.63234551666667
52,0,0.0326087,56.664954216666665
76,80,0.0013586958333333332,56.6663129125
54,80,0,56.6663129125
54,0,0.16168480416666664,56.827997716666665
52,80,0.0013586958333333332,56.8293564125
76,0,0.14538045416666664,56.97473686666667
52,0,0.01630435,56.991041216666666
78,120,0.0013586958333333332,56.9923999125
48,80,0,56.9923999125
48,0,0.16168480416666664,57.15408471666667
42,80,0.0013586958333333332,57.1554434125
42,0,0.16168480416666664,57.31712821666667
36,80,0.0013586958333333332,57.3184869125
36,0,0.16168480416666664,57.48017171666667
42,80,0.0013586958333333332,57.4815304125
78,0,0.16168480416666664,57.64321521666667
42,0,0,57.64321521666667
76,80,0.0013586958333333332,57.6445739125
36,80,0,57.6445739125
36,0,0.16168480416666664,57.80625871666667
42,80,0.0013586958333333332,57.8076174125
76,0,0.14538045416666664,57.95299786666667
42,0,0.008152175,57.96115004166667
75,80,0.009510870833333332,57.9706609125
35,80,0,57.9706609125
35,0,0.1589674125,58.129628325
42,80,0.0013586958333333332,58.13098702083333
75,0,0.14538045416666664,58.276367475
42,0,0.01630435,58.292671825
47,80,0.0013586958333333332,58.29403052083333
47,0,0.16168480416666664,58.455715325
51,80,0.0013586958333333332,58.45707402083333
51,0,0.16168480416666664,58.618758825
83,80,0.0013586958333333332,58.62011752083333
54,80,0,58.62011752083333
54,0,0.16168480416666664,58.781802325
51,80,0.0013586958333333332,58.78316102083333
83,0,0.14538045416666664,58.928541475
51,0,0.01630435,58.944845825
83,96,0.0013586958333333332,58.946204520833334
47,96,0,58.946204520833334
83,0,0.06250000833333333,59.008704529166664
86,96,0.0013586958333333332,59.010063224999996
86,0,0.06250000833333333,59.07256323333333
84,96,0.0027173916666666663,59.07528062499999
47,0,0.0326087,59.10788932499999
42,96,0.0013586958333333332,59.10924802083332
42,0,0.16168480416666664,59.27093282499999
35,96,0.0013586958333333332,59.27229152083332
35,0,0.16168480416666664,59.43397632499999
42,96,0.0013586958333333332,59.43533502083332
84,0,0.13315219166666664,59.56848721249999
42,0,0.028532612499999995,59.59701982499999
83,96,0.0013586958333333332,59.59837852083332
35,96,0,59.59837852083332
35,0,0.16168480416666664,59.76006332499999
42,96,0.0013586958333333332,59.76142202083332
83,0,0.14538045416666664,59.90680247499999
42,0,0.008152175,59.91495464999999
82,96,0.009510870833333332,59.92446552083332
36,96,0,59.92446552083332
36,0,0.1589674125,60.08343293333332
42,96,0.0013586958333333332,60.08479162916665
82,0,0.14538045416666664,60.23017208333332
42,0,0.01630435,60.24647643333332
48,96,0.0013586958333333332,60.24783512916665
48,0,0.16168480416666664,60.40951993333332
52,96,0.0013586958333333332,60.41087862916665
52,0,0.16168480416666664,60.57256343333332
76,96,0.0013586958333333332,60.573922129166654
54,96,0,60.573922129166654
54,0,0.16168480416666664,60.73560693333332
52,96,0.0013586958333333332,60.736965629166654
76,0,0.14538045416666664,60.882346083333324
52,0,0.01630435,60.89865043333332
78,96,0.0013586958333333332,60.900009129166655
48,96,0,60.900009129166655
48,0,0.16168480416666664,61.06169393333332
42,96,0.0013586958333333332,61.063052629166656
42,0,0.16168480416666664,61.224737433333324
36,96,0.0013586958333333332,61.226096129166656
36,0,0.16168480416666664,61.387780933333325
42,96,0.0013586958333333332,61.38913962916666
78,0,0.12907610416666665,61.51821573333332
42,0,0.0326087,61.55082443333332
76,96,0.0013586958333333332,61.55218312916665
36,96,0,61.55218312916665
36,0,0.16168480416666664,61.71386793333332
42,96,0.0013586958333333332,61.71522662916665
76,0,0.14538045416666664,61.86060708333332
42,0,0.008152175,61.86875925833332
75,96,0.009510870833333332,61.87827012916665
35,96,0,61.87827012916665
35,0,0.1589674125,62.03723754166665
42,96,0.0013586958333333332,62.03859623749998
75,0,0.14538045416666664,62.18397669166665
42,0,0.01630435,62.20028104166665
47,96,0.0013586958333333332,62.20163973749998
47,0,0.16168480416666664,62.36332454166665
51,96,0.0013586958333333332,62.36468323749998
51,0,0.16168480416666664,62.52636804166665
83,96,0.0013586958333333332,62.52772673749998
54,96,0,62.52772673749998
54,0,0.16168480416666664,62.68941154166665
51,96,0.0013586958333333332,62.69077023749998
83,0,0.14538045416666664,62.83615069166665
51,0,0.01630435,62.85245504166665
83,96,0.0013586958333333332,62.85381373749998
47,96,0,62.85381373749998
83,0,0.06250000833333333,62.916313745833314
86,96,0.0013586958333333332,62.917672441666646
86,0,0.06250000833333333,62.980172449999976
84,96,0.0027173916666666663,62.98288984166664
47,0,0.0326087,63.01549854166664
42,96,0.0013586958333333332,63.01685723749997
42,0,0.16168480416666664,63.17854204166664
35,96,0.0013586958333333332,63.17990073749997
35,0,0.16168480416666664,63.34158554166664
42,96,0.0013586958333333332,63.34294423749997
84,0,0.13315219166666664,63.47609642916664
42,0,0.028532612499999995,63.50462904166664
83,96,0.0013586958333333332,63.50598773749997
35,96,0,63.50598773749997
35,0,0.16168480416666664,63.66767254166664
42,96,0.0013586958333333332,63.66903123749997
83,0,0.14538045416666664,63.81441169166664
42,0,0.008152175,63.82256386666664
87,96,0.009510870833333332,63.83207473749997
35,96,0,63.83207473749997
35,0,0.1589674125,63.99104214999997
42,96,0.0013586958333333332,63.9924008458333
42,0,0.16168480416666664,64.15408564999997
47,96,0.0013586958333333332,64.1554443458333
47,0,0.16168480416666664,64.31712914999997
51,96,0.0013586958333333332,64.3184878458333
51,0,0.16168480416666664,64.48017264999997
54,96,0.0013586958333333332,64.4815313458333
54,0,0.16168480416666664,64.64321614999997
51,96,0.0013586958333333332,64.6445748458333
51,0,0.16168480416666664,64.80625964999997
47,96,0.0013586958333333332,64.8076183458333
47,0,0.16168480416666664,64.96930314999997
54,96,0.0013586958333333332,64.9706618458333
54,0,0.16168480416666664,65.13234664999997
59,96,0.0013586958333333332,65.1337053458333
59,0,0.16168480416666664,65.29539014999997
63,96,0.0013586958333333332,65.2967488458333
63,0,0.16168480416666664,65.45843364999998
66,96,0.0013586958333333332,65.4597923458333
66,0,0.16168480416666664,65.62147714999998
63,96,0.0013586958333333332,65.62283584583331
63,0,0.16168480416666664,65.78452064999998
59,96,0.0013586958333333332,65.78587934583331
59,0,0.16168480416666664,65.94756414999998
66,96,0.0013586958333333332,65.94892284583331
66,0,0.16168480416666664,66.11060764999998
71,96,0.0013586958333333332,66.11196634583331
71,0,0.16168480416666664,66.27365114999998
75,96,0.0013586958333333332,66.27500984583331
75,0,0.16168480416666664,66.43669464999998
78,96,0.0013586958333333332,66.43805334583331
78,0,0.16168480416666664,66.59973814999998
75,96,0.0013586958333333332,66.60109684583331
87,0,0.014945654166666664,66.61604249999998
75,0,0.14673914999999998,66.76278164999998
71,96,0.0013586958333333332,66.76414034583331
71,0,0.16168480416666664,66.92582514999998
78,96,0.0013586958333333332,66.92718384583331
78,0,0.16168480416666664,67.08886864999998
83,96,0.0013586958333333332,67.09022734583331
83,0,0.16168480416666664,67.25191214999998
87,96,0.0013586958333333332,67.25327084583331
87,0,0.16168480416666664,67.41495564999998
95,96,0.0013586958333333332,67.41631434583331
90,96,0,67.41631434583331
95,0,0.15353262916666666,67.56984697499998
90,0,0.008152175,67.57799914999998
99,96,0.0013586958333333332,67.57935784583331
87,96,0,67.57935784583331
99,0,0.15353262916666666,67.73289047499998
87,0,0.008152175,67.74104264999998
90,96,0.0013586958333333332,67.74240134583331
83,96,0,67.74240134583331
90,0,0.15353262916666666,67.89593397499998
83,0,0.008152175,67.90408614999998
95,95,0.0013586958333333332,67.90544484583332
80,95,0,67.90544484583332
95,0,0.15353262916666666,68.05897747499998
80,0,0.008152175,68.06712964999998
87,94,0.0013586958333333332,68.06848834583332
78,94,0,68.06848834583332
87,0,0.15353262916666666,68.22202097499998
78,0,0.008152175,68.23017314999998
90,92,0.0013586958333333332,68.23153184583332
75,92,0,68.23153184583332
90,0,0.15353262916666666,68.38506447499998
75,0,0.008152175,68.39321664999999
83,91,0.0013586958333333332,68.39457534583332
71,91,0,68.39457534583332
83,0,0.15353262916666666,68.54810797499998
71,0,0.008152175,68.55626014999999
87,90,0.0013586958333333332,68.55761884583332
68,90,0,68.55761884583332
87,0,0.15353262916666666,68.71115147499998
68,0,0.008152175,68.71930364999999
78,88,0.0013586958333333332,68.72066234583332
66,88,0,68.72066234583332
78,0,0.15353262916666666,68.87419497499998
66,0,0.008152175,68.88234714999999
83,87,0.0013586958333333332,68.88370584583332
63,87,0,68.88370584583332
83,0,0.15353262916666666,69.03723847499998
63,0,0.008152175,69.04539064999999
75,86,0.0013586958333333332,69.04674934583332
59,86,0,69.04674934583332
75,0,0.15353262916666666,69.20028197499998
59,0,0.008152175,69.20843414999999
78,84,0.0013586958333333332,69.20979284583332
56,84,0,69.20979284583332
78,0,0.15353262916666666,69.36332547499998
56,0,0.008152175,69.37147764999999
71,83,0.0013586958333333332,69.37283634583332
54,83,0,69.37283634583332
71,0,0.15353262916666666,69.52636897499998
54,0,0.008152175,69.53452114999999
75,82,0.0013586958333333332,69.53587984583332
51,82,0,69.53587984583332
75,0,0.15353262916666666,69.68941247499998
51,0,0.008152175,69.69756464999999
66,80,0,69.69756464999999
47,80,0,69.69756464999999
66,0,0.19894426875,69.89650891874999
71,80,0.01232398125,69.9088329
71,0,0.19894426875,70.10777716874999
47,0,0.0105634125,70.11834058125
63,80,0.00176056875,70.12010115
35,80,0,70.12010115
63,0,0.19894426875,70.31904541875
75,80,0.01232398125,70.3313694
35,0,0.18838085625,70.51975025625
75,0,0.0105634125,70.53031366875001
66,80,0.01232398125,70.54263765000002
66,0,0.1971837,70.73982135000001
71,80,0.01232398125,70.75214533125002
71,0,0.19894426875,70.95108960000002
63,80,0.01232398125,70.96341358125002
63,0,0.19894426875,71.16235785000002
75,80,0.01232398125,71.17468183125003
75,0,0.19894426875,71.37362610000002
66,80,0,71.37362610000002
66,0,0.28250000000000003,71.65612610000002
71,80,0.0175,71.67362610000002
71,0,0.28250000000000003,71.95612610000002
62,80,0.0175,71.97362610000002
62,0,0.28250000000000003,72.25612610000002
74,80,0,72.25612610000002
74,0,1.1300004708333333,73.38612657083335
83,80,0,73.38612657083335
43,80,0,73.38612657083335
43,0,0.15896765624999998,73.54509422708335
50,80,0.0013586979166666665,73.54645292500003
50,0,0.1616850520833333,73.70813797708335
55,80,0.0013586979166666665,73.70949667500003
55,0,0.1616850520833333,73.87118172708335
59,80,0.0013586979166666665,73.87254042500003
59,0,0.1616850520833333,74.03422547708335
62,80,0.0013586979166666665,74.03558417500003
62,0,0.1616850520833333,74.19726922708335
59,80,0.0013586979166666665,74.19862792500003
83,0,0.1616850520833333,74.36031297708335
59,0,0,74.36031297708335
74,80,0.0013586979166666665,74.36167167500003
55,80,0,74.36167167500003
55,0,0.1616850520833333,74.52335672708335
50,80,0.0013586979166666665,74.52471542500002
50,0,0.1616850520833333,74.68640047708335
43,80,0.0013586979166666665,74.68775917500002
43,0,0.1616850520833333,74.84944422708335
50,80,0.0013586979166666665,74.85080292500002
74,0,0.1616850520833333,75.01248797708335
50,0,0,75.01248797708335
76,80,0.0013586979166666665,75.01384667500002
43,80,0,75.01384667500002
43,0,0.1616850520833333,75.17553172708335
50,80,0.0013586979166666665,75.17689042500002
76,0,0.14538067708333333,75.32227110208336
50,0,0.008152187499999998,75.33042328958336
78,80,0.009510885416666665,75.33993417500002
43,80,0,75.33993417500002
43,0,0.15896765624999998,75.49890183125002
50,80,0.0013586979166666665,75.5002605291667
50,0,0.1616850520833333,75.66194558125002
57,80,0.0013586979166666665,75.6633042791667
57,0,0.1616850520833333,75.82498933125002
60,80,0.0013586979166666665,75.8263480291667
60,0,0.1616850520833333,75.98803308125002
62,80,0.0013586979166666665,75.9893917791667
62,0,0.1616850520833333,76.15107683125002
60,80,0.0013586979166666665,76.1524355291667
60,0,0.1616850520833333,76.31412058125002
57,80,0.0013586979166666665,76.3154792791667
57,0,0.1616850520833333,76.47716433125002
50,80,0.0013586979166666665,76.4785230291667
50,0,0.1616850520833333,76.64020808125002
43,80,0.0013586979166666665,76.6415667791667
43,0,0.1616850520833333,76.80325183125002
50,80,0.0013586979166666665,76.8046105291667
78,0,0.08016317708333333,76.88477370625003
50,0,0.081521875,76.96629558125004
79,80,0.0013586979166666665,76.96765427916671
43,80,0,76.96765427916671
43,0,0.1616850520833333,77.12933933125004
50,80,0.0013586979166666665,77.13069802916671
79,0,0.14538067708333333,77.27607870625005
50,0,0.008152187499999998,77.28423089375005
81,80,0.009510885416666665,77.29374177916671
43,80,0,77.29374177916671
43,0,0.15896765624999998,77.45270943541671
50,80,0.0013586979166666665,77.45406813333338
50,0,0.1616850520833333,77.61575318541671
54,80,0.0013586979166666665,77.61711188333338
54,0,0.1616850520833333,77.77879693541671
60,80,0.0013586979166666665,77.78015563333338
81,0,0.12907630208333332,77.90923193541671
60,0,0.03260874999999999,77.94184068541671
83,80,0.0013586979166666665,77.94319938333338
62,80,0,77.94319938333338
62,0,0.1616850520833333,78.10488443541671
60,80,0.0013586979166666665,78.10624313333338
83,0,0.14538067708333333,78.25162381041672
60,0,0.016304374999999996,78.26792818541672
84,80,0.0013586979166666665,78.2692868833334
54,80,0,78.2692868833334
84,0,0.12228281249999998,78.3915696958334
86,80,0.008152187499999998,78.3997218833334
54,0,0.03125005208333333,78.43097193541674
50,80,0.0013586979166666665,78.43233063333341
86,0,0.08967406249999998,78.5220046958334
84,80,0.008152187499999998,78.5301568833334
50,0,0.06385880208333332,78.59401568541674
43,80,0.0013586979166666665,78.59537438333341
84,0,0.05706531249999999,78.65243969583341
83,80,0.008152187499999998,78.66059188333341
43,0,0.09646755208333332,78.75705943541675
50,80,0.0013586979166666665,78.75841813333342
83,0,0.024456562499999997,78.78287469583343
84,80,0.008152187499999998,78.79102688333343
84,0,0.12228281249999998,78.91330969583343
50,0,0.006793489583333333,78.92010318541676
90,80,0.0013586979166666665,78.92146188333344
43,80,0,78.92146188333344
90,0,0.15353286458333332,79.07499474791678
43,0,0.008152187499999998,79.08314693541678
50,80,0.0013586979166666665,79.08450563333345
88,80,0.081521875,79.16602750833346
50,0,0.07201098958333332,79.23803849791679
88,0,0.004076093749999999,79.24211459166679
88,80,0.005434791666666666,79.24754938333346
43,80,0,79.24754938333346
43,0,0.15896765624999998,79.40651703958346
50,80,0.0013586979166666665,79.40787573750013
50,0,0.1616850520833333,79.56956078958346
58,80,0.0013586979166666665,79.57091948750013
58,0,0.1616850520833333,79.73260453958346
61,80,0.0013586979166666665,79.73396323750013
61,0,0.1616850520833333,79.89564828958346
64,80,0.0013586979166666665,79.89700698750013
64,0,0.1616850520833333,80.05869203958346
61,80,0.0013586979166666665,80.06005073750013
61,0,0.1616850520833333,80.22173578958346
58,80,0.0013586979166666665,80.22309448750013
58,0,0.1616850520833333,80.38477953958346
50,80,0.0013586979166666665,80.38613823750013
50,0,0.1616850520833333,80.54782328958346
43,80,0.0013586979166666665,80.54918198750013
43,0,0.1616850520833333,80.71086703958346
50,80,0.0013586979166666665,80.71222573750013
50,0,0.1616850520833333,80.87391078958346
43,80,0.0013586979166666665,80.87526948750013
43,0,0.1616850520833333,81.03695453958346
50,80,0.0013586979166666665,81.03831323750013
50,0,0.15353286458333332,81.19184610208347
43,80,0.009510885416666665,81.20135698750013
43,0,0.15896765624999998,81.36032464375013
50,80,0.0013586979166666665,81.3616833416668
88,0,0.04755442708333333,81.40923776875013
50,0,0.11413062499999999,81.52336839375013
88,49,0,81.52336839375013
59,49,0,81.52336839375013
88,0,0,81.52336839375013
85,49,0.0020833333333333333,81.52545172708346
85,0,0,81.52545172708346
88,49,0,81.52545172708346
59,0,0,81.52545172708346
62,52,0.0020833333333333333,81.5275350604168
88,0,0.020833333333333332,81.54836839375012
86,53,0.0020833333333333333,81.55045172708346
86,0,0.08958333333333333,81.64003506041679
95,57,0.0020833333333333333,81.64211839375012
95,0,0.08958333333333333,81.73170172708346
90,62,0,81.73170172708346
62,0,0.04375,81.77545172708346
67,64,0.0020833333333333333,81.7775350604168
90,0,0.04375,81.8212850604168
93,66,0.0020833333333333333,81.82336839375013
93,0,0.08958333333333333,81.91295172708347
91,71,0,81.91295172708347
91,0,0.08958333333333333,82.0025350604168
86,75,0.0020833333333333333,82.00461839375014
67,0,0.020833333333333332,82.02545172708346
62,76,0.0020833333333333333,82.0275350604168
86,0,0.06666666666666667,82.09420172708346
83,80,0.0020833333333333333,82.09628506041679
83,0,0.08958333333333333,82.18586839375013
79,80,0,82.18586839375013
79,0,0.08958333333333333,82.27545172708346
62,0,0,82.27545172708346
74,80,0,82.27545172708346
59,80,0,82.27545172708346
59,0,0.1616850520833333,82.43713677916679
50,80,0.0013586979166666665,82.43849547708346
74,0,0.14538067708333333,82.5838761541668
50,0,0.016304374999999996,82.6001805291668
43,80,0.0013586979166666665,82.60153922708348
43,0,0.1616850520833333,82.7632242791668
50,80,0.0013586979166666665,82.76458297708348
50,0,0.1616850520833333,82.9262680291668
76,80,0.0013586979166666665,82.92762672708348
43,80,0,82.92762672708348
43,0,0.1616850520833333,83.0893117791668
50,80,0.0013586979166666665,83.09067047708348
76,0,0.14538067708333333,83.23605115416682
50,0,0.008152187499999998,83.24420334166682
78,80,0.009510885416666665,83.25371422708348
43,80,0,83.25371422708348
43,0,0.15896765624999998,83.41268188333348
50,80,0.0013586979166666665,83.41404058125015
50,0,0.1616850520833333,83.57572563333348
57,80,0.0013586979166666665,83.57708433125015
57,0,0.1616850520833333,83.73876938333348
60,80,0.0013586979166666665,83.74012808125015
60,0,0.1616850520833333,83.90181313333348
62,80,0.0013586979166666665,83.90317183125015
62,0,0.1616850520833333,84.06485688333348
60,80,0.0013586979166666665,84.06621558125015
60,0,0.1616850520833333,84.22790063333348
57,80,0.0013586979166666665,84.22925933125015
57,0,0.1616850520833333,84.39094438333348
50,80,0.0013586979166666665,84.39230308125015
50,0,0.1616850520833333,84.55398813333348
43,80,0.0013586979166666665,84.55534683125015
43,0,0.1616850520833333,84.71703188333348
50,80,0.0013586979166666665,84.71839058125015
78,0,0.08016317708333333,84.79855375833348
50,0,0.081521875,84.88007563333349
79,80,0.0013586979166666665,84.88143433125016
43,80,0,84.88143433125016
43,0,0.1616850520833333,85.04311938333349
50,80,0.0013586979166666665,85.04447808125016
79,0,0.14538067708333333,85.1898587583335
50,0,0.008152187499999998,85.1980109458335
81,80,0.009510885416666665,85.20752183125016
43,80,0,85.20752183125016
43,0,0.15896765624999998,85.36648948750016
50,80,0.0013586979166666665,85.36784818541683
50,0,0.1616850520833333,85.52953323750016
54,80,0.0013586979166666665,85.53089193541683
54,0,0.1616850520833333,85.69257698750016
60,80,0.0013586979166666665,85.69393568541683
81,0,0.12907630208333332,85.82301198750017
60,0,0.03260874999999999,85.85562073750016
81,80,0,85.85562073750016
62,80,0,85.85562073750016
81,0,0.0825,85.93812073750016
83,80,0.0025,85.94062073750015
83,0,0.0825,86.02312073750015
80,80,0.005,86.02812073750015
80,0,0.0825,86.11062073750014
81,80,0.0025,86.11312073750014
62,0,0.04,86.15312073750015
60,80,0.0025,86.15562073750014
81,0,0.04,86.19562073750015
75,80,0.0025,86.19812073750015
75,0,0.0825,86.28062073750014
74,80,0.0025,86.28312073750014
74,0,0.0825,86.36562073750014
81,80,0.005,86.37062073750013
81,0,0.0825,86.45312073750013
60,0,0,86.45312073750013
84,80,0,86.45312073750013
54,80,0,86.45312073750013
54,0,0.1616850520833333,86.61480578958346
50,80,0.0013586979166666665,86.61616448750013
84,0,0.14538067708333333,86.76154516458347
50,0,0.016304374999999996,86.77784953958347
84,120,0.0013586979166666665,86.77920823750014
43,80,0,86.77920823750014
43,0,0.1616850520833333,86.94089328958347
50,80,0.0013586979166666665,86.94225198750014
50,0,0.1616850520833333,87.10393703958347
43,80,0.0013586979166666665,87.10529573750014
84,0,0.1616850520833333,87.26698078958347
43,0,0,87.26698078958347
83,80,0.0013586979166666665,87.26833948750014
50,80,0,87.26833948750014
83,0,0.15353286458333332,87.42187235208348
50,0,0,87.42187235208348
83,80,0.009510885416666665,87.43138323750014
43,80,0,87.43138323750014
43,0,0.15896765624999998,87.59035089375014
50,80,0.0013586979166666665,87.59170959166681
83,0,0.1616850520833333,87.75339464375014
50,0,0,87.75339464375014
79,80,0.0013586979166666665,87.75475334166681
55,80,0,87.75475334166681
55,0,0.1616850520833333,87.91643839375014
59,80,0.0013586979166666665,87.91779709166681
79,0,0.14538067708333333,88.06317776875015
59,0,0.016304374999999996,88.07948214375016
62,80,0.0013586979166666665,88.08084084166683
62,0,0.1616850520833333,88.24252589375016
59,80,0.0013586979166666665,88.24388459166683
59,0,0.1616850520833333,88.40556964375016
55,80,0.0013586979166666665,88.40692834166683
55,0,0.1616850520833333,88.56861339375016
50,80,0.0013586979166666665,88.56997209166683
50,0,0.1616850520833333,88.73165714375016
43,80,0.0013586979166666665,88.73301584166683
43,0,0.1616850520833333,88.89470089375016
50,80,0.0013586979166666665,88.89605959166683
50,0,0.1616850520833333,89.05774464375015
43,80,0.0013586979166666665,89.05910334166683
43,0,0.1616850520833333,89.22078839375015
50,80,0.0013586979166666665,89.22214709166683
50,0,0.15353286458333332,89.37567995625017
83,80,0.009510885416666665,89.38519084166683
43,80,0,89.38519084166683
43,0,0.15896765624999998,89.54415849791683
50,80,0.0013586979166666665,89.5455171958335
50,0,0.1616850520833333,89.70720224791683
55,80,0.0013586979166666665,89.7085609458335
55,0,0.1616850520833333,89.87024599791683
59,80,0.0013586979166666665,89.8716046958335
59,0,0.1616850520833333,90.03328974791683
62,80,0.0013586979166666665,90.0346484458335
62,0,0.1616850520833333,90.19633349791683
59,80,0.0013586979166666665,90.1976921958335
83,0,0.11277192708333332,90.31046412291683
59,0,0.048913124999999995,90.35937724791683
74,80,0.0013586979166666665,90.3607359458335
74,0,0,90.3607359458335
74,80,0,90.3607359458335
55,80,0,90.3607359458335
55,0,0.1616850520833333,90.52242099791683
50,80,0.0013586979166666665,90.5237796958335
50,0,0.1616850520833333,90.68546474791682
72,80,0.0013586979166666665,90.6868234458335
43,80,0,90.6868234458335
72,0,0.08016317708333333,90.76698662291683
43,0,0.081521875,90.84850849791684
71,80,0.0013586979166666665,90.84986719583351
50,80,0,90.84986719583351
71,0,0.08016317708333333,90.93003037291685
74,0,0.048913124999999995,90.97894349791684
50,0,0.03260874999999999,91.01155224791684
69,80,0.0013586979166666665,91.01291094583351
76,80,0,91.01291094583351
43,80,0,91.01291094583351
69,0,0.08016317708333333,91.09307412291685
43,0,0.081521875,91.17459599791685
67,80,0.0013586979166666665,91.17595469583352
50,80,0,91.17595469583352
67,0,0.08016317708333333,91.25611787291686
50,0,0.07336968749999999,91.32948756041687
76,0,0.008152187499999998,91.33763974791687
78,80,0.0013586979166666665,91.33899844583354
66,80,0,91.33899844583354
43,80,0,91.33899844583354
43,0,0.15896765624999998,91.49796610208354
50,80,0.0013586979166666665,91.49932480000021
50,0,0.1616850520833333,91.66100985208354
57,80,0.0013586979166666665,91.66236855000021
57,0,0.1616850520833333,91.82405360208354
60,80,0.0013586979166666665,91.82541230000021
60,0,0.1616850520833333,91.98709735208354
62,80,0.0013586979166666665,91.98845605000021
62,0,0.1616850520833333,92.15014110208354
60,80,0.0013586979166666665,92.15149980000021
60,0,0.1616850520833333,92.31318485208354
57,80,0.0013586979166666665,92.31454355000021
57,0,0.1616850520833333,92.47622860208354
50,80,0.0013586979166666665,92.47758730000021
66,0,0.09646755208333332,92.57405485208355
50,0,0.06521749999999998,92.63927235208355
76,80,0.0013586979166666665,92.64063105000022
43,80,0,92.64063105000022
76,0,0.08016317708333333,92.72079422708356
43,0,0.081521875,92.80231610208357
74,80,0.0013586979166666665,92.80367480000024
50,80,0,92.80367480000024
78,0,0.08016317708333333,92.88383797708357
74,0,0,92.88383797708357
50,0,0.081521875,92.96535985208358
79,80,0.0013586979166666665,92.96671855000025
72,80,0,92.96671855000025
43,80,0,92.96671855000025
72,0,0.08016317708333333,93.04688172708359
43,0,0.081521875,93.1284036020836
71,80,0.0013586979166666665,93.12976230000027
50,80,0,93.12976230000027
71,0,0.08016317708333333,93.2099254770836
50,0,0.07336968749999999,93.2832951645836
79,0,0.008152187499999998,93.29144735208361
81,80,0.0013586979166666665,93.29280605000028
69,80,0,93.29280605000028
43,80,0,93.29280605000028
43,0,0.15896765624999998,93.45177370625028
50,80,0.0013586979166666665,93.45313240416695
50,0,0.1616850520833333,93.61481745625028
55,80,0.0013586979166666665,93.61617615416695
55,0,0.1616850520833333,93.77786120625028
59,80,0.0013586979166666665,93.77921990416695
81,0,0.12907630208333332,93.90829620625028
69,0,0,93.90829620625028
59,0,0.03260874999999999,93.94090495625028
83,80,0.0013586979166666665,93.94226365416695
62,80,0,93.94226365416695
62,0,0.1616850520833333,94.10394870625028
59,80,0.0013586979166666665,94.10530740416695
83,0,0.14538067708333333,94.25068808125029
59,0,0.016304374999999996,94.26699245625029
84,80,0.0013586979166666665,94.26835115416696
55,80,0,94.26835115416696
55,0,0.1616850520833333,94.43003620625029
50,80,0.0013586979166666665,94.43139490416696
50,0,0.1616850520833333,94.59307995625029
81,80,0.0013586979166666665,94.59443865416696
43,80,0,94.59443865416696
81,0,0.1616850520833333,94.75612370625029
43,0,0,94.75612370625029
79,80,0.0013586979166666665,94.75748240416696
50,80,0,94.75748240416696
84,0,0.12907630208333332,94.8865587062503
79,0,0.03260874999999999,94.91916745625029
50,0,0,94.91916745625029
86,80,0.0013586979166666665,94.92052615416696
78,80,0,94.92052615416696
43,80,0,94.92052615416696
86,0,0.1616850520833333,95.08221120625029
78,0,0,95.08221120625029
43,0,0,95.08221120625029
88,80,0.0013586979166666665,95.08356990416696
76,80,0,95.08356990416696
50,80,0,95.08356990416696
88,0,0.15353286458333332,95.2371027687503
76,0,0,95.2371027687503
50,0,0,95.2371027687503
73,120,0.009510885416666665,95.24661365416696
73,0,0,95.24661365416696
73,120,0,95.24661365416696
43,80,0,95.24661365416696
43,0,0.15896765624999998,95.40558131041696
50,80,0.0013586979166666665,95.40694000833363
79,120,0.033967447916666664,95.4409074562503
50,0,0.12771760416666664,95.56862506041696
58,80,0.0013586979166666665,95.56998375833363
88,120,0.06793489583333333,95.63791865416697
58,0,0.09375015624999998,95.73166881041696
61,80,0.0013586979166666665,95.73302750833363
61,0,0.1616850520833333,95.89471256041696
64,80,0.0013586979166666665,95.89607125833363
64,0,0.1616850520833333,96.05775631041696
61,80,0.0013586979166666665,96.05911500833363
61,0,0.1616850520833333,96.22080006041696
58,80,0.0013586979166666665,96.22215875833363
58,0,0.1616850520833333,96.38384381041696
50,80,0.0013586979166666665,96.38520250833363
50,0,0.1616850520833333,96.54688756041696
43,80,0.0013586979166666665,96.54824625833363
43,0,0.1616850520833333,96.70993131041696
50,80,0.0013586979166666665,96.71129000833363
50,0,0.1616850520833333,96.87297506041696
43,80,0.0013586979166666665,96.87433375833363
43,0,0.1616850520833333,97.03601881041696
50,80,0.0013586979166666665,97.03737750833363
50,0,0.15353286458333332,97.19091037291697
79,0,0.006793489583333333,97.1977038625003
88,0,0,97.1977038625003
73,0,0.0013586979166666665,97.19906256041698
74,80,0,97.19906256041698
43,80,0,97.19906256041698
74,0,0.07812496875,97.27718752916698
79,80,0.0017361104166666666,97.27892363958365
79,0,0.08159718958333333,97.36052082916699
88,80,0.0017361104166666666,97.36225693958366
43,0,0.039930539583333334,97.402187479167
50,80,0.0017361104166666666,97.40392358958367
88,0,0.039930539583333334,97.44385412916701
85,80,0.0017361104166666666,97.44559023958368
85,0,0.08159718958333333,97.52718742916701
86,80,0.0017361104166666666,97.52892353958369
86,0,0.08159718958333333,97.61052072916702
50,0,0,97.61052072916702
95,80,0.0017361104166666666,97.6122568395837
59,80,0,97.6122568395837
95,0,0.08159718958333333,97.69385402916703
90,80,0.0017361104166666666,97.6955901395837
90,0,0.08159718958333333,97.77718732916703
93,80,0.0017361104166666666,97.7789234395837
59,0,0.039930539583333334,97.81885397916705
62,80,0.0017361104166666666,97.82059008958372
93,0,0.039930539583333334,97.86052062916706
91,80,0.0017361104166666666,97.86225673958373
91,0,0.08159718958333333,97.94385392916706
87,80,0.0017361104166666666,97.94559003958373
87,0,0.08159718958333333,98.02718722916707
62,0,0,98.02718722916707
90,80,0.0017361104166666666,98.02892333958374
67,80,0,98.02892333958374
90,0,0.08159718958333333,98.11052052916708
88,80,0.0017361104166666666,98.11225663958375
88,0,0.08159718958333333,98.19385382916708
86,80,0.0017361104166666666,98.19558993958375
67,0,0.039930539583333334,98.23552047916709
62,80,0.0017361104166666666,98.23725658958377
86,0,0.039930539583333334,98.2771871291671
83,80,0.0017361104166666666,98.27892323958378
83,0,0.08159718958333333,98.36052042916711
79,80,0.0017361104166666666,98.36225653958378
79,0,0.08159718958333333,98.44385372916712
62,0,0,98.44385372916712
74,80,0,98.44385372916712
74,0,0,98.44385372916712
74,80,0,98.44385372916712
59,80,0,98.44385372916712
59,0,0.1616850520833333,98.60553878125044
50,80,0.0013586979166666665,98.60689747916712
74,0,0.14538067708333333,98.75227815625045
50,0,0.016304374999999996,98.76858253125046
72,80,0.0013586979166666665,98.76994122916713
43,80,0,98.76994122916713
72,0,0.08016317708333333,98.85010440625047
43,0,0.081521875,98.93162628125047
71,80,0.0013586979166666665,98.93298497916714
50,80,0,98.93298497916714
71,0,0.08016317708333333,99.01314815625048
50,0,0.081521875,99.09467003125049
69,80,0.0013586979166666665,99.09602872916716
43,80,0,99.09602872916716
69,0,0.08016317708333333,99.1761919062505
43,0,0.081521875,99.2577137812505
76,80,0.0013586979166666665,99.25907247916717
67,80,0,99.25907247916717
50,80,0,99.25907247916717
67,0,0.08016317708333333,99.33923565625051
76,0,0.07336968749999999,99.41260534375051
50,0,0,99.41260534375051
78,80,0.009510885416666665,99.42211622916717
66,80,0,99.42211622916717
43,80,0,99.42211622916717
43,0,0.15896765624999998,99.58108388541717
50,80,0.0013586979166666665,99.58244258333384
50,0,0.1616850520833333,99.74412763541717
57,80,0.0013586979166666665,99.74548633333384
57,0,0.1616850520833333,99.90717138541717
60,80,0.0013586979166666665,99.90853008333384
60,0,0.1616850520833333,100.07021513541717
62,80,0.0013586979166666665,100.07157383333384
62,0,0.1616850520833333,100.23325888541717
60,80,0.0013586979166666665,100.23461758333384
60,0,0.1616850520833333,100.39630263541717
57,80,0.0013586979166666665,100.39766133333384
57,0,0.1616850520833333,100.55934638541717
50,80,0.0013586979166666665,100.56070508333384
66,0,0.09646755208333332,100.65717263541718
50,0,0.06521749999999998,100.72239013541719
76,80,0.0013586979166666665,100.72374883333386
43,80,0,100.72374883333386
76,0,0.15353286458333332,100.8772816979172
43,0,0.008152187499999998,100.8854338854172
74,80,0.0013586979166666665,100.88679258333387
50,80,0,100.88679258333387
78,0,0.08016317708333333,100.9669557604172
74,0,0.07336968749999999,101.04032544791721
50,0,0.008152187499999998,101.04847763541721
78,80,0.0013586979166666665,101.04983633333389
72,80,0,101.04983633333389
43,80,0,101.04983633333389
78,0,0.15353286458333332,101.20336919791723
72,0,0,101.20336919791723
43,0,0.008152187499999998,101.21152138541723
79,80,0.0013586979166666665,101.2128800833339
71,80,0,101.2128800833339
50,80,0,101.2128800833339
79,0,0.15353286458333332,101.36641294791724
71,0,0,101.36641294791724
50,0,0,101.36641294791724
81,80,0.009510885416666665,101.3759238333339
69,80,0,101.3759238333339
43,80,0,101.3759238333339
43,0,0.15896765624999998,101.5348914895839
50,80,0.0013586979166666665,101.53625018750057
69,0,0.14538067708333333,101.68163086458391
50,0,0.016304374999999996,101.69793523958391
79,80,0.0013586979166666665,101.69929393750058
54,80,0,101.69929393750058
79,0,0.15353286458333332,101.85282680208392
54,0,0.008152187499999998,101.86097898958393
78,80,0.0013586979166666665,101.8623376875006
60,80,0,101.8623376875006
81,0,0.12907630208333332,101.99141398958393
78,0,0.024456562499999997,102.01587055208394
60,0,0.008152187499999998,102.02402273958394
81,80,0.0013586979166666665,102.02538143750061
77,80,0,102.02538143750061
62,80,0,102.02538143750061
81,0,0.15353286458333332,102.17891430208395
77,0,0,102.17891430208395
62,0,0.008152187499999998,102.18706648958396
83,80,0.0013586979166666665,102.18842518750063
76,80,0,102.18842518750063
60,80,0,102.18842518750063
83,0,0.15353286458333332,102.34195805208397
76,0,0,102.34195805208397
60,0,0.008152187499999998,102.35011023958397
84,80,0.0013586979166666665,102.35146893750064
75,80,0,102.35146893750064
54,80,0,102.35146893750064
54,0,0.1616850520833333,102.51315398958397
50,82,0.0013586979166666665,102.51451268750064
75,0,0.14538067708333333,102.65989336458398
50,0,0.016304374999999996,102.67619773958398
83,85,0.0013586979166666665,102.67755643750066
43,85,0,102.67755643750066
83,0,0.15353286458333332,102.831089302084
43,0,0.008152187499999998,102.839241489584
82,88,0.0013586979166666665,102.84060018750067
50,88,0,102.84060018750067
84,0,0.12907630208333332,102.969676489584
82,0,0.024456562499999997,102.99413305208401
50,0,0.008152187499999998,103.00228523958401
84,90,0.0013586979166666665,103.00364393750068
81,90,0,103.00364393750068
43,90,0,103.00364393750068
84,0,0.15353286458333332,103.15717680208402
81,0,0,103.15717680208402
43,0,0.008152187499999998,103.16532898958403
86,93,0.0013586979166666665,103.1666876875007
79,93,0,103.1666876875007
50,93,0,103.1666876875007
86,0,0.15353286458333332,103.32022055208404
79,0,0,103.32022055208404
50,0,0,103.32022055208404
78,96,0.009510885416666665,103.3297314375007
87,96,0,103.3297314375007
43,96,0,103.3297314375007
78,0,0.15081546875,103.4805469062507
87,0,0,103.4805469062507
43,0,0.008152187499999998,103.4886990937507
87,127,0.0013586979166666665,103.49005779166737
96,127,0,103.49005779166737
50,96,0,103.49005779166737
87,0,0.1616850520833333,103.6517428437507
96,0,0,103.6517428437507
50,0,0,103.6517428437507
86,127,0.0013586979166666665,103.65310154166737
95,127,0,103.65310154166737
57,96,0,103.65310154166737
86,0,0.1616850520833333,103.8147865937507
95,0,0,103.8147865937507
57,0,0,103.8147865937507
83,127,0.0013586979166666665,103.81614529166737
92,127,0,103.81614529166737
60,96,0,103.81614529166737
83,0,0.1616850520833333,103.9778303437507
92,0,0,103.9778303437507
60,0,0,103.9778303437507
84,127,0.0013586979166666665,103.97918904166737
93,127,0,103.97918904166737
62,96,0,103.97918904166737
84,0,0.1616850520833333,104.1408740937507
93,0,0,104.1408740937507
62,0,0,104.1408740937507
81,127,0.0013586979166666665,104.14223279166737
90,127,0,104.14223279166737
60,96,0,104.14223279166737
81,0,0.1616850520833333,104.3039178437507
90,0,0,104.3039178437507
60,0,0,104.3039178437507
78,127,0.0013586979166666665,104.30527654166737
87,127,0,104.30527654166737
57,96,0,104.30527654166737
78,0,0.1616850520833333,104.4669615937507
87,0,0,104.4669615937507
57,0,0,104.4669615937507
75,127,0.0013586979166666665,104.46832029166737
84,127,0,104.46832029166737
50,96,0,104.46832029166737
75,0,0.1616850520833333,104.6300053437507
84,0,0,104.6300053437507
50,0,0,104.6300053437507
74,127,0.0013586979166666665,104.63136404166737
83,127,0,104.63136404166737
43,96,0,104.63136404166737
74,0,0.1616850520833333,104.7930490937507
83,0,0,104.7930490937507
43,0,0,104.7930490937507
71,127,0.0013586979166666665,104.79440779166737
80,127,0,104.79440779166737
50,96,0,104.79440779166737
71,0,0.1616850520833333,104.9560928437507
80,0,0,104.9560928437507
50,0,0,104.9560928437507
72,127,0.0013586979166666665,104.95745154166737
81,127,0,104.95745154166737
43,96,0,104.95745154166737
72,0,0.1616850520833333,105.1191365937507
81,0,0,105.1191365937507
43,0,0,105.1191365937507
72,127,0.0013586979166666665,105.12049529166737
74,127,0,105.12049529166737
50,96,0,105.12049529166737
50,0,0.15353286458333332,105.27402815625071
72,0,0.008152187499999998,105.28218034375071
74,0,0,105.28218034375071
71,96,0.0013586979166666665,105.28353904166738
79,96,0,105.28353904166738
43,96,0,105.28353904166738
71,0,0.15081546875,105.43435451041738
79,0,0,105.43435451041738
43,0,0.008152187499999998,105.44250669791738
100,70,0.0013586979166666665,105.44386539583405
50,70,0,105.44386539583405
100,0,0.1616850520833333,105.60555044791738
50,0,0,105.60555044791738
98,70,0.0013586979166666665,105.60690914583405
55,70,0,105.60690914583405
98,0,0.1616850520833333,105.76859419791738
55,0,0,105.76859419791738
95,70,0.0013586979166666665,105.76995289583405
59,70,0,105.76995289583405
95,0,0.1616850520833333,105.93163794791738
59,0,0,105.93163794791738
96,70,0.0013586979166666665,105.93299664583405
62,70,0,105.93299664583405
96,0,0.1616850520833333,106.09468169791738
62,0,0,106.09468169791738
95,70,0.0013586979166666665,106.09604039583405
59,70,0,106.09604039583405
95,0,0.1616850520833333,106.25772544791738
59,0,0,106.25772544791738
91,70,0.0013586979166666665,106.25908414583405
55,70,0,106.25908414583405
91,0,0.1616850520833333,106.42076919791738
55,0,0,106.42076919791738
93,70,0.0013586979166666665,106.42212789583405
50,70,0,106.42212789583405
93,0,0.1616850520833333,106.58381294791738
50,0,0,106.58381294791738
91,70,0.0013586979166666665,106.58517164583405
43,70,0,106.58517164583405
91,0,0.1616850520833333,106.74685669791738
43,0,0,106.74685669791738
88,70,0.0013586979166666665,106.74821539583405
50,70,0,106.74821539583405
88,0,0.1616850520833333,106.90990044791738
50,0,0,106.90990044791738
90,70,0.0013586979166666665,106.91125914583405
43,70,0,106.91125914583405
90,0,0.1616850520833333,107.07294419791738
43,0,0,107.07294419791738
88,70,0.0013586979166666665,107.07430289583405
50,70,0,107.07430289583405
50,0,0.15353286458333332,107.22783576041739
88,0,0.008152187499999998,107.2359879479174
86,70,0.0013586979166666665,107.23734664583407
43,70,0,107.23734664583407
86,0,0.15896765624999998,107.39631430208406
43,0,0,107.39631430208406
88,70,0.0013586979166666665,107.39767300000074
50,70,0,107.39767300000074
88,0,0.1616850520833333,107.55935805208406
50,0,0,107.55935805208406
86,70,0.0013586979166666665,107.56071675000074
55,70,0,107.56071675000074
86,0,0.1616850520833333,107.72240180208406
55,0,0,107.72240180208406
83,70,0.0013586979166666665,107.72376050000074
59,70,0,107.72376050000074
83,0,0.1616850520833333,107.88544555208406
59,0,0,107.88544555208406
84,70,0.0013586979166666665,107.88680425000074
62,70,0,107.88680425000074
84,0,0.1616850520833333,108.04848930208406
62,0,0,108.04848930208406
83,70,0.0013586979166666665,108.04984800000074
59,70,0,108.04984800000074
83,0,0.1616850520833333,108.21153305208406
59,0,0,108.21153305208406
79,70,0.0013586979166666665,108.21289175000074
55,70,0,108.21289175000074
79,0,0.1616850520833333,108.37457680208406
55,0,0,108.37457680208406
81,70,0.0013586979166666665,108.37593550000074
50,70,0,108.37593550000074
81,0,0.1616850520833333,108.53762055208406
50,0,0,108.53762055208406
79,70,0.0013586979166666665,108.53897925000074
43,70,0,108.53897925000074
79,0,0.1616850520833333,108.70066430208406
43,0,0,108.70066430208406
76,70,0.0013586979166666665,108.70202300000074
50,70,0,108.70202300000074
76,0,0.1616850520833333,108.86370805208406
50,0,0,108.86370805208406
78,70,0.0013586979166666665,108.86506675000074
43,70,0,108.86506675000074
78,0,0.1616850520833333,109.02675180208406
43,0,0,109.02675180208406
76,70,0.0013586979166666665,109.02811050000074
50,70,0,109.02811050000074
76,0,0.15353286458333332,109.18164336458408
50,0,0,109.18164336458408
74,70,0.009510885416666665,109.19115425000074
43,70,0,109.19115425000074
74,0,0.15896765624999998,109.35012190625073
43,0,0,109.35012190625073
76,70,0.0013586979166666665,109.3514806041674
50,70,0,109.3514806041674
76,0,0.1616850520833333,109.51316565625073
50,0,0,109.51316565625073
74,105,0.0013586979166666665,109.5145243541674
54,70,0,109.5145243541674
74,0,0.1616850520833333,109.67620940625073
54,0,0,109.67620940625073
69,70,0.0013586979166666665,109.6775681041674
60,70,0,109.6775681041674
69,0,0.1616850520833333,109.83925315625073
60,0,0,109.83925315625073
78,70,0.0013586979166666665,109.8406118541674
62,70,0,109.8406118541674
78,0,0.1616850520833333,110.00229690625073
62,0,0,110.00229690625073
76,70,0.0013586979166666665,110.0036556041674
60,70,0,110.0036556041674
76,0,0.1616850520833333,110.16534065625073
60,0,0,110.16534065625073
74,70,0.0013586979166666665,110.1666993541674
54,70,0,110.1666993541674
74,0,0.1616850520833333,110.32838440625073
54,0,0,110.32838440625073
76,70,0.0013586979166666665,110.3297431041674
50,70,0,110.3297431041674
76,0,0.1616850520833333,110.49142815625073
50,0,0,110.49142815625073
74,105,0.0013586979166666665,110.4927868541674
43,70,0,110.4927868541674
74,0,0.1616850520833333,110.65447190625073
43,0,0,110.65447190625073
69,70,0.0013586979166666665,110.6558306041674
50,70,0,110.6558306041674
69,0,0.1616850520833333,110.81751565625073
50,0,0,110.81751565625073
78,70,0.0013586979166666665,110.8188743541674
43,70,0,110.8188743541674
78,0,0.1616850520833333,110.98055940625073
43,0,0,110.98055940625073
76,70,0.0013586979166666665,110.9819181041674
50,70,0,110.9819181041674
50,0,0.15353286458333332,111.13545096875075
76,0,0.008152187499999998,111.14360315625075
74,70,0.0013586979166666665,111.14496185416742
43,70,0,111.14496185416742
74,0,0.15896765624999998,111.30392951041742
43,0,0,111.30392951041742
76,70,0.0013586979166666665,111.30528820833409
50,70,0,111.30528820833409
76,0,0.1616850520833333,111.46697326041742
50,0,0,111.46697326041742
74,105,0.0013586979166666665,111.46833195833409
57,70,0,111.46833195833409
74,0,0.1616850520833333,111.63001701041742
57,0,0,111.63001701041742
71,70,0.0013586979166666665,111.63137570833409
60,70,0,111.63137570833409
71,0,0.1616850520833333,111.79306076041742
60,0,0,111.79306076041742
78,70,0.0013586979166666665,111.79441945833409
62,70,0,111.79441945833409
78,0,0.1616850520833333,111.95610451041742
62,0,0,111.95610451041742
76,70,0.0013586979166666665,111.95746320833409
60,70,0,111.95746320833409
76,0,0.1616850520833333,112.11914826041742
60,0,0,112.11914826041742
74,70,0.0013586979166666665,112.12050695833409
57,70,0,112.12050695833409
74,0,0.1616850520833333,112.28219201041742
57,0,0,112.28219201041742
76,70,0.0013586979166666665,112.28355070833409
50,70,0,112.28355070833409
76,0,0.1616850520833333,112.44523576041742
50,0,0,112.44523576041742
74,105,0.0013586979166666665,112.44659445833409
43,70,0,112.44659445833409
74,0,0.1616850520833333,112.60827951041742
43,0,0,112.60827951041742
66,70,0.0013586979166666665,112.60963820833409
50,70,0,112.60963820833409
66,0,0.1616850520833333,112.77132326041742
50,0,0,112.77132326041742
78,70,0.0013586979166666665,112.77268195833409
43,70,0,112.77268195833409
78,0,0.1616850520833333,112.93436701041742
43,0,0,112.93436701041742
76,70,0.0013586979166666665,112.93572570833409
50,70,0,112.93572570833409
76,0,0.15353286458333332,113.08925857291743
50,0,0,113.08925857291743
67,60,0.009510885416666665,113.09876945833409
74,60,0,113.09876945833409
43,60,0,113.09876945833409
67,0,0.15081546875,113.24958492708409
74,0,0,113.24958492708409
43,0,0.008152187499999998,113.25773711458409
100,60,0.0013586979166666665,113.25909581250076
50,60,0,113.25909581250076
100,0,0.1616850520833333,113.42078086458409
50,0,0,113.42078086458409
98,60,0.0013586979166666665,113.42213956250076
55,60,0,113.42213956250076
98,0,0.1616850520833333,113.58382461458409
55,0,0,113.58382461458409
95,60,0.0013586979166666665,113.58518331250076
59,60,0,113.58518331250076
95,0,0.1616850520833333,113.74686836458409
59,0,0,113.74686836458409
96,60,0.0013586979166666665,113.74822706250076
62,60,0,113.74822706250076
96,0,0.1616850520833333,113.90991211458409
62,0,0,113.90991211458409
95,60,0.0013586979166666665,113.91127081250076
59,60,0,113.91127081250076
95,0,0.1616850520833333,114.07295586458409
59,0,0,114.07295586458409
91,60,0.0013586979166666665,114.07431456250076
55,60,0,114.07431456250076
91,0,0.1616850520833333,114.23599961458409
55,0,0,114.23599961458409
93,60,0.0013586979166666665,114.23735831250076
50,60,0,114.23735831250076
93,0,0.1616850520833333,114.39904336458409
50,0,0,114.39904336458409
91,60,0.0013586979166666665,114.40040206250076
43,60,0,114.40040206250076
91,0,0.1616850520833333,114.56208711458409
43,0,0,114.56208711458409
88,60,0.0013586979166666665,114.56344581250076
50,60,0,114.56344581250076
88,0,0.1616850520833333,114.72513086458409
50,0,0,114.72513086458409
90,60,0.0013586979166666665,114.72648956250076
43,60,0,114.72648956250076
90,0,0.1616850520833333,114.88817461458409
43,0,0,114.88817461458409
88,60,0.0013586979166666665,114.88953331250076
50,60,0,114.88953331250076
50,0,0.15353286458333332,115.0430661770841
88,0,0.008152187499999998,115.0512183645841
86,60,0.0013586979166666665,115.05257706250077
43,60,0,115.05257706250077
86,0,0.1616850520833333,115.2142621145841
43,0,0,115.2142621145841
88,60,0.0013586979166666665,115.21562081250077
50,60,0,115.21562081250077
88,0,0.1616850520833333,115.3773058645841
50,0,0,115.3773058645841
86,60,0.0013586979166666665,115.37866456250077
55,60,0,115.37866456250077
86,0,0.1616850520833333,115.5403496145841
55,0,0,115.5403496145841
83,60,0.0013586979166666665,115.54170831250077
59,60,0,115.54170831250077
83,0,0.1616850520833333,115.7033933645841
59,0,0,115.7033933645841
84,60,0.0013586979166666665,115.70475206250077
62,60,0,115.70475206250077
84,0,0.1616850520833333,115.8664371145841
62,0,0,115.8664371145841
83,60,0.0013586979166666665,115.86779581250077
59,60,0,115.86779581250077
83,0,0.1616850520833333,116.0294808645841
59,0,0,116.0294808645841
79,60,0.0013586979166666665,116.03083956250077
55,60,0,116.03083956250077
79,0,0.1616850520833333,116.1925246145841
55,0,0,116.1925246145841
81,60,0.0013586979166666665,116.19388331250077
50,60,0,116.19388331250077
81,0,0.1616850520833333,116.3555683645841
50,0,0,116.3555683645841
79,60,0.0013586979166666665,116.35692706250077
43,60,0,116.35692706250077
79,0,0.1616850520833333,116.5186121145841
43,0,0,116.5186121145841
76,60,0.0013586979166666665,116.51997081250077
50,60,0,116.51997081250077
76,0,0.1616850520833333,116.6816558645841
50,0,0,116.6816558645841
78,60,0.0013586979166666665,116.68301456250077
43,60,0,116.68301456250077
78,0,0.1616850520833333,116.8446996145841
43,0,0,116.8446996145841
76,60,0.0013586979166666665,116.84605831250077
50,60,0,116.84605831250077
76,0,0.15353286458333332,116.99959117708411
50,0,0,116.99959117708411
74,60,0.009510885416666665,117.00910206250077
43,60,0,117.00910206250077
74,0,0.15081546875,117.15991753125077
43,0,0.008152187499999998,117.16806971875077
76,60,0.0013586979166666665,117.16942841666744
50,60,0,117.16942841666744
76,0,0.15353286458333332,117.32296128125078
50,0,0.008152187499999998,117.33111346875079
74,90,0.0013586979166666665,117.33247216666746
54,60,0,117.33247216666746
74,0,0.1616850520833333,117.49415721875079
54,0,0,117.49415721875079
69,60,0.0013586979166666665,117.49551591666746
60,60,0,117.49551591666746
69,0,0.15353286458333332,117.6490487812508
60,0,0.008152187499999998,117.6572009687508
78,60,0.0013586979166666665,117.65855966666747
62,60,0,117.65855966666747
78,0,0.15353286458333332,117.81209253125081
62,0,0.008152187499999998,117.82024471875081
76,60,0.0013586979166666665,117.82160341666749
60,60,0,117.82160341666749
76,0,0.15353286458333332,117.97513628125083
60,0,0.008152187499999998,117.98328846875083
74,60,0.0013586979166666665,117.9846471666675
54,60,0,117.9846471666675
74,0,0.15353286458333332,118.13818003125084
54,0,0.008152187499999998,118.14633221875084
76,60,0.0013586979166666665,118.14769091666751
50,60,0,118.14769091666751
76,0,0.15353286458333332,118.30122378125085
50,0,0.008152187499999998,118.30937596875086
74,90,0.0013586979166666665,118.31073466666753
43,60,0,118.31073466666753
74,0,0.1616850520833333,118.47241971875086
43,0,0,118.47241971875086
69,60,0.0013586979166666665,118.47377841666753
50,60,0,118.47377841666753
69,0,0.15353286458333332,118.62731128125087
50,0,0.008152187499999998,118.63546346875087
78,60,0.0013586979166666665,118.63682216666754
43,60,0,118.63682216666754
78,0,0.15353286458333332,118.79035503125088
43,0,0.008152187499999998,118.79850721875088
76,60,0.0013586979166666665,118.79986591666756
50,60,0,118.79986591666756
76,0,0.15353286458333332,118.9533987812509
50,0,0,118.9533987812509
74,60,0.009510885416666665,118.96290966666756
43,60,0,118.96290966666756
74,0,0.15353286458333332,119.1164425312509
43,0,0.008152187499999998,119.1245947187509
76,60,0.0013586979166666665,119.12595341666757
50,60,0,119.12595341666757
76,0,0.15353286458333332,119.27948628125091
50,0,0.008152187499999998,119.28763846875091
74,90,0.0013586979166666665,119.28899716666758
54,60,0,119.28899716666758
74,0,0.1616850520833333,119.45068221875091
54,0,0,119.45068221875091
71,60,0.0013586979166666665,119.45204091666758
60,60,0,119.45204091666758
71,0,0.15353286458333332,119.60557378125092
60,0,0.008152187499999998,119.61372596875093
78,60,0.0013586979166666665,119.6150846666676
62,60,0,119.6150846666676
78,0,0.15353286458333332,119.76861753125094
62,0,0.008152187499999998,119.77676971875094
76,60,0.0013586979166666665,119.77812841666761
60,60,0,119.77812841666761
76,0,0.15353286458333332,119.93166128125095
60,0,0.008152187499999998,119.93981346875096
74,60,0.0013586979166666665,119.94117216666763
54,60,0,119.94117216666763
74,0,0.15353286458333332,120.09470503125097
54,0,0.008152187499999998,120.10285721875097
76,60,0.0013586979166666665,120.10421591666764
50,60,0,120.10421591666764
76,0,0.15353286458333332,120.25774878125098
50,0,0.008152187499999998,120.26590096875098
74,90,0.0013586979166666665,120.26725966666766
43,60,0,120.26725966666766
74,0,0.1616850520833333,120.42894471875098
43,0,0,120.42894471875098
69,60,0.0013586979166666665,120.43030341666766
50,60,0,120.43030341666766
69,0,0.15353286458333332,120.583836281251
50,0,0.008152187499999998,120.591988468751
78,60,0.0013586979166666665,120.59334716666767
43,60,0,120.59334716666767
78,0,0.15353286458333332,120.74688003125101
43,0,0.008152187499999998,120.75503221875101
76,60,0.0013586979166666665,120.75639091666768
50,60,0,120.75639091666768
76,0,0.15353286458333332,120.90992378125102
50,0,0,120.90992378125102
74,60,0.009510885416666665,120.91943466666768
43,60,0,120.91943466666768
74,0,0.15081546875,121.07025013541768
43,0,0.008152187499999998,121.07840232291768
76,60,0.0013586979166666665,121.07976102083435
50,60,0,121.07976102083435
76,0,0.15353286458333332,121.2332938854177
50,0,0.008152187499999998,121.2414460729177
74,90,0.0013586979166666665,121.24280477083437
55,60,0,121.24280477083437
74,0,0.1616850520833333,121.4044898229177
55,0,0,121.4044898229177
67,60,0.0013586979166666665,121.40584852083437
59,60,0,121.40584852083437
67,0,0.15353286458333332,121.55938138541771
59,0,0.008152187499999998,121.56753357291771
79,60,0.0013586979166666665,121.56889227083438
62,60,0,121.56889227083438
79,0,0.15353286458333332,121.72242513541772
62,0,0.008152187499999998,121.73057732291772
76,60,0.0013586979166666665,121.7319360208344
59,60,0,121.7319360208344
76,0,0.15353286458333332,121.88546888541774
59,0,0.008152187499999998,121.89362107291774
74,60,0.0013586979166666665,121.89497977083441
55,60,0,121.89497977083441
74,0,0.15353286458333332,122.04851263541775
55,0,0.008152187499999998,122.05666482291775
76,60,0.0013586979166666665,122.05802352083442
50,60,0,122.05802352083442
76,0,0.15353286458333332,122.21155638541777
50,0,0.008152187499999998,122.21970857291777
74,90,0.0013586979166666665,122.22106727083444
43,60,0,122.22106727083444
74,0,0.1616850520833333,122.38275232291777
43,0,0,122.38275232291777
71,60,0.0013586979166666665,122.38411102083444
50,60,0,122.38411102083444
71,0,0.15353286458333332,122.53764388541778
50,0,0.008152187499999998,122.54579607291778
83,60,0.0013586979166666665,122.54715477083445
43,60,0,122.54715477083445
83,0,0.15353286458333332,122.7006876354178
43,0,0.008152187499999998,122.7088398229178
79,60,0.0013586979166666665,122.71019852083447
50,60,0,122.71019852083447
79,0,0.15353286458333332,122.86373138541781
50,0,0,122.86373138541781
76,60,0.009510885416666665,122.87324227083447
43,60,0,122.87324227083447
76,0,0.15081546875,123.02405773958446
43,0,0.008152187499999998,123.03220992708447
78,60,0.0013586979166666665,123.03356862500114
50,60,0,123.03356862500114
78,0,0.15353286458333332,123.18710148958448
50,0,0.008152187499999998,123.19525367708448
76,60,0.0013586979166666665,123.19661237500115
55,60,0,123.19661237500115
76,0,0.15353286458333332,123.35014523958449
55,0,0.008152187499999998,123.3582974270845
74,90,0.0013586979166666665,123.35965612500117
59,60,0,123.35965612500117
74,0,0.1616850520833333,123.5213411770845
59,0,0,123.5213411770845
86,60,0.0013586979166666665,123.52269987500117
62,60,0,123.52269987500117
86,0,0.15353286458333332,123.6762327395845
62,0,0.008152187499999998,123.68438492708451
83,60,0.0013586979166666665,123.68574362500118
59,60,0,123.68574362500118
83,0,0.15353286458333332,123.83927648958452
59,0,0.008152187499999998,123.84742867708452
81,60,0.0013586979166666665,123.8487873750012
55,60,0,123.8487873750012
81,0,0.15353286458333332,124.00232023958453
55,0,0.008152187499999998,124.01047242708454
83,60,0.0013586979166666665,124.01183112500121
50,60,0,124.01183112500121
83,0,0.15353286458333332,124.16536398958455
50,0,0.008152187499999998,124.17351617708455
81,60,0.0013586979166666665,124.17487487500122
43,60,0,124.17487487500122
81,0,0.15353286458333332,124.32840773958456
43,0,0.008152187499999998,124.33655992708456
79,60,0.0013586979166666665,124.33791862500124
50,60,0,124.33791862500124
79,0,0.15353286458333332,124.49145148958458
50,0,0.008152187499999998,124.49960367708458
91,60,0.0013586979166666665,124.50096237500125
43,60,0,124.50096237500125
91,0,0.15353286458333332,124.65449523958459
43,0,0.008152187499999998,124.6626474270846
88,60,0.0013586979166666665,124.66400612500126
50,60,0,124.66400612500126
88,0,0.15353286458333332,124.8175389895846
50,0,0,124.8175389895846
86,60,0.009510885416666665,124.82704987500126
43,60,0,124.82704987500126
86,0,0.15353286458333332,124.9805827395846
43,0,0.008152187499999998,124.98873492708461
88,60,0.0013586979166666665,124.99009362500128
50,60,0,124.99009362500128
88,0,0.15353286458333332,125.14362648958462
50,0,0.008152187499999998,125.15177867708462
86,60,0.0013586979166666665,125.1531373750013
55,60,0,125.1531373750013
86,0,0.15353286458333332,125.30667023958463
55,0,0.008152187499999998,125.31482242708464
83,60,0.0013586979166666665,125.31618112500131
59,60,0,125.31618112500131
83,0,0.15353286458333332,125.46971398958465
59,0,0.008152187499999998,125.47786617708465
95,60,0.0013586979166666665,125.47922487500132
62,60,0,125.47922487500132
95,0,0.15353286458333332,125.63275773958466
62,0,0.008152187499999998,125.64090992708466
91,60,0.0013586979166666665,125.64226862500134
59,60,0,125.64226862500134
91,0,0.15353286458333332,125.79580148958468
59,0,0.008152187499999998,125.80395367708468
88,60,0.0013586979166666665,125.80531237500135
55,60,0,125.80531237500135
88,0,0.15353286458333332,125.95884523958469
55,0,0.008152187499999998,125.96699742708469
90,60,0.0013586979166666665,125.96835612500136
50,60,0,125.96835612500136
90,0,0.15353286458333332,126.1218889895847
50,0,0.008152187499999998,126.1300411770847
88,60,0.0013586979166666665,126.13139987500138
43,60,0,126.13139987500138
88,0,0.15353286458333332,126.28493273958472
43,0,0.008152187499999998,126.29308492708472
86,60,0.0013586979166666665,126.29444362500139
50,60,0,126.29444362500139
86,0,0.15353286458333332,126.44797648958473
50,0,0.008152187499999998,126.45612867708473
98,60,0.0013586979166666665,126.4574873750014
43,60,0,126.4574873750014
98,0,0.15353286458333332,126.61102023958475
43,0,0.008152187499999998,126.61917242708475
95,60,0.0013586979166666665,126.62053112500142
50,60,0,126.62053112500142
95,0,0.15353286458333332,126.77406398958476
50,0,0,126.77406398958476
93,60,0.009510885416666665,126.78357487500142
43,60,0,126.78357487500142
93,0,0.15353286458333332,126.93710773958476
43,0,0.008152187499999998,126.94525992708476
95,60,0.0013586979166666665,126.94661862500143
50,60,0,126.94661862500143
95,0,0.15353286458333332,127.10015148958477
50,0,0.008152187499999998,127.10830367708478
93,60,0.0013586979166666665,127.10966237500145
55,60,0,127.10966237500145
93,0,0.15353286458333332,127.26319523958479
55,0,0.008152187499999998,127.27134742708479
91,60,0.0013586979166666665,127.27270612500146
59,60,0,127.27270612500146
91,0,0.15353286458333332,127.4262389895848
59,0,0.008152187499999998,127.4343911770848
98,60,0.0013586979166666665,127.43574987500148
62,60,0,127.43574987500148
98,0,0.15353286458333332,127.58928273958482
62,0,0.008152187499999998,127.59743492708482
95,60,0.0013586979166666665,127.59879362500149
59,60,0,127.59879362500149
95,0,0.15353286458333332,127.75232648958483
59,0,0.008152187499999998,127.76047867708483
93,60,0.0013586979166666665,127.7618373750015
55,60,0,127.7618373750015
93,0,0.15353286458333332,127.91537023958485
55,0,0.008152187499999998,127.92352242708485
95,60,0.0013586979166666665,127.92488112500152
50,60,0,127.92488112500152
95,0,0.15353286458333332,128.07841398958485
50,0,0.008152187499999998,128.08656617708485
93,60,0.0013586979166666665,128.0879248750015
43,60,0,128.0879248750015
93,0,0.15353286458333332,128.24145773958483
43,0,0.008152187499999998,128.24960992708483
91,60,0.0013586979166666665,128.2509686250015
50,60,0,128.2509686250015
91,0,0.15353286458333332,128.40450148958482
50,0,0.008152187499999998,128.41265367708482
100,60,0.0013586979166666665,128.41401237500148
43,60,0,128.41401237500148
100,0,0.15353286458333332,128.5675452395848
43,0,0.008152187499999998,128.5756974270848
97,60,0.0013586979166666665,128.57705612500146
50,60,0,128.57705612500146
97,0,0.15353286458333332,128.7305889895848
50,0,0,128.7305889895848
98,60,0.009510885416666665,128.74009987500145
43,60,0,128.74009987500145
43,0,0.1616850520833333,128.90178492708478
50,60,0.0013586979166666665,128.90314362500143
50,0,0.1616850520833333,129.06482867708476
55,60,0.0013586979166666665,129.06618737500142
55,0,0.1616850520833333,129.22787242708475
59,60,0.0013586979166666665,129.2292311250014
98,0,0.12907630208333332,129.35830742708472
59,0,0.03260874999999999,129.39091617708473
62,60,0.0013586979166666665,129.3922748750014
62,0,0.1616850520833333,129.55395992708472
59,60,0.0013586979166666665,129.55531862500138
59,0,0.1616850520833333,129.7170036770847
88,60,0.0013586979166666665,129.71836237500136
55,60,0,129.71836237500136
88,0,0.1616850520833333,129.8800474270847
55,0,0,129.8800474270847
90,60,0.0013586979166666665,129.88140612500135
50,60,0,129.88140612500135
90,0,0.1616850520833333,130.04309117708468
50,0,0,130.04309117708468
88,60,0.0013586979166666665,130.04444987500133
43,60,0,130.04444987500133
88,0,0.1616850520833333,130.20613492708466
43,0,0,130.20613492708466
86,60,0.0013586979166666665,130.20749362500132
50,60,0,130.20749362500132
86,0,0.1616850520833333,130.36917867708465
50,0,0,130.36917867708465
95,60,0.0013586979166666665,130.3705373750013
43,60,0,130.3705373750013
95,0,0.1616850520833333,130.53222242708463
43,0,0,130.53222242708463
91,60,0.0013586979166666665,130.5335811250013
50,60,0,130.5335811250013
50,0,0.15353286458333332,130.68711398958462
91,0,0.008152187499999998,130.69526617708462
91,60,0.0013586979166666665,130.69662487500128
43,60,0,130.69662487500128
43,0,0.1616850520833333,130.8583099270846
50,60,0.0013586979166666665,130.85966862500126
50,0,0.1616850520833333,131.0213536770846
55,60,0.0013586979166666665,131.02271237500125
55,0,0.1616850520833333,131.18439742708458
59,60,0.0013586979166666665,131.18575612500123
91,0,0.12907630208333332,131.31483242708455
59,0,0.03260874999999999,131.34744117708456
62,60,0.0013586979166666665,131.34879987500122
62,0,0.1616850520833333,131.51048492708455
59,60,0.0013586979166666665,131.5118436250012
59,0,0.1616850520833333,131.67352867708453
55,60,0.0013586979166666665,131.6748873750012
55,0,0.1616850520833333,131.83657242708452
50,60,0.0013586979166666665,131.83793112500118
50,0,0.1616850520833333,131.9996161770845
43,60,0.0013586979166666665,132.00097487500116
43,0,0.1616850520833333,132.1626599270845
50,60,0.0013586979166666665,132.16401862500115
50,0,0.1616850520833333,132.32570367708448
43,60,0.0013586979166666665,132.32706237500113
43,0,0.1616850520833333,132.48874742708446
50,60,0.0013586979166666665,132.49010612500112
50,0,0.15353286458333332,132.64363898958445
64,75,0,132.64363898958445
72,75,0,132.64363898958445
55,75,0,132.64363898958445
48,75,0,132.64363898958445
72,0,1.62321455625,134.26685354583444
48,0,0,134.26685354583444
62,75,0.0011904770833333332,134.26804402291776
67,75,0,134.26804402291776
47,75,0,134.26804402291776
64,0,0.4833336958333333,134.7513777187511
62,0,0.057142899999999996,134.8085206187511
67,0,0,134.8085206187511
47,0,0,134.8085206187511
71,75,0,134.8085206187511
48,75,0,134.8085206187511
55,0,0.3989583333333333,135.20747895208441
71,0,0.075,135.2824789520844
48,0,0,135.2824789520844
71,112,0.026041666666666668,135.30852061875106
60,75,0,135.30852061875106
54,75,0,135.30852061875106
50,75,0,135.30852061875106
71,0,0.24687499999999998,135.55539561875105
69,75,0.0010416666666666667,135.55643728541773
60,0,0.24895833333333334,135.80539561875105
69,0,0,135.80539561875105
54,0,0,135.80539561875105
50,0,0,135.80539561875105
67,75,0.0010416666666666667,135.80643728541773
59,75,0,135.80643728541773
55,75,0,135.80643728541773
43,75,0,135.80643728541773
67,0,0.4979166666666667,136.3043539520844
59,0,0,136.3043539520844
55,0,0,136.3043539520844
43,0,0,136.3043539520844
71,75,0.0010416666666666667,136.30539561875108
60,75,0,136.30539561875108
66,75,0,136.30539561875108
50,75,0,136.30539561875108
50,0,0,136.30539561875108
50,75,0,136.30539561875108
71,0,0.4739583333333333,136.77935395208442
71,112,0.026041666666666668,136.80539561875108
38,75,0,136.80539561875108
71,0,0.24895833333333334,137.0543539520844
69,75,0.0010416666666666667,137.05539561875108
60,0,0.19895833333333332,137.25435395208441
66,0,0,137.25435395208441
69,0,0.05,137.30435395208443
38,0,0,137.30435395208443
67,75,0.0010416666666666667,137.3053956187511
59,75,0,137.3053956187511
67,0,0,137.3053956187511
67,75,0,137.3053956187511
43,75,0,137.3053956187511
59,0,0.4739583333333333,137.77935395208445
67,0,0,137.77935395208445
43,0,0,137.77935395208445
50,0,0.025,137.80435395208445
64,75,0,137.80435395208445
72,75,0,137.80435395208445
55,75,0,137.80435395208445
48,75,0,137.80435395208445
72,0,1.1387481020833332,138.94310205416778
48,0,0,138.94310205416778
62,75,0.06124989791666666,139.00435195208445
67,75,0,139.00435195208445
47,75,0,139.00435195208445
64,0,0.5087491520833333,139.5131011041678
62,0,0.059999899999999995,139.5731010041678
67,0,0,139.5731010041678
47,0,0,139.5731010041678
71,75,0,139.5731010041678
48,75,0,139.5731010041678
55,0,0.3989583333333333,139.97205933750112
71,0,0.075,140.0470593375011
48,0,0,140.0470593375011
71,75,0.026041666666666668,140.07310100416777
60,75,0,140.07310100416777
54,75,0,140.07310100416777
50,75,0,140.07310100416777
71,0,0.24687499999999998,140.31997600416776
69,75,0.0010416666666666667,140.32101767083444
60,0,0.24895833333333334,140.56997600416776
69,0,0,140.56997600416776
54,0,0,140.56997600416776
50,0,0,140.56997600416776
67,75,0.0010416666666666667,140.57101767083444
59,75,0,140.57101767083444
55,75,0,140.57101767083444
43,75,0,140.57101767083444
67,0,0.4979166666666667,141.0689343375011
59,0,0,141.0689343375011
55,0,0,141.0689343375011
43,0,0,141.0689343375011
71,75,0.0010416666666666667,141.06997600416778
60,75,0,141.06997600416778
66,75,0,141.06997600416778
50,75,0,141.06997600416778
50,0,0,141.06997600416778
50,75,0,141.06997600416778
71,0,0.4739583333333333,141.54393433750113
71,75,0.026041666666666668,141.56997600416778
38,75,0,141.56997600416778
71,0,0.24895833333333334,141.8189343375011
69,75,0.0010416666666666667,141.81997600416778
60,0,0.19895833333333332,142.01893433750112
66,0,0,142.01893433750112
69,0,0.05,142.06893433750113
38,0,0,142.06893433750113
67,75,0.0010416666666666667,142.0699760041678
59,75,0,142.0699760041678
67,0,0,142.0699760041678
67,75,0,142.0699760041678
43,75,0,142.0699760041678
59,0,0.4739583333333333,142.54393433750116
67,0,0,142.54393433750116
43,0,0,142.54393433750116
50,0,0.025,142.56893433750116
76,75,0,142.56893433750116
76,0,0,142.56893433750116
76,75,0,142.56893433750116
67,112,0,142.56893433750116
60,75,0,142.56893433750116
76,0,1.0352300333333333,143.6041643708345
78,75,0.05568196666666666,143.65984633750116
69,75,0,143.65984633750116
78,0,0.2579552333333333,143.91780157083448
76,75,0.014772766666666664,143.93257433750114
76,0,0.2579552333333333,144.19052957083446
67,0,0.013636399999999998,144.20416597083445
74,75,0.0011363666666666665,144.2053023375011
66,75,0,144.2053023375011
74,0,0.5443196333333332,144.74962197083445
66,0,0,144.74962197083445
76,75,0.0011363666666666665,144.7507583375011
64,75,0,144.7507583375011
76,0,0.2715916333333333,145.02234997083445
64,0,0,145.02234997083445
78,75,0.0011363666666666665,145.0234863375011
62,75,0,145.0234863375011
62,0,0,145.0234863375011
62,75,0,145.0234863375011
60,0,0.18977323333333332,145.21325957083445
69,0,0.05454559999999999,145.26780517083446
78,0,0.027272799999999996,145.29507797083446
79,75,0.0011363666666666665,145.2962143375011
67,75,0,145.2962143375011
59,75,0,145.2962143375011
62,0,0.5034104333333332,145.79962477083444
79,0,0.013636399999999998,145.81326117083444
67,0,0,145.81326117083444
59,0,0,145.81326117083444
74,75,0.028409166666666662,145.8416703375011
69,75,0,145.8416703375011
60,75,0,145.8416703375011
66,75,0,145.8416703375011
74,0,0.5443196333333332,146.38598997083446
66,0,0,146.38598997083446
76,75,0.0011363666666666665,146.38712633750112
64,75,0,146.38712633750112
76,0,0.2715916333333333,146.65871797083446
64,0,0,146.65871797083446
78,75,0.0011363666666666665,146.65985433750112
62,75,0,146.65985433750112
62,0,0,146.65985433750112
62,75,0,146.65985433750112
69,0,0.2715916333333333,146.93144597083446
78,0,0,146.93144597083446
60,0,0,146.93144597083446
79,75,0.0011363666666666665,146.93258233750112
67,75,0,146.93258233750112
59,75,0,146.93258233750112
62,0,0.5034104333333332,147.43599277083445
79,0,0.013636399999999998,147.44962917083444
72,75,0.028409166666666662,147.47803833750112
64,75,0,147.47803833750112
59,0,0.48977403333333325,147.96781237083445
57,75,0.05568196666666666,148.02349433750112
72,0,0.48977403333333325,148.51326837083445
74,75,0.05568196666666666,148.56895033750112
74,0,0.2579552333333333,148.82690557083444
72,75,0.014772766666666664,148.8416783375011
67,0,0.1625004333333333,149.00417877083441
64,0,0.027272799999999996,149.0314515708344
72,0,0.06818199999999999,149.0996335708344
71,75,0.014772766666666664,149.11440633750107
66,75,0,149.11440633750107
63,75,0,149.11440633750107
71,0,0.5443196333333332,149.6587259708344
63,0,0,149.6587259708344
73,75,0.0011363666666666665,149.65986233750107
61,75,0,149.65986233750107
73,0,0.2715916333333333,149.9314539708344
61,0,0,149.9314539708344
75,75,0.0011363666666666665,149.93259033750107
59,75,0,149.93259033750107
59,0,0,149.93259033750107
59,75,0,149.93259033750107
57,0,0.2170460333333333,150.1496363708344
66,0,0.05454559999999999,150.2041819708344
75,0,0,150.2041819708344
76,75,0.0011363666666666665,150.20531833750107
64,75,0,150.20531833750107
55,75,0,150.20531833750107
59,0,0.5034104333333332,150.7087287708344
76,0,0.013636399999999998,150.7223651708344
64,0,0,150.7223651708344
55,0,0,150.7223651708344
69,75,0.028409166666666662,150.75077433750107
63,75,0,150.75077433750107
60,75,0,150.75077433750107
54,75,0,150.75077433750107
69,0,0.5170468333333332,151.2678211708344
63,0,0,151.2678211708344
60,0,0,151.2678211708344
71,112,0.028409166666666662,151.29623033750107
62,75,0,151.29623033750107
55,112,0,151.29623033750107
54,0,0.48977403333333325,151.7860043708344
71,0,0.05454559999999999,151.84054997083442
65,75,0.0011363666666666665,151.84168633750107
43,75,0,151.84168633750107
62,0,0.48977403333333325,152.3314603708344
65,0,0.027272799999999996,152.3587331708344
43,0,0,152.3587331708344
55,0,0.027272799999999996,152.3860059708344
64,75,0.0011363666666666665,152.38714233750105
72,75,0,152.38714233750105
55,75,0,152.38714233750105
48,75,0,152.38714233750105
72,0,1.0352300333333333,153.42237237083438
48,0,0,153.42237237083438
62,75,0.05568196666666666,153.47805433750105
67,75,0,153.47805433750105
47,75,0,153.47805433750105
64,0,0.46250123333333326,153.9405555708344
62,0,0.05454559999999999,153.9951011708344
67,0,0,153.9951011708344
47,0,0,153.9951011708344
71,75,0,153.9951011708344
48,75,0,153.9951011708344
55,0,0.3989583333333333,154.39405950416773
71,0,0.075,154.46905950416772
48,0,0,154.46905950416772
71,75,0.026041666666666668,154.49510117083437
60,75,0,154.49510117083437
54,75,0,154.49510117083437
50,75,0,154.49510117083437
71,0,0.24895833333333334,154.7440595041677
69,75,0.0010416666666666667,154.74510117083437
60,0,0.24895833333333334,154.9940595041677
69,0,0,154.9940595041677
54,0,0,154.9940595041677
50,0,0,154.9940595041677
67,75,0.0010416666666666667,154.99510117083437
59,75,0,154.99510117083437
55,75,0,154.99510117083437
43,75,0,154.99510117083437
67,0,0.49895833333333334,155.4940595041677
59,0,0,155.4940595041677
55,0,0,155.4940595041677
43,0,0,155.4940595041677
71,75,0.0010416666666666667,155.49510117083437
60,75,0,155.49510117083437
66,75,0,155.49510117083437
50,75,0,155.49510117083437
50,0,0,155.49510117083437
50,75,0,155.49510117083437
71,0,0.4739583333333333,155.96905950416772
71,75,0.026041666666666668,155.99510117083437
38,75,0,155.99510117083437
71,0,0.24895833333333334,156.2440595041677
69,75,0.0010416666666666667,156.24510117083437
60,0,0.19895833333333332,156.4440595041677
66,0,0,156.4440595041677
69,0,0.05,156.49405950416772
38,0,0,156.49405950416772
67,75,0.0010416666666666667,156.4951011708344
59,75,0,156.4951011708344
67,0,0,156.4951011708344
67,75,0,156.4951011708344
43,75,0,156.4951011708344
59,0,0.4739583333333333,156.96905950416775
67,0,0,156.96905950416775
43,0,0,156.96905950416775
50,0,0.025,156.99405950416775
64,75,0,156.99405950416775
72,75,0,156.99405950416775
55,75,0,156.99405950416775
48,75,0,156.99405950416775
64,0,1.0845246229166665,158.0785841270844
72,0,0,158.0785841270844
48,0,0,158.0785841270844
62,75,0.058333377083333325,158.13691750416774
67,75,0,158.13691750416774
47,75,0,158.13691750416774
62,0,0.5416670729166666,158.6785845770844
67,0,0,158.6785845770844
47,0,0,158.6785845770844
71,75,0.02976192708333333,158.70834650416774
64,75,0,158.70834650416774
48,75,0,158.70834650416774
64,0,0.17738108541666664,158.8857275895844
48,0,0,158.8857275895844
62,75,0.01071429375,158.8964418833344
47,75,0,158.8964418833344
62,0,0.1797620395833333,159.07620392291773
47,0,0,159.07620392291773
64,75,0.01071429375,159.08691821666773
48,75,0,159.08691821666773
55,0,0.07500005624999999,159.16191827291772
71,0,0.08571435,159.2476326229177
64,0,0.01904763333333333,159.26668025625105
48,0,0,159.26668025625105
71,75,0,159.26668025625105
60,75,0,159.26668025625105
54,75,0,159.26668025625105
50,75,0,159.26668025625105
71,0,0.24895833333333334,159.51563858958437
69,75,0.0010416666666666667,159.51668025625105
60,0,0.24895833333333334,159.76563858958437
69,0,0,159.76563858958437
54,0,0,159.76563858958437
50,0,0,159.76563858958437
67,75,0.0010416666666666667,159.76668025625105
59,75,0,159.76668025625105
55,75,0,159.76668025625105
43,75,0,159.76668025625105
67,0,0.49895833333333334,160.26563858958437
59,0,0,160.26563858958437
55,0,0,160.26563858958437
43,0,0,160.26563858958437
71,75,0.0010416666666666667,160.26668025625105
60,75,0,160.26668025625105
66,75,0,160.26668025625105
50,75,0,160.26668025625105
50,0,0,160.26668025625105
50,75,0,160.26668025625105
71,0,0.47291666666666665,160.7395969229177
71,112,0.026041666666666668,160.76563858958437
38,75,0,160.76563858958437
71,0,0.24895833333333334,161.0145969229177
69,75,0.0010416666666666667,161.01563858958437
60,0,0.19895833333333332,161.2145969229177
66,0,0,161.2145969229177
69,0,0.05,161.26459692291772
38,0,0,161.26459692291772
67,75,0.0010416666666666667,161.2656385895844
59,75,0,161.2656385895844
67,0,0,161.2656385895844
67,75,0,161.2656385895844
43,75,0,161.2656385895844
59,0,0.4739583333333333,161.73959692291774
67,0,0,161.73959692291774
43,0,0,161.73959692291774
50,0,0.025,161.76459692291775
76,75,0.0010416666666666667,161.76563858958443
76,0,0,161.76563858958443
76,75,0,161.76563858958443
67,112,0,161.76563858958443
60,75,0,161.76563858958443
76,0,0.9489583333333333,162.71459692291776
78,112,0.051041666666666666,162.76563858958443
69,75,0,162.76563858958443
78,0,0.24895833333333334,163.01459692291775
76,75,0.0010416666666666667,163.01563858958443
76,0,0.23645833333333333,163.25209692291776
67,0,0.0125,163.26459692291775
74,112,0.0010416666666666667,163.26563858958443
66,75,0,163.26563858958443
74,0,0.49895833333333334,163.76459692291775
66,0,0,163.76459692291775
76,75,0.0010416666666666667,163.76563858958443
64,75,0,163.76563858958443
76,0,0.24895833333333334,164.01459692291775
64,0,0,164.01459692291775
78,75,0.0010416666666666667,164.01563858958443
62,75,0,164.01563858958443
62,0,0,164.01563858958443
62,75,0,164.01563858958443
60,0,0.17395833333333333,164.18959692291776
69,0,0.05,164.23959692291777
78,0,0.025,164.26459692291778
79,75,0.0010416666666666667,164.26563858958446
67,75,0,164.26563858958446
59,75,0,164.26563858958446
62,0,0.4614583333333333,164.72709692291778
79,0,0.0125,164.73959692291777
67,0,0,164.73959692291777
59,0,0,164.73959692291777
74,75,0.026041666666666668,164.76563858958443
69,75,0,164.76563858958443
60,75,0,164.76563858958443
66,75,0,164.76563858958443
74,0,0.165625,164.93126358958443
76,75,0.0010416666666666667,164.9323052562511
76,0,0.165625,165.09793025625112
74,75,0.0010416666666666667,165.0989719229178
74,0,0.165625,165.2645969229178
66,0,0,165.2645969229178
76,75,0.0010416666666666667,165.26563858958448
64,75,0,165.26563858958448
76,0,0.24895833333333334,165.5145969229178
64,0,0,165.5145969229178
78,75,0.0010416666666666667,165.51563858958448
62,75,0,165.51563858958448
62,0,0,165.51563858958448
62,75,0,165.51563858958448
69,0,0.24895833333333334,165.7645969229178
78,0,0,165.7645969229178
60,0,0,165.7645969229178
79,75,0.0010416666666666667,165.76563858958448
67,75,0,165.76563858958448
59,75,0,165.76563858958448
62,0,0.4614583333333333,166.2270969229178
79,0,0.0125,166.2395969229178
72,75,0.026041666666666668,166.26563858958446
64,75,0,166.26563858958446
59,0,0.44895833333333335,166.7145969229178
57,75,0.051041666666666666,166.76563858958446
72,0,0.44895833333333335,167.2145969229178
74,75,0,167.2145969229178
74,0,0.2579552333333333,167.4725521562511
72,75,0.014772766666666664,167.48732492291776
67,0,0.1625004333333333,167.64982535625109
64,0,0.027272799999999996,167.67709815625108
72,0,0.06818199999999999,167.74528015625108
71,75,0.014772766666666664,167.76005292291774
66,75,0,167.76005292291774
63,75,0,167.76005292291774
71,0,0.5443196333333332,168.30437255625108
63,0,0,168.30437255625108
73,75,0.0011363666666666665,168.30550892291774
61,75,0,168.30550892291774
73,0,0.2715916333333333,168.57710055625108
61,0,0,168.57710055625108
75,75,0.0011363666666666665,168.57823692291774
59,75,0,168.57823692291774
59,0,0,168.57823692291774
59,75,0,168.57823692291774
57,0,0.2170460333333333,168.79528295625107
66,0,0.05454559999999999,168.84982855625108
75,0,0,168.84982855625108
76,75,0.0011363666666666665,168.85096492291774
64,75,0,168.85096492291774
55,75,0,168.85096492291774
59,0,0.5034104333333332,169.35437535625107
76,0,0.013636399999999998,169.36801175625106
64,0,0,169.36801175625106
55,0,0,169.36801175625106
69,75,0.028409166666666662,169.39642092291774
63,75,0,169.39642092291774
60,75,0,169.39642092291774
54,75,0,169.39642092291774
69,0,0.5170468333333332,169.91346775625107
63,0,0,169.91346775625107
60,0,0,169.91346775625107
71,75,0.028409166666666662,169.94187692291774
62,75,0,169.94187692291774
55,112,0,169.94187692291774
54,0,0.48977403333333325,170.43165095625108
71,0,0.027272799999999996,170.45892375625107
65,75,0.028409166666666662,170.48733292291774
43,75,0,170.48733292291774
62,0,0.48977403333333325,170.97710695625108
65,0,0.027272799999999996,171.00437975625107
43,0,0,171.00437975625107
55,0,0.027272799999999996,171.03165255625106
64,75,0,171.03165255625106
72,75,0,171.03165255625106
55,75,0,171.03165255625106
48,75,0,171.03165255625106
72,0,1.5528431520833332,172.5844957083344
48,0,0,172.5844957083344
62,75,0.0011363666666666665,172.58563207500106
67,75,0,172.58563207500106
47,75,0,172.58563207500106
64,0,0.46250123333333326,173.0481333083344
62,0,0.05454559999999999,173.1026789083344
67,0,0,173.1026789083344
47,0,0,173.1026789083344
71,75,0.028409166666666662,173.1310880750011
48,75,0,173.1310880750011
55,0,0.4352284333333333,173.5663165083344
71,0,0.08181839999999999,173.6481349083344
48,0,0,173.6481349083344
71,75,0.028409166666666662,173.6765440750011
60,75,0,173.6765440750011
54,75,0,173.6765440750011
50,75,0,173.6765440750011
71,0,0.2579552333333333,173.9344993083344
69,75,0.014772766666666664,173.94927207500106
60,0,0.2443188333333333,174.1935909083344
54,0,0,174.1935909083344
50,0,0,174.1935909083344
69,0,0.013636399999999998,174.20722730833438
67,75,0.014772766666666664,174.22200007500103
59,75,0,174.22200007500103
55,75,0,174.22200007500103
43,75,0,174.22200007500103
67,0,0.5170468333333332,174.73904690833436
59,0,0,174.73904690833436
55,0,0,174.73904690833436
43,0,0,174.73904690833436
71,75,0.028409166666666662,174.76745607500104
60,75,0,174.76745607500104
66,75,0,174.76745607500104
50,75,0,174.76745607500104
50,0,0,174.76745607500104
50,75,0,174.76745607500104
71,0,0.5170468333333332,175.28450290833436
71,75,0.028409166666666662,175.31291207500104
38,75,0,175.31291207500104
71,0,0.4079556333333333,175.72086770833437
69,75,0.0011363666666666665,175.72200407500102
60,0,0.08068203333333332,175.80268610833437
66,0,0,175.80268610833437
38,0,0.027272799999999996,175.82995890833436
69,0,0.027272799999999996,175.85723170833435
67,75,0.0011363666666666665,175.858368075001
59,75,0,175.858368075001
67,0,0,175.858368075001
67,75,0,175.858368075001
43,75,0,175.858368075001
50,0,0.46250123333333326,176.32086930833435
59,0,0.05454559999999999,176.37541490833436
67,0,0,176.37541490833436
43,0,0,176.37541490833436
64,112,0.028409166666666662,176.40382407500104
72,112,0,176.40382407500104
55,75,0,176.40382407500104
48,75,0,176.40382407500104
48,0,1.0352300333333333,177.43905410833437
64,0,0.05454559999999999,177.4935997083344
72,0,0,177.4935997083344
62,75,0.0011363666666666665,177.49473607500104
67,75,0,177.49473607500104
47,75,0,177.49473607500104
62,0,0.5170468333333332,178.01178290833437
67,0,0,178.01178290833437
47,0,0,178.01178290833437
71,75,0.028409166666666662,178.04019207500104
64,75,0,178.04019207500104
48,75,0,178.04019207500104
64,0,0.17159136666666663,178.2117834416677
48,0,0,178.2117834416677
62,75,0.010227299999999998,178.2220107416677
47,75,0,178.2220107416677
62,0,0.17159136666666663,178.39360210833436
47,0,0,178.39360210833436
64,75,0.010227299999999998,178.40382940833436
48,75,0,178.40382940833436
55,0,0.07159109999999999,178.47542050833437
71,0,0.08181839999999999,178.55723890833437
64,0,0.018181866666666664,178.57542077500105
48,0,0,178.57542077500105
71,112,0.010227299999999998,178.58564807500105
60,75,0,178.58564807500105
54,75,0,178.58564807500105
50,75,0,178.58564807500105
71,0,0.4079556333333333,178.99360370833438
69,75,0.0011363666666666665,178.99474007500103
54,0,0.10795483333333332,179.10269490833437
50,0,0,179.10269490833437
60,0,0.027272799999999996,179.12996770833436
69,0,0,179.12996770833436
67,75,0.0011363666666666665,179.13110407500102
59,75,0,179.13110407500102
55,75,0,179.13110407500102
43,75,0,179.13110407500102
55,0,0.5170468333333332,179.64815090833434
43,0,0,179.64815090833434
67,0,0.027272799999999996,179.67542370833434
59,0,0,179.67542370833434
71,75,0,179.67542370833434
60,75,0,179.67542370833434
66,75,0,179.67542370833434
35,75,0,179.67542370833434
71,0,1.54432135625,181.21974506458434
35,0,0,181.21974506458434
71,112,0.0011363666666666665,181.220881431251
50,75,0,181.220881431251
60,0,0.48977403333333325,181.71065546458433
66,0,0,181.71065546458433
62,75,0,181.71065546458433
71,0,0,181.71065546458433
69,75,0,181.71065546458433
50,0,0.8681833375,182.57883880208433
62,0,0.1090911,182.68792990208433
69,0,0.05454555,182.74247545208434
86,60,0,182.74247545208434
43,60,0,182.74247545208434
86,0,0.15081546875,182.89329092083435
43,0,0.008152187499999998,182.90144310833435
100,60,0.0013586979166666665,182.902801806251
50,60,0,182.902801806251
100,0,0.1616850520833333,183.06448685833433
50,0,0,183.06448685833433
98,60,0.0013586979166666665,183.065845556251
55,60,0,183.065845556251
98,0,0.1616850520833333,183.22753060833432
55,0,0,183.22753060833432
95,60,0.0013586979166666665,183.22888930625098
59,60,0,183.22888930625098
95,0,0.1616850520833333,183.3905743583343
59,0,0,183.3905743583343
96,60,0.0013586979166666665,183.39193305625096
62,60,0,183.39193305625096
96,0,0.1616850520833333,183.5536181083343
62,0,0,183.5536181083343
95,60,0.0013586979166666665,183.55497680625095
59,60,0,183.55497680625095
95,0,0.1616850520833333,183.71666185833428
59,0,0,183.71666185833428
91,60,0.0013586979166666665,183.71802055625093
55,60,0,183.71802055625093
91,0,0.1616850520833333,183.87970560833426
55,0,0,183.87970560833426
93,60,0.0013586979166666665,183.88106430625092
50,60,0,183.88106430625092
93,0,0.1616850520833333,184.04274935833425
50,0,0,184.04274935833425
91,60,0.0013586979166666665,184.0441080562509
43,60,0,184.0441080562509
91,0,0.1616850520833333,184.20579310833423
43,0,0,184.20579310833423
88,60,0.0013586979166666665,184.2071518062509
50,60,0,184.2071518062509
88,0,0.1616850520833333,184.36883685833422
50,0,0,184.36883685833422
90,60,0.0013586979166666665,184.37019555625088
43,60,0,184.37019555625088
90,0,0.1616850520833333,184.5318806083342
43,0,0,184.5318806083342
88,60,0.0013586979166666665,184.53323930625086
50,60,0,184.53323930625086
50,0,0.15353286458333332,184.6867721708342
88,0,0.008152187499999998,184.6949243583342
86,60,0.0013586979166666665,184.69628305625085
43,60,0,184.69628305625085
86,0,0.1616850520833333,184.85796810833418
43,0,0,184.85796810833418
88,60,0.0013586979166666665,184.85932680625083
50,60,0,184.85932680625083
88,0,0.1616850520833333,185.02101185833416
50,0,0,185.02101185833416
86,60,0.0013586979166666665,185.02237055625082
55,60,0,185.02237055625082
86,0,0.1616850520833333,185.18405560833415
55,0,0,185.18405560833415
83,60,0.0013586979166666665,185.1854143062508
59,60,0,185.1854143062508
83,0,0.1616850520833333,185.34709935833413
59,0,0,185.34709935833413
84,60,0.0013586979166666665,185.3484580562508
62,60,0,185.3484580562508
84,0,0.1616850520833333,185.51014310833412
62,0,0,185.51014310833412
83,60,0.0013586979166666665,185.51150180625078
59,60,0,185.51150180625078
83,0,0.1616850520833333,185.6731868583341
59,0,0,185.6731868583341
79,60,0.0013586979166666665,185.67454555625076
55,60,0,185.67454555625076
79,0,0.1616850520833333,185.8362306083341
55,0,0,185.8362306083341
81,60,0.0013586979166666665,185.83758930625075
50,60,0,185.83758930625075
81,0,0.1616850520833333,185.99927435833408
50,0,0,185.99927435833408
79,60,0.0013586979166666665,186.00063305625073
43,60,0,186.00063305625073
79,0,0.1616850520833333,186.16231810833406
43,0,0,186.16231810833406
76,60,0.0013586979166666665,186.16367680625072
50,60,0,186.16367680625072
76,0,0.1616850520833333,186.32536185833405
50,0,0,186.32536185833405
78,60,0.0013586979166666665,186.3267205562507
43,60,0,186.3267205562507
78,0,0.1616850520833333,186.48840560833403
43,0,0,186.48840560833403
76,60,0.0013586979166666665,186.4897643062507
50,60,0,186.4897643062507
76,0,0.15353286458333332,186.64329717083402
50,0,0,186.64329717083402
74,60,0.009510885416666665,186.65280805625068
43,60,0,186.65280805625068
74,0,0.15081546875,186.8036235250007
43,0,0.008152187499999998,186.8117757125007
76,60,0.0013586979166666665,186.81313441041735
50,60,0,186.81313441041735
76,0,0.15353286458333332,186.96666727500067
50,0,0.008152187499999998,186.97481946250068
74,90,0.0013586979166666665,186.97617816041733
54,60,0,186.97617816041733
74,0,0.1616850520833333,187.13786321250066
54,0,0,187.13786321250066
69,60,0.0013586979166666665,187.13922191041732
60,60,0,187.13922191041732
69,0,0.15353286458333332,187.29275477500065
60,0,0.008152187499999998,187.30090696250065
78,60,0.0013586979166666665,187.3022656604173
62,60,0,187.3022656604173
78,0,0.15353286458333332,187.45579852500063
62,0,0.008152187499999998,187.46395071250063
76,60,0.0013586979166666665,187.4653094104173
60,60,0,187.4653094104173
76,0,0.15353286458333332,187.61884227500062
60,0,0.008152187499999998,187.62699446250062
74,60,0.0013586979166666665,187.62835316041728
54,60,0,187.62835316041728
74,0,0.15353286458333332,187.7818860250006
54,0,0.008152187499999998,187.7900382125006
76,60,0.0013586979166666665,187.79139691041726
50,60,0,187.79139691041726
76,0,0.15353286458333332,187.9449297750006
50,0,0.008152187499999998,187.9530819625006
74,90,0.0013586979166666665,187.95444066041725
43,60,0,187.95444066041725
74,0,0.1616850520833333,188.11612571250058
43,0,0,188.11612571250058
69,60,0.0013586979166666665,188.11748441041723
50,60,0,188.11748441041723
69,0,0.15353286458333332,188.27101727500056
50,0,0.008152187499999998,188.27916946250056
78,60,0.0013586979166666665,188.28052816041722
43,60,0,188.28052816041722
78,0,0.15353286458333332,188.43406102500055
43,0,0.008152187499999998,188.44221321250055
76,60,0.0013586979166666665,188.4435719104172
50,60,0,188.4435719104172
76,0,0.15353286458333332,188.59710477500053
50,0,0,188.59710477500053
74,60,0.009510885416666665,188.6066156604172
43,60,0,188.6066156604172
74,0,0.15353286458333332,188.76014852500052
43,0,0.008152187499999998,188.76830071250052
76,60,0.0013586979166666665,188.76965941041718
50,60,0,188.76965941041718
76,0,0.15353286458333332,188.9231922750005
50,0,0.008152187499999998,188.9313444625005
74,90,0.0013586979166666665,188.93270316041716
54,60,0,188.93270316041716
74,0,0.1616850520833333,189.0943882125005
54,0,0,189.0943882125005
71,60,0.0013586979166666665,189.09574691041715
60,60,0,189.09574691041715
71,0,0.15353286458333332,189.24927977500047
60,0,0.008152187499999998,189.25743196250048
78,60,0.0013586979166666665,189.25879066041713
62,60,0,189.25879066041713
78,0,0.15353286458333332,189.41232352500046
62,0,0.008152187499999998,189.42047571250046
76,60,0.0013586979166666665,189.42183441041712
60,60,0,189.42183441041712
76,0,0.15353286458333332,189.57536727500045
60,0,0.008152187499999998,189.58351946250045
74,60,0.0013586979166666665,189.5848781604171
54,60,0,189.5848781604171
74,0,0.15353286458333332,189.73841102500043
54,0,0.008152187499999998,189.74656321250043
76,60,0.0013586979166666665,189.7479219104171
50,60,0,189.7479219104171
76,0,0.15353286458333332,189.90145477500042
50,0,0.008152187499999998,189.90960696250042
74,90,0.0013586979166666665,189.91096566041708
43,60,0,189.91096566041708
74,0,0.1616850520833333,190.0726507125004
43,0,0,190.0726507125004
66,60,0.0013586979166666665,190.07400941041706
50,60,0,190.07400941041706
66,0,0.15353286458333332,190.2275422750004
50,0,0.008152187499999998,190.2356944625004
78,60,0.0013586979166666665,190.23705316041705
43,60,0,190.23705316041705
78,0,0.15353286458333332,190.39058602500037
43,0,0.008152187499999998,190.39873821250038
76,60,0.0013586979166666665,190.40009691041703
50,60,0,190.40009691041703
76,0,0.15353286458333332,190.55362977500036
50,0,0,190.55362977500036
67,60,0.009510885416666665,190.56314066041702
74,60,0,190.56314066041702
43,60,0,190.56314066041702
67,0,0.15081546875,190.71395612916703
74,0,0,190.71395612916703
43,0,0.008152187499999998,190.72210831666703
100,60,0.0013586979166666665,190.7234670145837
50,60,0,190.7234670145837
100,0,0.1616850520833333,190.88515206666702
50,0,0,190.88515206666702
98,60,0.0013586979166666665,190.88651076458368
55,60,0,190.88651076458368
98,0,0.1616850520833333,191.048195816667
55,0,0,191.048195816667
95,60,0.0013586979166666665,191.04955451458366
59,60,0,191.04955451458366
95,0,0.1616850520833333,191.211239566667
59,0,0,191.211239566667
96,60,0.0013586979166666665,191.21259826458365
62,60,0,191.21259826458365
96,0,0.1616850520833333,191.37428331666698
62,0,0,191.37428331666698
95,60,0.0013586979166666665,191.37564201458363
59,60,0,191.37564201458363
95,0,0.1616850520833333,191.53732706666696
59,0,0,191.53732706666696
91,60,0.0013586979166666665,191.53868576458362
55,60,0,191.53868576458362
91,0,0.1616850520833333,191.70037081666695
55,0,0,191.70037081666695
93,60,0.0013586979166666665,191.7017295145836
50,60,0,191.7017295145836
93,0,0.1616850520833333,191.86341456666693
50,0,0,191.86341456666693
91,60,0.0013586979166666665,191.8647732645836
43,60,0,191.8647732645836
91,0,0.1616850520833333,192.02645831666692
43,0,0,192.02645831666692
88,60,0.0013586979166666665,192.02781701458358
50,60,0,192.02781701458358
88,0,0.1616850520833333,192.1895020666669
50,0,0,192.1895020666669
90,60,0.0013586979166666665,192.19086076458356
43,60,0,192.19086076458356
90,0,0.1616850520833333,192.3525458166669
43,0,0,192.3525458166669
88,60,0.0013586979166666665,192.35390451458355
50,60,0,192.35390451458355
50,0,0.15353286458333332,192.50743737916687
88,0,0.008152187499999998,192.51558956666688
86,60,0.0013586979166666665,192.51694826458353
43,60,0,192.51694826458353
86,0,0.1616850520833333,192.67863331666686
43,0,0,192.67863331666686
88,60,0.0013586979166666665,192.67999201458352
50,60,0,192.67999201458352
88,0,0.1616850520833333,192.84167706666685
50,0,0,192.84167706666685
86,60,0.0013586979166666665,192.8430357645835
55,60,0,192.8430357645835
86,0,0.1616850520833333,193.00472081666683
55,0,0,193.00472081666683
83,60,0.0013586979166666665,193.0060795145835
59,60,0,193.0060795145835
83,0,0.1616850520833333,193.16776456666682
59,0,0,193.16776456666682
84,60,0.0013586979166666665,193.16912326458348
62,60,0,193.16912326458348
84,0,0.1616850520833333,193.3308083166668
62,0,0,193.3308083166668
83,60,0.0013586979166666665,193.33216701458346
59,60,0,193.33216701458346
83,0,0.1616850520833333,193.4938520666668
59,0,0,193.4938520666668
79,60,0.0013586979166666665,193.49521076458345
55,60,0,193.49521076458345
79,0,0.1616850520833333,193.65689581666678
55,0,0,193.65689581666678
81,60,0.0013586979166666665,193.65825451458343
50,60,0,193.65825451458343
81,0,0.1616850520833333,193.81993956666676
50,0,0,193.81993956666676
79,60,0.0013586979166666665,193.82129826458342
43,60,0,193.82129826458342
79,0,0.1616850520833333,193.98298331666675
43,0,0,193.98298331666675
76,60,0.0013586979166666665,193.9843420145834
50,60,0,193.9843420145834
76,0,0.1616850520833333,194.14602706666673
50,0,0,194.14602706666673
78,60,0.0013586979166666665,194.1473857645834
43,60,0,194.1473857645834
78,0,0.1616850520833333,194.30907081666672
43,0,0,194.30907081666672
76,60,0.0013586979166666665,194.31042951458338
50,60,0,194.31042951458338
76,0,0.15353286458333332,194.4639623791667
50,0,0,194.4639623791667
74,60,0.009510885416666665,194.47347326458336
43,60,0,194.47347326458336
74,0,0.15081546875,194.62428873333337
43,0,0.008152187499999998,194.63244092083337
76,60,0.0013586979166666665,194.63379961875003
50,60,0,194.63379961875003
76,0,0.15353286458333332,194.78733248333336
50,0,0.008152187499999998,194.79548467083336
74,90,0.0013586979166666665,194.79684336875002
54,60,0,194.79684336875002
74,0,0.1616850520833333,194.95852842083335
54,0,0,194.95852842083335
69,60,0.0013586979166666665,194.95988711875
60,60,0,194.95988711875
69,0,0.15353286458333332,195.11341998333333
60,0,0.008152187499999998,195.12157217083333
78,60,0.0013586979166666665,195.12293086875
62,60,0,195.12293086875
78,0,0.15353286458333332,195.27646373333332
62,0,0.008152187499999998,195.28461592083332
76,60,0.0013586979166666665,195.28597461874998
60,60,0,195.28597461874998
76,0,0.15353286458333332,195.4395074833333
60,0,0.008152187499999998,195.4476596708333
74,60,0.0013586979166666665,195.44901836874996
54,60,0,195.44901836874996
74,0,0.15353286458333332,195.6025512333333
54,0,0.008152187499999998,195.6107034208333
76,60,0.0013586979166666665,195.61206211874995
50,60,0,195.61206211874995
76,0,0.15353286458333332,195.76559498333327
50,0,0.008152187499999998,195.77374717083327
74,90,0.0013586979166666665,195.77510586874993
43,60,0,195.77510586874993
74,0,0.1616850520833333,195.93679092083326
43,0,0,195.93679092083326
69,60,0.0013586979166666665,195.93814961874992
50,60,0,195.93814961874992
69,0,0.15353286458333332,196.09168248333324
50,0,0.008152187499999998,196.09983467083325
78,60,0.0013586979166666665,196.1011933687499
43,60,0,196.1011933687499
78,0,0.15353286458333332,196.25472623333323
43,0,0.008152187499999998,196.26287842083323
76,60,0.0013586979166666665,196.2642371187499
50,60,0,196.2642371187499
76,0,0.15353286458333332,196.41776998333322
50,0,0,196.41776998333322
74,60,0.009510885416666665,196.42728086874988
43,60,0,196.42728086874988
74,0,0.15353286458333332,196.5808137333332
43,0,0.008152187499999998,196.5889659208332
76,60,0.0013586979166666665,196.59032461874986
50,60,0,196.59032461874986
76,0,0.15353286458333332,196.7438574833332
50,0,0.008152187499999998,196.7520096708332
74,90,0.0013586979166666665,196.75336836874985
54,60,0,196.75336836874985
74,0,0.1616850520833333,196.91505342083317
54,0,0,196.91505342083317
71,60,0.0013586979166666665,196.91641211874983
60,60,0,196.91641211874983
71,0,0.15353286458333332,197.06994498333316
60,0,0.008152187499999998,197.07809717083316
78,60,0.0013586979166666665,197.07945586874982
62,60,0,197.07945586874982
78,0,0.15353286458333332,197.23298873333314
62,0,0.008152187499999998,197.24114092083315
76,60,0.0013586979166666665,197.2424996187498
60,60,0,197.2424996187498
76,0,0.15353286458333332,197.39603248333313
60,0,0.008152187499999998,197.40418467083313
74,60,0.0013586979166666665,197.4055433687498
54,60,0,197.4055433687498
74,0,0.15353286458333332,197.55907623333312
54,0,0.008152187499999998,197.56722842083312
76,60,0.0013586979166666665,197.56858711874978
50,60,0,197.56858711874978
76,0,0.15353286458333332,197.7221199833331
50,0,0.008152187499999998,197.7302721708331
74,90,0.0013586979166666665,197.73163086874976
43,60,0,197.73163086874976
74,0,0.1616850520833333,197.8933159208331
43,0,0,197.8933159208331
69,60,0.0013586979166666665,197.89467461874975
50,60,0,197.89467461874975
69,0,0.15353286458333332,198.04820748333307
50,0,0.008152187499999998,198.05635967083307
78,60,0.0013586979166666665,198.05771836874973
43,60,0,198.05771836874973
78,0,0.15353286458333332,198.21125123333306
43,0,0.008152187499999998,198.21940342083306
76,60,0.0013586979166666665,198.22076211874972
50,60,0,198.22076211874972
76,0,0.15353286458333332,198.37429498333304
50,0,0,198.37429498333304
74,60,0.009510885416666665,198.3838058687497
43,60,0,198.3838058687497
74,0,0.15081546875,198.53462133749971
43,0,0.008152187499999998,198.54277352499972
76,60,0.0013586979166666665,198.54413222291637
50,60,0,198.54413222291637
76,0,0.15353286458333332,198.6976650874997
50,0,0.008152187499999998,198.7058172749997
74,90,0.0013586979166666665,198.70717597291636
55,60,0,198.70717597291636
74,0,0.1616850520833333,198.8688610249997
55,0,0,198.8688610249997
67,60,0.0013586979166666665,198.87021972291635
59,60,0,198.87021972291635
67,0,0.15353286458333332,199.02375258749967
59,0,0.008152187499999998,199.03190477499967
79,60,0.0013586979166666665,199.03326347291633
62,60,0,199.03326347291633
79,0,0.15353286458333332,199.18679633749966
62,0,0.008152187499999998,199.19494852499966
76,60,0.0013586979166666665,199.19630722291632
59,60,0,199.19630722291632
76,0,0.15353286458333332,199.34984008749964
59,0,0.008152187499999998,199.35799227499965
74,60,0.0013586979166666665,199.3593509729163
55,60,0,199.3593509729163
74,0,0.15353286458333332,199.51288383749963
55,0,0.008152187499999998,199.52103602499963
76,60,0.0013586979166666665,199.5223947229163
50,60,0,199.5223947229163
76,0,0.15353286458333332,199.67592758749961
50,0,0.008152187499999998,199.68407977499962
74,90,0.0013586979166666665,199.68543847291627
43,60,0,199.68543847291627
74,0,0.1616850520833333,199.8471235249996
43,0,0,199.8471235249996
71,60,0.0013586979166666665,199.84848222291626
50,60,0,199.84848222291626
71,0,0.15353286458333332,200.0020150874996
50,0,0.008152187499999998,200.0101672749996
83,60,0.0013586979166666665,200.01152597291625
43,60,0,200.01152597291625
83,0,0.15353286458333332,200.16505883749957
43,0,0.008152187499999998,200.17321102499957
79,60,0.0013586979166666665,200.17456972291623
50,60,0,200.17456972291623
79,0,0.15353286458333332,200.32810258749956
50,0,0,200.32810258749956
76,60,0.009510885416666665,200.33761347291622
43,60,0,200.33761347291622
76,0,0.15353286458333332,200.49114633749954
43,0,0.008152187499999998,200.49929852499955
78,60,0.0013586979166666665,200.5006572229162
50,60,0,200.5006572229162
78,0,0.15353286458333332,200.65419008749953
50,0,0.008152187499999998,200.66234227499953
76,60,0.0013586979166666665,200.6637009729162
55,60,0,200.6637009729162
76,0,0.15353286458333332,200.81723383749951
55,0,0.008152187499999998,200.82538602499952
74,90,0.0013586979166666665,200.82674472291617
59,60,0,200.82674472291617
74,0,0.1616850520833333,200.9884297749995
59,0,0,200.9884297749995
86,60,0.0013586979166666665,200.98978847291616
62,60,0,200.98978847291616
86,0,0.15353286458333332,201.1433213374995
62,0,0.008152187499999998,201.1514735249995
83,60,0.0013586979166666665,201.15283222291615
59,60,0,201.15283222291615
83,0,0.15353286458333332,201.30636508749947
59,0,0.008152187499999998,201.31451727499947
81,60,0.0013586979166666665,201.31587597291613
55,60,0,201.31587597291613
81,0,0.15353286458333332,201.46940883749946
55,0,0.008152187499999998,201.47756102499946
83,60,0.0013586979166666665,201.47891972291612
50,60,0,201.47891972291612
83,0,0.15353286458333332,201.63245258749944
50,0,0.008152187499999998,201.64060477499945
81,60,0.0013586979166666665,201.6419634729161
43,60,0,201.6419634729161
81,0,0.15353286458333332,201.79549633749943
43,0,0.008152187499999998,201.80364852499943
79,60,0.0013586979166666665,201.8050072229161
50,60,0,201.8050072229161
79,0,0.15353286458333332,201.95854008749941
50,0,0.008152187499999998,201.96669227499942
91,60,0.0013586979166666665,201.96805097291607
43,60,0,201.96805097291607
91,0,0.15353286458333332,202.1215838374994
43,0,0.008152187499999998,202.1297360249994
88,60,0.0013586979166666665,202.13109472291606
50,60,0,202.13109472291606
88,0,0.15353286458333332,202.2846275874994
50,0,0,202.2846275874994
86,60,0.009510885416666665,202.29413847291605
43,60,0,202.29413847291605
86,0,0.15353286458333332,202.44767133749937
43,0,0.008152187499999998,202.45582352499937
88,60,0.0013586979166666665,202.45718222291603
50,60,0,202.45718222291603
88,0,0.15353286458333332,202.61071508749936
50,0,0.008152187499999998,202.61886727499936
86,60,0.0013586979166666665,202.62022597291602
55,60,0,202.62022597291602
86,0,0.15353286458333332,202.77375883749934
55,0,0.008152187499999998,202.78191102499935
83,60,0.0013586979166666665,202.783269722916
59,60,0,202.783269722916
83,0,0.15353286458333332,202.93680258749933
59,0,0.008152187499999998,202.94495477499933
95,60,0.0013586979166666665,202.946313472916
62,60,0,202.946313472916
95,0,0.15353286458333332,203.09984633749932
62,0,0.008152187499999998,203.10799852499932
91,60,0.0013586979166666665,203.10935722291597
59,60,0,203.10935722291597
91,0,0.15353286458333332,203.2628900874993
59,0,0.008152187499999998,203.2710422749993
88,60,0.0013586979166666665,203.27240097291596
55,60,0,203.27240097291596
88,0,0.15353286458333332,203.4259338374993
55,0,0.008152187499999998,203.4340860249993
90,60,0.0013586979166666665,203.43544472291595
50,60,0,203.43544472291595
90,0,0.15353286458333332,203.58897758749927
50,0,0.008152187499999998,203.59712977499927
88,60,0.0013586979166666665,203.59848847291593
43,60,0,203.59848847291593
88,0,0.15353286458333332,203.75202133749926
43,0,0.008152187499999998,203.76017352499926
86,60,0.0013586979166666665,203.76153222291592
50,60,0,203.76153222291592
86,0,0.15353286458333332,203.91506508749924
50,0,0.008152187499999998,203.92321727499925
98,60,0.0013586979166666665,203.9245759729159
43,60,0,203.9245759729159
98,0,0.15353286458333332,204.07810883749923
43,0,0.008152187499999998,204.08626102499923
95,60,0.0013586979166666665,204.0876197229159
50,60,0,204.0876197229159
95,0,0.15353286458333332,204.24115258749922
50,0,0,204.24115258749922
93,60,0.009510885416666665,204.25066347291587
43,60,0,204.25066347291587
93,0,0.15353286458333332,204.4041963374992
43,0,0.008152187499999998,204.4123485249992
95,60,0.0013586979166666665,204.41370722291586
50,60,0,204.41370722291586
95,0,0.15353286458333332,204.5672400874992
50,0,0.008152187499999998,204.5753922749992
93,60,0.0013586979166666665,204.57675097291585
55,60,0,204.57675097291585
93,0,0.15353286458333332,204.73028383749917
55,0,0.008152187499999998,204.73843602499917
91,60,0.0013586979166666665,204.73979472291583
59,60,0,204.73979472291583
91,0,0.15353286458333332,204.89332758749916
59,0,0.008152187499999998,204.90147977499916
98,60,0.0013586979166666665,204.90283847291582
62,60,0,204.90283847291582
98,0,0.15353286458333332,205.05637133749914
62,0,0.008152187499999998,205.06452352499915
95,60,0.0013586979166666665,205.0658822229158
59,60,0,205.0658822229158
95,0,0.15353286458333332,205.21941508749913
59,0,0.008152187499999998,205.22756727499913
93,60,0.0013586979166666665,205.2289259729158
55,60,0,205.2289259729158
93,0,0.15353286458333332,205.38245883749912
55,0,0.008152187499999998,205.39061102499912
95,60,0.0013586979166666665,205.39196972291577
50,60,0,205.39196972291577
95,0,0.15353286458333332,205.5455025874991
50,0,0.008152187499999998,205.5536547749991
93,60,0.0013586979166666665,205.55501347291576
43,60,0,205.55501347291576
93,0,0.15353286458333332,205.7085463374991
43,0,0.008152187499999998,205.7166985249991
91,60,0.0013586979166666665,205.71805722291575
50,60,0,205.71805722291575
91,0,0.15353286458333332,205.87159008749907
50,0,0.008152187499999998,205.87974227499907
100,60,0.0013586979166666665,205.88110097291573
43,60,0,205.88110097291573
100,0,0.15353286458333332,206.03463383749906
43,0,0.008152187499999998,206.04278602499906
97,60,0.0013586979166666665,206.04414472291572
50,60,0,206.04414472291572
97,0,0.15353286458333332,206.19767758749904
50,0,0,206.19767758749904
98,60,0.009510885416666665,206.2071884729157
43,60,0,206.2071884729157
43,0,0.1616850520833333,206.36887352499903
50,60,0.0013586979166666665,206.3702322229157
50,0,0.1616850520833333,206.53191727499902
55,60,0.0013586979166666665,206.53327597291567
55,0,0.1616850520833333,206.694961024999
59,60,0.0013586979166666665,206.69631972291566
98,0,0.12907630208333332,206.82539602499898
59,0,0.03260874999999999,206.858004774999
62,60,0.0013586979166666665,206.85936347291565
62,0,0.1616850520833333,207.02104852499897
59,60,0.0013586979166666665,207.02240722291563
59,0,0.1616850520833333,207.18409227499896
88,40,0.0013586979166666665,207.18545097291562
55,40,0,207.18545097291562
88,0,0.1616850520833333,207.34713602499895
55,0,0,207.34713602499895
90,40,0.0013586979166666665,207.3484947229156
50,40,0,207.3484947229156
90,0,0.1616850520833333,207.51017977499893
50,0,0,207.51017977499893
88,40,0.0013586979166666665,207.5115384729156
43,40,0,207.5115384729156
88,0,0.1616850520833333,207.67322352499892
43,0,0,207.67322352499892
86,40,0.0013586979166666665,207.67458222291557
50,40,0,207.67458222291557
86,0,0.1616850520833333,207.8362672749989
50,0,0,207.8362672749989
95,40,0.0013586979166666665,207.83762597291556
43,40,0,207.83762597291556
95,0,0.1616850520833333,207.9993110249989
43,0,0,207.9993110249989
91,40,0.0013586979166666665,208.00066972291555
50,40,0,208.00066972291555
50,0,0.15353286458333332,208.15420258749887
91,0,0.008152187499999998,208.16235477499887
91,40,0.0013586979166666665,208.16371347291553
43,40,0,208.16371347291553
43,0,0.1616850520833333,208.32539852499886
50,40,0.0013586979166666665,208.32675722291552
50,0,0.1616850520833333,208.48844227499885
55,40,0.0013586979166666665,208.4898009729155
55,0,0.1616850520833333,208.65148602499883
59,40,0.0013586979166666665,208.6528447229155
91,0,0.12907630208333332,208.7819210249988
59,0,0.03260874999999999,208.81452977499882
62,40,0.0013586979166666665,208.81588847291547
62,0,0.1616850520833333,208.9775735249988
59,40,0.0013586979166666665,208.97893222291546
59,0,0.1616850520833333,209.1406172749988
55,40,0.0013586979166666665,209.14197597291545
55,0,0.1616850520833333,209.30366102499877
50,40,0,209.30366102499877
50,0,0.20950768125,209.51316870624876
43,40,0.00176056875,209.51492927499876
43,0,0.20950768125,209.72443695624875
50,40,0.00176056875,209.72619752499875
50,0,0.20950768125,209.93570520624874
43,40,0.00176056875,209.93746577499874
43,0,0.20950768125,210.14697345624873
50,40,0.00176056875,210.14873402499873
50,0,0.19894426875,210.34767829374874
64,70,0,210.34767829374874
72,70,0,210.34767829374874
55,70,0,210.34767829374874
48,70,0,210.34767829374874
72,0,1.7062462083333334,212.05392450208208
48,0,0,212.05392450208208
62,70,0.0012499979166666665,212.05517449999874
67,70,0,212.05517449999874
47,70,0,212.05517449999874
64,0,0.5087491520833333,212.56392365208208
62,0,0.059999899999999995,212.6239235520821
67,0,0,212.6239235520821
47,0,0,212.6239235520821
71,70,0.031249947916666663,212.65517349999877
48,70,0,212.65517349999877
55,0,0.47874920208333327,213.1339227020821
71,0,0.08999984999999999,213.2239225520821
48,0,0,213.2239225520821
71,105,0.031249947916666663,213.25517249999876
60,70,0,213.25517249999876
54,70,0,213.25517249999876
50,70,0,213.25517249999876
71,0,0.2987495020833333,213.5539220020821
69,70,0.0012499979166666665,213.55517199999875
60,0,0.2687495520833333,213.82392155208208
54,0,0,213.82392155208208
50,0,0,213.82392155208208
69,0,0.014999974999999999,213.83892152708208
67,70,0.016249972916666664,213.85517149999873
59,70,0,213.85517149999873
55,70,0,213.85517149999873
43,70,0,213.85517149999873
67,0,0.5687490520833333,214.42392055208205
59,0,0,214.42392055208205
55,0,0,214.42392055208205
43,0,0,214.42392055208205
71,70,0,214.42392055208205
60,70,0,214.42392055208205
66,70,0,214.42392055208205
38,70,0,214.42392055208205
71,0,1.1324981124999998,215.55641866458205
38,0,0,215.55641866458205
71,70,0,215.55641866458205
50,70,0,215.55641866458205
62,70,0,215.55641866458205
71,0,0.5074991541666666,216.06391781874873
69,70,0,216.06391781874873
60,0,0.4174993041666666,216.4814171229154
66,0,0,216.4814171229154
50,0,0.059999899999999995,216.5414170229154
62,0,0.059999899999999995,216.6014169229154
69,0,0.029999949999999997,216.6314168729154
67,70,0,216.6314168729154
31,70,0.0012499979166666665,216.63266687083205
67,0,0.13374977708333333,216.76641664791538
43,70,0.016249972916666664,216.78266662083203
50,70,0.14999975,216.93266637083204
67,70,0.2999995,217.23266587083205
59,70,0,217.23266587083205
31,0,2.1249955729166667,219.35766144374873
43,0,0.59999875,219.95766019374872
50,0,0.59999875,220.55765894374872
67,0,0.05999987500000001,220.6176588187487
59,0,0.029999937500000004,220.64765875624872
64,64,0,0.0
64,0,0.49895833333333334,0.49895833333333334
69,64,0,0.49895833333333334
33,64,0,0.49895833333333334
69,0,0.24687499999999998,0.7458333333333333
71,64,0.0010416666666666667,0.7468750000000001
71,0,0.24895833333333334,0.9958333333333333
33,0,0,0.9958333333333333
72,64,0.0010416666666666667,0.9968750000000001
57,64,0,0.9968750000000001
60,64,0,0.9968750000000001
64,64,0,0.9968750000000001
72,0,0.49895833333333334,1.4958333333333333
57,0,0,1.4958333333333333
60,0,0,1.4958333333333333
64,0,0,1.4958333333333333
72,64,0.0010416666666666667,1.496875
57,64,0,1.496875
60,64,0,1.496875
64,64,0,1.496875
72,0,0.49895833333333334,1.9958333333333333
57,0,0,1.9958333333333333
60,0,0,1.9958333333333333
64,0,0,1.9958333333333333
74,64,0.0010416666666666667,1.996875
38,64,0,1.996875
74,0,0.24687499999999998,2.24375
76,64,0.0010416666666666667,2.2447916666666665
76,0,0.24895833333333334,2.49375
38,0,0,2.49375
77,64,0.0010416666666666667,2.4947916666666665
57,64,0,2.4947916666666665
62,64,0,2.4947916666666665
65,64,0,2.4947916666666665
57,0,0.49895833333333334,2.99375
62,0,0,2.99375
65,0,0,2.99375
57,64,0.0010416666666666667,2.9947916666666665
62,64,0,2.9947916666666665
65,64,0,2.9947916666666665
77,0,0.49895833333333334,3.49375
57,0,0,3.49375
62,0,0,3.49375
65,0,0,3.49375
71,64,0.0010416666666666667,3.4947916666666665
43,64,0,3.4947916666666665
71,0,0.24687499999999998,3.7416666666666667
72,64,0.0010416666666666667,3.7427083333333333
72,0,0.24895833333333334,3.9916666666666667
43,0,0,3.9916666666666667
74,64,0.0010416666666666667,3.9927083333333333
55,64,0,3.9927083333333333
59,64,0,3.9927083333333333
65,64,0,3.9927083333333333
74,0,0.24895833333333334,4.241666666666666
81,64,0.0010416666666666667,4.242708333333333
81,0,0.24895833333333334,4.491666666666666
55,0,0,4.491666666666666
59,0,0,4.491666666666666
65,0,0,4.491666666666666
79,64,0.0010416666666666667,4.492708333333333
55,64,0,4.492708333333333
59,64,0,4.492708333333333
65,64,0,4.492708333333333
79,0,0.24895833333333334,4.741666666666666
77,64,0.0010416666666666667,4.742708333333333
77,0,0.24895833333333334,4.991666666666666
55,0,0,4.991666666666666
59,0,0,4.991666666666666
65,0,0,4.991666666666666
76,64,0.0010416666666666667,4.992708333333333
48,64,0,4.992708333333333
76,0,0.059375,5.052083333333333
77,64,0.0010416666666666667,5.053125
77,0,0.06145833333333333,5.114583333333333
76,64,0.0010416666666666667,5.115625
76,0,0.12395833333333334,5.239583333333333
75,64,0.0010416666666666667,5.240625
75,0,0.24895833333333334,5.489583333333333
48,0,0,5.489583333333333
76,64,0.0010416666666666667,5.490625
55,64,0,5.490625
60,64,0,5.490625
64,64,0,5.490625
55,0,0.49895833333333334,5.989583333333333
60,0,0,5.989583333333333
64,0,0,5.989583333333333
55,64,0.0010416666666666667,5.990625
60,64,0,5.990625
64,64,0,5.990625
76,0,0.49895833333333334,6.489583333333333
55,0,0,6.489583333333333
60,0,0,6.489583333333333
64,0,0,6.489583333333333
69,64,0.0010416666666666667,6.490625
45,64,0,6.490625
69,0,0.24687499999999998,6.7375
71,64,0.0010416666666666667,6.738541666666666
71,0,0.24895833333333334,6.9875
45,0,0,6.9875
72,64,0.0010416666666666667,6.988541666666666
57,64,0,6.988541666666666
60,64,0,6.988541666666666
64,64,0,6.988541666666666
72,0,0.49895833333333334,7.4875
57,0,0,7.4875
60,0,0,7.4875
64,0,0,7.4875
72,64,0.0010416666666666667,7.488541666666666
57,64,0,7.488541666666666
60,64,0,7.488541666666666
64,64,0,7.488541666666666
72,0,0.49895833333333334,7.9875
57,0,0,7.9875
60,0,0,7.9875
64,0,0,7.9875
74,64,0.0010416666666666667,7.988541666666666
38,64,0,7.988541666666666
74,0,0.24687499999999998,8.235416666666666
76,64,0.0010416666666666667,8.236458333333333
76,0,0.24895833333333334,8.485416666666666
38,0,0,8.485416666666666
77,64,0.0010416666666666667,8.486458333333333
57,64,0,8.486458333333333
62,64,0,8.486458333333333
65,64,0,8.486458333333333
57,0,0.49895833333333334,8.985416666666666
62,0,0,8.985416666666666
65,0,0,8.985416666666666
57,64,0.0010416666666666667,8.986458333333333
62,64,0,8.986458333333333
65,64,0,8.986458333333333
77,0,0.49895833333333334,9.485416666666666
57,0,0,9.485416666666666
62,0,0,9.485416666666666
65,0,0,9.485416666666666
71,64,0.0010416666666666667,9.486458333333333
43,64,0,9.486458333333333
71,0,0.24687499999999998,9.733333333333333
72,64,0.0010416666666666667,9.734375
72,0,0.24895833333333334,9.983333333333333
43,0,0,9.983333333333333
74,64,0.0010416666666666667,9.984375
55,64,0,9.984375
59,64,0,9.984375
65,64,0,9.984375
74,0,0.24895833333333334,10.233333333333333
81,64,0.0010416666666666667,10.234375
81,0,0.24895833333333334,10.483333333333333
55,0,0,10.483333333333333
59,0,0,10.483333333333333
65,0,0,10.483333333333333
79,64,0.0010416666666666667,10.484375
55,64,0,10.484375
59,64,0,10.484375
65,64,0,10.484375
79,0,0.24895833333333334,10.733333333333333
71,64,0.0010416666666666667,10.734375
71,0,0.24895833333333334,10.983333333333333
55,0,0,10.983333333333333
59,0,0,10.983333333333333
65,0,0,10.983333333333333
72,64,0.0010416666666666667,10.984375
48,64,0,10.984375
72,0,0.496875,11.48125
48,0,0,11.48125
55,64,0.0010416666666666667,11.482291666666667
60,64,0,11.482291666666667
64,64,0,11.482291666666667
55,0,0.49895833333333334,11.98125
60,0,0,11.98125
64,0,0,11.98125
64,64,0.0010416666666666667,11.982291666666667
64,0,0.4979166666666667,12.480208333333334
69,64,0.0010416666666666667,12.481250000000001
33,64,0,12.481250000000001
69,0,0.24687499999999998,12.728125
71,64,0.0010416666666666667,12.729166666666668
71,0,0.24895833333333334,12.978125
33,0,0,12.978125
72,64,0.0010416666666666667,12.979166666666668
57,64,0,12.979166666666668
60,64,0,12.979166666666668
64,64,0,12.979166666666668
72,0,0.49895833333333334,13.478125
57,0,0,13.478125
60,0,0,13.478125
64,0,0,13.478125
72,64,0.0010416666666666667,13.479166666666668
57,64,0,13.479166666666668
60,64,0,13.479166666666668
64,64,0,13.479166666666668
72,0,0.49895833333333334,13.978125
57,0,0,13.978125
60,0,0,13.978125
64,0,0,13.978125
74,64,0.0010416666666666667,13.979166666666668
38,64,0,13.979166666666668
74,0,0.24687499999999998,14.226041666666667
76,64,0.0010416666666666667,14.227083333333335
76,0,0.24895833333333334,14.476041666666667
38,0,0,14.476041666666667
77,64,0.0010416666666666667,14.477083333333335
57,64,0,14.477083333333335
62,64,0,14.477083333333335
65,64,0,14.477083333333335
57,0,0.49895833333333334,14.976041666666667
62,0,0,14.976041666666667
65,0,0,14.976041666666667
57,64,0.0010416666666666667,14.977083333333335
62,64,0,14.977083333333335
65,64,0,14.977083333333335
77,0,0.49895833333333334,15.476041666666667
57,0,0,15.476041666666667
62,0,0,15.476041666666667
65,0,0,15.476041666666667
71,64,0.0010416666666666667,15.477083333333335
43,64,0,15.477083333333335
71,0,0.24687499999999998,15.723958333333334
72,64,0.0010416666666666667,15.725000000000001
72,0,0.24895833333333334,15.973958333333334
43,0,0,15.973958333333334
74,64,0.0010416666666666667,15.975000000000001
55,64,0,15.975000000000001
59,64,0,15.975000000000001
65,64,0,15.975000000000001
74,0,0.24895833333333334,16.223958333333336
81,64,0.0010416666666666667,16.225
81,0,0.24895833333333334,16.473958333333336
55,0,0,16.473958333333336
59,0,0,16.473958333333336
65,0,0,16.473958333333336
79,64,0.0010416666666666667,16.475
55,64,0,16.475
59,64,0,16.475
65,64,0,16.475
79,0,0.24895833333333334,16.723958333333336
77,64,0.0010416666666666667,16.725
77,0,0.24895833333333334,16.973958333333336
55,0,0,16.973958333333336
59,0,0,16.973958333333336
65,0,0,16.973958333333336
76,64,0.0010416666666666667,16.975
48,64,0,16.975
76,0,0.059375,17.034375
77,64,0.0010416666666666667,17.035416666666666
77,0,0.06145833333333333,17.096875
76,64,0.0010416666666666667,17.097916666666666
76,0,0.12395833333333334,17.221875
75,64,0.0010416666666666667,17.222916666666666
75,0,0.24895833333333334,17.471875
48,0,0,17.471875
76,64,0.0010416666666666667,17.472916666666666
55,64,0,17.472916666666666
60,64,0,17.472916666666666
64,64,0,17.472916666666666
55,0,0.49895833333333334,17.971875
60,0,0,17.971875
64,0,0,17.971875
55,64,0.0010416666666666667,17.972916666666666
60,64,0,17.972916666666666
64,64,0,17.972916666666666
76,0,0.49895833333333334,18.471875
55,0,0,18.471875
60,0,0,18.471875
64,0,0,18.471875
72,64,0.0010416666666666667,18.472916666666666
45,64,0,18.472916666666666
72,0,0.24687499999999998,18.719791666666666
74,64,0.0010416666666666667,18.72083333333333
74,0,0.24895833333333334,18.969791666666666
45,0,0,18.969791666666666
76,64,0.0010416666666666667,18.97083333333333
57,64,0,18.97083333333333
60,64,0,18.97083333333333
64,64,0,18.97083333333333
76,0,0.49895833333333334,19.469791666666666
57,0,0,19.469791666666666
60,0,0,19.469791666666666
64,0,0,19.469791666666666
76,64,0.0010416666666666667,19.47083333333333
57,64,0,19.47083333333333
60,64,0,19.47083333333333
64,64,0,19.47083333333333
76,0,0.49895833333333334,19.969791666666666
57,0,0,19.969791666666666
60,0,0,19.969791666666666
64,0,0,19.969791666666666
77,64,0.0010416666666666667,19.97083333333333
38,64,0,19.97083333333333
77,0,0.24687499999999998,20.21770833333333
79,64,0.0010416666666666667,20.218749999999996
79,0,0.24895833333333334,20.46770833333333
38,0,0,20.46770833333333
81,64,0.0010416666666666667,20.468749999999996
57,64,0,20.468749999999996
62,64,0,20.468749999999996
65,64,0,20.468749999999996
57,0,0.24895833333333334,20.71770833333333
62,0,0,20.71770833333333
65,0,0,20.71770833333333
57,64,0.25104166666666666,20.968749999999996
62,64,0,20.968749999999996
65,64,0,20.968749999999996
81,0,0.49895833333333334,21.46770833333333
57,0,0,21.46770833333333
62,0,0,21.46770833333333
65,0,0,21.46770833333333
79,64,0.0010416666666666667,21.468749999999996
43,64,0,21.468749999999996
79,0,0.496875,21.965624999999996
43,0,0,21.965624999999996
78,64,0.0010416666666666667,21.96666666666666
55,64,0,21.96666666666666
59,64,0,21.96666666666666
65,64,0,21.96666666666666
78,0,0.24895833333333334,22.215624999999996
79,64,0.0010416666666666667,22.21666666666666
79,0,0.24895833333333334,22.465624999999996
55,0,0,22.465624999999996
59,0,0,22.465624999999996
65,0,0,22.465624999999996
86,64,0.0010416666666666667,22.46666666666666
55,64,0,22.46666666666666
59,64,0,22.46666666666666
65,64,0,22.46666666666666
86,0,0.24895833333333334,22.715624999999996
77,64,0.0010416666666666667,22.71666666666666
77,0,0.24895833333333334,22.965624999999996
55,0,0,22.965624999999996
59,0,0,22.965624999999996
65,0,0,22.965624999999996
76,64,0.0010416666666666667,22.96666666666666
48,64,0,22.96666666666666
48,0,0.496875,23.46354166666666
55,64,0.0010416666666666667,23.464583333333326
60,64,0,23.464583333333326
64,64,0,23.464583333333326
55,0,0.49895833333333334,23.96354166666666
60,0,0,23.96354166666666
64,0,0,23.96354166666666
55,64,0.0010416666666666667,23.964583333333326
60,64,0,23.964583333333326
64,64,0,23.964583333333326
76,0,0.49895833333333334,24.46354166666666
55,0,0,24.46354166666666
60,0,0,24.46354166666666
64,0,0,24.46354166666666
76,64,0.0010416666666666667,24.464583333333326
40,64,0,24.464583333333326
76,0,0.24687499999999998,24.711458333333326
78,64,0.0010416666666666667,24.71249999999999
78,0,0.24895833333333334,24.961458333333326
40,0,0,24.961458333333326
80,64,0.0010416666666666667,24.96249999999999
52,64,0,24.96249999999999
59,64,0,24.96249999999999
62,64,0,24.96249999999999
80,0,0.24895833333333334,25.211458333333326
81,64,0.0010416666666666667,25.21249999999999
81,0,0.24895833333333334,25.461458333333326
52,0,0,25.461458333333326
59,0,0,25.461458333333326
62,0,0,25.461458333333326
83,64,0.0010416666666666667,25.46249999999999
52,64,0,25.46249999999999
56,64,0,25.46249999999999
62,64,0,25.46249999999999
83,0,0.24895833333333334,25.711458333333326
84,64,0.0010416666666666667,25.71249999999999
84,0,0.24895833333333334,25.961458333333326
52,0,0,25.961458333333326
56,0,0,25.961458333333326
62,0,0,25.961458333333326
83,64,0.0010416666666666667,25.96249999999999
45,64,0,25.96249999999999
83,0,0.059375,26.02187499999999
84,64,0.0010416666666666667,26.022916666666656
84,0,0.06145833333333333,26.08437499999999
83,64,0.0010416666666666667,26.085416666666656
83,0,0.12395833333333334,26.20937499999999
81,64,0.0010416666666666667,26.210416666666656
81,0,0.24895833333333334,26.45937499999999
45,0,0,26.45937499999999
76,64,0.0010416666666666667,26.460416666666656
52,64,0,26.460416666666656
57,64,0,26.460416666666656
60,64,0,26.460416666666656
76,0,0.24895833333333334,26.70937499999999
83,64,0.0010416666666666667,26.710416666666656
83,0,0.24895833333333334,26.95937499999999
52,0,0,26.95937499999999
57,0,0,26.95937499999999
60,0,0,26.95937499999999
81,64,0.0010416666666666667,26.960416666666656
52,64,0,26.960416666666656
57,64,0,26.960416666666656
60,64,0,26.960416666666656
81,0,0.49895833333333334,27.45937499999999
52,0,0,27.45937499999999
57,0,0,27.45937499999999
60,0,0,27.45937499999999
81,64,0.0010416666666666667,27.460416666666656
40,64,0,27.460416666666656
81,0,0.059375,27.519791666666656
83,64,0.0010416666666666667,27.52083333333332
83,0,0.06145833333333333,27.582291666666656
81,64,0.0010416666666666667,27.58333333333332
81,0,0.12395833333333334,27.707291666666656
80,64,0.0010416666666666667,27.70833333333332
80,0,0.24895833333333334,27.957291666666656
40,0,0,27.957291666666656
76,64,0.0010416666666666667,27.95833333333332
52,64,0,27.95833333333332
59,64,0,27.95833333333332
62,64,0,27.95833333333332
76,0,0.24895833333333334,28.207291666666656
77,64,0.0010416666666666667,28.20833333333332
77,0,0.24895833333333334,28.457291666666656
52,0,0,28.457291666666656
59,0,0,28.457291666666656
62,0,0,28.457291666666656
76,64,0.0010416666666666667,28.45833333333332
52,64,0,28.45833333333332
59,64,0,28.45833333333332
62,64,0,28.45833333333332
76,0,0.49895833333333334,28.957291666666656
52,0,0,28.957291666666656
59,0,0,28.957291666666656
62,0,0,28.957291666666656
76,64,0.0010416666666666667,28.95833333333332
45,64,0,28.95833333333332
76,0,0.059375,29.01770833333332
77,64,0.0010416666666666667,29.018749999999986
77,0,0.06145833333333333,29.08020833333332
76,64,0.0010416666666666667,29.081249999999986
76,0,0.12395833333333334,29.20520833333332
72,64,0.0010416666666666667,29.206249999999986
72,0,0.24895833333333334,29.45520833333332
45,0,0,29.45520833333332
69,64,0.0010416666666666667,29.456249999999986
52,64,0,29.456249999999986
57,64,0,29.456249999999986
60,64,0,29.456249999999986
69,0,0.24895833333333334,29.70520833333332
71,64,0.0010416666666666667,29.706249999999986
71,0,0.24895833333333334,29.95520833333332
52,0,0,29.95520833333332
57,0,0,29.95520833333332
60,0,0,29.95520833333332
69,64,0.0010416666666666667,29.956249999999986
52,64,0,29.956249999999986
57,64,0,29.956249999999986
60,64,0,29.956249999999986
69,0,0.49895833333333334,30.45520833333332
52,0,0,30.45520833333332
57,0,0,30.45520833333332
60,0,0,30.45520833333332
64,64,0.0010416666666666667,30.456249999999986
40,64,0,30.456249999999986
64,0,0.16354166666666667,30.619791666666654
68,64,0.0010416666666666667,30.62083333333332
68,0,0.165625,30.786458333333318
71,64,0.0010416666666666667,30.787499999999984
71,0,0.165625,30.953124999999982
40,0,0,30.953124999999982
76,64,0.0010416666666666667,30.954166666666648
52,64,0,30.954166666666648
59,64,0,30.954166666666648
62,64,0,30.954166666666648
76,0,0.09895833333333333,31.05312499999998
80,64,0.0010416666666666667,31.054166666666646
80,0,0.09895833333333333,31.153124999999978
83,64,0.0010416666666666667,31.154166666666644
83,0,0.09895833333333333,31.253124999999976
88,64,0.0010416666666666667,31.25416666666664
88,0,0.09895833333333333,31.353124999999974
92,64,0.0010416666666666667,31.35416666666664
92,0,0.09895833333333333,31.45312499999997
52,0,0,31.45312499999997
59,0,0,31.45312499999997
62,0,0,31.45312499999997
95,64,0.0010416666666666667,31.454166666666637
52,64,0,31.454166666666637
56,64,0,31.454166666666637
62,64,0,31.454166666666637
95,0,0.37395833333333334,31.82812499999997
96,64,0.0010416666666666667,31.829166666666637
96,0,0.12395833333333334,31.95312499999997
52,0,0,31.95312499999997
56,0,0,31.95312499999997
62,0,0,31.95312499999997
95,64,0.0010416666666666667,31.954166666666637
45,64,0,31.954166666666637
95,0,0.059375,32.01354166666664
96,64,0.0010416666666666667,32.014583333333306
96,0,0.06145833333333333,32.07604166666664
95,64,0.0010416666666666667,32.077083333333306
95,0,0.12395833333333334,32.20104166666664
93,64,0.0010416666666666667,32.202083333333306
93,0,0.24895833333333334,32.45104166666664
45,0,0,32.45104166666664
88,64,0.0010416666666666667,32.452083333333306
52,64,0,32.452083333333306
57,64,0,32.452083333333306
60,64,0,32.452083333333306
88,0,0.24895833333333334,32.70104166666664
95,64,0.0010416666666666667,32.702083333333306
95,0,0.24895833333333334,32.95104166666664
52,0,0,32.95104166666664
57,0,0,32.95104166666664
60,0,0,32.95104166666664
93,64,0.0010416666666666667,32.952083333333306
52,64,0,32.952083333333306
57,64,0,32.952083333333306
60,64,0,32.952083333333306
93,0,0.49895833333333334,33.45104166666664
52,0,0,33.45104166666664
57,0,0,33.45104166666664
60,0,0,33.45104166666664
93,64,0.0010416666666666667,33.452083333333306
40,64,0,33.452083333333306
93,0,0.059375,33.51145833333331
95,64,0.0010416666666666667,33.512499999999974
95,0,0.06145833333333333,33.57395833333331
93,64,0.0010416666666666667,33.574999999999974
93,0,0.12395833333333334,33.69895833333331
92,64,0.0010416666666666667,33.699999999999974
92,0,0.24895833333333334,33.94895833333331
40,0,0,33.94895833333331
88,64,0.0010416666666666667,33.949999999999974
52,64,0,33.949999999999974
59,64,0,33.949999999999974
62,64,0,33.949999999999974
88,0,0.24895833333333334,34.19895833333331
100,64,0.0010416666666666667,34.199999999999974
100,0,0.24895833333333334,34.44895833333331
52,0,0,34.44895833333331
59,0,0,34.44895833333331
62,0,0,34.44895833333331
100,64,0.0010416666666666667,34.449999999999974
52,64,0,34.449999999999974
59,64,0,34.449999999999974
62,64,0,34.449999999999974
100,0,0.49895833333333334,34.94895833333331
52,0,0,34.94895833333331
59,0,0,34.94895833333331
62,0,0,34.94895833333331
93,64,0.0010416666666666667,34.949999999999974
45,64,0,34.949999999999974
45,0,0.496875,35.44687499999998
52,64,0.0010416666666666667,35.44791666666664
57,64,0,35.44791666666664
60,64,0,35.44791666666664
93,0,0.49895833333333334,35.94687499999998
52,0,0,35.94687499999998
57,0,0,35.94687499999998
60,0,0,35.94687499999998
52,64,0.0010416666666666667,35.94791666666664
57,64,0,35.94791666666664
60,64,0,35.94791666666664
52,0,0.49895833333333334,36.44687499999998
57,0,0,36.44687499999998
60,0,0,36.44687499999998
76,64,0.0010416666666666667,36.44791666666664
40,64,0,36.44791666666664
76,0,0.24687499999999998,36.694791666666646
78,64,0.0010416666666666667,36.69583333333331
78,0,0.24895833333333334,36.944791666666646
40,0,0,36.944791666666646
80,64,0.0010416666666666667,36.94583333333331
52,64,0,36.94583333333331
59,64,0,36.94583333333331
62,64,0,36.94583333333331
80,0,0.24895833333333334,37.194791666666646
81,64,0.0010416666666666667,37.19583333333331
81,0,0.24895833333333334,37.444791666666646
52,0,0,37.444791666666646
59,0,0,37.444791666666646
62,0,0,37.444791666666646
83,64,0.0010416666666666667,37.44583333333331
52,64,0,37.44583333333331
56,64,0,37.44583333333331
62,64,0,37.44583333333331
83,0,0.24895833333333334,37.694791666666646
84,64,0.0010416666666666667,37.69583333333331
84,0,0.24895833333333334,37.944791666666646
52,0,0,37.944791666666646
56,0,0,37.944791666666646
62,0,0,37.944791666666646
83,64,0.0010416666666666667,37.94583333333331
45,64,0,37.94583333333331
83,0,0.059375,38.005208333333314
84,64,0.0010416666666666667,38.00624999999998
84,0,0.06145833333333333,38.067708333333314
83,64,0.0010416666666666667,38.06874999999998
83,0,0.12395833333333334,38.192708333333314
81,64,0.0010416666666666667,38.19374999999998
81,0,0.24895833333333334,38.442708333333314
45,0,0,38.442708333333314
76,64,0.0010416666666666667,38.44374999999998
52,64,0,38.44374999999998
57,64,0,38.44374999999998
60,64,0,38.44374999999998
76,0,0.24895833333333334,38.692708333333314
83,64,0.0010416666666666667,38.69374999999998
83,0,0.24895833333333334,38.942708333333314
52,0,0,38.942708333333314
57,0,0,38.942708333333314
60,0,0,38.942708333333314
81,64,0.0010416666666666667,38.94374999999998
52,64,0,38.94374999999998
57,64,0,38.94374999999998
60,64,0,38.94374999999998
81,0,0.49895833333333334,39.442708333333314
52,0,0,39.442708333333314
57,0,0,39.442708333333314
60,0,0,39.442708333333314
81,64,0.0010416666666666667,39.44374999999998
40,64,0,39.44374999999998
81,0,0.059375,39.50312499999998
83,64,0.0010416666666666667,39.50416666666665
83,0,0.06145833333333333,39.56562499999998
81,64,0.0010416666666666667,39.56666666666665
81,0,0.12395833333333334,39.69062499999998
80,64,0.0010416666666666667,39.69166666666665
80,0,0.24895833333333334,39.94062499999998
40,0,0,39.94062499999998
76,64,0.0010416666666666667,39.94166666666665
52,64,0,39.94166666666665
59,64,0,39.94166666666665
62,64,0,39.94166666666665
76,0,0.24895833333333334,40.19062499999998
77,64,0.0010416666666666667,40.19166666666665
77,0,0.24895833333333334,40.44062499999998
52,0,0,40.44062499999998
59,0,0,40.44062499999998
62,0,0,40.44062499999998
76,64,0.0010416666666666667,40.44166666666665
52,64,0,40.44166666666665
59,64,0,40.44166666666665
62,64,0,40.44166666666665
76,0,0.49895833333333334,40.94062499999998
52,0,0,40.94062499999998
59,0,0,40.94062499999998
62,0,0,40.94062499999998
76,64,0.0010416666666666667,40.94166666666665
45,64,0,40.94166666666665
76,0,0.059375,41.00104166666665
77,64,0.0010416666666666667,41.00208333333332
77,0,0.06145833333333333,41.06354166666665
76,64,0.0010416666666666667,41.06458333333332
76,0,0.12395833333333334,41.18854166666665
72,64,0.0010416666666666667,41.18958333333332
72,0,0.24895833333333334,41.43854166666665
45,0,0,41.43854166666665
69,64,0.0010416666666666667,41.43958333333332
52,64,0,41.43958333333332
57,64,0,41.43958333333332
60,64,0,41.43958333333332
69,0,0.24895833333333334,41.68854166666665
71,64,0.0010416666666666667,41.68958333333332
71,0,0.24895833333333334,41.93854166666665
52,0,0,41.93854166666665
57,0,0,41.93854166666665
60,0,0,41.93854166666665
69,64,0.0010416666666666667,41.93958333333332
52,64,0,41.93958333333332
57,64,0,41.93958333333332
60,64,0,41.93958333333332
69,0,0.49895833333333334,42.43854166666665
52,0,0,42.43854166666665
57,0,0,42.43854166666665
60,0,0,42.43854166666665
64,64,0.0010416666666666667,42.43958333333332
40,64,0,42.43958333333332
64,0,0.16354166666666667,42.603124999999984
68,64,0.0010416666666666667,42.60416666666665
68,0,0.165625,42.76979166666665
71,64,0.0010416666666666667,42.770833333333314
71,0,0.165625,42.93645833333331
40,0,0,42.93645833333331
76,64,0.0010416666666666667,42.93749999999998
52,64,0,42.93749999999998
59,64,0,42.93749999999998
62,64,0,42.93749999999998
76,0,0.09895833333333333,43.036458333333314
80,64,0.0010416666666666667,43.03749999999998
80,0,0.09895833333333333,43.136458333333316
83,64,0.0010416666666666667,43.13749999999998
83,0,0.09895833333333333,43.23645833333332
88,64,0.0010416666666666667,43.23749999999998
88,0,0.09895833333333333,43.33645833333332
92,64,0.0010416666666666667,43.337499999999984
92,0,0.09895833333333333,43.43645833333332
52,0,0,43.43645833333332
59,0,0,43.43645833333332
62,0,0,43.43645833333332
95,64,0.0010416666666666667,43.437499999999986
52,64,0,43.437499999999986
56,64,0,43.437499999999986
62,64,0,43.437499999999986
95,0,0.37395833333333334,43.81145833333332
96,64,0.0010416666666666667,43.812499999999986
96,0,0.12395833333333334,43.93645833333332
52,0,0,43.93645833333332
56,0,0,43.93645833333332
62,0,0,43.93645833333332
95,64,0.0010416666666666667,43.937499999999986
45,64,0,43.937499999999986
95,0,0.059375,43.99687499999999
96,64,0.0010416666666666667,43.997916666666654
96,0,0.06145833333333333,44.05937499999999
95,64,0.0010416666666666667,44.060416666666654
95,0,0.12395833333333334,44.18437499999999
93,64,0.0010416666666666667,44.185416666666654
93,0,0.24895833333333334,44.43437499999999
45,0,0,44.43437499999999
88,64,0.0010416666666666667,44.435416666666654
52,64,0,44.435416666666654
57,64,0,44.435416666666654
60,64,0,44.435416666666654
88,0,0.24895833333333334,44.68437499999999
95,64,0.0010416666666666667,44.685416666666654
95,0,0.24895833333333334,44.93437499999999
52,0,0,44.93437499999999
57,0,0,44.93437499999999
60,0,0,44.93437499999999
93,64,0.0010416666666666667,44.935416666666654
52,64,0,44.935416666666654
57,64,0,44.935416666666654
60,64,0,44.935416666666654
93,0,0.49895833333333334,45.43437499999999
52,0,0,45.43437499999999
57,0,0,45.43437499999999
60,0,0,45.43437499999999
93,64,0.0010416666666666667,45.435416666666654
40,64,0,45.435416666666654
93,0,0.059375,45.49479166666666
95,64,0.0010416666666666667,45.49583333333332
95,0,0.06145833333333333,45.55729166666666
93,64,0.0010416666666666667,45.55833333333332
93,0,0.12395833333333334,45.68229166666666
92,64,0.0010416666666666667,45.68333333333332
92,0,0.24895833333333334,45.93229166666666
40,0,0,45.93229166666666
88,64,0.0010416666666666667,45.93333333333332
52,64,0,45.93333333333332
59,64,0,45.93333333333332
62,64,0,45.93333333333332
88,0,0.24895833333333334,46.18229166666666
100,64,0.0010416666666666667,46.18333333333332
100,0,0.24895833333333334,46.43229166666666
52,0,0,46.43229166666666
59,0,0,46.43229166666666
62,0,0,46.43229166666666
100,64,0.0010416666666666667,46.43333333333332
52,64,0,46.43333333333332
59,64,0,46.43333333333332
62,64,0,46.43333333333332
100,0,0.49895833333333334,46.93229166666666
52,0,0,46.93229166666666
59,0,0,46.93229166666666
62,0,0,46.93229166666666
93,64,0.0010416666666666667,46.93333333333332
45,64,0,46.93333333333332
45,0,0.496875,47.430208333333326
52,64,0.0010416666666666667,47.43124999999999
57,64,0,47.43124999999999
60,64,0,47.43124999999999
93,0,0.49895833333333334,47.930208333333326
52,0,0,47.930208333333326
57,0,0,47.930208333333326
60,0,0,47.930208333333326
52,64,0.0010416666666666667,47.93124999999999
57,64,0,47.93124999999999
60,64,0,47.93124999999999
52,0,0.49895833333333334,48.430208333333326
57,0,0,48.430208333333326
60,0,0,48.430208333333326
69,64,0.0010416666666666667,48.43124999999999
33,64,0,48.43124999999999
69,0,0.24687499999999998,48.678124999999994
71,64,0.0010416666666666667,48.67916666666666
71,0,0.24895833333333334,48.928124999999994
33,0,0,48.928124999999994
72,64,0.0010416666666666667,48.92916666666666
57,64,0,48.92916666666666
60,64,0,48.92916666666666
64,64,0,48.92916666666666
72,0,0.49895833333333334,49.428124999999994
57,0,0,49.428124999999994
60,0,0,49.428124999999994
64,0,0,49.428124999999994
72,64,0.0010416666666666667,49.42916666666666
57,64,0,49.42916666666666
60,64,0,49.42916666666666
64,64,0,49.42916666666666
72,0,0.49895833333333334,49.928124999999994
57,0,0,49.928124999999994
60,0,0,49.928124999999994
64,0,0,49.928124999999994
74,64,0.0010416666666666667,49.92916666666666
38,64,0,49.92916666666666
74,0,0.24687499999999998,50.17604166666666
76,64,0.0010416666666666667,50.17708333333333
76,0,0.24895833333333334,50.42604166666666
38,0,0,50.42604166666666
77,64,0.0010416666666666667,50.42708333333333
57,64,0,50.42708333333333
62,64,0,50.42708333333333
65,64,0,50.42708333333333
57,0,0.49895833333333334,50.92604166666666
62,0,0,50.92604166666666
65,0,0,50.92604166666666
57,64,0.0010416666666666667,50.92708333333333
62,64,0,50.92708333333333
65,64,0,50.92708333333333
77,0,0.49895833333333334,51.42604166666666
57,0,0,51.42604166666666
62,0,0,51.42604166666666
65,0,0,51.42604166666666
71,64,0.0010416666666666667,51.42708333333333
43,64,0,51.42708333333333
71,0,0.24687499999999998,51.67395833333333
72,64,0.0010416666666666667,51.675
72,0,0.24895833333333334,51.92395833333333
43,0,0,51.92395833333333
74,64,0.0010416666666666667,51.925
55,64,0,51.925
59,64,0,51.925
65,64,0,51.925
74,0,0.24895833333333334,52.17395833333333
81,64,0.0010416666666666667,52.175
81,0,0.24895833333333334,52.42395833333333
55,0,0,52.42395833333333
59,0,0,52.42395833333333
65,0,0,52.42395833333333
79,64,0.0010416666666666667,52.425
55,64,0,52.425
59,64,0,52.425
65,64,0,52.425
79,0,0.24895833333333334,52.67395833333333
77,64,0.0010416666666666667,52.675
77,0,0.24895833333333334,52.92395833333333
55,0,0,52.92395833333333
59,0,0,52.92395833333333
65,0,0,52.92395833333333
76,64,0.0010416666666666667,52.925
48,64,0,52.925
76,0,0.059375,52.984375
77,64,0.0010416666666666667,52.985416666666666
77,0,0.06145833333333333,53.046875
76,64,0.0010416666666666667,53.047916666666666
76,0,0.12395833333333334,53.171875
75,64,0.0010416666666666667,53.172916666666666
75,0,0.24895833333333334,53.421875
48,0,0,53.421875
76,64,0.0010416666666666667,53.422916666666666
55,64,0,53.422916666666666
60,64,0,53.422916666666666
64,64,0,53.422916666666666
55,0,0.49895833333333334,53.921875
60,0,0,53.921875
64,0,0,53.921875
55,64,0.0010416666666666667,53.922916666666666
60,64,0,53.922916666666666
64,64,0,53.922916666666666
76,0,0.49895833333333334,54.421875
55,0,0,54.421875
60,0,0,54.421875
64,0,0,54.421875
72,64,0.0010416666666666667,54.422916666666666
45,64,0,54.422916666666666
72,0,0.24687499999999998,54.66979166666667
74,64,0.0010416666666666667,54.670833333333334
74,0,0.24895833333333334,54.91979166666667
45,0,0,54.91979166666667
76,64,0.0010416666666666667,54.920833333333334
57,64,0,54.920833333333334
60,64,0,54.920833333333334
64,64,0,54.920833333333334
76,0,0.49895833333333334,55.41979166666667
57,0,0,55.41979166666667
60,0,0,55.41979166666667
64,0,0,55.41979166666667
76,64,0.0010416666666666667,55.420833333333334
57,64,0,55.420833333333334
60,64,0,55.420833333333334
64,64,0,55.420833333333334
76,0,0.49895833333333334,55.91979166666667
57,0,0,55.91979166666667
60,0,0,55.91979166666667
64,0,0,55.91979166666667
77,64,0.0010416666666666667,55.920833333333334
38,64,0,55.920833333333334
77,0,0.24687499999999998,56.16770833333334
79,64,0.0010416666666666667,56.16875
79,0,0.24895833333333334,56.41770833333334
38,0,0,56.41770833333334
81,64,0.0010416666666666667,56.41875
57,64,0,56.41875
62,64,0,56.41875
65,64,0,56.41875
57,0,0.49895833333333334,56.91770833333334
62,0,0,56.91770833333334
65,0,0,56.91770833333334
57,64,0.0010416666666666667,56.91875
62,64,0,56.91875
65,64,0,56.91875
81,0,0.49895833333333334,57.41770833333334
57,0,0,57.41770833333334
62,0,0,57.41770833333334
65,0,0,57.41770833333334
75,64,0.0010416666666666667,57.41875
35,64,0,57.41875
75,0,0.24687499999999998,57.665625000000006
76,64,0.0010416666666666667,57.66666666666667
76,0,0.24895833333333334,57.915625000000006
35,0,0,57.915625000000006
78,64,0.0010416666666666667,57.91666666666667
57,64,0,57.91666666666667
59,64,0,57.91666666666667
63,64,0,57.91666666666667
78,0,0.49895833333333334,58.415625000000006
57,0,0,58.415625000000006
59,0,0,58.415625000000006
63,0,0,58.415625000000006
78,64,0.0010416666666666667,58.41666666666667
57,64,0,58.41666666666667
59,64,0,58.41666666666667
63,64,0,58.41666666666667
78,0,0.49895833333333334,58.915625000000006
57,0,0,58.915625000000006
59,0,0,58.915625000000006
63,0,0,58.915625000000006
80,64,0.0010416666666666667,58.91666666666667
40,64,0,58.91666666666667
80,0,0.24687499999999998,59.163541666666674
81,64,0.0010416666666666667,59.16458333333334
81,0,0.24895833333333334,59.413541666666674
40,0,0,59.413541666666674
83,64,0.0010416666666666667,59.41458333333334
52,64,0,59.41458333333334
59,64,0,59.41458333333334
62,64,0,59.41458333333334
52,0,0.49895833333333334,59.913541666666674
59,0,0,59.913541666666674
62,0,0,59.913541666666674
83,0,0.4979166666666667,60.41145833333334
83,64,0.0010416666666666667,60.41250000000001
40,64,0,60.41250000000001
83,0,0.24687499999999998,60.65937500000001
85,64,0.0010416666666666667,60.66041666666668
85,0,0.24895833333333334,60.90937500000001
40,0,0,60.90937500000001
86,64,0.0010416666666666667,60.91041666666668
52,64,0,60.91041666666668
56,64,0,60.91041666666668
62,64,0,60.91041666666668
86,0,0.24895833333333334,61.15937500000001
90,64,0.0010416666666666667,61.16041666666668
90,0,0.24895833333333334,61.40937500000001
52,0,0,61.40937500000001
56,0,0,61.40937500000001
62,0,0,61.40937500000001
88,64,0.0010416666666666667,61.41041666666668
52,64,0,61.41041666666668
56,64,0,61.41041666666668
62,64,0,61.41041666666668
88,0,0.24895833333333334,61.65937500000001
86,64,0.0010416666666666667,61.66041666666668
86,0,0.24895833333333334,61.90937500000001
52,0,0,61.90937500000001
56,0,0,61.90937500000001
62,0,0,61.90937500000001
85,64,0.0010416666666666667,61.91041666666668
45,64,0,61.91041666666668
85,0,0.059375,61.96979166666668
86,64,0.0010416666666666667,61.970833333333346
86,0,0.06145833333333333,62.03229166666668
85,64,0.0010416666666666667,62.033333333333346
85,0,0.12395833333333334,62.15729166666668
83,64,0.0010416666666666667,62.158333333333346
83,0,0.24895833333333334,62.40729166666668
45,0,0,62.40729166666668
85,64,0.0010416666666666667,62.408333333333346
52,64,0,62.408333333333346
57,64,0,62.408333333333346
61,64,0,62.408333333333346
85,0,0.24895833333333334,62.65729166666668
80,64,0.0010416666666666667,62.658333333333346
80,0,0.24895833333333334,62.90729166666668
52,0,0,62.90729166666668
57,0,0,62.90729166666668
61,0,0,62.90729166666668
81,64,0.0010416666666666667,62.908333333333346
52,64,0,62.908333333333346
57,64,0,62.908333333333346
61,64,0,62.908333333333346
81,0,0.24895833333333334,63.15729166666668
78,64,0.0010416666666666667,63.158333333333346
78,0,0.24895833333333334,63.40729166666668
52,0,0,63.40729166666668
57,0,0,63.40729166666668
61,0,0,63.40729166666668
76,64,0.0010416666666666667,63.408333333333346
40,64,0,63.408333333333346
76,0,0.059375,63.46770833333335
78,64,0.0010416666666666667,63.468750000000014
78,0,0.06145833333333333,63.53020833333335
76,64,0.0010416666666666667,63.531250000000014
76,0,0.12395833333333334,63.65520833333335
74,64,0.0010416666666666667,63.656250000000014
74,0,0.24895833333333334,63.90520833333335
40,0,0,63.90520833333335
68,64,0.0010416666666666667,63.906250000000014
52,64,0,63.906250000000014
56,64,0,63.906250000000014
62,64,0,63.906250000000014
68,0,0.24895833333333334,64.15520833333335
78,64,0.0010416666666666667,64.15625000000001
78,0,0.24895833333333334,64.40520833333335
52,0,0,64.40520833333335
56,0,0,64.40520833333335
62,0,0,64.40520833333335
76,64,0.0010416666666666667,64.40625000000001
52,64,0,64.40625000000001
56,64,0,64.40625000000001
62,64,0,64.40625000000001
76,0,0.49895833333333334,64.90520833333335
52,0,0,64.90520833333335
56,0,0,64.90520833333335
62,0,0,64.90520833333335
76,64,0.0010416666666666667,64.90625000000001
45,64,0,64.90625000000001
76,0,0.059375,64.96562500000002
78,64,0.0010416666666666667,64.96666666666668
78,0,0.06145833333333333,65.02812500000002
76,64,0.0010416666666666667,65.02916666666668
76,0,0.12395833333333334,65.15312500000002
73,64,0.0010416666666666667,65.15416666666668
73,0,0.24895833333333334,65.40312500000002
45,0,0,65.40312500000002
69,64,0.0010416666666666667,65.40416666666668
52,64,0,65.40416666666668
57,64,0,65.40416666666668
61,64,0,65.40416666666668
69,0,0.24895833333333334,65.65312500000002
78,64,0.0010416666666666667,65.65416666666668
78,0,0.24895833333333334,65.90312500000002
52,0,0,65.90312500000002
57,0,0,65.90312500000002
61,0,0,65.90312500000002
76,64,0.0010416666666666667,65.90416666666668
52,64,0,65.90416666666668
57,64,0,65.90416666666668
61,64,0,65.90416666666668
76,0,0.49895833333333334,66.40312500000002
52,0,0,66.40312500000002
57,0,0,66.40312500000002
61,0,0,66.40312500000002
83,64,0.0010416666666666667,66.40416666666668
40,64,0,66.40416666666668
83,0,0.24687499999999998,66.65104166666669
85,64,0.0010416666666666667,66.65208333333335
85,0,0.24895833333333334,66.90104166666669
40,0,0,66.90104166666669
86,64,0.0010416666666666667,66.90208333333335
52,64,0,66.90208333333335
56,64,0,66.90208333333335
62,64,0,66.90208333333335
86,0,0.24895833333333334,67.15104166666669
90,64,0.0010416666666666667,67.15208333333335
90,0,0.24895833333333334,67.40104166666669
52,0,0,67.40104166666669
56,0,0,67.40104166666669
62,0,0,67.40104166666669
88,64,0.0010416666666666667,67.40208333333335
52,64,0,67.40208333333335
56,64,0,67.40208333333335
62,64,0,67.40208333333335
88,0,0.24895833333333334,67.65104166666669
86,64,0.0010416666666666667,67.65208333333335
86,0,0.24895833333333334,67.90104166666669
52,0,0,67.90104166666669
56,0,0,67.90104166666669
62,0,0,67.90104166666669
85,64,0.0010416666666666667,67.90208333333335
45,64,0,67.90208333333335
85,0,0.059375,67.96145833333335
86,64,0.0010416666666666667,67.96250000000002
86,0,0.06145833333333333,68.02395833333335
85,64,0.0010416666666666667,68.02500000000002
85,0,0.12395833333333334,68.14895833333335
83,64,0.0010416666666666667,68.15000000000002
83,0,0.24895833333333334,68.39895833333335
45,0,0,68.39895833333335
85,64,0.0010416666666666667,68.40000000000002
52,64,0,68.40000000000002
57,64,0,68.40000000000002
61,64,0,68.40000000000002
85,0,0.24895833333333334,68.64895833333335
80,64,0.0010416666666666667,68.65000000000002
80,0,0.24895833333333334,68.89895833333335
52,0,0,68.89895833333335
57,0,0,68.89895833333335
61,0,0,68.89895833333335
81,64,0.0010416666666666667,68.90000000000002
52,64,0,68.90000000000002
57,64,0,68.90000000000002
61,64,0,68.90000000000002
81,0,0.24895833333333334,69.14895833333335
78,64,0.0010416666666666667,69.15000000000002
78,0,0.24895833333333334,69.39895833333335
52,0,0,69.39895833333335
57,0,0,69.39895833333335
61,0,0,69.39895833333335
76,64,0.0010416666666666667,69.40000000000002
40,64,0,69.40000000000002
76,0,0.059375,69.45937500000002
78,64,0.0010416666666666667,69.46041666666669
78,0,0.06145833333333333,69.52187500000002
76,64,0.0010416666666666667,69.52291666666669
76,0,0.12395833333333334,69.64687500000002
74,64,0.0010416666666666667,69.64791666666669
74,0,0.24895833333333334,69.89687500000002
40,0,0,69.89687500000002
68,64,0.0010416666666666667,69.89791666666669
52,64,0,69.89791666666669
56,64,0,69.89791666666669
62,64,0,69.89791666666669
68,0,0.24895833333333334,70.14687500000002
78,64,0.0010416666666666667,70.14791666666669
78,0,0.24895833333333334,70.39687500000002
52,0,0,70.39687500000002
56,0,0,70.39687500000002
62,0,0,70.39687500000002
76,64,0.0010416666666666667,70.39791666666669
52,64,0,70.39791666666669
56,64,0,70.39791666666669
62,64,0,70.39791666666669
76,0,0.24895833333333334,70.64687500000002
68,64,0.0010416666666666667,70.64791666666669
68,0,0.24895833333333334,70.89687500000002
52,0,0,70.89687500000002
56,0,0,70.89687500000002
62,0,0,70.89687500000002
69,64,0.0010416666666666667,70.89791666666669
45,64,0,70.89791666666669
69,0,0.496875,71.39479166666669
45,0,0,71.39479166666669
52,64,0.0010416666666666667,71.39583333333336
61,64,0,71.39583333333336
52,0,0.49895833333333334,71.89479166666669
61,0,0,71.89479166666669
64,64,0.0010416666666666667,71.89583333333336
64,0,0.4979166666666667,72.39375000000003
69,64,0.0010416666666666667,72.39479166666669
33,64,0,72.39479166666669
69,0,0.24687499999999998,72.6416666666667
71,64,0.0010416666666666667,72.64270833333336
71,0,0.24895833333333334,72.8916666666667
33,0,0,72.8916666666667
72,64,0.0010416666666666667,72.89270833333336
57,64,0,72.89270833333336
60,64,0,72.89270833333336
64,64,0,72.89270833333336
72,0,0.49895833333333334,73.3916666666667
57,0,0,73.3916666666667
60,0,0,73.3916666666667
64,0,0,73.3916666666667
72,64,0.0010416666666666667,73.39270833333336
57,64,0,73.39270833333336
60,64,0,73.39270833333336
64,64,0,73.39270833333336
72,0,0.49895833333333334,73.8916666666667
57,0,0,73.8916666666667
60,0,0,73.8916666666667
64,0,0,73.8916666666667
74,64,0.0010416666666666667,73.89270833333336
38,64,0,73.89270833333336
74,0,0.24687499999999998,74.13958333333336
76,64,0.0010416666666666667,74.14062500000003
76,0,0.24895833333333334,74.38958333333336
38,0,0,74.38958333333336
77,64,0.0010416666666666667,74.39062500000003
57,64,0,74.39062500000003
62,64,0,74.39062500000003
65,64,0,74.39062500000003
57,0,0.49895833333333334,74.88958333333336
62,0,0,74.88958333333336
65,0,0,74.88958333333336
57,64,0.0010416666666666667,74.89062500000003
62,64,0,74.89062500000003
65,64,0,74.89062500000003
77,0,0.49895833333333334,75.38958333333336
57,0,0,75.38958333333336
62,0,0,75.38958333333336
65,0,0,75.38958333333336
71,64,0.0010416666666666667,75.39062500000003
43,64,0,75.39062500000003
71,0,0.24687499999999998,75.63750000000003
72,64,0.0010416666666666667,75.6385416666667
72,0,0.24895833333333334,75.88750000000003
43,0,0,75.88750000000003
74,64,0.0010416666666666667,75.8885416666667
55,64,0,75.8885416666667
59,64,0,75.8885416666667
65,64,0,75.8885416666667
74,0,0.24895833333333334,76.13750000000003
81,64,0.0010416666666666667,76.1385416666667
81,0,0.24895833333333334,76.38750000000003
55,0,0,76.38750000000003
59,0,0,76.38750000000003
65,0,0,76.38750000000003
79,64,0.0010416666666666667,76.3885416666667
55,64,0,76.3885416666667
59,64,0,76.3885416666667
65,64,0,76.3885416666667
79,0,0.24895833333333334,76.63750000000003
77,64,0.0010416666666666667,76.6385416666667
77,0,0.24895833333333334,76.88750000000003
55,0,0,76.88750000000003
59,0,0,76.88750000000003
65,0,0,76.88750000000003
76,64,0.0010416666666666667,76.8885416666667
48,64,0,76.8885416666667
76,0,0.059375,76.9479166666667
77,64,0.0010416666666666667,76.94895833333337
77,0,0.06145833333333333,77.0104166666667
76,64,0.0010416666666666667,77.01145833333337
76,0,0.12395833333333334,77.1354166666667
75,64,0.0010416666666666667,77.13645833333337
75,0,0.24895833333333334,77.3854166666667
48,0,0,77.3854166666667
76,64,0.0010416666666666667,77.38645833333337
55,64,0,77.38645833333337
60,64,0,77.38645833333337
64,64,0,77.38645833333337
55,0,0.49895833333333334,77.8854166666667
60,0,0,77.8854166666667
64,0,0,77.8854166666667
55,64,0.0010416666666666667,77.88645833333337
60,64,0,77.88645833333337
64,64,0,77.88645833333337
76,0,0.49895833333333334,78.3854166666667
55,0,0,78.3854166666667
60,0,0,78.3854166666667
64,0,0,78.3854166666667
72,64,0.0010416666666666667,78.38645833333337
45,64,0,78.38645833333337
72,0,0.24687499999999998,78.63333333333337
74,64,0.0010416666666666667,78.63437500000003
74,0,0.24895833333333334,78.88333333333337
45,0,0,78.88333333333337
76,64,0.0010416666666666667,78.88437500000003
57,64,0,78.88437500000003
60,64,0,78.88437500000003
64,64,0,78.88437500000003
76,0,0.49895833333333334,79.38333333333337
57,0,0,79.38333333333337
60,0,0,79.38333333333337
64,0,0,79.38333333333337
76,64,0.0010416666666666667,79.38437500000003
57,64,0,79.38437500000003
60,64,0,79.38437500000003
64,64,0,79.38437500000003
76,0,0.49895833333333334,79.88333333333337
57,0,0,79.88333333333337
60,0,0,79.88333333333337
64,0,0,79.88333333333337
77,64,0.0010416666666666667,79.88437500000003
38,64,0,79.88437500000003
77,0,0.24687499999999998,80.13125000000004
79,64,0.0010416666666666667,80.1322916666667
79,0,0.24895833333333334,80.38125000000004
38,0,0,80.38125000000004
81,64,0.0010416666666666667,80.3822916666667
57,64,0,80.3822916666667
62,64,0,80.3822916666667
65,64,0,80.3822916666667
57,0,0.49895833333333334,80.88125000000004
62,0,0,80.88125000000004
65,0,0,80.88125000000004
57,64,0.0010416666666666667,80.8822916666667
62,64,0,80.8822916666667
65,64,0,80.8822916666667
81,0,0.49895833333333334,81.38125000000004
57,0,0,81.38125000000004
62,0,0,81.38125000000004
65,0,0,81.38125000000004
75,64,0.0010416666666666667,81.3822916666667
35,64,0,81.3822916666667
75,0,0.24687499999999998,81.6291666666667
76,64,0.0010416666666666667,81.63020833333337
76,0,0.24895833333333334,81.8791666666667
35,0,0,81.8791666666667
78,64,0.0010416666666666667,81.88020833333337
57,64,0,81.88020833333337
59,64,0,81.88020833333337
63,64,0,81.88020833333337
78,0,0.49895833333333334,82.3791666666667
57,0,0,82.3791666666667
59,0,0,82.3791666666667
63,0,0,82.3791666666667
78,64,0.0010416666666666667,82.38020833333337
57,64,0,82.38020833333337
59,64,0,82.38020833333337
63,64,0,82.38020833333337
78,0,0.49895833333333334,82.8791666666667
57,0,0,82.8791666666667
59,0,0,82.8791666666667
63,0,0,82.8791666666667
80,64,0.0010416666666666667,82.88020833333337
40,64,0,82.88020833333337
80,0,0.24687499999999998,83.12708333333337
81,64,0.0010416666666666667,83.12812500000004
81,0,0.24895833333333334,83.37708333333337
40,0,0,83.37708333333337
83,64,0.0010416666666666667,83.37812500000004
52,64,0,83.37812500000004
59,64,0,83.37812500000004
62,64,0,83.37812500000004
52,0,0.49895833333333334,83.87708333333337
59,0,0,83.87708333333337
62,0,0,83.87708333333337
83,0,0.4979166666666667,84.37500000000004
83,64,0.0010416666666666667,84.37604166666671
40,64,0,84.37604166666671
83,0,0.24687499999999998,84.62291666666671
85,64,0.0010416666666666667,84.62395833333338
85,0,0.24895833333333334,84.87291666666671
40,0,0,84.87291666666671
86,64,0.0010416666666666667,84.87395833333338
52,64,0,84.87395833333338
56,64,0,84.87395833333338
62,64,0,84.87395833333338
86,0,0.24895833333333334,85.12291666666671
90,64,0.0010416666666666667,85.12395833333338
90,0,0.24895833333333334,85.37291666666671
52,0,0,85.37291666666671
56,0,0,85.37291666666671
62,0,0,85.37291666666671
88,64,0.0010416666666666667,85.37395833333338
52,64,0,85.37395833333338
56,64,0,85.37395833333338
62,64,0,85.37395833333338
88,0,0.24895833333333334,85.62291666666671
86,64,0.0010416666666666667,85.62395833333338
86,0,0.24895833333333334,85.87291666666671
52,0,0,85.87291666666671
56,0,0,85.87291666666671
62,0,0,85.87291666666671
85,64,0.0010416666666666667,85.87395833333338
45,64,0,85.87395833333338
85,0,0.059375,85.93333333333338
86,64,0.0010416666666666667,85.93437500000005
86,0,0.06145833333333333,85.99583333333338
85,64,0.0010416666666666667,85.99687500000005
85,0,0.12395833333333334,86.12083333333338
83,64,0.0010416666666666667,86.12187500000005
83,0,0.24895833333333334,86.37083333333338
45,0,0,86.37083333333338
85,64,0.0010416666666666667,86.37187500000005
52,64,0,86.37187500000005
57,64,0,86.37187500000005
61,64,0,86.37187500000005
85,0,0.24895833333333334,86.62083333333338
80,64,0.0010416666666666667,86.62187500000005
80,0,0.24895833333333334,86.87083333333338
52,0,0,86.87083333333338
57,0,0,86.87083333333338
61,0,0,86.87083333333338
81,64,0.0010416666666666667,86.87187500000005
52,64,0,86.87187500000005
57,64,0,86.87187500000005
61,64,0,86.87187500000005
81,0,0.24895833333333334,87.12083333333338
78,64,0.0010416666666666667,87.12187500000005
78,0,0.24895833333333334,87.37083333333338
52,0,0,87.37083333333338
57,0,0,87.37083333333338
61,0,0,87.37083333333338
76,64,0.0010416666666666667,87.37187500000005
40,64,0,87.37187500000005
76,0,0.059375,87.43125000000005
78,64,0.0010416666666666667,87.43229166666671
78,0,0.06145833333333333,87.49375000000005
76,64,0.0010416666666666667,87.49479166666671
76,0,0.12395833333333334,87.61875000000005
74,64,0.0010416666666666667,87.61979166666671
74,0,0.24895833333333334,87.86875000000005
40,0,0,87.86875000000005
68,64,0.0010416666666666667,87.86979166666671
52,64,0,87.86979166666671
56,64,0,87.86979166666671
62,64,0,87.86979166666671
68,0,0.24895833333333334,88.11875000000005
78,64,0.0010416666666666667,88.11979166666671
78,0,0.24895833333333334,88.36875000000005
52,0,0,88.36875000000005
56,0,0,88.36875000000005
62,0,0,88.36875000000005
76,64,0.0010416666666666667,88.36979166666671
52,64,0,88.36979166666671
56,64,0,88.36979166666671
62,64,0,88.36979166666671
76,0,0.49895833333333334,88.86875000000005
52,0,0,88.86875000000005
56,0,0,88.86875000000005
62,0,0,88.86875000000005
76,64,0.0010416666666666667,88.86979166666671
45,64,0,88.86979166666671
76,0,0.059375,88.92916666666672
78,64,0.0010416666666666667,88.93020833333338
78,0,0.06145833333333333,88.99166666666672
76,64,0.0010416666666666667,88.99270833333338
76,0,0.12395833333333334,89.11666666666672
73,64,0.0010416666666666667,89.11770833333338
73,0,0.24895833333333334,89.36666666666672
45,0,0,89.36666666666672
69,64,0.0010416666666666667,89.36770833333338
52,64,0,89.36770833333338
57,64,0,89.36770833333338
61,64,0,89.36770833333338
69,0,0.24895833333333334,89.61666666666672
78,64,0.0010416666666666667,89.61770833333338
78,0,0.24895833333333334,89.86666666666672
52,0,0,89.86666666666672
57,0,0,89.86666666666672
61,0,0,89.86666666666672
76,64,0.0010416666666666667,89.86770833333338
52,64,0,89.86770833333338
57,64,0,89.86770833333338
61,64,0,89.86770833333338
76,0,0.49895833333333334,90.36666666666672
52,0,0,90.36666666666672
57,0,0,90.36666666666672
61,0,0,90.36666666666672
83,64,0.0010416666666666667,90.36770833333338
40,64,0,90.36770833333338
83,0,0.24687499999999998,90.61458333333339
85,64,0.0010416666666666667,90.61562500000005
85,0,0.24895833333333334,90.86458333333339
40,0,0,90.86458333333339
86,64,0.0010416666666666667,90.86562500000005
52,64,0,90.86562500000005
56,64,0,90.86562500000005
62,64,0,90.86562500000005
86,0,0.24895833333333334,91.11458333333339
90,64,0.0010416666666666667,91.11562500000005
90,0,0.24895833333333334,91.36458333333339
52,0,0,91.36458333333339
56,0,0,91.36458333333339
62,0,0,91.36458333333339
88,64,0.0010416666666666667,91.36562500000005
52,64,0,91.36562500000005
56,64,0,91.36562500000005
62,64,0,91.36562500000005
88,0,0.24895833333333334,91.61458333333339
86,64,0.0010416666666666667,91.61562500000005
86,0,0.24895833333333334,91.86458333333339
52,0,0,91.86458333333339
56,0,0,91.86458333333339
62,0,0,91.86458333333339
85,64,0.0010416666666666667,91.86562500000005
45,64,0,91.86562500000005
85,0,0.059375,91.92500000000005
86,64,0.0010416666666666667,91.92604166666672
86,0,0.06145833333333333,91.98750000000005
85,64,0.0010416666666666667,91.98854166666672
85,0,0.12395833333333334,92.11250000000005
83,64,0.0010416666666666667,92.11354166666672
83,0,0.24895833333333334,92.36250000000005
45,0,0,92.36250000000005
85,64,0.0010416666666666667,92.36354166666672
52,64,0,92.36354166666672
57,64,0,92.36354166666672
61,64,0,92.36354166666672
85,0,0.24895833333333334,92.61250000000005
80,64,0.0010416666666666667,92.61354166666672
80,0,0.24895833333333334,92.86250000000005
52,0,0,92.86250000000005
57,0,0,92.86250000000005
61,0,0,92.86250000000005
81,64,0.0010416666666666667,92.86354166666672
52,64,0,92.86354166666672
57,64,0,92.86354166666672
61,64,0,92.86354166666672
81,0,0.24895833333333334,93.11250000000005
78,64,0.0010416666666666667,93.11354166666672
78,0,0.24895833333333334,93.36250000000005
52,0,0,93.36250000000005
57,0,0,93.36250000000005
61,0,0,93.36250000000005
76,64,0.0010416666666666667,93.36354166666672
40,64,0,93.36354166666672
76,0,0.059375,93.42291666666672
78,64,0.0010416666666666667,93.42395833333339
78,0,0.06145833333333333,93.48541666666672
76,64,0.0010416666666666667,93.48645833333339
76,0,0.12395833333333334,93.61041666666672
74,64,0.0010416666666666667,93.61145833333339
74,0,0.24895833333333334,93.86041666666672
40,0,0,93.86041666666672
68,64,0.0010416666666666667,93.86145833333339
52,64,0,93.86145833333339
56,64,0,93.86145833333339
62,64,0,93.86145833333339
68,0,0.24895833333333334,94.11041666666672
78,64,0.0010416666666666667,94.11145833333339
78,0,0.24895833333333334,94.36041666666672
52,0,0,94.36041666666672
56,0,0,94.36041666666672
62,0,0,94.36041666666672
76,64,0.0010416666666666667,94.36145833333339
52,64,0,94.36145833333339
56,64,0,94.36145833333339
62,64,0,94.36145833333339
76,0,0.24895833333333334,94.61041666666672
68,64,0.0010416666666666667,94.61145833333339
68,0,0.24895833333333334,94.86041666666672
52,0,0,94.86041666666672
56,0,0,94.86041666666672
62,0,0,94.86041666666672
69,64,0.0010416666666666667,94.86145833333339
45,64,0,94.86145833333339
69,0,0.496875,95.35833333333339
45,0,0,95.35833333333339
52,64,0.0010416666666666667,95.35937500000006
61,64,0,95.35937500000006
52,0,0.49895833333333334,95.85833333333339
61,0,0,95.85833333333339
64,64,0.0010416666666666667,95.85937500000006
64,0,0.4979166666666667,96.35729166666673
69,64,0.0010416666666666667,96.35833333333339
33,64,0,96.35833333333339
69,0,0.24687499999999998,96.6052083333334
71,64,0.0010416666666666667,96.60625000000006
71,0,0.24895833333333334,96.8552083333334
33,0,0,96.8552083333334
72,64,0.0010416666666666667,96.85625000000006
57,64,0,96.85625000000006
60,64,0,96.85625000000006
64,64,0,96.85625000000006
72,0,0.49895833333333334,97.3552083333334
57,0,0,97.3552083333334
60,0,0,97.3552083333334
64,0,0,97.3552083333334
72,64,0.0010416666666666667,97.35625000000006
57,64,0,97.35625000000006
60,64,0,97.35625000000006
64,64,0,97.35625000000006
72,0,0.49895833333333334,97.8552083333334
57,0,0,97.8552083333334
60,0,0,97.8552083333334
64,0,0,97.8552083333334
74,64,0.0010416666666666667,97.85625000000006
38,64,0,97.85625000000006
74,0,0.24687499999999998,98.10312500000006
76,64,0.0010416666666666667,98.10416666666673
76,0,0.24895833333333334,98.35312500000006
38,0,0,98.35312500000006
77,64,0.0010416666666666667,98.35416666666673
57,64,0,98.35416666666673
62,64,0,98.35416666666673
65,64,0,98.35416666666673
57,0,0.49895833333333334,98.85312500000006
62,0,0,98.85312500000006
65,0,0,98.85312500000006
57,64,0.0010416666666666667,98.85416666666673
62,64,0,98.85416666666673
65,64,0,98.85416666666673
77,0,0.49895833333333334,99.35312500000006
57,0,0,99.35312500000006
62,0,0,99.35312500000006
65,0,0,99.35312500000006
71,64,0.0010416666666666667,99.35416666666673
43,64,0,99.35416666666673
71,0,0.24687499999999998,99.60104166666673
72,64,0.0010416666666666667,99.6020833333334
72,0,0.24895833333333334,99.85104166666673
43,0,0,99.85104166666673
74,64,0.0010416666666666667,99.8520833333334
55,64,0,99.8520833333334
59,64,0,99.8520833333334
65,64,0,99.8520833333334
74,0,0.24895833333333334,100.10104166666673
81,64,0.0010416666666666667,100.1020833333334
81,0,0.24895833333333334,100.35104166666673
55,0,0,100.35104166666673
59,0,0,100.35104166666673
65,0,0,100.35104166666673
79,64,0.0010416666666666667,100.3520833333334
55,64,0,100.3520833333334
59,64,0,100.3520833333334
65,64,0,100.3520833333334
79,0,0.24895833333333334,100.60104166666673
77,64,0.0010416666666666667,100.6020833333334
77,0,0.24895833333333334,100.85104166666673
55,0,0,100.85104166666673
59,0,0,100.85104166666673
65,0,0,100.85104166666673
76,64,0.0010416666666666667,100.8520833333334
48,64,0,100.8520833333334
76,0,0.059375,100.9114583333334
77,64,0.0010416666666666667,100.91250000000007
77,0,0.06145833333333333,100.9739583333334
76,64,0.0010416666666666667,100.97500000000007
76,0,0.12395833333333334,101.0989583333334
75,64,0.0010416666666666667,101.10000000000007
75,0,0.24895833333333334,101.3489583333334
48,0,0,101.3489583333334
76,64,0.0010416666666666667,101.35000000000007
55,64,0,101.35000000000007
60,64,0,101.35000000000007
64,64,0,101.35000000000007
55,0,0.49895833333333334,101.8489583333334
60,0,0,101.8489583333334
64,0,0,101.8489583333334
55,64,0.0010416666666666667,101.85000000000007
60,64,0,101.85000000000007
64,64,0,101.85000000000007
76,0,0.49895833333333334,102.3489583333334
55,0,0,102.3489583333334
60,0,0,102.3489583333334
64,0,0,102.3489583333334
69,64,0.0010416666666666667,102.35000000000007
45,64,0,102.35000000000007
69,0,0.24687499999999998,102.59687500000007
71,64,0.0010416666666666667,102.59791666666673
71,0,0.24895833333333334,102.84687500000007
45,0,0,102.84687500000007
72,64,0.0010416666666666667,102.84791666666673
57,64,0,102.84791666666673
60,64,0,102.84791666666673
64,64,0,102.84791666666673
72,0,0.49895833333333334,103.34687500000007
57,0,0,103.34687500000007
60,0,0,103.34687500000007
64,0,0,103.34687500000007
72,64,0.0010416666666666667,103.34791666666673
57,64,0,103.34791666666673
60,64,0,103.34791666666673
64,64,0,103.34791666666673
72,0,0.49895833333333334,103.84687500000007
57,0,0,103.84687500000007
60,0,0,103.84687500000007
64,0,0,103.84687500000007
74,64,0.0010416666666666667,103.84791666666673
38,64,0,103.84791666666673
74,0,0.24687499999999998,104.09479166666674
76,64,0.0010416666666666667,104.0958333333334
76,0,0.24895833333333334,104.34479166666674
38,0,0,104.34479166666674
77,64,0.0010416666666666667,104.3458333333334
57,64,0,104.3458333333334
62,64,0,104.3458333333334
65,64,0,104.3458333333334
57,0,0.49895833333333334,104.84479166666674
62,0,0,104.84479166666674
65,0,0,104.84479166666674
57,64,0.0010416666666666667,104.8458333333334
62,64,0,104.8458333333334
65,64,0,104.8458333333334
77,0,0.49895833333333334,105.34479166666674
57,0,0,105.34479166666674
62,0,0,105.34479166666674
65,0,0,105.34479166666674
71,64,0.0010416666666666667,105.3458333333334
43,64,0,105.3458333333334
71,0,0.24687499999999998,105.5927083333334
72,64,0.0010416666666666667,105.59375000000007
72,0,0.24895833333333334,105.8427083333334
43,0,0,105.8427083333334
74,64,0.0010416666666666667,105.84375000000007
55,64,0,105.84375000000007
59,64,0,105.84375000000007
65,64,0,105.84375000000007
74,0,0.24895833333333334,106.0927083333334
81,64,0.0010416666666666667,106.09375000000007
81,0,0.24895833333333334,106.3427083333334
55,0,0,106.3427083333334
59,0,0,106.3427083333334
65,0,0,106.3427083333334
79,64,0.0010416666666666667,106.34375000000007
55,64,0,106.34375000000007
59,64,0,106.34375000000007
65,64,0,106.34375000000007
79,0,0.24895833333333334,106.5927083333334
71,64,0.0010416666666666667,106.59375000000007
71,0,0.24895833333333334,106.8427083333334
55,0,0,106.8427083333334
59,0,0,106.8427083333334
65,0,0,106.8427083333334
72,64,0.0010416666666666667,106.84375000000007
48,64,0,106.84375000000007
72,0,0.496875,107.34062500000007
48,0,0,107.34062500000007
55,64,0.0010416666666666667,107.34166666666674
64,64,0,107.34166666666674
55,0,0.49895833333333334,107.84062500000007
64,0,0,107.84062500000007
64,64,0.0010416666666666667,107.84166666666674
64,0,0.4979166666666667,108.33958333333341
69,64,0.0010416666666666667,108.34062500000007
33,64,0,108.34062500000007
69,0,0.24687499999999998,108.58750000000008
71,64,0.0010416666666666667,108.58854166666674
71,0,0.24895833333333334,108.83750000000008
33,0,0,108.83750000000008
72,64,0.0010416666666666667,108.83854166666674
57,64,0,108.83854166666674
60,64,0,108.83854166666674
64,64,0,108.83854166666674
72,0,0.49895833333333334,109.33750000000008
57,0,0,109.33750000000008
60,0,0,109.33750000000008
64,0,0,109.33750000000008
72,64,0.0010416666666666667,109.33854166666674
57,64,0,109.33854166666674
60,64,0,109.33854166666674
64,64,0,109.33854166666674
72,0,0.49895833333333334,109.83750000000008
57,0,0,109.83750000000008
60,0,0,109.83750000000008
64,0,0,109.83750000000008
74,64,0.0010416666666666667,109.83854166666674
38,64,0,109.83854166666674
74,0,0.24687499999999998,110.08541666666675
76,64,0.0010416666666666667,110.08645833333341
76,0,0.24895833333333334,110.33541666666675
38,0,0,110.33541666666675
77,64,0.0010416666666666667,110.33645833333341
57,64,0,110.33645833333341
62,64,0,110.33645833333341
65,64,0,110.33645833333341
57,0,0.49895833333333334,110.83541666666675
62,0,0,110.83541666666675
65,0,0,110.83541666666675
57,64,0.0010416666666666667,110.83645833333341
62,64,0,110.83645833333341
65,64,0,110.83645833333341
77,0,0.49895833333333334,111.33541666666675
57,0,0,111.33541666666675
62,0,0,111.33541666666675
65,0,0,111.33541666666675
40,64,0.0010416666666666667,111.33645833333341
76,64,0.24791666666666667,111.58437500000008
76,0,0.06145833333333333,111.64583333333341
77,64,0.0010416666666666667,111.64687500000008
77,0,0.06145833333333333,111.70833333333341
76,64,0.0010416666666666667,111.70937500000008
76,0,0.12395833333333334,111.83333333333341
40,0,0,111.83333333333341
75,64,0.0010416666666666667,111.83437500000008
52,64,0,111.83437500000008
56,64,0,111.83437500000008
62,64,0,111.83437500000008
75,0,0.24895833333333334,112.08333333333341
76,64,0.0010416666666666667,112.08437500000008
76,0,0.24895833333333334,112.33333333333341
52,0,0,112.33333333333341
56,0,0,112.33333333333341
62,0,0,112.33333333333341
83,64,0.0010416666666666667,112.33437500000008
52,64,0,112.33437500000008
56,64,0,112.33437500000008
62,64,0,112.33437500000008
83,0,0.24895833333333334,112.58333333333341
74,64,0.0010416666666666667,112.58437500000008
74,0,0.24895833333333334,112.83333333333341
52,0,0,112.83333333333341
56,0,0,112.83333333333341
62,0,0,112.83333333333341
72,64,0.0010416666666666667,112.83437500000008
45,64,0,112.83437500000008
45,0,0.496875,113.33125000000008
52,64,0.0010416666666666667,113.33229166666675
57,64,0,113.33229166666675
60,64,0,113.33229166666675
72,0,0.49895833333333334,113.83125000000008
52,0,0,113.83125000000008
57,0,0,113.83125000000008
60,0,0,113.83125000000008
52,64,0.0010416666666666667,113.83229166666675
57,64,0,113.83229166666675
60,64,0,113.83229166666675
52,0,0.49895833333333334,114.33125000000008
57,0,0,114.33125000000008
60,0,0,114.33125000000008
48,64,0.0010416666666666667,114.33229166666675
84,64,0.24791666666666667,114.58020833333342
84,0,0.24895833333333334,114.82916666666675
48,0,0,114.82916666666675
83,64,0.0010416666666666667,114.83020833333342
52,64,0,114.83020833333342
57,64,0,114.83020833333342
64,64,0,114.83020833333342
83,0,0.24895833333333334,115.07916666666675
81,64,0.0010416666666666667,115.08020833333342
81,0,0.24895833333333334,115.32916666666675
52,0,0,115.32916666666675
57,0,0,115.32916666666675
64,0,0,115.32916666666675
79,64,0.0010416666666666667,115.33020833333342
79,0,0.24791666666666667,115.57812500000009
77,64,0.0010416666666666667,115.57916666666675
77,0,0.24895833333333334,115.82812500000009
76,64,0.0010416666666666667,115.82916666666675
50,64,0,115.82916666666675
76,0,0.24687499999999998,116.07604166666675
74,64,0.0010416666666666667,116.07708333333342
74,0,0.24895833333333334,116.32604166666675
50,0,0,116.32604166666675
73,64,0.0010416666666666667,116.32708333333342
57,64,0,116.32708333333342
59,64,0,116.32708333333342
65,64,0,116.32708333333342
73,0,0.24895833333333334,116.57604166666675
74,64,0.0010416666666666667,116.57708333333342
74,0,0.24895833333333334,116.82604166666675
57,0,0,116.82604166666675
59,0,0,116.82604166666675
65,0,0,116.82604166666675
76,64,0.0010416666666666667,116.82708333333342
76,0,0.24791666666666667,117.07500000000009
77,64,0.0010416666666666667,117.07604166666675
77,0,0.24895833333333334,117.32500000000009
76,64,0.0010416666666666667,117.32604166666675
40,64,0,117.32604166666675
76,0,0.059375,117.38541666666676
77,64,0.0010416666666666667,117.38645833333342
77,0,0.06145833333333333,117.44791666666676
76,64,0.0010416666666666667,117.44895833333342
76,0,0.06145833333333333,117.51041666666676
77,64,0.0010416666666666667,117.51145833333342
77,0,0.06145833333333333,117.57291666666676
76,64,0.0010416666666666667,117.57395833333342
76,0,0.06145833333333333,117.63541666666676
77,64,0.0010416666666666667,117.63645833333342
77,0,0.06145833333333333,117.69791666666676
76,64,0.0010416666666666667,117.69895833333342
76,0,0.06145833333333333,117.76041666666676
77,64,0.0010416666666666667,117.76145833333342
77,0,0.06145833333333333,117.82291666666676
40,0,0,117.82291666666676
75,64,0.0010416666666666667,117.82395833333342
52,64,0,117.82395833333342
60,64,0,117.82395833333342
75,0,0.24895833333333334,118.07291666666676
76,64,0.0010416666666666667,118.07395833333342
76,0,0.24895833333333334,118.32291666666676
52,0,0,118.32291666666676
60,0,0,118.32291666666676
77,64,0.0010416666666666667,118.32395833333342
52,64,0,118.32395833333342
59,64,0,118.32395833333342
62,64,0,118.32395833333342
77,0,0.24687499999999998,118.57083333333343
68,64,0.0010416666666666667,118.57187500000009
68,0,0.24895833333333334,118.82083333333343
52,0,0,118.82083333333343
59,0,0,118.82083333333343
62,0,0,118.82083333333343
69,64,0.0010416666666666667,118.82187500000009
45,64,0,118.82187500000009
45,0,0.496875,119.3187500000001
52,64,0.0010416666666666667,119.31979166666676
60,64,0,119.31979166666676
69,0,0.49895833333333334,119.8187500000001
52,0,0,119.8187500000001
60,0,0,119.8187500000001
59,49,0,0.0
59,0,0.8975,0.8975
71,49,0.0025,0.8999999999999999
71,0,0.2975,1.1974999999999998
71,49,0,1.1974999999999998
55,35,0,1.1974999999999998
59,35,0,1.1974999999999998
64,35,0,1.1974999999999998
55,0,0.5925,1.7899999999999998
59,0,0,1.7899999999999998
64,0,0,1.7899999999999998
55,35,0.0025,1.7924999999999998
59,35,0,1.7924999999999998
64,35,0,1.7924999999999998
55,0,0.5975,2.3899999999999997
59,0,0,2.3899999999999997
64,0,0,2.3899999999999997
55,35,0.0025,2.3924999999999996
59,35,0,2.3924999999999996
64,35,0,2.3924999999999996
55,0,0.5975,2.9899999999999998
59,0,0,2.9899999999999998
64,0,0,2.9899999999999998
55,35,0.0025,2.9924999999999997
59,35,0,2.9924999999999997
64,35,0,2.9924999999999997
55,0,0.5975,3.59
59,0,0,3.59
64,0,0,3.59
55,35,0.0025,3.5925
59,35,0,3.5925
64,35,0,3.5925
55,0,0.5975,4.1899999999999995
59,0,0,4.1899999999999995
64,0,0,4.1899999999999995
55,35,0.0025,4.1925
59,35,0,4.1925
64,35,0,4.1925
71,0,0.5975,4.79
55,0,0,4.79
59,0,0,4.79
64,0,0,4.79
72,49,0.0025,4.7925
55,35,0,4.7925
59,35,0,4.7925
64,35,0,4.7925
55,0,0.5975,5.390000000000001
59,0,0,5.390000000000001
64,0,0,5.390000000000001
55,35,0.0025,5.392500000000001
59,35,0,5.392500000000001
64,35,0,5.392500000000001
72,0,0.5975,5.990000000000001
55,0,0,5.990000000000001
59,0,0,5.990000000000001
64,0,0,5.990000000000001
71,49,0.0025,5.9925000000000015
54,35,0,5.9925000000000015
57,35,0,5.9925000000000015
64,35,0,5.9925000000000015
54,0,0.5925,6.585000000000002
57,0,0,6.585000000000002
64,0,0,6.585000000000002
54,35,0.0025,6.587500000000002
57,35,0,6.587500000000002
64,35,0,6.587500000000002
54,0,0.5975,7.185000000000002
57,0,0,7.185000000000002
64,0,0,7.185000000000002
54,35,0.0025,7.187500000000003
57,35,0,7.187500000000003
64,35,0,7.187500000000003
54,0,0.5975,7.785000000000003
57,0,0,7.785000000000003
64,0,0,7.785000000000003
54,35,0.0025,7.787500000000003
57,35,0,7.787500000000003
64,35,0,7.787500000000003
54,0,0.5975,8.385000000000003
57,0,0,8.385000000000003
64,0,0,8.385000000000003
54,35,0.0025,8.387500000000003
57,35,0,8.387500000000003
63,35,0,8.387500000000003
54,0,0.5925,8.980000000000002
57,0,0,8.980000000000002
63,0,0,8.980000000000002
54,35,0.0025,8.982500000000002
57,35,0,8.982500000000002
63,35,0,8.982500000000002
71,0,0.5975,9.580000000000002
54,0,0,9.580000000000002
57,0,0,9.580000000000002
63,0,0,9.580000000000002
72,49,0.0025,9.582500000000001
54,35,0,9.582500000000001
57,35,0,9.582500000000001
63,35,0,9.582500000000001
54,0,0.5975,10.180000000000001
57,0,0,10.180000000000001
63,0,0,10.180000000000001
54,35,0.0025,10.182500000000001
57,35,0,10.182500000000001
63,35,0,10.182500000000001
72,0,0.5975,10.780000000000001
54,0,0,10.780000000000001
57,0,0,10.780000000000001
63,0,0,10.780000000000001
71,49,0.0025,10.7825
53,35,0,10.7825
57,35,0,10.7825
63,35,0,10.7825
53,0,0.5925,11.375
57,0,0,11.375
63,0,0,11.375
53,35,0.0025,11.3775
57,35,0,11.3775
63,35,0,11.3775
53,0,0.5975,11.975
57,0,0,11.975
63,0,0,11.975
53,35,0.0025,11.9775
57,35,0,11.9775
63,35,0,11.9775
53,0,0.5975,12.575
57,0,0,12.575
63,0,0,12.575
53,35,0.0025,12.577499999999999
57,35,0,12.577499999999999
63,35,0,12.577499999999999
53,0,0.5975,13.174999999999999
57,0,0,13.174999999999999
63,0,0,13.174999999999999
53,35,0.0025,13.177499999999998
57,35,0,13.177499999999998
62,35,0,13.177499999999998
53,0,0.5925,13.769999999999998
57,0,0,13.769999999999998
62,0,0,13.769999999999998
53,35,0.0025,13.772499999999997
57,35,0,13.772499999999997
62,35,0,13.772499999999997
71,0,0.5975,14.369999999999997
53,0,0,14.369999999999997
57,0,0,14.369999999999997
62,0,0,14.369999999999997
72,49,0.0025,14.372499999999997
53,35,0,14.372499999999997
56,35,0,14.372499999999997
62,35,0,14.372499999999997
53,0,0.5925,14.964999999999996
56,0,0,14.964999999999996
62,0,0,14.964999999999996
53,35,0.0025,14.967499999999996
56,35,0,14.967499999999996
62,35,0,14.967499999999996
72,0,0.5975,15.564999999999996
53,0,0,15.564999999999996
56,0,0,15.564999999999996
62,0,0,15.564999999999996
71,49,0.0025,15.567499999999995
52,35,0,15.567499999999995
56,35,0,15.567499999999995
62,35,0,15.567499999999995
52,0,0.5925,16.159999999999997
56,0,0,16.159999999999997
62,0,0,16.159999999999997
52,35,0.0025,16.162499999999998
56,35,0,16.162499999999998
62,35,0,16.162499999999998
52,0,0.5975,16.759999999999998
56,0,0,16.759999999999998
62,0,0,16.759999999999998
52,35,0.0025,16.7625
56,35,0,16.7625
62,35,0,16.7625
52,0,0.5975,17.36
56,0,0,17.36
62,0,0,17.36
52,35,0.0025,17.3625
56,35,0,17.3625
62,35,0,17.3625
52,0,0.5975,17.96
56,0,0,17.96
62,0,0,17.96
52,35,0.0025,17.962500000000002
55,35,0,17.962500000000002
62,35,0,17.962500000000002
52,0,0.5925,18.555000000000003
55,0,0,18.555000000000003
62,0,0,18.555000000000003
52,35,0.0025,18.557500000000005
55,35,0,18.557500000000005
62,35,0,18.557500000000005
71,0,0.5975,19.155000000000005
52,0,0,19.155000000000005
55,0,0,19.155000000000005
62,0,0,19.155000000000005
70,49,0.0025,19.157500000000006
52,35,0,19.157500000000006
55,35,0,19.157500000000006
61,35,0,19.157500000000006
52,0,0.5925,19.750000000000007
55,0,0,19.750000000000007
61,0,0,19.750000000000007
52,35,0.0025,19.75250000000001
55,35,0,19.75250000000001
61,35,0,19.75250000000001
70,0,0.5975,20.35000000000001
52,0,0,20.35000000000001
55,0,0,20.35000000000001
61,0,0,20.35000000000001
69,49,0.0025,20.35250000000001
52,35,0,20.35250000000001
55,35,0,20.35250000000001
60,35,0,20.35250000000001
52,0,0.5925,20.94500000000001
55,0,0,20.94500000000001
60,0,0,20.94500000000001
52,35,0.0025,20.947500000000012
55,35,0,20.947500000000012
60,35,0,20.947500000000012
52,0,0.5975,21.545000000000012
55,0,0,21.545000000000012
60,0,0,21.545000000000012
52,35,0.0025,21.547500000000014
55,35,0,21.547500000000014
60,35,0,21.547500000000014
52,0,0.5975,22.145000000000014
55,0,0,22.145000000000014
60,0,0,22.145000000000014
52,35,0.0025,22.147500000000015
55,35,0,22.147500000000015
60,35,0,22.147500000000015
52,0,0.5975,22.745000000000015
55,0,0,22.745000000000015
60,0,0,22.745000000000015
52,35,0.0025,22.747500000000016
54,35,0,22.747500000000016
60,35,0,22.747500000000016
52,0,0.5925,23.340000000000018
54,0,0,23.340000000000018
60,0,0,23.340000000000018
52,35,0.0025,23.34250000000002
54,35,0,23.34250000000002
60,35,0,23.34250000000002
69,0,0.5975,23.94000000000002
52,0,0,23.94000000000002
54,0,0,23.94000000000002
60,0,0,23.94000000000002
71,49,0.0025,23.94250000000002
52,35,0,23.94250000000002
54,35,0,23.94250000000002
60,35,0,23.94250000000002
52,0,0.5975,24.54000000000002
54,0,0,24.54000000000002
60,0,0,24.54000000000002
52,35,0.0025,24.54250000000002
54,35,0,24.54250000000002
60,35,0,24.54250000000002
71,0,0.5975,25.140000000000022
52,0,0,25.140000000000022
54,0,0,25.140000000000022
60,0,0,25.140000000000022
69,49,0.0025,25.142500000000023
52,35,0,25.142500000000023
54,35,0,25.142500000000023
60,35,0,25.142500000000023
52,0,0.5925,25.735000000000024
54,0,0,25.735000000000024
60,0,0,25.735000000000024
52,35,0.0025,25.737500000000026
54,35,0,25.737500000000026
60,35,0,25.737500000000026
52,0,0.5975,26.335000000000026
54,0,0,26.335000000000026
60,0,0,26.335000000000026
52,35,0.0025,26.337500000000027
54,35,0,26.337500000000027
60,35,0,26.337500000000027
52,0,0.5975,26.935000000000027
54,0,0,26.935000000000027
60,0,0,26.935000000000027
52,35,0.0025,26.93750000000003
54,35,0,26.93750000000003
60,35,0,26.93750000000003
52,0,0.5975,27.53500000000003
54,0,0,27.53500000000003
60,0,0,27.53500000000003
51,35,0.0025,27.53750000000003
54,35,0,27.53750000000003
60,35,0,27.53750000000003
51,0,0.5925,28.13000000000003
54,0,0,28.13000000000003
60,0,0,28.13000000000003
51,35,0.0025,28.132500000000032
54,35,0,28.132500000000032
60,35,0,28.132500000000032
69,0,0.5975,28.730000000000032
51,0,0,28.730000000000032
54,0,0,28.730000000000032
60,0,0,28.730000000000032
71,49,0.0025,28.732500000000034
51,35,0,28.732500000000034
54,35,0,28.732500000000034
60,35,0,28.732500000000034
51,0,0.5975,29.330000000000034
54,0,0,29.330000000000034
60,0,0,29.330000000000034
51,35,0.0025,29.332500000000035
54,35,0,29.332500000000035
60,35,0,29.332500000000035
71,0,0.5975,29.930000000000035
51,0,0,29.930000000000035
54,0,0,29.930000000000035
60,0,0,29.930000000000035
69,49,0.0025,29.932500000000037
50,35,0,29.932500000000037
54,35,0,29.932500000000037
60,35,0,29.932500000000037
50,0,0.5925,30.525000000000038
54,0,0,30.525000000000038
60,0,0,30.525000000000038
50,35,0.0025,30.52750000000004
54,35,0,30.52750000000004
60,35,0,30.52750000000004
50,0,0.5975,31.12500000000004
54,0,0,31.12500000000004
60,0,0,31.12500000000004
50,35,0.0025,31.12750000000004
54,35,0,31.12750000000004
60,35,0,31.12750000000004
50,0,0.5975,31.72500000000004
54,0,0,31.72500000000004
60,0,0,31.72500000000004
50,35,0.0025,31.727500000000042
54,35,0,31.727500000000042
60,35,0,31.727500000000042
50,0,0.5975,32.32500000000004
54,0,0,32.32500000000004
60,0,0,32.32500000000004
50,35,0.0025,32.327500000000036
54,35,0,32.327500000000036
60,35,0,32.327500000000036
50,0,0.5975,32.92500000000003
54,0,0,32.92500000000003
60,0,0,32.92500000000003
50,35,0.0025,32.92750000000003
54,35,0,32.92750000000003
60,35,0,32.92750000000003
69,0,0.5975,33.52500000000003
50,0,0,33.52500000000003
54,0,0,33.52500000000003
60,0,0,33.52500000000003
71,49,0.0025,33.527500000000025
50,35,0,33.527500000000025
54,35,0,33.527500000000025
60,35,0,33.527500000000025
50,0,0.5975,34.12500000000002
54,0,0,34.12500000000002
60,0,0,34.12500000000002
50,35,0.0025,34.12750000000002
54,35,0,34.12750000000002
60,35,0,34.12750000000002
71,0,0.2975,34.42500000000002
69,49,0.0025,34.427500000000016
69,0,0.2975,34.725000000000016
50,0,0,34.725000000000016
54,0,0,34.725000000000016
60,0,0,34.725000000000016
69,49,0.0025,34.72750000000001
50,35,0,34.72750000000001
53,35,0,34.72750000000001
60,35,0,34.72750000000001
50,0,0.5925,35.320000000000014
53,0,0,35.320000000000014
60,0,0,35.320000000000014
50,35,0.0025,35.32250000000001
53,35,0,35.32250000000001
60,35,0,35.32250000000001
50,0,0.5975,35.92000000000001
53,0,0,35.92000000000001
60,0,0,35.92000000000001
50,35,0.0025,35.92250000000001
53,35,0,35.92250000000001
60,35,0,35.92250000000001
50,0,0.5975,36.52
53,0,0,36.52
60,0,0,36.52
50,35,0.0025,36.5225
53,35,0,36.5225
60,35,0,36.5225
50,0,0.5975,37.12
53,0,0,37.12
60,0,0,37.12
50,35,0.0025,37.122499999999995
53,35,0,37.122499999999995
59,35,0,37.122499999999995
50,0,0.5925,37.714999999999996
53,0,0,37.714999999999996
59,0,0,37.714999999999996
50,35,0.0025,37.717499999999994
53,35,0,37.717499999999994
59,35,0,37.717499999999994
69,0,0.4175,38.13499999999999
50,0,0.18,38.31499999999999
53,0,0,38.31499999999999
59,0,0,38.31499999999999
68,49,0.0025,38.31749999999999
50,66,0,38.31749999999999
53,66,0,38.31749999999999
59,66,0,38.31749999999999
50,0,0.5975,38.914999999999985
53,0,0,38.914999999999985
59,0,0,38.914999999999985
50,66,0.0025,38.91749999999998
53,66,0,38.91749999999998
59,66,0,38.91749999999998
50,0,0.5975,39.51499999999998
53,0,0,39.51499999999998
59,0,0,39.51499999999998
48,66,0.0025,39.51749999999998
52,66,0,39.51749999999998
59,66,0,39.51749999999998
48,0,0.5925,40.10999999999998
52,0,0,40.10999999999998
59,0,0,40.10999999999998
48,66,0.0025,40.112499999999976
52,66,0,40.112499999999976
59,66,0,40.112499999999976
68,0,0.47750000000000004,40.589999999999975
48,0,0.12,40.70999999999997
52,0,0,40.70999999999997
59,0,0,40.70999999999997
69,49,0.0025,40.71249999999997
48,66,0,40.71249999999997
52,66,0,40.71249999999997
57,66,0,40.71249999999997
69,0,0.5925,41.30499999999997
48,0,0,41.30499999999997
52,0,0,41.30499999999997
57,0,0,41.30499999999997
71,49,0.0025,41.30749999999997
48,66,0,41.30749999999997
52,66,0,41.30749999999997
57,66,0,41.30749999999997
71,0,0.5975,41.904999999999966
48,0,0,41.904999999999966
52,0,0,41.904999999999966
57,0,0,41.904999999999966
74,49,0.0025,41.90749999999996
48,66,0,41.90749999999996
52,66,0,41.90749999999996
57,66,0,41.90749999999996
74,0,0.5975,42.50499999999996
48,0,0,42.50499999999996
52,0,0,42.50499999999996
57,0,0,42.50499999999996
72,49,0.0025,42.50749999999996
48,66,0,42.50749999999996
52,66,0,42.50749999999996
57,66,0,42.50749999999996
72,0,0.5975,43.104999999999954
48,0,0,43.104999999999954
52,0,0,43.104999999999954
57,0,0,43.104999999999954
64,49,0.0025,43.10749999999995
48,66,0,43.10749999999995
52,66,0,43.10749999999995
57,66,0,43.10749999999995
64,0,0.5975,43.70499999999995
48,0,0,43.70499999999995
52,0,0,43.70499999999995
57,0,0,43.70499999999995
69,49,0.0025,43.707499999999946
48,66,0,43.707499999999946
52,66,0,43.707499999999946
57,66,0,43.707499999999946
69,0,0.5975,44.30499999999994
48,0,0,44.30499999999994
52,0,0,44.30499999999994
57,0,0,44.30499999999994
66,49,0.0025,44.30749999999994
47,35,0,44.30749999999994
52,35,0,44.30749999999994
57,35,0,44.30749999999994
47,0,0.5925,44.89999999999994
52,0,0,44.89999999999994
57,0,0,44.89999999999994
47,35,0.0025,44.90249999999994
52,35,0,44.90249999999994
57,35,0,44.90249999999994
47,0,0.5975,45.499999999999936
52,0,0,45.499999999999936
57,0,0,45.499999999999936
47,35,0.0025,45.502499999999934
51,35,0,45.502499999999934
57,35,0,45.502499999999934
47,0,0.5925,46.094999999999935
51,0,0,46.094999999999935
57,0,0,46.094999999999935
47,35,0.0025,46.09749999999993
51,35,0,46.09749999999993
57,35,0,46.09749999999993
47,0,0.5975,46.69499999999993
51,0,0,46.69499999999993
57,0,0,46.69499999999993
48,35,0.0025,46.69749999999993
52,35,0,46.69749999999993
57,35,0,46.69749999999993
48,0,0.5925,47.28999999999993
52,0,0,47.28999999999993
57,0,0,47.28999999999993
48,35,0.0025,47.292499999999926
52,35,0,47.292499999999926
57,35,0,47.292499999999926
66,0,0.4175,47.70999999999992
48,0,0.18,47.88999999999992
52,0,0,47.88999999999992
57,0,0,47.88999999999992
69,49,0.0025,47.89249999999992
48,35,0,47.89249999999992
52,35,0,47.89249999999992
57,35,0,47.89249999999992
48,0,0.5975,48.48999999999992
52,0,0,48.48999999999992
57,0,0,48.48999999999992
48,35,0.0025,48.492499999999914
52,35,0,48.492499999999914
57,35,0,48.492499999999914
69,0,0.5975,49.08999999999991
48,0,0,49.08999999999991
52,0,0,49.08999999999991
57,0,0,49.08999999999991
66,49,0.0025,49.09249999999991
47,35,0,49.09249999999991
51,35,0,49.09249999999991
57,35,0,49.09249999999991
47,0,0.5925,49.68499999999991
51,0,0,49.68499999999991
57,0,0,49.68499999999991
47,35,0.0025,49.68749999999991
51,35,0,49.68749999999991
57,35,0,49.68749999999991
47,0,0.5975,50.284999999999904
51,0,0,50.284999999999904
57,0,0,50.284999999999904
47,35,0.0025,50.2874999999999
51,35,0,50.2874999999999
57,35,0,50.2874999999999
47,0,0.5975,50.8849999999999
51,0,0,50.8849999999999
57,0,0,50.8849999999999
47,35,0.0025,50.887499999999896
51,35,0,50.887499999999896
57,35,0,50.887499999999896
47,0,0.5975,51.48499999999989
51,0,0,51.48499999999989
57,0,0,51.48499999999989
48,35,0.0025,51.48749999999989
52,35,0,51.48749999999989
57,35,0,51.48749999999989
48,0,0.5925,52.07999999999989
52,0,0,52.07999999999989
57,0,0,52.07999999999989
48,35,0.0025,52.08249999999989
52,35,0,52.08249999999989
57,35,0,52.08249999999989
66,0,0.4175,52.499999999999886
48,0,0.18,52.679999999999886
52,0,0,52.679999999999886
57,0,0,52.679999999999886
71,49,0.0025,52.682499999999884
48,35,0,52.682499999999884
52,35,0,52.682499999999884
57,35,0,52.682499999999884
71,0,0.5975,53.27999999999988
48,0,0,53.27999999999988
52,0,0,53.27999999999988
57,0,0,53.27999999999988
69,49,0.0025,53.28249999999988
48,35,0,53.28249999999988
52,35,0,53.28249999999988
57,35,0,53.28249999999988
69,0,0.5975,53.879999999999875
48,0,0,53.879999999999875
52,0,0,53.879999999999875
57,0,0,53.879999999999875
67,49,0.0025,53.88249999999987
47,35,0,53.88249999999987
51,35,0,53.88249999999987
57,35,0,53.88249999999987
67,0,0.595,54.47749999999987
66,49,0.0025,54.47999999999987
47,0,0.5375,55.01749999999987
51,0,0,55.01749999999987
57,0,0,55.01749999999987
66,0,0.06,55.07749999999987
60,73,0.0025,55.07999999999987
60,0,0.5975,55.67749999999987
59,49,0.0025,55.679999999999865
59,0,0.5975,56.27749999999986
63,49,0.0025,56.27999999999986
63,0,0.5975,56.877499999999856
66,49,0.0025,56.87999999999985
66,0,0.5975,57.47749999999985
74,49,0.0025,57.47999999999985
74,0,0.3975,57.87749999999985
72,49,0.0025,57.879999999999846
72,0,0.3975,58.27749999999985
71,49,0.0025,58.279999999999845
71,0,0.3775,58.65749999999984
71,49,0.0225,58.67999999999984
55,66,0,58.67999999999984
59,66,0,58.67999999999984
64,66,0,58.67999999999984
55,0,0.5925,59.272499999999845
59,0,0,59.272499999999845
64,0,0,59.272499999999845
55,66,0.0025,59.27499999999984
59,66,0,59.27499999999984
64,66,0,59.27499999999984
55,0,0.5975,59.87249999999984
59,0,0,59.87249999999984
64,0,0,59.87249999999984
55,66,0.0025,59.87499999999984
59,66,0,59.87499999999984
64,66,0,59.87499999999984
55,0,0.5975,60.47249999999983
59,0,0,60.47249999999983
64,0,0,60.47249999999983
55,66,0.0025,60.47499999999983
59,66,0,60.47499999999983
64,66,0,60.47499999999983
55,0,0.5975,61.07249999999983
59,0,0,61.07249999999983
64,0,0,61.07249999999983
55,66,0.0025,61.074999999999825
59,66,0,61.074999999999825
64,66,0,61.074999999999825
55,0,0.5975,61.67249999999982
59,0,0,61.67249999999982
64,0,0,61.67249999999982
55,66,0.0025,61.67499999999982
59,66,0,61.67499999999982
64,66,0,61.67499999999982
71,0,0.5975,62.272499999999816
55,0,0,62.272499999999816
59,0,0,62.272499999999816
64,0,0,62.272499999999816
72,49,0.0025,62.274999999999814
55,66,0,62.274999999999814
59,66,0,62.274999999999814
64,66,0,62.274999999999814
55,0,0.5975,62.87249999999981
59,0,0,62.87249999999981
64,0,0,62.87249999999981
55,66,0.0025,62.87499999999981
59,66,0,62.87499999999981
64,66,0,62.87499999999981
72,0,0.5975,63.472499999999805
55,0,0,63.472499999999805
59,0,0,63.472499999999805
64,0,0,63.472499999999805
71,49,0.0025,63.4749999999998
54,66,0,63.4749999999998
57,66,0,63.4749999999998
64,66,0,63.4749999999998
54,0,0.5925,64.0674999999998
57,0,0,64.0674999999998
64,0,0,64.0674999999998
54,66,0.0025,64.0699999999998
57,66,0,64.0699999999998
64,66,0,64.0699999999998
54,0,0.5975,64.66749999999979
57,0,0,64.66749999999979
64,0,0,64.66749999999979
54,66,0.0025,64.66999999999979
57,66,0,64.66999999999979
64,66,0,64.66999999999979
54,0,0.5975,65.26749999999979
57,0,0,65.26749999999979
64,0,0,65.26749999999979
54,66,0.0025,65.26999999999978
57,66,0,65.26999999999978
64,66,0,65.26999999999978
54,0,0.5975,65.86749999999978
57,0,0,65.86749999999978
64,0,0,65.86749999999978
53,66,0.0025,65.86999999999978
57,66,0,65.86999999999978
63,66,0,65.86999999999978
53,0,0.5925,66.46249999999978
57,0,0,66.46249999999978
63,0,0,66.46249999999978
53,66,0.0025,66.46499999999978
57,66,0,66.46499999999978
63,66,0,66.46499999999978
71,0,0.5975,67.06249999999977
53,0,0,67.06249999999977
57,0,0,67.06249999999977
63,0,0,67.06249999999977
72,49,0.0025,67.06499999999977
53,66,0,67.06499999999977
57,66,0,67.06499999999977
63,66,0,67.06499999999977
53,0,0.5975,67.66249999999977
57,0,0,67.66249999999977
63,0,0,67.66249999999977
53,66,0.0025,67.66499999999976
57,66,0,67.66499999999976
63,66,0,67.66499999999976
72,0,0.5975,68.26249999999976
53,0,0,68.26249999999976
57,0,0,68.26249999999976
63,0,0,68.26249999999976
71,49,0.0025,68.26499999999976
53,66,0,68.26499999999976
56,66,0,68.26499999999976
63,66,0,68.26499999999976
53,0,0.5925,68.85749999999976
56,0,0,68.85749999999976
63,0,0,68.85749999999976
53,66,0.0025,68.85999999999976
56,66,0,68.85999999999976
63,66,0,68.85999999999976
53,0,0.5975,69.45749999999975
56,0,0,69.45749999999975
63,0,0,69.45749999999975
53,66,0.0025,69.45999999999975
56,66,0,69.45999999999975
62,66,0,69.45999999999975
53,0,0.5925,70.05249999999975
56,0,0,70.05249999999975
62,0,0,70.05249999999975
53,66,0.0025,70.05499999999975
56,66,0,70.05499999999975
62,66,0,70.05499999999975
53,0,0.5975,70.65249999999975
56,0,0,70.65249999999975
62,0,0,70.65249999999975
52,66,0.0025,70.65499999999975
56,66,0,70.65499999999975
62,66,0,70.65499999999975
52,0,0.5925,71.24749999999975
56,0,0,71.24749999999975
62,0,0,71.24749999999975
52,66,0.0025,71.24999999999974
56,66,0,71.24999999999974
62,66,0,71.24999999999974
71,0,0.5975,71.84749999999974
52,0,0,71.84749999999974
56,0,0,71.84749999999974
62,0,0,71.84749999999974
72,49,0.0025,71.84999999999974
52,66,0,71.84999999999974
56,66,0,71.84999999999974
62,66,0,71.84999999999974
52,0,0.5975,72.44749999999974
56,0,0,72.44749999999974
62,0,0,72.44749999999974
52,66,0.0025,72.44999999999973
56,66,0,72.44999999999973
62,66,0,72.44999999999973
72,0,0.5975,73.04749999999973
52,0,0,73.04749999999973
56,0,0,73.04749999999973
62,0,0,73.04749999999973
71,49,0.0025,73.04999999999973
52,49,0,73.04999999999973
55,49,0,73.04999999999973
62,49,0,73.04999999999973
52,0,0.5925,73.64249999999973
55,0,0,73.64249999999973
62,0,0,73.64249999999973
52,49,0.0025,73.64499999999973
55,49,0,73.64499999999973
62,49,0,73.64499999999973
71,0,0.2975,73.94249999999973
70,49,0.0025,73.94499999999972
70,0,0.2975,74.24249999999972
52,0,0,74.24249999999972
55,0,0,74.24249999999972
62,0,0,74.24249999999972
70,49,0.0025,74.24499999999972
52,49,0,74.24499999999972
55,49,0,74.24499999999972
61,49,0,74.24499999999972
70,0,0.5925,74.83749999999972
52,0,0,74.83749999999972
55,0,0,74.83749999999972
61,0,0,74.83749999999972
71,49,0.0025,74.83999999999972
52,49,0,74.83999999999972
55,49,0,74.83999999999972
61,49,0,74.83999999999972
71,0,0.1475,74.98749999999971
70,49,0.0025,74.98999999999971
70,0,0.1475,75.1374999999997
69,49,0.0025,75.1399999999997
69,0,0.1475,75.2874999999997
70,49,0.0025,75.2899999999997
70,0,0.1475,75.43749999999969
52,0,0,75.43749999999969
55,0,0,75.43749999999969
61,0,0,75.43749999999969
79,49,0.0025,75.43999999999969
49,49,0,75.43999999999969
52,49,0,75.43999999999969
58,49,0,75.43999999999969
49,0,0.5925,76.03249999999969
52,0,0,76.03249999999969
58,0,0,76.03249999999969
49,49,0.0025,76.03499999999968
52,49,0,76.03499999999968
58,49,0,76.03499999999968
79,0,0.5975,76.63249999999968
49,0,0,76.63249999999968
52,0,0,76.63249999999968
58,0,0,76.63249999999968
78,49,0.0025,76.63499999999968
48,49,0,76.63499999999968
52,49,0,76.63499999999968
57,49,0,76.63499999999968
48,0,0.5925,77.22749999999968
52,0,0,77.22749999999968
57,0,0,77.22749999999968
48,49,0.0025,77.22999999999968
52,49,0,77.22999999999968
57,49,0,77.22999999999968
78,0,0.2975,77.52749999999968
76,49,0.0025,77.52999999999967
76,0,0.2975,77.82749999999967
48,0,0,77.82749999999967
52,0,0,77.82749999999967
57,0,0,77.82749999999967
76,96,0.0025,77.82999999999967
35,96,0,77.82999999999967
47,96,0,77.82999999999967
35,0,0.5625,78.39249999999967
47,0,0,78.39249999999967
76,0,0.03,78.42249999999967
75,96,0.0025,78.42499999999967
57,96,0,78.42499999999967
60,96,0,78.42499999999967
66,96,0,78.42499999999967
69,96,0,78.42499999999967
75,0,0.5975,79.02249999999967
57,0,0,79.02249999999967
60,0,0,79.02249999999967
66,0,0,79.02249999999967
69,0,0,79.02249999999967
84,96,0.0025,79.02499999999966
57,96,0,79.02499999999966
60,96,0,79.02499999999966
66,96,0,79.02499999999966
69,96,0,79.02499999999966
84,0,0.5975,79.62249999999966
57,0,0,79.62249999999966
60,0,0,79.62249999999966
66,0,0,79.62249999999966
69,0,0,79.62249999999966
75,93,0.0025,79.62499999999966
57,93,0,79.62499999999966
60,93,0,79.62499999999966
66,93,0,79.62499999999966
69,93,0,79.62499999999966
75,0,0.5975,80.22249999999966
57,0,0,80.22249999999966
60,0,0,80.22249999999966
66,0,0,80.22249999999966
69,0,0,80.22249999999966
75,90,0.0025,80.22499999999965
55,90,0,80.22499999999965
59,90,0,80.22499999999965
63,90,0,80.22499999999965
66,90,0,80.22499999999965
75,0,0.595,80.81999999999965
55,0,0,80.81999999999965
59,0,0,80.81999999999965
63,0,0,80.81999999999965
66,0,0,80.81999999999965
76,87,0.0025,80.82249999999965
55,87,0,80.82249999999965
59,87,0,80.82249999999965
64,87,0,80.82249999999965
76,0,0.5925,81.41499999999965
55,0,0,81.41499999999965
59,0,0,81.41499999999965
64,0,0,81.41499999999965
79,84,0.0025,81.41749999999965
55,84,0,81.41749999999965
59,84,0,81.41749999999965
64,84,0,81.41749999999965
79,0,0.5975,82.01499999999965
55,0,0,82.01499999999965
59,0,0,82.01499999999965
64,0,0,82.01499999999965
71,81,0.0025,82.01749999999964
55,81,0,82.01749999999964
59,81,0,82.01749999999964
64,81,0,82.01749999999964
71,0,0.5975,82.61499999999964
55,0,0,82.61499999999964
59,0,0,82.61499999999964
64,0,0,82.61499999999964
74,78,0.0025,82.61749999999964
57,78,0,82.61749999999964
60,78,0,82.61749999999964
64,78,0,82.61749999999964
74,0,0.5925,83.20999999999964
57,0,0,83.20999999999964
60,0,0,83.20999999999964
64,0,0,83.20999999999964
72,75,0.0025,83.21249999999964
57,75,0,83.21249999999964
60,75,0,83.21249999999964
64,75,0,83.21249999999964
72,0,0.5975,83.80999999999963
57,0,0,83.80999999999963
60,0,0,83.80999999999963
64,0,0,83.80999999999963
76,72,0.0025,83.81249999999963
45,72,0,83.81249999999963
76,0,0.3925,84.20499999999963
64,72,0.0025,84.20749999999963
45,0,0.1975,84.40499999999963
52,69,0.0025,84.40749999999963
54,69,0,84.40749999999963
60,69,0,84.40749999999963
64,0,0.1975,84.60499999999963
69,69,0.0025,84.60749999999963
69,0,0.3975,85.00499999999963
52,0,0,85.00499999999963
54,0,0,85.00499999999963
60,0,0,85.00499999999963
66,66,0.0025,85.00749999999962
47,66,0,85.00749999999962
52,66,0,85.00749999999962
59,66,0,85.00749999999962
47,0,0.5925,85.59999999999962
52,0,0,85.59999999999962
59,0,0,85.59999999999962
47,63,0.0025,85.60249999999962
52,63,0,85.60249999999962
59,63,0,85.60249999999962
47,0,0.5975,86.19999999999962
52,0,0,86.19999999999962
59,0,0,86.19999999999962
48,60,0.0025,86.20249999999962
52,60,0,86.20249999999962
57,60,0,86.20249999999962
66,0,0.5925,86.79499999999962
48,0,0,86.79499999999962
52,0,0,86.79499999999962
57,0,0,86.79499999999962
69,55,0.0025,86.79749999999962
48,55,0,86.79749999999962
52,55,0,86.79749999999962
57,55,0,86.79749999999962
69,0,0.5975,87.39499999999961
48,0,0,87.39499999999961
52,0,0,87.39499999999961
57,0,0,87.39499999999961
66,49,0.0025,87.39749999999961
47,40,0,87.39749999999961
52,40,0,87.39749999999961
59,40,0,87.39749999999961
47,0,0.5925,87.98999999999961
52,0,0,87.98999999999961
59,0,0,87.98999999999961
47,40,0.0025,87.99249999999961
52,40,0,87.99249999999961
59,40,0,87.99249999999961
47,0,0.5975,88.5899999999996
52,0,0,88.5899999999996
59,0,0,88.5899999999996
47,40,0.0025,88.5924999999996
52,40,0,88.5924999999996
59,40,0,88.5924999999996
47,0,0.5975,89.1899999999996
52,0,0,89.1899999999996
59,0,0,89.1899999999996
47,40,0.0025,89.1924999999996
52,40,0,89.1924999999996
59,40,0,89.1924999999996
47,0,0.5975,89.7899999999996
52,0,0,89.7899999999996
59,0,0,89.7899999999996
48,40,0.0025,89.79249999999959
52,40,0,89.79249999999959
57,40,0,89.79249999999959
48,0,0.5925,90.3849999999996
52,0,0,90.3849999999996
57,0,0,90.3849999999996
48,40,0.0025,90.38749999999959
52,40,0,90.38749999999959
57,40,0,90.38749999999959
66,0,0.4175,90.8049999999996
48,0,0.18,90.9849999999996
52,0,0,90.9849999999996
57,0,0,90.9849999999996
71,49,0.0025,90.9874999999996
48,40,0,90.9874999999996
52,40,0,90.9874999999996
57,40,0,90.9874999999996
71,0,0.5975,91.5849999999996
48,0,0,91.5849999999996
52,0,0,91.5849999999996
57,0,0,91.5849999999996
69,49,0.0025,91.5874999999996
48,40,0,91.5874999999996
52,40,0,91.5874999999996
57,40,0,91.5874999999996
69,0,0.5975,92.18499999999959
48,0,0,92.18499999999959
52,0,0,92.18499999999959
57,0,0,92.18499999999959
66,49,0.0025,92.18749999999959
47,40,0,92.18749999999959
52,40,0,92.18749999999959
59,40,0,92.18749999999959
47,0,0.5925,92.77999999999959
52,0,0,92.77999999999959
59,0,0,92.77999999999959
47,40,0.0025,92.78249999999959
52,40,0,92.78249999999959
59,40,0,92.78249999999959
47,0,0.5975,93.37999999999958
52,0,0,93.37999999999958
59,0,0,93.37999999999958
47,40,0.0025,93.38249999999958
52,40,0,93.38249999999958
59,40,0,93.38249999999958
47,0,0.5975,93.97999999999958
52,0,0,93.97999999999958
59,0,0,93.97999999999958
47,40,0.0025,93.98249999999958
52,40,0,93.98249999999958
59,40,0,93.98249999999958
47,0,0.5975,94.57999999999957
52,0,0,94.57999999999957
59,0,0,94.57999999999957
47,40,0.0025,94.58249999999957
51,40,0,94.58249999999957
59,40,0,94.58249999999957
47,0,0.5925,95.17499999999957
51,0,0,95.17499999999957
59,0,0,95.17499999999957
47,40,0.0025,95.17749999999957
51,40,0,95.17749999999957
59,40,0,95.17749999999957
47,0,0.5975,95.77499999999957
51,0,0,95.77499999999957
59,0,0,95.77499999999957
47,40,0.0025,95.77749999999956
51,40,0,95.77749999999956
57,40,0,95.77749999999956
47,0,0.5925,96.36999999999956
51,0,0,96.36999999999956
57,0,0,96.36999999999956
47,40,0.0025,96.37249999999956
51,40,0,96.37249999999956
57,40,0,96.37249999999956
66,0,0.2975,96.66999999999956
64,49,0.0025,96.67249999999956
64,0,0.2975,96.96999999999956
47,0,0,96.96999999999956
51,0,0,96.96999999999956
57,0,0,96.96999999999956
64,48,0.0025,96.97249999999956
48,40,0,96.97249999999956
55,40,0,96.97249999999956
48,0,0.5925,97.56499999999956
55,0,0,97.56499999999956
48,40,0.0025,97.56749999999955
55,40,0,97.56749999999955
48,0,0.5975,98.16499999999955
55,0,0,98.16499999999955
48,40,0.0025,98.16749999999955
55,40,0,98.16749999999955
48,0,0.5975,98.76499999999955
55,0,0,98.76499999999955
48,40,0.0025,98.76749999999954
55,40,0,98.76749999999954
48,0,0.5975,99.36499999999954
55,0,0,99.36499999999954
48,40,0.0025,99.36749999999954
58,40,0,99.36749999999954
48,0,0.5925,99.95999999999954
58,0,0,99.95999999999954
48,40,0.0025,99.96249999999954
58,40,0,99.96249999999954
64,0,0.5975,100.55999999999953
48,0,0,100.55999999999953
58,0,0,100.55999999999953
66,42,0.0025,100.56249999999953
48,40,0,100.56249999999953
52,40,0,100.56249999999953
57,40,0,100.56249999999953
48,0,0.5925,101.15499999999953
52,0,0,101.15499999999953
57,0,0,101.15499999999953
48,40,0.0025,101.15749999999953
52,40,0,101.15749999999953
57,40,0,101.15749999999953
66,0,0.5975,101.75499999999953
48,0,0,101.75499999999953
52,0,0,101.75499999999953
57,0,0,101.75499999999953
64,40,0.0025,101.75749999999952
47,40,0,101.75749999999952
52,40,0,101.75749999999952
57,40,0,101.75749999999952
47,0,0.5925,102.34999999999953
52,0,0,102.34999999999953
57,0,0,102.34999999999953
47,40,0.0025,102.35249999999952
52,40,0,102.35249999999952
57,40,0,102.35249999999952
47,0,0.5975,102.94999999999952
52,0,0,102.94999999999952
57,0,0,102.94999999999952
47,40,0.0025,102.95249999999952
52,40,0,102.95249999999952
56,40,0,102.95249999999952
47,0,0.5925,103.54499999999952
52,0,0,103.54499999999952
56,0,0,103.54499999999952
47,40,0.0025,103.54749999999952
52,40,0,103.54749999999952
56,40,0,103.54749999999952
47,0,0.5975,104.14499999999951
52,0,0,104.14499999999951
56,0,0,104.14499999999951
47,40,0.0025,104.14749999999951
52,40,0,104.14749999999951
55,40,0,104.14749999999951
47,0,0.5925,104.73999999999951
52,0,0,104.73999999999951
55,0,0,104.73999999999951
47,40,0.0025,104.74249999999951
52,40,0,104.74249999999951
55,40,0,104.74249999999951
64,0,0.5975,105.3399999999995
47,0,0,105.3399999999995
52,0,0,105.3399999999995
55,0,0,105.3399999999995
66,35,0.0025,105.3424999999995
47,40,0,105.3424999999995
52,40,0,105.3424999999995
55,40,0,105.3424999999995
47,0,0.5975,105.9399999999995
52,0,0,105.9399999999995
55,0,0,105.9399999999995
47,40,0.0025,105.9424999999995
52,40,0,105.9424999999995
55,40,0,105.9424999999995
66,0,0.5975,106.5399999999995
47,0,0,106.5399999999995
52,0,0,106.5399999999995
55,0,0,106.5399999999995
64,34,0.0025,106.54249999999949
46,40,0,106.54249999999949
48,40,0,106.54249999999949
55,40,0,106.54249999999949
64,0,2.275,108.8174999999995
46,0,0,108.8174999999995
48,0,0,108.8174999999995
55,0,0,108.8174999999995
64,33,2.5225,111.33999999999949
52,33,0,111.33999999999949
54,33,0,111.33999999999949
59,33,0,111.33999999999949
35,33,0,111.33999999999949
47,33,0,111.33999999999949
64,0,2.3975,113.73749999999949
52,0,0,113.73749999999949
54,0,0,113.73749999999949
59,0,0,113.73749999999949
35,0,0,113.73749999999949
47,0,0,113.73749999999949
63,33,0.0025,113.73999999999948
51,33,0,113.73999999999948
54,33,0,113.73999999999948
59,33,0,113.73999999999948
35,33,0,113.73999999999948
42,33,0,113.73999999999948
47,33,0,113.73999999999948
63,0,2.3975,116.13749999999948
51,0,0,116.13749999999948
54,0,0,116.13749999999948
59,0,0,116.13749999999948
35,0,0,116.13749999999948
42,0,0,116.13749999999948
47,0,0,116.13749999999948
64,33,0.0025,116.13999999999947
52,33,0,116.13999999999947
55,33,0,116.13999999999947
59,33,0,116.13999999999947
28,33,0,116.13999999999947
40,33,0,116.13999999999947
64,0,4.5575,120.69749999999948
52,0,0,120.69749999999948
55,0,0,120.69749999999948
59,0,0,120.69749999999948
28,0,0,120.69749999999948
40,0,0,120.69749999999948
70,80,0,0.0
70,0,0.49895833333333334,0.49895833333333334
79,80,0,0.49895833333333334
51,80,0,0.49895833333333334
55,80,0.5,0.9989583333333334
55,0,0.4739583333333333,1.4729166666666667
58,80,0.026041666666666668,1.4989583333333334
51,0,0.4239583333333333,1.9229166666666666
58,0,0.05,1.9729166666666667
51,80,0.026041666666666668,1.9989583333333334
79,0,0.49895833333333334,2.497916666666667
77,80,0.0010416666666666667,2.4989583333333334
56,80,0,2.4989583333333334
56,0,0.4739583333333333,2.972916666666667
77,0,0.025,2.997916666666667
79,80,0.0010416666666666667,2.9989583333333334
59,80,0,2.9989583333333334
51,0,0.4239583333333333,3.4229166666666666
59,0,0.05,3.4729166666666664
79,0,0.025,3.4979166666666663
77,80,0.0010416666666666667,3.498958333333333
51,80,0,3.498958333333333
55,80,0.5,3.998958333333333
55,0,0.4739583333333333,4.472916666666666
58,80,0.026041666666666668,4.498958333333333
51,0,0.4239583333333333,4.922916666666667
58,0,0.05,4.972916666666666
77,0,0.025,4.997916666666667
75,80,0.0010416666666666667,4.998958333333333
50,80,0,4.998958333333333
55,80,0.5,5.498958333333333
75,0,0.44895833333333335,5.947916666666667
55,0,0.025,5.972916666666667
70,80,0.026041666666666668,5.998958333333334
58,80,0,5.998958333333334
50,0,0.4239583333333333,6.4229166666666675
58,0,0.05,6.472916666666667
70,0,0.025,6.497916666666668
79,80,0.0010416666666666667,6.498958333333334
48,80,0,6.498958333333334
52,80,0.5,6.998958333333334
52,0,0.4739583333333333,7.472916666666667
79,0,0.025,7.497916666666668
73,80,0.0010416666666666667,7.498958333333334
55,80,0,7.498958333333334
73,0,0.12395833333333334,7.622916666666668
72,80,0.0010416666666666667,7.623958333333334
72,0,0.12395833333333334,7.747916666666668
71,80,0.0010416666666666667,7.748958333333334
71,0,0.12395833333333334,7.872916666666668
72,80,0.0010416666666666667,7.873958333333334
48,0,0.04895833333333333,7.9229166666666675
55,0,0.05,7.972916666666667
72,0,0.025,7.997916666666668
84,80,0.0010416666666666667,7.998958333333334
48,80,0,7.998958333333334
52,80,0.5,8.498958333333334
52,0,0.4739583333333333,8.972916666666668
84,0,0.025,8.997916666666669
79,80,0.0010416666666666667,8.998958333333336
55,80,0,8.998958333333336
48,0,0.4239583333333333,9.42291666666667
55,0,0.05,9.47291666666667
79,0,0.025,9.49791666666667
82,80,0.0010416666666666667,9.498958333333338
53,80,0,9.498958333333338
58,80,0.5,9.998958333333338
58,0,0.4739583333333333,10.472916666666672
61,80,0.026041666666666668,10.498958333333338
53,0,0.4239583333333333,10.922916666666671
61,0,0.05,10.972916666666672
82,0,0.025,10.997916666666672
80,80,0.0010416666666666667,10.99895833333334
53,80,0,10.99895833333334
56,80,0.5,11.49895833333334
80,0,0.44895833333333335,11.947916666666673
56,0,0.025,11.972916666666674
79,80,0.026041666666666668,11.99895833333334
60,80,0,11.99895833333334
53,0,0.4239583333333333,12.422916666666673
60,0,0.05,12.472916666666674
79,0,0.025,12.497916666666674
77,80,0.0010416666666666667,12.498958333333341
58,80,0,12.498958333333341
62,80,0.5,12.998958333333341
62,0,0.4739583333333333,13.472916666666675
65,80,0.026041666666666668,13.498958333333341
58,0,0.4239583333333333,13.922916666666675
65,0,0.05,13.972916666666675
77,0,0.025,13.997916666666676
79,80,0.0010416666666666667,13.998958333333343
59,80,0,13.998958333333343
62,80,0.5,14.498958333333343
62,0,0.4739583333333333,14.972916666666677
79,0,0.025,14.997916666666677
74,80,0.0010416666666666667,14.998958333333345
65,80,0,14.998958333333345
59,0,0.4239583333333333,15.422916666666678
65,0,0.05,15.472916666666679
74,0,0.025,15.49791666666668
75,80,0.0010416666666666667,15.498958333333347
60,80,0,15.498958333333347
63,80,0.5,15.998958333333347
63,0,0.4739583333333333,16.47291666666668
67,80,0.026041666666666668,16.49895833333335
60,0,0.4239583333333333,16.922916666666683
67,0,0.05,16.972916666666684
75,0,0.025,16.997916666666683
72,80,0.0010416666666666667,16.99895833333335
57,80,0,16.99895833333335
63,80,0.5,17.49895833333335
63,0,0.4739583333333333,17.97291666666668
66,80,0.026041666666666668,17.99895833333335
72,0,0.4239583333333333,18.422916666666683
57,0,0,18.422916666666683
66,0,0.05,18.472916666666684
70,80,0.026041666666666668,18.498958333333352
58,80,0,18.498958333333352
63,80,0,18.498958333333352
68,80,0,18.498958333333352
70,0,0.49895833333333334,18.997916666666686
86,80,0.0010416666666666667,18.998958333333352
86,0,0.49895833333333334,19.497916666666686
84,80,0.0010416666666666667,19.498958333333352
58,0,0.4239583333333333,19.922916666666687
63,0,0,19.922916666666687
68,0,0,19.922916666666687
84,0,0.075,19.997916666666686
82,80,0.0010416666666666667,19.998958333333352
58,80,0,19.998958333333352
62,80,0,19.998958333333352
68,80,0,19.998958333333352
82,0,0.24895833333333334,20.247916666666686
80,80,0.0010416666666666667,20.248958333333352
80,0,0.24895833333333334,20.497916666666686
79,80,0.0010416666666666667,20.498958333333352
79,0,0.24895833333333334,20.747916666666686
80,80,0.0010416666666666667,20.748958333333352
80,0,0.24895833333333334,20.997916666666686
72,80,0.0010416666666666667,20.998958333333352
72,0,0.24895833333333334,21.247916666666686
74,80,0.0010416666666666667,21.248958333333352
58,0,0.17395833333333333,21.422916666666687
62,0,0,21.422916666666687
68,0,0,21.422916666666687
74,0,0.075,21.497916666666686
75,80,0.0010416666666666667,21.498958333333352
51,80,0,21.498958333333352
55,80,0.5,21.998958333333352
55,0,0.4739583333333333,22.472916666666684
58,80,0.026041666666666668,22.498958333333352
75,0,0.4239583333333333,22.922916666666687
51,0,0,22.922916666666687
58,0,0.05,22.972916666666688
51,80,0.026041666666666668,22.998958333333356
55,80,0.5,23.498958333333356
55,0,0.4739583333333333,23.972916666666688
70,80,0.026041666666666668,23.998958333333356
58,80,0,23.998958333333356
51,0,0.4239583333333333,24.42291666666669
58,0,0.05,24.47291666666669
70,0,0.025,24.49791666666669
79,80,0.0010416666666666667,24.498958333333356
51,80,0,24.498958333333356
55,80,0.5,24.998958333333356
55,0,0.4739583333333333,25.472916666666688
58,80,0.026041666666666668,25.498958333333356
51,0,0.4239583333333333,25.92291666666669
58,0,0.05,25.97291666666669
79,0,0.025,25.99791666666669
77,80,0.0010416666666666667,25.998958333333356
51,80,0,25.998958333333356
77,0,0.24895833333333334,26.24791666666669
79,80,0.0010416666666666667,26.248958333333356
79,0,0.24895833333333334,26.49791666666669
77,80,0.0010416666666666667,26.498958333333356
59,80,0,26.498958333333356
77,0,0.24895833333333334,26.74791666666669
76,80,0.0010416666666666667,26.748958333333356
76,0,0.24895833333333334,26.99791666666669
77,80,0.0010416666666666667,26.998958333333356
77,0,0.24895833333333334,27.24791666666669
79,80,0.0010416666666666667,27.248958333333356
51,0,0.17395833333333333,27.42291666666669
59,0,0.025,27.44791666666669
79,0,0.05,27.49791666666669
77,80,0.0010416666666666667,27.498958333333356
51,80,0,27.498958333333356
77,0,0.49895833333333334,27.99791666666669
75,80,0.0010416666666666667,27.998958333333356
55,80,0,27.998958333333356
55,0,0.4739583333333333,28.472916666666688
58,80,0.026041666666666668,28.498958333333356
51,0,0.4239583333333333,28.92291666666669
58,0,0.05,28.97291666666669
50,80,0.026041666666666668,28.99895833333336
75,0,0.18645833333333334,29.185416666666693
77,80,0.06354166666666666,29.24895833333336
77,0,0.24895833333333334,29.497916666666693
75,80,0.0010416666666666667,29.49895833333336
55,80,0,29.49895833333336
75,0,0.24895833333333334,29.747916666666693
74,80,0.0010416666666666667,29.74895833333336
55,0,0.22395833333333334,29.97291666666669
74,0,0.025,29.99791666666669
75,80,0.0010416666666666667,29.998958333333356
58,80,0,29.998958333333356
75,0,0.24895833333333334,30.24791666666669
77,80,0.0010416666666666667,30.248958333333356
50,0,0.17395833333333333,30.42291666666669
58,0,0.05,30.47291666666669
77,0,0.025,30.49791666666669
79,80,0.0010416666666666667,30.498958333333356
48,80,0,30.498958333333356
79,0,0.24895833333333334,30.74791666666669
71,80,0.0010416666666666667,30.748958333333356
71,0,0.24895833333333334,30.99791666666669
72,80,0.0010416666666666667,30.998958333333356
52,80,0,30.998958333333356
58,80,0,30.998958333333356
72,0,0.24895833333333334,31.24791666666669
73,80,0.0010416666666666667,31.248958333333356
73,0,0.24895833333333334,31.49791666666669
72,80,0.0010416666666666667,31.498958333333356
72,0,0.24895833333333334,31.74791666666669
77,80,0.0010416666666666667,31.748958333333356
48,0,0.17395833333333333,31.92291666666669
52,0,0.025,31.94791666666669
58,0,0,31.94791666666669
77,0,0.05,31.99791666666669
76,80,0.0010416666666666667,31.998958333333356
48,80,0,31.998958333333356
76,0,0.24895833333333334,32.24791666666669
80,80,0.0010416666666666667,32.248958333333356
80,0,0.24895833333333334,32.49791666666669
79,80,0.0010416666666666667,32.498958333333356
52,80,0,32.498958333333356
58,80,0,32.498958333333356
79,0,0.24895833333333334,32.74791666666669
85,80,0.0010416666666666667,32.748958333333356
85,0,0.24895833333333334,32.99791666666669
84,80,0.0010416666666666667,32.998958333333356
84,0,0.24895833333333334,33.24791666666669
79,80,0.0010416666666666667,33.248958333333356
48,0,0.17395833333333333,33.42291666666669
52,0,0.025,33.447916666666686
58,0,0,33.447916666666686
79,0,0.05,33.49791666666668
82,80,0.0010416666666666667,33.49895833333335
53,80,0,33.49895833333335
58,80,0.5,33.99895833333335
58,0,0.4739583333333333,34.472916666666684
61,80,0.026041666666666668,34.49895833333335
53,0,0.4239583333333333,34.92291666666668
61,0,0.05,34.97291666666668
82,0,0.025,34.997916666666676
80,80,0.0010416666666666667,34.99895833333334
53,80,0,34.99895833333334
56,80,0.5,35.49895833333334
80,0,0.44895833333333335,35.94791666666667
56,0,0.025,35.97291666666667
79,80,0.026041666666666668,35.998958333333334
60,80,0,35.998958333333334
53,0,0.4239583333333333,36.422916666666666
60,0,0.05,36.47291666666666
79,0,0.025,36.49791666666666
77,80,0.0010416666666666667,36.49895833333333
58,80,0,36.49895833333333
62,80,0.5,36.99895833333333
62,0,0.4739583333333333,37.47291666666666
65,80,0.026041666666666668,37.49895833333333
58,0,0.4239583333333333,37.92291666666666
65,0,0.05,37.972916666666656
77,0,0.025,37.997916666666654
79,80,0.0010416666666666667,37.99895833333332
59,80,0,37.99895833333332
62,80,0.5,38.49895833333332
62,0,0.4739583333333333,38.972916666666656
79,0,0.025,38.997916666666654
74,80,0.0010416666666666667,38.99895833333332
65,80,0,38.99895833333332
59,0,0.4239583333333333,39.42291666666665
65,0,0.05,39.47291666666665
74,0,0.025,39.49791666666665
75,80,0.0010416666666666667,39.49895833333331
60,80,0,39.49895833333331
63,80,0.5,39.99895833333331
63,0,0.4739583333333333,40.47291666666665
67,80,0.026041666666666668,40.49895833333331
60,0,0.4239583333333333,40.922916666666644
67,0,0.05,40.97291666666664
75,0,0.025,40.99791666666664
72,80,0.0010416666666666667,40.998958333333306
57,80,0,40.998958333333306
63,80,0.5,41.498958333333306
63,0,0.4739583333333333,41.97291666666664
66,80,0.026041666666666668,41.998958333333306
72,0,0.4239583333333333,42.42291666666664
57,0,0,42.42291666666664
66,0,0.05,42.472916666666634
70,80,0.026041666666666668,42.4989583333333
58,80,0,42.4989583333333
63,80,0,42.4989583333333
68,80,0,42.4989583333333
70,0,0.49895833333333334,42.99791666666663
86,80,0.0010416666666666667,42.9989583333333
86,0,0.49895833333333334,43.49791666666663
84,80,0.0010416666666666667,43.4989583333333
58,0,0.4239583333333333,43.92291666666663
63,0,0,43.92291666666663
68,0,0,43.92291666666663
84,0,0.075,43.99791666666663
82,80,0.0010416666666666667,43.9989583333333
58,80,0,43.9989583333333
62,80,0,43.9989583333333
68,80,0,43.9989583333333
82,0,0.24895833333333334,44.24791666666663
80,80,0.0010416666666666667,44.2489583333333
80,0,0.24895833333333334,44.49791666666663
79,80,0.0010416666666666667,44.4989583333333
79,0,0.24895833333333334,44.74791666666663
80,80,0.0010416666666666667,44.7489583333333
80,0,0.24895833333333334,44.99791666666663
72,80,0.0010416666666666667,44.9989583333333
72,0,0.24895833333333334,45.24791666666663
74,80,0.0010416666666666667,45.2489583333333
58,0,0.17395833333333333,45.42291666666663
62,0,0,45.42291666666663
68,0,0,45.42291666666663
74,0,0.075,45.49791666666663
67,80,0.0010416666666666667,45.4989583333333
75,80,0,45.4989583333333
51,80,0,45.4989583333333
55,80,0.5,45.9989583333333
55,0,0.4739583333333333,46.472916666666634
58,80,0.026041666666666668,46.4989583333333
51,0,0.4239583333333333,46.92291666666663
51,80,0.07604166666666666,46.9989583333333
58,0,1.3989583333333333,48.39791666666663
67,0,0.025,48.42291666666663
75,0,0,48.42291666666663
51,0,0,48.42291666666663
73,67,0,0.0
73,67,0,0.0
72,67,0,0.0
72,67,0,0.0
71,67,0,0.0
71,67,0,0.0
71,67,0,0.0
70,67,0,0.0
69,67,0,0.0
68,67,0,0.0
68,67,0,0.0
67,67,0,0.0
67,67,0,0.0
67,67,0,0.0
66,67,0,0.0
65,67,0,0.0
65,67,0,0.0
65,67,0,0.0
65,67,0,0.0
65,67,0,0.0
65,67,0,0.0
65,67,0,0.0
66,67,0,0.0
66,67,0,0.0
66,67,0,0.0
66,67,0,0.0
66,67,0,0.0
66,67,0,0.0
66,67,0,0.0
66,67,0,0.0
67,67,0,0.0
67,67,0,0.0
67,67,0,0.0
67,67,0,0.0
68,67,0,0.0
68,67,0,0.0
69,67,0,0.0
69,67,0,0.0
70,67,0,0.0
70,67,0,0.0
70,67,0,0.0
71,67,0,0.0
71,67,0,0.0
72,67,0,0.0
72,67,0,0.0
72,67,0,0.0
72,67,0,0.0
72,67,0,0.0
71,67,0,0.0
70,67,0,0.0
70,67,0,0.0
70,67,0,0.0
70,67,0,0.0
70,67,0,0.0
69,67,0,0.0
68,67,0,0.0
67,67,0,0.0
67,67,0,0.0
68,67,0,0.0
69,67,0,0.0
71,67,0,0.0
72,67,0,0.0
73,67,0,0.0
74,67,0,0.0
74,67,0,0.0
75,67,0,0.0
75,67,0,0.0
75,67,0,0.0
75,67,0,0.0
75,67,0,0.0
75,67,0,0.0
75,67,0,0.0
74,67,0,0.0
74,67,0,0.0
74,67,0,0.0
73,67,0,0.0
73,67,0,0.0
73,67,0,0.0
72,67,0,0.0
72,67,0,0.0
71,67,0,0.0
71,67,0,0.0
71,67,0,0.0
71,67,0,0.0
71,67,0,0.0
70,67,0,0.0
70,67,0,0.0
69,67,0,0.0
69,67,0,0.0
69,67,0,0.0
70,67,0,0.0
69,67,0,0.0
69,67,0,0.0
69,67,0,0.0
69,67,0,0.0
69,67,0,0.0
68,67,0,0.0
68,67,0,0.0
68,67,0,0.0
68,67,0,0.0
67,67,0,0.0
67,67,0,0.0
67,67,0,0.0
67,67,0,0.0
67,67,0,0.0
66,67,0,0.0
66,67,0,0.0
66,67,0,0.0
65,67,0,0.0
65,67,0,0.0
64,67,0,0.0
64,67,0,0.0
64,67,0,0.0
64,67,0,0.0
64,67,0,0.0
64,67,0,0.0
64,67,0,0.0
64,67,0,0.0
64,67,0,0.0
63,67,0,0.0
63,67,0,0.0
63,67,0,0.0
63,67,0,0.0
63,67,0,0.0
64,67,0,0.0
64,67,0,0.0
65,67,0,0.0
65,67,0,0.0
66,67,0,0.0
67,67,0,0.0
67,67,0,0.0
68,67,0,0.0
69,67,0,0.0
70,67,0,0.0
70,67,0,0.0
71,67,0,0.0
72,67,0,0.0
72,67,0,0.0
73,67,0,0.0
74,67,0,0.0
75,67,0,0.0
75,67,0,0.0
74,67,0,0.0
74,67,0,0.0
74,67,0,0.0
74,67,0,0.0
73,67,0,0.0
72,67,0,0.0
71,67,0,0.0
71,67,0,0.0
71,67,0,0.0
71,67,0,0.0
71,67,0,0.0
71,67,0,0.0
72,67,0,0.0
72,67,0,0.0
72,67,0,0.0
72,67,0,0.0
72,67,0,0.0
71,67,0,0.0
71,67,0,0.0
71,67,0,0.0
70,67,0,0.0
69,67,0,0.0
69,67,0,0.0
68,67,0,0.0
68,67,0,0.0
67,67,0,0.0
66,67,0,0.0
65,67,0,0.0
64,67,0,0.0
64,67,0,0.0
63,67,0,0.0
62,67,0,0.0
62,67,0,0.0
62,67,0,0.0
62,67,0,0.0
63,67,0,0.0
63,67,0,0.0
63,67,0,0.0
63,67,0,0.0
63,67,0,0.0
62,67,0,0.0
61,67,0,0.0
60,67,0,0.0
60,67,0,0.0
60,67,0,0.0
59,67,0,0.0
59,67,0,0.0
60,67,0,0.0
61,67,0,0.0
62,67,0,0.0
62,67,0,0.0
62,67,0,0.0
63,67,0,0.0
63,67,0,0.0
63,67,0,0.0
63,67,0,0.0
63,67,0,0.0
63,67,0,0.0
63,67,0,0.0
64,67,0,0.0
64,67,0,0.0
64,67,0,0.0
63,67,0,0.0
63,67,0,0.0
62,67,0,0.0
61,67,0,0.0
60,67,0,0.0
60,67,0,0.0
59,67,0,0.0
59,67,0,0.0
59,67,0,0.0
60,67,0,0.0
61,67,0,0.0
62,67,0,0.0
62,67,0,0.0
62,67,0,0.0
63,67,0,0.0
63,67,0,0.0
63,67,0,0.0
63,67,0,0.0
63,67,0,0.0
63,67,0,0.0
63,67,0,0.0
64,67,0,0.0
64,67,0,0.0
64,67,0,0.0
63,67,0,0.0
63,67,0,0.0
62,67,0,0.0
61,67,0,0.0
60,67,0,0.0
60,67,0,0.0
59,67,0,0.0
59,67,0,0.0
59,67,0,0.0
60,67,0,0.0
61,67,0,0.0
62,67,0,0.0
62,67,0,0.0
62,67,0,0.0
63,67,0,0.0
63,67,0,0.0
63,67,0,0.0
63,67,0,0.0
63,67,0,0.0
63,67,0,0.0
63,67,0,0.0
64,67,0,0.0
64,67,0,0.0
64,67,0,0.0
64,67,0,0.0
64,67,0,0.0
64,67,0,0.0
63,67,0,0.0
63,67,0,0.0
63,67,0,0.0
64,67,0,0.0
64,67,0,0.0
64,67,0,0.0
64,67,0,0.0
64,67,0,0.0
64,67,0,0.0
64,67,0,0.0
63,67,0,0.0
63,67,0,0.0
63,67,0,0.0
64,67,0,0.0
64,67,0,0.0
64,67,0,0.0
64,67,0,0.0
64,67,0,0.0
64,67,0,0.0
64,67,0,0.0
65,67,0,0.0
66,67,0,0.0
66,67,0,0.0
66,67,0,0.0
66,67,0,0.0
66,67,0,0.0
65,67,0,0.0
65,67,0,0.0
64,67,0,0.0
64,67,0,0.0
64,67,0,0.0
64,67,0,0.0
65,67,0,0.0
65,67,0,0.0
65,67,0,0.0
65,67,0,0.0
65,67,0,0.0
65,67,0,0.0
65,67,0,0.0
65,67,0,0.0
64,67,0,0.0
64,67,0,0.0
64,67,0,0.0
64,67,0,0.0
64,67,0,0.0
68,67,0.019791666666666666,0.019791666666666666
68,67,0.019791666666666666,0.03958333333333333
67,67,0.01875,0.058333333333333334
67,67,0.01875,0.07708333333333334
67,67,0.01875,0.09583333333333334
67,67,0.01875,0.11458333333333334
67,67,0.01875,0.13333333333333333
67,67,0.01875,0.15208333333333332
68,67,0.01875,0.1708333333333333
67,67,0.01875,0.1895833333333333
67,67,0.01875,0.2083333333333333
68,67,0.01875,0.22708333333333328
67,67,0.01875,0.24583333333333326
68,67,0.01875,0.2645833333333333
68,67,0.01875,0.28333333333333327
68,67,0.019791666666666666,0.3031249999999999
67,67,0.01875,0.3218749999999999
67,67,0.01875,0.3406249999999999
68,67,0.01875,0.3593749999999999
68,67,0.019791666666666666,0.37916666666666654
68,67,0.019791666666666666,0.3989583333333332
68,67,0.01875,0.4177083333333332
68,67,0.01875,0.43645833333333317
68,67,0.01875,0.45520833333333316
68,67,0.019791666666666666,0.4749999999999998
68,67,0.019791666666666666,0.49479166666666646
67,67,0.01875,0.5135416666666665
67,67,0.01875,0.5322916666666665
67,67,0.01875,0.5510416666666665
67,67,0.01875,0.5697916666666666
67,67,0.01875,0.5885416666666666
67,67,0.01875,0.6072916666666667
68,67,0.01875,0.6260416666666667
67,67,0.01875,0.6447916666666668
67,67,0.01875,0.6635416666666668
68,67,0.01875,0.6822916666666669
67,67,0.01875,0.7010416666666669
68,67,0.01875,0.7197916666666669
68,67,0.01875,0.738541666666667
68,67,0.019791666666666666,0.7583333333333336
67,67,0.01875,0.7770833333333337
67,67,0.01875,0.7958333333333337
68,67,0.01875,0.8145833333333338
68,67,0.019791666666666666,0.8343750000000004
68,67,0.019791666666666666,0.8541666666666671
68,67,0.01875,0.8729166666666671
68,67,0.01875,0.8916666666666672
68,67,0.01875,0.9104166666666672
68,67,0.019791666666666666,0.9302083333333339
68,67,0.019791666666666666,0.9500000000000005
67,67,0.01875,0.9687500000000006
67,67,0.01875,0.9875000000000006
68,67,0.01875,1.0062500000000005
68,67,0.01875,1.0250000000000006
68,67,0.019791666666666666,1.0447916666666672
68,67,0.01875,1.0635416666666673
68,67,0.01875,1.0822916666666673
68,67,0.01875,1.1010416666666674
68,67,0.019791666666666666,1.120833333333334
68,67,0.019791666666666666,1.1406250000000007
67,67,0.01875,1.1593750000000007
67,67,0.01875,1.1781250000000008
68,67,0.01875,1.1968750000000008
68,67,0.01875,1.2156250000000008
68,67,0.019791666666666666,1.2354166666666675
68,67,0.01875,1.2541666666666675
68,67,0.01875,1.2729166666666676
68,67,0.01875,1.2916666666666676
68,67,0.019791666666666666,1.3114583333333343
68,67,0.019791666666666666,1.331250000000001
67,67,0.01875,1.350000000000001
67,67,0.01875,1.368750000000001
68,67,0.01875,1.387500000000001
68,67,0.01875,1.406250000000001
68,67,0.019791666666666666,1.4260416666666678
68,67,0.01875,1.4447916666666678
68,67,0.019791666666666666,1.4645833333333345
67,67,0.01875,1.4833333333333345
68,67,0.01875,1.5020833333333345
68,67,0.01875,1.5208333333333346
68,67,0.019791666666666666,1.5406250000000012
67,67,0.01875,1.5593750000000013
67,67,0.01875,1.5781250000000013
68,67,0.01875,1.5968750000000014
68,67,0.01875,1.6156250000000014
68,67,0.01875,1.6343750000000015
68,67,0.01875,1.6531250000000015
68,67,0.01875,1.6718750000000016
68,67,0.019791666666666666,1.6916666666666682
67,67,0.01875,1.7104166666666683
68,67,0.01875,1.7291666666666683
68,67,0.019791666666666666,1.748958333333335
68,67,0.019791666666666666,1.7687500000000016
67,67,0.01875,1.7875000000000016
67,67,0.01875,1.8062500000000017
68,67,0.01875,1.8250000000000017
68,67,0.019791666666666666,1.8447916666666684
67,67,0.01875,1.8635416666666684
68,67,0.01875,1.8822916666666685
69,67,0.019791666666666666,1.9020833333333351
